<?xml version="1.0" standalone="no"?>
<!DOCTYPE svg PUBLIC "-//W3C//DTD SVG 1.1//EN" "http://www.w3.org/Graphics/SVG/1.1/DTD/svg11.dtd" >
<svg xmlns="http://www.w3.org/2000/svg">
<metadata></metadata>
<defs>
<font id="albrecht-inline50" horiz-adv-x="473" >
<font-face units-per-em="2048" ascent="1638" descent="-410" />
<missing-glyph horiz-adv-x="512" />
<glyph unicode="&#xfb01;" horiz-adv-x="1064" d="M20 985q0 42 31 72t74 30h37v119q0 137 78 209q77 68 217 68h32q43 -2 72.5 -33t28.5 -74q-2 -43 -33 -72t-74 -28q-85 5 -104 -14q-10 -7 -10 -56v-119h120q42 0 72.5 -30t30.5 -72q0 -43 -31 -73.5t-72 -30.5h-120v-793q0 -43 -31 -73.5t-74 -30.5t-72.5 30.5 t-29.5 73.5v793h-37q-43 0 -74 30.5t-31 73.5zM72 983q0 -22 14.5 -36.5t36.5 -14.5h90v-846q0 -22 14.5 -36.5t36.5 -14.5t36.5 14.5t14.5 36.5v846h172q22 0 37 14.5t15 36.5t-15 36.5t-37 14.5h-172v172q0 60 25.5 88t85.5 29q12 4 57 4q22 -1 37 13t17 36q0 22 -14 37.5 t-36 16.5h-32q-118 0 -181 -54q-61 -55 -61 -170v-172h-90q-22 0 -36.5 -14.5t-14.5 -36.5zM735 86v915q0 43 31 73t74 30q42 0 72 -30t30 -73v-915q0 -41 -30.5 -71.5t-71.5 -30.5q-43 0 -74 30.5t-31 71.5zM735 1270v92q0 42 31 72t74 30q42 0 72 -30t30 -72v-92 q0 -41 -30.5 -72t-71.5 -31q-43 0 -74 31t-31 72zM786 86q0 -20 16 -35.5t38 -15.5q20 0 34.5 15.5t14.5 35.5v915q0 20 -14.5 35t-34.5 15q-22 0 -38 -15t-16 -35v-915zM786 1268q0 -20 16 -35.5t38 -15.5q20 0 34.5 15.5t14.5 35.5v94q0 22 -14.5 36.5t-34.5 14.5 q-22 0 -38 -15t-16 -36v-94z" />
<glyph unicode="&#xfb02;" horiz-adv-x="1085" d="M20 985q0 42 31 72t74 30h37v119q0 137 78 209q77 68 217 68h32q43 -2 72.5 -33t28.5 -74q-2 -43 -33 -72t-74 -28q-85 5 -104 -14q-10 -7 -10 -56v-119h120q42 0 72.5 -30t30.5 -72q0 -43 -31 -73.5t-72 -30.5h-120v-793q0 -43 -31 -73.5t-74 -30.5t-72.5 30.5 t-29.5 73.5v793h-37q-43 0 -74 30.5t-31 73.5zM72 983q0 -22 14.5 -36.5t36.5 -14.5h90v-846q0 -22 14.5 -36.5t36.5 -14.5t36.5 14.5t14.5 36.5v846h172q22 0 37 14.5t15 36.5t-15 36.5t-37 14.5h-172v172q0 60 25.5 88t85.5 29q12 4 57 4q22 -1 37 13t17 36q0 22 -14 37.5 t-36 16.5h-32q-118 0 -181 -54q-61 -55 -61 -170v-172h-90q-22 0 -36.5 -14.5t-14.5 -36.5zM735 86v1292q0 43 31 74t72 31q43 0 73.5 -31t30.5 -74v-1292q0 -43 -30.5 -72.5t-73.5 -29.5q-42 0 -72.5 30t-30.5 72zM786 86q0 -21 15.5 -36t36.5 -15q22 0 37.5 14.5 t15.5 36.5v1292q0 22 -15.5 38t-37.5 16q-20 0 -36 -16t-16 -38v-1292z" />
<glyph horiz-adv-x="2048" />
<glyph horiz-adv-x="2048" />
<glyph horiz-adv-x="682" />
<glyph unicode="&#xd;" horiz-adv-x="307" />
<glyph unicode=" "  horiz-adv-x="512" />
<glyph unicode="&#x09;" horiz-adv-x="512" />
<glyph unicode="&#xa0;" horiz-adv-x="512" />
<glyph unicode="!" horiz-adv-x="460" d="M94 96v45q0 47 34 81t81 34h45q47 0 82 -34t35 -81v-45q0 -47 -34.5 -79.5t-82.5 -32.5h-45q-48 0 -81.5 32.5t-33.5 79.5zM133 424v960q0 43 30 74t73 31q42 0 72 -31t30 -74v-960q0 -43 -29.5 -72.5t-72.5 -29.5t-73 29.5t-30 72.5zM147 96q0 -26 18 -43.5t44 -17.5h45 q26 0 44.5 17.5t18.5 43.5v45q0 26 -18.5 44t-44.5 18h-45q-26 0 -44 -18t-18 -44v-45zM184 424q0 -20 15 -35.5t37 -15.5q21 0 36 15t15 36v960q0 22 -15 38t-36 16q-22 0 -37 -16t-15 -38v-960z" />
<glyph unicode="&#x22;" horiz-adv-x="716" d="M123 1147v233q0 43 30.5 73t73.5 30q42 0 72.5 -30.5t30.5 -72.5v-233q0 -42 -30.5 -72.5t-72.5 -30.5q-43 0 -73.5 30t-30.5 73zM174 1147q0 -20 15.5 -35.5t37.5 -15.5q20 0 36 15.5t16 35.5v233q0 21 -15.5 36.5t-36.5 15.5q-22 0 -37.5 -15t-15.5 -37v-233zM387 1147 v233q0 43 31 73t74 30q42 0 72 -30.5t30 -72.5v-233q0 -43 -30 -73t-72 -30q-43 0 -74 30t-31 73zM438 1147q0 -20 16 -35.5t38 -15.5q20 0 35.5 15.5t15.5 35.5v233q0 22 -15.5 37t-35.5 15q-22 0 -38 -15t-16 -37v-233z" />
<glyph unicode="#" horiz-adv-x="1247" d="M104 555q0 42 31 72t74 30h104l29 211h-72q-43 0 -73.5 31t-30.5 74t30.5 72.5t73.5 29.5h101l43 320q4 39 33.5 64.5t68.5 25.5q49 0 78.5 -36t23.5 -83l-38 -291h159l43 320q4 39 34 64.5t69 25.5q49 0 78.5 -36t23.5 -83l-39 -291h103q43 0 73.5 -29.5t30.5 -72.5 t-30.5 -74t-73.5 -31h-131l-29 -211h98q43 0 74 -30t31 -72q0 -43 -31 -73.5t-74 -30.5h-127l-51 -377q-6 -40 -35 -65t-67 -25q-42 0 -76.5 33.5t-26.5 84.5l47 349h-159l-52 -377q-6 -40 -35 -65t-67 -25q-42 0 -76 33.5t-26 84.5l47 349h-76q-43 0 -74 30.5t-31 73.5z M156 553q0 -21 15 -36t36 -15h137l-55 -406q-4 -26 12 -43.5t37 -17.5q20 0 34 12.5t17 32.5l57 422h267l-56 -406q-4 -26 12.5 -43.5t37.5 -17.5q20 0 34 12.5t17 32.5l57 422h174q21 0 36 15t15 36q0 23 -14.5 37t-36.5 14h-160l43 316h179q22 0 36.5 14.5t14.5 36.5 q0 23 -14.5 37t-36.5 14h-164l49 350q3 25 -11.5 42.5t-39.5 17.5q-20 0 -34 -12t-17 -31l-50 -367h-266l49 350q3 25 -11.5 42.5t-39.5 17.5q-20 0 -34 -12t-17 -31l-49 -367h-148q-22 0 -36.5 -14t-14.5 -37q0 -22 14.5 -36.5t36.5 -14.5h133l-43 -316h-151 q-22 0 -36.5 -14t-14.5 -37zM461 604l43 316h266l-43 -316h-266zM522 657h160l29 211h-160z" />
<glyph unicode="$" horiz-adv-x="1343" d="M102 449q-5 46 26.5 81t78.5 35q39 0 68.5 -26.5t33.5 -65.5q26 -228 256 -280v491q-184 39 -262 88q-151 93 -151 297q0 170 114 280.5t299 135.5v131q0 42 31 72t74 30q42 0 72 -30t30 -72v-133q172 -24 283 -125.5t141 -272.5q2 -6 2 -18q0 -42 -29.5 -73t-72.5 -31 q-37 0 -67 25t-36 61q-36 187 -221 225v-420q82 -16 117.5 -24t93.5 -27.5t98 -44.5q164 -103 164 -330q0 -194 -131 -315t-342 -140v-118q0 -43 -30 -73t-72 -30q-43 0 -74 30t-31 73v127q-193 33 -316 153t-147 314zM154 457q22 -187 143.5 -297.5t320.5 -130.5v-174 q0 -22 15 -37t37 -15q20 0 35.5 15.5t15.5 36.5v170q208 5 338.5 112t130.5 293q0 157 -88 236q-51 58 -132.5 86t-221.5 53l-27 6v524q277 -26 321 -276q3 -18 18 -29.5t34 -11.5q21 0 35 14t16 35l-2 10q-29 162 -139 254.5t-283 106.5l-2 178q0 22 -14.5 36.5t-34.5 14.5 q-22 0 -38 -15t-16 -36v-178q-181 -11 -297 -108t-116 -259q0 -169 112 -246q50 -35 118 -55t183 -43v-596q-155 19 -248.5 104t-113.5 234q-1 20 -15.5 32.5t-33.5 12.5q-23 0 -38.5 -17t-12.5 -40zM305 1071q0 121 86.5 187.5t226.5 76.5v-504q-70 15 -104 23t-76 23.5 t-67 33.5q-66 52 -66 160zM358 1069q0 -55 14 -80.5t40 -42.5q52 -29 153 -51v381q-94 -19 -150.5 -70t-56.5 -137zM721 127v580l8 -2q91 -17 137.5 -28t98 -35.5t77.5 -59.5q45 -55 45 -152q0 -143 -102 -221.5t-264 -81.5zM772 182q121 12 193.5 75.5t72.5 170.5 q0 67 -17.5 100t-49.5 54q-49 32 -199 61v-461z" />
<glyph unicode="%" horiz-adv-x="1751" d="M92 1104q0 169 80 272q43 56 105.5 86.5t134.5 30.5q150 0 239 -115q78 -104 78 -274q0 -175 -78 -275q-86 -112 -241 -112q-152 0 -238 112q-80 103 -80 275zM137 1104q0 -156 72 -246q72 -96 201 -96q132 0 204 96q70 92 70 246q0 156 -70 248q-75 96 -202 96 q-130 0 -203 -98q-72 -90 -72 -246zM221 1104q0 50 10 94t31.5 82.5t60 61t89.5 22.5q85 0 137 -64q51 -70 51 -196q0 -131 -51 -197q-49 -61 -139 -61t-138 63q-51 70 -51 195zM266 1104q0 -109 43 -168q36 -45 101 -45q70 0 102 43q43 55 43 170q0 113 -43 168 q-36 47 -100 47q-45 0 -76.5 -23t-45.5 -60t-19 -68.5t-5 -63.5zM346 78q0 28 16 49l916 1343q26 37 72 37q33 0 59.5 -26t26.5 -62q0 -25 -15 -49l-917 -1343q-26 -37 -72 -37q-33 0 -59.5 26t-26.5 62zM391 78q0 -19 12 -31t29 -12q23 0 35 18l917 1344q7 14 7 22 q0 18 -13 30.5t-28 12.5q-23 0 -35 -18l-916 -1344q-8 -11 -8 -22zM1022 360q0 170 80 273q43 56 105 86.5t134 30.5q151 0 240 -115q78 -104 78 -275q0 -174 -78 -274q-87 -113 -242 -113q-150 0 -237 113q-80 103 -80 274zM1069 360q0 -157 70 -245q72 -97 200 -97 q132 0 205 95q70 91 70 247q0 153 -70 248q-72 94 -203 94q-127 0 -202 -96q-70 -91 -70 -246zM1151 360q0 68 17 124t61.5 96.5t111.5 40.5q89 0 138 -64q53 -68 53 -197q0 -131 -53 -196q-49 -64 -140 -64q-83 0 -137 66q-51 66 -51 194zM1196 360q0 -108 43 -167 q37 -46 100 -46q71 0 103 43q43 55 43 170q0 113 -43 168q-36 47 -101 47q-45 0 -76.5 -23t-45 -60t-18.5 -68.5t-5 -63.5z" />
<glyph unicode="&#x26;" horiz-adv-x="1368" d="M102 414q0 88 25 160t74.5 128t100 95t122.5 82q-55 72 -78.5 139t-23.5 145q0 142 90 235t225 93q134 0 221.5 -92.5t87.5 -237.5q0 -204 -205 -344l226 -289q16 62 16 138q0 44 31.5 75t75.5 31t76 -31t32 -75q0 -184 -74 -340l119 -154q23 -29 23 -68q0 -50 -32 -78 t-75 -28q-53 0 -86 41l-78 100q-157 -168 -407 -168q-92 0 -178 29t-155.5 83t-111 140t-41.5 191zM154 414q0 -92 37 -167.5t98.5 -123t138.5 -73t160 -25.5q260 0 407 200l119 -153q16 -21 45 -21q22 0 37.5 14t15.5 39q0 22 -10 35l-139 180q84 160 84 347q0 23 -17 39 t-40 16t-38.5 -16.5t-15.5 -38.5q0 -138 -53 -242l-319 407q111 67 171 143t60 187q0 124 -72.5 201.5t-185.5 77.5q-114 0 -189 -78t-75 -199q0 -78 29.5 -145.5t101.5 -153.5q-57 -33 -92 -55.5t-81 -56t-73.5 -65.5t-53.5 -74t-38 -91.5t-12 -107.5zM266 414 q0 112 65 187.5t238 170.5l357 -457q-121 -178 -338 -178q-38 0 -77.5 7t-84.5 26.5t-79.5 49.5t-57.5 80t-23 114zM317 414q0 -51 19 -91.5t47.5 -65t66 -41t71.5 -22.5t67 -6q97 0 165.5 36.5t106.5 88.5l-305 392q-138 -80 -188 -141t-50 -150zM487 1163q0 70 41.5 118 t108.5 48q44 0 75.5 -19.5t45 -49.5t19 -54t5.5 -45q0 -66 -38.5 -121.5t-143.5 -117.5q-65 73 -89 127.5t-24 113.5zM539 1163q0 -45 14.5 -82t56.5 -92q69 47 94 86t25 86q0 26 -5 48.5t-27 44.5t-60 22q-43 0 -70.5 -32.5t-27.5 -80.5z" />
<glyph unicode="'" horiz-adv-x="452" d="M123 1147v233q0 43 30.5 73t73.5 30q42 0 72.5 -30.5t30.5 -72.5v-233q0 -42 -30.5 -72.5t-72.5 -30.5q-43 0 -73.5 30t-30.5 73zM174 1147q0 -20 15.5 -35.5t37.5 -15.5q20 0 36 15.5t16 35.5v233q0 21 -15.5 36.5t-36.5 15.5q-22 0 -37.5 -15t-15.5 -37v-233z" />
<glyph unicode="(" horiz-adv-x="716" d="M123 616q0 209 69 420t189 369q35 49 55 63.5t53 14.5q40 0 72.5 -28t32.5 -75q0 -40 -47 -98q-101 -138 -159 -310t-58 -356q0 -380 225 -735q28 -44 33.5 -55.5t5.5 -32.5q0 -45 -32 -74.5t-73 -29.5q-13 0 -23.5 2t-19.5 7t-15.5 9t-14 13.5t-11 13.5t-11.5 16.5 t-11 16.5q-29 45 -57.5 95t-67 137t-67 175.5t-48.5 206.5t-20 235zM174 616q0 -236 75.5 -452.5t188.5 -388.5q7 -10 9.5 -13.5t9 -10t14.5 -9t18 -2.5q23 0 38 18t12 41q0 5 -27 54q-110 170 -173 365.5t-63 397.5q0 200 66 385t178 334q21 25 21 45q0 23 -16.5 37.5 t-35.5 12.5q-27 0 -51 -33q-121 -157 -192.5 -363t-71.5 -418z" />
<glyph unicode=")" horiz-adv-x="716" d="M123 1380q0 46 32.5 74.5t71.5 28.5q33 0 54 -14.5t57 -63.5q119 -159 187.5 -369.5t68.5 -419.5q0 -144 -28 -285.5t-73.5 -252t-83 -182.5t-75.5 -129q-2 -2 -11 -16t-11.5 -17t-11 -13.5t-14.5 -13.5t-15.5 -8.5t-20 -7.5t-23.5 -2q-39 0 -70.5 29.5t-31.5 74.5 q0 21 5 32t32 56q225 355 225 735q0 185 -57 357t-158 309q-16 20 -24.5 31.5t-16.5 30.5t-8 36zM176 1380q0 -20 21 -45q112 -149 177.5 -334t65.5 -385q0 -202 -62.5 -398t-172.5 -365q-5 -10 -11.5 -20.5t-9 -15.5t-4.5 -9.5t-2 -8.5q-3 -23 11.5 -41t37.5 -18 q14 0 24.5 6t15 11.5t12.5 17.5q113 172 188.5 388.5t75.5 452.5q0 212 -71.5 418t-192.5 363q-26 35 -52 35q-19 0 -35 -14.5t-16 -37.5z" />
<glyph unicode="*" horiz-adv-x="722" d="M92 1284q0 29 20.5 48.5t45.5 19.5q12 0 24 -4l105 -39v116q0 28 19.5 48t45.5 20q27 0 47.5 -20.5t20.5 -47.5v-118l123 41q16 4 22 4q26 0 46 -20t20 -48q0 -21 -12.5 -38t-32.5 -23l-127 -43l90 -123q12 -18 12 -39q0 -27 -20.5 -47.5t-44.5 -20.5q-33 0 -56 29 l-88 121l-88 -123q-23 -27 -53 -27q-26 0 -47 20t-21 46q0 22 13 41l92 125l-113 41q-20 7 -31.5 24.5t-11.5 36.5zM125 1284q0 -25 22 -31l152 -57l-117 -160q-6 -9 -6 -20q0 -12 10 -22.5t25 -10.5q17 0 27 14l114 158l115 -158q14 -14 27 -14q14 0 24 10t10 25q0 9 -6 18 l-116 162l167 55q25 7 25 33q0 12 -9.5 22.5t-23.5 10.5q-8 0 -12 -2l-168 -55v163q0 14 -10 24.5t-23 10.5q-14 0 -24.5 -11t-10.5 -24v-163l-147 55q-4 2 -12 2q-12 0 -22.5 -10.5t-10.5 -24.5z" />
<glyph unicode="+" horiz-adv-x="1085" d="M84 668q0 43 29.5 72.5t72.5 29.5h252v252q0 42 31 73t72 31q43 0 73.5 -30.5t30.5 -73.5v-252h252q43 0 72.5 -29.5t29.5 -72.5t-30 -74t-72 -31h-252v-252q0 -43 -30.5 -72.5t-73.5 -29.5q-42 0 -72.5 30t-30.5 72v252h-252q-42 0 -72 31t-30 74zM135 668 q0 -22 14.5 -37t36.5 -15h306v-305q0 -21 15 -36t36 -15q20 0 35.5 15.5t15.5 35.5v305h303q22 0 36.5 15t14.5 37t-14.5 36.5t-36.5 14.5h-303v303q-2 22 -17 37.5t-36 15.5t-36.5 -15.5t-15.5 -37.5v-303h-303q-22 0 -36.5 -14.5t-14.5 -36.5z" />
<glyph unicode="," d="M57 -96q0 29 16 55t44 39q22 13 35 76q5 28 5.5 55.5t-1.5 54t-2 33.5q-2 41 28 73t74 32q34 0 62 -20.5t38 -53.5q9 -27 9 -90q0 -269 -160 -346q-26 -11 -43 -11q-47 0 -76 31.5t-29 71.5zM109 -96q0 -21 14 -36t37 -15q7 0 22 6q129 61 129 297q0 60 -6 75 q-10 37 -49 37q-23 0 -38 -14.5t-13 -34.5q0 -6 2 -34t1.5 -59t-5.5 -63q-8 -46 -26.5 -74.5t-37.5 -37.5q-30 -13 -30 -47z" />
<glyph unicode="-" horiz-adv-x="901" d="M102 614q0 43 30 74t73 31h491q43 0 73 -31t30 -74t-30 -72.5t-73 -29.5h-491q-43 0 -73 29.5t-30 72.5zM154 614q0 -22 14.5 -35.5t36.5 -13.5h491q22 0 37 14t15 35q0 22 -15 38t-37 16h-491q-21 0 -36 -16t-15 -38z" />
<glyph unicode="." horiz-adv-x="481" d="M102 96v45q0 47 34 81t81 34h45q47 0 82 -34t35 -81v-45q0 -47 -34.5 -79.5t-82.5 -32.5h-45q-48 0 -81.5 32.5t-33.5 79.5zM156 96q0 -26 17.5 -43.5t43.5 -17.5h45q27 0 45.5 17.5t18.5 43.5v45q0 26 -19 44t-45 18h-45q-26 0 -43.5 -18t-17.5 -44v-45z" />
<glyph unicode="/" horiz-adv-x="913" d="M82 2q0 17 6 35l543 1460q12 32 38.5 50t59.5 18q44 0 73 -32t29 -73q0 -17 -6 -35l-542 -1462q-10 -30 -37.5 -48.5t-59.5 -18.5q-41 0 -72.5 29t-31.5 77zM135 0q0 -24 15 -37.5t36 -13.5q34 0 47 33l543 1462q2 6 2 16q0 23 -14 38t-35 15q-35 0 -49 -34l-543 -1461 q-2 -6 -2 -18z" />
<glyph unicode="0" horiz-adv-x="1284" d="M102 731q0 346 147.5 553t393.5 207q249 0 394 -204t145 -556q0 -356 -143.5 -558t-397.5 -202q-249 0 -394 204t-145 556zM156 731q0 -331 130.5 -518.5t354.5 -187.5q229 0 359 185t130 521q0 331 -131.5 520t-355.5 189q-221 0 -354 -192t-133 -517zM258 731 q0 88 12 171t40.5 163t71.5 139.5t110 95.5t151 35q71 0 130 -25t97.5 -65t68 -95.5t45.5 -109.5t26 -116t13 -106t3 -87q0 -61 -5.5 -119t-19 -130.5t-41.5 -132.5t-68.5 -111.5t-105 -81t-145.5 -29.5q-71 0 -130 25t-97.5 65t-68 95.5t-45.5 109.5t-26 116t-13 106t-3 87 zM309 731q0 -42 2.5 -83.5t11 -98.5t22.5 -106t40 -99t59.5 -85.5t84 -58t112.5 -22.5q60 0 110 20t84 53t59.5 80t40.5 95t24.5 105t12.5 104t3 96q0 42 -2.5 83.5t-11 98.5t-22.5 106t-40 99t-59.5 85.5t-84 58t-112.5 22.5q-88 0 -155 -48t-105 -129t-56 -175.5 t-18 -200.5z" />
<glyph unicode="1" horiz-adv-x="792" d="M61 1124q0 40 27.5 70t67.5 33q114 9 157 41q46 32 62 129q6 37 35 61.5t67 24.5h29q41 0 71.5 -31t30.5 -72v-1294q0 -42 -30 -72t-72 -30q-43 0 -73 29.5t-30 72.5v995q-49 -27 -102 -39q-57 -13 -129 -20q-45 -3 -78 27t-33 75zM115 1122q0 -22 15.5 -36.5t37.5 -12.5 q116 9 186 49q63 37 101 111v-1147q0 -22 14.5 -36.5t36.5 -14.5q21 0 36 15t15 36v1294q0 20 -15.5 36t-35.5 16h-29q-19 0 -33.5 -12t-17.5 -31q-19 -115 -82 -162q-57 -42 -184 -51q-20 -1 -33.5 -17.5t-11.5 -36.5z" />
<glyph unicode="2" horiz-adv-x="1216" d="M102 109q0 155 97 303q137 198 407 301q303 109 303 325q0 116 -73 183t-197 67q-134 0 -214.5 -74.5t-86.5 -212.5q-3 -41 -31.5 -68.5t-68.5 -27.5q-44 0 -75.5 32t-29.5 75q12 197 119 319q137 162 387 162q97 0 178 -27.5t134.5 -72t90.5 -101.5t54 -115t18 -114 q5 -123 -43 -223q-102 -212 -393 -320q-286 -107 -354 -315h671q42 0 72.5 -30.5t30.5 -72.5t-30.5 -72t-72.5 -30h-790q-43 0 -73 31.5t-30 77.5zM154 111q0 -25 15 -42t36 -16h790q21 0 36.5 14t15.5 35t-15.5 36.5t-36.5 15.5h-733q22 147 129.5 250.5t267.5 164.5 q201 71 293 203q114 126 111 272q0 107 -48 196.5t-146 145.5t-228 56q-243 0 -369 -168q-39 -53 -62 -125.5t-26 -140.5q0 -21 15.5 -36.5t36.5 -15.5q20 0 35 14t16 36q6 160 102 246.5t252 86.5q144 0 232 -82t88 -223q0 -68 -28.5 -128.5t-77.5 -105.5t-106.5 -79 t-123.5 -57q-133 -47 -237.5 -128.5t-164.5 -183.5q-69 -122 -69 -241z" />
<glyph unicode="3" horiz-adv-x="1253" d="M104 432v8q0 42 29.5 72.5t71.5 30.5q40 0 69.5 -27t32.5 -67q10 -126 99.5 -199.5t232.5 -73.5q150 0 231 72q76 64 76 182q0 87 -35 136t-116 75q-48 15 -72 53q-25 31 -25 82q0 47 27.5 86t69.5 49q54 23 78 60.5t24 97.5q0 96 -63 156q-70 61 -195 61 q-134 0 -207 -67t-82 -187q-3 -41 -32.5 -67.5t-75.5 -26.5q-33 0 -66.5 29t-30.5 80q15 201 152 325q131 119 342 119q202 0 330 -113q133 -121 133 -309q0 -180 -129 -287q178 -113 178 -352q0 -209 -145 -336q-141 -123 -367 -123q-222 0 -370 127.5t-165 333.5zM154 436 q15 -187 149.5 -300t335.5 -113q204 0 332 110q127 112 127 297q0 249 -211 340l-9 3q-14 5 -4 9l3 1.5l3 1.5t3.5 1.5t3.5 1.5q164 88 164 281q0 165 -117 270q-113 101 -295 101q-190 0 -309 -107q-121 -109 -133 -291q-1 -25 15 -39t32 -14q25 0 39 13t14 32 q12 150 106 228q87 75 236 75q146 0 227 -75q82 -73 82 -193q0 -152 -143 -209q-23 -8 -39.5 -31.5t-15.5 -54.5q0 -58 59 -84q98 -31 143 -94t45 -166q0 -139 -94 -221q-96 -84 -264 -84q-163 0 -267 86.5t-116 232.5q-2 20 -16.5 34t-34.5 14q-21 0 -36 -15t-15 -35v-6z " />
<glyph unicode="4" horiz-adv-x="1167" d="M20 444v70q0 34 19 59l625 867q29 43 84 43h49q43 0 72.5 -30t29.5 -73v-833h105q43 0 72.5 -30t29.5 -73t-29.5 -72.5t-72.5 -29.5h-105v-256q0 -43 -29.5 -72.5t-72.5 -29.5q-42 0 -72.5 30t-30.5 72v256h-571q-43 0 -73 29.5t-30 72.5zM72 444q0 -22 14.5 -36.5 t36.5 -14.5h622v-307q0 -21 15.5 -36t36.5 -15q22 0 36.5 14.5t14.5 36.5v307h156q22 0 36.5 14.5t14.5 36.5t-14.5 37t-36.5 15h-156v884q0 22 -14.5 37t-36.5 15h-49q-27 0 -43 -23l-623 -866q-10 -13 -10 -29v-70zM174 496v2l571 794h3v-796h-574zM272 547h422v586z" />
<glyph unicode="5" horiz-adv-x="1216" d="M102 377q-5 45 26.5 80t78.5 35q37 0 65.5 -26.5t34.5 -64.5q12 -103 93 -164t206 -61q137 0 220 85t83 231q0 136 -74.5 221.5t-201.5 85.5q-87 0 -149 -35t-95 -92q-30 -49 -88 -49h-59q-42 0 -72.5 30.5t-30.5 69.5q0 12 2 18l107 637q6 37 34.5 61.5t65.5 24.5h596 q42 0 72.5 -30t30.5 -72q0 -43 -30 -72.5t-73 -29.5h-510l-53 -320q106 64 252 64q98 0 185.5 -36t153 -100.5t104 -162t38.5 -213.5q0 -230 -142 -375.5t-366 -145.5q-197 0 -339 109t-165 297zM154 383q20 -164 145.5 -262t306.5 -98q204 0 329.5 130t125.5 339 q0 204 -121.5 331t-306.5 127q-98 1 -184.5 -37t-141.5 -104h-2l86 502h553q22 0 36.5 14.5t14.5 36.5q0 21 -15 36t-36 15l-596 -2q-19 0 -33.5 -11.5t-17.5 -29.5l-107 -637q0 -10 3 -16q3 -18 16.5 -30.5t32.5 -12.5h59q28 0 43 24q96 152 289 152q146 0 237 -100.5 t91 -257.5q0 -167 -98.5 -267t-256.5 -100q-141 0 -239 72.5t-113 197.5q-1 20 -16 32.5t-35 10.5q-23 0 -37.5 -16.5t-11.5 -38.5z" />
<glyph unicode="6" horiz-adv-x="1251" d="M102 739q0 162 35 299q54 214 193.5 333.5t333.5 119.5q172 0 289.5 -94t152.5 -262q2 -6 2 -21q0 -41 -29.5 -71.5t-72.5 -30.5q-38 0 -66.5 23t-34.5 61q-38 190 -241 190q-156 0 -246 -117q-92 -123 -107 -331q143 149 348 149q210 0 350 -141.5t140 -358.5 q0 -144 -63.5 -262t-177 -186t-253.5 -68q-208 0 -352 129q-104 94 -152.5 247.5t-48.5 391.5zM154 739q0 -225 44.5 -369.5t139.5 -230.5q131 -116 317 -116q191 0 317 133.5t124 330.5q0 195 -123.5 322t-313.5 127q-68 0 -127 -20t-100 -51.5t-75 -74.5t-54 -83t-35 -84 q-14 158 7.5 311.5t95.5 257.5q105 145 293 145q118 0 193.5 -60t98.5 -171q3 -20 18 -31.5t34 -11.5q21 1 34 16t13 35v14q-31 147 -134.5 229.5t-256.5 82.5q-141 0 -249.5 -73.5t-168.5 -209.5q-92 -165 -92 -418zM309 426q-1 21 1.5 43t7.5 42t8 32.5t9.5 30t6.5 18.5 q43 111 122.5 177.5t194.5 66.5q149 0 242.5 -98t93.5 -251q0 -156 -95 -259t-245 -103q-173 0 -276 127q-70 73 -70 174zM360 428q0 -38 9 -78q36 -76 108.5 -125t177.5 -49q129 0 209 87.5t80 223.5q0 130 -79.5 212.5t-205.5 82.5q-75 0 -135 -33t-108 -116 q-6 -10 -16.5 -31.5t-25 -72.5t-14.5 -101z" />
<glyph unicode="7" horiz-adv-x="1044" d="M20 1362q0 42 30 72t73 30h799q41 0 71.5 -30.5t30.5 -71.5v-57q0 -40 -31 -74q-206 -206 -350 -539q-147 -339 -147 -606q0 -43 -30 -72.5t-73 -29.5q-42 0 -72 30t-30 72q0 303 164 688q112 254 288 486h-620q-43 0 -73 29.5t-30 72.5zM72 1362q0 -22 14.5 -36.5 t34.5 -14.5h731v-2q-204 -230 -346 -541q-164 -375 -164 -682q0 -22 14.5 -36.5t36.5 -14.5q20 0 34.5 14.5t14.5 36.5q0 280 160 641q148 335 354 541q15 19 15 37v57q0 21 -15 36t-36 15l-799 -2q-20 0 -34.5 -14.5t-14.5 -34.5z" />
<glyph unicode="8" horiz-adv-x="1273" d="M102 438q0 234 195 359q-131 106 -131 286q0 119 65.5 213.5t172.5 144.5t233 50q196 0 333.5 -112t137.5 -296q0 -178 -131 -284q194 -135 194 -361q0 -144 -71.5 -251.5t-190.5 -161.5t-268 -54q-246 0 -392.5 132.5t-146.5 334.5zM156 438q0 -188 137.5 -300.5 t347.5 -112.5q208 0 343.5 110t135.5 303q0 136 -77 226.5t-189 130.5q203 90 203 288q0 161 -122 259t-298 98q-177 0 -297.5 -100.5t-120.5 -256.5q0 -200 201 -290q-51 -18 -94.5 -46t-83.5 -70t-63 -103.5t-23 -135.5zM256 438q0 75 32.5 134t87 94t121 53t140.5 18 q168 0 275.5 -80t107.5 -219q0 -78 -30.5 -139t-83.5 -98.5t-120 -56.5t-145 -19q-175 0 -280 87t-105 226zM307 438q0 -125 93.5 -193.5t240.5 -68.5q142 0 234 67.5t92 194.5q0 110 -90.5 178t-239.5 68q-146 0 -238 -66t-92 -180zM319 1083q0 116 93 186t225 70 q136 0 226.5 -69t90.5 -187q0 -146 -147 -206q-5 -3 -28.5 -11.5t-65 -18t-76.5 -9.5t-77 8.5t-65 16t-30 11.5q-146 59 -146 209zM371 1083q0 -115 112 -161q76 -33 154 -33q38 0 82.5 11.5t66.5 21.5q25 11 41 21t36 28.5t30 46.5t10 65q0 95 -75.5 149t-190.5 54 q-107 0 -186.5 -55t-79.5 -148z" />
<glyph unicode="9" horiz-adv-x="1251" d="M102 973q0 145 63 263.5t176 186.5t253 68q207 0 354 -129q103 -94 152 -248t49 -391q0 -334 -141 -537q-75 -105 -183 -160t-239 -55q-169 0 -289 94t-152 263q-2 6 -2 20q0 41 29.5 72t71.5 31q37 0 66.5 -24t35.5 -60q19 -94 80.5 -142.5t159.5 -48.5q225 0 311 242 q33 89 43 207q-55 -58 -115 -93q-102 -57 -235 -57q-102 0 -192.5 37t-155.5 102.5t-102.5 158.5t-37.5 200zM154 975q0 -195 123.5 -321t312.5 -126q194 0 307 150q52 63 86 162q6 -107 -6 -230q-7 -104 -34 -190t-73.5 -153t-119 -104.5t-164.5 -37.5q-117 0 -192.5 60.5 t-98.5 172.5q-3 18 -18.5 29.5t-34.5 11.5q-20 -1 -33.5 -16t-13.5 -35l2 -16q32 -147 135.5 -228t253.5 -81q242 0 379 194q133 188 133 508q0 223 -45.5 368t-139.5 230q-129 117 -319 117q-191 0 -315.5 -133.5t-124.5 -331.5zM254 975q0 158 95.5 260t244.5 102 q121 0 206 -55.5t130 -151.5q12 -42 12 -98q0 -66 -21.5 -133t-48.5 -106q-99 -164 -282 -164q-147 0 -241.5 97.5t-94.5 248.5zM307 975q0 -130 79 -212.5t204 -82.5q84 0 142.5 36t103.5 113q4 4 16 29t25.5 75.5t13.5 100.5q0 42 -8 78q-94 174 -289 174q-125 0 -206 -87 t-81 -224z" />
<glyph unicode=":" horiz-adv-x="481" d="M102 96v45q0 47 34 80t81 33h45q48 0 82.5 -33t34.5 -80v-45q0 -47 -34.5 -79.5t-82.5 -32.5h-45q-48 0 -81.5 32.5t-33.5 79.5zM102 930v45q0 47 33.5 79.5t81.5 32.5h45q48 0 82.5 -32.5t34.5 -79.5v-45q0 -47 -34.5 -80t-82.5 -33h-45q-47 0 -81 33t-34 80zM156 96 q0 -26 17.5 -43.5t43.5 -17.5h45q27 0 45.5 17.5t18.5 43.5v45q0 26 -19 44t-45 18h-45q-26 0 -43.5 -18t-17.5 -44v-45zM156 928q0 -25 17.5 -42.5t43.5 -17.5h45q26 0 45 18t19 44v45q0 25 -19 43t-45 18l-45 -2q-26 0 -43.5 -17.5t-17.5 -43.5v-45z" />
<glyph unicode=";" d="M76 -96q0 67 59 94q23 14 33 74q4 22 5.5 46t1 36.5t-2.5 36t-2 26.5q-2 41 28.5 71.5t75.5 30.5q33 0 61.5 -20t37.5 -51q8 -24 8 -92q0 -268 -158 -344q-26 -11 -45 -11q-45 0 -73.5 32t-28.5 71zM111 930v45q0 47 33.5 79.5t80.5 32.5h45q48 0 82.5 -32.5t34.5 -79.5 v-45q0 -47 -34.5 -80t-82.5 -33h-45q-47 0 -80.5 33t-33.5 80zM127 -96q0 -21 14 -36t37 -15q8 0 23 6q127 61 127 297q0 65 -4 75q-10 37 -52 37q-23 0 -37 -14t-14 -35q7 -102 -2 -156q-16 -89 -61 -112q-31 -12 -31 -47zM164 928q0 -25 17.5 -42.5t43.5 -17.5h45 q26 0 45 18t19 44v45q0 25 -19 43t-45 18l-45 -2q-26 0 -43.5 -17.5t-17.5 -43.5v-45z" />
<glyph unicode="&#x3c;" horiz-adv-x="1335" d="M61 559q0 30 16.5 55t43.5 37l936 439q19 8 45 8q41 0 71.5 -28.5t30.5 -74.5q0 -30 -16 -55.5t-43 -38.5l-739 -344l749 -360q57 -28 57 -95q0 -39 -29 -70.5t-73 -31.5q-22 0 -45 10l-944 455q-28 12 -44 37.5t-16 56.5zM111 559q0 -33 28 -47l946 -455q12 -4 21 -4 q24 0 37.5 15.5t13.5 35.5q0 33 -29 46l-847 407l839 391q29 16 29 47q0 24 -15 38t-36 14q-3 0 -23 -5l-936 -438q-28 -14 -28 -45z" />
<glyph unicode="=" horiz-adv-x="1269" d="M102 438q0 43 30 74t73 31h860q42 0 72 -31t30 -74t-29.5 -72.5t-72.5 -29.5h-860q-43 0 -73 29.5t-30 72.5zM102 870q0 43 30 74t73 31h860q42 0 72 -31t30 -74t-29.5 -72.5t-72.5 -29.5h-860q-43 0 -73 29.5t-30 72.5zM154 438q0 -22 14.5 -35.5t36.5 -13.5h860 q22 0 36.5 13.5t14.5 35.5t-15 38t-36 16h-860q-21 0 -36 -16t-15 -38zM154 870q0 -22 14.5 -35.5t36.5 -13.5h860q22 0 36.5 13.5t14.5 35.5t-15 38t-36 16h-860q-21 0 -36 -16t-15 -38z" />
<glyph unicode="&#x3e;" horiz-adv-x="1335" d="M123 102q0 67 57 95l750 360l-740 344q-27 13 -43 38.5t-16 55.5q0 46 30.5 74.5t71.5 28.5q27 0 46 -8l935 -439q27 -12 43.5 -37t16.5 -55q0 -31 -16 -56.5t-44 -37.5l-944 -455q-23 -10 -45 -10q-44 0 -73 31.5t-29 70.5zM178 104q0 -20 13.5 -35.5t37.5 -15.5 q9 0 21 4l946 455q29 14 29 47q0 13 -8.5 26t-20.5 19l-936 438q-20 5 -22 5q-21 0 -36.5 -14t-15.5 -38q0 -31 29 -47l840 -391l-848 -407q-29 -13 -29 -46z" />
<glyph unicode="?" horiz-adv-x="1179" d="M123 1036v15q6 66 25.5 127.5t59 119t94 100t134.5 68t176 25.5q196 0 320.5 -114t124.5 -294q0 -61 -14 -114.5t-32 -89.5t-51.5 -74.5t-54.5 -57.5t-59 -51l-6 -6q-93 -75 -120 -121.5t-30 -144.5q-2 -42 -32 -71t-72 -29q-44 0 -74.5 32.5t-28.5 73.5q2 81 17 142 t48 110.5t66.5 83.5t92.5 82l6 6q41 35 59 51.5t40 45t30 59.5t8 73q0 94 -64 147.5t-174 53.5q-65 0 -115.5 -17.5t-80.5 -43.5t-50 -62t-27.5 -66.5t-10.5 -62.5q-3 -43 -35.5 -70t-75.5 -24q-39 4 -65 31.5t-29 66.5zM174 1040q1 -20 15 -34t34 -17q21 0 36.5 13.5 t16.5 33.5q13 134 96 216.5t240 82.5q130 0 209.5 -68t79.5 -184q0 -40 -9 -75t-19.5 -57.5t-35.5 -50t-40.5 -41.5t-51.5 -44l-6 -6q-57 -47 -88.5 -79.5t-60 -77t-41 -98t-14.5 -126.5q0 -21 14 -36t37 -15q22 0 36.5 13.5t14.5 35.5q4 112 36.5 167.5t131.5 137.5l6 6 q46 38 71 62t58 67.5t48.5 97t15.5 119.5q0 160 -111 257.5t-281 97.5q-100 0 -181 -30t-133.5 -83t-83.5 -120.5t-40 -147.5v-17zM446 96v45q0 47 34 80t81 33h45q48 0 82.5 -33t34.5 -80v-45q0 -47 -34.5 -79.5t-82.5 -32.5h-45q-48 0 -81.5 32.5t-33.5 79.5zM500 96 q0 -26 17.5 -43.5t43.5 -17.5h45q27 0 45.5 17.5t18.5 43.5v45q0 26 -19 44t-45 18h-45q-26 0 -43.5 -18t-17.5 -44v-45z" />
<glyph unicode="@" horiz-adv-x="1773" d="M143 705q0 202 88 372.5t240 276.5q201 139 449 139q159 0 293.5 -55t225 -148t141 -217.5t50.5 -263.5q0 -79 -13 -151t-41.5 -138.5t-71 -115.5t-106 -78t-141.5 -29q-63 0 -118 25q-40 18 -62 40l-10 11l-12 -11q-111 -79 -230 -79q-69 0 -131 24t-111.5 70.5 t-78.5 123t-29 173.5q0 79 17 152.5t52 136.5t83.5 110t114.5 74t143 27q78 0 145 -31q30 20 68 14q42 -4 68.5 -38.5t21.5 -76.5l-12 -94v-6l-41 -326q60 -25 73 -88q4 -24 49 -24q58 0 96.5 44t54 108.5t15.5 144.5q0 220 -142 352.5t-361 132.5q-111 0 -213.5 -40 t-182 -112.5t-127 -184t-47.5 -244.5q0 -245 143.5 -385t391.5 -140q147 0 272 51q40 15 80 -2t55 -57t-2 -79t-57 -54q-163 -66 -348 -66q-183 0 -327.5 61t-233.5 164.5t-135 232.5t-46 274zM195 705q0 -145 46 -269t132 -215.5t217.5 -143.5t292.5 -52q174 0 329 61 q20 7 28.5 27t0.5 41q-7 19 -25.5 26.5t-39.5 1.5q-137 -55 -293 -55q-268 0 -427 156.5t-159 421.5q0 148 53.5 270t142 199.5t198.5 120t227 42.5q84 0 163.5 -21t151 -64.5t125 -106t84.5 -151t31 -193.5q0 -94 -20.5 -170t-71.5 -128t-126 -52q-37 0 -64.5 17t-33.5 48 q-7 31 -31.5 46.5t-52.5 15.5q-33 0 -46.5 -9t-25.5 -32q-25 -45 -73.5 -73t-102.5 -28q-98 0 -147 64.5t-49 173.5q0 150 70.5 247t185.5 97q94 0 135 -72l-39 -313q-3 -23 10.5 -40t36.5 -18q47 -3 53 46l54 428q2 21 -11 37.5t-34 17.5q-27 3 -41 -14q-9 -9 -11 -15 q-67 45 -155 45q-111 0 -194 -63.5t-123 -163.5t-40 -221q0 -158 82.5 -248t214.5 -90q72 0 134.5 31.5t101.5 85.5l12 6q8 -4 10 -8q24 -41 47 -60q50 -41 127 -41q84 0 148 39t100 105t54 144.5t18 166.5q0 149 -54.5 271.5t-146.5 201.5t-209.5 121.5t-246.5 42.5 q-200 0 -377 -105q-164 -96 -255 -263.5t-91 -366.5zM680 674q0 -85 35 -135t110 -50q37 0 71 17.5t54 46.5q-25 36 -22 76l39 305q-26 33 -82 33q-97 0 -151 -84t-54 -209z" />
<glyph unicode="A" horiz-adv-x="1388" d="M61 84q0 16 7 37l481 1276q10 30 36.5 48.5t59.5 18.5h94q31 0 58 -18t39 -47l483 -1278q8 -19 8 -43q-1 -40 -34.5 -67t-71.5 -27q-31 0 -57 17t-38 46l-139 369h-588l-139 -369q-11 -32 -37.5 -47.5t-58.5 -15.5q-43 0 -73 26.5t-30 73.5zM113 86q0 -22 15 -35.5 t36 -13.5q37 0 49 31l152 401h659l152 -401q14 -31 47 -31q19 0 35 12.5t16 34.5q0 12 -2 20l-486 1276q-15 33 -47 33h-94q-15 0 -29 -10t-18 -25l-481 -1274q-4 -12 -4 -18zM401 571l281 742h20l283 -742h-584zM477 621h432l-219 573z" />
<glyph unicode="B" horiz-adv-x="1388" d="M184 104v1258q0 42 31 72t74 30h516q210 0 330 -114q116 -107 116 -287q0 -183 -121 -285q84 -54 131.5 -141t47.5 -195q0 -187 -117 -307q-63 -65 -157 -100t-206 -35h-540q-43 0 -74 30.5t-31 73.5zM238 104q0 -22 14.5 -36.5t36.5 -14.5h540q210 0 324 117 q102 105 102 272q0 117 -58.5 201.5t-164.5 124.5l-6 3q-5 2 -2 4q1 1 3 2l3 1q170 80 170 283q0 159 -102 250q-105 102 -293 102h-516q-21 0 -36 -15t-15 -36v-1258zM340 156v1155l465 -2q148 0 223 -72q67 -64 70 -174q0 -83 -34.5 -132t-109.5 -75q-27 -10 -43 -35 t-16 -55q1 -30 18.5 -52t42.5 -28q94 -25 145.5 -88t51.5 -156q0 -125 -72 -200q-86 -86 -252 -86h-489zM391 207h438q146 0 215 72q58 61 58 163q0 73 -39.5 122t-112.5 71q-43 8 -75 44t-33 89q0 46 26.5 84t67.5 53q59 20 83.5 56t24.5 100q0 86 -51 137q-59 59 -188 59 h-414v-1050z" />
<glyph unicode="C" horiz-adv-x="1458" d="M102 729q0 219 79.5 390.5t234 271.5t360.5 100q212 0 364.5 -107.5t205.5 -304.5q2 -8 2 -26q0 -41 -29.5 -72t-73.5 -31q-34 0 -62.5 21.5t-37.5 56.5q-33 128 -129 192t-240 64q-223 0 -345 -152.5t-122 -402.5q0 -161 52 -284.5t157.5 -195t251.5 -71.5 q175 0 276.5 92t122.5 256q4 39 34.5 65.5t70.5 26.5q41 0 70 -29t32 -71q0 -10 -2 -16q-30 -241 -188.5 -386t-415.5 -145q-108 0 -207 30.5t-183 93.5t-146 152t-97 212.5t-35 269.5zM154 731q0 -320 169 -513t445 -193q237 0 381.5 132.5t171.5 352.5v8q-2 19 -15.5 34 t-33.5 15t-35 -13t-18 -32q-21 -182 -138.5 -288.5t-312.5 -106.5q-162 0 -279.5 80.5t-175 215.5t-57.5 308q0 177 59 313t177.5 214.5t281.5 78.5q160 0 271 -76t147 -219q12 -38 51 -38q23 0 37 15t14 36q0 3 -1 8t-1 8q-50 179 -187.5 274t-330.5 95q-192 0 -334 -92.5 t-214 -252t-72 -364.5z" />
<glyph unicode="D" horiz-adv-x="1464" d="M184 102v1260q0 42 30 72t73 30h438q303 0 470 -193t167 -544q0 -347 -170 -537t-481 -190h-424q-43 0 -73 29.5t-30 72.5zM238 102q0 -22 13.5 -35.5t35.5 -13.5h424q150 0 265 48.5t187.5 138.5t109 212.5t36.5 274.5q0 320 -149.5 503t-434.5 183h-438q-21 0 -35 -15 t-14 -36v-1260zM340 156v1155h385q244 0 362.5 -154t118.5 -430q0 -273 -123 -422t-372 -149h-371zM391 207h320q444 0 444 520q0 530 -430 530h-334v-1050z" />
<glyph unicode="E" horiz-adv-x="1325" d="M184 102v1260q0 42 30 72t73 30h833q42 0 72.5 -30t30.5 -72q0 -43 -30 -74t-73 -31h-731v-378h666q43 0 73.5 -31t30.5 -74t-30.5 -72.5t-73.5 -29.5h-666v-465h752q42 0 72 -31t30 -74t-29.5 -72.5t-72.5 -29.5h-854q-43 0 -73 29.5t-30 72.5zM236 104 q0 -22 14.5 -36.5t36.5 -14.5h852q22 0 36.5 14.5t14.5 36.5q0 21 -15 36.5t-36 15.5h-801v567h717q22 0 36.5 14.5t14.5 36.5t-14.5 36.5t-36.5 14.5h-717v486h780q22 0 36.5 14.5t14.5 36.5q0 21 -15 36t-36 15h-831q-21 0 -36 -15t-15 -36v-1258z" />
<glyph unicode="F" horiz-adv-x="1249" d="M184 86v1276q0 41 31 71.5t72 30.5h796q43 0 74 -30.5t31 -71.5q0 -43 -31 -74t-74 -31h-692v-374h584q41 0 71.5 -30.5t30.5 -72.5t-30 -72t-72 -30h-584v-592q0 -43 -30.5 -72.5t-73.5 -29.5q-42 0 -72.5 30t-30.5 72zM236 86q0 -21 15 -36t36 -15q22 0 37.5 14.5 t15.5 36.5v643h635q21 0 36 15t15 36t-15 36t-36 15h-635v478h743q21 0 36.5 15.5t15.5 35.5q0 22 -15 36.5t-37 14.5h-796q-21 0 -36 -15t-15 -36v-1274z" />
<glyph unicode="G" horiz-adv-x="1554" d="M98 729q0 338 189 549q195 213 510 213q223 0 374 -109q157 -114 207 -311q4 -14 4 -28q0 -27 -14 -51q-22 -38 -63 -48q-13 -3 -25 -3q-28 0 -54 15q-37 23 -48 64q-30 125 -125 192q-101 72 -256 72q-224 0 -357 -145q-135 -150 -135 -410q0 -257 131 -407 q129 -144 342 -144q220 0 328 174q35 53 98 62v196h-379q-42 0 -72 31t-30 74t29.5 72.5t72.5 29.5h482q43 0 73.5 -29.5t30.5 -72.5v-611q0 -43 -30.5 -73.5t-73.5 -30.5h-23q-49 0 -78 37q-21 25 -24 53l-2 27q-3 -3 -10.5 -8.5t-10.5 -8.5q-157 -129 -381 -129 q-308 0 -495 213q-185 206 -185 545zM152 731q0 -317 170 -512q170 -194 456 -194q266 0 414 192q5 8 18 8q8 -8 11 -14q6 -67 22 -133q13 -25 41 -25h23q22 0 36.5 14.5t14.5 36.5v611q0 22 -14.5 36.5t-36.5 14.5h-482q-22 0 -36.5 -14.5t-14.5 -36.5t14.5 -36.5 t36.5 -14.5h430v-308l-10 4q-19 3 -39 0q-37 -6 -55 -36q-126 -197 -373 -197q-239 0 -381 160q-143 166 -143 444q0 281 147 443q148 163 396 163q172 0 284 -80q111 -79 148 -223q4 -21 22.5 -32.5t40.5 -6.5q20 6 30.5 25t4.5 39q-44 179 -186 282q-145 99 -344 99 q-142 0 -263 -50.5t-208 -146.5q-174 -192 -174 -512z" />
<glyph unicode="H" horiz-adv-x="1507" d="M184 86v1292q0 43 31 74t74 31q42 0 72 -31t30 -74v-487h725v487q0 43 31 74t74 31q41 0 71.5 -31t30.5 -74v-1292q0 -42 -30 -72t-72 -30q-43 0 -74 30t-31 72v598h-725v-598q0 -43 -29.5 -72.5t-72.5 -29.5t-74 30t-31 72zM236 86q0 -22 15.5 -36.5t37.5 -14.5 t35.5 14.5t13.5 36.5v651h829v-651q0 -21 16 -36t38 -15q21 0 36 15t15 36v1292q0 22 -15.5 38t-35.5 16q-22 0 -38 -16t-16 -38v-540h-829v540q0 22 -14 38t-35 16q-22 0 -37.5 -16t-15.5 -38v-1292z" />
<glyph unicode="I" horiz-adv-x="575" d="M184 86v1292q0 43 31 74t72 31q43 0 73.5 -31t30.5 -74v-1292q0 -43 -30.5 -72.5t-73.5 -29.5q-42 0 -72.5 30t-30.5 72zM236 86q0 -21 15 -36t36 -15q22 0 37.5 14.5t15.5 36.5v1292q0 22 -15.5 38t-37.5 16q-20 0 -35.5 -16t-15.5 -38v-1292z" />
<glyph unicode="J" horiz-adv-x="1114" d="M61 436v15q0 43 30 73.5t73 30.5t73.5 -30.5t30.5 -73.5v-15q0 -138 54.5 -197t181.5 -59q219 0 219 203v993q0 43 30.5 74t73.5 31t73 -31t30 -74v-993q0 -189 -114 -299.5t-312 -110.5q-214 0 -328.5 119.5t-114.5 343.5zM115 436q0 -202 99 -305.5t290 -103.5 q178 0 276.5 93.5t98.5 262.5v995q0 21 -15.5 36.5t-36.5 15.5t-36 -15.5t-15 -36.5v-995q0 -125 -69.5 -189.5t-202.5 -64.5q-150 0 -218.5 73.5t-68.5 233.5v15q0 22 -15.5 37.5t-37.5 15.5q-21 0 -35 -15.5t-14 -37.5v-15z" />
<glyph unicode="K" horiz-adv-x="1417" d="M184 86v1292q0 43 31 74t72 31q43 0 73.5 -31t30.5 -74v-637l727 711q31 31 72 31q44 0 73 -30t29 -73q0 -45 -30 -75l-469 -457l522 -701q20 -26 20 -59q0 -45 -30.5 -74.5t-73.5 -29.5q-52 0 -80 41l-506 677l-254 -247v-369q0 -43 -30.5 -72.5t-73.5 -29.5 q-42 0 -72.5 30t-30.5 72zM236 88q0 -21 15 -36t36 -15q22 0 36.5 14.5t14.5 36.5v389l313 305l541 -725q14 -20 39 -20q22 0 36.5 14t14.5 37q0 18 -8 31l-551 735l502 489q16 16 16 37q0 22 -14.5 37t-36.5 15q-20 0 -37 -17l-815 -794v759q0 21 -15 36.5t-36 15.5 q-20 0 -35.5 -16t-15.5 -36v-1292z" />
<glyph unicode="L" horiz-adv-x="1193" d="M184 102v1276q0 43 31 74t72 31q43 0 73.5 -31t30.5 -74v-1171h660q42 0 72 -31t30 -74t-29.5 -72.5t-72.5 -29.5h-764q-42 0 -72.5 30t-30.5 72zM238 102q0 -22 13.5 -35.5t35.5 -13.5h764q21 0 36 14t15 35q0 22 -15.5 38t-35.5 16h-711v1222q0 22 -15.5 38t-37.5 16 q-20 0 -34.5 -16t-14.5 -38v-1276z" />
<glyph unicode="M" horiz-adv-x="1759" d="M184 86v1276q0 41 31 71.5t74 30.5h110q32 0 58.5 -18t38.5 -47l383 -1006l381 1004q10 30 36.5 48.5t59.5 18.5h117q41 0 71.5 -30.5t30.5 -71.5v-1276q0 -42 -30 -72t-72 -30q-43 0 -74 30t-31 72v1024l-391 -1044q-14 -34 -42 -51t-57.5 -16t-56 18.5t-37.5 48.5 l-393 1034v-1014q0 -42 -30 -72t-72 -30q-43 0 -74 30t-31 72zM238 88q0 -22 14.5 -36.5t36.5 -14.5q21 0 36 15t15 36v1223h25l466 -1225q15 -33 50 -33q32 0 47 33l461 1225h30v-1223q0 -21 15 -36t36 -15q22 0 37 14.5t15 36.5v1274q0 20 -15 35.5t-37 15.5h-114 q-34 0 -49 -33l-428 -1132l-433 1132q-15 33 -47 33h-110q-21 0 -36 -15t-15 -36v-1274z" />
<glyph unicode="N" horiz-adv-x="1507" d="M184 86v1276q0 42 30 72t73 30h84q56 0 88 -49l655 -1073h2v1036q0 43 30 74t73 31t73.5 -31t30.5 -74v-1276q0 -43 -30.5 -72.5t-73.5 -29.5h-76q-60 0 -88 49l-662 1081h-2v-1044q0 -43 -30.5 -72.5t-73.5 -29.5t-73 29.5t-30 72.5zM238 86q0 -21 14 -36t35 -15 q22 0 37.5 15.5t15.5 35.5v1178h31l729 -1188q14 -22 43 -25h76q23 0 38 14.5t15 36.5v1276q0 22 -15.5 37t-37.5 15t-36 -15t-14 -37v-1175h-30l-723 1183q-18 27 -45 27h-84q-22 0 -35.5 -14.5t-13.5 -36.5v-1276z" />
<glyph unicode="O" horiz-adv-x="1579" d="M102 731q0 163 51.5 304t142 241t217.5 157.5t273 57.5q197 0 355 -97.5t247 -271.5t89 -391t-89 -391t-247 -271.5t-355 -97.5q-146 0 -273 57.5t-217.5 157.5t-142 241t-51.5 304zM156 731q0 -205 81 -366.5t224.5 -250.5t324.5 -89q137 0 255.5 51.5t203 143.5 t132.5 224t48 287q0 207 -82.5 369t-228 251t-328.5 89q-181 0 -324.5 -90t-224.5 -252t-81 -367zM258 731q0 267 146 436q146 168 379 168h3q239 0 388 -168.5t149 -435.5q0 -270 -149 -438t-388 -168q-235 0 -381.5 169.5t-146.5 436.5zM309 731q0 -249 131.5 -401 t345.5 -152q217 0 350.5 152t133.5 401q0 248 -133.5 400.5t-350.5 152.5q-214 0 -345.5 -152.5t-131.5 -400.5z" />
<glyph unicode="P" horiz-adv-x="1308" d="M184 84v1276q0 42 30 72t73 30h487q218 0 345.5 -119.5t127.5 -320.5q0 -214 -128 -330.5t-361 -116.5h-367v-491q0 -43 -30.5 -72.5t-73.5 -29.5t-73 29.5t-30 72.5zM238 86q0 -22 13.5 -36.5t35.5 -14.5t37.5 14.5t15.5 36.5v543h418q210 0 324 100t114 293 q0 182 -114 285.5t-308 103.5h-487q-21 0 -35 -15t-14 -36v-1274zM340 729v580h434q155 0 237.5 -75t82.5 -212q0 -293 -336 -293h-418zM391 780h367q72 0 125 14t83 36t47.5 56t23 65t5.5 71q0 233 -268 233h-383v-475z" />
<glyph unicode="Q" horiz-adv-x="1579" d="M102 731q0 163 51.5 304t142 241t218 157.5t274.5 57.5q197 0 354.5 -97.5t246 -271.5t88.5 -391q0 -312 -174 -520l92 -76q39 -29 39 -80q0 -43 -31.5 -72.5t-71.5 -29.5t-65 22l-121 97q-164 -101 -357 -101q-147 0 -274.5 57.5t-218 157.5t-142 241t-51.5 304z M156 731q0 -205 81 -366.5t224.5 -250.5t324.5 -89q212 0 363 112l149 -121q12 -12 33 -12q19 0 35 14.5t16 36.5q0 25 -20 39l-135 111q95 95 146.5 229.5t51.5 296.5q0 207 -82.5 369t-228 251t-328.5 89q-181 0 -324.5 -90t-224.5 -252t-81 -367zM256 731 q0 267 147.5 436.5t382.5 169.5q240 0 388.5 -169t148.5 -437q0 -145 -45 -264t-129 -199l-166 133q-13 13 -33 13q-22 0 -36.5 -15.5t-14.5 -36.5q0 -23 21 -38l145 -119q-122 -80 -279 -80q-235 0 -382.5 169.5t-147.5 436.5zM309 731q0 -249 132 -401t347 -152 q101 0 185 35l-86 70q-39 29 -39 79q0 42 29.5 73.5t72.5 31.5q38 0 66 -25l129 -102q127 152 127 391q0 248 -133.5 400.5t-350.5 152.5q-215 0 -347 -152.5t-132 -400.5z" />
<glyph unicode="R" horiz-adv-x="1441" d="M184 86v1274q0 43 31 73.5t74 30.5h557q205 0 323 -112q121 -115 121 -316q0 -123 -45 -209q-37 -67 -104 -116q60 -55 86 -140t33 -209q8 -178 32 -239q8 -21 7 -40q0 -31 -19 -57q-32 -42 -84 -42q-33 0 -59.5 17.5t-38.5 49.5q-36 98 -45 303q-3 71 -11 115.5 t-24 66.5t-27.5 29.5t-36.5 16.5q-34 12 -63 45t-29 86q0 43 24 82t72 55q74 22 99 65q26 40 26 121q0 113 -57 164q-57 57 -180 57h-455v-1171q0 -42 -30 -72t-72 -30q-43 0 -74 30t-31 72zM238 86q0 -22 14.5 -36.5t36.5 -14.5q21 0 36 15t15 36v1223h506q142 0 217 -72 q74 -68 74 -199q0 -99 -39 -155q-40 -58 -125 -84q-25 -8 -42.5 -31t-17.5 -55q0 -27 14.5 -50.5t43.5 -31.5q70 -22 99 -83t34 -192q10 -190 43 -288q13 -33 49 -33q24 0 40 21q10 13 10 29q0 9 -3 19q-28 80 -37 256q-5 139 -38.5 221.5t-116.5 125.5q-4 2 -10.5 4.5 t-3.5 3.5t16 6q88 42 137 115q49 79 49 200q0 177 -106 277q-101 98 -287 98h-557q-22 0 -36.5 -14.5t-14.5 -36.5v-1274z" />
<glyph unicode="S" horiz-adv-x="1343" d="M102 451q-1 6 -1 12q-1 37 27 67q32 34 79 35q38 0 68 -26t34 -64q37 -297 398 -297q149 0 240 64.5t91 187.5q0 114 -67 152q-60 38 -250 71l-94 19q-121 24 -195 45t-129 55q-151 93 -151 299q0 192 146 306t368 114q215 0 355 -104t175 -302q2 -6 2 -18q0 -42 -29 -72 t-73 -30q-37 0 -67 24t-36 62q-44 233 -327 233q-133 0 -220.5 -53t-87.5 -160q0 -55 14.5 -81.5t39.5 -41.5q24 -16 67.5 -29.5t78 -21.5t108.5 -23l94 -18q86 -17 122 -24.5t97 -27.5t102 -46q164 -103 164 -328q0 -211 -150.5 -335t-387.5 -124q-250 0 -413 125t-192 355 zM154 457q24 -207 170.5 -319.5t380.5 -112.5q215 0 350 108t135 297q0 157 -88 236q-51 58 -132.5 86t-221.5 53l-95 18q-9 2 -40 8.5t-40 8.5t-34.5 8t-35.5 9t-30.5 8.5t-31 10t-25 10t-25 12t-20.5 13.5q-66 52 -66 160q0 130 101 198t258 68q156 0 254.5 -68 t123.5 -210q3 -18 18 -29.5t34 -11.5q21 0 35 14t16 35l-2 10q-31 176 -156 269.5t-323 93.5q-201 0 -331 -98t-130 -271q0 -169 112 -246q37 -25 92.5 -45t98.5 -29.5t129 -27.5l94 -16q94 -19 138 -29.5t96.5 -35.5t78.5 -60q45 -55 45 -152q0 -146 -107 -224.5 t-275 -78.5q-193 0 -311.5 86t-139.5 256q-1 20 -15.5 32.5t-33.5 12.5q-23 0 -39 -17q-13 -14 -13 -33q1 -3 1 -7z" />
<glyph unicode="T" horiz-adv-x="1241" d="M41 1362q0 41 30.5 71.5t71.5 30.5h953q43 0 73.5 -30.5t30.5 -71.5q0 -43 -30.5 -74t-73.5 -31h-373v-1171q0 -43 -29.5 -72.5t-72.5 -29.5t-73 29.5t-30 72.5v1171h-375q-41 0 -71.5 31t-30.5 74zM94 1362q0 -22 14.5 -36.5t34.5 -14.5h426v-1225q0 -22 15 -36.5 t37 -14.5t36.5 14.5t14.5 36.5v1225h426q21 0 36 15t15 36q0 20 -15.5 35.5t-35.5 15.5h-955q-20 0 -34.5 -15.5t-14.5 -35.5z" />
<glyph unicode="U" horiz-adv-x="1404" d="M143 485v895q0 43 31 73t74 30t72.5 -30t29.5 -73v-899q0 -161 90.5 -232t257.5 -71q164 0 260.5 71.5t96.5 231.5v899q0 43 30.5 73t73.5 30t73 -30t30 -73v-895q0 -109 -31.5 -197t-84.5 -146.5t-126.5 -97.5t-153.5 -56t-168 -17q-264 0 -409.5 135t-145.5 379z M195 485q0 -227 132 -343.5t369 -116.5q86 0 160.5 16t140 51.5t112 88t73 130t26.5 174.5v895q0 22 -15 37t-36 15q-22 0 -36.5 -15t-14.5 -37v-897q0 -94 -31 -164t-87 -111t-129 -61t-163 -20q-399 0 -399 356v897q0 22 -14.5 37t-36.5 15t-36.5 -15t-14.5 -37v-895z" />
<glyph unicode="V" horiz-adv-x="1335" d="M61 1380q0 48 33.5 75.5t65.5 27.5q35 0 62.5 -18.5t37.5 -51.5l406 -1126h2l405 1128q12 31 39 49.5t59 18.5q41 0 72 -30t31 -77q0 -18 -6 -33l-463 -1275q-10 -31 -37 -49.5t-59 -18.5h-88q-33 0 -60 18.5t-37 49.5l-456 1275q-7 21 -7 37zM113 1378q0 -6 4 -18 l456 -1274q4 -15 18.5 -25t29.5 -10h88q15 0 29 10t18 25l461 1274q4 8 4 16q0 23 -15.5 38.5t-36.5 15.5q-34 0 -47 -33l-438 -1213h-37l-434 1211q-12 35 -49 35q-16 0 -33.5 -13t-17.5 -39z" />
<glyph unicode="W" horiz-adv-x="1837" d="M61 1382q0 43 31.5 72t69.5 29q36 0 64.5 -21.5t37.5 -56.5l279 -1051h2l274 1035q9 33 37 54t64 21q34 0 61.5 -21t36.5 -54l272 -1024h2l281 1042q9 33 37.5 54.5t62.5 21.5q38 0 70.5 -28t32.5 -75q0 -8 -4 -28l-347 -1276q-9 -34 -36 -55t-62 -21h-74q-35 0 -63 21 t-37 55l-235 885l-236 -885q-9 -34 -37 -55t-63 -21h-78q-35 0 -63.5 21t-37.5 55l-337 1278q-5 25 -5 28zM115 1380q0 -8 4 -24l336 -1266q10 -37 49 -37h80q39 0 49 37l285 1073l286 -1073q3 -17 16.5 -27t32.5 -10h74q18 0 31 10t16 27l346 1270q2 8 2 18q0 24 -16 38 t-33 14q-18 0 -32.5 -10t-18.5 -27l-317 -1180h-29l-307 1161q-10 37 -49 37q-19 0 -33 -10t-17 -27l-311 -1165h-31l-313 1184q-10 37 -51 37q-19 0 -34 -14.5t-15 -35.5z" />
<glyph unicode="X" horiz-adv-x="1314" d="M82 86q0 34 18 61l435 596l-410 576q-21 31 -21 63q0 42 32 71.5t71 29.5q55 0 86 -45l369 -516l364 516q31 45 84 45q43 0 73.5 -31.5t30.5 -73.5q0 -32 -18 -59l-408 -576l426 -598q19 -28 19 -57q0 -48 -32 -76t-71 -28q-53 0 -83 43l-385 538l-394 -540 q-30 -41 -84 -41q-42 0 -72 28t-30 74zM133 86q0 -21 14 -35t37 -14q27 0 41 20l437 598l425 -598q17 -22 41 -22q19 0 35.5 15t16.5 38q0 14 -9 29l-446 626l428 607q8 13 8 28q0 20 -14 36t-37 16q-26 0 -41 -21l-407 -578l-412 578q-16 23 -43 23q-20 0 -35.5 -16 t-15.5 -36q0 -13 10 -30l432 -607l-457 -626q-8 -16 -8 -31z" />
<glyph unicode="Y" horiz-adv-x="1275" d="M41 1380q0 44 32 73.5t72 29.5q50 0 82 -43l412 -570l410 570q32 43 84 43q40 0 71 -28.5t31 -72.5q0 -40 -18 -63l-476 -660v-573q0 -43 -30.5 -72.5t-73.5 -29.5q-42 0 -72 30t-30 72v573l-474 660q-20 26 -20 61zM92 1380q0 -17 10 -30l484 -672v-592 q0 -22 14.5 -35.5t36.5 -13.5t36.5 13.5t14.5 35.5v592l486 672q8 13 8 30q0 23 -15.5 37.5t-36.5 14.5q-24 0 -40 -23l-453 -627l-453 627q-16 23 -41 23q-21 0 -36 -15t-15 -37z" />
<glyph unicode="Z" horiz-adv-x="1333" d="M102 102v74q0 36 23 66l807 1015h-676q-42 0 -72 30.5t-30 72.5q0 43 29.5 73.5t72.5 30.5h842q43 0 73.5 -30.5t30.5 -73.5v-60q0 -35 -22 -63l-820 -1032h768q43 0 73 -30t30 -73t-30 -72.5t-73 -29.5h-921q-43 0 -74 30t-31 72zM156 102q0 -22 14.5 -35.5t36.5 -13.5 h921q22 0 37 14t15 35q0 22 -15 37t-37 15h-868v10l879 1106q12 12 12 30v60q0 22 -15.5 37.5t-35.5 15.5h-842q-22 0 -36.5 -15.5t-14.5 -37.5q0 -21 15 -36t36 -15h782l2 -2l-874 -1098q-12 -16 -12 -31v-76z" />
<glyph unicode="[" horiz-adv-x="700" d="M184 -207v1567q0 43 31 73.5t74 30.5h184q43 0 74 -30.5t31 -73.5q0 -41 -31 -72t-74 -31h-82v-1359h82q43 0 74 -31t31 -74q0 -42 -31 -72t-74 -30h-184q-43 0 -74 30t-31 72zM236 -209q0 -20 15.5 -34.5t37.5 -14.5h184q22 0 37.5 14.5t15.5 34.5q0 23 -15.5 38 t-37.5 15h-133v1465h133q22 0 37.5 14.5t15.5 36.5t-15.5 36.5t-37.5 14.5h-184q-22 0 -37.5 -14.5t-15.5 -36.5v-1569z" />
<glyph unicode="\" horiz-adv-x="886" d="M55 1460q0 42 29.5 73.5t75.5 31.5q31 0 57.5 -18t38.5 -50l543 -1460q6 -18 6 -35q0 -48 -31 -77t-72 -29q-32 0 -59 18t-39 49l-543 1462q-6 18 -6 35zM109 1460q0 -10 2 -16l542 -1462q13 -33 47 -33q21 0 36.5 13.5t15.5 37.5q0 12 -2 18l-543 1461q-13 32 -49 32 q-21 0 -35 -14t-14 -37z" />
<glyph unicode="]" horiz-adv-x="700" d="M123 -207q0 43 30.5 74t73.5 31h82v1359h-82q-43 0 -73.5 30.5t-30.5 72.5q0 43 30.5 73.5t73.5 30.5h185q43 0 73.5 -30.5t30.5 -73.5v-1567q0 -43 -30.5 -72.5t-73.5 -29.5h-185q-43 0 -73.5 29.5t-30.5 72.5zM174 -209q0 -20 15.5 -34.5t37.5 -14.5h185 q22 0 37.5 14.5t15.5 34.5v1569q0 22 -15.5 36.5t-37.5 14.5h-185q-22 0 -37.5 -14.5t-15.5 -36.5t15.5 -36.5t37.5 -14.5h135v-1465h-135q-22 0 -37.5 -15t-15.5 -38z" />
<glyph unicode="^" horiz-adv-x="1042" d="M82 705q0 26 12 47l344 684q28 55 92 55q31 0 56 -15.5t39 -41.5l325 -674q11 -19 11 -45q0 -42 -28.5 -73.5t-72.5 -31.5q-30 0 -56.5 16.5t-39.5 43.5l-236 485l-249 -496q-13 -27 -38.5 -42t-54.5 -15q-39 0 -71.5 29.5t-32.5 73.5zM135 707q0 -23 16 -37.5t35 -14.5 q32 0 45 29l299 590l281 -582q12 -28 47 -28q20 0 34.5 14.5t14.5 36.5q0 16 -4 22l-325 674q-16 29 -48 29t-45 -27l-346 -684q-4 -16 -4 -22z" />
<glyph unicode="_" horiz-adv-x="860" d="M-102 -209q0 43 30 74t72 31h860q43 0 73 -31t30 -74t-30 -72.5t-73 -29.5h-860q-43 0 -72.5 29.5t-29.5 72.5zM-51 -209q0 -22 14.5 -36.5t36.5 -14.5h860q22 0 36.5 14.5t14.5 36.5t-14.5 36.5t-36.5 14.5h-860q-22 0 -36.5 -14.5t-14.5 -36.5z" />
<glyph unicode="`" horiz-adv-x="729" d="M205 1741q0 44 32.5 74t71.5 30q62 0 90 -55l113 -207q12 -21 12 -45q0 -45 -31.5 -75.5t-70.5 -30.5q-28 0 -53.5 14.5t-38.5 38.5l-113 207q-12 24 -12 49zM256 1741q0 -13 6 -25l113 -205q16 -26 45 -26q19 0 35 14t16 37q0 13 -6 25l-113 204q-12 27 -45 27 q-19 0 -35 -14t-16 -37z" />
<glyph unicode="a" horiz-adv-x="1155" d="M96 307q0 152 92 240q111 105 367 131q153 17 240 53l-2 41q0 69 -48 100q-45 35 -155 35q-156 0 -213 -78q-11 -14 -18.5 -29.5t-8.5 -24.5l-2 -9q-3 -41 -32.5 -68.5t-69.5 -27.5t-74 29q-32 27 -31 73v8q14 98 70 174q119 160 379 160q220 0 330 -119q79 -89 79 -225 v-545q0 -25 5 -35h3q43 0 73 -29q32 -30 32 -73t-30.5 -73.5t-71.5 -30.5q-102 0 -160 67q-12 14 -27 37q-144 -117 -344 -117q-176 0 -279.5 92t-103.5 244zM150 307q0 -122 84.5 -203t246.5 -81q214 0 363 153l4 6q4 -26 8 -37q11 -37 35 -61q45 -49 119 -49 q22 0 36.5 14.5t14.5 36.5t-15 37t-38 14q-58 3 -58 84v549q0 113 -67 188q-95 105 -291 105q-229 0 -338 -139q-12 -17 -22 -35t-15.5 -32.5t-10 -29.5t-6.5 -24.5t-3.5 -17.5t-1.5 -9q-1 -24 15 -38.5t36 -16.5q21 0 36 14t15 35q4 45 39 92q77 99 256 99q143 0 207 -64 q47 -47 47 -125v-67q-45 -52 -283 -78q-240 -26 -338 -117q-75 -72 -75 -203zM252 307q0 89 47 131q71 64 283 88q159 16 266 60v-226q-25 -56 -80 -116q-119 -119 -287 -119q-118 0 -180 59q-49 49 -49 123zM303 307q0 -55 33 -86q46 -43 145 -43q146 0 244 98q41 44 68 97 v139q-91 -26 -215 -39q-187 -22 -246 -76q-29 -26 -29 -90z" />
<glyph unicode="b" horiz-adv-x="1165" d="M143 86v1292q0 43 31 74t72 31q43 0 73.5 -31t30.5 -74v-350q114 88 268 88q105 0 195 -42.5t152 -123.5q118 -151 118 -405q0 -250 -122 -406q-130 -168 -351 -168q-158 0 -264 84q-11 -32 -38 -51.5t-62 -19.5q-42 0 -72.5 30t-30.5 72zM195 86q0 -21 15 -36t36 -15 q22 0 36.5 14.5t14.5 36.5v92q46 -58 94 -90q86 -63 221 -63q196 0 310 147q110 141 110 373q0 238 -108 373q-113 147 -306 147q-120 0 -215 -61q-55 -36 -106 -107v481q0 22 -15 38t-36 16q-20 0 -35.5 -16t-15.5 -38v-1292zM299 545q0 74 18.5 143.5t30.5 93t21 37.5 q85 144 249 144q145 0 226 -107q86 -116 86 -311q0 -196 -90 -309q-83 -109 -228 -109q-84 0 -142 30.5t-103 100.5l-4 7q-4 7 -8.5 15t-11 23t-12 31t-12 39.5t-10.5 48.5t-7 57t-3 66zM350 545q0 -35 3 -66.5t8 -56.5t10 -44.5t12 -36t11.5 -26t10 -18.5t5.5 -10 q38 -59 84 -84t116 -25q116 0 189 88q78 101 78 279q0 180 -76 278q-65 86 -183 86q-135 0 -206 -118q-62 -103 -62 -246z" />
<glyph unicode="c" horiz-adv-x="1126" d="M82 543q0 256 140.5 414.5t367.5 158.5q169 0 286.5 -85t157.5 -236q4 -16 4 -25q0 -42 -31 -73t-73 -31q-34 0 -62.5 21t-37.5 56q-43 166 -244 166q-141 0 -221 -97t-80 -269q0 -170 80 -267.5t219 -97.5q217 0 252 201q6 41 42 65q29 20 62 20q8 0 17 -1 q38 -7 60.5 -36t22.5 -69q0 -43 -28 -113t-72 -124q-130 -150 -356 -150t-366 158t-140 414zM133 543q0 -231 123 -375.5t332 -144.5q203 0 311 127q42 50 66 109t26 101q0 21 -13 35t-30 17q-22 2 -38 -10.5t-19 -32.5q-21 -120 -99.5 -182t-203.5 -62q-166 0 -259 114 t-93 304q0 188 94 303t258 115q242 0 295 -205q5 -17 18.5 -28t30.5 -11q22 0 37.5 15.5t15.5 35.5q0 2 -1 6.5t-1 7.5q-36 137 -140 209t-255 72h-3q-207 0 -329 -144q-122 -145 -123 -376z" />
<glyph unicode="d" horiz-adv-x="1165" d="M82 543q0 251 117 405q63 82 152 125t194 43q156 0 270 -88v350q0 43 31 74t74 31q41 0 71.5 -31t30.5 -74v-1292q0 -42 -30 -72t-72 -30q-35 0 -63 19.5t-38 51.5q-106 -84 -266 -84q-218 0 -350 166q-121 154 -121 406zM133 545q0 -231 111 -373q114 -147 309 -147 q130 0 221 61q56 40 92 92v-92q0 -21 16 -36t38 -15q20 0 34.5 14.5t14.5 36.5v1292q0 22 -14.5 37t-34.5 15q-22 0 -38 -15t-16 -37v-481q-44 66 -104 107q-95 61 -217 61q-190 0 -303 -147q-109 -136 -109 -373zM236 545q0 195 86 311q81 107 223 107q167 0 252 -144 q9 -13 21 -37t30 -93.5t18 -143.5q0 -30 -2 -59t-6 -52.5t-8.5 -44.5t-10 -38.5t-11 -31.5t-10.5 -25t-9 -18t-7 -12l-3 -6q-45 -70 -103.5 -100.5t-142.5 -30.5q-144 0 -227 109q-90 113 -90 309zM289 543q0 -181 78 -277q67 -88 186 -88q71 0 118 25t85 84q0 1 5.5 10 t10 18.5t11 25.5t12 36t10.5 44.5t7.5 56t2.5 65.5q0 31 -3 60.5t-8.5 53.5t-11.5 43.5t-13 36t-12 26.5t-10 19l-5 9q-69 118 -207 118q-115 0 -183 -86q-73 -98 -73 -280z" />
<glyph unicode="e" horiz-adv-x="1150" d="M82 551q0 122 43 235t123 193q64 64 151.5 100.5t188.5 36.5q200 0 325 -125q147 -150 156 -430q0 -44 -29 -76q-30 -30 -73 -30h-672q19 -132 97.5 -204.5t205.5 -72.5q37 0 70.5 7.5t69 25t64 53.5t44.5 86q10 33 38 52.5t62 19.5q42 0 72.5 -29t30.5 -71q0 -12 -7 -33 q-46 -149 -163.5 -233.5t-280.5 -84.5q-235 0 -375.5 154.5t-140.5 425.5zM133 549q0 -244 124.5 -385t340.5 -141q147 0 250 74.5t145 205.5q2 6 2 16q0 23 -14.5 37.5t-36.5 14.5q-15 0 -29 -10t-20 -27q-32 -105 -111.5 -157t-185.5 -52q-165 0 -258.5 104t-101.5 277 h729q21 0 34 16q17 17 17 37q-9 251 -133 387q-113 119 -297 119q-95 0 -173 -35.5t-132 -87.5q-74 -75 -112 -179t-38 -214zM242 608q13 161 109.5 258t234.5 97q149 0 229 -92.5t94 -262.5h-667zM301 662h551q-24 127 -86.5 187t-177.5 60q-108 0 -184.5 -66t-102.5 -181z " />
<glyph unicode="f" horiz-adv-x="591" d="M20 985q0 42 31 72t74 30h37v119q0 137 78 209q77 68 217 68h32q43 -2 73 -33q28 -30 28 -71q0 -44 -33 -75q-30 -28 -71 -28h-3q-18 1 -33 1q-56 0 -71 -15q-10 -7 -10 -56v-119h120q42 0 72.5 -30t30.5 -72q0 -43 -31 -73.5t-72 -30.5h-120v-793q0 -43 -31 -73.5 t-74 -30.5t-72.5 30.5t-29.5 73.5v793h-37q-43 0 -74 30.5t-31 73.5zM72 983q0 -22 14.5 -36.5t36.5 -14.5h90v-846q0 -22 14.5 -36.5t36.5 -14.5t36.5 14.5t14.5 36.5v846h172q22 0 37 14.5t15 36.5t-15 36.5t-37 14.5h-172v172q0 60 25.5 88t85.5 29q12 4 57 4 q22 -1 37 13t17 36q0 22 -14 37.5t-36 16.5h-32q-118 0 -181 -54q-61 -55 -61 -170v-172h-90q-22 0 -36.5 -14.5t-14.5 -36.5z" />
<glyph unicode="g" horiz-adv-x="1161" d="M82 563q0 137 42 245.5t111.5 174t153 99.5t172.5 34q147 0 256 -80q12 25 14 27q29 41 82 41q43 0 74 -30t31 -73v-897q0 -186 -107 -305q-134 -137 -372 -137q-170 0 -285.5 67t-155.5 187q-4 14 -4 33q0 40 29.5 71t73.5 31q33 0 61 -20.5t37 -53.5q15 -51 80.5 -79.5 t163.5 -28.5q119 0 183 40t81 122q6 27 6 59q-103 -74 -248 -74q-215 0 -347 151t-132 396zM135 561q0 -141 50 -252t147.5 -176t228.5 -65q201 0 301 178q0 -113 -2 -170q-6 -128 -87.5 -194t-233.5 -66q-116 0 -193.5 38t-99.5 107q-10 37 -49 37q-21 0 -36.5 -15 t-15.5 -36q0 -9 2 -15q34 -103 137 -161t255 -58q212 0 325 113q103 106 103 278v895q0 22 -16 37t-38 15q-32 0 -43 -29q-4 -94 -4 -139q-101 180 -305 180q-181 0 -303.5 -134t-122.5 -368zM238 563q0 186 91.5 292t231.5 106q159 0 238 -138q65 -117 65 -256 q0 -82 -21 -156t-50 -116q-43 -63 -97.5 -94t-134.5 -31q-152 0 -237.5 108t-85.5 285zM289 563q0 -160 72 -250t200 -90q69 0 110.5 23t76.5 73q31 43 47 111.5t16 134.5q0 113 -43 207q-31 68 -80 102.5t-127 34.5q-50 0 -96 -19t-86.5 -57.5t-65 -108t-24.5 -161.5z" />
<glyph unicode="h" horiz-adv-x="1101" d="M143 86v1292q0 43 31 74t72 31q43 0 73.5 -31t30.5 -74v-336q108 74 256 74q180 0 277 -106q98 -102 98 -262v-660q0 -43 -30.5 -73.5t-73.5 -30.5t-73 30.5t-30 73.5v666q0 9 -1.5 23t-12.5 43t-29 48q-41 41 -125 41q-130 0 -200 -98q-47 -63 -56 -133v-592 q0 -43 -30.5 -72.5t-73.5 -29.5q-42 0 -72.5 30t-30.5 72zM197 86q0 -22 14.5 -36.5t36.5 -14.5q21 0 36 15t15 36v594q0 33 19 82t44 82q84 119 244 119q109 0 164 -58q55 -59 55 -153v-664q0 -22 15 -36.5t37 -14.5t36.5 14.5t14.5 36.5v662q0 139 -84 225q-84 90 -238 90 q-197 0 -307 -158v471q0 22 -15.5 37t-35.5 15q-22 0 -36.5 -15t-14.5 -37v-1292z" />
<glyph unicode="i" d="M143 86v915q0 43 31 73t74 30q42 0 72 -30t30 -73v-915q0 -41 -30.5 -71.5t-71.5 -30.5q-43 0 -74 30.5t-31 71.5zM143 1270v92q0 42 31 72t74 30q42 0 72 -30t30 -72v-92q0 -41 -30.5 -72t-71.5 -31q-43 0 -74 31t-31 72zM195 86q0 -20 15.5 -35.5t37.5 -15.5 q20 0 35.5 15.5t15.5 35.5v915q0 20 -15.5 36t-35.5 16q-22 0 -37.5 -15.5t-15.5 -36.5v-915zM195 1268q0 -20 15.5 -35.5t37.5 -15.5q20 0 35.5 15.5t15.5 35.5v94q0 21 -15 36t-36 15q-22 0 -37.5 -14.5t-15.5 -36.5v-94z" />
<glyph unicode="j" horiz-adv-x="491" d="M-20 -211q0 43 29 74.5t71 32.5q29 0 48 2t24 4l4 2q6 10 6 53v1044q0 43 30.5 73t73.5 30q42 0 72.5 -30.5t30.5 -72.5v-1044q0 -268 -273 -268h-14q-41 0 -71.5 29.5t-30.5 70.5zM31 -211q2 -20 16.5 -34.5t34.5 -14.5h14q114 0 167.5 52.5t53.5 164.5v1042 q0 22 -14.5 37t-36.5 15t-36.5 -15t-14.5 -37v-1042q0 -70 -22 -92q-23 -23 -111 -23q-22 0 -36.5 -15.5t-14.5 -37.5zM162 1270v92q0 43 30.5 72.5t73.5 29.5q42 0 72.5 -30t30.5 -72v-92q0 -41 -31 -72t-72 -31q-42 0 -73 30.5t-31 72.5zM213 1268q0 -20 15.5 -35.5 t37.5 -15.5q20 0 35.5 15.5t15.5 35.5v94q0 21 -15 36t-36 15q-22 0 -37.5 -14.5t-15.5 -36.5v-94z" />
<glyph unicode="k" horiz-adv-x="1097" d="M143 86v1292q0 43 31 74t74 31q41 0 71.5 -31t30.5 -74v-727l471 436q32 29 72 29q44 0 73 -30.5t29 -73.5q0 -48 -32 -76l-287 -264l362 -527q19 -28 19 -59q0 -48 -33 -76t-72 -28q-56 0 -86 47l-342 499l-174 -159v-283q0 -43 -30.5 -73.5t-71.5 -30.5q-43 0 -74 30.5 t-31 73.5zM195 88q0 -23 14.5 -38t36.5 -15t36.5 15t14.5 38v303l235 217l377 -551q16 -22 43 -22q18 0 35 14t17 39q0 12 -11 27l-387 565l320 295q16 13 16 39q0 20 -13.5 35.5t-37.5 15.5q-17 0 -35 -14l-559 -519v846q0 22 -14.5 37t-36.5 15t-36.5 -15t-14.5 -37v-1290 z" />
<glyph unicode="l" horiz-adv-x="493" d="M143 86v1292q0 43 31 74t72 31q43 0 73.5 -31t30.5 -74v-1292q0 -43 -30.5 -72.5t-73.5 -29.5q-42 0 -72.5 30t-30.5 72zM195 86q0 -21 15 -36t36 -15q22 0 37.5 14.5t15.5 36.5v1292q0 22 -15.5 38t-37.5 16q-20 0 -35.5 -16t-15.5 -38v-1292z" />
<glyph unicode="m" horiz-adv-x="1624" d="M143 86v915q0 43 31 73t74 30q59 0 90 -53q106 65 229 65q176 0 277 -123q117 123 297 123q160 0 258 -98q34 -36 56.5 -80.5t30.5 -86t10.5 -63.5t2.5 -40v-660q0 -43 -30.5 -73.5t-73.5 -30.5q-41 0 -72 31t-31 73v664q0 26 -10 62t-33 60q-35 35 -108 35 q-115 0 -170 -90q-24 -37 -34.5 -77.5t-10.5 -61.5v-592q0 -43 -31 -73.5t-74 -30.5t-72.5 30.5t-29.5 73.5v664q0 26 -10.5 62t-34.5 60q-32 35 -107 35q-114 0 -172 -90q-24 -37 -34.5 -77.5t-10.5 -61.5v-594q0 -41 -30.5 -71.5t-71.5 -30.5q-43 0 -74 30.5t-31 71.5z M195 86q0 -20 15.5 -35.5t37.5 -15.5q20 0 34.5 15.5t14.5 35.5v594q7 92 55 166q69 115 213 115q96 0 148 -52q25 -26 39 -65.5t16 -59.5t2 -34v-664q0 -21 15 -36t36 -15t36 15t15 36v594q0 28 13 75t41 91q72 115 215 115q96 0 145 -52q57 -57 57 -159v-664 q0 -20 16 -35.5t36 -15.5q21 0 36 15t15 36v664q0 143 -86 231q-82 82 -219 82q-198 0 -303 -176q-31 82 -99.5 129t-173.5 47q-163 0 -268 -141v79q0 20 -14.5 35t-34.5 15q-22 0 -37.5 -15t-15.5 -35v-915z" />
<glyph unicode="n" horiz-adv-x="1103" d="M143 86v915q0 43 31 73t74 30q32 0 58.5 -19t37.5 -47q108 78 262 78q180 0 277 -106q98 -102 98 -262v-660q0 -43 -30.5 -73.5t-73.5 -30.5t-73 30.5t-30 73.5v666q0 9 -1.5 23t-12.5 43t-29 48q-41 41 -125 41q-130 0 -200 -98q-47 -63 -56 -133v-592 q0 -41 -30.5 -71.5t-71.5 -30.5q-43 0 -74 30.5t-31 71.5zM197 88q0 -21 15 -36t36 -15q20 0 35.5 15.5t15.5 35.5v590q0 34 19 82.5t44 83.5q84 119 244 119q109 0 164 -58q55 -59 55 -153v-664q0 -22 15 -36.5t37 -14.5t36.5 14.5t14.5 36.5v662q0 139 -84 225 q-84 90 -238 90q-110 0 -186 -45.5t-121 -112.5v97q0 20 -15.5 34.5t-35.5 14.5q-22 0 -36.5 -14.5t-14.5 -34.5v-916z" />
<glyph unicode="o" horiz-adv-x="1189" d="M82 543q0 253 144 413t370 160t369 -160t143 -413q0 -252 -143 -412t-369 -160t-370 160t-144 412zM135 543q0 -230 129 -374t332 -144t332 144t129 374q0 232 -129 377t-332 145t-332 -145t-129 -377zM238 543q0 189 97.5 304.5t260.5 115.5t260.5 -115.5t97.5 -304.5 q0 -187 -97.5 -301.5t-260.5 -114.5t-260.5 114.5t-97.5 301.5zM289 543q0 -166 84 -265.5t223 -99.5t222 99.5t83 265.5q0 167 -83 266.5t-222 99.5q-140 0 -223.5 -99.5t-83.5 -266.5z" />
<glyph unicode="p" horiz-adv-x="1167" d="M143 -209v1210q0 43 31 73t74 30q35 0 63 -22t37 -56q113 90 273 90q105 0 194 -42.5t152 -123.5q116 -153 116 -405q0 -253 -120 -406q-133 -168 -351 -168q-153 0 -262 80v-260q0 -41 -30.5 -71.5t-71.5 -30.5q-43 0 -74 30.5t-31 71.5zM195 -209q0 -20 15.5 -35.5 t35.5 -15.5q21 0 36 15t15 36v387q36 -48 76 -80q96 -75 239 -75q194 0 310 147q110 141 110 373q0 237 -108 375q-114 145 -303 145q-141 0 -246 -82q-37 -32 -78 -86v104q0 22 -14.5 37t-36.5 15q-20 0 -35.5 -15.5t-15.5 -36.5v-1208zM299 543q0 74 18.5 143.5t30.5 93 t21 37.5q85 144 249 144q145 0 226 -107q86 -113 86 -311q0 -197 -90 -310q-82 -108 -228 -108q-84 0 -142 31t-103 102q-10 15 -21 36t-29 93.5t-18 155.5zM350 543q0 -34 3 -65.5t8 -56t10 -44.5t12 -36t11.5 -25.5t10 -18.5t5.5 -10q38 -60 83.5 -84.5t116.5 -24.5 q119 0 189 88q78 96 78 277q0 178 -76 280q-65 86 -183 86q-134 0 -206 -118q0 -1 -4 -8t-8 -14.5t-10 -21t-11 -28t-10.5 -34.5t-9.5 -41t-6.5 -47.5t-2.5 -53.5z" />
<glyph unicode="q" horiz-adv-x="1167" d="M84 545q0 252 119 405q63 81 152 123.5t194 42.5q157 0 270 -90q9 34 37.5 56t63.5 22q43 0 73.5 -30t30.5 -73v-1210q0 -41 -30.5 -71.5t-73.5 -30.5q-41 0 -72 30.5t-31 71.5v260q-109 -80 -260 -80q-220 0 -350 168q-123 157 -123 406zM135 543q0 -231 111 -373 q116 -147 309 -147q144 0 240 75q38 30 75 80v-387q0 -21 15 -36t37 -15q20 0 35.5 15.5t15.5 35.5v1208q0 21 -15.5 36.5t-35.5 15.5q-22 0 -37 -15t-15 -37v-104q-43 57 -77 86q-105 82 -246 82q-189 0 -303 -145q-109 -139 -109 -375zM238 543q0 198 86 311 q81 107 223 107q167 0 252 -144q9 -13 21 -37t30 -93.5t18 -143.5q0 -52 -7 -100.5t-15 -78.5t-20 -57t-16.5 -35t-8.5 -14q-45 -71 -103.5 -102t-142.5 -31q-145 0 -227 108q-90 113 -90 310zM291 545q0 -178 78 -279q69 -88 186 -88q71 0 118 25.5t85 83.5q0 1 5.5 10.5 t10 18.5t11 25.5t12 36t10.5 44.5t7.5 56.5t2.5 66.5q0 141 -63 246q-68 118 -207 118q-114 0 -182 -86q-74 -95 -74 -278z" />
<glyph unicode="r" horiz-adv-x="729" d="M143 86v915q0 43 31 73t74 30q32 0 58 -18t38 -48q15 12 37 23q98 55 225 55q43 0 73 -30.5t30 -73.5q0 -42 -30.5 -72.5t-72.5 -30.5q-130 0 -203 -98q-27 -36 -40 -76t-13 -59v-590q0 -41 -30.5 -71.5t-71.5 -30.5q-43 0 -74 30.5t-31 71.5zM195 86q0 -20 15.5 -35.5 t35.5 -15.5q21 0 36 15t15 36v590q0 26 16 74t47 92q85 119 244 119q22 0 36.5 14.5t14.5 36.5t-14.5 36.5t-36.5 14.5q-159 0 -272 -113q-23 -26 -35 -45v96q0 21 -15 36.5t-36 15.5q-20 0 -35.5 -16t-15.5 -36v-915z" />
<glyph unicode="s" horiz-adv-x="1054" d="M80 332q0 42 31 73t75 31q37 0 66 -25.5t35 -66.5q24 -166 258 -166q20 0 39.5 2t46.5 7t49.5 15.5t42.5 26t31.5 40.5t11.5 57q0 26 -2.5 37.5t-11.5 25.5t-34.5 23t-65 19.5t-109.5 25.5l-54 12h-1h-1l-1 1h-1q-159 37 -225 71q-142 73 -147 232v13q0 148 111 239 t292 91q87 0 157 -20.5t113.5 -51t75.5 -73t46.5 -77.5t23.5 -73q4 -16 4 -22q0 -42 -29.5 -73.5t-72.5 -31.5q-37 0 -66.5 22.5t-36.5 57.5q-15 63 -60 99t-155 36q-25 0 -51 -3.5t-63 -14.5t-60 -38t-23 -67q0 -30 11 -44.5t56.5 -31t150.5 -40.5l51 -11q159 -35 222 -64 q132 -61 157 -194q6 -35 6 -75q0 -158 -118 -256.5t-310 -98.5q-227 0 -365 135q-47 47 -73.5 117t-26.5 109zM162 227q24 -54 63 -92q115 -112 320 -112q166 0 270.5 81t104.5 222q0 51 -11 90.5t-34 66.5t-51 46t-68.5 33t-79 23.5t-90.5 20.5q-7 1 -11 2l-51 10 q-56 13 -83 20t-63.5 18.5t-52 22t-32 26t-22 35.5t-5.5 46q0 47 22.5 82.5t60.5 54.5t80 28.5t87 9.5q224 0 266 -175q3 -19 18 -30t34 -11q21 1 35 16t14 36q0 2 -1 7.5t-1 8.5q-28 112 -119.5 181t-245.5 69t-253 -74t-99 -203q0 -40 10.5 -72.5t24 -55.5t43 -43.5 t51 -32t65 -25t68 -19.5t76.5 -18l51 -12q74 -16 113 -26.5t73.5 -24t48.5 -31t21.5 -41t7.5 -59.5q0 -70 -42 -117t-101 -65.5t-129 -18.5q-135 0 -214.5 55t-94.5 158q-3 20 -18.5 32.5t-35.5 12.5q-22 -1 -36 -17q-13 -14 -13 -31q0 -42 29 -108z" />
<glyph unicode="t" horiz-adv-x="681" d="M41 985q0 43 30.5 72.5t73.5 29.5h41v193q0 43 31 73.5t74 30.5t72.5 -30.5t29.5 -73.5v-193h125q43 0 73 -29.5t30 -72.5t-30 -73.5t-73 -30.5h-125v-666q0 -9 1 -16t2 -11l1 -4q19 -6 47 -6t45 6q12 3 24 2q29 0 55 -16q36 -22 46 -64q3 -13 3 -25q0 -27 -15 -52 q-22 -36 -63 -47q-43 -11 -97 -11q-119 0 -184 62q-72 66 -72 182v666h-41q-43 0 -73.5 30.5t-30.5 73.5zM92 985q0 -22 14.5 -36.5t36.5 -14.5h97v-719q0 -96 53 -143q52 -49 149 -49q39 0 84 10q20 4 31 22.5t6 38.5q-4 21 -22 32.5t-39 6.5q-21 -7 -45 -7q-15 0 -31 3 q-44 0 -64 20t-20 66v719h176q21 0 36 15t15 36t-15 36t-36 15h-176v244q0 21 -15 36t-36 15q-22 0 -36.5 -14.5t-14.5 -36.5v-244h-97q-22 0 -36.5 -14.5t-14.5 -36.5z" />
<glyph unicode="u" horiz-adv-x="1093" d="M125 354v647q0 43 30.5 73t71.5 30q43 0 74 -30t31 -73v-657q0 -47 24 -92q41 -74 152 -74q122 0 186 101q23 38 35 80.5t12 62.5v579q0 43 31 73t74 30q42 0 72 -30t30 -73v-915q0 -41 -30.5 -71.5t-71.5 -30.5q-31 0 -56.5 16.5t-37.5 42.5q-109 -72 -248 -72 q-174 0 -276.5 110.5t-102.5 272.5zM176 352q0 -86 35 -159t111.5 -121.5t183.5 -48.5q187 0 287 153v-90q0 -20 15.5 -35.5t35.5 -15.5q21 0 36 15t15 36v915q0 22 -14.5 37t-36.5 15q-20 0 -35.5 -15.5t-15.5 -36.5v-581q0 -24 -13.5 -73.5t-42.5 -96.5 q-78 -125 -229 -125q-141 0 -199 104q-30 57 -30 115v655q0 22 -15 37t-37 15q-21 0 -36 -15.5t-15 -36.5v-647z" />
<glyph unicode="v" horiz-adv-x="1064" d="M63 1001q0 41 30.5 73t74.5 32q33 0 59.5 -19t36.5 -51l264 -745l271 745q12 32 38.5 50t57.5 18q46 0 75 -31t29 -74q0 -17 -6 -32l-323 -897q-11 -31 -38 -50.5t-61 -19.5h-86q-32 0 -58.5 19.5t-37.5 50.5l-319 897q-7 21 -7 34zM117 1001q0 -6 4 -18l317 -897 q4 -15 18 -25t29 -10h86q36 0 50 35l323 897q2 6 2 16q0 23 -15 37.5t-34 14.5q-15 0 -29 -9t-20 -24l-313 -868h-11l-307 868q-14 35 -49 35q-22 0 -36.5 -16t-14.5 -36z" />
<glyph unicode="w" horiz-adv-x="1527" d="M70 1001q0 41 29.5 72t72.5 31q34 0 62 -20.5t38 -53.5l203 -688l191 672q9 32 36.5 52.5t61.5 20.5q35 0 63 -20.5t37 -54.5l178 -666l218 686q10 33 37.5 53.5t60.5 20.5q44 0 74 -32t30 -73q0 -15 -6 -30l-282 -897q-11 -33 -38.5 -53.5t-60.5 -20.5h-74q-35 0 -63 22 t-37 56l-139 518l-146 -520q-11 -34 -38 -55t-62 -21h-78q-34 0 -61.5 21t-36.5 53l-266 899q-4 10 -4 28zM121 1001q0 -10 2 -14l266 -899q5 -15 18.5 -25t30.5 -10h78q39 0 49 37l197 703l188 -703q10 -37 51 -37h74q15 0 29 10t18 25l285 897q2 6 2 16q0 20 -14.5 36 t-36.5 16q-36 0 -49 -37l-269 -856h-2l-225 837q-5 17 -18.5 28t-30.5 11q-39 0 -49 -37l-236 -845h-2l-256 862q-10 37 -49 37q-20 0 -35.5 -15.5t-15.5 -36.5z" />
<glyph unicode="x" horiz-adv-x="1126" d="M88 88q0 30 21 62l319 428l-281 360q-22 28 -22 63q0 45 31 74t73 29q53 0 82 -39l246 -317l246 317q29 39 80 39q42 0 73 -29t31 -74q0 -35 -22 -63l-277 -358l332 -428q20 -26 20 -64q0 -45 -30 -74.5t-72 -29.5q-54 0 -82 41l-297 383l-285 -381q-30 -43 -81 -43 q-42 0 -73.5 29.5t-31.5 74.5zM139 86q0 -22 14.5 -36.5t36.5 -14.5q27 0 43 22l324 437l340 -439q14 -20 39 -20q21 0 36 14t15 37q0 20 -10 33l-356 461l303 389q10 17 10 30q0 24 -15 39t-36 15q-23 0 -41 -21l-287 -370l-287 370q-18 21 -41 21q-22 0 -36.5 -15 t-14.5 -37q0 -17 12 -32l304 -391l-342 -461q-11 -18 -11 -31z" />
<glyph unicode="y" horiz-adv-x="1091" d="M66 999q0 42 28.5 73.5t73.5 31.5q30 0 56 -16.5t38 -45.5l307 -682l254 676q12 32 38.5 50t58.5 18q46 0 75 -31t29 -72q0 -18 -6 -36l-383 -1018q-55 -145 -133 -203q-74 -55 -193 -55q-50 0 -86 8q-36 7 -59 36.5t-23 65.5q0 43 32 73t73 30q13 0 27.5 -3t35.5 -3 q49 0 70 14q27 22 63 110l23 66l-391 872q-8 16 -8 41zM117 1001q0 -11 6 -20l399 -893l-30 -86q-42 -105 -82 -133q-34 -27 -101 -27q-13 0 -22.5 1t-19.5 2.5t-17 2.5q-22 2 -38.5 -12t-16.5 -37q0 -41 38 -51q33 -8 76 -8q99 0 154 41q72 48 125 184l381 1018q2 6 2 18 q0 21 -14.5 36.5t-36.5 15.5q-36 0 -48 -35l-299 -795l-358 799q-14 31 -47 31q-20 0 -35.5 -15t-15.5 -37z" />
<glyph unicode="z" horiz-adv-x="1032" d="M86 104v52q0 35 23 65l532 660h-416q-41 0 -71.5 30.5t-30.5 73.5q0 42 30 72t72 30h602q43 0 74 -30t31 -72v-37q0 -33 -23 -63l-547 -678h482q43 0 73.5 -30t30.5 -73t-30.5 -73.5t-73.5 -30.5h-654q-43 0 -73.5 30.5t-30.5 73.5zM139 104q0 -22 14.5 -36.5t36.5 -14.5 h654q22 0 36.5 14.5t14.5 36.5q0 21 -15 36.5t-36 15.5h-588v2l612 760q11 11 11 30v37q0 21 -15.5 36t-36.5 15h-602q-20 0 -35.5 -15.5t-15.5 -35.5q0 -21 15 -36t36 -15h525v-2l-600 -746q-11 -11 -11 -30v-52z" />
<glyph unicode="{" horiz-adv-x="780" d="M82 578q0 33 19 59.5t51 36.5q59 23 107 68t48 100q0 33 -22 82q-52 113 -52 202q0 113 70.5 201.5t179.5 130.5q15 6 33 6h39q43 0 72.5 -30.5t29.5 -73.5t-29.5 -73t-72.5 -30h-16q-99 -51 -99 -131q0 -45 31 -112q43 -82 43 -172q0 -64 -25 -123q-35 -86 -120 -156 q137 -137 137 -282q0 -74 -37 -144q-29 -63 -29 -104q0 -47 30.5 -82t68.5 -55h6q43 0 72.5 -30t29.5 -73t-29.5 -73.5t-72.5 -30.5h-29q-15 0 -47 13t-73 38t-81.5 72.5t-62.5 105.5q-21 65 -21 117q0 95 56 198q12 24 12 50q0 46 -51 106q-22 25 -50.5 49.5t-44 35.5 t-20.5 13q-51 28 -51 91zM133 578q0 -32 27 -46l8 -6q8 -5 21 -14t29 -21.5t34.5 -30.5t34.5 -36q65 -77 65 -145q-3 -37 -20 -70q-47 -92 -47 -178q0 -47 16 -97q18 -48 53 -88t69 -61.5t59.5 -33t33.5 -11.5h29q22 0 36.5 14.5t14.5 36.5q0 23 -14.5 37t-36.5 14h-19 q-61 30 -100 79.5t-39 109.5q0 61 35 129q33 68 33 121q-2 149 -174 288q122 76 159 168q21 47 21 103q0 76 -37 149t-37 135t40 111t99 74h29q22 0 35.5 14.5t13.5 36.5t-13.5 36.5t-35.5 14.5h-39q-4 0 -16 -4q-92 -36 -153.5 -109.5t-61.5 -175.5q3 -84 47 -176 q26 -56 26 -110q0 -68 -56.5 -125t-133.5 -86q-32 -13 -35 -47z" />
<glyph unicode="|" horiz-adv-x="575" d="M184 -209v1761q0 43 31 73t74 30q41 0 71.5 -30.5t30.5 -72.5v-1761q0 -42 -30 -72t-72 -30q-43 0 -74 30t-31 72zM236 -209q0 -22 15.5 -36.5t37.5 -14.5q21 0 36 15t15 36v1761q0 22 -15 37t-36 15q-22 0 -37.5 -15t-15.5 -37v-1761z" />
<glyph unicode="}" horiz-adv-x="780" d="M123 1360q0 43 29.5 73.5t72.5 30.5h39q18 0 33 -6q110 -41 180 -130t70 -202q0 -91 -51 -202q-23 -51 -23 -82q0 -55 48.5 -100t107.5 -68q32 -10 50.5 -36.5t18.5 -59.5q0 -63 -51 -91q-5 -2 -20.5 -13t-44 -35.5t-50.5 -49.5q-51 -60 -51 -106q0 -24 13 -50 q55 -101 55 -198q0 -52 -21 -117q-22 -58 -62.5 -105.5t-81.5 -72.5t-73 -38t-47 -13h-28q-43 0 -73 30.5t-30 73.5t30 73t73 30h6q37 20 67.5 55t30.5 82q0 41 -29 104q-37 70 -37 144q0 144 138 282q-87 71 -121 156q-25 59 -25 123q0 90 43 172q31 67 31 112 q0 80 -98 131h-17q-43 0 -72.5 30t-29.5 73zM174 1360q0 -22 14.5 -36.5t36.5 -14.5h29q59 -25 98 -74t39 -111q0 -66 -35 -135q-37 -73 -37 -149q0 -56 21 -103q37 -91 160 -168q-172 -139 -174 -288q0 -55 32 -121q35 -68 35 -129q0 -60 -39 -109.5t-100 -79.5h-18 q-22 0 -37 -14t-15 -37q0 -22 15 -36.5t37 -14.5h28q8 0 33.5 11.5t59.5 33t69 61.5t53 88q17 53 17 97q0 86 -47 178q-18 35 -21 70q0 67 66 145q16 18 34.5 36t34.5 30.5t29 21.5t21 14l8 6q24 12 24 46q0 35 -35 47q-76 30 -132 86.5t-56 124.5q0 52 27 110q45 95 45 176 q0 102 -61 176t-152 109q-12 4 -17 4h-39q-22 0 -36.5 -14.5t-14.5 -36.5z" />
<glyph unicode="~" horiz-adv-x="1454" d="M102 641q0 40 27 70q3 4 15.5 16.5t38 35.5t53.5 44q135 102 258 102q55 0 100.5 -8.5t84 -27t59.5 -31.5t55 -37q32 -23 49 -33.5t47.5 -19.5t68.5 -9q34 0 90 32t115 91q39 45 86 45q42 0 72.5 -30t30.5 -74q0 -45 -41 -86q-184 -184 -353 -184q-67 0 -126.5 17.5 t-88 34.5t-71.5 48q-34 24 -52 34.5t-51.5 20.5t-74.5 10q-47 0 -108.5 -43t-102.5 -86q-30 -34 -78 -34q-39 0 -71 30.5t-32 71.5zM154 641q0 -21 16 -36t35 -15q24 0 39 18q146 146 250 146q48 0 88.5 -12t61 -24t58.5 -38q42 -29 67 -44t77 -30.5t112 -15.5 q143 0 322 174q18 18 18 41q0 22 -14.5 36.5t-36.5 14.5q-27 0 -41 -20q-27 -27 -58.5 -54t-89 -58.5t-100.5 -31.5q-45 0 -83 11t-58.5 23.5t-54.5 37.5q-44 30 -69.5 45t-80.5 31t-118 16q-103 0 -228 -90q-26 -20 -49.5 -41.5t-35.5 -33.5t-13 -15q-14 -18 -14 -35z" />
<glyph unicode="&#xa1;" horiz-adv-x="460" d="M92 958v46q0 47 33.5 79.5t81.5 32.5h45q48 0 81.5 -32.5t33.5 -79.5v-46q0 -47 -33.5 -79.5t-81.5 -32.5h-45q-48 0 -81.5 32.5t-33.5 79.5zM123 -285v961q0 43 29.5 72.5t72.5 29.5t73 -29.5t30 -72.5v-961q0 -43 -30 -73.5t-73 -30.5t-72.5 30.5t-29.5 73.5zM143 958 q0 -26 18.5 -43.5t45.5 -17.5h45q26 0 44.5 17.5t18.5 43.5v46q0 26 -18.5 43.5t-44.5 17.5h-45q-27 0 -45.5 -17.5t-18.5 -43.5v-46zM174 -285q0 -22 14.5 -37.5t36.5 -15.5t36.5 15.5t14.5 37.5v961q0 21 -15 36t-36 15t-36 -15t-15 -36v-961z" />
<glyph unicode="&#xa2;" horiz-adv-x="1206" d="M123 735q0 220 104.5 369.5t282.5 191.5v84q0 43 30.5 73t73.5 30q42 0 72.5 -30.5t30.5 -72.5v-77q135 -20 229 -103t129 -213q4 -16 4 -24q0 -42 -31 -73.5t-73 -31.5q-34 0 -63 21.5t-38 56.5q-43 166 -243 166q-141 0 -221 -97.5t-80 -269.5q0 -170 79.5 -267 t219.5 -97q217 0 252 200q7 41 42 65.5t78 18.5q38 -7 61 -35.5t23 -68.5q0 -44 -28 -114t-72 -124q-100 -118 -268 -143v-84q0 -42 -30.5 -72t-72.5 -30q-43 0 -73.5 29.5t-30.5 72.5v90q-178 40 -282.5 189.5t-104.5 369.5zM174 735q0 -211 103.5 -351t283.5 -163v-139 q0 -22 15.5 -36.5t37.5 -14.5q20 0 35 14.5t15 36.5v135q177 11 276 125q42 50 66 109.5t26 101.5q0 21 -13 34.5t-30 16.5q-22 2 -38 -10.5t-19 -32.5q-21 -120 -99.5 -182t-203.5 -62q-166 0 -259.5 114.5t-93.5 303.5q0 188 94 303t259 115q242 0 295 -205 q5 -17 18.5 -28t30.5 -11q21 0 37 15.5t16 36.5q0 2 -1 6.5t-1 7.5q-35 128 -129.5 200t-230.5 80v113q0 22 -15 36.5t-35 14.5q-22 0 -37.5 -14.5t-15.5 -36.5v-117q-180 -23 -283.5 -164.5t-103.5 -351.5z" />
<glyph unicode="&#xa3;" horiz-adv-x="1116" d="M102 102q0 48 35 78q60 60 105 144q67 125 67 260q0 35 -2 51h-100q-43 0 -74 30t-31 72q0 43 31 74t74 31h67q-16 131 -16 211q0 209 92 321q94 117 279 117q161 0 256 -131q29 -40 47 -86.5t18 -71.5q0 -44 -31 -75t-73 -31q-34 0 -61.5 21t-36.5 54q-10 42 -33 72 q-35 41 -86 41q-85 0 -121 -41q-43 -51 -43 -192q0 -96 18 -209h185q43 0 73.5 -31t30.5 -74t-30.5 -72.5t-73.5 -29.5h-152v-51q0 -165 -74 -322q40 4 62 4q71 0 164 -39q62 -20 73 -20q35 0 86 69q30 41 82 41q41 0 73 -31t32 -73q0 -33 -23 -63q-120 -150 -250 -150 q-57 0 -147 35q-66 24 -90 24q-65 0 -140 -18t-120 -35q-18 -6 -37 -6q-48 0 -76.5 30t-28.5 72zM156 102q0 -21 13 -36t38 -15q6 0 18 4q1 0 19 6t35 11.5t46.5 13t56.5 12.5t60 9t62 4q11 0 22 -1.5t23.5 -5t20 -5.5t22.5 -7.5t20 -7.5q85 -33 131 -33q103 0 207 129 q11 18 11 33q0 20 -16 35.5t-36 15.5q-24 0 -41 -20q-64 -87 -127 -90q-20 0 -90 24q-94 35 -147 35q-74 0 -168 -25q99 153 119 312q17 87 0 186h213q22 0 36.5 14.5t14.5 36.5t-14.5 36.5t-36.5 14.5h-230q-26 150 -26 275q3 150 57 213q48 61 160 61q82 0 129 -65 q21 -27 41 -86q5 -17 19.5 -27.5t31.5 -9.5q20 1 33.5 16t13.5 35q0 17 -14.5 56.5t-38.5 72.5q-79 111 -215 111q-161 0 -240 -99q-77 -92 -80 -276q0 -110 27 -277h-129q-22 0 -36.5 -14.5t-14.5 -36.5t14.5 -36.5t36.5 -14.5h145l2 -33q27 -188 -67 -358 q-50 -89 -115 -154q-16 -16 -16 -39z" />
<glyph unicode="&#xa4;" horiz-adv-x="1179" d="M72 248q0 34 24 61l140 140q-76 113 -76 253q0 141 76 254l-140 140q-24 27 -24 61q0 33 26.5 59.5t59.5 26.5q39 0 63 -24l146 -148q96 55 219 55q122 0 225 -57l147 150q27 24 64 24q34 0 60 -26t26 -60q0 -35 -25 -63l-147 -146q72 -109 72 -246q0 -136 -72 -245 l145 -148q27 -24 27 -61q0 -35 -25.5 -61.5t-60.5 -26.5q-33 0 -64 24l-149 154q-97 -57 -223 -57q-118 0 -219 53l-148 -150q-27 -24 -61 -24q-35 0 -60.5 26.5t-25.5 61.5zM117 250q0 -16 11.5 -29.5t29.5 -13.5q16 0 28 12l174 174q92 -65 226 -65q135 0 229 69l178 -178 q12 -12 29 -12q15 0 28 12t13 31q0 17 -12 29l-177 176q87 96 87 250q0 148 -87 249l177 174q12 12 12 31q0 16 -11.5 28.5t-29.5 12.5q-17 0 -29 -12l-178 -176q-94 69 -229 69q-133 0 -228 -65l-172 172q-9 12 -28 12q-15 0 -28 -13t-13 -28q0 -19 12 -31l168 -167 q-90 -101 -90 -256t90 -256l-168 -170q-12 -12 -12 -29zM289 705q0 132 81 213t216 81q131 0 212 -79.5t81 -214.5q0 -131 -78.5 -213t-214.5 -82q-134 0 -215.5 79.5t-81.5 215.5zM334 702q0 -116 67 -181.5t185 -65.5q117 0 182.5 67.5t65.5 179.5q0 114 -67.5 182 t-180.5 68q-117 0 -184.5 -66.5t-67.5 -183.5z" />
<glyph unicode="&#xa5;" horiz-adv-x="1275" d="M41 1380q0 44 32 73.5t72 29.5q50 0 82 -43l412 -570l410 570q32 43 84 43q40 0 71 -28.5t31 -72.5q0 -40 -18 -63l-474 -657h263q32 0 53.5 -22.5t21.5 -53.5q0 -33 -21.5 -55.5t-53.5 -22.5h-265v-107h265q32 0 53.5 -22t21.5 -53q0 -33 -21.5 -55.5t-53.5 -22.5h-265 v-162q0 -43 -30.5 -72.5t-73.5 -29.5q-42 0 -72 30t-30 72v162h-263q-32 0 -54.5 23t-22.5 55q0 31 22.5 53t54.5 22h263v107h-263q-32 0 -54.5 23t-22.5 55q0 31 22.5 53.5t54.5 22.5h260l-471 657q-20 26 -20 61zM92 1380q0 -17 10 -30l484 -672v-53h-316q-17 0 -29 -12 t-12 -29t12 -29t29 -12h316v-176h-316q-17 0 -29 -12t-12 -29t12 -29t29 -12h316v-199q0 -22 14.5 -35.5t36.5 -13.5q21 0 36 14t15 35v199h318q17 0 29 12t12 29t-12 29t-29 12h-318v176h318q17 0 29 12t12 29t-12 29t-29 12h-318v53l486 672q8 13 8 30q0 23 -15.5 37.5 t-36.5 14.5q-24 0 -40 -23l-453 -627l-453 627q-16 23 -41 23q-21 0 -36 -15t-15 -37z" />
<glyph unicode="&#xa6;" horiz-adv-x="575" d="M184 -209v619q0 42 31 72t74 30q42 0 72 -30t30 -72v-619q0 -42 -30 -72t-72 -30q-43 0 -74 30t-31 72zM184 934v618q0 43 31 73t74 30q41 0 71.5 -30.5t30.5 -72.5v-618q0 -42 -30.5 -72.5t-71.5 -30.5q-43 0 -74 30t-31 73zM236 -209q0 -22 15.5 -36.5t37.5 -14.5 q21 0 36 15t15 36v619q0 20 -15.5 35.5t-35.5 15.5q-22 0 -37.5 -15.5t-15.5 -35.5v-619zM236 934q0 -20 15.5 -35.5t37.5 -15.5q20 0 35.5 15.5t15.5 35.5v618q0 22 -15 37t-36 15q-22 0 -37.5 -15t-15.5 -37v-618z" />
<glyph unicode="&#xa7;" horiz-adv-x="1216" d="M184 588q0 108 40.5 192t101.5 127q-66 81 -66 215q0 164 101 266.5t264 102.5q159 0 264 -102q29 -32 29 -72q0 -43 -30 -74t-73 -31t-74 31q-41 41 -116 41t-116.5 -42t-41.5 -120q0 -67 27 -94q33 -24 143 -51q174 -38 284.5 -140.5t110.5 -244.5q0 -205 -139 -320 q63 -78 63 -215q0 -164 -100.5 -266t-263.5 -102q-159 0 -264 102q-29 32 -29 72q0 43 29.5 73.5t72.5 30.5q44 0 74 -30q44 -41 117 -41q75 0 116.5 41.5t41.5 119.5q0 68 -27 95q-33 24 -143 51q-172 38 -284 141t-112 244zM236 588q0 -68 32.5 -126.5t86.5 -98.5 t113.5 -67t123.5 -42q124 -30 162 -61q47 -42 47 -136q0 -100 -56.5 -157t-154.5 -56q-96 0 -152 56q-14 14 -37 14q-22 0 -36.5 -14.5t-14.5 -36.5q0 -16 15 -35q89 -86 225 -86q142 -1 227.5 85.5t85.5 229.5q0 85 -27 138t-83 86q87 35 136.5 114t49.5 197 q0 70 -31.5 128t-85.5 97.5t-112.5 65.5t-124.5 43q-124 30 -164 61q-47 42 -47 135q0 99 57 156t154 57q98 0 153 -55q16 -16 37 -16q20 0 34.5 14.5t14.5 36.5q0 23 -14 37q-89 86 -225 86q-141 0 -226.5 -87.5t-85.5 -228.5q0 -85 27.5 -137t83.5 -86 q-85 -32 -136.5 -113.5t-51.5 -197.5zM338 588q0 113 59.5 178t173.5 65q53 -10 103.5 -29t98 -48t76 -71t28.5 -91q0 -110 -59 -177t-167 -67q-17 0 -51.5 8t-80 27t-85.5 45.5t-68 68.5t-28 91zM391 588q0 -45 35 -83.5t82.5 -60t86.5 -33.5t56 -12q83 0 128.5 52 t45.5 141q0 42 -29 78t-74 57.5t-84 34.5t-73 18q-86 0 -130 -50t-44 -142z" />
<glyph unicode="&#xa8;" horiz-adv-x="948" d="M205 1507v92q0 43 30.5 73t73.5 30q42 0 72.5 -30.5t30.5 -72.5v-92q0 -41 -31 -71.5t-72 -30.5q-43 0 -73.5 30.5t-30.5 71.5zM256 1507q0 -20 15.5 -34.5t37.5 -14.5q20 0 35.5 14.5t15.5 34.5v92q0 20 -15.5 36t-35.5 16q-21 0 -37 -15.5t-16 -36.5v-92zM537 1507v92 q0 43 30.5 73t73.5 30q41 0 71.5 -30t30.5 -73v-92q0 -41 -30.5 -71.5t-71.5 -30.5q-43 0 -73.5 30.5t-30.5 71.5zM588 1507q0 -20 15.5 -34.5t37.5 -14.5q20 0 35.5 14.5t15.5 34.5v92q0 20 -15.5 36t-35.5 16q-21 0 -37 -15.5t-16 -36.5v-92z" />
<glyph unicode="&#xa9;" horiz-adv-x="1724" d="M102 731q0 155 60.5 295.5t162.5 242.5t242.5 162t294.5 60q155 0 295.5 -60t242.5 -162t162 -242.5t60 -295.5q0 -154 -60 -294.5t-162 -242.5t-242.5 -162.5t-295.5 -60.5q-154 0 -294.5 60.5t-242.5 162.5t-162.5 242.5t-60.5 294.5zM141 731q0 -146 57.5 -279.5 t154 -230t230 -154t279.5 -57.5q147 0 281 57.5t230.5 154t154 230t57.5 279.5q0 196 -97 362.5t-263.5 263.5t-362.5 97q-146 0 -279.5 -57.5t-230 -154t-154 -230.5t-57.5 -281zM217 731q0 175 86.5 324.5t235 237t323.5 87.5t324.5 -87.5t237 -237t87.5 -324.5 t-87.5 -323.5t-237 -235t-324.5 -86.5t-323.5 86.5t-235 235t-86.5 323.5zM254 731q0 -165 81.5 -305t221.5 -221.5t305 -81.5t306 81.5t223 221.5t82 305t-82 305.5t-223 222.5t-306 82t-305 -82t-221.5 -222.5t-81.5 -305.5zM471 729q0 198 109 320t284 122q131 0 222 -65 t122 -182q4 -12 4 -19q0 -33 -24.5 -57.5t-57.5 -24.5q-26 0 -48 17t-29 45q-35 127 -189 127q-109 0 -171 -75.5t-62 -207.5t62 -207.5t169 -75.5q170 0 197 156q4 32 31 51.5t61 14.5q30 -6 48 -28.5t18 -53.5q0 -34 -21.5 -88.5t-56.5 -96.5q-99 -114 -277 -114 q-174 0 -282.5 121.5t-108.5 320.5zM512 729q0 -180 94 -290.5t256 -110.5q156 0 242 96q32 38 51 85t21 79q0 16 -10.5 26.5t-22.5 12.5q-17 1 -29.5 -8.5t-15.5 -24.5q-17 -93 -78 -140.5t-158 -47.5q-128 0 -200 88t-72 235q0 145 73 234.5t201 89.5q91 0 149.5 -41 t78.5 -119q3 -12 14 -20.5t24 -8.5q16 0 27.5 11t11.5 28v10q-29 106 -109.5 163t-195.5 57q-162 0 -257 -113.5t-95 -290.5z" />
<glyph unicode="&#xaa;" horiz-adv-x="835" d="M72 936q0 103 63 162q74 68 248 86q108 12 152 30q0 31 -2.5 43.5t-12.5 22.5q-31 31 -112 31q-101 0 -138 -47q-5 -7 -9 -16t-5 -14l-2 -5q-2 -31 -26 -52t-56 -20q-31 3 -52 27.5t-18 54.5q0 8 3 23.5t15 43.5t30 52q84 106 258 106q134 0 207 -63.5t73 -167.5v-363 q18 0 33 -6q12 -6 22 -16q21 -25 21 -53q0 -32 -23 -55t-55 -23q-47 0 -86 24q-18 13 -39 41q-94 -73 -227 -73q-118 0 -190 61t-72 166zM106 936q0 -88 62.5 -139.5t165.5 -51.5q79 0 142.5 31.5t103.5 75.5q3 -44 28 -72q29 -26 78 -26q17 0 29 12t12 31q0 23 -20 30 q-21 6 -35 17q-7 7 -13.5 19.5t-7.5 13.5v358q0 88 -62 141.5t-181 53.5q-159 0 -230 -93q-27 -36 -43 -98q0 -19 11 -31t28 -14q18 0 30.5 11t12.5 28q5 26 25 53q50 62 166 62q97 0 137 -43q18 -19 21 -36.5t3 -72.5q-53 -32 -182 -47q-162 -15 -229 -76q-52 -48 -52 -137 zM188 936q0 55 27 76q44 41 180 57q121 12 174 37v-133q-27 -58 -88 -102t-147 -44q-68 0 -107 28t-39 81zM225 936q0 -74 109 -74q71 0 123.5 35t77.5 82v76q-48 -13 -136 -23q-120 -14 -159 -47q-15 -12 -15 -49z" />
<glyph unicode="&#xab;" horiz-adv-x="1130" d="M123 582q0 50 37 77l239 205q28 25 66 25q45 0 74.5 -30.5t29.5 -72.5q0 -49 -37 -79l-147 -125l147 -125q37 -30 37 -80q0 -42 -29.5 -72.5t-74.5 -30.5q-38 0 -66 25l-239 203q-37 30 -37 80zM174 582q0 -26 19 -39l239 -203q18 -14 33 -14q23 0 37 15.5t14 37.5 q0 26 -16 37l-195 166l195 166q18 15 18 40q0 20 -14.5 35t-36.5 15q-17 0 -33 -13l-241 -204q-19 -16 -19 -39zM561 582q0 50 37 77l240 205q28 25 65 25q45 0 75 -30.5t30 -72.5q0 -49 -37 -79l-148 -125l148 -125q37 -30 37 -80q0 -42 -30 -72.5t-75 -30.5q-37 0 -65 25 l-240 203q-37 30 -37 80zM612 582q0 -26 19 -39l239 -203q18 -14 33 -14q23 0 37 15.5t14 37.5q0 26 -16 37l-195 166l195 166q18 15 18 40q0 20 -14.5 35t-36.5 15q-17 0 -33 -13l-241 -204q-19 -16 -19 -39z" />
<glyph unicode="&#xac;" horiz-adv-x="1308" d="M102 817q0 43 30 74t73 31h860q43 0 71.5 -31.5t28.5 -75.5v-397q0 -42 -30.5 -72.5t-71.5 -30.5q-43 0 -73 30t-29 73v297h-756q-43 0 -73 29.5t-30 72.5zM154 817q0 -22 14.5 -36.5t36.5 -14.5h807v-348q-2 -20 13.5 -35.5t37.5 -15.5q20 0 34.5 15.5t14.5 35.5v399 q0 22 -13.5 36.5t-35.5 14.5h-858q-22 0 -36.5 -14.5t-14.5 -36.5z" />
<glyph unicode="&#xad;" horiz-adv-x="901" d="M102 614q0 43 30 74t73 31h491q43 0 73 -31t30 -74t-30 -72.5t-73 -29.5h-491q-43 0 -73 29.5t-30 72.5zM154 614q0 -22 14.5 -35.5t36.5 -13.5h491q22 0 37 14t15 35q0 22 -15 38t-37 16h-491q-21 0 -36 -16t-15 -38z" />
<glyph unicode="&#xae;" horiz-adv-x="1228" d="M250 1112q0 158 114 271.5t271 113.5t270 -113.5t113 -271.5q0 -156 -113.5 -269.5t-269.5 -113.5q-157 0 -271 114t-114 269zM276 1112q0 -146 105.5 -251t253.5 -105q147 0 251.5 104.5t104.5 251.5q0 149 -104 253.5t-252 104.5t-253.5 -104.5t-105.5 -253.5z M322 1112q0 129 92 221t221 92q128 0 219.5 -92t91.5 -221q0 -128 -92 -219.5t-219 -91.5q-129 0 -221 91.5t-92 219.5zM348 1112q0 -120 83 -202.5t204 -82.5q120 0 202.5 82.5t82.5 202.5q0 121 -82.5 204t-202.5 83q-121 0 -204 -82.5t-83 -204.5zM471 956v328 q0 19 17 36t36 17h144q61 0 101 -38t40 -97q0 -50 -29 -86q18 -34 21 -86l4 -49q6 -10 6 -25q0 -20 -17.5 -36.5t-35.5 -16.5q-12 0 -27.5 10.5t-21.5 24.5q-11 25 -15 78q0 41 -8 43q-41 21 -41 59q0 16 13.5 36t29.5 24q11 4 12.5 6.5t1.5 12.5v5q0 16 -7 22.5t-27 6.5 h-90v-275q0 -19 -17.5 -36t-36.5 -17t-36 17t-17 36zM498 956q0 -10 8 -18t18 -8q11 0 19 8t8 18v301h117q27 0 44 -15.5t17 -39.5q0 -11 -1.5 -19t-3.5 -12.5t-6.5 -8.5t-6.5 -5t-8 -3t-7 -3q-9 -1 -16.5 -12.5t-7.5 -20.5q0 -25 24 -35q6 -3 10.5 -7t7 -8.5t4.5 -7.5 t2.5 -9.5t0.5 -9v-10v-9.5q0 -53 12 -74q6 -18 25 -18q9 0 17.5 8t8.5 18q0 9 -4 17q-3 7 -6 55q-3 65 -31 90q39 28 39 84q0 48 -31 78.5t-83 30.5h-144q-10 0 -18 -8t-8 -19v-328z" />
<glyph unicode="&#xaf;" horiz-adv-x="1105" d="M205 1645q0 43 29.5 73.5t72.5 30.5h492q43 0 72.5 -30.5t29.5 -73.5t-29.5 -73t-72.5 -30h-492q-43 0 -72.5 30t-29.5 73zM256 1645q0 -22 14.5 -37t36.5 -15h492q20 0 34.5 15t14.5 37t-14.5 36.5t-34.5 14.5h-492q-22 0 -36.5 -14.5t-14.5 -36.5z" />
<glyph unicode="&#xb0;" horiz-adv-x="933" d="M102 1126q0 151 107 258t258 107t257.5 -107t106.5 -258t-106.5 -257.5t-257.5 -106.5t-258 106t-107 258zM139 1126q0 -136 96.5 -231.5t231.5 -95.5t231.5 96t96.5 231t-96.5 231.5t-231.5 96.5t-231.5 -96.5t-96.5 -231.5zM225 1128q0 100 71.5 171t172.5 71 q100 0 171 -71t71 -171q0 -101 -71 -172t-171 -71q-101 0 -172.5 71t-71.5 172zM262 1128q0 -86 60.5 -146t146.5 -60q85 0 145 60t60 146q0 85 -60 145t-145 60q-86 0 -146.5 -60t-60.5 -145z" />
<glyph unicode="&#xb1;" horiz-adv-x="1228" d="M84 104q0 43 29.5 73t72.5 30h711q43 0 72.5 -30t29.5 -73t-29.5 -73.5t-72.5 -30.5h-711q-43 0 -72.5 30.5t-29.5 73.5zM84 752q0 43 29.5 72.5t72.5 29.5h252v252q0 42 31 73t72 31q43 0 73.5 -30.5t30.5 -73.5v-252h252q43 0 72.5 -29.5t29.5 -72.5t-30 -74t-72 -31 h-252v-241q0 -43 -30.5 -73t-73.5 -30q-42 0 -72.5 30.5t-30.5 72.5v241h-252q-42 0 -72 31t-30 74zM135 104q0 -22 14.5 -36.5t36.5 -14.5h711q22 0 36.5 14.5t14.5 36.5t-14.5 37t-36.5 15h-711q-22 0 -36.5 -15t-14.5 -37zM135 750q0 -21 15 -36.5t36 -15.5h306v-292 q0 -22 14.5 -37t36.5 -15q21 0 36 15t15 37v292h303q21 0 36 15.5t15 36.5q0 22 -14.5 36.5t-36.5 14.5h-303v305q-2 22 -16.5 36.5t-36.5 14.5q-21 0 -36.5 -15t-15.5 -36v-305h-303q-22 0 -36.5 -14.5t-14.5 -36.5z" />
<glyph unicode="&#xb2;" horiz-adv-x="714" d="M92 788q0 66 29 127q68 134 231 195q60 23 88.5 51t28.5 64q0 78 -86 78q-51 0 -78 -27q-21 -18 -24 -70q-1 -33 -27 -57.5t-59 -24.5q-36 0 -62.5 25.5t-26.5 60.5q0 112 76 191q79 76 201 76q110 0 184 -68q76 -73 76 -180q0 -62 -25 -113q-55 -115 -204 -170 q-77 -29 -111 -69h244q35 0 61.5 -27t26.5 -62t-26.5 -60.5t-61.5 -25.5h-367q-35 0 -61.5 25.5t-26.5 60.5zM137 788q1 -17 13.5 -27.5t29.5 -10.5h367q19 0 31 11t12 30q0 17 -12 28.5t-31 11.5h-316q32 109 166 160q135 51 181 146q20 43 20 92q0 89 -61 147 q-62 56 -154 56q-104 0 -168 -64q-60 -60 -63 -156q0 -17 12 -29t29 -12q17 -1 29 10t14 29q3 65 36 101q42 39 111 39q55 0 93 -32t38 -93q0 -101 -145 -156q-151 -57 -205 -172q-27 -55 -27 -109z" />
<glyph unicode="&#xb3;" horiz-adv-x="731" d="M72 938v10q0 34 25 59t59 25t60.5 -23.5t29.5 -56.5q3 -41 30 -65q39 -27 84 -27q105 0 105 80q0 29 -8.5 41.5t-34.5 19.5q-32 10 -53 38.5t-21 60.5q0 33 18.5 60.5t47.5 39.5q18 6 23 13.5t5 23.5q0 63 -82 63q-46 0 -68.5 -19t-25.5 -62q-3 -34 -29.5 -58t-60.5 -24 t-59 26t-25 60q0 109 84 186q72 66 184 66q113 0 183 -64q73 -70 73 -174q0 -76 -41 -127q64 -64 64 -170q0 -113 -80 -186q-81 -68 -199 -68q-112 0 -196 68q-83 70 -92 184zM117 942q10 -97 76 -154q69 -57 167 -57q102 0 168 57q66 60 66 152q0 117 -96 164q73 41 73 133 q0 87 -61 139q-54 51 -150 51q-99 0 -157 -55q-63 -60 -66 -147q0 -17 11 -29.5t28 -13.5q17 0 29.5 11t13.5 28q12 125 141 125q62 0 94.5 -32t32.5 -77q0 -60 -55 -80q-37 -16 -37 -57q0 -19 11 -34.5t28 -21.5q40 -12 58 -36.5t18 -67.5q0 -63 -44 -94t-106 -31 q-61 0 -106 31q-50 37 -53 102q-1 17 -14 28t-31 11q-16 -2 -27.5 -13t-11.5 -28v-4z" />
<glyph unicode="&#xb4;" horiz-adv-x="729" d="M207 1538q0 28 10 45l113 207q28 55 90 55q40 0 72 -30t32 -74q0 -25 -12 -49l-113 -207q-29 -53 -90 -53q-40 0 -71 30t-31 76zM258 1536q0 -23 16 -37t33 -14q31 0 47 26l113 205q6 12 6 25q0 23 -16 37t-35 14q-33 0 -45 -27l-113 -204q-6 -12 -6 -25z" />
<glyph unicode="&#xb6;" horiz-adv-x="1423" d="M102 977q0 204 123 336q145 151 404 151h508q43 0 72.5 -30.5t29.5 -73.5v-1567q0 -43 -29.5 -73.5t-72.5 -30.5t-74 30.5t-31 73.5v1464h-106v-1464q0 -43 -30 -73.5t-73 -30.5t-73.5 30.5t-30.5 73.5v686h-72q-256 0 -399 125q-146 131 -146 373zM154 977 q0 -220 129 -334q129 -111 364 -111h125v-739q0 -22 14.5 -37.5t36.5 -15.5t36.5 15t14.5 38v1518h211v-1518q0 -22 15 -37.5t37 -15.5t36.5 15t14.5 38v1567q0 22 -14.5 37.5t-36.5 15.5h-508q-236 0 -367 -137q-108 -117 -108 -299z" />
<glyph unicode="&#xb7;" horiz-adv-x="495" d="M102 674v45q0 47 34 81t81 34h45q47 0 82 -34t35 -81v-45q0 -47 -34.5 -80t-82.5 -33h-45q-47 0 -81 33t-34 80zM156 674q0 -26 17.5 -44t43.5 -18h45q26 0 45 18t19 44v45q0 26 -18.5 43.5t-45.5 17.5h-45q-26 0 -43.5 -17.5t-17.5 -43.5v-45z" />
<glyph unicode="&#xb8;" horiz-adv-x="907" d="M207 -459q9 42 44.5 65.5t76.5 14.5q109 -19 155 17q15 12 15 28q0 25 -42.5 38t-99.5 13q-55 0 -86 45q-29 46 -10 97l107 262q15 39 54 55.5t79 1.5q40 -17 56 -56t1 -79l-55 -139q101 -29 150.5 -95t49.5 -143q0 -116 -90 -188q-86 -70 -217 -70q-50 0 -108 12 q-41 7 -65 43.5t-15 77.5zM258 -471q-4 -20 7.5 -37t31.5 -20q57 -13 98 -13q116 0 185 60q71 53 71 147q0 78 -60 130t-163 67l80 200q7 20 -0.5 39t-26.5 27q-20 8 -40 0t-27 -27l-105 -264q-9 -24 4 -47q16 -22 43 -22q83 0 138 -26t55 -77q0 -43 -33 -69 q-65 -51 -199 -27q-20 5 -37.5 -7t-21.5 -34z" />
<glyph unicode="&#xb9;" horiz-adv-x="516" d="M92 1270q0 32 23 57.5t57 28.5q39 3 53 10q7 5 13 37q4 30 29.5 51t56.5 21h14q34 0 60 -27t26 -62v-604q0 -35 -26 -61.5t-60 -26.5q-35 0 -61.5 26.5t-26.5 61.5v410q-42 -10 -72 -10q-35 0 -60.5 26.5t-25.5 61.5zM137 1268q0 -17 12 -29t31 -12q75 6 117 45v-490 q0 -17 12 -29t29 -12t29 12t12 29v604q0 19 -12 31.5t-29 12.5h-14q-15 0 -26.5 -10t-14.5 -25q-6 -47 -31 -66q-21 -15 -76 -18q-17 -1 -28 -13.5t-11 -29.5z" />
<glyph unicode="&#xba;" horiz-adv-x="823" d="M72 1087q0 166 95 271.5t245 105.5t245 -105.5t95 -271.5q0 -167 -94.5 -272.5t-245.5 -105.5t-245.5 105.5t-94.5 272.5zM109 1087q0 -153 84.5 -248.5t220.5 -95.5q138 0 220.5 97t82.5 247q0 149 -83.5 246t-219.5 97q-137 0 -221 -97t-84 -246zM190 1087 q0 118 64 191q59 68 160 68q97 0 159 -68q62 -75 62 -191q0 -117 -62 -192q-65 -68 -159 -68q-98 0 -160 68q-64 73 -64 192zM225 1087q0 -107 54 -167q52 -58 133 -58t133 58q53 59 53 167q0 107 -53 166q-49 58 -133 58t-133 -58q-54 -60 -54 -166z" />
<glyph unicode="&#xbb;" horiz-adv-x="1130" d="M123 377q0 50 37 80l147 125l-147 125q-37 30 -37 79q0 42 29.5 72.5t74.5 30.5q38 0 66 -25l239 -205q37 -27 37 -77t-37 -80l-239 -203q-28 -25 -66 -25q-45 0 -74.5 30.5t-29.5 72.5zM174 379q0 -22 15 -37.5t38 -15.5q15 0 33 14l240 203q18 12 18 39q0 24 -18 39 l-242 204q-16 13 -33 13q-22 0 -36.5 -15t-14.5 -35q0 -24 19 -40l194 -166l-194 -166q-19 -13 -19 -37zM561 377q0 50 37 80l147 125l-147 125q-37 30 -37 79q0 42 30 72.5t75 30.5q37 0 65 -25l240 -205q37 -27 37 -77t-37 -80l-240 -203q-28 -25 -65 -25q-45 0 -75 30.5 t-30 72.5zM612 379q0 -22 15.5 -37.5t38.5 -15.5q14 0 32 14l240 203q18 12 18 39q0 24 -18 39l-242 204q-16 13 -32 13q-22 0 -37 -15t-15 -35q0 -24 19 -40l194 -166l-194 -166q-19 -13 -19 -37z" />
<glyph unicode="&#xbc;" horiz-adv-x="1531" d="M92 1270q0 32 23 57.5t57 28.5q39 3 53 10q7 5 13 37q4 30 29.5 51t56.5 21h14q34 0 60 -27t26 -62v-604q0 -35 -26 -61.5t-60 -26.5q-35 0 -61.5 26.5t-26.5 61.5v410q-42 -10 -72 -10q-35 0 -60.5 26.5t-25.5 61.5zM137 1268q0 -17 12 -29t31 -12q75 6 117 45v-490 q0 -17 12 -29t29 -12t29 12t12 29v604q0 19 -12 31.5t-29 12.5h-14q-15 0 -26.5 -10t-14.5 -25q-6 -47 -31 -66q-21 -15 -76 -18q-17 -1 -28 -13.5t-11 -29.5zM231 78q0 26 17 49l915 1343q26 37 72 37q33 0 59.5 -26t26.5 -62q0 -27 -14 -49l-918 -1343q-26 -37 -72 -37 q-33 0 -59.5 26t-26.5 62zM276 78q0 -19 12 -31t29 -12q23 0 35 18l918 1344q6 12 6 22q0 18 -13 30.5t-28 12.5q-23 0 -35 -18l-915 -1344q-9 -12 -9 -22zM856 225v33q0 27 16 51l291 406q26 37 72 37h22q36 0 62.5 -25.5t26.5 -60.5v-353h10q34 0 60 -26t26 -62 q0 -34 -26 -60t-60 -26h-10v-80q0 -35 -27 -61.5t-62 -26.5q-34 0 -60 26.5t-26 61.5v80h-227q-35 0 -61.5 26t-26.5 60zM903 227q0 -17 12 -29t29 -12h273v-127q0 -17 11.5 -29t28.5 -12q19 0 31 12t12 29v127h56q17 0 29 12t12 29t-12 29t-29 12h-56v398q0 17 -12 29 t-31 12h-22q-21 0 -35 -17l-291 -405q-6 -12 -6 -25v-33zM1004 268v6l213 297v-303h-213zM1090 313h81v115z" />
<glyph unicode="&#xbd;" horiz-adv-x="1617" d="M92 1270q0 32 23 57.5t57 28.5q39 3 53 10q7 5 13 37q4 30 29.5 51t56.5 21h14q34 0 60 -27t26 -62v-604q0 -35 -26 -61.5t-60 -26.5q-35 0 -61.5 26.5t-26.5 61.5v410q-42 -10 -72 -10q-35 0 -60.5 26.5t-25.5 61.5zM137 1268q0 -17 12 -29t31 -12q75 6 117 45v-490 q0 -17 12 -29t29 -12t29 12t12 29v604q0 19 -12 31.5t-29 12.5h-14q-15 0 -26.5 -10t-14.5 -25q-6 -47 -31 -66q-21 -15 -76 -18q-17 -1 -28 -13.5t-11 -29.5zM252 78q0 28 16 49l916 1343q26 37 71 37q33 0 59.5 -26t26.5 -62q0 -27 -14 -49l-917 -1343q-26 -37 -72 -37 q-33 0 -59.5 26t-26.5 62zM297 78q0 -19 12 -31t29 -12q23 0 35 18l917 1344q6 12 6 22q0 18 -13 30.5t-28 12.5q-22 0 -34 -18l-916 -1344q-8 -11 -8 -22zM975 76q0 66 29 127q68 133 231 194q60 23 88.5 51t28.5 64q0 78 -86 78q-51 0 -78 -27q-22 -19 -25 -69 q-1 -33 -27 -57.5t-59 -24.5q-35 0 -61.5 25.5t-26.5 60.5q0 111 76 190q79 76 201 76q110 0 184 -68q76 -73 76 -180q0 -62 -25 -113q-55 -115 -205 -170q-75 -29 -110 -69h244q35 0 61.5 -26.5t26.5 -61.5t-26.5 -60.5t-61.5 -25.5h-367q-35 0 -61.5 25.5t-26.5 60.5z M1020 76q1 -17 13.5 -28t29.5 -11h367q19 0 31 11t12 30q0 17 -12 29t-31 12h-316q32 109 166 160q134 50 180 145q21 45 21 92q0 89 -62 148q-61 55 -153 55q-104 0 -168 -64q-61 -61 -64 -155q0 -17 12 -29t29 -12q17 -1 29 10t14 29q3 63 37 100q42 39 111 39 q55 0 93 -32t38 -93q0 -17 -5.5 -34.5t-20 -39.5t-45.5 -43.5t-75 -38.5q-149 -56 -204 -172q-27 -55 -27 -108z" />
<glyph unicode="&#xbe;" horiz-adv-x="1607" d="M72 938v10q0 34 25 59t59 25t60.5 -23.5t29.5 -56.5q3 -41 30 -65q34 -27 84 -27q105 0 105 80q0 29 -8.5 41.5t-36.5 19.5q-31 11 -51.5 39t-20.5 60q0 33 18.5 60.5t47.5 39.5q17 6 22.5 13.5t5.5 23.5q0 63 -82 63q-46 0 -68.5 -19t-25.5 -62q-3 -34 -29.5 -58 t-60.5 -24t-59 26t-25 60q0 107 82 186q72 66 186 66q111 0 181 -64q75 -69 75 -174q0 -70 -41 -127q64 -67 64 -170q0 -114 -82 -186q-81 -68 -197 -68q-115 0 -196 68q-83 70 -92 184zM117 942q10 -97 76 -154q69 -57 167 -57q102 0 168 57q66 60 66 152q0 117 -96 164 q73 41 73 133q0 87 -61 139q-54 51 -150 51q-99 0 -157 -55q-63 -60 -66 -147q0 -17 11 -29.5t28 -13.5q17 0 29.5 11t13.5 28q12 125 141 125q62 0 94.5 -32t32.5 -77q0 -60 -55 -80q-37 -16 -37 -57q0 -19 11 -34.5t28 -21.5q40 -12 58 -36.5t18 -67.5q0 -63 -44 -94 t-106 -31q-61 0 -106 31q-50 37 -53 102q-1 17 -14 28t-31 11q-16 -2 -27.5 -13t-11.5 -28v-4zM336 78q0 28 16 49l916 1343q26 37 71 37q33 0 59.5 -26t26.5 -62q0 -27 -14 -49l-917 -1343q-26 -37 -72 -37q-33 0 -59.5 26t-26.5 62zM381 78q0 -19 12 -31t29 -12 q23 0 35 18l917 1344q6 12 6 22q0 18 -13 30.5t-28 12.5q-22 0 -34 -18l-916 -1344q-8 -11 -8 -22zM952 225v33q0 28 15 51l290 406q27 39 74 39l23 -2q35 0 61.5 -25.5t26.5 -60.5v-353h10q34 0 60 -26t26 -62q0 -34 -26 -60t-60 -26h-10v-80q0 -35 -26.5 -61.5 t-61.5 -26.5t-60.5 26.5t-25.5 61.5v80h-228q-36 0 -62 26t-26 60zM997 227q0 -17 12 -29t31 -12h273v-127q0 -17 12 -29t29 -12t29 12t12 29v127h55q17 0 29 12t12 29t-12 29t-29 12h-55v398q0 17 -12 29t-29 12h-23q-21 0 -35 -17l-290 -405q-9 -18 -9 -25v-33zM1100 268 v6l213 297v-303h-213zM1184 313h84v115z" />
<glyph unicode="&#xbf;" horiz-adv-x="1179" d="M123 18q0 61 14 115t32 90t51 74.5t54.5 58t59.5 50.5l6 6q93 75 119.5 121.5t29.5 144.5q2 41 32 70.5t73 29.5q44 0 74 -32.5t28 -73.5q-2 -81 -17 -142t-47.5 -110.5t-66 -83.5t-92.5 -82l-6 -6q-41 -34 -59.5 -51.5t-40 -46t-29.5 -59.5t-8 -73q0 -94 63.5 -147 t173.5 -53q65 0 116 17.5t80.5 43.5t49.5 62t28 66.5t11 62.5q3 43 35.5 70t75.5 24q39 -4 65 -31.5t29 -66.5v-15q-6 -66 -26 -127.5t-59 -119t-94 -100t-135 -68t-176 -25.5q-196 0 -320 113.5t-124 293.5zM176 18q0 -160 110.5 -258t280.5 -98q196 0 308 108t131 275v16 q-1 20 -15.5 34.5t-34.5 17.5q-21 0 -36.5 -13.5t-16.5 -33.5q-13 -135 -96 -218.5t-240 -83.5q-130 0 -209 69t-79 185q0 40 8.5 75t19.5 58t35.5 50t40.5 42t51 44l6 6q57 47 88.5 79.5t60.5 77t41.5 98t14.5 126.5q0 21 -14 36t-37 15q-22 0 -36.5 -13.5t-14.5 -35.5 q-4 -112 -36.5 -167.5t-131.5 -137.5l-6 -6q-36 -30 -56 -48t-50.5 -52.5t-46 -66.5t-28 -79t-12.5 -101zM459 961v45q0 47 33.5 79.5t80.5 32.5h45q48 0 81.5 -32.5t33.5 -79.5v-45q0 -47 -34 -80t-81 -33h-45q-47 0 -80.5 33t-33.5 80zM510 961q0 -26 18.5 -44t44.5 -18 h45q26 0 45 18t19 44v45q0 26 -18.5 43.5t-45.5 17.5h-45q-26 0 -44.5 -17.5t-18.5 -43.5v-45z" />
<glyph unicode="&#xc0;" horiz-adv-x="1388" d="M61 84q0 16 7 37l481 1276q15 48 63 61q-10 10 -20 27l-113 207q-12 21 -12 47q0 45 32.5 74.5t71.5 29.5q64 0 91 -53l112 -207q12 -21 12 -47q0 -44 -30 -74q57 -7 80 -63l483 -1278q8 -19 8 -43q-1 -40 -34.5 -67t-71.5 -27q-31 0 -57 17t-38 46l-139 369h-588 l-139 -369q-11 -32 -37.5 -47.5t-58.5 -15.5q-43 0 -73 26.5t-30 73.5zM113 86q0 -22 15 -35.5t36 -13.5q37 0 49 31l152 401h659l152 -401q14 -31 47 -31q19 0 35 12.5t16 34.5q0 12 -2 20l-486 1276q-15 33 -47 33h-94q-15 0 -29 -10t-18 -25l-481 -1274q-4 -12 -4 -18z M401 571l281 742h20l283 -742h-584zM477 621h432l-219 573zM518 1741q0 -13 6 -25l113 -205q16 -26 47 -26q17 0 33 14t16 37q0 13 -6 25l-113 204q-12 27 -45 27q-19 0 -35 -14t-16 -37z" />
<glyph unicode="&#xc1;" horiz-adv-x="1388" d="M61 84q0 16 7 37l481 1276q9 26 30 43t48 22q-31 31 -31 76q0 24 12 45l113 207q28 55 90 55q39 0 71.5 -30t32.5 -74q0 -25 -12 -49l-112 -207q-9 -15 -21 -27q47 -13 66 -59l483 -1278q8 -19 8 -43q-1 -40 -34.5 -67t-71.5 -27q-31 0 -57 17t-38 46l-139 369h-588 l-139 -369q-11 -32 -37.5 -47.5t-58.5 -15.5q-43 0 -73 26.5t-30 73.5zM113 86q0 -22 15 -35.5t36 -13.5q37 0 49 31l152 401h659l152 -401q14 -31 47 -31q19 0 35 12.5t16 34.5q0 12 -2 20l-486 1276q-15 33 -47 33h-94q-15 0 -29 -10t-18 -25l-481 -1274q-4 -12 -4 -18z M401 571l281 742h20l283 -742h-584zM477 621h432l-219 573zM649 1536q0 -23 16 -37t33 -14q31 0 47 26l113 205q6 12 6 25q0 23 -16 37t-35 14q-33 0 -45 -27l-113 -204q-6 -12 -6 -25z" />
<glyph unicode="&#xc2;" horiz-adv-x="1388" d="M61 84q0 16 7 37l481 1276q10 30 36.5 48.5t59.5 18.5h94q31 0 58 -18t39 -47l483 -1278q8 -19 8 -43q-1 -40 -34.5 -67t-71.5 -27q-31 0 -57 17t-38 46l-139 369h-588l-139 -369q-11 -32 -37.5 -47.5t-58.5 -15.5q-43 0 -73 26.5t-30 73.5zM113 86q0 -22 15 -35.5 t36 -13.5q37 0 49 31l152 401h659l152 -401q14 -31 47 -31q19 0 35 12.5t16 34.5q0 12 -2 20l-486 1276q-15 33 -47 33h-94q-15 0 -29 -10t-18 -25l-481 -1274q-4 -12 -4 -18zM401 571l281 742h20l283 -742h-584zM422 1585q0 45 31 76l170 162q28 28 71 28q42 0 70 -28 l170 -162q31 -31 31 -76q0 -44 -31 -73t-72 -29q-43 0 -71 28l-99 95l-96 -95q-28 -28 -72 -28q-45 0 -73.5 31.5t-28.5 70.5zM473 1587q0 -22 14.5 -36.5t36.5 -14.5q21 0 35 14l133 129l133 -129q14 -14 37 -14q20 0 34.5 14.5t14.5 36.5q0 23 -14 37l-170 162 q-11 14 -35 14q-21 0 -35 -14l-168 -162q-16 -16 -16 -37zM477 621h432l-219 573z" />
<glyph unicode="&#xc3;" horiz-adv-x="1388" d="M61 84q0 16 7 37l481 1276q10 30 36.5 48.5t59.5 18.5h94q31 0 58 -18t39 -47l483 -1278q8 -19 8 -43q-1 -40 -34.5 -67t-71.5 -27q-31 0 -57 17t-38 46l-139 369h-588l-139 -369q-11 -32 -37.5 -47.5t-58.5 -15.5q-43 0 -73 26.5t-30 73.5zM113 86q0 -22 15 -35.5 t36 -13.5q37 0 49 31l152 401h659l152 -401q14 -31 47 -31q19 0 35 12.5t16 34.5q0 12 -2 20l-486 1276q-15 33 -47 33h-94q-15 0 -29 -10t-18 -25l-481 -1274q-4 -12 -4 -18zM342 1585q0 15 2 23q19 89 85 143.5t153 54.5q95 0 161 -63q2 -2 16.5 -19t26 -26.5t19.5 -9.5 q14 0 24 11t13 25q7 35 36 58.5t64 23.5q44 0 74.5 -31t30.5 -71q0 -11 -3 -23q-20 -88 -86.5 -143t-152.5 -55q-107 0 -180 82q-1 1 -5.5 7.5t-9 12.5t-12.5 11.5t-16 5.5q-14 0 -23.5 -11.5t-13.5 -25.5q-7 -36 -36.5 -59t-66.5 -23q-42 0 -71 30.5t-29 71.5zM393 1585 q0 -19 15 -35t36 -16q17 0 31 12t19 29q8 34 32 56t56 22q43 0 75 -45q62 -74 148 -74q67 0 119 43.5t69 112.5q2 6 2 14q-2 21 -16 35t-35 14q-17 0 -32 -11t-19 -28q-6 -34 -31 -56t-57 -22q-41 0 -82 52q-56 67 -141 67q-66 0 -118 -42t-69 -111l-1 -7q-1 -7 -1 -10z M401 571l281 742h20l283 -742h-584zM477 621h432l-219 573z" />
<glyph unicode="&#xc4;" horiz-adv-x="1388" d="M61 84q0 16 7 37l481 1276l6 12q-20 -4 -29 -4q-43 0 -73.5 30.5t-30.5 71.5v92q0 43 30.5 73t73.5 30q42 0 72.5 -30.5t30.5 -72.5v-92q0 -24 -13 -47q20 4 29 4h94q11 0 27 -4q-12 21 -12 47v92q0 43 30.5 73t73.5 30q42 0 72.5 -30.5t30.5 -72.5v-92q0 -41 -31 -71.5 t-72 -30.5q-11 0 -27 4l5 -10l483 -1278q8 -19 8 -43q-1 -40 -34.5 -67t-71.5 -27q-31 0 -57 17t-38 46l-139 369h-588l-139 -369q-11 -32 -37.5 -47.5t-58.5 -15.5q-43 0 -73 26.5t-30 73.5zM113 86q0 -22 15 -35.5t36 -13.5q37 0 49 31l152 401h659l152 -401 q14 -31 47 -31q19 0 35 12.5t16 34.5q0 12 -2 20l-486 1276q-15 33 -47 33h-94q-15 0 -29 -10t-18 -25l-481 -1274q-4 -12 -4 -18zM401 571l281 742h20l283 -742h-584zM473 1507q0 -20 15.5 -35.5t37.5 -15.5q20 0 36 15.5t16 35.5v92q0 20 -16 35t-36 15q-22 0 -37.5 -15 t-15.5 -35v-92zM477 621h432l-219 573zM805 1507q0 -20 15.5 -35.5t37.5 -15.5q20 0 35.5 15.5t15.5 35.5v92q0 20 -15.5 35t-35.5 15q-22 0 -37.5 -15t-15.5 -35v-92z" />
<glyph unicode="&#xc5;" horiz-adv-x="1388" d="M61 84q0 16 7 37l481 1276q1 3 4 9t4 9q-44 33 -69 82t-25 105q0 95 68 162t163 67q96 0 164 -67t68 -162q0 -57 -26.5 -107t-70.5 -82l7 -14l483 -1278q8 -19 8 -43q-1 -40 -34.5 -67t-71.5 -27q-31 0 -57 17t-38 46l-139 369h-588l-139 -369q-11 -32 -37.5 -47.5 t-58.5 -15.5q-43 0 -73 26.5t-30 73.5zM113 86q0 -22 15 -35.5t36 -13.5q37 0 49 31l152 401h659l152 -401q14 -31 47 -31q19 0 35 12.5t16 34.5q0 12 -2 20l-486 1276q-15 33 -47 33h-28q72 6 122 61t50 128q0 77 -55.5 132.5t-133.5 55.5t-134 -55.5t-56 -132.5 q0 -73 51 -128t123 -61h-33q-15 0 -28.5 -9.5t-18.5 -23.5l-481 -1276q-4 -12 -4 -18zM401 571l281 742h20l283 -742h-584zM477 621h432l-219 573zM573 1604q0 51 36 86.5t87 35.5t87 -35.5t36 -86.5t-36 -87t-87 -36t-87 36t-36 87zM612 1604q0 -36 23 -59t59 -23t59 23 t23 59q0 35 -23.5 58.5t-58.5 23.5t-58.5 -23.5t-23.5 -58.5z" />
<glyph unicode="&#xc6;" horiz-adv-x="2097" d="M61 88q0 18 7 35l481 1276q10 29 37 47t59 18h1247q42 0 72.5 -30t30.5 -72q0 -43 -30 -74t-73 -31h-731v-378h666q43 0 73.5 -31t30.5 -74t-30.5 -72.5t-73.5 -29.5h-666v-465h752q42 0 72 -31t30 -74t-29.5 -72.5t-72.5 -29.5h-854q-43 0 -73 29.5t-30 72.5v316h-557 l-139 -367q-10 -30 -36.5 -48.5t-59.5 -18.5q-41 0 -72 28t-31 76zM113 86q0 -21 14 -36t37 -15q15 0 28.5 9.5t18.5 23.5l151 401h648v-365q0 -22 13.5 -36.5t35.5 -14.5h854q22 0 36.5 14.5t14.5 36.5q0 21 -15 36.5t-36 15.5h-803v567h717q22 0 37.5 14.5t15.5 36.5 t-15.5 36.5t-37.5 14.5h-717v486h782q22 0 37 14.5t15 36.5q0 20 -15 35.5t-37 15.5h-1247q-36 0 -47 -33l-483 -1276q-2 -6 -2 -18zM401 571l279 740h328v-740h-607zM477 625h479v635h-239z" />
<glyph unicode="&#xc7;" horiz-adv-x="1458" d="M102 729q0 219 79 390.5t233 271.5t360 100q214 0 365.5 -107.5t203.5 -304.5q5 -20 5 -26q0 -41 -30 -72t-73 -31q-36 0 -64.5 21.5t-37.5 56.5q-32 128 -128 192t-241 64q-148 0 -254 -71.5t-158.5 -195.5t-52.5 -288q0 -161 52 -284.5t157.5 -195t251.5 -71.5 q174 0 276 92.5t123 255.5q4 39 34 65.5t69 26.5q41 0 70.5 -29.5t31.5 -70.5v-16q-27 -219 -162 -360t-354 -167l-31 -79q102 -29 151.5 -95t49.5 -143q0 -116 -90 -188q-86 -70 -217 -70q-50 0 -109 12q-41 7 -65 43.5t-15 77.5q9 42 44.5 65.5t76.5 14.5q111 -19 156 16 q14 11 14 29q0 25 -42.5 38t-98.5 13q-55 0 -86 45q-28 46 -10 96l53 134q-114 21 -210.5 79t-170 150t-115 224.5t-41.5 291.5zM154 731q0 -303 153 -493.5t408 -210.5l-80 -199q-9 -24 4 -47q16 -23 43 -23q83 0 137.5 -25.5t54.5 -76.5q0 -45 -32 -70q-63 -54 -199 -26 q-21 3 -38 -8.5t-21 -32.5q-4 -20 7.5 -37.5t31.5 -22.5q44 -10 98 -10q118 0 184 57q72 57 72 150q0 78 -60 130t-163 67l69 174q214 17 343.5 147t154.5 336v8q0 18 -14 33.5t-35 15.5q-20 0 -35 -13t-18 -32q-21 -182 -138.5 -288.5t-312.5 -106.5q-162 0 -279.5 80.5 t-175 215.5t-57.5 308q0 177 59 313t177.5 214.5t281.5 78.5q160 0 271 -76t147 -219q12 -38 51 -38q23 0 37 15t14 36q0 3 -1 8t-1 8q-50 179 -187.5 274t-330.5 95q-192 0 -334 -92.5t-214 -252t-72 -364.5z" />
<glyph unicode="&#xc8;" horiz-adv-x="1325" d="M184 102v1260q0 42 30 72t73 30h358q-7 7 -14 21l-113 207q-12 21 -12 47q0 45 32 74.5t72 29.5q63 0 90 -53l113 -207q10 -18 10 -47q0 -44 -28 -72h325q42 0 72.5 -30t30.5 -72q0 -43 -30 -74t-73 -31h-731v-378h666q43 0 73.5 -31t30.5 -74t-30.5 -72.5t-73.5 -29.5 h-666v-465h752q42 0 72 -31t30 -74t-29.5 -72.5t-72.5 -29.5h-854q-43 0 -73 29.5t-30 72.5zM236 104q0 -22 14.5 -36.5t36.5 -14.5h852q22 0 36.5 14.5t14.5 36.5q0 21 -15 36.5t-36 15.5h-803v567h719q22 0 36.5 14.5t14.5 36.5t-14.5 36.5t-36.5 14.5h-719v486h782 q22 0 36.5 14.5t14.5 36.5q0 21 -15 36t-36 15h-831q-21 0 -36 -15t-15 -36v-1258zM557 1741q0 -13 6 -25l113 -205q16 -26 45 -26q19 0 35 14t16 37q0 13 -6 25l-113 204q-12 27 -45 27q-19 0 -35 -14t-16 -37z" />
<glyph unicode="&#xc9;" horiz-adv-x="1325" d="M184 102v1260q0 42 30 72t73 30h338q-29 29 -29 74q0 28 10 45l113 207q28 55 90 55q40 0 72 -30t32 -74q0 -25 -12 -49l-113 -207q-7 -14 -14 -21h346q42 0 72.5 -30t30.5 -72q0 -43 -30 -74t-73 -31h-731v-378h666q43 0 73.5 -31t30.5 -74t-30.5 -72.5t-73.5 -29.5 h-666v-465h752q42 0 72 -31t30 -74t-29.5 -72.5t-72.5 -29.5h-854q-43 0 -73 29.5t-30 72.5zM236 104q0 -22 14.5 -36.5t36.5 -14.5h852q22 0 36.5 14.5t14.5 36.5q0 21 -15 36.5t-36 15.5h-803v567h719q22 0 36.5 14.5t14.5 36.5t-14.5 36.5t-36.5 14.5h-719v486h782 q22 0 36.5 14.5t14.5 36.5q0 21 -15 36t-36 15h-831q-21 0 -36 -15t-15 -36v-1258zM647 1536q0 -23 16 -37t33 -14q31 0 47 26l113 205q6 12 6 25q0 23 -16 37t-35 14q-33 0 -45 -27l-113 -204q-6 -12 -6 -25z" />
<glyph unicode="&#xca;" horiz-adv-x="1325" d="M184 102v1260q0 42 30 72t73 30h833q42 0 72.5 -30t30.5 -72q0 -43 -30 -74t-73 -31h-731v-378h666q43 0 73.5 -31t30.5 -74t-30.5 -72.5t-73.5 -29.5h-666v-465h752q42 0 72 -31t30 -74t-29.5 -72.5t-72.5 -29.5h-854q-43 0 -73 29.5t-30 72.5zM236 104 q0 -22 14.5 -36.5t36.5 -14.5h852q22 0 36.5 14.5t14.5 36.5q0 21 -15 36.5t-36 15.5h-801v567h717q22 0 36.5 14.5t14.5 36.5t-14.5 36.5t-36.5 14.5h-717v486h780q22 0 36.5 14.5t14.5 36.5q0 21 -15 36t-36 15h-831q-21 0 -36 -15t-15 -36v-1258zM442 1647q0 44 31 75 l170 162q29 29 72 29q40 0 69 -29l170 -162q31 -31 31 -75t-30.5 -73.5t-71.5 -29.5q-43 0 -72 29l-98 94l-97 -94q-29 -29 -71 -29q-45 0 -74 32t-29 71zM494 1649q0 -22 14.5 -37t36.5 -15q20 0 35 15l133 129l133 -129q15 -15 37 -15q20 0 34.5 15t14.5 37q0 23 -14 37 l-170 161q-12 15 -35 15q-20 0 -35 -15l-168 -161q-16 -16 -16 -37z" />
<glyph unicode="&#xcb;" horiz-adv-x="1325" d="M184 102v1260q0 42 30 72t73 30h164q-15 26 -15 52v92q0 42 31 72t74 30q42 0 72 -30t30 -72v-92q0 -28 -14 -52h153q-14 24 -14 52v92q0 43 30.5 72.5t73.5 29.5q42 0 72.5 -30t30.5 -72v-92q0 -28 -14 -52h159q42 0 72.5 -30t30.5 -72q0 -43 -30 -74t-73 -31h-731v-378 h666q43 0 73.5 -31t30.5 -74t-30.5 -72.5t-73.5 -29.5h-666v-465h752q42 0 72 -31t30 -74t-29.5 -72.5t-72.5 -29.5h-854q-43 0 -73 29.5t-30 72.5zM236 104q0 -22 14.5 -36.5t36.5 -14.5h852q22 0 36.5 14.5t14.5 36.5q0 21 -15 36.5t-36 15.5h-803v567h719q22 0 36.5 14.5 t14.5 36.5t-14.5 36.5t-36.5 14.5h-719v486h782q22 0 36.5 14.5t14.5 36.5q0 21 -15 36t-36 15h-831q-21 0 -36 -15t-15 -36v-1258zM487 1516q0 -20 16 -35t38 -15q20 0 35.5 15t15.5 35v92q0 20 -15.5 35.5t-35.5 15.5q-22 0 -38 -15.5t-16 -35.5v-92zM819 1516 q0 -20 15.5 -35t37.5 -15q20 0 36 15t16 35v92q0 20 -16 35.5t-36 15.5q-22 0 -37.5 -15.5t-15.5 -35.5v-92z" />
<glyph unicode="&#xcc;" horiz-adv-x="575" d="M61 1741q0 44 33 74t72 30q62 0 90 -55l113 -207q12 -21 12 -45q0 -43 -33 -76q43 -29 43 -84v-1292q0 -43 -30.5 -72.5t-73.5 -29.5q-42 0 -72.5 30t-30.5 72v1292q0 43 31 74q-13 8 -29 33l-112 207q-13 26 -13 49zM113 1741q0 -13 6 -25l112 -205q16 -26 48 -26 q17 0 33 14t16 37q0 13 -6 25l-113 204q-12 27 -45 27q-19 0 -35 -14t-16 -37zM236 86q0 -21 15 -36t36 -15q22 0 37.5 14.5t15.5 36.5v1292q0 22 -15.5 38t-37.5 16q-20 0 -35.5 -16t-15.5 -38v-1292z" />
<glyph unicode="&#xcd;" horiz-adv-x="575" d="M184 86v1292q0 51 39 82q-30 30 -30 78q0 28 10 45l112 207q13 26 38 40.5t53 14.5q40 0 72 -30t32 -74q0 -25 -12 -49l-113 -207q-8 -16 -27 -31q33 -30 33 -76v-1292q0 -43 -30.5 -72.5t-73.5 -29.5q-42 0 -72.5 30t-30.5 72zM238 86q0 -22 14.5 -36.5t34.5 -14.5 q22 0 37.5 14.5t15.5 36.5v1292q0 22 -15.5 37t-37.5 15q-20 0 -34.5 -15t-14.5 -37v-1292zM244 1536q0 -23 16 -37t35 -14q29 0 45 26l113 205q6 12 6 25q0 23 -16 37t-35 14q-34 0 -46 -27l-112 -204q-6 -12 -6 -25z" />
<glyph unicode="&#xce;" horiz-adv-x="575" d="M20 1585q0 45 31 76l170 162q28 28 72 28q41 0 69 -28l170 -162q31 -31 31 -76q0 -44 -30.5 -73t-71.5 -29q-44 0 -72 28l-98 95l-96 -95q-28 -28 -72 -28q-45 0 -74 31.5t-29 70.5zM72 1587q0 -22 14.5 -36.5t36.5 -14.5q21 0 35 14l133 129l133 -129q14 -14 37 -14 q20 0 34.5 14.5t14.5 36.5q0 23 -14 37l-170 162q-11 14 -35 14q-21 0 -35 -14l-168 -162q-16 -16 -16 -37zM184 86v1292q0 43 31 74t72 31q43 0 73.5 -31t30.5 -74v-1292q0 -43 -30.5 -72.5t-73.5 -29.5q-42 0 -72.5 30t-30.5 72zM236 86q0 -21 15 -36t36 -15 q22 0 37.5 14.5t15.5 36.5v1292q0 22 -15.5 38t-37.5 16q-20 0 -35.5 -16t-15.5 -38v-1292z" />
<glyph unicode="&#xcf;" horiz-adv-x="575" d="M18 1585v92q0 43 31 73t74 30q41 0 71.5 -30t30.5 -73v-92q0 -41 -30.5 -71.5t-71.5 -30.5q-43 0 -74 30.5t-31 71.5zM70 1585q0 -20 15.5 -34.5t37.5 -14.5q20 0 35.5 14.5t15.5 34.5v92q0 20 -15.5 36t-35.5 16q-21 0 -37 -15.5t-16 -36.5v-92zM184 86v1292q0 43 31 74 t72 31q43 0 73.5 -31t30.5 -74v-1292q0 -43 -30.5 -72.5t-73.5 -29.5q-42 0 -72.5 30t-30.5 72zM236 86q0 -21 15 -36t36 -15q22 0 37.5 14.5t15.5 36.5v1292q0 22 -15.5 38t-37.5 16q-20 0 -35.5 -16t-15.5 -38v-1292zM350 1585v92q0 43 31 73t74 30q41 0 71.5 -30 t30.5 -73v-92q0 -41 -30.5 -71.5t-71.5 -30.5q-43 0 -74 30.5t-31 71.5zM401 1585q0 -20 16 -34.5t38 -14.5q20 0 35.5 14.5t15.5 34.5v92q0 20 -15.5 36t-35.5 16q-22 0 -38 -16t-16 -36v-92z" />
<glyph unicode="&#xd0;" horiz-adv-x="1464" d="M61 817q0 43 30 74t73 31h20v440q0 42 30 72t73 30h438q303 0 470 -193t167 -544q0 -347 -170 -537t-481 -190h-424q-43 0 -73 29.5t-30 72.5v613h-20q-43 0 -73 29.5t-30 72.5zM113 817q0 -22 14.5 -36.5t36.5 -14.5h74v-664q0 -22 13.5 -35.5t35.5 -13.5h424 q150 0 265 48.5t187.5 138.5t109 212.5t36.5 274.5q0 320 -149.5 503t-434.5 183h-438q-21 0 -35 -15t-14 -36v-494h-74q-22 0 -36.5 -14.5t-14.5 -36.5zM340 156v612h315q22 0 37 14.5t15 36.5q0 21 -15.5 36t-36.5 15h-315v441h385q244 0 362.5 -154t118.5 -430 q0 -273 -123 -422t-372 -149h-371zM391 207h320q444 0 444 520q0 530 -430 530h-334v-335h264q43 0 73 -31t30 -74t-30 -72.5t-73 -29.5h-264v-508z" />
<glyph unicode="&#xd1;" horiz-adv-x="1507" d="M184 86v1276q0 42 30 72t73 30h84q56 0 88 -49l655 -1073h2v1036q0 43 30 74t73 31t73.5 -31t30.5 -74v-1276q0 -43 -30.5 -72.5t-73.5 -29.5h-76q-60 0 -88 49l-662 1081h-2v-1044q0 -43 -30.5 -72.5t-73.5 -29.5t-73 29.5t-30 72.5zM236 86q0 -21 15 -36t36 -15t36 15 t15 36v1178h33l729 -1188q14 -22 43 -25h76q23 0 37 14.5t14 36.5v1276q0 22 -14.5 37t-36.5 15t-37 -15t-15 -37v-1175h-28l-725 1183q-14 25 -43 25h-84q-22 0 -36.5 -13.5t-14.5 -35.5v-1276zM401 1585q0 15 2 23q19 89 85 143.5t153 54.5q96 0 162 -63q3 -3 17 -19.5 t25 -26t19 -9.5q14 0 24 11t13 25q7 35 36 58.5t64 23.5q43 0 74 -31t31 -71q0 -15 -2 -23q-20 -88 -87 -143t-153 -55q-107 0 -180 82q-1 1 -5.5 7.5t-9 12.5t-12.5 11.5t-16 5.5q-14 0 -23.5 -11.5t-13.5 -25.5q-7 -36 -36 -59t-66 -23q-42 0 -71.5 30.5t-29.5 71.5z M453 1585q0 -19 15 -35t36 -16q17 0 30.5 11.5t18.5 29.5q8 34 32 56t56 22q44 0 76 -45q62 -74 147 -74q67 0 119.5 43.5t69.5 112.5q2 6 2 14q-2 21 -16 35t-35 14q-18 0 -33 -11t-19 -28q-6 -34 -31 -56t-57 -22q-41 0 -82 52q-56 67 -141 67q-66 0 -117.5 -42 t-68.5 -111l-1 -7q-1 -7 -1 -10z" />
<glyph unicode="&#xd2;" horiz-adv-x="1579" d="M102 731q0 200 75 364t209 265.5t306 124.5l-112 207q-13 26 -13 49q0 44 33 74t72 30q62 0 90 -55l112 -207q11 -19 11 -47q0 -26 -13 -49q176 -21 313.5 -123t214.5 -267t77 -366q0 -217 -89 -391t-247 -271.5t-355 -97.5q-146 0 -273 57.5t-217.5 157.5t-142 241 t-51.5 304zM154 731q0 -154 47.5 -286t131 -224.5t201 -144.5t252.5 -51q137 0 255.5 51.5t203 143.5t132.5 224t48 287q0 303 -171 499t-437 208q-15 -6 -33 -6t-36 6q-171 -10 -306 -101.5t-211.5 -250t-76.5 -355.5zM258 731q0 267 146.5 436t381.5 168q239 0 388 -168.5 t149 -435.5q0 -270 -149 -438t-388 -168q-235 0 -381.5 169.5t-146.5 436.5zM309 731q0 -249 131.5 -401t345.5 -152q217 0 350.5 152t133.5 401q0 248 -133.5 400.5t-350.5 152.5q-214 0 -345.5 -152.5t-131.5 -400.5zM618 1741q0 -11 7 -25l112 -205q9 -14 23 -20h26h21 q27 15 27 45q0 11 -7 25l-112 204q-12 27 -45 27q-19 0 -35.5 -14t-16.5 -37z" />
<glyph unicode="&#xd3;" horiz-adv-x="1579" d="M102 731q0 299 162 507t420 245q-14 22 -14 55q0 28 10 45l113 207q28 55 90 55q40 0 72 -30t32 -74q0 -25 -12 -49l-111 -205q178 -19 317 -120t217.5 -267t78.5 -369q0 -217 -89 -391t-247 -271.5t-355 -97.5q-146 0 -273 57.5t-217.5 157.5t-142 241t-51.5 304z M154 731q0 -205 81.5 -366.5t225.5 -250.5t325 -89q137 0 255 51.5t202 143.5t132 224t48 287q0 152 -46 282.5t-127 222t-195 145t-246 57.5q-18 -6 -37 -6q-18 0 -33 6q-257 -19 -421 -214.5t-164 -492.5zM258 731q0 267 146.5 436.5t381.5 169.5q238 0 386.5 -169 t148.5 -437q0 -270 -148 -437t-387 -167q-235 0 -381.5 168.5t-146.5 435.5zM309 731q0 -249 131.5 -401t345.5 -152q217 0 350.5 152t133.5 401q0 248 -133.5 400.5t-350.5 152.5q-214 0 -345.5 -152.5t-131.5 -400.5zM721 1536q0 -33 29 -45h36h11q8 4 20 20l113 205 q6 12 6 25q0 23 -16 37t-35 14q-33 0 -45 -27l-113 -204q-6 -12 -6 -25z" />
<glyph unicode="&#xd4;" horiz-adv-x="1579" d="M102 731q0 163 51.5 304t142 241t217.5 157.5t273 57.5q197 0 355 -97.5t247 -271.5t89 -391t-89 -391t-247 -271.5t-355 -97.5q-146 0 -273 57.5t-217.5 157.5t-142 241t-51.5 304zM156 731q0 -205 81 -366.5t224.5 -250.5t324.5 -89q137 0 255.5 51.5t203 143.5 t132.5 224t48 287q0 207 -82.5 369t-228 251t-328.5 89q-181 0 -324.5 -90t-224.5 -252t-81 -367zM258 731q0 267 146.5 436t381.5 168q239 0 388 -168.5t149 -435.5q0 -270 -149 -438t-388 -168q-235 0 -381.5 169.5t-146.5 436.5zM309 731q0 -249 131.5 -401t345.5 -152 q217 0 350.5 152t133.5 401q0 248 -133.5 400.5t-350.5 152.5q-214 0 -345.5 -152.5t-131.5 -400.5zM510 1618q0 45 31 76l170 161q29 29 71 29q41 0 70 -29l170 -161q31 -31 31 -76q0 -44 -31 -73t-72 -29q-43 0 -71 28l-99 94l-96 -94q-28 -28 -72 -28q-45 0 -73.5 31.5 t-28.5 70.5zM561 1620q0 -22 14.5 -36.5t36.5 -14.5q21 0 35 14l133 129l133 -129q14 -14 37 -14q20 0 34.5 14.5t14.5 36.5q0 23 -14 37l-170 162q-11 14 -35 14q-21 0 -35 -14l-167 -162q-17 -17 -17 -37z" />
<glyph unicode="&#xd5;" horiz-adv-x="1579" d="M102 731q0 163 51.5 304t142 241t217.5 157.5t273 57.5q197 0 355 -97.5t247 -271.5t89 -391t-89 -391t-247 -271.5t-355 -97.5q-146 0 -273 57.5t-217.5 157.5t-142 241t-51.5 304zM154 731q0 -154 47.5 -286t131 -224.5t201 -145t252.5 -52.5q278 0 457.5 197.5 t179.5 510.5t-179.5 510t-457.5 197q-181 0 -325 -89.5t-225.5 -251t-81.5 -366.5zM258 731q0 267 146.5 435.5t381.5 168.5q157 0 279 -76.5t189 -214t67 -313.5q0 -270 -148 -438t-387 -168q-235 0 -381.5 169.5t-146.5 436.5zM309 731q0 -249 131.5 -401t345.5 -152 q217 0 350.5 152t133.5 401q0 248 -133.5 400.5t-350.5 152.5q-214 0 -345.5 -152.5t-131.5 -400.5zM438 1651q0 14 2 22q19 89 85 144t153 55q95 0 162 -64q3 -3 17 -19.5t25 -26t19 -9.5q14 0 23.5 11.5t13.5 25.5q7 35 36 58.5t64 23.5q43 0 74 -31t31 -72q0 -14 -2 -22 q-20 -88 -87 -143.5t-153 -55.5q-107 0 -180 82q-1 1 -5.5 7.5t-9 12.5t-12.5 11.5t-16 5.5q-14 0 -23.5 -11.5t-13.5 -25.5q-7 -36 -36 -59t-66 -23q-42 0 -71.5 31t-29.5 72zM489 1651q0 -19 15.5 -35.5t36.5 -16.5q17 0 30.5 11.5t18.5 29.5q8 34 32 56t56 22 q44 0 76 -45q62 -74 147 -74q67 0 119.5 43.5t69.5 112.5q2 6 2 14q-2 21 -16.5 35.5t-35.5 14.5q-17 0 -32 -11t-19 -28q-6 -34 -31 -56t-57 -22q-42 0 -82 51q-56 68 -141 68q-66 0 -117.5 -42.5t-68.5 -111.5q0 -1 -1.5 -7t-1.5 -9z" />
<glyph unicode="&#xd6;" horiz-adv-x="1579" d="M102 731q0 254 119.5 446t319.5 269q-21 32 -21 61v92q0 43 31 73t74 30q41 0 71.5 -30t30.5 -73v-92q0 -12 -2 -18q20 2 61 2q22 0 68 -4q-2 8 -2 20v92q0 43 30.5 73t73.5 30q42 0 72.5 -30.5t30.5 -72.5v-92q0 -35 -23 -61q202 -79 321.5 -270t119.5 -445 q0 -217 -89 -391t-247 -271.5t-355 -97.5q-146 0 -273 57.5t-217.5 157.5t-142 241t-51.5 304zM156 731q0 -154 47.5 -286t130.5 -224.5t200 -145t252 -52.5q137 0 255.5 52t203 144t132.5 224.5t48 287.5q0 252 -120.5 433t-321.5 245q-16 -4 -27 -4q-39 0 -69 27 q-50 6 -101 6q-48 0 -94 -6q-27 -27 -67 -27q-11 0 -31 4q-199 -64 -318.5 -245.5t-119.5 -432.5zM258 731q0 267 146.5 435.5t381.5 168.5q239 0 388 -168.5t149 -435.5q0 -270 -149 -438t-388 -168q-235 0 -381.5 169.5t-146.5 436.5zM309 731q0 -249 131.5 -401 t345.5 -152q217 0 350.5 152t133.5 401q0 248 -133.5 400.5t-350.5 152.5q-214 0 -345.5 -152.5t-131.5 -400.5zM571 1507q0 -26 27 -43q60 16 68 17q8 11 8 26v92q0 20 -14.5 35t-34.5 15q-22 0 -38 -15t-16 -35v-92zM905 1507q0 -15 8 -26q8 -1 68 -17q25 14 25 43v92 q0 20 -15 35t-35 15q-22 0 -37 -15t-14 -35v-92z" />
<glyph unicode="&#xd7;" horiz-adv-x="1048" d="M102 358q0 43 31 74l246 246l-246 244q-31 31 -31 73q0 44 31 73.5t74 29.5q44 0 72 -31l245 -244l246 244q31 31 72 31q45 0 74.5 -31.5t29.5 -71.5q0 -42 -31 -73l-245 -244l245 -246q31 -31 31 -74q0 -40 -31.5 -71t-72.5 -31q-44 0 -72 31l-246 243l-245 -243 q-31 -31 -72 -31q-40 0 -72.5 31.5t-32.5 70.5zM154 358q0 -19 15 -35t36 -16q20 0 37 17l282 282l283 -282q15 -15 37 -15q19 0 35 14.5t16 36.5q0 19 -16 35l-283 285l283 283q14 11 14 34q0 20 -14 36t-37 16q-20 0 -35 -15l-283 -282l-284 282q-12 15 -35 15 q-20 0 -35.5 -15t-15.5 -37t14 -36l285 -281l-285 -285q-14 -14 -14 -37z" />
<glyph unicode="&#xd8;" horiz-adv-x="1579" d="M102 731q0 163 51.5 304t142 241t217.5 157.5t273 57.5q157 0 291 -64l39 66q13 24 38 38.5t52 14.5q40 0 71.5 -29.5t31.5 -74.5q0 -27 -15 -51l-47 -80q109 -105 169.5 -254t60.5 -326q0 -217 -89 -391t-247 -271.5t-355 -97.5q-144 0 -276 58l-43 -74q-28 -51 -90 -51 q-39 0 -72 29.5t-33 74.5q0 27 15 51l49 86q-111 103 -172.5 254.5t-61.5 331.5zM154 731q0 -183 65.5 -331t183.5 -244l-71 -123q-8 -16 -8 -27q0 -23 16 -37t35 -14q30 0 45 27l67 116q131 -73 299 -73q137 0 255.5 51.5t203 143.5t132.5 224t48 287q0 182 -63.5 328 t-179.5 241l67 115q6 10 6 27q0 24 -14 38.5t-35 14.5q-28 0 -45 -27l-63 -110q-136 80 -312 80q-181 0 -325 -89.5t-225.5 -251t-81.5 -366.5zM256 731q0 266 147.5 435t382.5 169q149 0 261 -65l-592 -1026q-95 80 -147 206t-52 281zM309 731q0 -248 133 -403l533 919 q-84 37 -189 37q-214 0 -345.5 -152.5t-131.5 -400.5zM539 186l591 1024q92 -80 141.5 -203.5t49.5 -275.5q0 -270 -148 -438t-387 -168q-134 0 -247 61zM612 209q82 -31 174 -31q217 0 350.5 152t133.5 401q0 242 -129 393z" />
<glyph unicode="&#xd9;" horiz-adv-x="1404" d="M143 485v895q0 43 31 73t74 30t72.5 -30t29.5 -73v-899q0 -161 90.5 -232t257.5 -71q164 0 260.5 71.5t96.5 231.5v899q0 43 30.5 73t73.5 30t73 -30t30 -73v-895q0 -109 -31.5 -197t-84.5 -146.5t-126.5 -97.5t-153.5 -56t-168 -17q-264 0 -409.5 135t-145.5 379z M195 485q0 -227 132 -343.5t369 -116.5q86 0 160.5 16t140 51.5t112 88t73 130t26.5 174.5v895q0 22 -15 37t-36 15q-22 0 -36.5 -15t-14.5 -37v-897q0 -94 -31 -164t-87 -111t-129 -61t-163 -20q-399 0 -399 356v897q0 22 -14.5 37t-36.5 15t-36.5 -15t-14.5 -37v-895z M498 1741q0 44 32.5 74t71.5 30q62 0 90 -55l113 -207q12 -21 12 -45q0 -45 -31.5 -75.5t-70.5 -30.5q-28 0 -53.5 14.5t-38.5 38.5l-113 207q-12 24 -12 49zM549 1741q0 -13 6 -25l113 -205q16 -26 45 -26q19 0 35 14t16 37q0 13 -6 25l-113 204q-12 27 -45 27 q-19 0 -35 -14t-16 -37z" />
<glyph unicode="&#xda;" horiz-adv-x="1404" d="M143 485v895q0 43 31 73t74 30t72.5 -30t29.5 -73v-899q0 -161 90.5 -232t257.5 -71q164 0 260.5 71.5t96.5 231.5v899q0 43 30.5 73t73.5 30t73 -30t30 -73v-895q0 -109 -31.5 -197t-84.5 -146.5t-126.5 -97.5t-153.5 -56t-168 -17q-264 0 -409.5 135t-145.5 379z M195 485q0 -227 132 -343.5t369 -116.5q86 0 160.5 16t140 51.5t112 88t73 130t26.5 174.5v895q0 22 -15 37t-36 15q-22 0 -36.5 -15t-14.5 -37v-897q0 -94 -31 -164t-87 -111t-129 -61t-163 -20q-399 0 -399 356v897q0 22 -14.5 37t-36.5 15t-36.5 -15t-14.5 -37v-895z M541 1538q0 28 10 45l113 207q28 55 90 55q40 0 72 -30t32 -74q0 -25 -12 -49l-113 -207q-29 -53 -90 -53q-40 0 -71 30t-31 76zM592 1536q0 -23 16 -37t33 -14q31 0 47 26l113 205q6 12 6 25q0 23 -16 37t-35 14q-33 0 -45 -27l-113 -204q-6 -12 -6 -25z" />
<glyph unicode="&#xdb;" horiz-adv-x="1404" d="M143 485v895q0 43 31 73t74 30t72.5 -30t29.5 -73v-899q0 -161 90.5 -232t257.5 -71q164 0 260.5 71.5t96.5 231.5v899q0 43 30.5 73t73.5 30t73 -30t30 -73v-895q0 -109 -31.5 -197t-84.5 -146.5t-126.5 -97.5t-153.5 -56t-168 -17q-264 0 -409.5 135t-145.5 379z M195 485q0 -227 132 -343.5t369 -116.5q86 0 160.5 16t140 51.5t112 88t73 130t26.5 174.5v895q0 22 -15 37t-36 15q-22 0 -36.5 -15t-14.5 -37v-897q0 -94 -31 -164t-87 -111t-129 -61t-163 -20q-399 0 -399 356v897q0 22 -14.5 37t-36.5 15t-36.5 -15t-14.5 -37v-895z M428 1585q0 45 31 76l170 162q28 28 71 28q42 0 70 -28l170 -162q31 -31 31 -76q0 -44 -31 -73t-72 -29q-43 0 -71 28l-99 95l-96 -95q-28 -28 -72 -28q-45 0 -73.5 31.5t-28.5 70.5zM479 1587q0 -22 14.5 -36.5t36.5 -14.5q21 0 35 14l133 129l133 -129q14 -14 37 -14 q20 0 35 15t15 36q0 22 -15 37l-170 162q-11 14 -35 14q-20 0 -34 -14l-168 -162q-17 -17 -17 -37z" />
<glyph unicode="&#xdc;" horiz-adv-x="1404" d="M143 485v895q0 43 31 73t74 30t72.5 -30t29.5 -73v-899q0 -161 90.5 -232t257.5 -71q164 0 260.5 71.5t96.5 231.5v899q0 43 30.5 73t73.5 30t73 -30t30 -73v-895q0 -109 -31.5 -197t-84.5 -146.5t-126.5 -97.5t-153.5 -56t-168 -17q-264 0 -409.5 135t-145.5 379z M195 485q0 -227 132 -343.5t369 -116.5q86 0 160.5 16t140 51.5t112 88t73 130t26.5 174.5v895q0 22 -15 37t-36 15q-22 0 -36.5 -15t-14.5 -37v-897q0 -94 -31 -164t-87 -111t-129 -61t-163 -20q-399 0 -399 356v897q0 22 -14.5 37t-36.5 15t-36.5 -15t-14.5 -37v-895z M430 1507v92q0 43 31 73t74 30q41 0 71.5 -30t30.5 -73v-92q0 -41 -30.5 -71.5t-71.5 -30.5q-43 0 -74 30.5t-31 71.5zM481 1507q0 -20 16 -34.5t38 -14.5q20 0 35.5 14.5t15.5 34.5v92q0 20 -15.5 36t-35.5 16q-22 0 -38 -16t-16 -36v-92zM762 1507v92q0 43 30.5 73 t73.5 30q42 0 72.5 -30.5t30.5 -72.5v-92q0 -41 -31 -71.5t-72 -30.5q-43 0 -73.5 30.5t-30.5 71.5zM813 1507q0 -20 15.5 -34.5t37.5 -14.5q21 0 36.5 14.5t15.5 34.5v92q0 20 -16 36t-36 16q-22 0 -37.5 -15.5t-15.5 -36.5v-92z" />
<glyph unicode="&#xdd;" horiz-adv-x="1275" d="M41 1380q0 44 32 73.5t72 29.5q50 0 82 -43l412 -570l410 570q32 43 84 43q40 0 71 -28.5t31 -72.5q0 -40 -18 -63l-476 -660v-573q0 -43 -30.5 -72.5t-73.5 -29.5q-42 0 -72 30t-30 72v573l-474 660q-20 26 -20 61zM92 1380q0 -17 10 -30l484 -672v-592 q0 -22 14.5 -35.5t36.5 -13.5t36.5 13.5t14.5 35.5v592l486 672q8 13 8 30q0 23 -15.5 37.5t-36.5 14.5q-24 0 -40 -23l-453 -627l-453 627q-16 23 -41 23q-21 0 -36 -15t-15 -37zM479 1538q0 28 10 45l113 207q28 55 90 55q40 0 72.5 -30t32.5 -74q0 -23 -13 -49l-112 -207 q-29 -53 -90 -53q-40 0 -71.5 30t-31.5 76zM530 1536q0 -23 16.5 -37t33.5 -14q31 0 47 26l112 205q6 12 6 25q0 23 -16 37t-35 14q-33 0 -45 -27l-112 -204q-7 -14 -7 -25z" />
<glyph unicode="&#xde;" horiz-adv-x="1308" d="M184 84v1294q0 43 31 74t72 31q43 0 73.5 -31t30.5 -74v-123h383q218 0 345.5 -119.5t127.5 -320.5q0 -214 -127.5 -330t-361.5 -116h-367v-285q0 -43 -30.5 -72.5t-73.5 -29.5t-73 29.5t-30 72.5zM238 84q0 -21 14 -36t35 -15q22 0 37.5 15.5t15.5 35.5v336h418 q209 0 323.5 101t114.5 294q0 182 -114 285.5t-308 103.5h-434v174q0 22 -15.5 38t-37.5 16q-20 0 -34.5 -16t-14.5 -38v-1294zM340 522v580l434 -2q155 0 237.5 -74t82.5 -211q0 -293 -336 -293h-418zM391 573h367q72 0 125 14t83 36t47.5 56t23 65t5.5 71q0 234 -268 234 h-383v-476z" />
<glyph unicode="&#xdf;" horiz-adv-x="1079" d="M143 102v965q0 195 107.5 309.5t277.5 114.5q192 0 301 -105.5t109 -275.5q0 -148 -80 -252q-17 -23 -33 -37q10 -5 39 -30q135 -129 135 -361q0 -196 -104 -315q-58 -68 -149 -106t-193 -38q-32 0 -78 11q-91 23 -88 112q1 42 37 70t76 22q10 -1 29.5 -4.5t23.5 -3.5 q69 1 118.5 22.5t74.5 58.5t36 78.5t11 90.5q0 194 -127 250q-56 24 -82.5 55.5t-26.5 77.5q0 34 9.5 60t27.5 41.5t29 22t28 13.5q80 35 80 162q0 176 -201 176q-88 0 -134 -57.5t-46 -157.5v-969q0 -42 -30 -72t-72 -30q-43 0 -74 30t-31 72zM195 94q0 -21 15 -36t36 -15 q22 0 36.5 14.5t14.5 36.5v1006q8 104 64.5 170.5t162.5 66.5q258 0 258 -231q0 -74 -31.5 -130t-80.5 -77q-18 -7 -29 -14t-22.5 -27t-10.5 -49q0 -27 19 -45.5t57 -38.5q160 -73 160 -299q0 -138 -76.5 -217.5t-210.5 -81.5q-27 0 -59 8q-20 5 -38.5 -8t-19.5 -33 q-6 -46 39 -59q30 -10 78 -10q99 0 182 40.5t135 110.5q72 101 72 244q0 260 -178 371q-32 20 -37 28q2 6 25 23q54 33 91.5 103.5t37.5 160.5q0 156 -95 245t-266 89q-65 0 -121 -22t-93.5 -57.5t-64 -81t-38.5 -91.5t-12 -90v-1004z" />
<glyph unicode="&#xe0;" horiz-adv-x="1155" d="M96 309q0 152 92 240q107 101 367 131q152 15 240 51l-2 41q0 69 -48 100q-45 35 -155 35q-156 0 -213 -78q-11 -14 -18.5 -29.5t-8.5 -24.5l-2 -9q-3 -41 -32.5 -68.5t-69.5 -27.5q-39 0 -73.5 29t-31.5 81q14 98 70 174q119 160 379 160q220 0 330 -119q79 -89 79 -225 v-545q0 -25 5 -35q45 1 76.5 -29t31.5 -73t-30.5 -73.5t-71.5 -30.5q-102 0 -160 67q-12 14 -27 37q-144 -117 -344 -117q-176 0 -279.5 93t-103.5 245zM150 307q0 -122 84.5 -203t246.5 -81q214 0 363 153l4 6q4 -26 8 -37q11 -37 35 -61q45 -49 119 -49q22 0 36.5 14.5 t14.5 36.5t-15 37t-38 14q-58 3 -58 84v549q0 113 -67 188q-95 105 -291 105q-229 0 -338 -139q-12 -17 -22 -35t-15.5 -32.5t-10 -29.5t-6.5 -24.5t-3.5 -17.5t-1.5 -9q-1 -24 15 -38.5t36 -16.5q21 0 36 14t15 35q4 45 39 92q77 99 256 99q143 0 207 -64q47 -47 47 -125 v-67q-45 -52 -283 -78q-240 -26 -338 -117q-75 -72 -75 -203zM252 307q0 89 47 131q71 64 283 88q159 16 266 60v-226q-25 -56 -80 -116q-119 -119 -287 -119q-118 0 -180 59q-49 49 -49 123zM303 309q0 -55 33 -88q46 -43 145 -43q146 0 244 101q42 42 68 94v139 q-91 -26 -215 -39q-189 -19 -246 -76q-29 -23 -29 -88zM399 1518q0 44 33 74t72 30q62 0 90 -55l113 -207q12 -21 12 -45q0 -45 -32 -76t-71 -31q-28 0 -53.5 14.5t-38.5 39.5l-112 206q-13 26 -13 50zM451 1518q0 -13 6 -25l112 -205q16 -26 45 -26q19 0 35.5 14t16.5 37 q0 10 -7 24l-112 205q-12 27 -45 27q-19 0 -35 -14t-16 -37z" />
<glyph unicode="&#xe1;" horiz-adv-x="1155" d="M96 309q0 152 92 240q107 101 367 131q152 15 240 51l-2 41q0 69 -48 100q-45 35 -155 35q-156 0 -213 -78q-11 -14 -18.5 -29.5t-8.5 -24.5l-2 -9q-3 -41 -32.5 -68.5t-69.5 -27.5q-39 0 -73.5 29t-31.5 81q14 98 70 174q119 160 379 160q220 0 330 -119q79 -89 79 -225 v-545q0 -25 5 -35q45 1 76.5 -29t31.5 -73t-30.5 -73.5t-71.5 -30.5q-102 0 -160 67q-12 14 -27 37q-144 -117 -344 -117q-176 0 -279.5 93t-103.5 245zM150 307q0 -122 84.5 -203t246.5 -81q214 0 363 153l4 6q4 -26 8 -37q11 -37 35 -61q45 -49 119 -49q22 0 36.5 14.5 t14.5 36.5t-15 37t-38 14q-58 3 -58 84v549q0 113 -67 188q-95 105 -291 105q-229 0 -338 -139q-12 -17 -22 -35t-15.5 -32.5t-10 -29.5t-6.5 -24.5t-3.5 -17.5t-1.5 -9q-1 -24 15 -38.5t36 -16.5q21 0 36 14t15 35q4 45 39 92q77 99 256 99q143 0 207 -64q47 -47 47 -125 v-67q-45 -52 -283 -78q-240 -26 -338 -117q-75 -72 -75 -203zM252 307q0 89 47 131q71 64 283 88q159 16 266 60v-226q-25 -56 -80 -116q-119 -119 -287 -119q-118 0 -180 59q-49 49 -49 123zM303 309q0 -55 33 -88q46 -43 145 -43q146 0 244 101q42 42 68 94v139 q-91 -26 -215 -39q-189 -19 -246 -76q-29 -23 -29 -88zM451 1315q0 27 10 45l112 207q13 26 38 40.5t53 14.5q40 0 72 -30t32 -74q0 -26 -12 -50l-113 -206q-14 -25 -38 -39.5t-52 -14.5q-40 0 -71 30.5t-31 76.5zM502 1313q0 -23 16 -37t33 -14q31 0 47 26l113 205 q6 12 6 25q0 23 -16 37t-35 14q-33 0 -45 -27l-113 -205q-6 -12 -6 -24z" />
<glyph unicode="&#xe2;" horiz-adv-x="1155" d="M96 309q0 152 92 240q107 101 367 131q152 15 240 51l-2 41q0 69 -48 100q-45 35 -155 35q-156 0 -213 -78q-11 -14 -18.5 -29.5t-8.5 -24.5l-2 -9q-3 -41 -32.5 -68.5t-69.5 -27.5q-39 0 -73.5 29t-31.5 81q14 98 70 174q119 160 379 160q220 0 330 -119q79 -89 79 -225 v-545q0 -25 5 -35q45 1 76.5 -29t31.5 -73t-30.5 -73.5t-71.5 -30.5q-102 0 -160 67q-12 14 -27 37q-144 -117 -344 -117q-176 0 -279.5 93t-103.5 245zM150 307q0 -122 84.5 -203t246.5 -81q214 0 363 153l4 6q4 -26 8 -37q11 -37 35 -61q45 -49 119 -49q22 0 36.5 14.5 t14.5 36.5t-15 37t-38 14q-58 3 -58 84v549q0 113 -67 188q-95 105 -291 105q-229 0 -338 -139q-12 -17 -22 -35t-15.5 -32.5t-10 -29.5t-6.5 -24.5t-3.5 -17.5t-1.5 -9q-1 -24 15 -38.5t36 -16.5q21 0 36 14t15 35q4 45 39 92q77 99 256 99q143 0 207 -64q47 -47 47 -125 v-67q-45 -52 -283 -78q-240 -26 -338 -117q-75 -72 -75 -203zM252 307q0 89 47 131q71 64 283 88q159 16 266 60v-226q-25 -56 -80 -116q-119 -119 -287 -119q-118 0 -180 59q-49 49 -49 123zM303 309q0 -55 33 -88q46 -43 145 -43q146 0 244 101q42 42 68 94v139 q-91 -26 -215 -39q-189 -19 -246 -76q-29 -23 -29 -88zM338 1323q0 45 31 76l170 162q28 28 71 28q42 0 70 -28l170 -162q31 -31 31 -76q0 -44 -31 -73t-72 -29q-43 0 -71 28l-99 94l-96 -94q-28 -28 -72 -28q-45 0 -73.5 31.5t-28.5 70.5zM389 1325q0 -22 14.5 -36.5 t36.5 -14.5q21 0 35 14l133 129l133 -129q14 -14 37 -14q20 0 34.5 14.5t14.5 36.5q0 23 -14 37l-170 162q-11 14 -35 14q-21 0 -35 -14l-167 -162q-17 -17 -17 -37z" />
<glyph unicode="&#xe3;" horiz-adv-x="1155" d="M96 307q0 152 92 240q111 105 367 131q158 17 238 53v41q0 69 -48 100q-45 35 -155 35q-156 0 -213 -78q-11 -14 -18.5 -29.5t-8.5 -24.5l-2 -9q-3 -41 -32.5 -68.5t-69.5 -27.5q-39 0 -73.5 29t-31.5 81q14 98 70 174q119 160 379 160q220 0 330 -119q79 -89 79 -225 v-545q0 -25 5 -35q45 1 76.5 -29t31.5 -73t-30.5 -73.5t-71.5 -30.5q-102 0 -160 67q-12 14 -27 37q-144 -117 -344 -117q-176 0 -279.5 92t-103.5 244zM150 307q0 -122 84.5 -203t246.5 -81q214 0 363 153l4 6q4 -26 8 -37q11 -37 35 -61q45 -49 119 -49q22 0 36.5 14.5 t14.5 36.5t-15 37t-38 14q-58 3 -58 84v549q0 113 -67 188q-95 105 -291 105q-229 0 -338 -139q-12 -17 -22 -35t-15.5 -32.5t-10 -29.5t-6.5 -24.5t-3.5 -17.5t-1.5 -9q-1 -24 15 -38.5t36 -16.5q21 0 36 14t15 35q4 45 39 92q77 99 256 99q143 0 207 -64q47 -47 47 -125 v-67q-45 -52 -283 -78q-240 -26 -338 -117q-75 -72 -75 -203zM252 307q0 89 47 131q71 64 283 88q159 16 266 60v-226q-25 -56 -80 -116q-119 -119 -287 -119q-118 0 -180 59q-49 49 -49 123zM256 1311q0 14 2 22q19 89 85 144t153 55q94 0 161 -64q2 -2 16.5 -19t26 -26.5 t19.5 -9.5q14 0 23.5 11.5t13.5 25.5q7 35 36 58.5t64 23.5q44 0 74.5 -31t30.5 -71q0 -11 -3 -23q-20 -88 -86.5 -143.5t-152.5 -55.5q-107 0 -180 82q-1 1 -5.5 7.5t-9 12.5t-12.5 11.5t-16 5.5q-14 0 -23.5 -11.5t-13.5 -25.5q-7 -36 -36.5 -59t-66.5 -23q-42 0 -71 31 t-29 72zM303 307q0 -55 33 -86q43 -43 143 -43q145 0 246 98q41 44 68 97v139q-91 -26 -215 -39q-190 -22 -248 -76q-27 -27 -27 -90zM307 1311q0 -19 15 -35t36 -16q17 0 31 11.5t19 28.5q8 34 32 56t56 22q43 0 75 -45q62 -73 148 -73q67 0 119 43t69 112q2 6 2 15 q-2 21 -16 35t-35 14q-17 0 -32 -11t-19 -28q-6 -34 -31 -56t-57 -22q-42 0 -82 51q-56 68 -141 68q-66 0 -118 -42.5t-69 -111.5q0 -1 -1 -7t-1 -9z" />
<glyph unicode="&#xe4;" horiz-adv-x="1155" d="M96 309q0 152 92 240q107 101 367 131q152 15 240 51l-2 41q0 69 -48 100q-45 35 -155 35q-156 0 -213 -78q-11 -14 -18.5 -29.5t-8.5 -24.5l-2 -9q-3 -41 -32.5 -68.5t-69.5 -27.5q-39 0 -73.5 29t-31.5 81q14 98 70 174q119 160 379 160q220 0 330 -119q79 -89 79 -225 v-545q0 -25 5 -35q45 1 76.5 -29t31.5 -73t-30.5 -73.5t-71.5 -30.5q-102 0 -160 67q-12 14 -27 37q-144 -117 -344 -117q-176 0 -279.5 93t-103.5 245zM150 307q0 -122 84.5 -203t246.5 -81q214 0 363 153l4 6q4 -26 8 -37q11 -37 35 -61q45 -49 119 -49q22 0 36.5 14.5 t14.5 36.5t-15 37t-38 14q-58 3 -58 84v549q0 113 -67 188q-95 105 -291 105q-229 0 -338 -139q-12 -17 -22 -35t-15.5 -32.5t-10 -29.5t-6.5 -24.5t-3.5 -17.5t-1.5 -9q-1 -24 15 -38.5t36 -16.5q21 0 36 14t15 35q4 45 39 92q77 99 256 99q143 0 207 -64q47 -47 47 -125 v-67q-45 -52 -283 -78q-240 -26 -338 -117q-75 -72 -75 -203zM252 307q0 89 47 131q71 64 283 88q159 16 266 60v-226q-25 -56 -80 -116q-119 -119 -287 -119q-118 0 -180 59q-49 49 -49 123zM303 309q0 -55 33 -88q46 -43 145 -43q146 0 244 101q42 42 68 94v139 q-91 -26 -215 -39q-189 -19 -246 -76q-29 -23 -29 -88zM313 1296v93q0 42 31 72t74 30q42 0 72 -30t30 -72v-93q0 -41 -30.5 -71.5t-71.5 -30.5q-43 0 -74 30.5t-31 71.5zM365 1296q0 -20 15.5 -34.5t37.5 -14.5q20 0 35.5 14.5t15.5 34.5v93q0 20 -15.5 35.5t-35.5 15.5 q-22 0 -37.5 -15.5t-15.5 -35.5v-93zM645 1296v93q0 42 31 72t74 30q42 0 72 -30t30 -72v-93q0 -41 -30.5 -71.5t-71.5 -30.5q-43 0 -74 30.5t-31 71.5zM696 1296q0 -20 16 -34.5t38 -14.5q20 0 35.5 14.5t15.5 34.5v93q0 20 -15.5 35.5t-35.5 15.5q-22 0 -38 -15.5 t-16 -35.5v-93z" />
<glyph unicode="&#xe5;" horiz-adv-x="1155" d="M96 309q0 152 92 240q107 101 367 131q152 15 240 51l-2 41q0 69 -48 100q-45 35 -155 35q-156 0 -213 -78q-11 -14 -18.5 -29.5t-8.5 -24.5l-2 -9q-3 -41 -32.5 -68.5t-69.5 -27.5q-39 0 -73.5 29t-31.5 81q14 98 70 174q119 160 379 160q220 0 330 -119q79 -89 79 -225 v-545q0 -25 5 -35q45 1 76.5 -29t31.5 -73t-30.5 -73.5t-71.5 -30.5q-102 0 -160 67q-12 14 -27 37q-144 -117 -344 -117q-176 0 -279.5 93t-103.5 245zM150 307q0 -122 84.5 -203t246.5 -81q214 0 363 153l4 6q4 -26 8 -37q11 -37 35 -61q45 -49 119 -49q22 0 36.5 14.5 t14.5 36.5t-15 37t-38 14q-58 3 -58 84v549q0 113 -67 188q-95 105 -291 105q-229 0 -338 -139q-12 -17 -22 -35t-15.5 -32.5t-10 -29.5t-6.5 -24.5t-3.5 -17.5t-1.5 -9q-1 -24 15 -38.5t36 -16.5q21 0 36 14t15 35q4 45 39 92q77 99 256 99q143 0 207 -64q47 -47 47 -125 v-67q-45 -52 -283 -78q-240 -26 -338 -117q-75 -72 -75 -203zM252 307q0 89 47 131q71 64 283 88q159 16 266 60v-226q-25 -56 -80 -116q-119 -119 -287 -119q-118 0 -180 59q-49 49 -49 123zM303 309q0 -55 33 -88q46 -43 145 -43q146 0 244 101q42 42 68 94v139 q-91 -26 -215 -39q-189 -19 -246 -76q-29 -23 -29 -88zM375 1411q0 94 69.5 164t163.5 70t164 -70t70 -164t-70 -163.5t-164 -69.5t-163.5 69.5t-69.5 163.5zM418 1411q0 -78 56 -134t134 -56t134.5 56t56.5 134t-56.5 134.5t-134.5 56.5t-134 -56.5t-56 -134.5zM485 1411 q0 51 36 87t87 36t87 -36t36 -87t-36 -87t-87 -36t-87 36t-36 87zM528 1411q0 -32 24 -56t56 -24t56 24t24 56t-24 56t-56 24t-56 -24t-24 -56z" />
<glyph unicode="&#xe6;" horiz-adv-x="1859" d="M98 309q0 155 92 240q111 105 367 131q158 17 238 53q0 59 -4.5 82t-24.5 45q-46 49 -174 49q-146 0 -205 -65q-30 -33 -37 -72q-2 -42 -31 -71t-73 -29q-42 0 -72.5 29.5t-30.5 70.5q0 43 21.5 101.5t73.5 113.5q123 129 354 129q136 0 217 -39t135 -108 q138 147 352 147q204 0 326 -125q75 -73 114 -188t42 -242q0 -45 -29 -74q-32 -32 -76 -32h-672q48 -277 306 -277q192 0 247 174q12 40 50.5 60t78.5 8q41 -14 61 -52t7 -79q-46 -151 -166 -234.5t-278 -83.5q-126 0 -222 46t-184 147q-69 -78 -174.5 -135.5t-245.5 -57.5 q-180 0 -281.5 95.5t-101.5 242.5zM150 309q0 -120 84 -202t247 -82q147 0 256 70t168 169q130 -239 400 -239q142 0 248 72t149 208q6 20 -4.5 39t-30.5 25t-38.5 -3.5t-24.5 -29.5q-32 -103 -108.5 -156t-190.5 -53q-166 0 -258.5 102.5t-100.5 278.5h727q23 0 37 14 t14 37q-3 122 -38.5 225.5t-100.5 169.5q-111 111 -289 111q-123 0 -217 -58.5t-151 -156.5q-19 101 -104 158t-234 57q-207 0 -316 -115q-74 -80 -79 -178q0 -20 14.5 -34.5t36.5 -14.5t36.5 14.5t14.5 36.5q0 16 12 47t39 60q79 82 242 82q151 0 215 -70q10 -11 17 -21 t11.5 -24.5t7.5 -21.5t4 -27.5t1 -25.5v-32v-32q-44 -56 -285 -80q-241 -27 -336 -119q-75 -69 -75 -201zM252 309q0 84 43 125q69 69 278 92q177 18 273 66q-13 -99 12 -205q-26 -67 -75 -124t-129 -96.5t-173 -39.5q-106 0 -167.5 46t-61.5 136zM303 309q0 -64 47 -97.5 t131 -33.5q112 0 198.5 61.5t123.5 153.5q-12 55 -15 119q-92 -26 -210 -37q-192 -22 -246 -76q-29 -26 -29 -90zM948 610q6 53 22 102t45 95.5t67.5 80.5t93.5 54.5t120 20.5q148 0 227 -92t95 -261h-670zM1008 662h551q-24 125 -85.5 186t-177.5 61q-109 0 -185.5 -65.5 t-102.5 -181.5z" />
<glyph unicode="&#xe7;" horiz-adv-x="1126" d="M82 543q0 256 140.5 414.5t367.5 158.5q169 0 286.5 -85t157.5 -236q4 -16 4 -25q0 -42 -31 -73t-73 -31q-34 0 -62.5 21t-37.5 56q-43 166 -244 166q-141 0 -221 -97t-80 -269q0 -170 80 -267.5t219 -97.5q217 0 252 201q7 41 42.5 65.5t78.5 18.5q38 -7 60.5 -36 t22.5 -69q0 -43 -28 -113t-72 -124q-105 -124 -278 -146l-33 -79q102 -29 151.5 -95t49.5 -143q0 -116 -91 -188q-86 -70 -217 -70q-50 0 -108 12q-41 7 -65 43.5t-15 77.5q9 42 44.5 65.5t76.5 14.5q110 -19 155 16q15 12 15 29q0 25 -42.5 38t-99.5 13q-55 0 -86 45 q-28 46 -10 96l58 140q-169 45 -268 192.5t-99 360.5zM133 543q0 -211 103.5 -351t283.5 -163l-80 -199q-9 -24 4 -47q16 -23 43 -23q83 0 138 -25.5t55 -76.5q0 -44 -33 -70q-63 -50 -198 -26q-20 5 -38 -7t-22 -34q-5 -20 7 -37.5t32 -20.5q52 -12 98 -12q115 0 187 60 q69 54 69 147q0 78 -59.5 130t-161.5 67l68 170q169 13 270 125q42 50 66 109t26 101q0 21 -13 35t-30 17q-21 2 -37.5 -10.5t-19.5 -32.5q-21 -120 -99.5 -182t-203.5 -62q-166 0 -259 114t-93 304q0 188 94 303t258 115q242 0 295 -205q5 -17 18.5 -28t30.5 -11 q22 0 37.5 15.5t15.5 35.5l-2 14q-36 137 -140 209t-255 72q-210 1 -332.5 -144t-122.5 -376z" />
<glyph unicode="&#xe8;" horiz-adv-x="1150" d="M82 551q0 122 43 235t123 193q64 64 151.5 100.5t188.5 36.5q200 0 325 -125q147 -150 156 -430q0 -44 -29 -76q-30 -30 -73 -30h-672q19 -132 97.5 -204.5t205.5 -72.5q37 0 70.5 7.5t69 25t64 53.5t44.5 86q10 33 38 52.5t62 19.5q42 0 72.5 -29t30.5 -71q0 -12 -7 -33 q-46 -149 -163.5 -233.5t-280.5 -84.5q-235 0 -375.5 154.5t-140.5 425.5zM133 549q0 -243 124.5 -383.5t340.5 -140.5q148 0 250.5 73.5t144.5 204.5q2 6 2 16q0 23 -14.5 37.5t-36.5 14.5q-15 0 -29 -10t-20 -27q-32 -104 -111 -155.5t-186 -51.5q-165 0 -258.5 103 t-101.5 276h729q21 0 34 16q17 17 17 37q-9 251 -133 387q-113 119 -297 119q-95 0 -173 -35.5t-132 -87.5q-74 -75 -112 -179t-38 -214zM242 608q13 161 109.5 258t234.5 97q149 0 229 -92.5t94 -262.5h-667zM301 662h551q-24 127 -86.5 187t-177.5 60q-108 0 -184.5 -66 t-102.5 -181zM416 1518q0 44 32.5 74t71.5 30q62 0 90 -55l113 -207q12 -21 12 -45q0 -45 -31.5 -76t-70.5 -31q-28 0 -53.5 14.5t-38.5 39.5l-113 206q-12 24 -12 50zM467 1518q0 -13 6 -25l113 -205q16 -26 45 -26q19 0 35 14t16 37q0 12 -6 24l-113 205q-12 27 -45 27 q-19 0 -35 -14t-16 -37z" />
<glyph unicode="&#xe9;" horiz-adv-x="1150" d="M82 551q0 122 43 235t123 193q64 64 151.5 100.5t188.5 36.5q200 0 325 -125q147 -150 156 -430q0 -44 -29 -76q-30 -30 -73 -30h-672q19 -132 97.5 -204.5t205.5 -72.5q37 0 70.5 7.5t69 25t64 53.5t44.5 86q10 33 38 52.5t62 19.5q42 0 72.5 -29t30.5 -71q0 -12 -7 -33 q-46 -149 -163.5 -233.5t-280.5 -84.5q-235 0 -375.5 154.5t-140.5 425.5zM133 549q0 -244 124.5 -385t340.5 -141q147 0 250 74.5t145 205.5q2 6 2 16q0 23 -14.5 37.5t-36.5 14.5q-15 0 -29 -10t-20 -27q-32 -105 -111.5 -157t-185.5 -52q-165 0 -258.5 104t-101.5 277 h729q21 0 34 16q17 17 17 37q-9 251 -133 387q-113 119 -297 119q-95 0 -173 -35.5t-132 -87.5q-74 -75 -112 -179t-38 -214zM242 608q13 161 109.5 258t234.5 97q149 0 229 -92.5t94 -262.5h-667zM301 662h551q-24 127 -86.5 187t-177.5 60q-108 0 -184.5 -66t-102.5 -181z M418 1315q0 27 10 45l113 207q28 55 90 55q40 0 72 -30t32 -74q0 -26 -12 -50l-113 -206q-14 -25 -38 -39.5t-52 -14.5q-40 0 -71 30.5t-31 76.5zM469 1313q0 -23 16 -37t33 -14q31 0 47 26l113 205q6 12 6 25q0 23 -16 37t-35 14q-33 0 -45 -27l-113 -205q-6 -12 -6 -24z " />
<glyph unicode="&#xea;" horiz-adv-x="1150" d="M82 551q0 122 43 235t123 193q64 64 151.5 100.5t188.5 36.5q200 0 325 -125q147 -150 156 -430q0 -44 -29 -76q-30 -30 -73 -30h-672q19 -132 97.5 -204.5t205.5 -72.5q37 0 70.5 7.5t69 25t64 53.5t44.5 86q10 33 38 52.5t62 19.5q42 0 72.5 -29t30.5 -71q0 -12 -7 -33 q-46 -149 -163.5 -233.5t-280.5 -84.5q-235 0 -375.5 154.5t-140.5 425.5zM133 549q0 -244 124.5 -385t340.5 -141q147 0 250 74.5t145 205.5q2 6 2 16q0 23 -14.5 37.5t-36.5 14.5q-15 0 -29 -10t-20 -27q-32 -104 -111 -155.5t-186 -51.5q-165 0 -258.5 103t-101.5 276 h729q21 0 34 16q17 17 17 37q-9 251 -133 387q-113 119 -297 119q-95 0 -173 -35.5t-132 -87.5q-74 -75 -112 -179t-38 -214zM242 608q13 161 109.5 258t234.5 97q149 0 229 -92.5t94 -262.5h-667zM301 662h551q-24 127 -86.5 187t-177.5 60q-108 0 -184.5 -66t-102.5 -181z M305 1323q0 45 31 76l170 162q28 28 72 28q41 0 69 -28l170 -162q31 -31 31 -76q0 -44 -31 -73t-72 -29q-43 0 -71 28l-99 94l-96 -94q-28 -28 -71 -28q-45 0 -74 31.5t-29 70.5zM356 1325q0 -22 15 -36.5t37 -14.5q20 0 34 14l133 129l134 -129q14 -14 36 -14q21 0 35.5 15 t14.5 36q0 22 -15 37l-170 162q-11 14 -35 14q-20 0 -34 -14l-168 -162q-17 -17 -17 -37z" />
<glyph unicode="&#xeb;" horiz-adv-x="1150" d="M82 551q0 122 43 235t123 193q64 64 151.5 100.5t188.5 36.5q200 0 325 -125q147 -150 156 -430q0 -44 -29 -76q-30 -30 -73 -30h-672q19 -132 97.5 -204.5t205.5 -72.5q37 0 70.5 7.5t69 25t64 53.5t44.5 86q10 33 38 52.5t62 19.5q42 0 72.5 -29t30.5 -71q0 -12 -7 -33 q-46 -149 -163.5 -233.5t-280.5 -84.5q-235 0 -375.5 154.5t-140.5 425.5zM133 549q0 -244 124.5 -385t340.5 -141q147 0 250 74.5t145 205.5q2 6 2 16q0 23 -14.5 37.5t-36.5 14.5q-15 0 -29 -10t-20 -27q-32 -105 -111.5 -157t-185.5 -52q-165 0 -258.5 104t-101.5 277 h729q21 0 34 16q17 17 17 37q-9 251 -133 387q-113 119 -297 119q-95 0 -173 -35.5t-132 -87.5q-74 -75 -112 -179t-38 -214zM242 608q13 161 109.5 258t234.5 97q149 0 229 -92.5t94 -262.5h-667zM301 662h551q-24 127 -86.5 187t-177.5 60q-108 0 -184.5 -66t-102.5 -181z M307 1329v92q0 43 31 73t74 30q42 0 72 -30t30 -73v-92q0 -41 -30.5 -71.5t-71.5 -30.5q-43 0 -74 30.5t-31 71.5zM358 1329q0 -20 16 -34.5t38 -14.5q20 0 35.5 14.5t15.5 34.5v92q0 20 -15.5 36t-35.5 16q-22 0 -38 -16t-16 -36v-92zM639 1329v92q0 43 30.5 73t73.5 30 q42 0 72.5 -30.5t30.5 -72.5v-92q0 -41 -31 -71.5t-72 -30.5q-43 0 -73.5 30.5t-30.5 71.5zM690 1329q0 -20 15.5 -34.5t37.5 -14.5q21 0 36.5 14.5t15.5 34.5v92q0 20 -16 36t-36 16q-21 0 -37 -15.5t-16 -36.5v-92z" />
<glyph unicode="&#xec;" d="M43 1518q0 44 32.5 74t71.5 30q28 0 53 -14.5t38 -40.5l112 -207q12 -21 12 -45q0 -45 -31.5 -76t-70.5 -31q-28 0 -53.5 14.5t-38.5 39.5l-113 206q-12 24 -12 50zM94 1518q0 -13 6 -25l113 -205q16 -26 45 -26q19 0 35 14t16 37q0 12 -6 24l-113 205q-12 27 -45 27 q-19 0 -35 -14t-16 -37zM143 86v915q0 43 31 73t74 30q42 0 72 -30t30 -73v-915q0 -41 -30.5 -71.5t-71.5 -30.5q-43 0 -74 30.5t-31 71.5zM195 86q0 -20 15.5 -35.5t37.5 -15.5q20 0 35.5 15.5t15.5 35.5v915q0 20 -15.5 36t-35.5 16q-22 0 -37.5 -15.5t-15.5 -36.5v-915z " />
<glyph unicode="&#xed;" d="M139 1315q0 26 11 45l112 207q28 55 90 55q40 0 72.5 -30t32.5 -74q0 -24 -13 -50l-112 -206q-14 -25 -38 -39.5t-52 -14.5q-40 0 -71.5 30.5t-31.5 76.5zM143 86v915q0 43 31 73t74 30q42 0 72 -30t30 -73v-915q0 -41 -30.5 -71.5t-71.5 -30.5q-43 0 -74 30.5t-31 71.5z M190 1313q0 -23 16.5 -37t33.5 -14q31 0 47 26l112 205q7 14 7 25q0 23 -16.5 37t-35.5 14q-33 0 -45 -27l-112 -205q-7 -14 -7 -24zM195 86q0 -20 15.5 -35.5t37.5 -15.5q20 0 35.5 15.5t15.5 35.5v915q0 20 -15.5 36t-35.5 16q-22 0 -37.5 -15.5t-15.5 -36.5v-915z" />
<glyph unicode="&#xee;" d="M-20 1323q0 46 30 76l170 162q28 28 72 28q42 0 70 -28l170 -162q30 -30 30 -76q0 -44 -30.5 -73t-71.5 -29q-44 0 -72 28l-98 94l-96 -94q-28 -28 -72 -28q-45 0 -73.5 31.5t-28.5 70.5zM31 1325q0 -22 14.5 -36.5t36.5 -14.5q21 0 35 14l133 129l133 -129 q14 -14 37 -14q20 0 34.5 14.5t14.5 36.5q0 23 -14 37l-170 162q-11 14 -35 14q-21 0 -35 -14l-168 -162q-16 -16 -16 -37zM143 86v915q0 43 31 73t74 30q42 0 72 -30t30 -73v-915q0 -41 -30.5 -71.5t-71.5 -30.5q-43 0 -74 30.5t-31 71.5zM195 86q0 -20 15.5 -35.5 t37.5 -15.5q20 0 35.5 15.5t15.5 35.5v915q0 20 -15.5 36t-35.5 16q-22 0 -37.5 -15.5t-15.5 -36.5v-915z" />
<glyph unicode="&#xef;" d="M-18 1331v92q0 43 30.5 73t73.5 30q42 0 72 -30t30 -73v-92q0 -41 -30.5 -71.5t-71.5 -30.5q-43 0 -73.5 30.5t-30.5 71.5zM33 1331q0 -20 15.5 -34.5t37.5 -14.5q20 0 35.5 14.5t15.5 34.5v92q0 20 -15.5 36t-35.5 16q-22 0 -37.5 -15.5t-15.5 -36.5v-92zM143 86v915 q0 43 31 73t74 30q42 0 72 -30t30 -73v-915q0 -41 -30.5 -71.5t-71.5 -30.5q-43 0 -74 30.5t-31 71.5zM195 86q0 -20 15.5 -35.5t37.5 -15.5q20 0 35.5 15.5t15.5 35.5v915q0 20 -15.5 36t-35.5 16q-22 0 -37.5 -15.5t-15.5 -36.5v-915zM313 1331v92q0 43 31 73t74 30 q42 0 72 -30t30 -73v-92q0 -41 -30.5 -71.5t-71.5 -30.5q-43 0 -74 30.5t-31 71.5zM365 1331q0 -20 15.5 -34.5t37.5 -14.5q20 0 35.5 14.5t15.5 34.5v92q0 20 -15.5 36t-35.5 16q-22 0 -37.5 -15.5t-15.5 -36.5v-92z" />
<glyph unicode="&#xf0;" horiz-adv-x="1173" d="M86 506q0 239 126.5 387.5t340.5 148.5q120 0 209 -45q-45 111 -92 164l-92 -63q-20 -13 -41 -13q-33 0 -52.5 20t-19.5 50q0 36 29 59l55 39q-65 31 -131 31q-43 0 -73 29.5t-30 72.5q0 42 29.5 72.5t71.5 32.5q180 -3 317 -109l105 74q17 14 43 14q31 0 51 -21.5 t20 -51.5q0 -37 -30 -58l-82 -57q101 -127 147.5 -312.5t46.5 -383.5q-3 -201 -37 -299q-52 -155 -165 -236.5t-271 -81.5q-97 0 -183 36t-151 102.5t-103 169.5t-38 229zM137 508q0 -219 116.5 -352t307.5 -133q244 0 354 213q66 106 66 337q0 84 -8 167.5t-28.5 183.5 t-64.5 192.5t-106 159.5l129 90q17 14 17 33q0 16 -11 27.5t-28 11.5q-14 0 -25 -8l-141 -99q-132 104 -297 109q-20 -2 -35.5 -15.5t-15.5 -35.5q0 -23 14.5 -37.5t36.5 -14.5q115 -3 207 -69l-113 -80q-16 -10 -16 -31q0 -16 11.5 -27.5t29.5 -11.5q10 0 22 6l131 93 q118 -118 160 -388q-99 162 -297 162q-194 0 -305 -134t-111 -349zM240 508q0 172 81 276.5t232 104.5q168 0 254 -133q68 -102 70 -248q0 -27 -2 -53t-6 -47.5t-8.5 -41t-10 -35t-11 -28.5t-10.5 -23t-8.5 -16.5t-6.5 -11.5l-3 -4q-46 -64 -105.5 -93.5t-144.5 -29.5 q-153 0 -237 105.5t-84 277.5zM293 506q0 -150 69 -240t199 -90q72 0 120.5 23t86.5 77q57 86 57 230q-4 124 -61 219q-72 111 -211 111q-129 0 -194.5 -89t-65.5 -241z" />
<glyph unicode="&#xf1;" horiz-adv-x="1103" d="M143 86v915q0 43 31 73t74 30q32 0 58.5 -19t37.5 -47q101 75 260 78q177 0 277 -106q44 -46 68.5 -108.5t28 -97.5t1.5 -59v-659q0 -43 -29.5 -72.5t-72.5 -29.5t-74 30t-31 72v666q0 73 -41 116q-41 41 -127 41q-131 0 -201 -98q-27 -36 -40 -76t-13 -59v-590 q0 -41 -30.5 -71.5t-71.5 -30.5q-43 0 -74 30.5t-31 71.5zM197 88q0 -21 15 -36t36 -15q20 0 35.5 15.5t15.5 35.5v590q0 34 19 82.5t44 83.5q84 119 244 119q109 0 164 -58q55 -59 55 -153v-664q0 -22 15 -36.5t37 -14.5t36.5 14.5t14.5 36.5v662q0 139 -84 225 q-84 90 -238 90q-110 0 -186 -45.5t-121 -112.5v97q0 20 -15.5 34.5t-35.5 14.5q-22 0 -36.5 -14.5t-14.5 -34.5v-916zM209 1321q0 14 2 22q19 89 85 144t153 55q95 0 161 -63q2 -2 16.5 -19t26 -27t19.5 -10q14 0 23.5 11.5t13.5 25.5q7 35 36 58.5t64 23.5 q43 0 73.5 -30.5t30.5 -71.5q0 -15 -2 -23q-20 -88 -86.5 -143t-152.5 -55q-108 0 -180 81q-1 1 -5.5 7.5t-9 12.5t-12.5 11.5t-16 5.5q-14 0 -23.5 -11.5t-13.5 -25.5q-7 -36 -36.5 -58.5t-66.5 -22.5q-42 0 -71 30.5t-29 71.5zM260 1321q0 -19 15 -35t36 -16 q17 0 30.5 11.5t18.5 29.5q8 34 32.5 56t56.5 22q42 0 75 -46q62 -73 148 -73q67 0 119 43t69 112q2 6 2 15q-2 21 -16 35t-35 14q-17 0 -32 -11t-19 -28q-6 -34 -31 -56t-57 -22q-42 0 -82 51q-56 68 -141 68q-66 0 -118 -42.5t-69 -111.5q0 -1 -1 -7t-1 -9z" />
<glyph unicode="&#xf2;" horiz-adv-x="1189" d="M82 543q0 253 144 413t370 160t369 -160t143 -413q0 -252 -143 -412t-369 -160t-370 160t-144 412zM135 543q0 -230 129 -374t332 -144t332 144t129 374q0 232 -129 377t-332 145t-332 -145t-129 -377zM238 543q0 189 97.5 304.5t260.5 115.5t260.5 -115.5t97.5 -304.5 q0 -187 -97.5 -301.5t-260.5 -114.5t-260.5 114.5t-97.5 301.5zM289 543q0 -166 84 -265.5t223 -99.5t222 99.5t83 265.5q0 167 -83 266.5t-222 99.5q-140 0 -223.5 -99.5t-83.5 -266.5zM436 1497q0 44 33 74.5t72 30.5q61 0 90 -56l112 -207q13 -23 13 -45q0 -45 -32 -75.5 t-71 -30.5q-28 0 -53.5 14.5t-38.5 38.5l-112 207q-13 26 -13 49zM487 1497q0 -10 7 -24l112 -205q17 -27 45 -27q19 0 35 14t16 37q0 13 -6 25l-112 205q-12 26 -45 26q-19 0 -35.5 -14t-16.5 -37z" />
<glyph unicode="&#xf3;" horiz-adv-x="1189" d="M82 543q0 253 144 413t370 160t369 -160t143 -413q0 -252 -143 -412t-369 -160t-370 160t-144 412zM135 543q0 -230 129 -374t332 -144t332 144t129 374q0 232 -129 377t-332 145t-332 -145t-129 -377zM238 543q0 189 97.5 304.5t260.5 115.5t260.5 -115.5t97.5 -304.5 q0 -187 -97.5 -301.5t-260.5 -114.5t-260.5 114.5t-97.5 301.5zM289 543q0 -166 84 -265.5t223 -99.5t222 99.5t83 265.5q0 167 -83 266.5t-222 99.5q-140 0 -223.5 -99.5t-83.5 -266.5zM436 1315q0 27 10 45l113 207q28 55 90 55q40 0 72.5 -30t32.5 -74q0 -24 -13 -50 l-112 -206q-14 -25 -38 -39.5t-52 -14.5q-40 0 -71.5 30.5t-31.5 76.5zM487 1313q0 -23 16.5 -37t33.5 -14q31 0 47 26l112 205q6 12 6 25q0 23 -16 37t-35 14q-33 0 -45 -27l-112 -205q-7 -14 -7 -24z" />
<glyph unicode="&#xf4;" horiz-adv-x="1189" d="M82 543q0 253 144 413t370 160t369 -160t143 -413q0 -252 -143 -412t-369 -160t-370 160t-144 412zM135 543q0 -230 129 -374t332 -144t332 144t129 374q0 232 -129 377t-332 145t-332 -145t-129 -377zM238 543q0 189 97.5 304.5t260.5 115.5t260.5 -115.5t97.5 -304.5 q0 -187 -97.5 -301.5t-260.5 -114.5t-260.5 114.5t-97.5 301.5zM289 543q0 -166 84 -265.5t223 -99.5t222 99.5t83 265.5q0 167 -83 266.5t-222 99.5q-140 0 -223.5 -99.5t-83.5 -266.5zM324 1323q0 46 30 76l170 162q28 28 72 28q42 0 70 -28l170 -162q30 -30 30 -76 q0 -44 -30.5 -73t-71.5 -29q-44 0 -72 28l-98 94l-96 -94q-28 -28 -72 -28q-45 0 -73.5 31.5t-28.5 70.5zM375 1325q0 -22 14.5 -36.5t36.5 -14.5q21 0 35 14l133 129l133 -129q14 -14 37 -14q20 0 34.5 14.5t14.5 36.5q0 23 -14 37l-170 162q-11 14 -35 14q-21 0 -35 -14 l-168 -162q-16 -16 -16 -37z" />
<glyph unicode="&#xf5;" horiz-adv-x="1189" d="M82 543q0 253 144 413t370 160t369 -160t143 -413q0 -252 -143 -412t-369 -160t-370 160t-144 412zM133 543q0 -231 130 -375.5t333 -144.5t331 144.5t128 375.5t-128 375.5t-331 144.5t-333 -144.5t-130 -375.5zM236 543q0 188 98 303t262 115q163 0 259.5 -114.5 t96.5 -303.5q0 -188 -96.5 -303t-259.5 -115t-261.5 115.5t-98.5 302.5zM242 1321q0 14 2 22q19 89 84.5 144t152.5 55q96 0 162 -63q2 -2 16.5 -19t26 -27t19.5 -10q14 0 23 11.5t13 25.5q7 35 36.5 58.5t64.5 23.5q43 0 73.5 -30.5t30.5 -71.5q0 -15 -2 -23 q-20 -88 -86.5 -143t-152.5 -55q-109 0 -181 81q-1 1 -5.5 7.5t-9 12.5t-12.5 11.5t-16 5.5q-14 0 -23.5 -11.5t-13.5 -25.5q-7 -36 -36 -58.5t-66 -22.5q-42 0 -71 30.5t-29 71.5zM289 543q0 -166 84 -265.5t223 -99.5t222 99.5t83 265.5q0 167 -83 266.5t-222 99.5 q-140 0 -223.5 -99.5t-83.5 -266.5zM293 1321q0 -19 15 -35t36 -16q17 0 30.5 11.5t18.5 29.5q8 34 32 56t56 22q43 0 76 -46q62 -73 148 -73q67 0 119 43t69 112q2 6 2 15q-2 21 -16 35t-35 14q-17 0 -32 -11t-19 -28q-6 -34 -31 -56t-57 -22q-42 0 -82 51q-56 68 -142 68 q-66 0 -117.5 -42.5t-68.5 -111.5q0 -1 -1 -7t-1 -9z" />
<glyph unicode="&#xf6;" horiz-adv-x="1189" d="M82 543q0 253 144 413t370 160t369 -160t143 -413q0 -252 -143 -412t-369 -160t-370 160t-144 412zM135 543q0 -230 129 -374t332 -144t332 144t129 374q0 232 -129 377t-332 145t-332 -145t-129 -377zM238 543q0 189 97.5 304.5t260.5 115.5t260.5 -115.5t97.5 -304.5 q0 -187 -97.5 -301.5t-260.5 -114.5t-260.5 114.5t-97.5 301.5zM289 543q0 -166 84 -265.5t223 -99.5t222 99.5t83 265.5q0 167 -83 266.5t-222 99.5q-140 0 -223.5 -99.5t-83.5 -266.5zM326 1296v93q0 43 30.5 72.5t73.5 29.5q42 0 72 -30t30 -72v-93q0 -41 -30.5 -71.5 t-71.5 -30.5q-43 0 -73.5 30.5t-30.5 71.5zM377 1296q0 -20 15.5 -34.5t37.5 -14.5q20 0 35.5 14.5t15.5 34.5v93q0 20 -15.5 35.5t-35.5 15.5q-22 0 -37.5 -15.5t-15.5 -35.5v-93zM657 1296v93q0 42 31 72t74 30q42 0 72 -30t30 -72v-93q0 -41 -30.5 -71.5t-71.5 -30.5 q-43 0 -74 30.5t-31 71.5zM709 1296q0 -20 15.5 -34.5t37.5 -14.5q20 0 35.5 14.5t15.5 34.5v93q0 20 -15.5 35.5t-35.5 15.5q-22 0 -37.5 -15.5t-15.5 -35.5v-93z" />
<glyph unicode="&#xf7;" horiz-adv-x="1269" d="M102 731q0 43 30 74t73 31h860q42 0 72 -31t30 -74t-29.5 -72.5t-72.5 -29.5h-860q-43 0 -73 29.5t-30 72.5zM154 731q0 -22 14.5 -36.5t36.5 -14.5h860q22 0 36.5 14.5t14.5 36.5t-14.5 36.5t-36.5 14.5h-860q-22 0 -36.5 -14.5t-14.5 -36.5zM487 303v45q0 47 34 81 t81 34h45q47 0 81 -34t34 -81v-45q0 -47 -34 -80t-81 -33h-45q-47 0 -81 33t-34 80zM487 1141v45q0 47 33.5 79.5t81.5 32.5h45q48 0 81.5 -32.5t33.5 -79.5v-45q0 -47 -34 -80t-81 -33h-45q-47 0 -81 33t-34 80zM539 303q0 -25 18 -42t45 -17h45q26 0 45 17t19 42v45 q0 26 -19 44t-45 18h-45q-28 0 -45.5 -18t-17.5 -44v-45zM539 1139q0 -25 18 -42.5t45 -17.5h45q26 0 45 18t19 44v45q0 25 -19 43t-45 18l-45 -2q-28 0 -45.5 -17.5t-17.5 -43.5v-45z" />
<glyph unicode="&#xf8;" horiz-adv-x="1189" d="M82 543q0 253 144 413t370 160q103 0 190 -35l45 78q29 51 93 51q44 0 73 -29.5t29 -72.5q0 -28 -14 -53l-54 -92q71 -76 110.5 -184.5t39.5 -235.5q0 -252 -143 -412t-369 -160q-103 0 -190 35l-41 -69q-32 -52 -89 -52q-40 0 -72 29.5t-32 73.5q0 29 14 51l47 84 q-72 76 -111.5 184.5t-39.5 235.5zM133 543q0 -129 44 -235t122 -177l-68 -119q-6 -12 -6 -24q0 -21 15 -36t36 -15q27 0 43 26l66 111q91 -49 211 -49q203 0 331 144t128 374q0 130 -42 235.5t-120 175.5l74 125q6 15 6 29q0 22 -14 36.5t-37 14.5q-29 0 -45 -26l-68 -119 q-94 49 -213 49q-203 0 -333 -144.5t-130 -375.5zM236 543q0 188 98.5 304t261.5 116q86 0 162 -37l-406 -705q-116 116 -116 322zM289 543q0 -137 57 -228l336 584q-45 10 -86 10q-140 0 -223.5 -99.5t-83.5 -266.5zM436 162l406 702q110 -116 110 -321 q0 -187 -96.5 -301.5t-259.5 -114.5q-92 0 -160 35zM510 188q45 -10 86 -10q139 0 222 99.5t83 265.5q0 139 -55 227z" />
<glyph unicode="&#xf9;" horiz-adv-x="1093" d="M125 354v647q0 43 30.5 73t73.5 30t73 -30t30 -73v-657q0 -47 26 -92q41 -74 150 -74q125 0 186 101q24 37 35.5 79.5t11.5 63.5v579q0 43 31 73t74 30q42 0 72 -30t30 -73v-915q0 -41 -30.5 -71.5t-71.5 -30.5q-31 0 -56.5 16.5t-37.5 42.5q-109 -72 -248 -72 q-174 0 -276.5 110.5t-102.5 272.5zM176 352q0 -86 35 -159t111.5 -121.5t183.5 -48.5q187 0 287 153v-90q0 -20 15.5 -35.5t35.5 -15.5q21 0 36 15t15 36v915q0 22 -14.5 37t-36.5 15q-20 0 -35.5 -15.5t-15.5 -36.5v-581q0 -24 -13.5 -73.5t-42.5 -96.5 q-78 -125 -229 -125q-141 0 -199 104q-30 57 -30 115v655q0 22 -15 37t-37 15q-21 0 -36 -15.5t-15 -36.5v-647zM334 1466q0 44 32.5 74.5t71.5 30.5q62 0 90 -55l113 -207q12 -21 12 -45q0 -45 -31.5 -76t-70.5 -31q-28 0 -53.5 14.5t-38.5 38.5l-113 207q-12 24 -12 49z M385 1466q0 -12 6 -24l113 -205q17 -27 45 -27q19 0 35 14.5t16 37.5q0 12 -6 24l-113 205q-12 27 -45 27q-19 0 -35 -14.5t-16 -37.5z" />
<glyph unicode="&#xfa;" horiz-adv-x="1093" d="M125 354v647q0 43 30.5 73t73.5 30t73 -30t30 -73v-657q0 -47 26 -92q41 -74 150 -74q125 0 186 101q24 37 35.5 79.5t11.5 63.5v579q0 43 31 73t74 30q42 0 72 -30t30 -73v-915q0 -41 -30.5 -71.5t-71.5 -30.5q-31 0 -56.5 16.5t-37.5 42.5q-109 -72 -248 -72 q-174 0 -276.5 110.5t-102.5 272.5zM176 352q0 -86 35 -159t111.5 -121.5t183.5 -48.5q187 0 287 153v-90q0 -20 15.5 -35.5t35.5 -15.5q21 0 36 15t15 36v915q0 22 -14.5 37t-36.5 15q-20 0 -35.5 -15.5t-15.5 -36.5v-581q0 -24 -13.5 -73.5t-42.5 -96.5 q-78 -125 -229 -125q-141 0 -199 104q-30 57 -30 115v655q0 22 -15 37t-37 15q-21 0 -36 -15.5t-15 -36.5v-647zM379 1264q0 28 10 45l113 207q28 55 90 55q40 0 72 -30.5t32 -74.5q0 -25 -12 -49l-113 -207q-29 -53 -90 -53q-40 0 -71 30.5t-31 76.5zM430 1262 q0 -23 16 -37.5t33 -14.5q30 0 47 27l113 205q6 12 6 24q0 23 -16 37.5t-35 14.5q-33 0 -45 -27l-113 -205q-6 -12 -6 -24z" />
<glyph unicode="&#xfb;" horiz-adv-x="1093" d="M125 354v647q0 43 30.5 73t73.5 30t73 -30t30 -73v-657q0 -47 26 -92q41 -74 150 -74q125 0 186 101q24 37 35.5 79.5t11.5 63.5v579q0 43 31 73t74 30q42 0 72 -30t30 -73v-915q0 -41 -30.5 -71.5t-71.5 -30.5q-31 0 -56.5 16.5t-37.5 42.5q-109 -72 -248 -72 q-174 0 -276.5 110.5t-102.5 272.5zM176 352q0 -86 35 -159t111.5 -121.5t183.5 -48.5q187 0 287 153v-90q0 -20 15.5 -35.5t35.5 -15.5q21 0 36 15t15 36v915q0 22 -14.5 37t-36.5 15q-20 0 -35.5 -15.5t-15.5 -36.5v-581q0 -24 -13.5 -73.5t-42.5 -96.5 q-78 -125 -229 -125q-141 0 -199 104q-30 57 -30 115v655q0 22 -15 37t-37 15q-21 0 -36 -15.5t-15 -36.5v-647zM266 1311q0 44 31 75l170 162q29 29 72 29q40 0 69 -29l170 -162q31 -31 31 -75t-30.5 -73.5t-71.5 -29.5q-43 0 -72 29l-98 94l-97 -94q-29 -29 -71 -29 q-45 0 -74 32t-29 71zM317 1313q0 -22 15 -36.5t37 -14.5q20 0 34 14l134 129l133 -129q14 -14 37 -14q20 0 34.5 14.5t14.5 36.5t-15 37l-170 161q-12 15 -34 15q-20 0 -35 -15l-168 -161q-17 -17 -17 -37z" />
<glyph unicode="&#xfc;" horiz-adv-x="1093" d="M125 354v647q0 43 30.5 73t71.5 30q43 0 74 -30.5t31 -74.5v-655q0 -47 24 -92q41 -74 152 -74q122 0 186 101q23 37 35 80t12 61v581q0 43 31 73t74 30q42 0 72 -30t30 -73v-915q0 -41 -30.5 -71.5t-71.5 -30.5q-31 0 -56.5 16.5t-37.5 42.5q-109 -72 -248 -72 q-174 0 -276.5 110.5t-102.5 272.5zM176 352q0 -86 35 -159t111.5 -121.5t183.5 -48.5q187 0 287 153v-90q0 -20 15.5 -35.5t35.5 -15.5q21 0 36 15t15 36v915q0 22 -14.5 37t-36.5 15q-20 0 -35.5 -15.5t-15.5 -36.5v-581q0 -24 -13.5 -73.5t-42.5 -96.5 q-78 -125 -229 -125q-141 0 -199 104q-30 57 -30 115v655q0 22 -15 37t-37 15q-21 0 -36 -15.5t-15 -36.5v-647zM266 1296v93q0 42 31 72t74 30q42 0 72 -30t30 -72v-93q0 -41 -30.5 -71.5t-71.5 -30.5q-43 0 -74 30.5t-31 71.5zM317 1296q0 -20 16 -34.5t38 -14.5 q20 0 35.5 14.5t15.5 34.5v93q0 20 -15.5 35.5t-35.5 15.5q-22 0 -38 -15.5t-16 -35.5v-93zM598 1296v93q0 43 30.5 72.5t73.5 29.5q42 0 72.5 -30t30.5 -72v-93q0 -41 -31 -71.5t-72 -30.5q-43 0 -73.5 30.5t-30.5 71.5zM649 1296q0 -20 15.5 -34.5t37.5 -14.5 q21 0 36.5 14.5t15.5 34.5v93q0 20 -16 35.5t-36 15.5q-22 0 -37.5 -15.5t-15.5 -35.5v-93z" />
<glyph unicode="&#xfd;" horiz-adv-x="1091" d="M66 999q0 42 28.5 73.5t73.5 31.5q30 0 56 -16.5t38 -45.5l307 -682l254 676q12 30 39 49t58 19q45 0 74.5 -31.5t29.5 -73.5q0 -19 -6 -34l-383 -1018q-55 -145 -133 -203q-74 -55 -193 -55q-50 0 -86 8q-36 7 -59 36.5t-23 65.5q0 43 32 73t73 30q13 0 27.5 -3t35.5 -3 q49 0 70 14q27 22 63 110l23 66l-391 870q-8 19 -8 43zM117 1001q0 -11 6 -20l399 -893l-30 -86q-42 -105 -82 -133q-34 -27 -101 -27q-13 0 -22.5 1t-19.5 2.5t-17 2.5q-22 2 -38.5 -12t-16.5 -37q0 -41 38 -51q33 -8 76 -8q99 0 154 41q72 48 125 184l381 1018q2 6 2 18 q0 21 -14.5 36.5t-36.5 15.5q-36 0 -48 -35l-299 -795l-358 799q-14 31 -47 31q-20 0 -35.5 -15t-15.5 -37zM403 1272q0 26 11 45l112 207q28 55 90 55q40 0 72.5 -30t32.5 -74q0 -26 -12 -50l-113 -206q-14 -25 -38 -39.5t-52 -14.5q-40 0 -71.5 30.5t-31.5 76.5zM455 1270 q0 -23 16 -37t33 -14q31 0 47 26l113 205q6 12 6 25q0 23 -16.5 37t-35.5 14q-33 0 -45 -27l-112 -205q-6 -12 -6 -24z" />
<glyph unicode="&#xfe;" horiz-adv-x="1228" d="M143 -209v1587q0 43 31 74t72 31q43 0 73.5 -31t30.5 -74v-348q119 86 268 86q213 0 340 -156.5t127 -416.5q0 -257 -130.5 -414.5t-342.5 -157.5q-152 0 -262 78v-258q0 -43 -29.5 -72.5t-72.5 -29.5t-74 30t-31 72zM195 -209q0 -21 15 -36t36 -15q22 0 36.5 14.5 t14.5 36.5v416q90 -184 315 -184q194 0 308 146t114 374q0 150 -47 266.5t-142 185t-227 68.5q-210 0 -321 -199v514q0 22 -14.5 37t-36.5 15q-20 0 -35.5 -15t-15.5 -37v-1587zM297 532q0 187 85.5 308t235.5 121q67 0 121 -24.5t89.5 -65t59.5 -95.5t34 -113t10 -120 q0 -68 -11.5 -129t-37.5 -114.5t-63.5 -92t-93 -60.5t-122.5 -22q-79 0 -140 34.5t-96.5 93t-53 129t-17.5 150.5zM350 520q0 -63 15 -122.5t44 -109t76.5 -80t106.5 -30.5q78 0 135.5 29.5t89.5 82t47 115.5t15 138q0 33 -3 66t-12 77.5t-27.5 81.5t-45.5 70t-72 52 t-101 19q-53 0 -99.5 -21.5t-85 -66t-61 -122t-22.5 -179.5z" />
<glyph unicode="&#xff;" horiz-adv-x="1091" d="M66 999q0 42 28.5 73.5t73.5 31.5q30 0 56 -16.5t38 -45.5l307 -682l254 676q12 32 38.5 50t58.5 18q46 0 75 -31t29 -72q0 -18 -6 -36l-383 -1018q-55 -145 -133 -203q-74 -55 -193 -55q-50 0 -86 8q-36 7 -59 36.5t-23 65.5q0 43 32 73t73 30q13 0 27.5 -3t35.5 -3 q49 0 70 14q27 22 63 110l23 66l-391 872q-8 16 -8 41zM117 1001q0 -11 6 -20l399 -893l-30 -86q-42 -105 -82 -133q-34 -27 -101 -27q-13 0 -22.5 1t-19.5 2.5t-17 2.5q-22 2 -38.5 -12t-16.5 -37q0 -41 38 -51q33 -8 76 -8q99 0 154 41q72 48 125 184l381 1018q2 6 2 18 q0 21 -14.5 36.5t-36.5 15.5q-36 0 -48 -35l-299 -795l-358 799q-14 31 -47 31q-20 0 -35.5 -15t-15.5 -37zM260 1321v92q0 43 31 73t74 30q41 0 71.5 -30t30.5 -73v-92q0 -41 -30.5 -71.5t-71.5 -30.5q-43 0 -74 30.5t-31 71.5zM311 1321q0 -20 16 -34.5t38 -14.5 q20 0 35.5 14.5t15.5 34.5v92q0 20 -15.5 35.5t-35.5 15.5q-22 0 -38 -15.5t-16 -35.5v-92zM592 1321v92q0 43 30.5 73t73.5 30q42 0 72.5 -30.5t30.5 -72.5v-92q0 -41 -31 -71.5t-72 -30.5q-43 0 -73.5 30.5t-30.5 71.5zM643 1321q0 -20 15.5 -34.5t37.5 -14.5 q21 0 36.5 14.5t15.5 34.5v92q0 20 -16 35.5t-36 15.5q-22 0 -37.5 -15.5t-15.5 -35.5v-92z" />
<glyph unicode="&#x152;" horiz-adv-x="2199" d="M102 731q0 221 73 394t205.5 269.5t301.5 96.5q221 0 377 -162v33q0 42 30 72t72 30h834q42 0 72 -30t30 -72q0 -43 -30 -74t-72 -31h-731v-378h665q43 0 74 -31t31 -74q0 -42 -31 -72t-74 -30h-665v-13v-452h751q43 0 73 -31t30 -74t-30 -72.5t-73 -29.5h-854 q-43 0 -72.5 29.5t-29.5 72.5v29q-154 -160 -377 -160q-169 0 -301 96t-205.5 269t-73.5 395zM154 731q0 -209 67 -370.5t187 -249.5t272 -88q136 0 247.5 70t182.5 198v-187q0 -22 14.5 -36.5t36.5 -14.5h852q22 0 36.5 14.5t14.5 36.5q0 21 -15 36.5t-36 15.5h-801v567 h717q22 0 36.5 14.5t14.5 36.5t-14.5 36.5t-36.5 14.5h-719v486h783q22 0 36.5 14.5t14.5 36.5q0 21 -15 36t-36 15h-832q-21 0 -36 -15t-15 -36v-191q-71 127 -182 197t-248 70q-231 0 -378.5 -196t-147.5 -511zM254 731q0 264 118.5 434t307.5 170q193 0 311.5 -169.5 t118.5 -434.5t-118.5 -435.5t-311.5 -170.5q-125 0 -222.5 78.5t-150.5 216t-53 311.5zM307 731q0 -244 105 -398.5t270 -154.5q167 0 272 154t105 399t-105 399t-272 154q-165 0 -270 -154.5t-105 -398.5z" />
<glyph unicode="&#x153;" horiz-adv-x="1970" d="M82 543q0 253 144 413t370 160q129 0 235.5 -55.5t174.5 -155.5q26 39 61 74q64 64 151.5 100.5t188.5 36.5q201 0 326 -125q146 -149 155 -430q0 -45 -28 -76q-30 -30 -74 -30h-672q19 -132 97.5 -204.5t205.5 -72.5q37 0 70.5 7.5t69 25t64 53.5t44.5 86q10 33 38 52.5 t62 19.5q42 0 72.5 -29t30.5 -71q0 -15 -6 -33q-46 -149 -164 -233.5t-281 -84.5q-135 0 -241.5 53.5t-174.5 153.5q-68 -98 -173 -152.5t-232 -54.5q-226 0 -370 160t-144 412zM133 543q0 -229 130 -373.5t333 -144.5q137 0 243 69t162 191q54 -125 161 -192.5t255 -67.5 t250.5 73.5t144.5 204.5l3 16q0 23 -15 37.5t-37 14.5q-15 0 -29 -10t-20 -27q-32 -104 -111 -155.5t-186 -51.5q-165 0 -258.5 103t-101.5 276h729q22 0 35 16q14 14 14 37q-6 250 -131 387q-111 117 -297 117q-96 0 -174 -35t-131 -86q-60 -63 -96 -143 q-58 125 -165 195.5t-245 70.5q-203 0 -333 -145.5t-130 -376.5zM236 543q0 188 98.5 304t261.5 116q164 -1 260 -115.5t96 -306.5q0 -188 -97 -301.5t-259 -112.5q-163 0 -261.5 114.5t-98.5 301.5zM289 543q0 -166 84 -265.5t223 -99.5t222 99.5t83 265.5q0 167 -83 266.5 t-222 99.5q-140 0 -223.5 -99.5t-83.5 -266.5zM1061 608q13 161 109.5 258t234.5 97q149 0 229.5 -92.5t94.5 -262.5h-668zM1120 662h551q-24 127 -86.5 187t-177.5 60q-108 0 -184.5 -66t-102.5 -181z" />
<glyph unicode="&#x178;" horiz-adv-x="1275" d="M41 1380q0 44 32 73.5t72 29.5q50 0 82 -43l412 -570l410 570q32 43 84 43q40 0 71 -28.5t31 -72.5q0 -40 -18 -63l-476 -660v-573q0 -43 -30.5 -72.5t-73.5 -29.5q-42 0 -72 30t-30 72v573l-474 660q-20 26 -20 61zM92 1380q0 -17 10 -30l484 -672v-592 q0 -22 14.5 -35.5t36.5 -13.5t36.5 13.5t14.5 35.5v592l486 672q8 13 8 30q0 23 -15.5 37.5t-36.5 14.5q-24 0 -40 -23l-453 -627l-453 627q-16 23 -41 23q-21 0 -36 -15t-15 -37zM369 1507v92q0 43 30.5 73t73.5 30q41 0 71.5 -30t30.5 -73v-92q0 -41 -30.5 -71.5 t-71.5 -30.5q-43 0 -73.5 30.5t-30.5 71.5zM420 1507q0 -20 15.5 -34.5t37.5 -14.5q20 0 35.5 14.5t15.5 34.5v92q0 20 -15.5 36t-35.5 16q-21 0 -37 -15.5t-16 -36.5v-92zM700 1507v92q0 43 31 73t74 30q41 0 71.5 -30t30.5 -73v-92q0 -41 -30.5 -71.5t-71.5 -30.5 q-43 0 -74 30.5t-31 71.5zM752 1507q0 -20 15.5 -34.5t37.5 -14.5q20 0 35.5 14.5t15.5 34.5v92q0 20 -15.5 36t-35.5 16q-21 0 -37 -15.5t-16 -36.5v-92z" />
<glyph unicode="&#x2c6;" horiz-adv-x="952" d="M205 1585q0 45 31 76l170 162q28 28 71 28q42 0 70 -28l170 -162q31 -31 31 -76q0 -44 -31 -73t-72 -29q-44 0 -72 28l-98 95l-96 -95q-28 -28 -72 -28q-45 0 -73.5 31.5t-28.5 70.5zM256 1587q0 -22 14.5 -36.5t36.5 -14.5q21 0 35 14l133 129l133 -129q14 -14 37 -14 q20 0 34.5 14.5t14.5 36.5q0 23 -14 37l-170 162q-11 14 -35 14q-21 0 -35 -14l-168 -162q-16 -16 -16 -37z" />
<glyph unicode="&#x2dc;" horiz-adv-x="1228" d="M268 1585q0 15 2 23q19 89 85 143.5t153 54.5q96 0 162 -63q3 -3 17 -19.5t25 -26t19 -9.5q14 0 24 11t13 25q7 35 36 58.5t64 23.5q44 0 74.5 -31t30.5 -71q0 -15 -2 -23q-20 -88 -87 -143t-153 -55q-107 0 -180 82q-1 1 -5.5 7.5t-9 12.5t-12.5 11.5t-16 5.5 q-14 0 -23.5 -11.5t-13.5 -25.5q-7 -36 -36 -59t-66 -23q-42 0 -71.5 30.5t-29.5 71.5zM319 1585q0 -19 15.5 -35t36.5 -16q17 0 30.5 11.5t18.5 29.5q8 34 32 56t56 22q44 0 76 -45q62 -74 147 -74q67 0 119.5 43.5t69.5 112.5q2 6 2 14q-2 21 -16.5 35t-35.5 14 q-17 0 -32 -11t-19 -28q-6 -34 -31 -56t-57 -22q-41 0 -82 52q-56 67 -141 67q-66 0 -117.5 -42t-68.5 -111l-2 -7q-1 -7 -1 -10z" />
<glyph unicode="&#x2000;" horiz-adv-x="956" />
<glyph unicode="&#x2001;" horiz-adv-x="1913" />
<glyph unicode="&#x2002;" horiz-adv-x="956" />
<glyph unicode="&#x2003;" horiz-adv-x="1913" />
<glyph unicode="&#x2004;" horiz-adv-x="637" />
<glyph unicode="&#x2005;" horiz-adv-x="478" />
<glyph unicode="&#x2006;" horiz-adv-x="318" />
<glyph unicode="&#x2007;" horiz-adv-x="318" />
<glyph unicode="&#x2008;" horiz-adv-x="239" />
<glyph unicode="&#x2009;" horiz-adv-x="382" />
<glyph unicode="&#x200a;" horiz-adv-x="106" />
<glyph unicode="&#x2010;" horiz-adv-x="901" d="M102 614q0 43 30 74t73 31h491q43 0 73 -31t30 -74t-30 -72.5t-73 -29.5h-491q-43 0 -73 29.5t-30 72.5zM154 614q0 -22 14.5 -35.5t36.5 -13.5h491q22 0 37 14t15 35q0 22 -15 38t-37 16h-491q-21 0 -36 -16t-15 -38z" />
<glyph unicode="&#x2011;" horiz-adv-x="901" d="M102 614q0 43 30 74t73 31h491q43 0 73 -31t30 -74t-30 -72.5t-73 -29.5h-491q-43 0 -73 29.5t-30 72.5zM154 614q0 -22 14.5 -35.5t36.5 -13.5h491q22 0 37 14t15 35q0 22 -15 38t-37 16h-491q-21 0 -36 -16t-15 -38z" />
<glyph unicode="&#x2012;" horiz-adv-x="901" d="M102 614q0 43 30 74t73 31h491q43 0 73 -31t30 -74t-30 -72.5t-73 -29.5h-491q-43 0 -73 29.5t-30 72.5zM154 614q0 -22 14.5 -35.5t36.5 -13.5h491q22 0 37 14t15 35q0 22 -15 38t-37 16h-491q-21 0 -36 -16t-15 -38z" />
<glyph unicode="&#x2013;" horiz-adv-x="1269" d="M102 614q0 43 30 74t73 31h860q42 0 72 -31t30 -74t-29.5 -72.5t-72.5 -29.5h-860q-43 0 -73 29.5t-30 72.5zM154 614q0 -22 14.5 -35.5t36.5 -13.5h860q22 0 36.5 13.5t14.5 35.5t-15 38t-36 16h-860q-21 0 -36 -16t-15 -38z" />
<glyph unicode="&#x2014;" horiz-adv-x="1964" d="M102 614q0 43 30 74t73 31h1554q43 0 73 -31t30 -74t-30 -72.5t-73 -29.5h-1554q-43 0 -73 29.5t-30 72.5zM154 614q0 -22 14.5 -35.5t36.5 -13.5h1554q21 -1 35 13t14 36t-13.5 37.5t-35.5 16.5h-1554q-21 0 -36 -16t-15 -38z" />
<glyph unicode="&#x2018;" horiz-adv-x="493" d="M111 1137q0 268 157 344q23 10 45 10q45 0 74 -31.5t29 -70.5q0 -30 -15.5 -56t-44.5 -39q-22 -13 -32 -73q-4 -22 -5.5 -46t-1 -37t2.5 -36.5t2 -26.5q2 -40 -29 -71t-76 -31q-33 0 -61 19.5t-37 51.5q-8 24 -8 93zM162 1137q0 -61 6 -76q10 -37 49 -37q23 0 38 14.5 t13 34.5q0 6 -2 34t-1.5 59t5.5 63q8 46 26.5 74.5t37.5 37.5q31 14 31 48q0 21 -14.5 36t-37.5 15q-7 0 -22 -6q-129 -61 -129 -297z" />
<glyph unicode="&#x2019;" d="M57 1075q0 29 16 55t44 39q22 13 35 74q5 28 5.5 55.5t-1.5 55t-2 35.5q-2 41 27.5 71.5t74.5 30.5q34 0 62 -20t38 -52q9 -27 9 -92q0 -267 -160 -344q-23 -10 -43 -10q-47 0 -76 31t-29 71zM109 1073q0 -21 14 -36t37 -15q7 0 22 6q129 61 129 299q0 58 -6 76 q-4 17 -18 27t-31 8q-23 0 -38 -14.5t-13 -34.5q0 -5 2 -33t1.5 -59t-5.5 -64q-8 -46 -27 -75t-37 -38q-30 -13 -30 -47z" />
<glyph unicode="&#x201a;" d="M57 -96q0 29 16 55t44 39q22 13 35 76q5 28 5.5 55.5t-1.5 54t-2 33.5q-2 41 28 73t74 32q34 0 62 -20.5t38 -53.5q9 -27 9 -90q0 -269 -160 -346q-26 -11 -43 -11q-47 0 -76 31.5t-29 71.5zM109 -96q0 -21 14 -36t37 -15q7 0 22 6q129 61 129 297q0 60 -6 75 q-10 37 -49 37q-23 0 -38 -14.5t-13 -34.5q0 -6 2 -34t1.5 -59t-5.5 -63q-8 -46 -26.5 -74.5t-37.5 -37.5q-30 -13 -30 -47z" />
<glyph unicode="&#x201c;" horiz-adv-x="755" d="M111 1137q0 268 157 344q23 10 45 10q45 0 74 -31.5t29 -70.5q0 -30 -15.5 -56t-44.5 -39q-22 -13 -32 -73q-4 -22 -5.5 -46t-1 -37t2.5 -36.5t2 -26.5q2 -40 -29 -71t-76 -31q-33 0 -61 19.5t-37 51.5q-8 24 -8 93zM162 1137q0 -61 6 -76q10 -37 49 -37q23 0 38 14.5 t13 34.5q0 6 -2 34t-1.5 59t5.5 63q8 46 26.5 74.5t37.5 37.5q31 14 31 48q0 21 -14.5 36t-37.5 15q-7 0 -22 -6q-129 -61 -129 -297zM393 1137q0 268 158 344q23 10 45 10q45 0 73.5 -31.5t28.5 -70.5q0 -30 -15.5 -56t-43.5 -39q-23 -14 -33 -73q-4 -22 -5.5 -46t-1 -37 t2.5 -36.5t2 -26.5q2 -41 -28.5 -71.5t-75.5 -30.5q-33 0 -61.5 20t-37.5 51q-8 24 -8 93zM444 1137q0 -59 7 -76q10 -37 49 -37q23 0 38 14.5t13 34.5q0 6 -2 34t-1.5 59t5.5 63q16 88 63 112q31 14 31 48q0 21 -14 36t-37 15q-8 0 -23 -6q-129 -61 -129 -297z" />
<glyph unicode="&#x201d;" horiz-adv-x="755" d="M57 1075q0 29 16 55t44 39q22 13 35 74q5 28 5.5 55.5t-1.5 55t-2 35.5q-2 41 27.5 71.5t74.5 30.5q34 0 62 -20t38 -52q9 -27 9 -92q0 -267 -160 -344q-23 -10 -43 -10q-47 0 -76 31t-29 71zM109 1073q0 -21 14 -36t37 -15q7 0 22 6q129 61 129 299q0 58 -6 76 q-4 17 -18 27t-31 8q-23 0 -38 -14.5t-13 -34.5q0 -5 2 -33t1.5 -59t-5.5 -64q-8 -46 -27 -75t-37 -38q-30 -13 -30 -47zM340 1075q0 30 16 55.5t43 38.5q22 13 35 74q5 28 5.5 55.5t-1.5 55t-2 35.5q-2 41 28 71.5t75 30.5q34 0 62 -20t38 -52q8 -24 8 -92 q0 -267 -160 -344q-23 -10 -43 -10q-47 0 -75.5 31t-28.5 71zM391 1073q0 -21 14 -36t37 -15q8 0 23 6q129 61 129 299q0 58 -6 76q-9 35 -49 35q-23 0 -38.5 -14.5t-13.5 -34.5q0 -5 2 -33t1.5 -59t-5.5 -64q-8 -46 -26.5 -75t-36.5 -38q-31 -14 -31 -47z" />
<glyph unicode="&#x201e;" horiz-adv-x="755" d="M57 -96q0 29 16 55t44 39q22 13 35 76q5 28 5.5 55.5t-1.5 54t-2 33.5q-2 41 28 73t74 32q34 0 62 -20.5t38 -53.5q9 -27 9 -90q0 -269 -160 -346q-26 -11 -43 -11q-47 0 -76 31.5t-29 71.5zM109 -96q0 -21 14 -36t37 -15q7 0 22 6q129 61 129 297q0 60 -6 75 q-10 37 -49 37q-23 0 -38 -14.5t-13 -34.5q0 -6 2 -34t1.5 -59t-5.5 -63q-8 -46 -26.5 -74.5t-37.5 -37.5q-30 -13 -30 -47zM340 -96q0 30 16 55.5t43 38.5q22 13 35 76q5 28 5.5 55.5t-1.5 54t-2 33.5q-2 41 28 73t75 32q34 0 62 -20.5t38 -53.5q8 -24 8 -90 q0 -269 -160 -346q-26 -11 -43 -11q-47 0 -75.5 31.5t-28.5 71.5zM391 -96q0 -21 14 -36t37 -15q8 0 23 6q129 61 129 297q0 60 -6 75q-10 37 -49 37q-23 0 -38.5 -14.5t-13.5 -34.5q0 -6 2 -34t1.5 -59t-5.5 -63q-16 -88 -63 -112q-31 -14 -31 -47z" />
<glyph unicode="&#x2022;" horiz-adv-x="589" d="M74 666q0 91 65.5 156t157.5 65q91 0 155 -65t64 -156t-64 -155.5t-155 -64.5q-92 0 -157.5 64.5t-65.5 155.5zM127 666q0 -69 49.5 -117.5t120.5 -48.5q69 0 118.5 48.5t49.5 117.5t-49.5 119.5t-118.5 50.5q-70 0 -120 -50.5t-50 -119.5z" />
<glyph unicode="&#x2026;" horiz-adv-x="2168" d="M307 96v45q0 47 34 81t81 34h45q47 0 82 -34t35 -81v-45q0 -47 -34.5 -79.5t-82.5 -32.5h-45q-48 0 -81.5 32.5t-33.5 79.5zM360 96q0 -26 18 -43.5t44 -17.5h45q26 0 44.5 17.5t18.5 43.5v45q0 26 -18.5 44t-44.5 18h-45q-26 0 -44 -18t-18 -44v-45zM942 96v45 q0 47 34 81t81 34h45q47 0 82 -34t35 -81v-45q0 -47 -34.5 -79.5t-82.5 -32.5h-45q-48 0 -81.5 32.5t-33.5 79.5zM995 96q0 -26 18 -43.5t44 -17.5h45q26 0 44.5 17.5t18.5 43.5v45q0 26 -18.5 44t-44.5 18h-45q-26 0 -44 -18t-18 -44v-45zM1587 96v45q0 47 34 81t81 34h45 q47 0 81 -34t34 -81v-45q0 -47 -33.5 -79.5t-81.5 -32.5h-45q-48 0 -81.5 32.5t-33.5 79.5zM1638 96q0 -26 18 -43.5t46 -17.5h45q26 0 44.5 17.5t18.5 43.5v45q0 26 -18.5 44t-44.5 18h-45q-28 0 -46 -18t-18 -44v-45z" />
<glyph unicode="&#x202f;" horiz-adv-x="382" />
<glyph unicode="&#x2039;" horiz-adv-x="692" d="M123 582q0 50 37 77l239 205q28 25 66 25q45 0 74.5 -30.5t29.5 -72.5q0 -49 -37 -79l-147 -125l147 -125q37 -30 37 -80q0 -42 -29.5 -72.5t-74.5 -30.5q-38 0 -66 25l-239 203q-37 30 -37 80zM174 582q0 -26 19 -39l239 -203q18 -14 33 -14q23 0 37 15.5t14 37.5 q0 26 -16 37l-195 166l195 166q18 15 18 40q0 20 -14.5 35t-36.5 15q-17 0 -33 -13l-241 -204q-19 -16 -19 -39z" />
<glyph unicode="&#x203a;" horiz-adv-x="692" d="M123 377q0 50 37 80l147 125l-147 125q-37 30 -37 79q0 42 29.5 72.5t74.5 30.5q38 0 66 -25l239 -205q37 -27 37 -77t-37 -80l-239 -203q-28 -25 -66 -25q-45 0 -74.5 30.5t-29.5 72.5zM174 379q0 -22 15 -37.5t38 -15.5q15 0 33 14l240 203q18 12 18 39q0 24 -18 39 l-242 204q-16 13 -33 13q-22 0 -36.5 -15t-14.5 -35q0 -24 19 -40l194 -166l-194 -166q-19 -13 -19 -37z" />
<glyph unicode="&#x205f;" horiz-adv-x="478" />
<glyph unicode="&#x20ac;" horiz-adv-x="1452" d="M102 578q0 31 23 53t55 22h137q-4 70 -4 146h-133q-32 0 -55 23t-23 55q0 31 23 53t55 22h148q30 204 127 346q75 108 183.5 165t238.5 57q150 0 267.5 -74t188.5 -205q13 -21 13 -49q0 -49 -32.5 -77t-70.5 -28q-61 0 -90 56q-93 170 -276 170q-76 0 -136.5 -29.5 t-100 -82t-64.5 -114t-39 -135.5h460q32 0 55 -22t23 -53q0 -32 -23 -55t-55 -23h-477q0 -76 4 -146h377q31 0 53.5 -22t22.5 -53q0 -32 -22.5 -55t-53.5 -23h-350q38 -145 120 -219t203 -74q191 0 281 170q28 55 90 55q40 0 72.5 -30t32.5 -74q0 -23 -13 -49 q-72 -134 -191.5 -206.5t-271.5 -72.5q-411 0 -536 500h-158q-32 0 -55 23t-23 55zM137 578q0 -19 12 -31t29 -12h205q21 -103 58 -187t94.5 -152.5t143 -106.5t193.5 -38q137 0 244.5 65t173.5 187q6 12 6 25q0 21 -13 34.5t-32 16.5q-34 3 -51 -27q-105 -196 -328 -196 q-156 0 -252 102t-133 277h412q17 0 29 12t12 31q0 17 -12 28.5t-29 11.5h-424q-12 103 -6 216h528q17 0 29 12t12 31q0 17 -12 29t-29 12h-520q12 91 40.5 168.5t75 142t119 101t162.5 36.5q213 0 324 -199q16 -29 51 -26q17 2 30 15.5t13 35.5q0 17 -6 25 q-65 121 -170.5 185t-241.5 64q-239 0 -376 -196q-98 -137 -123 -352h-197q-17 0 -29 -12t-12 -29q0 -19 12 -31t29 -12h189q-6 -113 6 -216h-195q-17 0 -29 -11.5t-12 -28.5z" />
<glyph unicode="&#x2122;" horiz-adv-x="1650" d="M102 1411q0 27 22.5 49.5t49.5 22.5h471q28 0 50 -22t22 -50q0 -29 -22 -50.5t-50 -21.5h-164v-559q0 -29 -21.5 -50t-49.5 -21q-29 0 -49.5 21.5t-20.5 49.5v559h-166q-27 0 -49.5 21.5t-22.5 50.5zM133 1411q0 -17 12.5 -29t28.5 -12h197v-590q0 -17 12 -29t29 -12 q14 0 26.5 12t12.5 29v590h194q16 0 28.5 12t12.5 29t-12.5 29t-28.5 12h-471q-14 0 -27.5 -12.5t-13.5 -28.5zM819 780v631q0 28 21.5 50t50.5 22h55q20 0 39.5 -13.5t26.5 -33.5l170 -447l170 445q6 21 25.5 35t41.5 14h58q25 0 48 -22.5t23 -49.5v-631q0 -28 -22.5 -49.5 t-48.5 -21.5q-29 0 -50.5 21t-21.5 50v391l-156 -411q-8 -18 -26.5 -30.5t-38.5 -12.5q-22 0 -42 13t-26 32l-153 405v-387q0 -28 -23 -49.5t-49 -21.5q-29 0 -50.5 21t-21.5 50zM850 780q0 -16 12 -28.5t29 -12.5q15 0 28 13t13 28v555l2 2l211 -565q3 -9 14.5 -16.5 t24.5 -7.5q25 0 37 24l213 569h2v-561q0 -16 12 -28.5t29 -12.5q15 0 28 13t13 28v631q0 15 -13.5 28t-27.5 13h-58q-11 0 -22.5 -7.5t-14.5 -17.5l-200 -524l-199 522q-5 11 -16 19t-21 8h-55q-15 0 -28 -13t-13 -28v-631z" />
<glyph unicode="&#xe000;" horiz-adv-x="1105" d="M0 0v1106h1106v-1106h-1106z" />
</font>
</defs>
</svg>
