<?xml version="1.0" standalone="no"?>
<!DOCTYPE svg PUBLIC "-//W3C//DTD SVG 1.1//EN" "http://www.w3.org/Graphics/SVG/1.1/DTD/svg11.dtd" >
<svg xmlns="http://www.w3.org/2000/svg">
<metadata></metadata>
<defs>
<font id="albrecht101" horiz-adv-x="1388" >
<font-face units-per-em="2048" ascent="1638" descent="-410" />
<missing-glyph horiz-adv-x="512" />
<glyph unicode="&#xfb01;" horiz-adv-x="1067" d="M20 985q0 42 31 72t74 30h37v119q0 137 78 209q77 68 217 68h32q43 -2 72.5 -33t28.5 -74q-2 -43 -33 -72t-74 -28q-85 5 -104 -14q-10 -7 -10 -56v-119h120q42 0 72.5 -30t30.5 -72q0 -43 -31 -73.5t-72 -30.5h-120v-793q0 -43 -31 -73.5t-74 -30.5t-72.5 30.5 t-29.5 73.5v793h-37q-43 0 -74 30.5t-31 73.5zM735 86v915q0 43 31 73t74 30q42 0 72 -30t30 -73v-915q0 -41 -30.5 -71.5t-71.5 -30.5q-43 0 -74 30.5t-31 71.5zM735 1270v92q0 42 31 72t74 30q42 0 72 -30t30 -72v-92q0 -41 -30.5 -72t-71.5 -31q-43 0 -74 31t-31 72z" />
<glyph unicode="&#xfb02;" horiz-adv-x="1085" d="M20 985q0 42 31 72t74 30h37v119q0 137 78 209q77 68 217 68h32q43 -2 72.5 -33t28.5 -74q-2 -43 -33 -72t-74 -28q-85 5 -104 -14q-10 -7 -10 -56v-119h120q42 0 72.5 -30t30.5 -72q0 -43 -31 -73.5t-72 -30.5h-120v-793q0 -43 -31 -73.5t-74 -30.5t-72.5 30.5 t-29.5 73.5v793h-37q-43 0 -74 30.5t-31 73.5zM735 86v1292q0 43 31 74t72 31q43 0 73.5 -31t30.5 -74v-1292q0 -43 -30.5 -72.5t-73.5 -29.5q-42 0 -72.5 30t-30.5 72z" />
<glyph horiz-adv-x="2048" />
<glyph horiz-adv-x="2048" />
<glyph horiz-adv-x="682" />
<glyph unicode="&#xd;" horiz-adv-x="307" />
<glyph unicode=" "  horiz-adv-x="512" />
<glyph unicode="&#x09;" horiz-adv-x="512" />
<glyph unicode="&#xa0;" horiz-adv-x="512" />
<glyph unicode="!" horiz-adv-x="460" d="M94 96v45q0 47 34 81t81 34h45q47 0 82 -34t35 -81v-45q0 -47 -34.5 -79.5t-82.5 -32.5h-45q-48 0 -81.5 32.5t-33.5 79.5zM133 424v960q0 43 30 74t73 31q42 0 72 -31t30 -74v-960q0 -43 -29.5 -72.5t-72.5 -29.5t-73 29.5t-30 72.5z" />
<glyph unicode="&#x22;" horiz-adv-x="716" d="M123 1147v233q0 43 30.5 73t73.5 30q42 0 72.5 -30.5t30.5 -72.5v-233q0 -42 -30.5 -72.5t-72.5 -30.5q-43 0 -73.5 30t-30.5 73zM387 1147v233q0 43 31 73t74 30q42 0 72 -30.5t30 -72.5v-233q0 -43 -30 -73t-72 -30q-43 0 -74 30t-31 73z" />
<glyph unicode="#" horiz-adv-x="1247" d="M104 555q0 42 31 72t74 30h104l29 211h-72q-43 0 -73.5 31t-30.5 74t30.5 72.5t73.5 29.5h101l43 320q4 39 33.5 64.5t68.5 25.5q49 0 78.5 -36t23.5 -83l-38 -291h159l43 320q4 39 34 64.5t69 25.5q49 0 78.5 -36t23.5 -83l-39 -291h103q43 0 73.5 -29.5t30.5 -72.5 t-30.5 -74t-73.5 -31h-131l-29 -211h98q43 0 74 -30t31 -72q0 -43 -31 -73.5t-74 -30.5h-127l-51 -377q-6 -40 -35 -65t-67 -25q-42 0 -76.5 33.5t-26.5 84.5l47 349h-159l-52 -377q-6 -40 -35 -65t-67 -25q-42 0 -76 33.5t-26 84.5l47 349h-76q-43 0 -74 30.5t-31 73.5z M522 657h160l29 211h-160z" />
<glyph unicode="$" horiz-adv-x="1343" d="M102 449q-5 46 26.5 81t78.5 35q39 0 68.5 -26.5t33.5 -65.5q26 -228 256 -280v491q-184 39 -262 88q-151 93 -151 299q0 169 114 279t299 135v131q0 42 31 72t74 30q42 0 72 -30t30 -72v-133q172 -24 283 -125.5t141 -272.5q0 -3 1 -9t1 -9q0 -42 -30 -73t-74 -31 q-37 0 -66 24.5t-35 61.5q-36 187 -221 225v-420q82 -16 117.5 -24t93.5 -27.5t98 -44.5q164 -103 164 -328q0 -195 -131 -316.5t-342 -140.5v-118q0 -43 -30 -73t-72 -30q-43 0 -74 30t-31 73v127q-193 33 -316 153t-147 314zM358 1071q0 -55 14.5 -81.5t39.5 -41.5 q46 -30 153 -53v381q-94 -19 -150.5 -69.5t-56.5 -135.5zM772 182q122 12 194 75.5t72 172.5q0 114 -67 152q-49 32 -199 61v-461z" />
<glyph unicode="%" horiz-adv-x="1751" d="M102 1104q0 165 78 266q86 113 232 113t231 -111q76 -102 76 -268q0 -170 -76 -268q-83 -109 -233 -109q-147 0 -230 109q-78 101 -78 268zM256 1104q0 -113 45 -174q40 -49 109 -49q74 0 110 47q45 57 45 176q0 117 -45 174q-39 51 -108 51q-49 0 -82.5 -24.5t-48 -64 t-20 -71.5t-5.5 -65zM356 78q0 22 15 43l915 1343q23 33 64 33q30 0 52.5 -22.5t22.5 -55.5q0 -22 -12 -43l-917 -1343q-23 -33 -64 -33q-30 0 -53 22.5t-23 55.5zM1032 360q0 166 78 267q86 112 231 112q148 0 232 -110q76 -102 76 -269q0 -170 -76 -268 q-83 -108 -234 -108q-147 0 -229 108q-78 101 -78 268zM1186 360q0 -113 45 -174q40 -49 108 -49q75 0 111 47q45 57 45 176q0 118 -45 175q-39 51 -109 51q-40 0 -69.5 -17.5t-45.5 -42t-25.5 -58t-12 -58.5t-2.5 -50z" />
<glyph unicode="&#x26;" horiz-adv-x="1368" d="M102 414q0 88 25 160t74.5 128t100 95t122.5 82q-55 72 -78.5 139t-23.5 145q0 142 90 235t225 93q134 0 221.5 -92.5t87.5 -237.5q0 -204 -205 -344l226 -289q16 62 16 138q0 44 31.5 75t75.5 31t76 -31t32 -75q0 -184 -74 -340l119 -154q23 -29 23 -68q0 -50 -32 -78 t-75 -28q-53 0 -86 41l-78 100q-157 -168 -407 -168q-92 0 -178 29t-155.5 83t-111 140t-41.5 191zM317 414q0 -51 19 -91.5t47.5 -65t66 -41t71.5 -22.5t67 -6q97 0 165.5 36.5t106.5 88.5l-305 392q-138 -80 -188 -141t-50 -150zM539 1163q0 -45 14.5 -82t56.5 -92 q69 47 94 86t25 86q0 26 -5 48.5t-27 44.5t-60 22q-43 0 -70.5 -32.5t-27.5 -80.5z" />
<glyph unicode="'" horiz-adv-x="452" d="M123 1147v233q0 43 30.5 73t73.5 30q42 0 72.5 -30.5t30.5 -72.5v-233q0 -42 -30.5 -72.5t-72.5 -30.5q-43 0 -73.5 30t-30.5 73z" />
<glyph unicode="(" horiz-adv-x="716" d="M123 616q0 209 69 420t189 369q35 49 55 63.5t53 14.5q40 0 72.5 -28t32.5 -75q0 -40 -47 -98q-101 -138 -159 -310t-58 -356q0 -380 225 -735q28 -44 33.5 -55.5t5.5 -32.5q0 -45 -32 -74.5t-73 -29.5q-13 0 -23.5 2t-19.5 7t-15.5 9t-14 13.5t-11 13.5t-11.5 16.5 t-11 16.5q-29 45 -57.5 95t-67 137t-67 175.5t-48.5 206.5t-20 235z" />
<glyph unicode=")" horiz-adv-x="716" d="M123 1380q0 46 32.5 74.5t71.5 28.5q33 0 54 -14.5t57 -63.5q119 -159 187.5 -369.5t68.5 -419.5q0 -144 -28 -285.5t-73.5 -252t-83 -182.5t-75.5 -129q-2 -2 -11 -16t-11.5 -17t-11 -13.5t-14.5 -13.5t-15.5 -8.5t-20 -7.5t-23.5 -2q-39 0 -70.5 29.5t-31.5 74.5 q0 21 5 32t32 56q225 355 225 735q0 185 -57 357t-158 309q-16 20 -24.5 31.5t-16.5 30.5t-8 36z" />
<glyph unicode="*" horiz-adv-x="722" d="M102 1286q0 25 17 40t39 15q14 0 20 -4l119 -43v133q0 23 16 39.5t39 16.5q25 0 41.5 -16.5t16.5 -39.5v-133l137 45q6 2 18 2q23 0 39.5 -15.5t16.5 -39.5q0 -19 -10.5 -34t-28.5 -19l-140 -47l99 -135q10 -12 10 -33q0 -24 -16.5 -39.5t-38.5 -15.5q-31 0 -45 22 l-99 133l-96 -133q-16 -22 -45 -22q-23 0 -40 15.5t-17 37.5q0 20 12 35l98 135l-125 47q-37 13 -37 53z" />
<glyph unicode="+" horiz-adv-x="1085" d="M84 668q0 43 29.5 72.5t72.5 29.5h252v252q0 42 31 73t72 31q43 0 73.5 -30.5t30.5 -73.5v-252h252q43 0 72.5 -29.5t29.5 -72.5t-30 -74t-72 -31h-252v-252q0 -43 -30.5 -72.5t-73.5 -29.5q-42 0 -72.5 30t-30.5 72v252h-252q-42 0 -72 31t-30 74z" />
<glyph unicode="," horiz-adv-x="473" d="M57 -96q0 29 16 55t44 39q22 13 35 76q5 28 5.5 55.5t-1.5 54t-2 33.5q-2 41 28 73t74 32q34 0 62 -20.5t38 -53.5q9 -27 9 -90q0 -269 -160 -346q-26 -11 -43 -11q-47 0 -76 31.5t-29 71.5z" />
<glyph unicode="-" horiz-adv-x="901" d="M102 614q0 43 30 74t73 31h491q43 0 73 -31t30 -74t-30 -72.5t-73 -29.5h-491q-43 0 -73 29.5t-30 72.5z" />
<glyph unicode="." horiz-adv-x="481" d="M102 96v45q0 47 34 81t81 34h45q47 0 82 -34t35 -81v-45q0 -47 -34.5 -79.5t-82.5 -32.5h-45q-48 0 -81.5 32.5t-33.5 79.5z" />
<glyph unicode="/" horiz-adv-x="913" d="M82 2q0 17 6 35l543 1460q12 32 38.5 50t59.5 18q44 0 73 -32t29 -73q0 -17 -6 -35l-542 -1462q-10 -30 -37.5 -48.5t-59.5 -18.5q-41 0 -72.5 29t-31.5 77z" />
<glyph unicode="0" horiz-adv-x="1284" d="M102 731q0 346 147.5 553t393.5 207q249 0 394 -204t145 -556q0 -356 -143.5 -558t-397.5 -202q-249 0 -394 204t-145 556zM309 731q0 -42 2.5 -83.5t11 -98.5t22.5 -106t40 -99t59.5 -85.5t84 -58t112.5 -22.5q60 0 110 20t84 53t59.5 80t40.5 95t24.5 105t12.5 104 t3 96q0 42 -2.5 83.5t-11 98.5t-22.5 106t-40 99t-59.5 85.5t-84 58t-112.5 22.5q-88 0 -155 -48t-105 -129t-56 -175.5t-18 -200.5z" />
<glyph unicode="1" horiz-adv-x="792" d="M61 1124q0 40 27.5 70t67.5 33q114 9 157 41q46 32 62 129q6 37 35 61.5t67 24.5h29q41 0 71.5 -31t30.5 -72v-1294q0 -42 -30 -72t-72 -30q-43 0 -73 29.5t-30 72.5v995q-49 -27 -102 -39q-57 -13 -129 -20q-45 -3 -78 27t-33 75z" />
<glyph unicode="2" horiz-adv-x="1216" d="M102 109q0 155 97 303q137 198 407 301q303 109 303 325q0 116 -73 183t-197 67q-134 0 -214.5 -74.5t-86.5 -212.5q-3 -41 -31.5 -68.5t-68.5 -27.5q-44 0 -75.5 32t-29.5 75q12 197 119 319q137 162 387 162q97 0 178 -27.5t134.5 -72t90.5 -101.5t54 -115t18 -114 q5 -123 -43 -223q-102 -212 -393 -320q-286 -107 -354 -315h671q42 0 72.5 -30.5t30.5 -72.5t-30.5 -72t-72.5 -30h-790q-43 0 -73 31.5t-30 77.5z" />
<glyph unicode="3" horiz-adv-x="1253" d="M102 432v8q0 42 29.5 72.5t71.5 30.5q40 0 69.5 -27t32.5 -67q10 -126 99.5 -199.5t232.5 -73.5q150 0 231 72q76 64 76 182q0 87 -35 136t-116 75q-48 15 -72 53q-25 36 -25 78v4q2 47 29 86t68 49q55 23 78.5 60t23.5 98q0 96 -64 154q-72 63 -194 63q-131 0 -207 -67 q-73 -70 -82 -189q-3 -41 -32.5 -67.5t-75.5 -26.5q-33 0 -66.5 30t-30.5 81q15 202 152 323q130 121 342 121q199 0 330 -115q133 -118 133 -307q0 -182 -127 -287q176 -111 176 -352q0 -208 -145 -338q-139 -121 -367 -121q-223 0 -370.5 127t-164.5 334z" />
<glyph unicode="4" horiz-adv-x="1167" d="M20 444v70q0 34 19 59l625 867q29 43 84 43h49q43 0 72.5 -30t29.5 -73v-833h105q43 0 72.5 -30t29.5 -73t-29.5 -72.5t-72.5 -29.5h-105v-256q0 -43 -29.5 -72.5t-72.5 -29.5q-42 0 -72.5 30t-30.5 72v256h-571q-43 0 -73 29.5t-30 72.5zM272 547h422v586z" />
<glyph unicode="5" horiz-adv-x="1218" d="M104 377q-5 45 26.5 80t78.5 35q37 0 65.5 -26.5t34.5 -64.5q12 -103 93 -164t206 -61q137 0 220 85t83 231q0 136 -74.5 221.5t-201.5 85.5q-87 0 -149 -35t-95 -92q-30 -49 -88 -49h-59q-42 0 -72.5 30.5t-30.5 69.5q0 12 2 18l107 637q6 37 34.5 61.5t65.5 24.5h596 q42 0 72.5 -30t30.5 -72q0 -43 -30 -72.5t-73 -29.5h-510l-55 -320q109 64 254 64q98 0 185.5 -36t153 -100.5t104 -162t38.5 -213.5q0 -230 -142 -375.5t-366 -145.5q-197 0 -339 109t-165 297z" />
<glyph unicode="6" horiz-adv-x="1251" d="M102 739q0 162 35 299q54 214 193.5 333.5t333.5 119.5q172 0 289.5 -94t152.5 -262q2 -6 2 -21q0 -41 -29.5 -71.5t-72.5 -30.5q-38 0 -66.5 23t-34.5 61q-38 190 -241 190q-156 0 -246 -117q-92 -123 -107 -331q143 149 348 149q210 0 350 -141.5t140 -358.5 q0 -144 -63.5 -262t-177 -186t-253.5 -68q-208 0 -352 129q-104 94 -152.5 247.5t-48.5 391.5zM360 428q0 -38 9 -78q36 -76 108.5 -125t177.5 -49q129 0 209 87.5t80 223.5q0 130 -79.5 212.5t-205.5 82.5q-75 0 -135 -33t-108 -116q-6 -10 -16.5 -31.5t-25 -72.5 t-14.5 -101z" />
<glyph unicode="7" horiz-adv-x="1044" d="M20 1362q0 42 30 72t73 30h799q41 0 71.5 -30.5t30.5 -71.5v-57q0 -40 -31 -74q-206 -206 -350 -539q-147 -339 -147 -606q0 -43 -30 -72.5t-73 -29.5q-42 0 -72 30t-30 72q0 303 164 688q112 254 288 486h-620q-43 0 -73 29.5t-30 72.5z" />
<glyph unicode="8" horiz-adv-x="1273" d="M102 438q0 234 195 359q-131 106 -131 286q0 119 65.5 213.5t172.5 144.5t233 50q196 0 333.5 -112t137.5 -296q0 -178 -131 -284q194 -135 194 -361q0 -144 -71.5 -251.5t-190.5 -161.5t-268 -54q-246 0 -392.5 132.5t-146.5 334.5zM307 438q0 -125 93.5 -193.5 t240.5 -68.5q142 0 234 67.5t92 194.5q0 110 -90.5 178t-239.5 68q-146 0 -238 -66t-92 -180zM371 1083q0 -115 112 -161q76 -33 154 -33q38 0 82.5 11.5t66.5 21.5q25 11 41 21t36 28.5t30 46.5t10 65q0 95 -75.5 149t-190.5 54q-107 0 -186.5 -55t-79.5 -148z" />
<glyph unicode="9" horiz-adv-x="1251" d="M102 973q0 145 63 263.5t176 186.5t253 68q207 0 354 -129q103 -94 152 -248t49 -391q0 -334 -141 -537q-75 -105 -183 -160t-239 -55q-169 0 -289 94t-152 263q-2 6 -2 20q0 41 29.5 72t71.5 31q37 0 66.5 -24t35.5 -60q19 -94 80.5 -142.5t159.5 -48.5q225 0 311 242 q33 89 43 207q-55 -58 -115 -93q-102 -57 -235 -57q-102 0 -192.5 37t-155.5 102.5t-102.5 158.5t-37.5 200zM307 975q0 -130 79 -212.5t204 -82.5q84 0 142.5 36t103.5 113q4 4 16 29t25.5 75.5t13.5 100.5q0 42 -8 78q-94 174 -289 174q-125 0 -206 -87t-81 -224z" />
<glyph unicode=":" horiz-adv-x="481" d="M102 96v45q0 47 34 81t81 34h45q47 0 82 -34t35 -81v-45q0 -47 -34.5 -79.5t-82.5 -32.5h-45q-48 0 -81.5 32.5t-33.5 79.5zM102 930v45q0 47 33.5 79.5t81.5 32.5h45q48 0 82.5 -32.5t34.5 -79.5v-45q0 -47 -34.5 -80t-82.5 -33h-45q-47 0 -81 33t-34 80z" />
<glyph unicode=";" horiz-adv-x="473" d="M76 -96q0 67 59 94q22 13 33 76q4 22 5.5 46t1 36t-2.5 35.5t-2 25.5q-2 41 28.5 73t75.5 32q33 0 61.5 -20.5t37.5 -53.5q8 -24 8 -90q0 -270 -158 -346q-26 -11 -45 -11q-45 0 -73.5 32t-28.5 71zM111 930v45q0 47 33.5 79.5t80.5 32.5h45q48 0 82.5 -32.5t34.5 -79.5 v-45q0 -47 -34.5 -80t-82.5 -33h-45q-47 0 -80.5 33t-33.5 80z" />
<glyph unicode="&#x3c;" horiz-adv-x="1335" d="M61 559q0 30 16.5 55t43.5 37l936 439q19 8 45 8q41 0 71.5 -28.5t30.5 -74.5q0 -30 -16 -55.5t-43 -38.5l-739 -344l749 -360q57 -28 57 -95q0 -39 -29 -70.5t-73 -31.5q-22 0 -45 10l-944 455q-28 12 -44 37.5t-16 56.5z" />
<glyph unicode="=" horiz-adv-x="1269" d="M102 438q0 43 30 74t73 31h860q42 0 72 -31t30 -74t-29.5 -72.5t-72.5 -29.5h-860q-43 0 -73 29.5t-30 72.5zM102 870q0 43 30 74t73 31h860q42 0 72 -31t30 -74t-29.5 -72.5t-72.5 -29.5h-860q-43 0 -73 29.5t-30 72.5z" />
<glyph unicode="&#x3e;" horiz-adv-x="1335" d="M123 102q0 67 57 95l750 360l-740 344q-27 13 -43 38.5t-16 55.5q0 46 30.5 74.5t71.5 28.5q27 0 46 -8l935 -439q27 -12 43.5 -37t16.5 -55q0 -31 -16 -56.5t-44 -37.5l-944 -455q-23 -10 -45 -10q-44 0 -73 31.5t-29 70.5z" />
<glyph unicode="?" horiz-adv-x="1179" d="M123 1036v15q6 66 25.5 127.5t59 119t94 100t134.5 68t176 25.5q196 0 320.5 -114t124.5 -294q0 -61 -14 -114.5t-32 -89.5t-51.5 -74.5t-54.5 -57.5t-59 -51l-6 -6q-93 -75 -120 -121.5t-30 -144.5q-2 -42 -32 -71t-72 -29q-44 0 -74.5 32.5t-28.5 73.5q2 81 17 142 t48 110.5t66.5 83.5t92.5 82l6 6q41 35 59 51.5t40 45t30 59.5t8 73q0 94 -64 147.5t-174 53.5q-65 0 -115.5 -17.5t-80.5 -43.5t-50 -62t-27.5 -66.5t-10.5 -62.5q-3 -43 -35.5 -70t-75.5 -24q-39 4 -65 31.5t-29 66.5zM446 96v45q0 47 34 81t81 34h45q47 0 82 -34t35 -81 v-45q0 -47 -34.5 -79.5t-82.5 -32.5h-45q-48 0 -81.5 32.5t-33.5 79.5z" />
<glyph unicode="@" horiz-adv-x="1773" d="M143 707q0 202 87.5 371.5t240.5 277.5q195 137 447 137q159 0 294 -54.5t225 -147.5t140.5 -217t50.5 -263q0 -100 -21 -188.5t-64 -162.5t-117 -117.5t-171 -43.5q-55 0 -118 23q-36 17 -62 40l-10 11l-12 -8q-110 -82 -228 -82q-69 0 -131 24.5t-112 71t-79.5 123 t-29.5 172.5q0 134 47 246t142.5 183t222.5 71q78 0 145 -31q30 20 68 14q42 -4 68.5 -38t21.5 -77l-12 -92v-8l-41 -326q60 -25 73 -88q4 -22 47 -22q44 0 77.5 25t52 68t27.5 94t9 110q0 220 -141.5 351.5t-361.5 131.5q-111 0 -212.5 -40t-181 -112t-127 -183t-47.5 -244 q0 -246 143 -386.5t392 -140.5q139 0 272 51q40 15 79 -1.5t54 -55.5q17 -40 0 -80t-57 -55q-163 -66 -348 -66q-183 0 -327.5 61t-233.5 164.5t-135 233.5t-46 275zM680 674q0 -85 35 -135t110 -50q37 0 71 17.5t54 46.5q-25 36 -22 76l39 305q-26 33 -82 33 q-97 0 -151 -84t-54 -209z" />
<glyph unicode="A" d="M61 84q0 16 7 37l481 1276q10 30 36.5 48.5t59.5 18.5h94q31 0 58 -18t39 -47l483 -1278q8 -19 8 -43q-1 -40 -34.5 -67t-71.5 -27q-31 0 -57 17t-38 46l-139 369h-588l-139 -369q-11 -32 -37.5 -47.5t-58.5 -15.5q-43 0 -73 26.5t-30 73.5zM477 621h432l-219 573z" />
<glyph unicode="B" d="M184 104v1258q0 42 31 72t74 30h516q210 0 330 -114q116 -107 116 -287q0 -183 -121 -285q84 -54 131.5 -141t47.5 -195q0 -187 -117 -307q-63 -65 -157 -100t-206 -35h-540q-43 0 -74 30.5t-31 73.5zM391 207h438q143 0 215 72q58 64 58 163q0 73 -39.5 122t-112.5 71 q-43 8 -75 44.5t-33 90.5q0 45 26.5 83.5t67.5 51.5q59 20 83.5 56.5t24.5 101.5q0 83 -51 137q-60 57 -188 57h-414v-1050z" />
<glyph unicode="C" horiz-adv-x="1458" d="M102 729q0 219 79.5 390.5t234 271.5t360.5 100q212 0 364.5 -107.5t205.5 -304.5q2 -8 2 -26q0 -41 -29.5 -72t-73.5 -31q-34 0 -62.5 21.5t-37.5 56.5q-33 128 -129 192t-240 64q-223 0 -345 -152.5t-122 -402.5q0 -161 52 -284.5t157.5 -195t251.5 -71.5 q175 0 276.5 92t122.5 256q4 39 34.5 65.5t70.5 26.5q41 0 70 -29t32 -71q0 -10 -2 -16q-30 -241 -188.5 -386t-415.5 -145q-108 0 -207 30.5t-183 93.5t-146 152t-97 212.5t-35 269.5z" />
<glyph unicode="D" horiz-adv-x="1464" d="M184 102v1260q0 42 30 72t73 30h438q303 0 470 -193t167 -544q0 -347 -170 -537t-481 -190h-424q-43 0 -73 29.5t-30 72.5zM391 207h320q444 0 444 520q0 530 -430 530h-334v-1050z" />
<glyph unicode="E" horiz-adv-x="1325" d="M184 102v1260q0 42 30 72t73 30h833q42 0 72.5 -30t30.5 -72q0 -43 -30 -74t-73 -31h-731v-378h666q43 0 73.5 -31t30.5 -74t-30.5 -72.5t-73.5 -29.5h-666v-465h752q42 0 72 -31t30 -74t-29.5 -72.5t-72.5 -29.5h-854q-43 0 -73 29.5t-30 72.5z" />
<glyph unicode="F" horiz-adv-x="1249" d="M184 86v1276q0 41 31 71.5t72 30.5h796q43 0 74 -30.5t31 -71.5q0 -43 -31 -74t-74 -31h-692v-374h584q41 0 71.5 -30.5t30.5 -72.5t-30 -72t-72 -30h-584v-592q0 -43 -30.5 -72.5t-73.5 -29.5q-42 0 -72.5 30t-30.5 72z" />
<glyph unicode="G" horiz-adv-x="1558" d="M102 729q0 338 189 549q195 213 510 213q224 0 375 -109q156 -113 206 -311q4 -14 4 -28q0 -27 -14 -51q-22 -38 -63 -48q-13 -3 -25 -3q-28 0 -54 15q-37 23 -48 64q-30 125 -125 192q-101 72 -256 72q-224 0 -357 -145q-135 -150 -135 -410q0 -257 131 -407 q129 -144 342 -144q220 0 328 174q35 53 98 62v196h-379q-42 0 -72 30.5t-30 72.5q0 43 29.5 73.5t72.5 30.5h482q43 0 73.5 -30.5t30.5 -73.5v-611q0 -43 -30.5 -72.5t-73.5 -29.5h-23q-51 0 -78 35q-21 24 -24 55l-2 27q-3 -3 -10.5 -8.5t-10.5 -8.5q-157 -129 -381 -129 q-308 0 -495 213q-185 206 -185 545z" />
<glyph unicode="H" horiz-adv-x="1507" d="M184 86v1292q0 43 31 74t74 31q42 0 72 -31t30 -74v-487h725v487q0 43 31 74t74 31q41 0 71.5 -31t30.5 -74v-1292q0 -42 -30 -72t-72 -30q-43 0 -74 30t-31 72v598h-725v-598q0 -43 -29.5 -72.5t-72.5 -29.5t-74 30t-31 72z" />
<glyph unicode="I" horiz-adv-x="575" d="M184 86v1292q0 43 31 74t72 31q43 0 73.5 -31t30.5 -74v-1292q0 -43 -30.5 -72.5t-73.5 -29.5q-42 0 -72.5 30t-30.5 72z" />
<glyph unicode="J" horiz-adv-x="1114" d="M61 436v15q0 43 30 73.5t73 30.5t73.5 -30.5t30.5 -73.5v-15q0 -138 54.5 -197t181.5 -59q219 0 219 203v993q0 43 30.5 74t73.5 31t73 -31t30 -74v-993q0 -189 -114 -299.5t-312 -110.5q-214 0 -328.5 119.5t-114.5 343.5z" />
<glyph unicode="K" horiz-adv-x="1417" d="M184 86v1292q0 43 31 74t72 31q43 0 73.5 -31t30.5 -74v-637l727 711q31 31 72 31q44 0 73 -30t29 -73q0 -45 -30 -75l-469 -457l522 -701q20 -26 20 -59q0 -45 -30.5 -74.5t-73.5 -29.5q-52 0 -80 41l-506 677l-254 -247v-369q0 -43 -30.5 -72.5t-73.5 -29.5 q-42 0 -72.5 30t-30.5 72z" />
<glyph unicode="L" horiz-adv-x="1193" d="M184 102v1276q0 43 31 74t72 31q43 0 73.5 -31t30.5 -74v-1171h660q42 0 72 -31t30 -74t-29.5 -72.5t-72.5 -29.5h-764q-42 0 -72.5 30t-30.5 72z" />
<glyph unicode="M" horiz-adv-x="1759" d="M184 86v1276q0 41 31 71.5t74 30.5h110q32 0 58.5 -18t38.5 -47l383 -1006l381 1004q10 30 36.5 48.5t59.5 18.5h117q41 0 71.5 -30.5t30.5 -71.5v-1276q0 -42 -30 -72t-72 -30q-43 0 -74 30t-31 72v1024l-391 -1044q-12 -30 -38 -48t-58 -18t-59.5 18.5t-37.5 47.5 l-393 1034v-1014q0 -42 -30 -72t-72 -30q-43 0 -74 30t-31 72z" />
<glyph unicode="N" horiz-adv-x="1507" d="M184 86v1276q0 42 30 72t73 30h84q56 0 88 -49l655 -1073h2v1036q0 43 30 74t73 31t73.5 -31t30.5 -74v-1276q0 -43 -30.5 -72.5t-73.5 -29.5h-76q-60 0 -88 49l-662 1081h-2v-1044q0 -43 -30.5 -72.5t-73.5 -29.5t-73 29.5t-30 72.5z" />
<glyph unicode="O" horiz-adv-x="1579" d="M102 731q0 163 51.5 304t142 241t217.5 157.5t273 57.5q197 0 355 -97.5t247 -271.5t89 -391t-89 -391t-247 -271.5t-355 -97.5q-146 0 -273 57.5t-217.5 157.5t-142 241t-51.5 304zM309 731q0 -249 131.5 -401t345.5 -152q217 0 350.5 152t133.5 401q0 248 -133.5 400.5 t-350.5 152.5q-214 0 -345.5 -152.5t-131.5 -400.5z" />
<glyph unicode="P" horiz-adv-x="1308" d="M184 84v1276q0 42 30 72t73 30h487q218 0 345.5 -119.5t127.5 -320.5q0 -214 -128 -330.5t-361 -116.5h-367v-491q0 -43 -30.5 -72.5t-73.5 -29.5t-73 29.5t-30 72.5zM391 780h367q72 0 125 14t83 36t47.5 56t23 65t5.5 71q0 233 -268 233h-383v-475z" />
<glyph unicode="Q" horiz-adv-x="1579" d="M102 731q0 163 51.5 304t142 241t218 157.5t274.5 57.5q197 0 354.5 -97.5t246 -271.5t88.5 -391q0 -312 -174 -520l92 -76q39 -29 39 -80q0 -43 -31.5 -72.5t-71.5 -29.5t-65 22l-121 97q-164 -101 -357 -101q-147 0 -274.5 57.5t-218 157.5t-142 241t-51.5 304z M309 731q0 -249 132 -401t347 -152q101 0 185 35l-86 70q-39 29 -39 79q0 42 29.5 73.5t72.5 31.5q38 0 66 -25l129 -102q127 152 127 391q0 248 -133.5 400.5t-350.5 152.5q-215 0 -347 -152.5t-132 -400.5z" />
<glyph unicode="R" horiz-adv-x="1441" d="M184 86v1274q0 43 31 73.5t74 30.5h557q205 0 323 -112q121 -115 121 -316q0 -123 -45 -209q-37 -67 -104 -116q60 -55 85.5 -140t30.5 -209q8 -160 33 -239q8 -21 8 -40q0 -31 -20 -57q-32 -42 -84 -42q-33 0 -59.5 17.5t-36.5 49.5q-38 95 -47 303q-3 71 -11 116 t-23.5 67t-27.5 29.5t-35 15.5q-6 2 -34 16q-58 43 -58 115q0 43 24 82t72 55q74 22 99 65q26 40 26 121q0 113 -57 164q-57 57 -180 57h-455v-1171q0 -42 -30 -72t-72 -30q-43 0 -74 30t-31 72z" />
<glyph unicode="S" horiz-adv-x="1343" d="M102 451q-1 6 -1 12q-1 37 27 67q32 34 79 35q38 0 68 -26t34 -64q37 -297 398 -297q149 0 240 64.5t91 187.5q0 114 -67 152q-60 38 -250 71l-94 19q-121 24 -195 45t-129 55q-151 93 -151 299q0 192 146 306t368 114q215 0 355 -104t175 -302q2 -6 2 -18q0 -42 -29 -72 t-73 -30q-37 0 -67 24t-36 62q-44 233 -327 233q-133 0 -220.5 -53t-87.5 -160q0 -55 14.5 -81.5t39.5 -41.5q24 -16 67.5 -29.5t78 -21.5t108.5 -23l94 -18q86 -17 122 -24.5t97 -27.5t102 -46q164 -103 164 -328q0 -211 -150.5 -335t-387.5 -124q-250 0 -413 125t-192 355 z" />
<glyph unicode="T" horiz-adv-x="1241" d="M41 1362q0 41 30.5 71.5t71.5 30.5h953q43 0 73.5 -30.5t30.5 -71.5q0 -43 -30.5 -74t-73.5 -31h-373v-1171q0 -43 -29.5 -72.5t-72.5 -29.5t-73 29.5t-30 72.5v1171h-375q-41 0 -71.5 31t-30.5 74z" />
<glyph unicode="U" horiz-adv-x="1404" d="M143 485v895q0 43 31 73t74 30t72.5 -30t29.5 -73v-899q0 -161 90.5 -232t257.5 -71q164 0 260.5 71.5t96.5 231.5v899q0 43 30.5 73t73.5 30t73 -30t30 -73v-895q0 -109 -31.5 -197t-84.5 -146.5t-126.5 -97.5t-153.5 -56t-168 -17q-264 0 -409.5 135t-145.5 379z" />
<glyph unicode="V" horiz-adv-x="1335" d="M61 1380q0 48 33.5 75.5t65.5 27.5q35 0 62.5 -18.5t37.5 -51.5l406 -1126h2l405 1128q12 31 39 49.5t59 18.5q41 0 72 -30t31 -77q0 -18 -6 -33l-463 -1275q-10 -31 -37 -49.5t-59 -18.5h-88q-33 0 -60 18.5t-37 49.5l-456 1275q-7 21 -7 37z" />
<glyph unicode="W" horiz-adv-x="1837" d="M61 1382q0 43 31.5 72t69.5 29q36 0 64.5 -21.5t37.5 -56.5l279 -1051h2l274 1035q9 33 37 54t64 21q34 0 61.5 -21t36.5 -54l272 -1024h2l281 1042q9 33 37.5 54.5t62.5 21.5q38 0 70.5 -28t32.5 -75q0 -8 -4 -28l-347 -1276q-9 -34 -36 -55t-62 -21h-74q-35 0 -63 21 t-37 55l-235 885l-236 -885q-9 -34 -37 -55t-63 -21h-78q-35 0 -63.5 21t-37.5 55l-337 1278q-5 25 -5 28z" />
<glyph unicode="X" horiz-adv-x="1314" d="M82 86q0 34 18 61l435 596l-410 576q-21 31 -21 63q0 42 32 71.5t71 29.5q55 0 86 -45l369 -516l364 516q31 45 84 45q43 0 73.5 -31.5t30.5 -73.5q0 -32 -18 -59l-408 -576l426 -598q19 -28 19 -57q0 -48 -32 -76t-71 -28q-53 0 -83 43l-385 538l-394 -540 q-30 -41 -84 -41q-42 0 -72 28t-30 74z" />
<glyph unicode="Y" horiz-adv-x="1275" d="M41 1380q0 44 32 73.5t72 29.5q50 0 82 -43l412 -570l410 570q32 43 84 43q40 0 71 -28.5t31 -72.5q0 -40 -18 -63l-476 -660v-573q0 -43 -30.5 -72.5t-73.5 -29.5q-42 0 -72 30t-30 72v573l-474 660q-20 26 -20 61z" />
<glyph unicode="Z" horiz-adv-x="1333" d="M102 102v74q0 36 23 66l807 1015h-676q-42 0 -72 30.5t-30 72.5q0 43 29.5 73.5t72.5 30.5h842q43 0 73.5 -30.5t30.5 -73.5v-60q0 -35 -22 -63l-820 -1032h768q43 0 73 -30t30 -73t-30 -72.5t-73 -29.5h-921q-43 0 -74 30t-31 72z" />
<glyph unicode="[" horiz-adv-x="700" d="M184 -207v1567q0 43 31 73.5t74 30.5h184q43 0 74 -30.5t31 -73.5q0 -41 -31 -72t-74 -31h-82v-1359h82q43 0 74 -31t31 -74q0 -42 -31 -72t-74 -30h-184q-43 0 -74 30t-31 72z" />
<glyph unicode="\" horiz-adv-x="886" d="M55 1460q0 42 29.5 73.5t75.5 31.5q31 0 57.5 -18t38.5 -50l543 -1460q6 -18 6 -35q0 -48 -31 -77t-72 -29q-32 0 -59 18t-39 49l-543 1462q-6 18 -6 35z" />
<glyph unicode="]" horiz-adv-x="700" d="M123 -207q0 43 30.5 74t73.5 31h82v1359h-82q-43 0 -73.5 30.5t-30.5 72.5q0 43 30.5 73.5t73.5 30.5h185q43 0 73.5 -30.5t30.5 -73.5v-1567q0 -43 -30.5 -72.5t-73.5 -29.5h-185q-43 0 -73.5 29.5t-30.5 72.5z" />
<glyph unicode="^" horiz-adv-x="1042" d="M82 705q0 26 12 47l344 684q28 55 92 55q31 0 56 -15.5t39 -41.5l325 -674q11 -19 11 -45q0 -42 -28.5 -73.5t-72.5 -31.5q-30 0 -56.5 16.5t-39.5 43.5l-236 485l-249 -496q-13 -27 -38.5 -42t-54.5 -15q-39 0 -71.5 29.5t-32.5 73.5z" />
<glyph unicode="_" horiz-adv-x="860" d="M-102 -209q0 43 30 74t72 31h860q43 0 73 -31t30 -74t-30 -72.5t-73 -29.5h-860q-43 0 -72.5 29.5t-29.5 72.5z" />
<glyph unicode="`" horiz-adv-x="729" d="M205 1741q0 44 32.5 74t71.5 30q62 0 90 -55l113 -207q12 -21 12 -45q0 -45 -31.5 -75.5t-70.5 -30.5q-28 0 -53.5 14.5t-38.5 38.5l-113 207q-12 24 -12 49z" />
<glyph unicode="a" horiz-adv-x="1155" d="M96 309q0 152 92 240q107 101 367 131q152 15 240 51v43q0 63 -47 100q-52 35 -156 35q-152 0 -215 -78q-10 -15 -17.5 -30.5t-9.5 -24.5l-2 -8q-1 -41 -31.5 -69.5t-70.5 -28.5q-39 0 -73 29q-30 26 -30 70v11q0 13 4 35t21 63.5t45 77.5q122 160 379 160 q219 0 328 -121q81 -89 81 -225l-2 -545q0 -25 5 -35h3q43 0 73 -29q32 -30 32 -73t-30.5 -73.5t-71.5 -30.5q-102 0 -160 67q-12 14 -27 37q-144 -117 -344 -117q-176 0 -279.5 93t-103.5 245zM303 309q0 -55 33 -88q43 -43 143 -43q145 0 246 101q42 42 68 94v139 q-91 -26 -215 -39q-192 -20 -248 -76q-27 -24 -27 -88z" />
<glyph unicode="b" horiz-adv-x="1165" d="M143 86v1292q0 43 31 74t72 31q43 0 73.5 -31t30.5 -74v-350q114 88 268 88q105 0 195 -42.5t152 -123.5q118 -151 118 -405q0 -250 -122 -406q-130 -168 -351 -168q-158 0 -264 84q-11 -32 -38 -51.5t-62 -19.5q-42 0 -72.5 30t-30.5 72zM350 543q0 -34 3 -65.5t8 -56 t10 -44.5t12 -36t11.5 -25.5t10 -18.5t5.5 -10q38 -60 83.5 -84.5t116.5 -24.5q119 0 189 88q78 96 78 277q0 178 -76 280q-65 86 -183 86q-134 0 -206 -118q0 -1 -4 -8t-8 -14.5t-10 -21t-11 -28t-10.5 -34.5t-9.5 -41t-6.5 -47.5t-2.5 -53.5z" />
<glyph unicode="c" horiz-adv-x="1126" d="M82 543q0 256 140.5 414.5t367.5 158.5q169 0 286.5 -85t157.5 -236q4 -16 4 -25q0 -42 -31 -73t-73 -31q-34 0 -62.5 21t-37.5 56q-43 166 -244 166q-141 0 -221 -97t-80 -269q0 -170 80 -267.5t219 -97.5q217 0 252 201q6 41 42 65q29 20 62 20q8 0 17 -1 q38 -7 60.5 -36t22.5 -69q0 -43 -28 -113t-72 -124q-130 -150 -356 -150t-366 158t-140 414z" />
<glyph unicode="d" horiz-adv-x="1165" d="M82 543q0 252 119 405q63 82 152 125t194 43q154 0 268 -88v350q0 43 31 74t74 31q41 0 71.5 -31t30.5 -74v-1292q0 -42 -30 -72t-72 -30q-35 0 -63 19.5t-38 51.5q-106 -84 -264 -84q-221 0 -350 166q-123 157 -123 406zM289 543q0 -181 78 -277q67 -88 186 -88 q71 0 118 25t85 84q0 1 5.5 10t10 18.5t11 25.5t12 36t10.5 44.5t7.5 56t2.5 65.5q0 31 -3 60.5t-8.5 53.5t-11.5 43.5t-13 36t-12 26.5t-10 19l-5 9q-69 118 -207 118q-115 0 -183 -86q-73 -98 -73 -280z" />
<glyph unicode="e" horiz-adv-x="1150" d="M82 551q0 122 43 235t123 193q64 64 151.5 100.5t188.5 36.5q200 0 325 -125q147 -150 156 -430q0 -44 -29 -76q-30 -30 -73 -30h-672q19 -132 97.5 -204.5t205.5 -72.5q37 0 70.5 7.5t69 25t64 53.5t44.5 86q10 33 38 52.5t62 19.5q42 0 72.5 -29t30.5 -71q0 -12 -7 -33 q-46 -149 -163.5 -233.5t-280.5 -84.5q-235 0 -375.5 154.5t-140.5 425.5zM301 662h551q-24 127 -86.5 187t-177.5 60q-108 0 -184.5 -66t-102.5 -181z" />
<glyph unicode="f" horiz-adv-x="591" d="M20 985q0 42 31 72t74 30h37v119q0 137 78 209q77 68 217 68h32q43 -2 73 -33q28 -30 28 -71q0 -44 -33 -75q-30 -28 -71 -28h-3q-18 1 -33 1q-56 0 -71 -15q-10 -7 -10 -56v-119h120q42 0 72.5 -30t30.5 -72q0 -43 -31 -73.5t-72 -30.5h-120v-793q0 -43 -31 -73.5 t-74 -30.5t-72.5 30.5t-29.5 73.5v793h-37q-43 0 -74 30.5t-31 73.5z" />
<glyph unicode="g" horiz-adv-x="1163" d="M82 563q0 137 42 245.5t111.5 174t153 99.5t172.5 34q147 0 256 -80q12 25 14 27q29 41 82 41q43 0 74 -30t31 -73v-897q0 -186 -107 -305q-134 -137 -372 -137q-170 0 -285.5 67t-155.5 187q-4 14 -4 33q0 40 29.5 71t73.5 31q33 0 61 -20.5t37 -53.5q15 -51 80.5 -79.5 t163.5 -28.5q119 0 183 40t81 122q6 27 6 59q-103 -74 -248 -74q-215 0 -347 151t-132 396zM289 563q0 -160 72 -250t200 -90q69 0 110 23.5t77 72.5q30 43 46.5 112t16.5 134q0 113 -43 207q-30 69 -79 103t-128 34q-50 0 -96 -19t-86.5 -57.5t-65 -108t-24.5 -161.5z" />
<glyph unicode="h" horiz-adv-x="1103" d="M143 86v1292q0 43 31 74t72 31q43 0 73.5 -31t30.5 -74v-336q108 74 256 74q180 0 277 -106q98 -102 98 -262v-660q0 -43 -30.5 -73.5t-73.5 -30.5t-73 30.5t-30 73.5v666q0 9 -1.5 23t-12.5 43t-29 48q-41 41 -125 41q-130 0 -200 -98q-47 -63 -56 -133v-592 q0 -43 -30.5 -72.5t-73.5 -29.5q-42 0 -72.5 30t-30.5 72z" />
<glyph unicode="i" horiz-adv-x="475" d="M143 86v915q0 43 31 73t74 30q42 0 72 -30t30 -73v-915q0 -41 -30.5 -71.5t-71.5 -30.5q-43 0 -74 30.5t-31 71.5zM143 1270v92q0 42 31 72t74 30q42 0 72 -30t30 -72v-92q0 -41 -30.5 -72t-71.5 -31q-43 0 -74 31t-31 72z" />
<glyph unicode="j" horiz-adv-x="493" d="M-20 -211q0 43 29 74.5t71 32.5q29 0 48 2t24 4l4 2q6 10 6 53v1044q0 43 30.5 73t73.5 30q42 0 72.5 -30.5t30.5 -72.5v-1044q0 -268 -273 -268h-14q-41 0 -71.5 29.5t-30.5 70.5zM162 1270v92q0 43 30.5 72.5t73.5 29.5q42 0 72.5 -30t30.5 -72v-92q0 -41 -31 -72 t-72 -31q-42 0 -73 30.5t-31 72.5z" />
<glyph unicode="k" horiz-adv-x="1097" d="M143 86v1292q0 43 31 74t74 31q41 0 71.5 -31t30.5 -74v-727l471 436q32 29 72 29q44 0 73 -30.5t29 -73.5q0 -48 -32 -76l-287 -264l362 -527q19 -28 19 -59q0 -48 -33 -76t-72 -28q-56 0 -86 47l-342 499l-174 -159v-283q0 -43 -30.5 -73.5t-71.5 -30.5q-43 0 -74 30.5 t-31 73.5z" />
<glyph unicode="l" horiz-adv-x="493" d="M143 86v1292q0 43 31 74t72 31q43 0 73.5 -31t30.5 -74v-1292q0 -43 -30.5 -72.5t-73.5 -29.5q-42 0 -72.5 30t-30.5 72z" />
<glyph unicode="m" horiz-adv-x="1622" d="M143 86v915q0 43 31 73t74 30q59 0 90 -53q106 65 229 65q176 0 277 -123q117 123 297 123q160 0 258 -98q34 -36 56.5 -80.5t30.5 -86t10.5 -63.5t2.5 -40v-660q0 -43 -30.5 -73.5t-73.5 -30.5q-41 0 -72 31t-31 73v664q0 26 -10 62t-33 60q-35 35 -108 35 q-115 0 -170 -90q-24 -37 -34.5 -77.5t-10.5 -61.5v-592q0 -43 -31 -73.5t-74 -30.5t-72.5 30.5t-29.5 73.5v664q0 26 -10.5 62t-34.5 60q-32 35 -107 35q-114 0 -172 -90q-24 -37 -34.5 -77.5t-10.5 -61.5v-594q0 -41 -30.5 -71.5t-71.5 -30.5q-43 0 -74 30.5t-31 71.5z " />
<glyph unicode="n" horiz-adv-x="1103" d="M143 86v915q0 43 31 73t74 30q32 0 58.5 -19t37.5 -47q108 78 262 78q180 0 277 -106q98 -102 98 -262v-660q0 -43 -30.5 -73.5t-73.5 -30.5t-73 30.5t-30 73.5v666q0 9 -1.5 23t-12.5 43t-29 48q-41 41 -125 41q-130 0 -200 -98q-47 -63 -56 -133v-592 q0 -41 -30.5 -71.5t-71.5 -30.5q-43 0 -74 30.5t-31 71.5z" />
<glyph unicode="o" horiz-adv-x="1189" d="M82 543q0 253 144 413t370 160t369 -160t143 -413q0 -252 -143 -412t-369 -160t-370 160t-144 412zM289 543q0 -166 84 -265.5t223 -99.5t222 99.5t83 265.5q0 167 -83 266.5t-222 99.5q-140 0 -223.5 -99.5t-83.5 -266.5z" />
<glyph unicode="p" horiz-adv-x="1165" d="M143 -209v1210q0 43 31 73t74 30q35 0 63 -22t37 -56q113 90 273 90q105 0 194 -42.5t152 -123.5q116 -153 116 -405q0 -253 -120 -406q-133 -168 -351 -168q-153 0 -262 80v-260q0 -41 -30.5 -71.5t-71.5 -30.5q-43 0 -74 30.5t-31 71.5zM350 543q0 -34 3 -65.5t8 -56 t10 -44.5t12 -36t11.5 -25.5t10 -18.5t5.5 -10q38 -59 84.5 -84t117.5 -25q120 0 187 88q78 96 78 277q0 180 -74 280q-68 86 -182 86q-138 0 -207 -118l-5 -9q-5 -9 -10 -19t-12.5 -26.5t-13.5 -36.5t-11.5 -43.5t-8.5 -53t-3 -60.5z" />
<glyph unicode="q" horiz-adv-x="1165" d="M82 545q0 252 119 405q63 81 152 123.5t194 42.5q157 0 270 -90q9 34 37.5 56t63.5 22q43 0 73.5 -30t30.5 -73v-1210q0 -41 -30.5 -71.5t-73.5 -30.5q-41 0 -72 30.5t-31 71.5v260q-109 -80 -260 -80q-220 0 -350 168q-123 157 -123 406zM289 545q0 -178 78 -279 q73 -88 188 -88q70 0 116.5 25t84.5 84q0 1 5.5 10.5t10 18.5t11 25.5t12 36t10.5 44.5t7.5 56.5t2.5 66.5q0 144 -61 246q-71 118 -207 118q-117 0 -182 -86q-76 -98 -76 -278z" />
<glyph unicode="r" horiz-adv-x="729" d="M143 86v915q0 43 31 73t74 30q32 0 58 -18t38 -48q15 12 37 23q98 55 225 55q43 0 73 -30.5t30 -73.5q0 -42 -30.5 -72.5t-72.5 -30.5q-130 0 -203 -98q-27 -36 -40 -76t-13 -59v-590q0 -41 -30.5 -71.5t-71.5 -30.5q-43 0 -74 30.5t-31 71.5z" />
<glyph unicode="s" horiz-adv-x="1056" d="M82 332q0 42 31 73t75 31q37 0 66 -25.5t35 -66.5q24 -166 258 -166q20 0 39.5 2t46.5 7t49.5 15.5t42.5 26t31.5 40.5t11.5 57q0 26 -2.5 37.5t-11.5 25.5t-34.5 23t-65 19.5t-109.5 25.5l-53 12q-43 10 -62 14.5t-59 16t-59.5 19.5t-51.5 23.5t-49 30.5t-38.5 37.5 t-32 47.5t-18 57.5t-7.5 70.5q0 148 111 239t292 91q87 0 157 -20.5t113.5 -51t75.5 -73t46.5 -77.5t23.5 -73q4 -16 4 -22q0 -42 -29.5 -73.5t-72.5 -31.5q-37 0 -66.5 22.5t-36.5 57.5q-15 63 -60 99t-155 36q-25 0 -51 -3.5t-62.5 -14.5t-59.5 -38t-23 -67 q0 -30 10.5 -44.5t56 -31t150.5 -40.5l51 -11q159 -35 222 -64q132 -61 157 -194q6 -35 6 -75q0 -158 -118 -256.5t-310 -98.5q-227 0 -365 135q-47 47 -73.5 117t-26.5 109z" />
<glyph unicode="t" horiz-adv-x="681" d="M41 985q0 43 30.5 72.5t73.5 29.5h41v193q0 43 31 73.5t74 30.5t72.5 -30.5t29.5 -73.5v-193h125q43 0 73 -29.5t30 -72.5t-30 -73.5t-73 -30.5h-125v-666q0 -9 1 -16t2 -11l1 -4q19 -6 47 -6t45 6q12 3 24 3q29 -1 55 -17q36 -22 46 -64q3 -13 3 -25q0 -27 -15 -52 q-22 -36 -63 -47q-43 -11 -97 -11q-119 0 -184 62q-72 66 -72 182v666h-41q-43 0 -73.5 30.5t-30.5 73.5z" />
<glyph unicode="u" horiz-adv-x="1093" d="M125 354v647q0 43 30.5 73t73.5 30t73 -30t30 -73v-657q0 -47 26 -92q41 -74 150 -74q125 0 186 101q24 37 35.5 79.5t11.5 63.5v579q0 43 31 73t74 30q42 0 72 -30t30 -73v-915q0 -41 -30.5 -71.5t-71.5 -30.5q-31 0 -56.5 16.5t-37.5 42.5q-109 -72 -248 -72 q-174 0 -276.5 110.5t-102.5 272.5z" />
<glyph unicode="v" horiz-adv-x="1064" d="M66 1001q0 41 29 73t73 32q32 0 59 -19t39 -51l262 -745l271 745q12 32 38.5 50t57.5 18q46 0 75 -31t29 -74q0 -17 -6 -32l-323 -897q-11 -31 -38 -50.5t-61 -19.5h-86q-32 0 -58.5 19.5t-37.5 50.5l-317 897q-6 18 -6 34z" />
<glyph unicode="w" horiz-adv-x="1523" d="M66 1001q0 41 29.5 72t72.5 31q34 0 62 -20.5t38 -53.5l203 -688l191 672q9 32 36.5 52.5t61.5 20.5q35 0 63 -20.5t37 -54.5l178 -666l217 686q10 33 38 53.5t61 20.5q44 0 74 -32t30 -73q0 -15 -6 -30l-283 -897q-11 -33 -38 -53.5t-60 -20.5h-74q-35 0 -63 22t-37 56 l-139 518l-146 -520q-11 -34 -38 -55t-62 -21h-78q-34 0 -61.5 21t-36.5 53l-266 899q-4 10 -4 28z" />
<glyph unicode="x" horiz-adv-x="1116" d="M82 88q0 32 20 62l320 428l-281 360q-22 28 -22 63q0 45 31 74t73 29q53 0 82 -39l246 -317l246 317q29 39 80 39q42 0 73 -29t31 -74q0 -33 -23 -63l-276 -358l332 -428q20 -26 20 -64q0 -45 -30 -74.5t-72 -29.5q-54 0 -82 41l-297 383l-285 -381q-30 -43 -82 -43 q-42 0 -73 29t-31 75z" />
<glyph unicode="y" horiz-adv-x="1091" d="M66 999q0 42 28.5 73.5t73.5 31.5q30 0 56 -16.5t38 -45.5l307 -682l254 676q12 32 38.5 50t58.5 18q46 0 75 -31t29 -72q0 -18 -6 -36l-383 -1018q-55 -145 -133 -203q-74 -55 -193 -55q-50 0 -86 8q-36 7 -59 36.5t-23 65.5q0 43 32 73t73 30q13 0 27.5 -3t35.5 -3 q49 0 70 14q27 22 63 110l23 66l-391 872q-8 16 -8 41z" />
<glyph unicode="z" horiz-adv-x="1032" d="M86 104v52q0 35 23 65l532 660h-416q-41 0 -71.5 30.5t-30.5 73.5q0 42 30 72t72 30h602q43 0 74 -30t31 -72v-37q0 -33 -23 -63l-547 -678h482q43 0 73.5 -30t30.5 -73t-30.5 -73.5t-73.5 -30.5h-654q-43 0 -73.5 30.5t-30.5 73.5z" />
<glyph unicode="{" horiz-adv-x="780" d="M82 578q0 33 19 59.5t51 36.5q59 23 107 68t48 100q0 33 -22 82q-52 113 -52 202q0 113 70.5 201.5t179.5 130.5q15 6 33 6h39q43 0 72.5 -30.5t29.5 -73.5t-29.5 -73t-72.5 -30h-16q-99 -51 -99 -131q0 -45 31 -112q43 -82 43 -172q0 -64 -25 -123q-35 -86 -120 -156 q137 -137 137 -282q0 -74 -37 -144q-29 -63 -29 -104q0 -47 30.5 -82t68.5 -55h6q43 0 72.5 -30t29.5 -73t-29.5 -73.5t-72.5 -30.5h-29q-15 0 -47 13t-73 38t-81.5 72.5t-62.5 105.5q-21 65 -21 117q0 95 56 198q12 24 12 50q0 46 -51 106q-22 25 -50.5 49.5t-44 35.5 t-20.5 13q-51 28 -51 91z" />
<glyph unicode="|" horiz-adv-x="575" d="M184 -209v1761q0 43 31 73t74 30q41 0 71.5 -30.5t30.5 -72.5v-1761q0 -42 -30 -72t-72 -30q-43 0 -74 30t-31 72z" />
<glyph unicode="}" horiz-adv-x="780" d="M123 1360q0 43 29.5 73.5t72.5 30.5h39q18 0 33 -6q110 -41 180 -130t70 -202q0 -91 -51 -202q-23 -51 -23 -82q0 -55 48.5 -100t107.5 -68q32 -10 50.5 -36.5t18.5 -59.5q0 -63 -51 -91q-5 -2 -20.5 -13t-44 -35.5t-50.5 -49.5q-51 -60 -51 -106q0 -24 13 -50 q55 -101 55 -198q0 -52 -21 -117q-22 -58 -62.5 -105.5t-81.5 -72.5t-73 -38t-47 -13h-28q-43 0 -73 30.5t-30 73.5t30 73t73 30h6q37 20 67.5 55t30.5 82q0 41 -29 104q-37 70 -37 144q0 144 138 282q-87 71 -121 156q-25 59 -25 123q0 90 43 172q31 67 31 112 q0 80 -98 131h-17q-43 0 -72.5 30t-29.5 73z" />
<glyph unicode="~" horiz-adv-x="1454" d="M102 641q0 40 27 70q3 4 15.5 16.5t38 35.5t53.5 44q135 102 258 102q55 0 100.5 -8.5t84 -27t59.5 -31.5t55 -37q32 -23 49 -33.5t47.5 -19.5t68.5 -9q34 0 90 32t115 91q39 45 86 45q42 0 72.5 -30t30.5 -74q0 -45 -41 -86q-184 -184 -353 -184q-67 0 -126.5 17.5 t-88 34.5t-71.5 48q-34 24 -52 34.5t-51.5 20.5t-74.5 10q-47 0 -108.5 -43t-102.5 -86q-30 -34 -78 -34q-39 0 -71 30.5t-32 71.5z" />
<glyph unicode="&#xa1;" horiz-adv-x="460" d="M94 958v46q0 47 34.5 79.5t82.5 32.5h45q48 0 81.5 -32.5t33.5 -79.5v-46q0 -47 -33.5 -79.5t-81.5 -32.5h-45q-48 0 -82.5 32.5t-34.5 79.5zM127 -285v961q0 43 29.5 72.5t72.5 29.5t73 -29.5t30 -72.5v-961q0 -43 -30 -73.5t-73 -30.5t-72.5 30.5t-29.5 73.5z" />
<glyph unicode="&#xa2;" horiz-adv-x="1206" d="M123 735q0 220 104.5 369.5t282.5 191.5v84q0 43 30.5 73t73.5 30q42 0 72.5 -30.5t30.5 -72.5v-77q135 -20 229 -103t129 -213q4 -16 4 -24q0 -42 -31 -73.5t-73 -31.5q-34 0 -63 21.5t-38 56.5q-43 166 -243 166q-141 0 -221 -97.5t-80 -269.5q0 -170 79.5 -267 t219.5 -97q217 0 252 200q7 41 42 65.5t78 18.5q38 -7 61 -35.5t23 -68.5q0 -44 -28 -114t-72 -124q-100 -118 -268 -143v-84q0 -42 -30.5 -72t-72.5 -30q-43 0 -73.5 29.5t-30.5 72.5v90q-178 40 -282.5 189.5t-104.5 369.5z" />
<glyph unicode="&#xa3;" horiz-adv-x="1116" d="M102 102q0 48 35 78q60 60 105 144q67 125 67 260q0 35 -2 51h-100q-43 0 -74 30t-31 72q0 43 31 74t74 31h67q-16 131 -16 211q0 209 92 321q94 117 279 117q161 0 256 -131q29 -40 47 -86.5t18 -71.5q0 -44 -31 -75t-73 -31q-34 0 -61.5 21t-36.5 54q-10 42 -33 72 q-35 41 -86 41q-85 0 -121 -41q-43 -51 -43 -192q0 -96 18 -209h185q43 0 73.5 -31t30.5 -74t-30.5 -72.5t-73.5 -29.5h-152v-51q0 -165 -74 -322q40 4 62 4q71 0 164 -39q62 -20 73 -20q35 0 86 69q30 41 82 41q41 0 73 -31t32 -73q0 -33 -23 -63q-120 -150 -250 -150 q-57 0 -147 35q-66 24 -90 24q-65 0 -140 -18t-120 -35q-18 -6 -37 -6q-48 0 -76.5 30t-28.5 72z" />
<glyph unicode="&#xa4;" horiz-adv-x="1179" d="M82 248q0 31 22 53l146 148q-80 107 -80 253q0 147 80 254l-146 146q-22 25 -22 55t23 53t53 23q35 0 55 -23l152 -151q94 57 221 57t227 -59l154 153q23 23 55 23q31 0 53.5 -22.5t22.5 -53.5q0 -32 -23 -55l-151 -152q73 -106 73 -248q0 -141 -73 -247l151 -154 q23 -20 23 -53q0 -32 -22 -55t-54 -23q-29 0 -55 23l-156 157q-95 -59 -225 -59q-122 0 -221 55l-152 -153q-26 -23 -55 -23q-32 0 -54 23t-22 55zM324 702q0 -120 71 -189t191 -69t189 71t69 187q0 117 -71 189t-187 72q-120 0 -191 -70.5t-71 -190.5z" />
<glyph unicode="&#xa5;" horiz-adv-x="1275" d="M41 1380q0 44 32 73.5t72 29.5q50 0 82 -43l412 -570l410 570q32 43 84 43q40 0 71 -28.5t31 -72.5q0 -40 -18 -63l-474 -657h263q32 0 53.5 -22.5t21.5 -53.5q0 -33 -21.5 -55.5t-53.5 -22.5h-265v-107h265q32 0 53.5 -22t21.5 -53q0 -33 -21.5 -55.5t-53.5 -22.5h-265 v-162q0 -43 -30.5 -72.5t-73.5 -29.5q-42 0 -72 30t-30 72v162h-263q-32 0 -54.5 23t-22.5 55q0 31 22.5 53t54.5 22h263v107h-263q-32 0 -54.5 23t-22.5 55q0 31 22.5 53.5t54.5 22.5h260l-471 657q-20 26 -20 61z" />
<glyph unicode="&#xa6;" horiz-adv-x="575" d="M184 -209v619q0 42 31 72t74 30q42 0 72 -30t30 -72v-619q0 -42 -30 -72t-72 -30q-43 0 -74 30t-31 72zM184 934v618q0 43 31 73t74 30q41 0 71.5 -30.5t30.5 -72.5v-618q0 -42 -30.5 -72.5t-71.5 -30.5q-43 0 -74 30t-31 73z" />
<glyph unicode="&#xa7;" horiz-adv-x="1216" d="M184 588q0 108 40.5 192t101.5 127q-66 81 -66 215q0 164 101 266.5t264 102.5q159 0 264 -102q29 -32 29 -72q0 -43 -30 -74t-73 -31t-74 31q-41 41 -116 41t-116.5 -42t-41.5 -120q0 -67 27 -94q33 -24 143 -51q174 -38 284.5 -140.5t110.5 -244.5q0 -205 -139 -320 q63 -78 63 -215q0 -164 -100.5 -266t-263.5 -102q-159 0 -264 102q-29 32 -29 72q0 43 29.5 73.5t72.5 30.5q44 0 74 -30q44 -41 117 -41q75 0 116.5 41.5t41.5 119.5q0 68 -27 95q-33 24 -143 51q-172 38 -284 141t-112 244zM391 588q0 -45 35 -83.5t82.5 -60t86.5 -33.5 t56 -12q83 0 128.5 52t45.5 141q0 42 -29 78t-74 57.5t-84 34.5t-73 18q-86 0 -130 -50t-44 -142z" />
<glyph unicode="&#xa8;" horiz-adv-x="948" d="M205 1507v92q0 43 30.5 73t73.5 30q42 0 72.5 -30.5t30.5 -72.5v-92q0 -41 -31 -71.5t-72 -30.5q-43 0 -73.5 30.5t-30.5 71.5zM537 1507v92q0 43 30.5 73t73.5 30q41 0 71.5 -30t30.5 -73v-92q0 -41 -30.5 -71.5t-71.5 -30.5q-43 0 -73.5 30.5t-30.5 71.5z" />
<glyph unicode="&#xa9;" horiz-adv-x="1724" d="M102 731q0 155 60.5 295.5t162.5 242.5t242.5 162t294.5 60q155 0 295.5 -60t242.5 -162t162 -242.5t60 -295.5q0 -154 -60 -294.5t-162 -242.5t-242.5 -162.5t-295.5 -60.5q-154 0 -294.5 60.5t-242.5 162.5t-162.5 242.5t-60.5 294.5zM254 731q0 -165 81.5 -305 t221.5 -221.5t305 -81.5t306 81.5t223 221.5t82 305t-82 305.5t-223 222.5t-306 82t-305 -82t-221.5 -222.5t-81.5 -305.5zM471 729q0 198 109 320t284 122q131 0 222 -65t122 -182q4 -12 4 -19q0 -33 -24.5 -57.5t-57.5 -24.5q-26 0 -48 17t-29 45q-35 127 -189 127 q-109 0 -171 -75.5t-62 -207.5t62 -207.5t169 -75.5q170 0 197 156q4 32 31 51.5t61 14.5q30 -6 48 -28.5t18 -53.5q0 -34 -21.5 -88.5t-56.5 -96.5q-99 -114 -277 -114q-174 0 -282.5 121.5t-108.5 320.5z" />
<glyph unicode="&#xaa;" horiz-adv-x="835" d="M72 936q0 103 63 162q74 68 248 86q108 12 152 30q0 31 -2.5 43.5t-12.5 22.5q-31 31 -112 31q-101 0 -138 -47q-5 -7 -9 -16t-5 -14l-2 -5q-2 -31 -26 -52t-56 -20q-31 3 -52 27.5t-18 54.5q0 8 3 23.5t15 43.5t30 52q84 106 258 106q134 0 207 -63.5t73 -167.5v-363 q18 0 33 -6q12 -6 22 -16q21 -25 21 -53q0 -32 -23 -55t-55 -23q-47 0 -86 24q-18 13 -39 41q-94 -73 -227 -73q-118 0 -190 61t-72 166zM225 936q0 -74 109 -74q71 0 123.5 35t77.5 82v76q-48 -13 -136 -23q-120 -14 -159 -47q-15 -12 -15 -49z" />
<glyph unicode="&#xab;" horiz-adv-x="1130" d="M123 582q0 50 37 77l239 205q28 25 66 25q45 0 74.5 -30.5t29.5 -72.5q0 -49 -37 -79l-147 -125l147 -125q37 -30 37 -80q0 -42 -29.5 -72.5t-74.5 -30.5q-38 0 -66 25l-239 203q-37 30 -37 80zM561 582q0 50 37 77l240 205q28 25 65 25q45 0 75 -30.5t30 -72.5 q0 -49 -37 -79l-148 -125l148 -125q37 -30 37 -80q0 -42 -30 -72.5t-75 -30.5q-37 0 -65 25l-240 203q-37 30 -37 80z" />
<glyph unicode="&#xac;" horiz-adv-x="1308" d="M102 817q0 43 30 74t73 31h860q43 0 71.5 -31.5t28.5 -75.5v-397q0 -42 -30.5 -72.5t-71.5 -30.5q-43 0 -73 30t-29 73v297h-756q-43 0 -73 29.5t-30 72.5z" />
<glyph unicode="&#xad;" horiz-adv-x="901" d="M102 614q0 43 30 74t73 31h491q43 0 73 -31t30 -74t-30 -72.5t-73 -29.5h-491q-43 0 -73 29.5t-30 72.5z" />
<glyph unicode="&#xae;" horiz-adv-x="1228" d="M256 1112q0 156 111.5 267.5t267.5 111.5q155 0 266 -111t111 -268q0 -154 -111 -265.5t-266 -111.5t-267 111.5t-112 265.5zM342 1112q0 -122 85 -206.5t208 -84.5q121 0 206 84.5t85 206.5q0 123 -84.5 208t-206.5 85q-123 0 -208 -85t-85 -208zM477 956v328 q0 17 15 32t32 15h144q60 0 97.5 -36t37.5 -93q0 -52 -31 -86q19 -30 23 -86q4 -50 4 -51q6 -8 6 -23q0 -18 -15.5 -32.5t-31.5 -14.5q-10 0 -24.5 9.5t-18.5 21.5q-12 27 -15 86q0 6 -0.5 12.5t-0.5 9.5t-0.5 6t-0.5 4t-2 2.5t-3 2l-5 2.5q-15 7 -26 21t-11 32 q0 14 12 31.5t27 21.5q13 5 16 9t3 22q0 35 -41 35h-97v-281q0 -17 -15 -32t-32 -15t-32 15t-15 32z" />
<glyph unicode="&#xaf;" horiz-adv-x="1105" d="M205 1645q0 43 29.5 73.5t72.5 30.5h492q43 0 72.5 -30.5t29.5 -73.5t-29.5 -73t-72.5 -30h-492q-43 0 -72.5 30t-29.5 73z" />
<glyph unicode="&#xb0;" horiz-adv-x="933" d="M102 1126q0 151 107 258t258 107t257.5 -107t106.5 -258t-106.5 -257.5t-257.5 -106.5t-258 106t-107 258zM262 1128q0 -86 60.5 -146t146.5 -60q85 0 145 60t60 146q0 85 -60 145t-145 60q-86 0 -146.5 -60t-60.5 -145z" />
<glyph unicode="&#xb1;" horiz-adv-x="1228" d="M84 104q0 43 29.5 73t72.5 30h711q43 0 72.5 -30t29.5 -73t-29.5 -73.5t-72.5 -30.5h-711q-43 0 -72.5 30.5t-29.5 73.5zM84 752q0 43 29.5 72.5t72.5 29.5h252v252q0 42 31 73t72 31q43 0 73.5 -30.5t30.5 -73.5v-252h252q43 0 72.5 -29.5t29.5 -72.5t-30 -74t-72 -31 h-252v-241q0 -43 -30.5 -73t-73.5 -30q-42 0 -72.5 30.5t-30.5 72.5v241h-252q-42 0 -72 31t-30 74z" />
<glyph unicode="&#xb2;" horiz-adv-x="714" d="M102 788q0 64 29 123q64 131 225 189q123 50 123 125q0 28 -10.5 47t-27.5 27t-30.5 11t-27.5 3q-54 0 -86 -29q-24 -24 -27 -78q-1 -30 -23 -50.5t-52 -20.5q-33 0 -55.5 21.5t-22.5 53.5q0 109 71 183q76 73 195 73q107 0 178 -65q72 -69 72 -172q0 -60 -25 -109 q-53 -111 -198 -164q-91 -37 -127 -90h264q32 0 55 -23t23 -55t-22.5 -53.5t-55.5 -21.5h-367q-33 0 -55.5 21.5t-22.5 53.5z" />
<glyph unicode="&#xb3;" horiz-adv-x="731" d="M82 938v10q0 31 21.5 52.5t52.5 21.5t54 -20.5t26 -51.5q3 -43 34 -71q37 -29 90 -29q27 0 50 5.5t44 27t21 57.5q0 31 -11 47t-40 25t-47.5 33t-18.5 55q0 30 16.5 54.5t43.5 35.5q20 7 27.5 17.5t7.5 29.5q0 11 -3 21.5t-11.5 23.5t-29 21t-49.5 8q-98 0 -104 -92 q-3 -31 -26 -51.5t-54 -20.5t-52.5 22.5t-21.5 53.5q0 105 80 178q69 63 178 63q108 0 175 -61q71 -65 71 -166q0 -40 -14 -76t-31 -53q68 -62 68 -168q0 -110 -78 -178q-75 -66 -191 -66q-112 0 -190 66q-79 66 -88 176z" />
<glyph unicode="&#xb4;" horiz-adv-x="729" d="M207 1538q0 28 10 45l113 207q28 55 90 55q40 0 72 -30t32 -74q0 -25 -12 -49l-113 -207q-29 -53 -90 -53q-40 0 -71 30t-31 76z" />
<glyph unicode="&#xb6;" horiz-adv-x="1423" d="M102 977q0 204 123 336q145 151 404 151h508q43 0 72.5 -30.5t29.5 -73.5v-1567q0 -43 -29.5 -73.5t-72.5 -30.5t-74 30.5t-31 73.5v1464h-106v-1464q0 -43 -30 -73.5t-73 -30.5t-73.5 30.5t-30.5 73.5v686h-72q-256 0 -399 125q-146 131 -146 373z" />
<glyph unicode="&#xb7;" horiz-adv-x="495" d="M102 674v45q0 47 34 81t81 34h45q47 0 82 -34t35 -81v-45q0 -47 -34.5 -80t-82.5 -33h-45q-47 0 -81 33t-34 80z" />
<glyph unicode="&#xb8;" horiz-adv-x="907" d="M207 -467q9 42 44.5 65.5t76.5 14.5q110 -19 155 16q15 12 15 29q0 25 -42.5 38t-99.5 13q-55 0 -86 45q-28 46 -10 96l107 265q15 39 54 55.5t79 1.5q40 -17 56 -56t1 -79l-55 -141q101 -29 150.5 -95t49.5 -143q0 -116 -90 -188q-86 -70 -217 -70q-50 0 -108 12 q-41 7 -65 43.5t-15 77.5z" />
<glyph unicode="&#xb9;" horiz-adv-x="516" d="M102 1270q0 30 20 51.5t50 24.5q44 3 59 12q11 8 17 43q4 27 26 45t50 18h14q31 0 53.5 -23t22.5 -55v-604q0 -32 -22.5 -54.5t-53.5 -22.5q-32 0 -55 22.5t-23 54.5v422q-44 -12 -82 -12q-32 0 -54 23t-22 55z" />
<glyph unicode="&#xba;" horiz-adv-x="823" d="M72 1087q0 166 95 271.5t245 105.5t245 -105.5t95 -271.5q0 -167 -94.5 -272.5t-245.5 -105.5t-245.5 105.5t-94.5 272.5zM225 1087q0 -107 54 -167q52 -58 133 -58t133 58q53 59 53 167q0 107 -53 166q-49 58 -133 58t-133 -58q-54 -60 -54 -166z" />
<glyph unicode="&#xbb;" horiz-adv-x="1130" d="M123 377q0 50 37 80l147 125l-147 125q-37 30 -37 79q0 42 29.5 72.5t74.5 30.5q38 0 66 -25l239 -205q37 -27 37 -77t-37 -80l-239 -203q-28 -25 -66 -25q-45 0 -74.5 30.5t-29.5 72.5zM561 377q0 50 37 80l147 125l-147 125q-37 30 -37 79q0 42 30 72.5t75 30.5 q37 0 65 -25l240 -205q37 -27 37 -77t-37 -80l-240 -203q-28 -25 -65 -25q-45 0 -75 30.5t-30 72.5z" />
<glyph unicode="&#xbc;" horiz-adv-x="1531" d="M102 1270q0 30 20 51.5t50 24.5q44 3 59 12q11 8 17 43q4 27 26 45t50 18h14q31 0 53.5 -23t22.5 -55v-604q0 -32 -22.5 -54.5t-53.5 -22.5q-32 0 -55 22.5t-23 54.5v422q-44 -12 -82 -12q-32 0 -54 23t-22 55zM242 78q0 23 14 43l915 1343q23 33 64 33q30 0 53 -22.5 t23 -55.5q0 -20 -13 -43l-917 -1343q-23 -33 -64 -33q-30 0 -52.5 22.5t-22.5 55.5zM866 227v33q0 22 15 45l290 406q22 32 64 32h22q32 0 55 -22t23 -53v-363h21q31 0 53.5 -23t22.5 -55q0 -31 -22.5 -53t-53.5 -22h-21v-91q0 -32 -23 -55.5t-55 -23.5q-31 0 -53 23.5 t-22 55.5v91h-238q-32 0 -55 22t-23 53zM1071 305h111v156l-111 -154v-2z" />
<glyph unicode="&#xbd;" horiz-adv-x="1617" d="M102 1270q0 30 20 51.5t50 24.5q44 3 59 12q11 8 17 43q4 27 26 45t50 18h14q31 0 53.5 -23t22.5 -55v-604q0 -32 -22.5 -54.5t-53.5 -22.5q-32 0 -55 22.5t-23 54.5v422q-44 -12 -82 -12q-32 0 -54 23t-22 55zM262 78q0 23 14 43l916 1343q23 33 63 33q30 0 53 -22.5 t23 -55.5q0 -22 -12 -43l-918 -1343q-23 -33 -63 -33q-30 0 -53 22.5t-23 55.5zM985 76q0 64 29 123q64 129 225 188q123 49 123 125q0 28 -10.5 47t-27.5 27t-30.5 11t-27.5 3q-54 0 -86 -29q-24 -24 -27 -77q-1 -30 -23.5 -51t-52.5 -21q-32 0 -55 22t-23 54q0 107 72 182 q77 74 195 74q106 0 178 -66q72 -69 72 -172q0 -59 -25 -108q-53 -110 -199 -164q-91 -37 -127 -90h265q32 0 54.5 -23t22.5 -55t-22.5 -54t-54.5 -22h-367q-32 0 -55 22t-23 54z" />
<glyph unicode="&#xbe;" horiz-adv-x="1607" d="M82 938v10q0 31 21.5 52.5t52.5 21.5t54 -20.5t26 -51.5q3 -43 34 -71q37 -29 90 -29q27 0 50 5.5t44 27t21 57.5q0 31 -11 47t-40 25t-47.5 33t-18.5 55q0 30 16.5 54.5t43.5 35.5q20 7 27.5 17.5t7.5 29.5q0 11 -3 21.5t-11.5 23.5t-29 21t-49.5 8q-98 0 -104 -92 q-3 -31 -26 -51.5t-54 -20.5t-52.5 22.5t-21.5 53.5q0 105 80 178q69 63 178 63q108 0 175 -61q71 -65 71 -166q0 -40 -14 -76t-31 -53q68 -62 68 -168q0 -110 -78 -178q-75 -66 -191 -66q-112 0 -190 66q-79 66 -88 176zM346 78q0 23 14 43l916 1343q23 33 63 33 q30 0 53 -22.5t23 -55.5q0 -22 -12 -43l-918 -1343q-23 -33 -63 -33q-30 0 -53 22.5t-23 55.5zM963 227v33q0 24 14 45l291 406q22 32 63 32h23q32 0 55 -22t23 -53v-363h20q31 0 53.5 -23t22.5 -55q0 -31 -22.5 -53t-53.5 -22h-20v-91q0 -32 -23 -55.5t-55 -23.5 q-31 0 -53.5 23.5t-22.5 55.5v91h-238q-32 0 -54.5 22t-22.5 53zM1167 305h111v156l-111 -154v-2z" />
<glyph unicode="&#xbf;" horiz-adv-x="1179" d="M123 18q0 61 14 115t32 90t51 74.5t54.5 58t59.5 50.5l6 6q93 75 119.5 121.5t29.5 144.5q2 41 32 70.5t73 29.5q44 0 74 -32.5t28 -73.5q-2 -81 -17 -142t-47.5 -110.5t-66 -83.5t-92.5 -82l-6 -6q-41 -34 -59.5 -51.5t-40 -46t-29.5 -59.5t-8 -73q0 -94 63.5 -147 t173.5 -53q65 0 116 17.5t80.5 43.5t49.5 62t28 66.5t11 62.5q3 43 35.5 70t75.5 24q39 -4 65 -31.5t29 -66.5v-15q-6 -66 -26 -127.5t-59 -119t-94 -100t-135 -68t-176 -25.5q-196 0 -320 113.5t-124 293.5zM459 961v45q0 47 33.5 79.5t80.5 32.5h45q48 0 81.5 -32.5 t33.5 -79.5v-45q0 -47 -34 -80t-81 -33h-45q-47 0 -80.5 33t-33.5 80z" />
<glyph unicode="&#xc0;" d="M61 84q0 16 7 37l481 1276q15 48 63 61q-10 10 -20 27l-113 207q-12 21 -12 47q0 45 32.5 74.5t71.5 29.5q64 0 91 -53l112 -207q12 -21 12 -47q0 -44 -30 -74q57 -7 80 -63l483 -1278q8 -19 8 -43q-1 -40 -34.5 -67t-71.5 -27q-31 0 -57 17t-38 46l-139 369h-588 l-139 -369q-11 -32 -37.5 -47.5t-58.5 -15.5q-43 0 -73 26.5t-30 73.5zM477 621h432l-219 573z" />
<glyph unicode="&#xc1;" d="M61 84q0 16 7 37l481 1276q9 26 30 43t48 22q-31 31 -31 76q0 24 12 45l113 207q28 55 90 55q39 0 71.5 -30t32.5 -74q0 -25 -12 -49l-112 -207q-9 -15 -21 -27q47 -13 66 -59l483 -1278q8 -19 8 -43q-1 -40 -34.5 -67t-71.5 -27q-31 0 -57 17t-38 46l-139 369h-588 l-139 -369q-11 -32 -37.5 -47.5t-58.5 -15.5q-43 0 -73 26.5t-30 73.5zM477 621h432l-219 573z" />
<glyph unicode="&#xc2;" d="M61 84q0 16 7 37l481 1276q10 30 36.5 48.5t59.5 18.5h94q31 0 58 -18t39 -47l483 -1278q8 -19 8 -43q-1 -40 -34.5 -67t-71.5 -27q-31 0 -57 17t-38 46l-139 369h-588l-139 -369q-11 -32 -37.5 -47.5t-58.5 -15.5q-43 0 -73 26.5t-30 73.5zM422 1585q0 45 31 76l170 162 q28 28 71 28q42 0 70 -28l170 -162q31 -31 31 -76q0 -44 -31 -73t-72 -29q-43 0 -71 28l-99 95l-96 -95q-28 -28 -72 -28q-45 0 -73.5 31.5t-28.5 70.5zM477 621h432l-219 573z" />
<glyph unicode="&#xc3;" d="M61 84q0 16 7 37l481 1276q10 30 36.5 48.5t59.5 18.5h94q31 0 58 -18t39 -47l483 -1278q8 -19 8 -43q-1 -40 -34.5 -67t-71.5 -27q-31 0 -57 17t-38 46l-139 369h-588l-139 -369q-11 -32 -37.5 -47.5t-58.5 -15.5q-43 0 -73 26.5t-30 73.5zM342 1585q0 15 2 23 q19 89 85 143.5t153 54.5q95 0 161 -63q2 -2 16.5 -19t26 -26.5t19.5 -9.5q14 0 24 11t13 25q7 35 36 58.5t64 23.5q44 0 74.5 -31t30.5 -71q0 -11 -3 -23q-20 -88 -86.5 -143t-152.5 -55q-107 0 -180 82q-1 1 -5.5 7.5t-9 12.5t-12.5 11.5t-16 5.5q-14 0 -23.5 -11.5 t-13.5 -25.5q-7 -36 -36.5 -59t-66.5 -23q-42 0 -71 30.5t-29 71.5zM477 621h432l-219 573z" />
<glyph unicode="&#xc4;" d="M61 84q0 16 7 37l481 1276l6 12q-20 -4 -29 -4q-43 0 -73.5 30.5t-30.5 71.5v92q0 43 30.5 73t73.5 30q42 0 72.5 -30.5t30.5 -72.5v-92q0 -24 -13 -47q20 4 29 4h94q11 0 27 -4q-12 21 -12 47v92q0 43 30.5 73t73.5 30q42 0 72.5 -30.5t30.5 -72.5v-92q0 -41 -31 -71.5 t-72 -30.5q-11 0 -27 4l5 -10l483 -1278q8 -19 8 -43q-1 -40 -34.5 -67t-71.5 -27q-31 0 -57 17t-38 46l-139 369h-588l-139 -369q-11 -32 -37.5 -47.5t-58.5 -15.5q-43 0 -73 26.5t-30 73.5zM477 621h432l-219 573z" />
<glyph unicode="&#xc5;" d="M61 84q0 16 7 37l481 1276l4 10q-72 65 -72 158q0 88 62.5 150.5t150.5 62.5t150.5 -62.5t62.5 -150.5q0 -95 -73 -162l2 -4l483 -1278q8 -19 8 -43q-1 -40 -34.5 -67t-71.5 -27q-31 0 -57 17t-38 46l-139 369h-588l-139 -369q-11 -32 -37.5 -47.5t-58.5 -15.5 q-43 0 -73 26.5t-30 73.5zM477 621h432l-219 573zM594 1565q0 -41 29.5 -71t70.5 -30t71 30t30 71t-30 70.5t-71 29.5t-70.5 -29.5t-29.5 -70.5z" />
<glyph unicode="&#xc6;" horiz-adv-x="2097" d="M61 88q0 18 7 35l481 1276q10 29 37 47t59 18h1247q42 0 72.5 -30t30.5 -72q0 -43 -30 -74t-73 -31h-731v-378h666q43 0 73.5 -31t30.5 -74t-30.5 -72.5t-73.5 -29.5h-666v-465h752q42 0 72 -31t30 -74t-29.5 -72.5t-72.5 -29.5h-854q-43 0 -73 29.5t-30 72.5v316h-557 l-139 -367q-10 -30 -36.5 -48.5t-59.5 -18.5q-41 0 -72 28t-31 76zM477 625h479v635h-239z" />
<glyph unicode="&#xc7;" horiz-adv-x="1458" d="M102 729q0 219 79.5 390.5t234 271.5t360.5 100q212 0 364.5 -107.5t205.5 -304.5q2 -8 2 -26q0 -41 -29.5 -72t-73.5 -31q-34 0 -62.5 21.5t-37.5 56.5q-33 128 -129 192t-240 64q-223 0 -345 -152.5t-122 -402.5q0 -161 52 -284.5t157.5 -195t251.5 -71.5 q175 0 276.5 92t122.5 256q4 39 34.5 65.5t70.5 26.5q41 0 70 -29t32 -71q0 -10 -2 -16q-27 -219 -161.5 -360t-352.5 -167l-33 -79q102 -29 151.5 -95t49.5 -143q0 -116 -90 -188q-86 -70 -217 -70q-50 0 -109 12q-41 7 -65 43.5t-15 77.5q9 42 44.5 65.5t76.5 14.5 q111 -19 156 16q14 11 14 29q0 25 -42.5 38t-98.5 13q-55 0 -86 45q-28 46 -10 96l53 134q-114 21 -210.5 79t-170 150t-115 224.5t-41.5 291.5z" />
<glyph unicode="&#xc8;" horiz-adv-x="1325" d="M184 102v1260q0 42 30 72t73 30h358q-7 7 -14 21l-113 207q-12 21 -12 47q0 45 32 74.5t72 29.5q63 0 90 -53l113 -207q10 -18 10 -47q0 -44 -28 -72h325q42 0 72.5 -30t30.5 -72q0 -43 -30 -74t-73 -31h-731v-378h666q43 0 73.5 -31t30.5 -74t-30.5 -72.5t-73.5 -29.5 h-666v-465h752q42 0 72 -31t30 -74t-29.5 -72.5t-72.5 -29.5h-854q-43 0 -73 29.5t-30 72.5z" />
<glyph unicode="&#xc9;" horiz-adv-x="1325" d="M184 102v1260q0 42 30 72t73 30h338q-29 29 -29 74q0 28 10 45l113 207q28 55 90 55q40 0 72 -30t32 -74q0 -25 -12 -49l-113 -207q-7 -14 -14 -21h346q42 0 72.5 -30t30.5 -72q0 -43 -30 -74t-73 -31h-731v-378h666q43 0 73.5 -31t30.5 -74t-30.5 -72.5t-73.5 -29.5 h-666v-465h752q42 0 72 -31t30 -74t-29.5 -72.5t-72.5 -29.5h-854q-43 0 -73 29.5t-30 72.5z" />
<glyph unicode="&#xca;" horiz-adv-x="1325" d="M184 102v1260q0 42 30 72t73 30h833q42 0 72.5 -30t30.5 -72q0 -43 -30 -74t-73 -31h-731v-378h666q43 0 73.5 -31t30.5 -74t-30.5 -72.5t-73.5 -29.5h-666v-465h752q42 0 72 -31t30 -74t-29.5 -72.5t-72.5 -29.5h-854q-43 0 -73 29.5t-30 72.5zM442 1647q0 44 31 75 l170 162q29 29 72 29q40 0 69 -29l170 -162q31 -31 31 -75t-30.5 -73.5t-71.5 -29.5q-43 0 -72 29l-98 94l-97 -94q-29 -29 -71 -29q-45 0 -74 32t-29 71z" />
<glyph unicode="&#xcb;" horiz-adv-x="1325" d="M184 102v1260q0 42 30 72t73 30h159q-10 20 -10 43v92q0 43 31 73t74 30q41 0 71.5 -30t30.5 -73v-92q0 -23 -10 -43h145q-10 20 -10 43v92q0 43 30.5 73t73.5 30q42 0 72.5 -30.5t30.5 -72.5v-92q0 -23 -10 -43h155q42 0 72.5 -30t30.5 -72q0 -43 -30 -74t-73 -31h-731 v-378h666q43 0 73.5 -31t30.5 -74t-30.5 -72.5t-73.5 -29.5h-666v-465h752q42 0 72 -31t30 -74t-29.5 -72.5t-72.5 -29.5h-854q-43 0 -73 29.5t-30 72.5z" />
<glyph unicode="&#xcc;" horiz-adv-x="575" d="M61 1741q0 44 33 74t72 30q62 0 90 -55l113 -207q12 -21 12 -45q0 -43 -33 -76q43 -29 43 -84v-1292q0 -43 -30.5 -72.5t-73.5 -29.5q-42 0 -72.5 30t-30.5 72v1292q0 43 31 74q-13 8 -29 33l-112 207q-13 26 -13 49z" />
<glyph unicode="&#xcd;" horiz-adv-x="575" d="M184 86v1292q0 51 39 82q-30 30 -30 78q0 28 10 45l112 207q13 26 38 40.5t53 14.5q40 0 72 -30t32 -74q0 -25 -12 -49l-113 -207q-8 -16 -27 -31q33 -30 33 -76v-1292q0 -43 -30.5 -72.5t-73.5 -29.5q-42 0 -72.5 30t-30.5 72z" />
<glyph unicode="&#xce;" horiz-adv-x="575" d="M20 1585q0 45 31 76l170 162q28 28 72 28q41 0 69 -28l170 -162q31 -31 31 -76q0 -44 -30.5 -73t-71.5 -29q-44 0 -72 28l-98 95l-96 -95q-28 -28 -72 -28q-45 0 -74 31.5t-29 70.5zM184 86v1292q0 43 31 74t72 31q43 0 73.5 -31t30.5 -74v-1292q0 -43 -30.5 -72.5 t-73.5 -29.5q-42 0 -72.5 30t-30.5 72z" />
<glyph unicode="&#xcf;" horiz-adv-x="575" d="M18 1585v92q0 43 31 73t74 30q41 0 71.5 -30t30.5 -73v-92q0 -41 -30.5 -71.5t-71.5 -30.5q-43 0 -74 30.5t-31 71.5zM184 86v1292q0 43 31 74t72 31q43 0 73.5 -31t30.5 -74v-1292q0 -43 -30.5 -72.5t-73.5 -29.5q-42 0 -72.5 30t-30.5 72zM350 1585v92q0 43 31 73 t74 30q41 0 71.5 -30t30.5 -73v-92q0 -41 -30.5 -71.5t-71.5 -30.5q-43 0 -74 30.5t-31 71.5z" />
<glyph unicode="&#xd0;" horiz-adv-x="1464" d="M102 817q0 38 23 66.5t59 36.5v442q0 42 30 72t73 30h438q303 0 470 -193t167 -544q0 -347 -170 -537t-481 -190h-424q-43 0 -73 29.5t-30 72.5v615q-36 6 -59 34t-23 66zM391 207h320q444 0 444 520q0 530 -430 530h-334v-335h305q43 0 73 -31t30 -74t-30 -72.5 t-73 -29.5h-305v-508z" />
<glyph unicode="&#xd1;" horiz-adv-x="1507" d="M184 86v1276q0 42 30 72t73 30h84q56 0 88 -49l655 -1073h2v1036q0 43 30 74t73 31t73.5 -31t30.5 -74v-1276q0 -43 -30.5 -72.5t-73.5 -29.5h-76q-60 0 -88 49l-662 1081h-2v-1044q0 -43 -30.5 -72.5t-73.5 -29.5t-73 29.5t-30 72.5zM401 1585q0 15 2 23q19 89 85 143.5 t153 54.5q96 0 162 -63q3 -3 17 -19.5t25 -26t19 -9.5q14 0 24 11t13 25q7 35 36 58.5t64 23.5q43 0 74 -31t31 -71q0 -15 -2 -23q-20 -88 -87 -143t-153 -55q-107 0 -180 82q-1 1 -5.5 7.5t-9 12.5t-12.5 11.5t-16 5.5q-14 0 -23.5 -11.5t-13.5 -25.5q-7 -36 -36 -59 t-66 -23q-42 0 -71.5 30.5t-29.5 71.5z" />
<glyph unicode="&#xd2;" horiz-adv-x="1579" d="M102 731q0 200 75 364t209 265.5t306 124.5l-112 207q-13 26 -13 49q0 44 33 74t72 30q62 0 90 -55l112 -207q11 -19 11 -47q0 -26 -13 -49q176 -21 313.5 -123t214.5 -267t77 -366q0 -217 -89 -391t-247 -271.5t-355 -97.5q-146 0 -273 57.5t-217.5 157.5t-142 241 t-51.5 304zM309 731q0 -249 131.5 -401t345.5 -152q217 0 350.5 152t133.5 401q0 248 -133.5 400.5t-350.5 152.5q-214 0 -345.5 -152.5t-131.5 -400.5z" />
<glyph unicode="&#xd3;" horiz-adv-x="1579" d="M102 731q0 299 162 507t420 245q-14 22 -14 55q0 28 10 45l113 207q28 55 90 55q40 0 72 -30t32 -74q0 -25 -12 -49l-111 -205q178 -19 317 -120t217.5 -267t78.5 -369q0 -217 -89 -391t-247 -271.5t-355 -97.5q-146 0 -273 57.5t-217.5 157.5t-142 241t-51.5 304z M309 731q0 -249 131.5 -401t345.5 -152q217 0 350.5 152t133.5 401q0 248 -133.5 400.5t-350.5 152.5q-214 0 -345.5 -152.5t-131.5 -400.5z" />
<glyph unicode="&#xd4;" horiz-adv-x="1579" d="M102 731q0 163 51.5 304t142 241t217.5 157.5t273 57.5q197 0 355 -97.5t247 -271.5t89 -391t-89 -391t-247 -271.5t-355 -97.5q-146 0 -273 57.5t-217.5 157.5t-142 241t-51.5 304zM309 731q0 -249 131.5 -401t345.5 -152q217 0 350.5 152t133.5 401q0 248 -133.5 400.5 t-350.5 152.5q-214 0 -345.5 -152.5t-131.5 -400.5zM510 1618q0 45 31 76l170 161q29 29 71 29q41 0 70 -29l170 -161q31 -31 31 -76q0 -44 -31 -73t-72 -29q-43 0 -71 28l-99 94l-96 -94q-28 -28 -72 -28q-45 0 -73.5 31.5t-28.5 70.5z" />
<glyph unicode="&#xd5;" horiz-adv-x="1579" d="M102 731q0 163 51.5 304t142 241t217.5 157.5t273 57.5q197 0 355 -97.5t247 -271.5t89 -391t-89 -391t-247 -271.5t-355 -97.5q-146 0 -273 57.5t-217.5 157.5t-142 241t-51.5 304zM309 731q0 -249 131.5 -401t345.5 -152q217 0 350.5 152t133.5 401q0 248 -133.5 400.5 t-350.5 152.5q-214 0 -345.5 -152.5t-131.5 -400.5zM438 1651q0 14 2 22q19 89 85 144t153 55q95 0 162 -64q3 -3 17 -19.5t25 -26t19 -9.5q14 0 23.5 11.5t13.5 25.5q7 35 36 58.5t64 23.5q43 0 74 -31t31 -72q0 -14 -2 -22q-20 -88 -87 -143.5t-153 -55.5q-107 0 -180 82 q-1 1 -5.5 7.5t-9 12.5t-12.5 11.5t-16 5.5q-14 0 -23.5 -11.5t-13.5 -25.5q-7 -36 -36 -59t-66 -23q-42 0 -71.5 31t-29.5 72z" />
<glyph unicode="&#xd6;" horiz-adv-x="1579" d="M102 731q0 254 119.5 446t319.5 269q-21 32 -21 61v92q0 43 31 73t74 30q41 0 71.5 -30t30.5 -73v-92q0 -12 -2 -18q20 2 61 2q22 0 68 -4q-2 8 -2 20v92q0 43 30.5 73t73.5 30q42 0 72.5 -30.5t30.5 -72.5v-92q0 -35 -23 -61q202 -79 321.5 -270t119.5 -445 q0 -217 -89 -391t-247 -271.5t-355 -97.5q-146 0 -273 57.5t-217.5 157.5t-142 241t-51.5 304zM309 731q0 -249 131.5 -401t345.5 -152q217 0 350.5 152t133.5 401q0 248 -133.5 400.5t-350.5 152.5q-214 0 -345.5 -152.5t-131.5 -400.5z" />
<glyph unicode="&#xd7;" horiz-adv-x="1048" d="M102 358q0 43 31 74l246 246l-246 244q-31 31 -31 73q0 44 31 73.5t74 29.5q44 0 72 -31l245 -244l246 244q31 31 72 31q45 0 74.5 -31.5t29.5 -71.5q0 -42 -31 -73l-245 -244l245 -246q31 -31 31 -74q0 -40 -31.5 -71t-72.5 -31q-44 0 -72 31l-246 243l-245 -243 q-31 -31 -72 -31q-40 0 -72.5 31.5t-32.5 70.5z" />
<glyph unicode="&#xd8;" horiz-adv-x="1579" d="M102 731q0 163 51.5 304t142 241t217.5 157.5t273 57.5q157 0 291 -64l39 66q13 24 38 38.5t52 14.5q40 0 71.5 -29.5t31.5 -74.5q0 -27 -15 -51l-47 -80q109 -105 169.5 -254t60.5 -326q0 -217 -89 -391t-247 -271.5t-355 -97.5q-144 0 -276 58l-43 -74q-28 -51 -90 -51 q-39 0 -72 29.5t-33 74.5q0 27 15 51l49 86q-111 103 -172.5 254.5t-61.5 331.5zM309 731q0 -248 133 -403l533 919q-84 37 -189 37q-214 0 -345.5 -152.5t-131.5 -400.5zM612 209q82 -31 174 -31q217 0 350.5 152t133.5 401q0 242 -129 393z" />
<glyph unicode="&#xd9;" horiz-adv-x="1404" d="M143 485v895q0 43 31 73t74 30t72.5 -30t29.5 -73v-899q0 -161 90.5 -232t257.5 -71q164 0 260.5 71.5t96.5 231.5v899q0 43 30.5 73t73.5 30t73 -30t30 -73v-895q0 -109 -31.5 -197t-84.5 -146.5t-126.5 -97.5t-153.5 -56t-168 -17q-264 0 -409.5 135t-145.5 379z M498 1741q0 44 32.5 74t71.5 30q62 0 90 -55l113 -207q12 -21 12 -45q0 -45 -31.5 -75.5t-70.5 -30.5q-28 0 -53.5 14.5t-38.5 38.5l-113 207q-12 24 -12 49z" />
<glyph unicode="&#xda;" horiz-adv-x="1404" d="M143 485v895q0 43 31 73t74 30t72.5 -30t29.5 -73v-899q0 -161 90.5 -232t257.5 -71q164 0 260.5 71.5t96.5 231.5v899q0 43 30.5 73t73.5 30t73 -30t30 -73v-895q0 -109 -31.5 -197t-84.5 -146.5t-126.5 -97.5t-153.5 -56t-168 -17q-264 0 -409.5 135t-145.5 379z M541 1538q0 28 10 45l113 207q28 55 90 55q40 0 72 -30t32 -74q0 -25 -12 -49l-113 -207q-29 -53 -90 -53q-40 0 -71 30t-31 76z" />
<glyph unicode="&#xdb;" horiz-adv-x="1404" d="M143 485v895q0 43 31 73t74 30t72.5 -30t29.5 -73v-899q0 -161 90.5 -232t257.5 -71q164 0 260.5 71.5t96.5 231.5v899q0 43 30.5 73t73.5 30t73 -30t30 -73v-895q0 -109 -31.5 -197t-84.5 -146.5t-126.5 -97.5t-153.5 -56t-168 -17q-264 0 -409.5 135t-145.5 379z M428 1585q0 45 31 76l170 162q28 28 71 28q42 0 70 -28l170 -162q31 -31 31 -76q0 -44 -31 -73t-72 -29q-43 0 -71 28l-99 95l-96 -95q-28 -28 -72 -28q-45 0 -73.5 31.5t-28.5 70.5z" />
<glyph unicode="&#xdc;" horiz-adv-x="1404" d="M143 485v895q0 43 31 73t74 30t72.5 -30t29.5 -73v-899q0 -161 90.5 -232t257.5 -71q164 0 260.5 71.5t96.5 231.5v899q0 43 30.5 73t73.5 30t73 -30t30 -73v-895q0 -109 -31.5 -197t-84.5 -146.5t-126.5 -97.5t-153.5 -56t-168 -17q-264 0 -409.5 135t-145.5 379z M430 1507v92q0 43 31 73t74 30q41 0 71.5 -30t30.5 -73v-92q0 -41 -30.5 -71.5t-71.5 -30.5q-43 0 -74 30.5t-31 71.5zM762 1507v92q0 43 30.5 73t73.5 30q42 0 72.5 -30.5t30.5 -72.5v-92q0 -41 -31 -71.5t-72 -30.5q-43 0 -73.5 30.5t-30.5 71.5z" />
<glyph unicode="&#xdd;" horiz-adv-x="1275" d="M41 1380q0 44 32 73.5t72 29.5q50 0 82 -43l412 -570l410 570q32 43 84 43q40 0 71 -28.5t31 -72.5q0 -40 -18 -63l-476 -660v-573q0 -43 -30.5 -72.5t-73.5 -29.5q-42 0 -72 30t-30 72v573l-474 660q-20 26 -20 61zM479 1538q0 28 10 45l113 207q28 55 90 55 q40 0 72.5 -30t32.5 -74q0 -23 -13 -49l-112 -207q-29 -53 -90 -53q-40 0 -71.5 30t-31.5 76z" />
<glyph unicode="&#xde;" horiz-adv-x="1308" d="M184 84v1294q0 43 31 74t72 31q43 0 73.5 -31t30.5 -74v-123h383q218 0 345.5 -119.5t127.5 -320.5q0 -214 -127.5 -330t-361.5 -116h-367v-285q0 -43 -30.5 -72.5t-73.5 -29.5t-73 29.5t-30 72.5zM391 573h367q72 0 125 14t83 36t47.5 56t23 65t5.5 71q0 234 -268 234 h-383v-476z" />
<glyph unicode="&#xdf;" horiz-adv-x="1081" d="M143 102v965q0 195 107.5 309.5t277.5 114.5q192 0 301 -105.5t109 -275.5q0 -148 -80 -252q-17 -23 -33 -37q10 -5 39 -30q135 -129 135 -361q0 -196 -104 -315q-58 -68 -149 -106t-193 -38q-32 0 -78 11q-91 23 -88 112q1 42 37 70t76 22q10 -1 29.5 -4.5t23.5 -3.5 q69 1 118.5 22.5t74.5 58.5t36 78.5t11 90.5q0 194 -127 250q-56 24 -82.5 55.5t-26.5 77.5q0 34 9.5 60t27.5 41.5t29 22t28 13.5q80 35 80 162q0 176 -201 176q-88 0 -134 -57.5t-46 -157.5v-969q0 -42 -30 -72t-72 -30q-43 0 -74 30t-31 72z" />
<glyph unicode="&#xe0;" horiz-adv-x="1155" d="M96 309q0 152 92 240q107 101 367 131q152 15 240 51v43q0 63 -47 100q-52 35 -156 35q-152 0 -215 -78q-10 -15 -17.5 -30.5t-9.5 -24.5l-2 -8q-1 -41 -31.5 -69.5t-70.5 -28.5q-39 0 -73 29t-30 81q0 13 4 35t21 63.5t45 77.5q122 160 379 160q219 0 328 -121 q81 -89 81 -225l-2 -545q0 -25 5 -35q45 1 76.5 -29t31.5 -73t-30.5 -73.5t-71.5 -30.5q-102 0 -160 67q-12 14 -27 37q-144 -117 -344 -117q-176 0 -279.5 93t-103.5 245zM303 309q0 -55 33 -88q43 -43 143 -43q145 0 246 101q42 42 68 94v139q-91 -26 -215 -39 q-192 -20 -248 -76q-27 -24 -27 -88zM399 1518q0 44 33 74t72 30q62 0 90 -55l113 -207q12 -21 12 -45q0 -45 -32 -76t-71 -31q-28 0 -53.5 14.5t-38.5 39.5l-112 206q-13 26 -13 50z" />
<glyph unicode="&#xe1;" horiz-adv-x="1155" d="M96 309q0 152 92 240q107 101 367 131q152 15 240 51v43q0 63 -47 100q-52 35 -156 35q-152 0 -215 -78q-10 -15 -17.5 -30.5t-9.5 -24.5l-2 -8q-1 -41 -31.5 -69.5t-70.5 -28.5q-39 0 -73 29t-30 81q0 13 4 35t21 63.5t45 77.5q122 160 379 160q219 0 328 -121 q81 -89 81 -225l-2 -545q0 -25 5 -35q45 1 76.5 -29t31.5 -73t-30.5 -73.5t-71.5 -30.5q-102 0 -160 67q-12 14 -27 37q-144 -117 -344 -117q-176 0 -279.5 93t-103.5 245zM303 309q0 -55 33 -88q43 -43 143 -43q145 0 246 101q42 42 68 94v139q-91 -26 -215 -39 q-192 -20 -248 -76q-27 -24 -27 -88zM451 1315q0 27 10 45l112 207q13 26 38 40.5t53 14.5q40 0 72 -30t32 -74q0 -26 -12 -50l-113 -206q-14 -25 -38 -39.5t-52 -14.5q-40 0 -71 30.5t-31 76.5z" />
<glyph unicode="&#xe2;" horiz-adv-x="1155" d="M96 309q0 152 92 240q107 101 367 131q152 15 240 51v43q0 63 -47 100q-52 35 -156 35q-152 0 -215 -78q-10 -15 -17.5 -30.5t-9.5 -24.5l-2 -8q-1 -41 -31.5 -69.5t-70.5 -28.5q-39 0 -73 29t-30 81q0 13 4 35t21 63.5t45 77.5q122 160 379 160q219 0 328 -121 q81 -89 81 -225l-2 -545q0 -25 5 -35q45 1 76.5 -29t31.5 -73t-30.5 -73.5t-71.5 -30.5q-102 0 -160 67q-12 14 -27 37q-144 -117 -344 -117q-176 0 -279.5 93t-103.5 245zM303 309q0 -55 33 -88q43 -43 143 -43q145 0 246 101q42 42 68 94v139q-91 -26 -215 -39 q-192 -20 -248 -76q-27 -24 -27 -88zM338 1323q0 45 31 76l170 162q28 28 71 28q42 0 70 -28l170 -162q31 -31 31 -76q0 -44 -31 -73t-72 -29q-43 0 -71 28l-99 94l-96 -94q-28 -28 -72 -28q-45 0 -73.5 31.5t-28.5 70.5z" />
<glyph unicode="&#xe3;" horiz-adv-x="1155" d="M96 309q0 152 92 240q107 101 367 131q152 15 240 51v43q0 63 -47 100q-52 35 -156 35q-152 0 -215 -78q-10 -15 -17.5 -30.5t-9.5 -24.5l-2 -8q-1 -41 -31.5 -69.5t-70.5 -28.5q-39 0 -73 29t-30 81q0 13 4 35t21 63.5t45 77.5q122 160 379 160q219 0 328 -121 q81 -89 81 -225l-2 -545q0 -25 5 -35q45 1 76.5 -29t31.5 -73t-30.5 -73.5t-71.5 -30.5q-102 0 -160 67q-12 14 -27 37q-144 -117 -344 -117q-176 0 -279.5 93t-103.5 245zM256 1311q0 14 2 22q19 89 85 144t153 55q94 0 161 -64q2 -2 16.5 -19t26 -26.5t19.5 -9.5 q14 0 23.5 11.5t13.5 25.5q7 35 36 58.5t64 23.5q44 0 74.5 -31t30.5 -71q0 -11 -3 -23q-20 -88 -86.5 -143.5t-152.5 -55.5q-107 0 -180 82q-1 1 -5.5 7.5t-9 12.5t-12.5 11.5t-16 5.5q-14 0 -23.5 -11.5t-13.5 -25.5q-7 -36 -36.5 -59t-66.5 -23q-42 0 -71 31t-29 72z M303 309q0 -55 33 -88q43 -43 143 -43q145 0 246 101q42 42 68 94v139q-91 -26 -215 -39q-192 -20 -248 -76q-27 -24 -27 -88z" />
<glyph unicode="&#xe4;" horiz-adv-x="1155" d="M96 309q0 152 92 240q107 101 367 131q152 15 240 51v43q0 63 -47 100q-52 35 -156 35q-152 0 -215 -78q-10 -15 -17.5 -30.5t-9.5 -24.5l-2 -8q-1 -41 -31.5 -69.5t-70.5 -28.5q-39 0 -73 29t-30 81q0 13 4 35t21 63.5t45 77.5q122 160 379 160q219 0 328 -121 q81 -89 81 -225l-2 -545q0 -25 5 -35q45 1 76.5 -29t31.5 -73t-30.5 -73.5t-71.5 -30.5q-102 0 -160 67q-12 14 -27 37q-144 -117 -344 -117q-176 0 -279.5 93t-103.5 245zM303 309q0 -55 33 -88q43 -43 143 -43q145 0 246 101q42 42 68 94v139q-91 -26 -215 -39 q-192 -20 -248 -76q-27 -24 -27 -88zM313 1296v93q0 42 31 72t74 30q42 0 72 -30t30 -72v-93q0 -41 -30.5 -71.5t-71.5 -30.5q-43 0 -74 30.5t-31 71.5zM645 1296v93q0 42 31 72t74 30q42 0 72 -30t30 -72v-93q0 -41 -30.5 -71.5t-71.5 -30.5q-43 0 -74 30.5t-31 71.5z" />
<glyph unicode="&#xe5;" horiz-adv-x="1155" d="M96 309q0 152 92 240q107 101 367 131q152 15 240 51v43q0 63 -47 100q-52 35 -156 35q-152 0 -215 -78q-10 -15 -17.5 -30.5t-9.5 -24.5l-2 -8q-1 -41 -31.5 -69.5t-70.5 -28.5q-39 0 -73 29t-30 81q0 13 4 35t21 63.5t45 77.5q122 160 379 160q219 0 328 -121 q81 -89 81 -225l-2 -545q0 -25 5 -35q45 1 76.5 -29t31.5 -73t-30.5 -73.5t-71.5 -30.5q-102 0 -160 67q-12 14 -27 37q-144 -117 -344 -117q-176 0 -279.5 93t-103.5 245zM303 309q0 -55 33 -88q43 -43 143 -43q145 0 246 101q42 42 68 94v139q-91 -26 -215 -39 q-192 -20 -248 -76q-27 -24 -27 -88zM395 1411q0 88 62.5 150.5t150.5 62.5t150.5 -62.5t62.5 -150.5t-62.5 -150.5t-150.5 -62.5t-150.5 62.5t-62.5 150.5zM508 1411q0 -41 29.5 -70.5t70.5 -29.5t71 29.5t30 70.5t-30 70.5t-71 29.5t-70.5 -29.5t-29.5 -70.5z" />
<glyph unicode="&#xe6;" horiz-adv-x="1857" d="M96 309q0 152 92 240q111 105 367 131q160 17 240 53q0 57 -5 81t-26 46q-46 49 -174 49q-144 0 -203 -65q-32 -32 -39 -72q0 -41 -29.5 -70.5t-72.5 -29.5t-73 29.5t-32 70.5q0 43 21.5 101.5t73.5 113.5q123 129 354 129q137 0 218 -39t134 -108q141 147 354 147 q201 0 326 -125q73 -73 112 -188t42 -242q3 -45 -29 -74q-29 -32 -74 -32h-672q45 -277 304 -277q191 0 249 174q12 40 50 60t79 8q40 -14 60 -52t8 -79q-49 -151 -168.5 -234.5t-277.5 -83.5q-125 0 -220.5 45.5t-185.5 147.5q-31 -35 -67.5 -65.5t-88.5 -61t-120 -48.5 t-142 -18q-180 0 -282.5 96t-102.5 242zM303 309q0 -64 47 -97.5t131 -33.5q112 0 198.5 61.5t123.5 153.5q-12 55 -15 119q-92 -26 -210 -37q-192 -22 -246 -76q-29 -26 -29 -90zM1008 662h551q-24 125 -85.5 186t-177.5 61q-109 0 -185.5 -65.5t-102.5 -181.5z" />
<glyph unicode="&#xe7;" horiz-adv-x="1126" d="M82 543q0 256 140.5 414.5t367.5 158.5q169 0 286.5 -85t157.5 -236q4 -16 4 -25q0 -42 -31 -73t-73 -31q-34 0 -62.5 21t-37.5 56q-43 166 -244 166q-141 0 -221 -97t-80 -269q0 -170 80 -267.5t219 -97.5q217 0 252 201q7 41 42.5 65.5t78.5 18.5q38 -7 60.5 -36 t22.5 -69q0 -43 -28 -113t-72 -124q-103 -122 -276 -144l-35 -90q102 -29 151.5 -95t49.5 -142q0 -117 -91 -189q-84 -69 -217 -69q-50 0 -108 12q-41 7 -65 43.5t-15 77.5q9 42 44.5 65.5t76.5 14.5q110 -19 155 16q15 12 15 29q0 25 -42.5 38t-99.5 13q-55 0 -86 45 q-28 46 -10 96l60 146q-170 45 -269.5 193t-99.5 362z" />
<glyph unicode="&#xe8;" horiz-adv-x="1150" d="M82 551q0 122 43 235t123 193q64 64 151.5 100.5t188.5 36.5q200 0 325 -125q147 -150 156 -430q0 -44 -29 -76q-30 -30 -73 -30h-672q19 -132 97.5 -204.5t205.5 -72.5q37 0 70.5 7.5t69 25t64 53.5t44.5 86q10 33 38 52.5t62 19.5q42 0 72.5 -29t30.5 -71q0 -12 -7 -33 q-46 -149 -163.5 -233.5t-280.5 -84.5q-235 0 -375.5 154.5t-140.5 425.5zM301 662h551q-24 127 -86.5 187t-177.5 60q-108 0 -184.5 -66t-102.5 -181zM416 1518q0 44 32.5 74t71.5 30q62 0 90 -55l113 -207q12 -21 12 -45q0 -45 -31.5 -76t-70.5 -31q-28 0 -53.5 14.5 t-38.5 39.5l-113 206q-12 24 -12 50z" />
<glyph unicode="&#xe9;" horiz-adv-x="1150" d="M82 551q0 122 43 235t123 193q64 64 151.5 100.5t188.5 36.5q200 0 325 -125q147 -150 156 -430q0 -44 -29 -76q-30 -30 -73 -30h-672q19 -132 97.5 -204.5t205.5 -72.5q37 0 70.5 7.5t69 25t64 53.5t44.5 86q10 33 38 52.5t62 19.5q42 0 72.5 -29t30.5 -71q0 -12 -7 -33 q-46 -149 -163.5 -233.5t-280.5 -84.5q-235 0 -375.5 154.5t-140.5 425.5zM301 662h551q-24 127 -86.5 187t-177.5 60q-108 0 -184.5 -66t-102.5 -181zM418 1315q0 27 10 45l113 207q28 55 90 55q40 0 72 -30t32 -74q0 -26 -12 -50l-113 -206q-14 -25 -38 -39.5t-52 -14.5 q-40 0 -71 30.5t-31 76.5z" />
<glyph unicode="&#xea;" horiz-adv-x="1150" d="M82 551q0 122 43 235t123 193q64 64 151.5 100.5t188.5 36.5q200 0 325 -125q147 -150 156 -430q0 -44 -29 -76q-30 -30 -73 -30h-672q19 -132 97.5 -204.5t205.5 -72.5q37 0 70.5 7.5t69 25t64 53.5t44.5 86q10 33 38 52.5t62 19.5q42 0 72.5 -29t30.5 -71q0 -12 -7 -33 q-46 -149 -163.5 -233.5t-280.5 -84.5q-235 0 -375.5 154.5t-140.5 425.5zM301 662h551q-24 127 -86.5 187t-177.5 60q-108 0 -184.5 -66t-102.5 -181zM305 1323q0 45 31 76l170 162q28 28 72 28q41 0 69 -28l170 -162q31 -31 31 -76q0 -44 -31 -73t-72 -29q-43 0 -71 28 l-99 94l-96 -94q-28 -28 -71 -28q-45 0 -74 31.5t-29 70.5z" />
<glyph unicode="&#xeb;" horiz-adv-x="1150" d="M82 551q0 122 43 235t123 193q64 64 151.5 100.5t188.5 36.5q200 0 325 -125q147 -150 156 -430q0 -44 -29 -76q-30 -30 -73 -30h-672q19 -132 97.5 -204.5t205.5 -72.5q37 0 70.5 7.5t69 25t64 53.5t44.5 86q10 33 38 52.5t62 19.5q42 0 72.5 -29t30.5 -71q0 -12 -7 -33 q-46 -149 -163.5 -233.5t-280.5 -84.5q-235 0 -375.5 154.5t-140.5 425.5zM301 662h551q-24 127 -86.5 187t-177.5 60q-108 0 -184.5 -66t-102.5 -181zM307 1329v92q0 43 31 73t74 30q42 0 72 -30t30 -73v-92q0 -41 -30.5 -71.5t-71.5 -30.5q-43 0 -74 30.5t-31 71.5z M639 1329v92q0 43 30.5 73t73.5 30q42 0 72.5 -30.5t30.5 -72.5v-92q0 -41 -31 -71.5t-72 -30.5q-43 0 -73.5 30.5t-30.5 71.5z" />
<glyph unicode="&#xec;" horiz-adv-x="475" d="M43 1518q0 44 32.5 74t71.5 30q28 0 53 -14.5t38 -40.5l112 -207q12 -21 12 -45q0 -45 -31.5 -76t-70.5 -31q-28 0 -53.5 14.5t-38.5 39.5l-113 206q-12 24 -12 50zM143 86v915q0 43 31 73t74 30q42 0 72 -30t30 -73v-915q0 -41 -30.5 -71.5t-71.5 -30.5q-43 0 -74 30.5 t-31 71.5z" />
<glyph unicode="&#xed;" horiz-adv-x="475" d="M139 1315q0 26 11 45l112 207q28 55 90 55q40 0 72.5 -30t32.5 -74q0 -24 -13 -50l-112 -206q-14 -25 -38 -39.5t-52 -14.5q-40 0 -71.5 30.5t-31.5 76.5zM143 86v915q0 43 31 73t74 30q42 0 72 -30t30 -73v-915q0 -41 -30.5 -71.5t-71.5 -30.5q-43 0 -74 30.5t-31 71.5z " />
<glyph unicode="&#xee;" horiz-adv-x="475" d="M-20 1323q0 46 30 76l170 162q28 28 72 28q42 0 70 -28l170 -162q30 -30 30 -76q0 -44 -30.5 -73t-71.5 -29q-44 0 -72 28l-98 94l-96 -94q-28 -28 -72 -28q-45 0 -73.5 31.5t-28.5 70.5zM143 86v915q0 43 31 73t74 30q42 0 72 -30t30 -73v-915q0 -41 -30.5 -71.5 t-71.5 -30.5q-43 0 -74 30.5t-31 71.5z" />
<glyph unicode="&#xef;" horiz-adv-x="475" d="M-18 1331v92q0 43 30.5 73t73.5 30q42 0 72 -30t30 -73v-92q0 -41 -30.5 -71.5t-71.5 -30.5q-43 0 -73.5 30.5t-30.5 71.5zM143 86v915q0 43 31 73t74 30q42 0 72 -30t30 -73v-915q0 -41 -30.5 -71.5t-71.5 -30.5q-43 0 -74 30.5t-31 71.5zM313 1331v92q0 43 31 73t74 30 q42 0 72 -30t30 -73v-92q0 -41 -30.5 -71.5t-71.5 -30.5q-43 0 -74 30.5t-31 71.5z" />
<glyph unicode="&#xf0;" horiz-adv-x="1173" d="M82 506q0 239 126.5 387.5t340.5 148.5q120 0 211 -45q-43 107 -94 164l-93 -63q-19 -13 -41 -13q-32 0 -51.5 20t-19.5 50q0 37 31 59l53 39q-65 31 -129 31q-43 0 -74 30t-31 72q0 43 30 73t73 32q177 -3 317 -109l105 74q17 14 41 14q33 0 52 -21t19 -52 q0 -37 -30 -58l-82 -57q103 -127 148.5 -311.5t45.5 -384.5q0 -198 -35 -299q-52 -155 -166 -236.5t-272 -81.5q-97 0 -183 36t-151 102.5t-103 169.5t-38 229zM289 506q0 -149 69 -238.5t199 -89.5q74 0 121.5 22t85.5 76q57 86 57 230q-4 129 -59 221q-72 109 -213 109 q-128 0 -194 -89t-66 -241z" />
<glyph unicode="&#xf1;" horiz-adv-x="1103" d="M143 86v915q0 43 31 73t74 30q32 0 58.5 -19t37.5 -47q108 78 262 78q180 0 277 -106q98 -102 98 -262v-660q0 -43 -30.5 -73.5t-73.5 -30.5t-73 30.5t-30 73.5v666q0 9 -1.5 23t-12.5 43t-29 48q-41 41 -125 41q-130 0 -200 -98q-47 -63 -56 -133v-592 q0 -41 -30.5 -71.5t-71.5 -30.5q-43 0 -74 30.5t-31 71.5zM209 1321q0 14 2 22q19 89 85 144t153 55q95 0 161 -63q2 -2 16.5 -19t26 -27t19.5 -10q14 0 23.5 11.5t13.5 25.5q7 35 36 58.5t64 23.5q43 0 73.5 -30.5t30.5 -71.5q0 -15 -2 -23q-20 -88 -86.5 -143t-152.5 -55 q-108 0 -180 81q-1 1 -5.5 7.5t-9 12.5t-12.5 11.5t-16 5.5q-14 0 -23.5 -11.5t-13.5 -25.5q-7 -36 -36.5 -58.5t-66.5 -22.5q-42 0 -71 30.5t-29 71.5z" />
<glyph unicode="&#xf2;" horiz-adv-x="1189" d="M82 543q0 253 144 413t370 160t369 -160t143 -413q0 -252 -143 -412t-369 -160t-370 160t-144 412zM289 543q0 -166 84 -265.5t223 -99.5t222 99.5t83 265.5q0 167 -83 266.5t-222 99.5q-140 0 -223.5 -99.5t-83.5 -266.5zM436 1497q0 44 33 74.5t72 30.5q61 0 90 -56 l112 -207q13 -23 13 -45q0 -45 -32 -75.5t-71 -30.5q-28 0 -53.5 14.5t-38.5 38.5l-112 207q-13 26 -13 49z" />
<glyph unicode="&#xf3;" horiz-adv-x="1189" d="M82 543q0 253 144 413t370 160t369 -160t143 -413q0 -252 -143 -412t-369 -160t-370 160t-144 412zM289 543q0 -166 84 -265.5t223 -99.5t222 99.5t83 265.5q0 167 -83 266.5t-222 99.5q-140 0 -223.5 -99.5t-83.5 -266.5zM436 1315q0 27 10 45l113 207q28 55 90 55 q40 0 72.5 -30t32.5 -74q0 -24 -13 -50l-112 -206q-14 -25 -38 -39.5t-52 -14.5q-40 0 -71.5 30.5t-31.5 76.5z" />
<glyph unicode="&#xf4;" horiz-adv-x="1189" d="M82 543q0 253 144 413t370 160t369 -160t143 -413q0 -252 -143 -412t-369 -160t-370 160t-144 412zM289 543q0 -166 84 -265.5t223 -99.5t222 99.5t83 265.5q0 167 -83 266.5t-222 99.5q-140 0 -223.5 -99.5t-83.5 -266.5zM324 1323q0 46 30 76l170 162q28 28 72 28 q42 0 70 -28l170 -162q30 -30 30 -76q0 -44 -30.5 -73t-71.5 -29q-44 0 -72 28l-98 94l-96 -94q-28 -28 -72 -28q-45 0 -73.5 31.5t-28.5 70.5z" />
<glyph unicode="&#xf5;" horiz-adv-x="1189" d="M82 543q0 253 144 413t370 160t369 -160t143 -413q0 -252 -143 -412t-369 -160t-370 160t-144 412zM242 1321q0 14 2 22q19 89 84.5 144t152.5 55q96 0 162 -63q2 -2 16.5 -19t26 -27t19.5 -10q14 0 23 11.5t13 25.5q7 35 36.5 58.5t64.5 23.5q43 0 73.5 -30.5 t30.5 -71.5q0 -15 -2 -23q-20 -88 -86.5 -143t-152.5 -55q-109 0 -181 81q-1 1 -5.5 7.5t-9 12.5t-12.5 11.5t-16 5.5q-14 0 -23.5 -11.5t-13.5 -25.5q-7 -36 -36 -58.5t-66 -22.5q-42 0 -71 30.5t-29 71.5zM289 543q0 -166 84 -265.5t223 -99.5t222 99.5t83 265.5 q0 167 -83 266.5t-222 99.5q-140 0 -223.5 -99.5t-83.5 -266.5z" />
<glyph unicode="&#xf6;" horiz-adv-x="1189" d="M82 543q0 253 144 413t370 160t369 -160t143 -413q0 -252 -143 -412t-369 -160t-370 160t-144 412zM289 543q0 -166 84 -265.5t223 -99.5t222 99.5t83 265.5q0 167 -83 266.5t-222 99.5q-140 0 -223.5 -99.5t-83.5 -266.5zM326 1296v93q0 43 30.5 72.5t73.5 29.5 q42 0 72 -30t30 -72v-93q0 -41 -30.5 -71.5t-71.5 -30.5q-43 0 -73.5 30.5t-30.5 71.5zM657 1296v93q0 42 31 72t74 30q42 0 72 -30t30 -72v-93q0 -41 -30.5 -71.5t-71.5 -30.5q-43 0 -74 30.5t-31 71.5z" />
<glyph unicode="&#xf7;" horiz-adv-x="1269" d="M102 731q0 43 30 74t73 31h860q42 0 72 -31t30 -74t-29.5 -72.5t-72.5 -29.5h-860q-43 0 -73 29.5t-30 72.5zM487 305v45q0 47 34 80t81 33h45q47 0 81 -33t34 -80v-45q0 -47 -33.5 -79.5t-81.5 -32.5h-45q-48 0 -81.5 32.5t-33.5 79.5zM487 1141v45q0 47 33.5 79.5 t81.5 32.5h45q48 0 81.5 -32.5t33.5 -79.5v-45q0 -47 -34 -80t-81 -33h-45q-47 0 -81 33t-34 80z" />
<glyph unicode="&#xf8;" horiz-adv-x="1189" d="M82 543q0 253 144 413t370 160q103 0 190 -35l45 78q29 51 93 51q44 0 73 -29.5t29 -72.5q0 -28 -14 -53l-54 -92q71 -76 110.5 -184.5t39.5 -235.5q0 -252 -143 -412t-369 -160q-103 0 -190 35l-41 -69q-32 -52 -89 -52q-40 0 -72 29.5t-32 73.5q0 29 14 51l47 84 q-72 76 -111.5 184.5t-39.5 235.5zM289 543q0 -137 57 -228l336 584q-45 10 -86 10q-140 0 -223.5 -99.5t-83.5 -266.5zM510 188q45 -10 86 -10q139 0 222 99.5t83 265.5q0 139 -55 227z" />
<glyph unicode="&#xf9;" horiz-adv-x="1093" d="M125 354v647q0 43 30.5 73t73.5 30t73 -30t30 -73v-657q0 -47 26 -92q41 -74 150 -74q125 0 186 101q24 37 35.5 79.5t11.5 63.5v579q0 43 31 73t74 30q42 0 72 -30t30 -73v-915q0 -41 -30.5 -71.5t-71.5 -30.5q-31 0 -56.5 16.5t-37.5 42.5q-109 -72 -248 -72 q-174 0 -276.5 110.5t-102.5 272.5zM334 1466q0 44 32.5 74.5t71.5 30.5q62 0 90 -55l113 -207q12 -21 12 -45q0 -45 -31.5 -76t-70.5 -31q-28 0 -53.5 14.5t-38.5 38.5l-113 207q-12 24 -12 49z" />
<glyph unicode="&#xfa;" horiz-adv-x="1093" d="M125 354v647q0 43 30.5 73t73.5 30t73 -30t30 -73v-657q0 -47 26 -92q41 -74 150 -74q125 0 186 101q24 37 35.5 79.5t11.5 63.5v579q0 43 31 73t74 30q42 0 72 -30t30 -73v-915q0 -41 -30.5 -71.5t-71.5 -30.5q-31 0 -56.5 16.5t-37.5 42.5q-109 -72 -248 -72 q-174 0 -276.5 110.5t-102.5 272.5zM379 1264q0 28 10 45l113 207q28 55 90 55q40 0 72 -30.5t32 -74.5q0 -25 -12 -49l-113 -207q-29 -53 -90 -53q-40 0 -71 30.5t-31 76.5z" />
<glyph unicode="&#xfb;" horiz-adv-x="1093" d="M125 354v647q0 43 30.5 73t73.5 30t73 -30t30 -73v-657q0 -47 26 -92q41 -74 150 -74q125 0 186 101q24 37 35.5 79.5t11.5 63.5v579q0 43 31 73t74 30q42 0 72 -30t30 -73v-915q0 -41 -30.5 -71.5t-71.5 -30.5q-31 0 -56.5 16.5t-37.5 42.5q-109 -72 -248 -72 q-174 0 -276.5 110.5t-102.5 272.5zM266 1311q0 44 31 75l170 162q29 29 72 29q40 0 69 -29l170 -162q31 -31 31 -75t-30.5 -73.5t-71.5 -29.5q-43 0 -72 29l-98 94l-97 -94q-29 -29 -71 -29q-45 0 -74 32t-29 71z" />
<glyph unicode="&#xfc;" horiz-adv-x="1093" d="M125 354v647q0 43 30.5 73t73.5 30t73 -30t30 -73v-657q0 -47 26 -92q41 -74 150 -74q125 0 186 101q24 37 35.5 79.5t11.5 63.5v579q0 43 31 73t74 30q42 0 72 -30t30 -73v-915q0 -41 -30.5 -71.5t-71.5 -30.5q-31 0 -56.5 16.5t-37.5 42.5q-109 -72 -248 -72 q-174 0 -276.5 110.5t-102.5 272.5zM266 1296v93q0 42 31 72t74 30q42 0 72 -30t30 -72v-93q0 -41 -30.5 -71.5t-71.5 -30.5q-43 0 -74 30.5t-31 71.5zM598 1296v93q0 43 30.5 72.5t73.5 29.5q42 0 72.5 -30t30.5 -72v-93q0 -41 -31 -71.5t-72 -30.5q-43 0 -73.5 30.5 t-30.5 71.5z" />
<glyph unicode="&#xfd;" horiz-adv-x="1091" d="M66 999q0 42 28.5 73.5t73.5 31.5q30 0 56 -16.5t38 -45.5l307 -682l254 676q12 32 38.5 50t58.5 18q46 0 75 -31t29 -72q0 -18 -6 -36l-383 -1018q-55 -145 -133 -203q-74 -55 -193 -55q-50 0 -86 8q-36 7 -59 36.5t-23 65.5q0 43 32 73t73 30q13 0 27.5 -3t35.5 -3 q49 0 70 14q27 22 63 110l23 66l-391 872q-8 16 -8 41zM403 1272q0 26 11 45l112 207q28 55 90 55q40 0 72.5 -30t32.5 -74q0 -26 -12 -50l-113 -206q-14 -25 -38 -39.5t-52 -14.5q-40 0 -71.5 30.5t-31.5 76.5z" />
<glyph unicode="&#xfe;" horiz-adv-x="1228" d="M143 -209v1587q0 43 31 74t72 31q43 0 73.5 -31t30.5 -74v-348q119 86 268 86q213 0 340 -156.5t127 -416.5q0 -257 -130.5 -414.5t-342.5 -157.5q-152 0 -262 78v-258q0 -43 -29.5 -72.5t-72.5 -29.5t-74 30t-31 72zM350 520q0 -63 15 -122.5t44 -109t76.5 -80 t106.5 -30.5q78 0 135.5 29.5t89.5 82t47 115.5t15 138q0 33 -3 66t-12 77.5t-27.5 81.5t-45.5 70t-72 52t-101 19q-53 0 -99.5 -21.5t-85 -66t-61 -122t-22.5 -179.5z" />
<glyph unicode="&#xff;" horiz-adv-x="1091" d="M66 999q0 42 28.5 73.5t73.5 31.5q30 0 56 -16.5t38 -45.5l307 -682l254 676q12 32 38.5 50t58.5 18q46 0 75 -31t29 -72q0 -18 -6 -36l-383 -1018q-55 -145 -133 -203q-74 -55 -193 -55q-50 0 -86 8q-36 7 -59 36.5t-23 65.5q0 43 32 73t73 30q13 0 27.5 -3t35.5 -3 q49 0 70 14q27 22 63 110l23 66l-391 872q-8 16 -8 41zM260 1321v92q0 43 31 73t74 30q41 0 71.5 -30t30.5 -73v-92q0 -41 -30.5 -71.5t-71.5 -30.5q-43 0 -74 30.5t-31 71.5zM592 1321v92q0 43 30.5 73t73.5 30q42 0 72.5 -30.5t30.5 -72.5v-92q0 -41 -31 -71.5t-72 -30.5 q-43 0 -73.5 30.5t-30.5 71.5z" />
<glyph unicode="&#x152;" horiz-adv-x="2199" d="M102 731q0 221 73 394t205.5 269.5t301.5 96.5q221 0 377 -162v33q0 42 30 72t72 30h834q42 0 72 -30t30 -72q0 -43 -30 -74t-72 -31h-731v-378h665q43 0 74 -31t31 -74q0 -42 -31 -72t-74 -30h-665v-13v-452h751q43 0 73 -31t30 -74t-30 -72.5t-73 -29.5h-854 q-43 0 -72.5 29.5t-29.5 72.5v29q-154 -160 -377 -160q-169 0 -301 96t-205.5 269t-73.5 395zM307 731q0 -244 105 -398.5t270 -154.5q167 0 272 154t105 399t-105 399t-272 154q-165 0 -270 -154.5t-105 -398.5z" />
<glyph unicode="&#x153;" horiz-adv-x="1970" d="M82 543q0 253 144 413t370 160q129 0 235.5 -55.5t174.5 -155.5q26 39 61 74q64 64 151.5 100.5t188.5 36.5q201 0 326 -125q146 -149 155 -430q0 -45 -28 -76q-30 -30 -74 -30h-672q19 -132 97.5 -204.5t205.5 -72.5q37 0 70.5 7.5t69 25t64 53.5t44.5 86q10 33 38 52.5 t62 19.5q42 0 72.5 -29t30.5 -71q0 -15 -6 -33q-46 -149 -164 -233.5t-281 -84.5q-135 0 -241.5 53.5t-174.5 153.5q-68 -98 -173 -152.5t-232 -54.5q-226 0 -370 160t-144 412zM289 543q0 -166 84 -265.5t223 -99.5t222 99.5t83 265.5q0 167 -83 266.5t-222 99.5 q-140 0 -223.5 -99.5t-83.5 -266.5zM1120 662h551q-24 127 -86.5 187t-177.5 60q-108 0 -184.5 -66t-102.5 -181z" />
<glyph unicode="&#x178;" horiz-adv-x="1275" d="M41 1380q0 44 32 73.5t72 29.5q50 0 82 -43l412 -570l410 570q32 43 84 43q40 0 71 -28.5t31 -72.5q0 -40 -18 -63l-476 -660v-573q0 -43 -30.5 -72.5t-73.5 -29.5q-42 0 -72 30t-30 72v573l-474 660q-20 26 -20 61zM369 1507v92q0 43 30.5 73t73.5 30q41 0 71.5 -30 t30.5 -73v-92q0 -41 -30.5 -71.5t-71.5 -30.5q-43 0 -73.5 30.5t-30.5 71.5zM700 1507v92q0 43 31 73t74 30q41 0 71.5 -30t30.5 -73v-92q0 -41 -30.5 -71.5t-71.5 -30.5q-43 0 -74 30.5t-31 71.5z" />
<glyph unicode="&#x2c6;" horiz-adv-x="952" d="M205 1585q0 45 31 76l170 162q28 28 71 28q42 0 70 -28l170 -162q31 -31 31 -76q0 -44 -31 -73t-72 -29q-44 0 -72 28l-98 95l-96 -95q-28 -28 -72 -28q-45 0 -73.5 31.5t-28.5 70.5z" />
<glyph unicode="&#x2dc;" horiz-adv-x="1228" d="M268 1585q0 15 2 23q19 89 85 143.5t153 54.5q96 0 162 -63q3 -3 17 -19.5t25 -26t19 -9.5q14 0 24 11t13 25q7 35 36 58.5t64 23.5q44 0 74.5 -31t30.5 -71q0 -15 -2 -23q-20 -88 -87 -143t-153 -55q-107 0 -180 82q-1 1 -5.5 7.5t-9 12.5t-12.5 11.5t-16 5.5 q-14 0 -23.5 -11.5t-13.5 -25.5q-7 -36 -36 -59t-66 -23q-42 0 -71.5 30.5t-29.5 71.5z" />
<glyph unicode="&#x2000;" horiz-adv-x="956" />
<glyph unicode="&#x2001;" horiz-adv-x="1913" />
<glyph unicode="&#x2002;" horiz-adv-x="956" />
<glyph unicode="&#x2003;" horiz-adv-x="1913" />
<glyph unicode="&#x2004;" horiz-adv-x="637" />
<glyph unicode="&#x2005;" horiz-adv-x="478" />
<glyph unicode="&#x2006;" horiz-adv-x="318" />
<glyph unicode="&#x2007;" horiz-adv-x="318" />
<glyph unicode="&#x2008;" horiz-adv-x="239" />
<glyph unicode="&#x2009;" horiz-adv-x="382" />
<glyph unicode="&#x200a;" horiz-adv-x="106" />
<glyph unicode="&#x2010;" horiz-adv-x="901" d="M102 614q0 43 30 74t73 31h491q43 0 73 -31t30 -74t-30 -72.5t-73 -29.5h-491q-43 0 -73 29.5t-30 72.5z" />
<glyph unicode="&#x2011;" horiz-adv-x="901" d="M102 614q0 43 30 74t73 31h491q43 0 73 -31t30 -74t-30 -72.5t-73 -29.5h-491q-43 0 -73 29.5t-30 72.5z" />
<glyph unicode="&#x2012;" horiz-adv-x="901" d="M102 614q0 43 30 74t73 31h491q43 0 73 -31t30 -74t-30 -72.5t-73 -29.5h-491q-43 0 -73 29.5t-30 72.5z" />
<glyph unicode="&#x2013;" horiz-adv-x="1269" d="M102 614q0 43 30 74t73 31h860q42 0 72 -31t30 -74t-29.5 -72.5t-72.5 -29.5h-860q-43 0 -73 29.5t-30 72.5z" />
<glyph unicode="&#x2014;" horiz-adv-x="1964" d="M102 614q0 43 30 74t73 31h1554q43 0 73 -31t30 -74t-30 -72.5t-73 -29.5h-1554q-43 0 -73 29.5t-30 72.5z" />
<glyph unicode="&#x2018;" horiz-adv-x="493" d="M111 1137q0 268 157 344q23 10 45 10q45 0 74 -31.5t29 -70.5q0 -30 -15.5 -56t-44.5 -39q-22 -13 -32 -73q-4 -22 -5.5 -46t-1 -37t2.5 -36.5t2 -26.5q2 -40 -29 -71t-76 -31q-33 0 -61 19.5t-37 51.5q-8 24 -8 93z" />
<glyph unicode="&#x2019;" horiz-adv-x="473" d="M57 1075q0 29 16 55t44 39q22 13 35 74q5 28 5.5 55.5t-1.5 55t-2 35.5q-2 41 27.5 71.5t74.5 30.5q34 0 62 -20t38 -52q9 -27 9 -92q0 -267 -160 -344q-23 -10 -43 -10q-47 0 -76 31t-29 71z" />
<glyph unicode="&#x201a;" horiz-adv-x="473" d="M57 -96q0 29 16 55t44 39q22 13 35 76q5 28 5.5 55.5t-1.5 54t-2 33.5q-2 41 28 73t74 32q34 0 62 -20.5t38 -53.5q9 -27 9 -90q0 -269 -160 -346q-26 -11 -43 -11q-47 0 -76 31.5t-29 71.5z" />
<glyph unicode="&#x201c;" horiz-adv-x="755" d="M111 1137q0 268 157 344q23 10 45 10q45 0 74 -31.5t29 -70.5q0 -30 -15.5 -56t-44.5 -39q-22 -13 -32 -73q-4 -22 -5.5 -46t-1 -37t2.5 -36.5t2 -26.5q2 -40 -29 -71t-76 -31q-33 0 -61 19.5t-37 51.5q-8 24 -8 93zM393 1137q0 268 158 344q23 10 45 10q45 0 73.5 -31.5 t28.5 -70.5q0 -30 -15.5 -56t-43.5 -39q-23 -14 -33 -73q-4 -22 -5.5 -46t-1 -37t2.5 -36.5t2 -26.5q2 -41 -28.5 -71.5t-75.5 -30.5q-33 0 -61.5 20t-37.5 51q-8 24 -8 93z" />
<glyph unicode="&#x201d;" horiz-adv-x="755" d="M57 1075q0 29 16 55t44 39q22 13 35 74q5 28 5.5 55.5t-1.5 55t-2 35.5q-2 41 27.5 71.5t74.5 30.5q34 0 62 -20t38 -52q9 -27 9 -92q0 -267 -160 -344q-23 -10 -43 -10q-47 0 -76 31t-29 71zM340 1075q0 30 16 55.5t43 38.5q22 13 35 74q5 28 5.5 55.5t-1.5 55t-2 35.5 q-2 41 28 71.5t75 30.5q34 0 62 -20t38 -52q8 -24 8 -92q0 -267 -160 -344q-23 -10 -43 -10q-47 0 -75.5 31t-28.5 71z" />
<glyph unicode="&#x201e;" horiz-adv-x="755" d="M57 -96q0 29 16 55t44 39q22 13 35 76q5 28 5.5 55.5t-1.5 54t-2 33.5q-2 41 28 73t74 32q34 0 62 -20.5t38 -53.5q9 -27 9 -90q0 -269 -160 -346q-26 -11 -43 -11q-47 0 -76 31.5t-29 71.5zM340 -96q0 30 16 55.5t43 38.5q22 13 35 76q5 28 5.5 55.5t-1.5 54t-2 33.5 q-2 41 28 73t75 32q34 0 62 -20.5t38 -53.5q8 -24 8 -90q0 -269 -160 -346q-26 -11 -43 -11q-47 0 -75.5 31.5t-28.5 71.5z" />
<glyph unicode="&#x2022;" horiz-adv-x="589" d="M74 666q0 91 65.5 156t157.5 65q91 0 155 -65t64 -156t-64 -155.5t-155 -64.5q-92 0 -157.5 64.5t-65.5 155.5z" />
<glyph unicode="&#x2026;" horiz-adv-x="2168" d="M307 96v45q0 47 34 81t81 34h45q47 0 82 -34t35 -81v-45q0 -47 -34.5 -79.5t-82.5 -32.5h-45q-48 0 -81.5 32.5t-33.5 79.5zM942 96v45q0 47 34 81t81 34h45q47 0 82 -34t35 -81v-45q0 -47 -34.5 -79.5t-82.5 -32.5h-45q-48 0 -81.5 32.5t-33.5 79.5zM1587 96v45 q0 47 34 81t81 34h45q47 0 81 -34t34 -81v-45q0 -47 -33.5 -79.5t-81.5 -32.5h-45q-48 0 -81.5 32.5t-33.5 79.5z" />
<glyph unicode="&#x202f;" horiz-adv-x="382" />
<glyph unicode="&#x2039;" horiz-adv-x="692" d="M123 582q0 50 37 77l239 205q28 25 66 25q45 0 74.5 -30.5t29.5 -72.5q0 -49 -37 -79l-147 -125l147 -125q37 -30 37 -80q0 -42 -29.5 -72.5t-74.5 -30.5q-38 0 -66 25l-239 203q-37 30 -37 80z" />
<glyph unicode="&#x203a;" horiz-adv-x="692" d="M123 377q0 50 37 80l147 125l-147 125q-37 30 -37 79q0 42 29.5 72.5t74.5 30.5q38 0 66 -25l239 -205q37 -27 37 -77t-37 -80l-239 -203q-28 -25 -66 -25q-45 0 -74.5 30.5t-29.5 72.5z" />
<glyph unicode="&#x205f;" horiz-adv-x="478" />
<glyph unicode="&#x20ac;" horiz-adv-x="1452" d="M102 578q0 31 23 53t55 22h137q-4 70 -4 146h-133q-32 0 -55 23t-23 55q0 31 23 53t55 22h148q30 204 127 346q75 108 183.5 165t238.5 57q150 0 267.5 -74t188.5 -205q13 -21 13 -49q0 -49 -32.5 -77t-70.5 -28q-61 0 -90 56q-93 170 -276 170q-76 0 -136.5 -29.5 t-100 -82t-64.5 -114t-39 -135.5h460q32 0 55 -22t23 -53q0 -32 -23 -55t-55 -23h-477q0 -76 4 -146h377q31 0 53.5 -22t22.5 -53q0 -32 -22.5 -55t-53.5 -23h-350q38 -145 120 -219t203 -74q191 0 281 170q28 55 90 55q40 0 72.5 -30t32.5 -74q0 -23 -13 -49 q-72 -134 -191.5 -206.5t-271.5 -72.5q-411 0 -536 500h-158q-32 0 -55 23t-23 55z" />
<glyph unicode="&#x2122;" horiz-adv-x="1650" d="M102 1411q0 27 22.5 49.5t49.5 22.5h471q28 0 50 -22t22 -50q0 -29 -22 -50.5t-50 -21.5h-164v-559q0 -29 -21.5 -50t-49.5 -21q-29 0 -49.5 21.5t-20.5 49.5v559h-166q-27 0 -49.5 21.5t-22.5 50.5zM819 780v631q0 28 21.5 50t50.5 22h55q20 0 39.5 -13.5t26.5 -33.5 l170 -447l170 445q6 21 25.5 35t41.5 14h58q25 0 48 -22.5t23 -49.5v-631q0 -28 -22.5 -49.5t-48.5 -21.5q-29 0 -50.5 21t-21.5 50v391l-156 -411q-8 -18 -26.5 -30.5t-38.5 -12.5q-22 0 -42 13t-26 32l-153 405v-387q0 -28 -23 -49.5t-49 -21.5q-29 0 -50.5 21t-21.5 50z " />
<glyph unicode="&#xe000;" horiz-adv-x="1105" d="M0 0v1106h1106v-1106h-1106z" />
</font>
</defs>
</svg>
