<?xml version="1.0" standalone="no"?>
<!DOCTYPE svg PUBLIC "-//W3C//DTD SVG 1.1//EN" "http://www.w3.org/Graphics/SVG/1.1/DTD/svg11.dtd" >
<svg xmlns="http://www.w3.org/2000/svg">
<metadata></metadata>
<defs>
<font id="albrecht-inline40" horiz-adv-x="473" >
<font-face units-per-em="2048" ascent="1638" descent="-410" />
<missing-glyph horiz-adv-x="512" />
<glyph unicode="&#xfb01;" horiz-adv-x="1064" d="M20 985q0 42 31 72t74 30h37v119q0 137 78 209q77 68 217 68h32q43 -2 72.5 -33t28.5 -74q-2 -43 -33 -72t-74 -28q-85 5 -104 -14q-10 -7 -10 -56v-119h120q42 0 72.5 -30t30.5 -72q0 -43 -31 -73.5t-72 -30.5h-120v-793q0 -43 -31 -73.5t-74 -30.5t-72.5 30.5 t-29.5 73.5v793h-37q-43 0 -74 30.5t-31 73.5zM82 983q0 -17 12 -29t29 -12h100v-856q0 -17 12 -29t29 -12t29 12t12 29v856h182q17 0 29 12t12 29t-12 29t-29 12h-182v182q0 68 30.5 97.5t100.5 29.5q10 4 47 4q17 -1 29 10t14 29q0 17 -11 29.5t-30 13.5h-30 q-117 0 -174 -51q-58 -52 -58 -162v-182h-100q-17 0 -29 -12t-12 -29zM735 86v915q0 43 31 73t74 30q42 0 72 -30t30 -73v-915q0 -41 -30.5 -71.5t-71.5 -30.5q-43 0 -74 30.5t-31 71.5zM735 1270v92q0 42 31 72t74 30q42 0 72 -30t30 -72v-92q0 -41 -30.5 -72t-71.5 -31 q-43 0 -74 31t-31 72zM799 86q0 -16 12 -28.5t29 -12.5q15 0 28 13t13 28v915q0 15 -13 27t-28 12q-17 0 -29 -12t-12 -27v-915zM799 1266q0 -15 12 -27t29 -12q15 0 28 12t13 27v96q0 17 -12.5 29t-28.5 12q-17 0 -29 -12t-12 -29v-96z" />
<glyph unicode="&#xfb02;" horiz-adv-x="1085" d="M20 985q0 42 31 72t74 30h37v119q0 137 78 209q77 68 217 68h32q43 -2 72.5 -33t28.5 -74q-2 -43 -33 -72t-74 -28q-85 5 -104 -14q-10 -7 -10 -56v-119h120q42 0 72.5 -30t30.5 -72q0 -43 -31 -73.5t-72 -30.5h-120v-793q0 -43 -31 -73.5t-74 -30.5t-72.5 30.5 t-29.5 73.5v793h-37q-43 0 -74 30.5t-31 73.5zM82 983q0 -17 12 -29t29 -12h100v-856q0 -17 12 -29t29 -12t29 12t12 29v856h182q17 0 29 12t12 29t-12 29t-29 12h-182v182q0 68 30.5 97.5t100.5 29.5q10 4 47 4q17 -1 29 10t14 29q0 17 -11 29.5t-30 13.5h-30 q-117 0 -174 -51q-58 -52 -58 -162v-182h-100q-17 0 -29 -12t-12 -29zM735 86v1292q0 43 31 74t72 31q43 0 73.5 -31t30.5 -74v-1292q0 -43 -30.5 -72.5t-73.5 -29.5q-42 0 -72.5 30t-30.5 72zM799 86q0 -17 12 -29t27 -12q17 0 30 12t13 29v1292q0 17 -13 30t-30 13 q-15 0 -27 -13t-12 -30v-1292z" />
<glyph horiz-adv-x="2048" />
<glyph horiz-adv-x="2048" />
<glyph horiz-adv-x="682" />
<glyph unicode="&#xd;" horiz-adv-x="307" />
<glyph unicode=" "  horiz-adv-x="512" />
<glyph unicode="&#x09;" horiz-adv-x="512" />
<glyph unicode="&#xa0;" horiz-adv-x="512" />
<glyph unicode="!" horiz-adv-x="460" d="M94 96v45q0 47 34 81t81 34h45q47 0 82 -34t35 -81v-45q0 -47 -34.5 -79.5t-82.5 -32.5h-45q-48 0 -81.5 32.5t-33.5 79.5zM133 424v960q0 43 30 74t73 31q42 0 72 -31t30 -74v-960q0 -43 -29.5 -72.5t-72.5 -29.5t-73 29.5t-30 72.5zM158 96q0 -22 14 -35.5t37 -13.5h45 q23 0 38 13.5t15 35.5v45q0 22 -15 37t-38 15h-45q-22 0 -36.5 -15t-14.5 -37v-45zM195 424q0 -15 12 -27t29 -12t28.5 12t11.5 27v960q0 18 -11.5 30.5t-28.5 12.5t-29 -13t-12 -30v-960z" />
<glyph unicode="&#x22;" horiz-adv-x="716" d="M123 1147v233q0 43 30.5 73t73.5 30q42 0 72.5 -30.5t30.5 -72.5v-233q0 -42 -30.5 -72.5t-72.5 -30.5q-43 0 -73.5 30t-30.5 73zM184 1147q0 -15 13 -27t30 -12q15 0 28 12t13 27v233q0 17 -12.5 29t-28.5 12q-17 0 -30 -12t-13 -29v-233zM387 1147v233q0 43 31 73 t74 30q42 0 72 -30.5t30 -72.5v-233q0 -43 -30 -73t-72 -30q-43 0 -74 30t-31 73zM449 1147q0 -15 13 -27t30 -12q15 0 27.5 12t12.5 27v233q0 17 -12.5 29t-27.5 12q-17 0 -30 -12t-13 -29v-233z" />
<glyph unicode="#" horiz-adv-x="1247" d="M104 555q0 42 31 72t74 30h104l29 211h-72q-43 0 -73.5 31t-30.5 74t30.5 72.5t73.5 29.5h101l43 320q4 39 33.5 64.5t68.5 25.5q49 0 78.5 -36t23.5 -83l-38 -291h159l43 320q4 39 34 64.5t69 25.5q49 0 78.5 -36t23.5 -83l-39 -291h103q43 0 73.5 -29.5t30.5 -72.5 t-30.5 -74t-73.5 -31h-131l-29 -211h98q43 0 74 -30t31 -72q0 -43 -31 -73.5t-74 -30.5h-127l-51 -377q-6 -40 -35 -65t-67 -25q-42 0 -76.5 33.5t-26.5 84.5l47 349h-159l-52 -377q-6 -40 -35 -65t-67 -25q-42 0 -76 33.5t-26 84.5l47 349h-76q-43 0 -74 30.5t-31 73.5z M168 555q0 -19 11 -30t30 -11h147l-57 -420q-3 -20 10 -33.5t29 -13.5q17 0 28 10t13 25l59 430h287l-57 -418q-3 -21 10 -35t29 -14q17 0 28 10.5t13 26.5l59 430h182q17 0 29 12t12 29q0 18 -11.5 29.5t-29.5 11.5h-170l45 336h187q17 0 29 12t12 29q0 18 -11.5 29.5 t-29.5 11.5h-174l49 362q2 21 -9.5 34t-31.5 13q-15 0 -27.5 -10t-13.5 -25l-51 -372h-285l49 360q2 21 -9.5 34t-31.5 13q-15 0 -27.5 -10t-13.5 -25l-51 -372h-154q-18 0 -29.5 -11.5t-11.5 -29.5q0 -19 11 -30t30 -11h144l-47 -336h-158q-18 0 -29.5 -11.5t-11.5 -29.5z M451 596l45 336h286l-47 -336h-284zM522 657h160l29 211h-160z" />
<glyph unicode="$" horiz-adv-x="1343" d="M102 449q-5 46 26.5 81t78.5 35q39 0 68.5 -26.5t33.5 -65.5q26 -228 256 -280v491q-184 39 -262 88q-151 93 -151 297q0 170 114 280.5t299 135.5v131q0 42 31 72t74 30q42 0 72 -30t30 -72v-133q172 -24 283 -125.5t141 -272.5q2 -6 2 -18q0 -42 -29.5 -73t-72.5 -31 q-37 0 -67 25t-36 61q-36 187 -221 225v-420q82 -16 117.5 -24t93.5 -27.5t98 -44.5q164 -103 164 -330q0 -194 -131 -315t-342 -140v-118q0 -43 -30 -73t-72 -30q-43 0 -74 30t-31 73v127q-193 33 -316 153t-147 314zM162 459q23 -186 145 -294.5t322 -125.5v-184 q0 -17 12 -29t29 -12q16 0 28.5 12t12.5 29v180q208 2 338.5 107t130.5 288q0 142 -74 219q-27 32 -63 56t-89.5 41t-93.5 26.5t-115 24.5l-34 6v543q140 -9 229 -80t113 -205q3 -15 14 -24t25 -9q18 0 29.5 11.5t11.5 27.5v8q-29 160 -138.5 250.5t-283.5 101.5v189 q0 17 -12.5 29t-28.5 12q-17 0 -29 -12t-12 -29v-189q-184 -8 -301 -101.5t-117 -254.5q0 -159 108 -235q51 -35 123.5 -57t186.5 -44v-614q-164 15 -264.5 103t-120.5 243q-1 17 -12.5 27t-26.5 10q-19 0 -32 -14t-11 -31zM293 1071q0 127 94 198t242 77v-527 q-106 21 -166.5 39t-97.5 47q-72 53 -72 166zM358 1069q0 -55 14 -80.5t40 -42.5q52 -29 153 -51v381q-94 -19 -150.5 -70t-56.5 -137zM711 117v602l18 -4q98 -18 146 -29.5t101.5 -38t80.5 -65.5q41 -57 41 -152q0 -148 -108.5 -229.5t-278.5 -83.5zM772 182 q122 12 193 74.5t71 171.5q0 67 -17 100t-48 54q-49 32 -199 61v-461z" />
<glyph unicode="%" horiz-adv-x="1751" d="M92 1104q0 169 80 272q43 56 105.5 86.5t134.5 30.5q150 0 239 -115q78 -104 78 -274q0 -175 -78 -275q-86 -112 -241 -112q-152 0 -238 112q-80 103 -80 275zM145 1104q0 -153 68 -242q71 -92 197 -92q130 0 198 92q68 86 68 242q0 155 -68 244q-71 92 -196 92 q-128 0 -197 -94q-70 -88 -70 -242zM213 1104q0 114 49.5 191t149.5 77q89 0 141 -67q55 -71 55 -201q0 -133 -53 -201q-53 -65 -145 -65t-144 67q-53 68 -53 199zM266 1104q0 -109 43 -168q36 -45 101 -45q70 0 102 43q43 55 43 170q0 113 -43 168q-36 47 -100 47 q-45 0 -76.5 -23t-45.5 -60t-19 -68.5t-5 -63.5zM346 78q0 28 16 49l916 1343q26 37 72 37q33 0 59.5 -26t26.5 -62q0 -25 -15 -49l-917 -1343q-26 -37 -72 -37q-33 0 -59.5 26t-26.5 62zM399 78q0 -15 9.5 -25t23.5 -10q21 0 29 14l917 1344q4 12 4 18q0 14 -10.5 24.5 t-21.5 10.5q-21 0 -29 -14l-915 -1344q-7 -10 -7 -18zM1022 360q0 170 80 273q43 56 105 86.5t134 30.5q151 0 240 -115q78 -104 78 -275q0 -174 -78 -274q-87 -113 -242 -113q-150 0 -237 113q-80 103 -80 274zM1075 360q0 -152 70 -241q69 -94 194 -94q129 0 199 92 t70 243q0 152 -70 244t-197 92q-124 0 -196 -94q-70 -92 -70 -242zM1145 360q0 72 19 130.5t64.5 97.5t112.5 39q93 0 144 -66q53 -71 53 -201q0 -132 -53 -200q-54 -66 -146 -66q-88 0 -141 68t-53 198zM1196 360q0 -108 43 -167q37 -46 100 -46q71 0 103 43q43 55 43 170 q0 113 -43 168q-36 47 -101 47q-45 0 -76.5 -23t-45 -60t-18.5 -68.5t-5 -63.5z" />
<glyph unicode="&#x26;" horiz-adv-x="1368" d="M102 414q0 88 25 160t74.5 128t100 95t122.5 82q-55 72 -78.5 139t-23.5 145q0 142 90 235t225 93q134 0 221.5 -92.5t87.5 -237.5q0 -204 -205 -344l226 -289q16 62 16 138q0 44 31.5 75t75.5 31t76 -31t32 -75q0 -184 -74 -340l119 -154q23 -29 23 -68q0 -50 -32 -78 t-75 -28q-53 0 -86 41l-78 100q-157 -168 -407 -168q-92 0 -178 29t-155.5 83t-111 140t-41.5 191zM166 414q0 -119 61.5 -207t155.5 -130t205 -42q262 0 407 207l127 -164q16 -19 37 -19q18 0 31.5 12t13.5 33q0 19 -10 29l-143 186q86 157 86 347q0 19 -13.5 32t-33.5 13 q-18 0 -30.5 -13.5t-12.5 -31.5q0 -149 -62 -263l-336 431q113 67 173.5 142t60.5 185q0 119 -69 194t-177 75q-109 0 -181.5 -75.5t-72.5 -191.5q0 -79 30 -146t105 -155q-50 -29 -80 -47.5t-72 -48t-67 -53.5t-53.5 -58t-43.5 -68.5t-25.5 -79t-10.5 -93.5zM254 414 q0 116 68 193.5t249 176.5l367 -469q-122 -188 -350 -188q-38 0 -79 7.5t-88 27.5t-83 51t-60 83t-24 118zM317 414q0 -51 19 -91.5t47.5 -65t66 -41t71.5 -22.5t67 -6q97 0 165.5 36.5t106.5 88.5l-305 392q-138 -80 -188 -141t-50 -150zM475 1163q0 73 45 124.5t117 51.5 q48 0 81.5 -21t47.5 -53t19.5 -57t5.5 -47q0 -72 -40.5 -130.5t-152.5 -121.5q-69 76 -96 134.5t-27 119.5zM539 1163q0 -45 14.5 -82t56.5 -92q69 47 94 86t25 86q0 26 -5 48.5t-27 44.5t-60 22q-43 0 -70.5 -32.5t-27.5 -80.5z" />
<glyph unicode="'" horiz-adv-x="452" d="M123 1147v233q0 43 30.5 73t73.5 30q42 0 72.5 -30.5t30.5 -72.5v-233q0 -42 -30.5 -72.5t-72.5 -30.5q-43 0 -73.5 30t-30.5 73zM184 1147q0 -15 13 -27t30 -12q15 0 28 12t13 27v233q0 17 -12.5 29t-28.5 12q-17 0 -30 -12t-13 -29v-233z" />
<glyph unicode="(" horiz-adv-x="716" d="M123 616q0 209 69 420t189 369q35 49 55 63.5t53 14.5q40 0 72.5 -28t32.5 -75q0 -40 -47 -98q-101 -138 -159 -310t-58 -356q0 -380 225 -735q28 -44 33.5 -55.5t5.5 -32.5q0 -45 -32 -74.5t-73 -29.5q-13 0 -23.5 2t-19.5 7t-15.5 9t-14 13.5t-11 13.5t-11.5 16.5 t-11 16.5q-29 45 -57.5 95t-67 137t-67 175.5t-48.5 206.5t-20 235zM184 616q0 -230 73.5 -445t191.5 -394q19 -27 40 -27q19 0 30.5 15.5t8.5 33.5q-2 9 -26 47q-109 171 -172.5 369t-63.5 401q0 205 67.5 392t182.5 338q14 17 14 34q0 19 -13 30t-28 9q-21 0 -38 -24 q-121 -157 -194 -361.5t-73 -417.5z" />
<glyph unicode=")" horiz-adv-x="716" d="M123 1380q0 46 32.5 74.5t71.5 28.5q33 0 54 -14.5t57 -63.5q119 -159 187.5 -369.5t68.5 -419.5q0 -144 -28 -285.5t-73.5 -252t-83 -182.5t-75.5 -129q-2 -2 -11 -16t-11.5 -17t-11 -13.5t-14.5 -13.5t-15.5 -8.5t-20 -7.5t-23.5 -2q-39 0 -70.5 29.5t-31.5 74.5 q0 21 5 32t32 56q225 355 225 735q0 185 -57 357t-158 309q-16 20 -24.5 31.5t-16.5 30.5t-8 36zM186 1380q0 -15 15 -34q115 -151 182.5 -338t67.5 -392q0 -203 -63.5 -401t-172.5 -369q-26 -41 -27 -47q-3 -18 8.5 -33.5t30.5 -15.5q22 0 41 27q117 179 190.5 394 t73.5 445q0 213 -72.5 418t-193.5 361q-18 26 -39 26q-15 0 -28 -11t-13 -30z" />
<glyph unicode="*" horiz-adv-x="722" d="M92 1284q0 29 20.5 48.5t45.5 19.5q12 0 24 -4l105 -39v116q0 28 19.5 48t45.5 20q27 0 47.5 -20.5t20.5 -47.5v-118l123 41q16 4 22 4q26 0 46 -20t20 -48q0 -21 -12.5 -38t-32.5 -23l-127 -43l90 -123q12 -18 12 -39q0 -27 -20.5 -47.5t-44.5 -20.5q-33 0 -56 29 l-88 121l-88 -123q-23 -27 -53 -27q-26 0 -47 20t-21 46q0 22 13 41l92 125l-113 41q-20 7 -31.5 24.5t-11.5 36.5zM129 1284q0 -21 18 -27l158 -59l-119 -164q-6 -6 -6 -16q0 -12 8.5 -20.5t20.5 -8.5q14 0 24 10l119 164l119 -164q10 -10 23 -10q11 0 19.5 8t8.5 21 q0 12 -4 16l-121 166l174 57q21 7 21 29q0 9 -8 19t-21 10q-4 0 -8 -2l-174 -58v170q0 12 -9 21.5t-22 9.5q-11 0 -19.5 -9.5t-8.5 -21.5v-170l-154 58q-4 2 -10 2q-12 0 -20.5 -9t-8.5 -22z" />
<glyph unicode="+" horiz-adv-x="1085" d="M84 668q0 43 29.5 72.5t72.5 29.5h252v252q0 42 31 73t72 31q43 0 73.5 -30.5t30.5 -73.5v-252h252q43 0 72.5 -29.5t29.5 -72.5t-30 -74t-72 -31h-252v-252q0 -43 -30.5 -72.5t-73.5 -29.5q-42 0 -72.5 30t-30.5 72v252h-252q-42 0 -72 31t-30 74zM145 668q0 -17 12 -30 t29 -13h316v-314q0 -16 12 -28.5t29 -12.5t29 12.5t12 28.5v314h313q17 0 29 13t12 30t-12 29t-29 12h-313v313q-2 18 -14 30.5t-29 12.5q-15 0 -28 -13t-13 -30v-313h-314q-17 0 -29 -12t-12 -29z" />
<glyph unicode="," d="M57 -96q0 29 16 55t44 39q22 13 35 76q5 28 5.5 55.5t-1.5 54t-2 33.5q-2 41 28 73t74 32q34 0 62 -20.5t38 -53.5q9 -27 9 -90q0 -269 -160 -346q-26 -11 -43 -11q-47 0 -76 31.5t-29 71.5zM119 -96q0 -18 11.5 -29.5t29.5 -11.5q6 0 18 6q123 57 123 289q0 56 -6 71 q-3 12 -14.5 20.5t-24.5 8.5q-18 0 -29.5 -11.5t-11.5 -27.5q0 -4 2 -32.5t1 -60t-7 -65.5q-8 -50 -27 -79.5t-39 -38.5q-26 -13 -26 -39z" />
<glyph unicode="-" horiz-adv-x="901" d="M102 614q0 43 30 74t73 31h491q43 0 73 -31t30 -74t-30 -72.5t-73 -29.5h-491q-43 0 -73 29.5t-30 72.5zM164 614q0 -17 12 -28t29 -11h491q17 0 29 11t12 28t-12 30t-29 13h-491q-17 0 -29 -13t-12 -30z" />
<glyph unicode="." horiz-adv-x="481" d="M102 96v45q0 47 34 81t81 34h45q47 0 82 -34t35 -81v-45q0 -47 -34.5 -79.5t-82.5 -32.5h-45q-48 0 -81.5 32.5t-33.5 79.5zM166 96q0 -22 14 -35.5t37 -13.5h45q23 0 38 13.5t15 35.5v45q0 22 -15 37t-38 15h-45q-22 0 -36.5 -15t-14.5 -37v-45z" />
<glyph unicode="/" horiz-adv-x="913" d="M82 2q0 17 6 35l543 1460q12 32 38.5 50t59.5 18q44 0 73 -32t29 -73q0 -17 -6 -35l-542 -1462q-10 -30 -37.5 -48.5t-59.5 -18.5q-41 0 -72.5 29t-31.5 77zM145 0q0 -19 12.5 -30t28.5 -11q27 0 37 27l543 1462q2 4 2 12q0 18 -11.5 29.5t-27.5 11.5q-30 0 -39 -26 l-543 -1461q-2 -4 -2 -14z" />
<glyph unicode="0" horiz-adv-x="1284" d="M102 731q0 346 147.5 553t393.5 207q249 0 394 -204t145 -556q0 -356 -143.5 -558t-397.5 -202q-249 0 -394 204t-145 556zM164 731q0 -327 128.5 -511.5t348.5 -184.5q224 0 350.5 182t126.5 514q0 328 -127.5 513.5t-347.5 185.5q-217 0 -348 -188.5t-131 -510.5z M246 731q0 90 12 174t42 166t74 142.5t113.5 97.5t155.5 37q73 0 133.5 -26t100.5 -66.5t70 -98t46.5 -113t26.5 -118.5t13 -107.5t3 -87.5q0 -51 -3.5 -101t-14.5 -112.5t-28.5 -117t-48 -108t-70.5 -91t-99 -61t-131 -23.5q-73 0 -133.5 25.5t-100.5 66t-70.5 97.5 t-47 112.5t-27 118t-13.5 107t-3 87.5zM309 731q0 -42 2.5 -83.5t11 -98.5t22.5 -106t40 -99t59.5 -85.5t84 -58t112.5 -22.5q60 0 110 20t84 53t59.5 80t40.5 95t24.5 105t12.5 104t3 96q0 42 -2.5 83.5t-11 98.5t-22.5 106t-40 99t-59.5 85.5t-84 58t-112.5 22.5 q-88 0 -155 -48t-105 -129t-56 -175.5t-18 -200.5z" />
<glyph unicode="1" horiz-adv-x="792" d="M61 1124q0 40 27.5 70t67.5 33q114 9 157 41q46 32 62 129q6 37 35 61.5t67 24.5h29q41 0 71.5 -31t30.5 -72v-1294q0 -42 -30 -72t-72 -30q-43 0 -73 29.5t-30 72.5v995q-49 -27 -102 -39q-57 -13 -129 -20q-45 -3 -78 27t-33 75zM123 1122q2 -18 14.5 -29t30.5 -10 q131 12 197 56q65 39 100 123v-1176q0 -17 12 -29t29 -12t29 12t12 29v1294q0 17 -12 29t-29 12h-29q-15 0 -26.5 -10t-14.5 -25q-19 -119 -86 -167q-60 -45 -188 -54q-17 -1 -28 -13.5t-11 -29.5z" />
<glyph unicode="2" horiz-adv-x="1216" d="M102 109q0 155 97 303q137 198 407 301q303 109 303 325q0 116 -73 183t-197 67q-134 0 -214.5 -74.5t-86.5 -212.5q-3 -41 -31.5 -68.5t-68.5 -27.5q-44 0 -75.5 32t-29.5 75q12 197 119 319q137 162 387 162q97 0 178 -27.5t134.5 -72t90.5 -101.5t54 -115t18 -114 q5 -123 -43 -223q-102 -212 -393 -320q-286 -107 -354 -315h671q42 0 72.5 -30.5t30.5 -72.5t-30.5 -72t-72.5 -30h-790q-43 0 -73 31.5t-30 77.5zM164 113q0 -22 11.5 -36.5t29.5 -13.5h790q17 0 29 11t12 28t-12 29t-29 12h-745q19 155 130 264.5t277 172.5 q181 65 273 178q125 128 125 282q-2 169 -113.5 280.5t-300.5 111.5q-127 0 -218.5 -46.5t-146.5 -123.5q-37 -51 -58 -121.5t-23 -132.5q0 -17 12 -29t29 -12t28.5 11t11.5 28q7 166 105.5 255t259.5 89q149 0 239.5 -85t90.5 -231q0 -69 -29 -131.5t-79.5 -109t-109 -81 t-124.5 -57.5q-133 -48 -237.5 -129.5t-162.5 -185.5q-65 -114 -65 -227z" />
<glyph unicode="3" horiz-adv-x="1253" d="M104 432v8q0 42 29.5 72.5t71.5 30.5q40 0 69.5 -27t32.5 -67q10 -126 99.5 -199.5t232.5 -73.5q150 0 231 72q76 64 76 182q0 87 -35 136t-116 75q-48 15 -72 53q-25 31 -25 82q0 47 27.5 86t69.5 49q54 23 78 60.5t24 97.5q0 96 -63 156q-70 61 -195 61 q-134 0 -207 -67t-82 -187q-3 -41 -32.5 -67.5t-75.5 -26.5q-33 0 -66.5 29t-30.5 80q15 201 152 325q131 119 342 119q202 0 330 -113q133 -121 133 -309q0 -180 -129 -287q178 -113 178 -352q0 -209 -145 -336q-141 -123 -367 -123q-222 0 -370 127.5t-165 333.5zM164 438 q15 -184 145.5 -294.5t327.5 -110.5q206 0 326 108q124 109 124 289q0 250 -221 336q-12 5 -14.5 8.5t0.5 6.5t14 10q172 82 172 278q0 162 -112 262q-108 99 -289 99q-187 0 -301 -105q-117 -105 -129 -283q-1 -21 12 -32t25 -11q20 0 31.5 11t11.5 26q12 155 110 236 q92 76 240 76t235 -78q86 -77 86 -201q0 -81 -37 -133.5t-114 -83.5q-20 -8 -34.5 -29t-14.5 -49q2 -50 53 -74q101 -31 148 -96.5t47 -173.5q0 -142 -97 -227q-102 -88 -270 -88q-167 0 -274 89t-119 240q-1 15 -13.5 26t-27.5 11q-17 0 -29 -11.5t-12 -25.5v-6z" />
<glyph unicode="4" horiz-adv-x="1167" d="M20 444v70q0 34 19 59l625 867q29 43 84 43h49q43 0 72.5 -30t29.5 -73v-833h105q43 0 72.5 -30t29.5 -73t-29.5 -72.5t-72.5 -29.5h-105v-256q0 -43 -29.5 -72.5t-72.5 -29.5q-42 0 -72.5 30t-30.5 72v256h-571q-43 0 -73 29.5t-30 72.5zM82 444q0 -17 12 -29t29 -12 h635v-317q0 -17 12 -29t27 -12q17 0 29 12t12 29v317h166q17 0 28.5 12t11.5 29t-11.5 28t-28.5 11h-166v897q0 17 -12 29t-29 12l-49 -2q-22 0 -35 -16l-623 -866q-8 -12 -8 -23v-70zM164 483v19l586 813h6v-832h-592zM272 547h422v586z" />
<glyph unicode="5" horiz-adv-x="1216" d="M102 377q-5 45 26.5 80t78.5 35q37 0 65.5 -26.5t34.5 -64.5q12 -103 93 -164t206 -61q137 0 220 85t83 231q0 136 -74.5 221.5t-201.5 85.5q-87 0 -149 -35t-95 -92q-30 -49 -88 -49h-59q-42 0 -72.5 30.5t-30.5 69.5q0 12 2 18l107 637q6 37 34.5 61.5t65.5 24.5h596 q42 0 72.5 -30t30.5 -72q0 -43 -30 -72.5t-73 -29.5h-510l-53 -320q106 64 252 64q98 0 185.5 -36t153 -100.5t104 -162t38.5 -213.5q0 -230 -142 -375.5t-366 -145.5q-197 0 -339 109t-165 297zM164 383q19 -159 141.5 -254.5t300.5 -95.5q199 0 322 127.5t123 331.5 q0 199 -118 323.5t-300 124.5q-104 1 -191 -40.5t-141 -113.5h-8l88 535h563q17 0 29 12t12 29q0 16 -12 28.5t-29 12.5h-596q-15 0 -26.5 -10.5t-14.5 -24.5l-106 -637q-3 -9 4 -16q2 -12 12 -21.5t25 -9.5h59q21 0 35 18q99 158 297 158q150 0 244 -103t94 -265 q0 -172 -101 -274.5t-264 -102.5q-145 0 -245 74.5t-115 203.5q-3 17 -15.5 27t-27.5 10q-19 -1 -30 -14.5t-9 -32.5z" />
<glyph unicode="6" horiz-adv-x="1251" d="M102 739q0 162 35 299q54 214 193.5 333.5t333.5 119.5q172 0 289.5 -94t152.5 -262q2 -6 2 -21q0 -41 -29.5 -71.5t-72.5 -30.5q-38 0 -66.5 23t-34.5 61q-38 190 -241 190q-156 0 -246 -117q-92 -123 -107 -331q143 149 348 149q210 0 350 -141.5t140 -358.5 q0 -144 -63.5 -262t-177 -186t-253.5 -68q-208 0 -352 129q-104 94 -152.5 247.5t-48.5 391.5zM164 739q0 -224 43 -366.5t137 -225.5q126 -114 311 -114q187 0 309.5 130.5t120.5 323.5q0 191 -119.5 315t-306.5 124q-72 0 -134.5 -23t-104.5 -58t-76 -82.5t-53.5 -91 t-32.5 -89.5q-17 170 4 336.5t100 277.5q109 152 302 152q122 0 200 -62.5t101 -177.5q3 -17 15 -26t28 -9q16 1 26 13.5t10 27.5v12q-29 142 -130.5 223t-249.5 81q-131 0 -233.5 -64t-162.5 -184q-104 -170 -104 -443zM299 424q-2 66 29 162q27 74 69 129.5t110 92.5 t152 38q153 0 250 -101.5t97 -257.5q0 -159 -99 -265.5t-252 -106.5q-167 0 -274 116q-45 44 -63.5 89.5t-18.5 103.5zM360 428q0 -38 9 -78q36 -76 108.5 -125t177.5 -49q129 0 209 87.5t80 223.5q0 130 -79.5 212.5t-205.5 82.5q-75 0 -135 -33t-108 -116 q-6 -10 -16.5 -31.5t-25 -72.5t-14.5 -101z" />
<glyph unicode="7" horiz-adv-x="1044" d="M20 1362q0 42 30 72t73 30h799q41 0 71.5 -30.5t30.5 -71.5v-57q0 -40 -31 -74q-206 -206 -350 -539q-147 -339 -147 -606q0 -43 -30 -72.5t-73 -29.5q-42 0 -72 30t-30 72q0 303 164 688q112 254 288 486h-620q-43 0 -73 29.5t-30 72.5zM80 1362q0 -17 12 -29t29 -12 h747v-10q-203 -219 -352 -545q-164 -379 -164 -680q0 -17 12 -29t29 -12t28 12t11 29q0 289 162 647q150 340 354 541q13 17 13 31v57q0 16 -12 28.5t-29 12.5h-799q-17 0 -29 -12.5t-12 -28.5z" />
<glyph unicode="8" horiz-adv-x="1273" d="M102 438q0 234 195 359q-131 106 -131 286q0 119 65.5 213.5t172.5 144.5t233 50q196 0 333.5 -112t137.5 -296q0 -178 -131 -284q194 -135 194 -361q0 -144 -71.5 -251.5t-190.5 -161.5t-268 -54q-246 0 -392.5 132.5t-146.5 334.5zM166 438q0 -124 64.5 -217 t171.5 -139.5t239 -46.5q205 0 337 107t132 296q0 73 -24.5 135t-66 104.5t-89.5 71.5t-101 44q218 88 218 290q0 104 -56 184.5t-149 121.5t-205 41q-175 0 -291.5 -98t-116.5 -249q0 -62 18 -112t51 -83.5t67.5 -55.5t78.5 -39q-41 -13 -78 -32t-74.5 -49.5t-64.5 -68 t-44 -91t-17 -114.5zM246 438q0 78 34 139t91 96.5t124.5 53.5t141.5 18q172 0 282.5 -81t110.5 -226q0 -157 -111.5 -240t-277.5 -83q-180 0 -287.5 90.5t-107.5 232.5zM307 438q0 -125 93.5 -193.5t240.5 -68.5q142 0 234 67.5t92 194.5q0 110 -90.5 178t-239.5 68 q-146 0 -238 -66t-92 -180zM311 1083q0 120 95 192.5t231 72.5q140 0 234 -71.5t94 -193.5q0 -156 -154 -217q-7 -3 -28.5 -11t-65 -18t-80.5 -10t-80 9.5t-67 18t-29 11.5q-150 60 -150 217zM371 1083q0 -115 112 -161q76 -33 154 -33q38 0 82.5 11.5t66.5 21.5 q25 11 41 21t36 28.5t30 46.5t10 65q0 95 -75.5 149t-190.5 54q-107 0 -186.5 -55t-79.5 -148z" />
<glyph unicode="9" horiz-adv-x="1251" d="M102 973q0 145 63 263.5t176 186.5t253 68q207 0 354 -129q103 -94 152 -248t49 -391q0 -334 -141 -537q-75 -105 -183 -160t-239 -55q-169 0 -289 94t-152 263q-2 6 -2 20q0 41 29.5 72t71.5 31q37 0 66.5 -24t35.5 -60q19 -94 80.5 -142.5t159.5 -48.5q225 0 311 242 q33 89 43 207q-55 -58 -115 -93q-102 -57 -235 -57q-102 0 -192.5 37t-155.5 102.5t-102.5 158.5t-37.5 200zM164 975q0 -190 120.5 -314t305.5 -124q205 0 321 170q50 72 80 174q10 -118 2 -232q-5 -113 -31.5 -208t-75 -169t-125.5 -115.5t-175 -41.5q-121 0 -199.5 62.5 t-101.5 178.5q-1 15 -14.5 25t-28.5 8q-15 -1 -26 -13.5t-11 -27.5l2 -16q31 -141 131.5 -220t247.5 -79q236 0 370 190q129 180 129 502q0 223 -43 365t-137 227q-125 113 -311 113t-308 -130t-122 -325zM246 975q0 164 97 268.5t251 104.5q124 0 212.5 -58t133.5 -155 q12 -55 12 -103q0 -66 -21 -134.5t-50 -113.5q-103 -166 -291 -166q-152 0 -248 100.5t-96 256.5zM307 975q0 -130 79 -212.5t204 -82.5q84 0 142.5 36t103.5 113q4 4 16 29t25.5 75.5t13.5 100.5q0 42 -8 78q-94 174 -289 174q-125 0 -206 -87t-81 -224z" />
<glyph unicode=":" horiz-adv-x="481" d="M102 96v45q0 47 34 81t81 34h45q47 0 82 -34t35 -81v-45q0 -47 -34.5 -79.5t-82.5 -32.5h-45q-48 0 -81.5 32.5t-33.5 79.5zM102 930v45q0 47 33.5 79.5t81.5 32.5h45q48 0 82.5 -32.5t34.5 -79.5v-45q0 -47 -34.5 -80t-82.5 -33h-45q-47 0 -81 33t-34 80zM166 96 q0 -22 14 -35.5t37 -13.5h45q23 0 38 13.5t15 35.5v45q0 22 -15 37t-38 15h-45q-22 0 -36.5 -15t-14.5 -37v-45zM166 930q0 -22 14 -36.5t37 -14.5h45q23 0 38 14.5t15 36.5v45q0 21 -15 36t-38 15h-45q-22 0 -36.5 -14.5t-14.5 -36.5v-45z" />
<glyph unicode=";" d="M76 -96q0 67 59 94q22 13 33 76q4 22 5.5 46t1 36t-2.5 35.5t-2 25.5q-2 41 28.5 73t75.5 32q33 0 61.5 -20.5t37.5 -53.5q8 -24 8 -90q0 -270 -158 -346q-26 -11 -45 -11q-45 0 -73.5 32t-28.5 71zM111 930v45q0 47 33.5 79.5t80.5 32.5h45q48 0 82.5 -32.5t34.5 -79.5 v-45q0 -47 -34.5 -80t-82.5 -33h-45q-47 0 -80.5 33t-33.5 80zM137 -96q0 -18 11.5 -29.5t29.5 -11.5q4 0 19 6q122 56 122 289q0 56 -6 71q-11 29 -41 29q-18 0 -29.5 -11.5t-11.5 -27.5q7 -99 -2 -158q-8 -49 -27.5 -79t-39.5 -39q-25 -13 -25 -39zM174 930 q0 -22 14 -36.5t37 -14.5h45q23 0 38.5 14.5t15.5 36.5v45q0 21 -15.5 36t-38.5 15h-45q-22 0 -36.5 -14.5t-14.5 -36.5v-45z" />
<glyph unicode="&#x3c;" horiz-adv-x="1335" d="M61 559q0 30 16.5 55t43.5 37l936 439q19 8 45 8q41 0 71.5 -28.5t30.5 -74.5q0 -30 -16 -55.5t-43 -38.5l-739 -344l749 -360q57 -28 57 -95q0 -39 -29 -70.5t-73 -31.5q-22 0 -45 10l-944 455q-28 12 -44 37.5t-16 56.5zM121 559q0 -26 22 -39l947 -454q6 -3 16 -3 q20 0 30.5 13t10.5 28q0 24 -23 37l-868 416l858 401q25 11 25 37q0 19 -12.5 30t-28.5 11q-7 0 -19 -4l-936 -436q-22 -13 -22 -37z" />
<glyph unicode="=" horiz-adv-x="1269" d="M102 438q0 43 30 74t73 31h860q42 0 72 -31t30 -74t-29.5 -72.5t-72.5 -29.5h-860q-43 0 -73 29.5t-30 72.5zM102 870q0 43 30 74t73 31h860q42 0 72 -31t30 -74t-29.5 -72.5t-72.5 -29.5h-860q-43 0 -73 29.5t-30 72.5zM164 438q0 -17 12 -28t29 -11h860q17 0 29 11 t12 28t-12 30t-29 13h-860q-17 0 -29 -13t-12 -30zM164 870q0 -17 12 -28t29 -11h860q17 0 29 11t12 28t-12 30t-29 13h-860q-17 0 -29 -13t-12 -30z" />
<glyph unicode="&#x3e;" horiz-adv-x="1335" d="M123 102q0 67 57 95l750 360l-740 344q-27 13 -43 38.5t-16 55.5q0 46 30.5 74.5t71.5 28.5q27 0 46 -8l935 -439q27 -12 43.5 -37t16.5 -55q0 -31 -16 -56.5t-44 -37.5l-944 -455q-23 -10 -45 -10q-44 0 -73 31.5t-29 70.5zM188 104q0 -15 10.5 -28t30.5 -13q11 0 17 3 l946 454q22 13 22 39q0 24 -22 37l-936 436q-12 4 -18 4q-16 0 -28.5 -11t-12.5 -30q0 -27 24 -37l858 -401l-868 -416q-23 -13 -23 -37z" />
<glyph unicode="?" horiz-adv-x="1179" d="M123 1036v15q6 66 25.5 127.5t59 119t94 100t134.5 68t176 25.5q196 0 320.5 -114t124.5 -294q0 -61 -14 -114.5t-32 -89.5t-51.5 -74.5t-54.5 -57.5t-59 -51l-6 -6q-93 -75 -120 -121.5t-30 -144.5q-2 -42 -32 -71t-72 -29q-44 0 -74.5 32.5t-28.5 73.5q2 81 17 142 t48 110.5t66.5 83.5t92.5 82l6 6q41 35 59 51.5t40 45t30 59.5t8 73q0 94 -64 147.5t-174 53.5q-65 0 -115.5 -17.5t-80.5 -43.5t-50 -62t-27.5 -66.5t-10.5 -62.5q-3 -43 -35.5 -70t-75.5 -24q-39 4 -65 31.5t-29 66.5zM184 1040q2 -15 13 -27t26 -12q17 -1 29 9.5t14 27.5 q13 140 100.5 225t245.5 85q133 0 216 -72.5t83 -192.5q0 -42 -9 -77.5t-20.5 -59.5t-36.5 -52t-41.5 -43t-51.5 -44l-7 -6q-56 -47 -87.5 -78.5t-59 -75t-39.5 -95.5t-14 -124q0 -16 11.5 -28.5t29.5 -12.5q17 0 29 11t12 28q4 115 37.5 172t134.5 141l6 4q36 30 55.5 48 t48.5 52t44.5 65t27.5 77t12 98q0 156 -108 250t-273 94q-189 0 -298.5 -103t-129.5 -267v-17zM444 94v45q0 47 34 80t81 33h45q48 0 82.5 -33t34.5 -80v-45q0 -47 -34.5 -79.5t-82.5 -32.5h-45q-48 0 -81.5 32.5t-33.5 79.5zM508 94q0 -22 14.5 -36.5t36.5 -14.5h45 q23 0 38 14.5t15 36.5v45q0 22 -15 36.5t-38 14.5h-45q-22 0 -36.5 -14.5t-14.5 -36.5v-45z" />
<glyph unicode="@" horiz-adv-x="1775" d="M143 705q0 202 88 372.5t240 276.5q201 139 449 139q159 0 293.5 -55t225 -148t141 -217.5t50.5 -263.5q0 -79 -13 -151t-41.5 -138.5t-71 -115.5t-106 -78t-141.5 -29q-63 0 -118 25q-40 18 -62 40l-10 11l-12 -11q-111 -79 -230 -79q-69 0 -131 24t-111.5 70.5 t-78.5 123t-29 173.5q0 79 17 152.5t52 136.5t83.5 110t114.5 74t143 27q78 0 145 -31q30 20 68 14q42 -4 68.5 -38.5t21.5 -76.5l-12 -94v-6l-41 -326q60 -25 73 -88q4 -24 49 -24q58 0 96.5 44t54 108.5t15.5 144.5q0 220 -142 352.5t-361 132.5q-111 0 -213.5 -40 t-182 -112.5t-127 -184t-47.5 -244.5q0 -245 143.5 -385t391.5 -140q147 0 272 51q40 15 80 -2t55 -57t-2 -79t-57 -54q-163 -66 -348 -66q-183 0 -327.5 61t-233.5 164.5t-135 232.5t-46 274zM205 705q0 -145 46.5 -268t131.5 -212t214 -139.5t286 -50.5q172 0 327 61 q15 6 22 22.5t1 31.5t-22 21.5t-31 0.5q-137 -55 -297 -55q-271 0 -433.5 159.5t-162.5 428.5q0 121 36 226t97.5 180.5t142 129.5t171 80.5t184.5 26.5q106 0 204.5 -34t180 -99t131 -172.5t49.5 -241.5q0 -71 -12.5 -133.5t-38.5 -114.5t-71.5 -82.5t-105.5 -30.5 q-41 0 -71 20t-37 54q-6 26 -26.5 39.5t-45.5 13.5q-26 1 -39.5 -7.5t-25.5 -27.5q-26 -47 -77.5 -76.5t-107.5 -29.5q-101 0 -154 67t-53 181q0 155 74 254.5t193 99.5q99 0 145 -80l-39 -319q-2 -19 8.5 -32t28.5 -13q40 -3 43 34l53 431q2 18 -7.5 31t-26.5 14 q-22 3 -37 -15q-1 -4 -4.5 -12t-4.5 -12q-64 55 -161 55q-108 0 -188.5 -62.5t-119 -160.5t-38.5 -215q0 -152 78 -240t208 -88q72 0 136 34t102 89q3 6 12 6q6 0 10 -8q17 -40 45 -64q49 -43 127 -43q66 0 119 25.5t88 68t59 100.5t34 120.5t10 130.5q0 121 -36.5 224.5 t-98.5 176.5t-145 124.5t-176 76.5t-191 25q-192 0 -363 -99q-166 -92 -258 -260t-92 -366zM680 674q0 -85 35 -135t110 -50q37 0 71 17.5t54 46.5q-25 36 -22 76l39 305q-26 33 -82 33q-97 0 -151 -84t-54 -209z" />
<glyph unicode="A" horiz-adv-x="1388" d="M61 84q0 16 7 37l481 1276q10 30 36.5 48.5t59.5 18.5h94q31 0 58 -18t39 -47l483 -1278q8 -19 8 -43q-1 -40 -34.5 -67t-71.5 -27q-31 0 -57 17t-38 46l-139 369h-588l-139 -369q-11 -32 -37.5 -47.5t-58.5 -15.5q-43 0 -73 26.5t-30 73.5zM123 86q0 -17 12.5 -28 t28.5 -11q30 0 39 25l153 409h674l156 -409q11 -25 37 -25q14 0 27.5 10.5t13.5 28.5q0 8 -2 16l-486 1274q-10 27 -37 27h-94q-12 0 -23 -7.5t-14 -19.5l-481 -1274q-4 -12 -4 -16zM387 561l287 762h37l288 -762h-612zM477 621h432l-219 573z" />
<glyph unicode="B" horiz-adv-x="1388" d="M184 104v1258q0 42 31 72t74 30h516q210 0 330 -114q116 -107 116 -287q0 -183 -121 -285q84 -54 131.5 -141t47.5 -195q0 -187 -117 -307q-63 -65 -157 -100t-206 -35h-540q-43 0 -74 30.5t-31 73.5zM248 104q0 -18 11.5 -29.5t29.5 -11.5h540q203 0 318 115 q98 101 98 264q0 117 -60.5 200t-170.5 122q-8 2 -10 5t0.5 6t7.5 5q176 75 176 281q0 155 -96 242q-106 100 -287 100h-516q-18 0 -29.5 -11.5t-11.5 -29.5v-1258zM330 145v1174h473q151 0 233 -76q70 -67 70 -180q0 -86 -35 -137.5t-113 -79.5q-25 -9 -39 -30.5t-14 -47.5 q0 -27 16 -46.5t40 -25.5q96 -26 149 -92t53 -162q0 -127 -76 -206q-88 -91 -258 -91h-499zM391 207h436q146 0 215 72q58 58 58 163q0 148 -150 193q-43 8 -75 44t-33 89q0 46 26.5 84t67.5 53q59 20 83.5 56t24.5 100q0 87 -53 137q-56 59 -188 59h-412v-1050z" />
<glyph unicode="C" horiz-adv-x="1458" d="M102 729q0 219 79.5 390.5t234 271.5t360.5 100q212 0 364.5 -107.5t205.5 -304.5q2 -8 2 -26q0 -41 -29.5 -72t-73.5 -31q-34 0 -62.5 21.5t-37.5 56.5q-33 128 -129 192t-240 64q-223 0 -345 -152.5t-122 -402.5q0 -161 52 -284.5t157.5 -195t251.5 -71.5 q175 0 276.5 92t122.5 256q4 39 34.5 65.5t70.5 26.5q41 0 70 -29t32 -71q0 -10 -2 -16q-30 -241 -188.5 -386t-415.5 -145q-108 0 -207 30.5t-183 93.5t-146 152t-97 212.5t-35 269.5zM162 731q0 -312 165.5 -503t440.5 -191q233 0 374.5 129.5t168.5 343.5v8 q-2 15 -12.5 27t-28.5 12q-15 0 -27.5 -11t-13.5 -26q-22 -185 -142 -293t-319 -108q-165 0 -285 81.5t-179.5 218.5t-59.5 312q0 180 60.5 319t182 219.5t287.5 80.5q163 0 276.5 -78t151.5 -225q9 -31 41 -31q18 0 29.5 11.5t11.5 27.5q0 2 -1 7t-1 7 q-50 176 -184.5 269.5t-323.5 93.5t-329 -91.5t-211.5 -249t-71.5 -360.5z" />
<glyph unicode="D" horiz-adv-x="1464" d="M184 102v1260q0 42 30 72t73 30h438q303 0 470 -193t167 -544q0 -347 -170 -537t-481 -190h-424q-43 0 -73 29.5t-30 72.5zM248 102q0 -17 11 -28t28 -11h424q149 0 262.5 48.5t184 138t105.5 209.5t35 268q0 206 -61.5 356t-192 235t-319.5 85h-438q-17 0 -28 -12.5 t-11 -28.5v-1260zM330 145v1176l395 -2q249 0 370.5 -157.5t121.5 -434.5q0 -275 -126 -428.5t-380 -153.5h-381zM391 207h320q444 0 444 520q0 530 -430 530h-334v-1050z" />
<glyph unicode="E" horiz-adv-x="1325" d="M184 102v1260q0 42 30 72t73 30h833q42 0 72.5 -30t30.5 -72q0 -43 -30 -74t-73 -31h-731v-378h666q43 0 73.5 -31t30.5 -74t-30.5 -72.5t-73.5 -29.5h-666v-465h752q42 0 72 -31t30 -74t-29.5 -72.5t-72.5 -29.5h-854q-43 0 -73 29.5t-30 72.5zM246 104q0 -17 12 -29 t29 -12h852q17 0 29 12t12 29t-12 29t-29 12h-811v588h727q17 0 29 12t12 29t-12 29t-29 12h-727v506h790q17 0 29 12t12 29t-12 29t-29 12h-831q-17 0 -29 -12t-12 -29v-1258z" />
<glyph unicode="F" horiz-adv-x="1249" d="M184 86v1276q0 41 31 71.5t72 30.5h796q43 0 74 -30.5t31 -71.5q0 -43 -31 -74t-74 -31h-692v-374h584q41 0 71.5 -30.5t30.5 -72.5t-30 -72t-72 -30h-584v-592q0 -43 -30.5 -72.5t-73.5 -29.5q-42 0 -72.5 30t-30.5 72zM248 86q0 -17 12 -29t27 -12q17 0 30 12t13 29 v653h645q16 0 28.5 12t12.5 29t-12.5 29t-28.5 12h-645v498h753q17 0 29 12t12 29t-12 29t-29 12h-796q-15 0 -27 -12t-12 -29v-1274z" />
<glyph unicode="G" horiz-adv-x="1554" d="M98 729q0 338 189 549q195 213 510 213q223 0 374 -109q157 -114 207 -311q4 -14 4 -28q0 -27 -14 -51q-22 -38 -63 -48q-13 -3 -25 -3q-28 0 -54 15q-37 23 -48 64q-30 125 -125 192q-101 72 -256 72q-224 0 -357 -145q-135 -150 -135 -410q0 -257 131 -407 q129 -144 342 -144q220 0 328 174q35 53 98 62v196h-379q-42 0 -72 31t-30 74t29.5 72.5t72.5 29.5h482q43 0 73.5 -29.5t30.5 -72.5v-611q0 -43 -30.5 -73.5t-73.5 -30.5h-23q-49 0 -78 37q-21 25 -24 53l-2 27q-3 -3 -10.5 -8.5t-10.5 -8.5q-157 -129 -381 -129 q-308 0 -495 213q-185 206 -185 545zM162 731q0 -317 166 -504q168 -192 450 -192q272 0 420 207q6 6 19 6q10 -7 10 -15q8 -63 22 -147q10 -23 35 -23h23q17 0 29 12t12 29v611q0 17 -12 29t-29 12h-482q-17 0 -29 -12t-12 -29t12 -29t29 -12h441v-352l-9 14q-18 14 -40 14 q-37 0 -58 -31q-129 -202 -381 -202q-245 0 -389 164q-145 168 -145 450q0 283 151 451q146 166 402 166q172 0 290 -82q114 -79 152 -230q4 -17 19 -26t30 -4q17 4 25.5 18.5t5.5 30.5q-48 183 -184 276q-135 99 -338 99q-288 0 -463 -193q-172 -190 -172 -506z" />
<glyph unicode="H" horiz-adv-x="1507" d="M184 86v1292q0 43 31 74t74 31q42 0 72 -31t30 -74v-487h725v487q0 43 31 74t74 31q41 0 71.5 -31t30.5 -74v-1292q0 -42 -30 -72t-72 -30q-43 0 -74 30t-31 72v598h-725v-598q0 -43 -29.5 -72.5t-72.5 -29.5t-74 30t-31 72zM246 86q0 -17 13 -29t30 -12t28 12t11 29v662 h850v-662q0 -17 13 -29t30 -12q16 0 28.5 12t12.5 29v1292q0 17 -13 30t-28 13q-17 0 -30 -13t-13 -30v-549h-850v549q0 18 -11 30.5t-28 12.5t-30 -13t-13 -30v-1292z" />
<glyph unicode="I" horiz-adv-x="575" d="M184 86v1292q0 43 31 74t72 31q43 0 73.5 -31t30.5 -74v-1292q0 -43 -30.5 -72.5t-73.5 -29.5q-42 0 -72.5 30t-30.5 72zM248 86q0 -17 12 -29t27 -12q17 0 30 12t13 29v1292q0 17 -13 30t-30 13q-15 0 -27 -13t-12 -30v-1292z" />
<glyph unicode="J" horiz-adv-x="1114" d="M61 436v15q0 43 30 73.5t73 30.5t73.5 -30.5t30.5 -73.5v-15q0 -138 54.5 -197t181.5 -59q219 0 219 203v993q0 43 30.5 74t73.5 31t73 -31t30 -74v-993q0 -189 -114 -299.5t-312 -110.5q-214 0 -328.5 119.5t-114.5 343.5zM123 436q0 -197 97 -298t284 -101 q174 0 269 90.5t95 255.5l-2 995q0 17 -11 29t-28 12t-30 -12t-13 -29v-995q0 -130 -72 -197t-208 -67q-155 0 -227 77t-72 240v15q0 17 -12 30t-29 13t-29 -13t-12 -30v-15z" />
<glyph unicode="K" horiz-adv-x="1417" d="M184 86v1292q0 43 31 74t72 31q43 0 73.5 -31t30.5 -74v-637l727 711q31 31 72 31q44 0 73 -30t29 -73q0 -45 -30 -75l-469 -457l522 -701q20 -26 20 -59q0 -45 -30.5 -74.5t-73.5 -29.5q-52 0 -80 41l-506 677l-254 -247v-369q0 -43 -30.5 -72.5t-73.5 -29.5 q-42 0 -72.5 30t-30.5 72zM248 88q0 -17 12 -29t27 -12q17 0 30 12t13 29v393l321 316l549 -734q11 -16 31 -16q18 0 29.5 11.5t11.5 29.5q0 13 -6 25l-555 741l508 498q12 9 12 28q0 17 -12 29t-29 12t-29 -12l-831 -813v784q0 17 -13 29t-30 12q-15 0 -27 -12t-12 -29 v-1292z" />
<glyph unicode="L" horiz-adv-x="1193" d="M184 102v1276q0 43 31 74t72 31q43 0 73.5 -31t30.5 -74v-1171h660q42 0 72 -31t30 -74t-29.5 -72.5t-72.5 -29.5h-764q-42 0 -72.5 30t-30.5 72zM248 102q0 -18 10.5 -28.5t28.5 -10.5h764q16 0 28.5 11t12.5 28t-13 30t-28 13h-723v1233q0 17 -12 30t-29 13 q-15 0 -27 -13t-12 -30v-1276z" />
<glyph unicode="M" horiz-adv-x="1759" d="M184 86v1276q0 41 31 71.5t74 30.5h110q32 0 58.5 -18t38.5 -47l383 -1006l381 1004q10 30 36.5 48.5t59.5 18.5h117q41 0 71.5 -30.5t30.5 -71.5v-1276q0 -42 -30 -72t-72 -30q-43 0 -74 30t-31 72v1024l-391 -1044q-14 -34 -42 -51t-57.5 -16t-56 18.5t-37.5 48.5 l-393 1034v-1014q0 -42 -30 -72t-72 -30q-43 0 -74 30t-31 72zM248 88q0 -17 12 -29t29 -12q16 0 28.5 12t12.5 29v1233h41l471 -1231q10 -27 39 -27q27 0 37 27l464 1231h48v-1233q0 -17 11.5 -29t28.5 -12t29 12t12 29v1274q0 17 -12 29t-29 12h-114q-29 0 -39 -27 l-438 -1157l-443 1157q-10 27 -37 27h-110q-17 0 -29 -12t-12 -29v-1274z" />
<glyph unicode="N" horiz-adv-x="1507" d="M184 86v1276q0 42 30 72t73 30h84q56 0 88 -49l655 -1073h2v1036q0 43 30 74t73 31t73.5 -31t30.5 -74v-1276q0 -43 -30.5 -72.5t-73.5 -29.5h-76q-60 0 -88 49l-662 1081h-2v-1044q0 -43 -30.5 -72.5t-73.5 -29.5t-73 29.5t-30 72.5zM246 86q0 -16 12 -28.5t29 -12.5 t29 12.5t12 28.5v1204h39l741 -1208q10 -18 33 -21h78q19 0 31 11t12 30l-2 1276q0 17 -12 29t-29 12t-29 -12t-12 -29v-1202h-33l-739 1206q-11 19 -35 19h-84q-19 0 -30 -11t-11 -28v-1276z" />
<glyph unicode="O" horiz-adv-x="1579" d="M102 731q0 163 51.5 304t142 241t217.5 157.5t273 57.5q197 0 355 -97.5t247 -271.5t89 -391t-89 -391t-247 -271.5t-355 -97.5q-146 0 -273 57.5t-217.5 157.5t-142 241t-51.5 304zM166 731q0 -307 175 -501.5t445 -194.5q134 0 250.5 50.5t200 141t131 221t47.5 283.5 t-47.5 284t-131 222t-200 142t-250.5 51q-177 0 -318.5 -88t-221.5 -248t-80 -363zM246 731q0 270 150 443.5t390 173.5q161 0 285.5 -78.5t193 -219t68.5 -319.5q0 -274 -151.5 -444t-395.5 -170q-159 0 -282 78t-190.5 218t-67.5 318zM309 731q0 -249 131.5 -401 t345.5 -152q217 0 350.5 152t133.5 401q0 248 -133.5 400.5t-350.5 152.5q-214 0 -345.5 -152.5t-131.5 -400.5z" />
<glyph unicode="P" horiz-adv-x="1308" d="M184 84v1276q0 42 30 72t73 30h487q218 0 345.5 -119.5t127.5 -320.5q0 -214 -128 -330.5t-361 -116.5h-367v-491q0 -43 -30.5 -72.5t-73.5 -29.5t-73 29.5t-30 72.5zM248 86q0 -17 11 -29t28 -12t30 12t13 29v553h428q204 0 316 97t112 286q0 178 -111.5 278.5 t-300.5 100.5h-487q-17 0 -28 -12t-11 -29v-1274zM330 719v600h444q159 0 244.5 -77.5t85.5 -219.5q0 -303 -346 -303h-428zM391 780h367q72 0 125 14t83 36t47.5 56t23 65t5.5 71q0 233 -268 233h-383v-475z" />
<glyph unicode="Q" horiz-adv-x="1579" d="M102 731q0 163 51.5 304t142 241t218 157.5t274.5 57.5q197 0 354.5 -97.5t246 -271.5t88.5 -391q0 -312 -174 -520l92 -76q39 -29 39 -80q0 -43 -31.5 -72.5t-71.5 -29.5t-65 22l-121 97q-164 -101 -357 -101q-147 0 -274.5 57.5t-218 157.5t-142 241t-51.5 304z M164 731q0 -203 80.5 -362t222 -246.5t319.5 -87.5q208 0 363 115l156 -125q15 -11 26 -11q14 0 26.5 11t12.5 30q0 21 -14 33l-144 117q96 92 148.5 227t52.5 299q0 154 -47.5 284.5t-130 221.5t-199 142t-250.5 51q-177 0 -319 -88t-222.5 -248t-80.5 -363zM246 731 q0 270 150 443.5t390 173.5q162 0 286.5 -78.5t192.5 -218.5t68 -320q0 -150 -48 -272.5t-136 -202.5l-172 139q-11 8 -27 8q-18 0 -29.5 -11.5t-11.5 -29.5q0 -16 17 -30l157 -129q-128 -86 -297 -86q-159 0 -282 78t-190.5 218t-67.5 318zM309 731q0 -249 132 -401 t347 -152q101 0 185 35l-86 70q-39 29 -39 79q0 42 29.5 73.5t72.5 31.5q38 0 66 -25l129 -102q127 152 127 391q0 248 -133.5 400.5t-350.5 152.5q-215 0 -347 -152.5t-132 -400.5z" />
<glyph unicode="R" horiz-adv-x="1441" d="M184 86v1274q0 43 31 73.5t74 30.5h557q205 0 323 -112q121 -115 121 -316q0 -123 -45 -209q-37 -67 -104 -116q60 -55 86 -140t33 -209q8 -178 32 -239q8 -21 8 -40q0 -31 -20 -57q-32 -42 -84 -42q-33 0 -59.5 17.5t-38.5 49.5q-36 98 -45 303q-3 71 -11 115.5 t-24 66.5t-27.5 29.5t-36.5 16.5q-34 12 -63 45t-29 86q0 43 24 82t72 55q74 22 99 65q26 40 26 121q0 113 -57 164q-57 57 -180 57h-455v-1171q0 -42 -30 -72t-72 -30q-43 0 -74 30t-31 72zM248 86q0 -17 12 -29t29 -12t29 12t12 29v1233h516q146 0 223 -74q78 -73 78 -209 q0 -101 -41 -159q-38 -58 -129 -89q-22 -6 -37 -26.5t-16 -48.5q4 -59 51 -72q74 -23 104 -88t35 -197q10 -201 43 -284q10 -27 39 -27q20 0 32 17q8 11 8 23q0 7 -3 15q-28 81 -37 260q-5 142 -40.5 223t-123.5 122q-23 11 2 20q98 40 144 113q51 77 51 198q0 174 -103 269 q-104 96 -280 96h-557q-17 0 -29 -12t-12 -29v-1274z" />
<glyph unicode="S" horiz-adv-x="1343" d="M102 451q-1 6 -1 12q-1 37 27 67q32 34 79 35q38 0 68 -26t34 -64q37 -297 398 -297q149 0 240 64.5t91 187.5q0 114 -67 152q-60 38 -250 71l-94 19q-121 24 -195 45t-129 55q-151 93 -151 299q0 192 146 306t368 114q215 0 355 -104t175 -302q2 -6 2 -18q0 -42 -29 -72 t-73 -30q-37 0 -67 24t-36 62q-44 233 -327 233q-133 0 -220.5 -53t-87.5 -160q0 -55 14.5 -81.5t39.5 -41.5q24 -16 67.5 -29.5t78 -21.5t108.5 -23l94 -18q86 -17 122 -24.5t97 -27.5t102 -46q164 -103 164 -328q0 -211 -150.5 -335t-387.5 -124q-250 0 -413 125t-192 355 zM330 146q143 -110 375 -111q210 0 342.5 104.5t132.5 290.5q0 142 -74 219q-27 32 -63 56t-89.5 41t-93.5 26.5t-115 24.5l-94 16q-87 18 -123 26.5t-85.5 26.5t-77.5 39q-72 53 -72 166q0 135 104 206t267 71q160 0 261 -70.5t128 -216.5q3 -15 14 -24t25 -9 q18 0 29.5 11.5t11.5 27.5v8q-31 171 -153 263t-316 92q-128 0 -229.5 -40.5t-162.5 -123t-61 -195.5q0 -159 108 -235q36 -25 90.5 -45t99 -30.5t128.5 -27.5l92 -18q98 -18 146 -29.5t101.5 -38t80.5 -65.5q41 -57 41 -152q0 -101 -53.5 -173t-141 -106t-198.5 -34 q-196 0 -317 88.5t-144 261.5q-1 17 -12.5 27t-26.5 10q-19 0 -32 -14q-11 -12 -12 -27q1 -187 169 -317z" />
<glyph unicode="T" horiz-adv-x="1241" d="M41 1362q0 41 30.5 71.5t71.5 30.5h953q43 0 73.5 -30.5t30.5 -71.5q0 -43 -30.5 -74t-73.5 -31h-373v-1171q0 -43 -29.5 -72.5t-72.5 -29.5t-73 29.5t-30 72.5v1171h-375q-41 0 -71.5 31t-30.5 74zM104 1362q0 -17 12 -29t27 -12h437v-1235q0 -17 12 -29t29 -12t29 12 t12 29v1235h436q17 0 29 12t12 29t-12 29t-29 12h-955q-15 0 -27 -12t-12 -29z" />
<glyph unicode="U" horiz-adv-x="1404" d="M143 485v895q0 43 31 73t74 30t72.5 -30t29.5 -73v-899q0 -161 90.5 -232t257.5 -71q164 0 260.5 71.5t96.5 231.5v899q0 43 30.5 73t73.5 30t73 -30t30 -73v-895q0 -109 -31.5 -197t-84.5 -146.5t-126.5 -97.5t-153.5 -56t-168 -17q-264 0 -409.5 135t-145.5 379z M205 485q0 -225 129.5 -338.5t361.5 -113.5q107 0 195.5 26t157.5 78.5t108 141.5t39 206v895q0 17 -12 28t-29 11t-29 -11t-12 -28v-897q0 -96 -31 -168t-88.5 -115t-132 -64t-166.5 -21q-194 0 -301.5 89t-107.5 279v897q0 17 -12 28t-29 11t-29 -11t-12 -28v-895z" />
<glyph unicode="V" horiz-adv-x="1335" d="M61 1380q0 48 33.5 75.5t65.5 27.5q35 0 62.5 -18.5t37.5 -51.5l406 -1126h2l405 1128q12 31 39 49.5t59 18.5q41 0 72 -30t31 -77q0 -18 -6 -33l-463 -1275q-10 -31 -37 -49.5t-59 -18.5h-88q-33 0 -60 18.5t-37 49.5l-456 1275q-7 21 -7 37zM125 1378q0 -10 2 -16 l455 -1272q10 -27 39 -27h88q12 0 22.5 7.5t13.5 19.5l463 1272q2 4 2 14q0 19 -12 31t-29 12q-29 0 -39 -26l-444 -1229h-43l-440 1227q-9 28 -39 28q-13 0 -26 -10t-13 -31z" />
<glyph unicode="W" horiz-adv-x="1837" d="M61 1382q0 43 31.5 72t69.5 29q36 0 64.5 -21.5t37.5 -56.5l279 -1051h2l274 1035q9 33 37 54t64 21q34 0 61.5 -21t36.5 -54l272 -1024h2l281 1042q9 33 37.5 54.5t62.5 21.5q38 0 70.5 -28t32.5 -75q0 -8 -4 -28l-347 -1276q-9 -34 -36 -55t-62 -21h-74q-35 0 -63 21 t-37 55l-235 885l-236 -885q-9 -34 -37 -55t-63 -21h-78q-35 0 -63.5 21t-37.5 55l-337 1278q-5 25 -5 28zM125 1378q0 -8 4 -20l336 -1264q3 -13 14 -22t25 -9h80q14 0 25 9t14 22l295 1108l294 -1108q5 -14 16.5 -22.5t24.5 -8.5h74q29 0 39 31l344 1268q2 8 2 16 q0 20 -12.5 31.5t-26.5 11.5q-13 0 -24.5 -9t-16.5 -21l-325 -1207h-33l-316 1188q-4 13 -15 22t-23 9q-13 0 -24.5 -8.5t-16.5 -22.5l-318 -1190h-35l-321 1207q-3 15 -14 23.5t-25 8.5q-17 0 -29 -12t-12 -31z" />
<glyph unicode="X" horiz-adv-x="1314" d="M82 86q0 34 18 61l435 596l-410 576q-21 31 -21 63q0 42 32 71.5t71 29.5q55 0 86 -45l369 -516l364 516q31 45 84 45q43 0 73.5 -31.5t30.5 -73.5q0 -32 -18 -59l-408 -576l426 -598q19 -28 19 -57q0 -48 -32 -76t-71 -28q-53 0 -83 43l-385 538l-394 -540 q-30 -41 -84 -41q-42 0 -72 28t-30 74zM143 86q0 -16 11 -27.5t30 -11.5q20 0 33 16l445 611l434 -611q15 -18 32 -18q15 0 28 12.5t13 30.5q0 12 -8 23l-450 632l432 613q8 11 8 22q0 15 -11 28t-30 13q-20 0 -33 -16l-415 -588l-420 588q-11 16 -35 16q-17 0 -28 -11.5 t-11 -27.5q0 -12 6 -24l436 -613l-460 -632q-7 -11 -7 -25z" />
<glyph unicode="Y" horiz-adv-x="1275" d="M41 1380q0 44 32 73.5t72 29.5q50 0 82 -43l412 -570l410 570q32 43 84 43q40 0 71 -28.5t31 -72.5q0 -40 -18 -63l-476 -660v-573q0 -43 -30.5 -72.5t-73.5 -29.5q-42 0 -72 30t-30 72v573l-474 660q-20 26 -20 61zM102 1380q0 -15 9 -24l485 -674v-596q0 -17 12 -28 t29 -11t29 11t12 28v596l485 674q8 11 8 24q0 17 -12 29t-29 12q-18 0 -32 -18l-461 -639l-461 639q-11 16 -33 16q-17 0 -29 -11t-12 -28z" />
<glyph unicode="Z" horiz-adv-x="1333" d="M102 102v74q0 36 23 66l807 1015h-676q-42 0 -72 30.5t-30 72.5q0 43 29.5 73.5t72.5 30.5h842q43 0 73.5 -30.5t30.5 -73.5v-60q0 -35 -22 -63l-820 -1032h768q43 0 73 -30t30 -73t-30 -72.5t-73 -29.5h-921q-43 0 -74 30t-31 72zM166 102q0 -17 12 -28t29 -11h921 q17 0 29 11t12 28t-12 29t-29 12h-878v23l883 1110q8 11 8 24v60q0 17 -12 30t-29 13h-842q-17 0 -29 -13t-12 -30q0 -15 12 -27t29 -12h797v-12l-879 -1106q-10 -10 -10 -25v-76z" />
<glyph unicode="[" horiz-adv-x="700" d="M184 -207v1567q0 43 31 73.5t74 30.5h184q43 0 74 -30.5t31 -73.5q0 -41 -31 -72t-74 -31h-82v-1359h82q43 0 74 -31t31 -74q0 -42 -31 -72t-74 -30h-184q-43 0 -74 30t-31 72zM246 -209q0 -15 13 -27t30 -12h184q17 0 30 12t13 27q0 18 -12.5 30.5t-30.5 12.5h-143v1485 h143q17 0 30 12t13 29t-13 29t-30 12h-184q-17 0 -30 -12t-13 -29v-1569z" />
<glyph unicode="\" horiz-adv-x="886" d="M55 1460q0 42 29.5 73.5t75.5 31.5q31 0 57.5 -18t38.5 -50l543 -1460q6 -18 6 -35q0 -48 -31 -77t-72 -29q-32 0 -59 18t-39 49l-543 1462q-6 18 -6 35zM119 1460q0 -8 2 -12l543 -1462q10 -27 36 -27q16 0 28.5 11t12.5 30q0 10 -2 14l-542 1461q-9 28 -39 28 q-15 0 -27 -12.5t-12 -30.5z" />
<glyph unicode="]" horiz-adv-x="700" d="M123 -207q0 43 30.5 74t73.5 31h82v1359h-82q-43 0 -73.5 30.5t-30.5 72.5q0 43 30.5 73.5t73.5 30.5h185q43 0 73.5 -30.5t30.5 -73.5v-1567q0 -43 -30.5 -72.5t-73.5 -29.5h-185q-43 0 -73.5 29.5t-30.5 72.5zM184 -209q0 -15 13 -27t30 -12h185q17 0 29 12t12 27v1569 q0 17 -12 29t-29 12h-185q-17 0 -30 -12t-13 -29t13 -29t30 -12h146v-1485h-146q-18 0 -30.5 -12.5t-12.5 -30.5z" />
<glyph unicode="^" horiz-adv-x="1042" d="M82 705q0 26 12 47l344 684q28 55 92 55q31 0 56 -15.5t39 -41.5l325 -674q11 -19 11 -45q0 -42 -28.5 -73.5t-72.5 -31.5q-30 0 -56.5 16.5t-39.5 43.5l-236 485l-249 -496q-13 -27 -38.5 -42t-54.5 -15q-39 0 -71.5 29.5t-32.5 73.5zM143 707q0 -18 14.5 -29.5 t28.5 -11.5q24 0 37 22l307 608l289 -598q12 -24 37 -24q18 0 30.5 11.5t12.5 29.5q0 6 -4 18l-328 674q-10 23 -37 23q-26 0 -36 -23l-344 -682q-7 -11 -7 -18z" />
<glyph unicode="_" horiz-adv-x="860" d="M-102 -209q0 43 30 74t72 31h860q43 0 73 -31t30 -74t-30 -72.5t-73 -29.5h-860q-43 0 -72.5 29.5t-29.5 72.5zM-41 -209q0 -17 12 -29t29 -12h860q17 0 29 12t12 29t-12 29t-29 12h-860q-17 0 -29 -12t-12 -29z" />
<glyph unicode="`" horiz-adv-x="729" d="M205 1741q0 44 32.5 74t71.5 30q62 0 90 -55l113 -207q12 -21 12 -45q0 -45 -31.5 -75.5t-70.5 -30.5q-28 0 -53.5 14.5t-38.5 38.5l-113 207q-12 24 -12 49zM266 1741q0 -7 4 -19l115 -206q11 -21 37 -21q13 0 26 11.5t13 29.5q0 12 -4 18l-113 207q-12 21 -37 21 q-15 0 -28 -10.5t-13 -30.5z" />
<glyph unicode="a" horiz-adv-x="1155" d="M96 307q0 152 92 240q111 105 367 131q153 17 240 53l-2 41q0 69 -48 100q-45 35 -155 35q-156 0 -213 -78q-11 -14 -18.5 -29.5t-8.5 -24.5l-2 -9q-3 -41 -32.5 -68.5t-69.5 -27.5t-74 29q-32 27 -31 73v8q14 98 70 174q119 160 379 160q220 0 330 -119q79 -89 79 -225 v-545q0 -25 5 -35h3q43 0 73 -29q32 -30 32 -73t-30.5 -73.5t-71.5 -30.5q-102 0 -160 67q-12 14 -27 37q-144 -117 -344 -117q-176 0 -279.5 92t-103.5 244zM162 309q0 -117 81 -196.5t240 -79.5q212 0 355 151q4 4 7.5 8.5t7 10t5.5 8.5q3 -18 6 -39q14 -58 35 -80 q41 -47 113 -47q17 0 29 12t12 29q0 18 -12.5 30t-30.5 11q-70 3 -70 92v553q0 110 -63 180q-91 101 -283 101q-226 0 -330 -135q-23 -30 -37 -65.5t-17 -52t-3 -24.5q-1 -19 11.5 -31t29.5 -14q15 0 27.5 11t13.5 28q4 49 41 98q79 103 264 103q146 0 217 -68 q47 -51 47 -131v-70q-43 -59 -293 -86q-239 -24 -332 -114q-71 -66 -71 -193zM244 307q0 47 9.5 79.5t39.5 59.5q74 67 289 91q179 19 276 65v-244q-34 -68 -82 -120q-123 -123 -293 -123q-127 0 -188 61q-51 49 -51 131zM303 307q0 -55 33 -86q46 -43 145 -43q146 0 244 98 q32 34 70 97v139q-96 -26 -217 -39q-187 -22 -246 -76q-29 -26 -29 -90z" />
<glyph unicode="b" horiz-adv-x="1165" d="M143 86v1292q0 43 31 74t72 31q43 0 73.5 -31t30.5 -74v-350q114 88 268 88q105 0 195 -42.5t152 -123.5q118 -151 118 -405q0 -250 -122 -406q-130 -168 -351 -168q-158 0 -264 84q-11 -32 -38 -51.5t-62 -19.5q-42 0 -72.5 30t-30.5 72zM207 86q0 -17 12 -29t27 -12 q17 0 29 12t12 29v133q39 -67 94 -110q92 -74 231 -74q188 0 301 143q109 136 109 367t-107 366q-110 144 -297 144q-136 0 -233 -82q-56 -43 -98 -117v522q0 17 -12 29t-29 12q-15 0 -27 -12t-12 -29v-1292zM289 526v19q0 75 18 144.5t32.5 98.5t20.5 35q88 150 261 150 q146 0 231 -111q88 -117 88 -317q0 -201 -92 -316q-86 -112 -236 -112q-87 0 -147 32t-109 105l-1 2q-62 101 -66 270zM350 545q0 -35 3 -66.5t8 -56.5t10 -44.5t12 -36t11.5 -26t10 -18.5t5.5 -10q38 -59 85 -84t117 -25q118 0 187 88q78 101 78 279q0 183 -74 278 q-68 86 -182 86q-139 0 -207 -118q-64 -107 -64 -246z" />
<glyph unicode="c" horiz-adv-x="1126" d="M82 543q0 256 140.5 414.5t367.5 158.5q169 0 286.5 -85t157.5 -236q4 -16 4 -25q0 -42 -31 -73t-73 -31q-34 0 -62.5 21t-37.5 56q-43 166 -244 166q-141 0 -221 -97t-80 -269q0 -170 80 -267.5t219 -97.5q217 0 252 201q6 41 42 65q29 20 62 20q8 0 17 -1 q38 -7 60.5 -36t22.5 -69q0 -43 -28 -113t-72 -124q-130 -150 -356 -150t-366 158t-140 414zM143 543q0 -227 119.5 -368.5t325.5 -141.5q196 0 303 123q41 48 63.5 104.5t26.5 99.5q0 18 -11 28.5t-24 12.5q-17 2 -29.5 -7.5t-15.5 -26.5q-23 -124 -104 -188t-209 -64 q-171 0 -267 117.5t-96 310.5q0 191 97 309.5t266 118.5q122 0 200.5 -54t104.5 -157q3 -15 14 -24t25 -9q17 0 29 12t14 29l-2 10q-36 135 -137.5 205t-247.5 70q-207 0 -326 -142.5t-119 -367.5z" />
<glyph unicode="d" horiz-adv-x="1165" d="M82 543q0 251 117 405q63 82 152 125t194 43q156 0 270 -88v350q0 43 31 74t74 31q41 0 71.5 -31t30.5 -74v-1292q0 -42 -30 -72t-72 -30q-35 0 -63 19.5t-38 51.5q-106 -84 -266 -84q-218 0 -350 166q-121 154 -121 406zM143 545q0 -231 109 -367q113 -143 301 -143 q139 0 231 74q54 41 93 110v-133q0 -17 13 -29t30 -12q15 0 26.5 12t11.5 29v1292q0 17 -11.5 29t-26.5 12q-17 0 -29 -12t-12 -29v-522q-41 72 -99 117q-97 82 -235 82q-185 0 -295 -144q-107 -135 -107 -366zM225 545q0 200 88 317q85 111 234 111q169 0 258 -150 q6 -6 21 -35t33 -98.5t18 -144.5q0 -181 -67 -289l-1 -2q-49 -73 -109 -105t-147 -32q-150 0 -236 112q-92 115 -92 316zM289 543q0 -181 78 -277q70 -88 188 -88q71 0 117 24.5t84 84.5q0 1 5.5 10t10 18.5t11 25.5t12 36t10.5 44.5t7.5 56t2.5 65.5q0 27 -2.5 53.5 t-6 47.5t-9 41t-10.5 34.5t-11 28t-10 21t-8 15.5l-4 7q-72 118 -207 118q-117 0 -182 -86q-76 -102 -76 -280z" />
<glyph unicode="e" horiz-adv-x="1150" d="M82 551q0 122 43 235t123 193q64 64 151.5 100.5t188.5 36.5q200 0 325 -125q147 -150 156 -430q0 -44 -29 -76q-30 -30 -73 -30h-672q19 -132 97.5 -204.5t205.5 -72.5q37 0 70.5 7.5t69 25t64 53.5t44.5 86q10 33 38 52.5t62 19.5q42 0 72.5 -29t30.5 -71q0 -12 -7 -33 q-46 -149 -163.5 -233.5t-280.5 -84.5q-235 0 -375.5 154.5t-140.5 425.5zM143 549q0 -238 121.5 -377t333.5 -139q144 0 244.5 72.5t140.5 199.5q2 6 2 14q0 18 -11.5 29.5t-29.5 11.5q-30 0 -39 -28q-33 -107 -114 -162t-193 -55q-172 0 -268.5 109.5t-102.5 291.5h740 q16 0 28 12q11 11 11 31q-6 247 -127 377q-108 117 -291 117q-96 0 -172.5 -34.5t-124.5 -84.5q-75 -75 -111.5 -176t-36.5 -209zM229 598q12 169 112.5 271t244.5 102q156 0 239 -97t97 -276h-693zM301 662h551q-24 127 -86.5 187t-177.5 60q-108 0 -184.5 -66t-102.5 -181 z" />
<glyph unicode="f" horiz-adv-x="591" d="M20 985q0 42 31 72t74 30h37v119q0 137 78 209q77 68 217 68h32q43 -2 73 -33q28 -30 28 -71q0 -44 -33 -75q-30 -28 -71 -28h-3q-18 1 -33 1q-56 0 -71 -15q-10 -7 -10 -56v-119h120q42 0 72.5 -30t30.5 -72q0 -43 -31 -73.5t-72 -30.5h-120v-793q0 -43 -31 -73.5 t-74 -30.5t-72.5 30.5t-29.5 73.5v793h-37q-43 0 -74 30.5t-31 73.5zM82 983q0 -17 12 -29t29 -12h100v-856q0 -17 12 -29t29 -12t29 12t12 29v856h182q17 0 29 12t12 29t-12 29t-29 12h-182v182q0 68 30.5 97.5t100.5 29.5q10 4 47 4q17 -1 29 10t14 29q0 17 -11 29.5 t-30 13.5h-30q-117 0 -174 -51q-58 -52 -58 -162v-182h-100q-17 0 -29 -12t-12 -29z" />
<glyph unicode="g" horiz-adv-x="1161" d="M82 563q0 137 42 245.5t111.5 174t153 99.5t172.5 34q147 0 256 -80q12 25 14 27q29 41 82 41q43 0 74 -30t31 -73v-897q0 -186 -107 -305q-134 -137 -372 -137q-170 0 -285.5 67t-155.5 187q-4 14 -4 33q0 40 29.5 71t73.5 31q33 0 61 -20.5t37 -53.5q15 -51 80.5 -79.5 t163.5 -28.5q119 0 183 40t81 122q6 27 6 59q-103 -74 -248 -74q-215 0 -347 151t-132 396zM145 561q0 -210 111.5 -346.5t304.5 -136.5q214 0 311 198v-190q-5 -137 -90 -209t-243 -72q-120 0 -200 40.5t-103 113.5q-3 12 -14.5 20.5t-24.5 8.5q-15 0 -28 -11.5t-13 -29.5 q0 -7 2 -13q31 -99 131.5 -154.5t249.5 -55.5q209 0 317 108q100 95 100 272v895q0 17 -13 29t-30 12q-11 0 -21 -7t-13 -17l-5 -164q-98 201 -313 201q-179 0 -297.5 -132.5t-118.5 -359.5zM227 563q0 188 94 298t240 110q162 0 244 -137q67 -110 67 -267 q0 -86 -20.5 -160.5t-48.5 -115.5q-44 -67 -101.5 -99t-140.5 -32q-157 0 -245.5 111t-88.5 292zM289 563q0 -160 72 -250t200 -90q68 0 109.5 23.5t74.5 72.5q31 44 48.5 112.5t17.5 133.5q0 113 -43 207q-32 68 -81.5 102.5t-125.5 34.5q-50 0 -96 -19t-86.5 -57.5 t-65 -108t-24.5 -161.5z" />
<glyph unicode="h" horiz-adv-x="1101" d="M143 86v1292q0 43 31 74t72 31q43 0 73.5 -31t30.5 -74v-336q108 74 256 74q180 0 277 -106q98 -102 98 -262v-660q0 -43 -30.5 -73.5t-73.5 -30.5t-73 30.5t-30 73.5v666q0 9 -1.5 23t-12.5 43t-29 48q-41 41 -125 41q-130 0 -200 -98q-47 -63 -56 -133v-592 q0 -43 -30.5 -72.5t-73.5 -29.5q-42 0 -72.5 30t-30.5 72zM207 86q0 -17 12 -29t29 -12t29 12t12 29v594q0 36 20 86.5t45 83.5q88 123 252 123q113 0 172 -62q26 -28 40.5 -70t16 -59.5t1.5 -29.5v-664q0 -17 12 -29t29 -12t29 12t12 29v662q1 6 1 16q1 12 -1 28 q-2 30 -22.5 83t-57.5 92q-83 86 -232 86q-207 0 -317 -174v497q0 17 -12 30t-29 13t-29 -13t-12 -30v-1292z" />
<glyph unicode="i" d="M143 86v915q0 43 31 73t74 30q42 0 72 -30t30 -73v-915q0 -41 -30.5 -71.5t-71.5 -30.5q-43 0 -74 30.5t-31 71.5zM143 1270v92q0 42 31 72t74 30q42 0 72 -30t30 -72v-92q0 -41 -30.5 -72t-71.5 -31q-43 0 -74 31t-31 72zM205 86q0 -15 13 -28t30 -13q15 0 28 13t13 28 v915q0 15 -13 28t-28 13q-17 0 -30 -13t-13 -28v-915zM205 1266q0 -15 13 -27t30 -12q15 0 28 12t13 27v96q0 17 -12.5 29t-28.5 12q-17 0 -30 -12t-13 -29v-96z" />
<glyph unicode="j" horiz-adv-x="491" d="M-20 -211q0 43 29 74.5t71 32.5q29 0 48 2t24 4l4 2q6 10 6 53v1044q0 43 30.5 73t73.5 30q42 0 72.5 -30.5t30.5 -72.5v-1044q0 -268 -273 -268h-14q-41 0 -71.5 29.5t-30.5 70.5zM41 -211q2 -16 13 -27.5t28 -11.5h14q110 0 160.5 50t50.5 157v1042q0 17 -12 29t-29 12 t-29 -12t-12 -29v-1042q0 -74 -26 -100q-25 -25 -115 -25q-18 0 -30.5 -12.5t-12.5 -30.5zM162 1270v92q0 43 30.5 72.5t73.5 29.5q42 0 72.5 -30t30.5 -72v-92q0 -41 -31 -72t-72 -31q-42 0 -73 30.5t-31 72.5zM223 1266q0 -15 13 -27t30 -12q15 0 28 12t13 27v96 q0 17 -12.5 29t-28.5 12q-17 0 -30 -12t-13 -29v-96z" />
<glyph unicode="k" horiz-adv-x="1097" d="M143 86v1292q0 43 31 74t74 31q41 0 71.5 -31t30.5 -74v-727l471 436q32 29 72 29q44 0 73 -30.5t29 -73.5q0 -48 -32 -76l-287 -264l362 -527q19 -28 19 -59q0 -48 -33 -76t-72 -28q-56 0 -86 47l-342 499l-174 -159v-283q0 -43 -30.5 -73.5t-71.5 -30.5q-43 0 -74 30.5 t-31 73.5zM205 88q0 -18 11.5 -29.5t29.5 -11.5t29.5 11.5t11.5 29.5v307l245 230l386 -562q11 -16 34 -16q14 0 27.5 10t13.5 31q0 12 -8 23l-391 569l326 303q12 12 12 31q0 15 -10.5 28t-30.5 13q-14 0 -27 -13l-577 -534v870q0 17 -12 29t-29 12t-29 -12t-12 -29v-1290z " />
<glyph unicode="l" horiz-adv-x="493" d="M143 86v1292q0 43 31 74t72 31q43 0 73.5 -31t30.5 -74v-1292q0 -43 -30.5 -72.5t-73.5 -29.5q-42 0 -72.5 30t-30.5 72zM207 86q0 -17 12 -29t27 -12q17 0 30 12t13 29v1292q0 17 -13 30t-30 13q-15 0 -27 -13t-12 -30v-1292z" />
<glyph unicode="m" horiz-adv-x="1624" d="M143 86v915q0 43 31 73t74 30q59 0 90 -53q106 65 229 65q176 0 277 -123q117 123 297 123q160 0 258 -98q34 -36 56.5 -80.5t30.5 -86t10.5 -63.5t2.5 -40v-660q0 -43 -30.5 -73.5t-73.5 -30.5q-41 0 -72 31t-31 73v664q0 26 -10 62t-33 60q-35 35 -108 35 q-115 0 -170 -90q-24 -37 -34.5 -77.5t-10.5 -61.5v-592q0 -43 -31 -73.5t-74 -30.5t-72.5 30.5t-29.5 73.5v664q0 26 -10.5 62t-34.5 60q-32 35 -107 35q-114 0 -172 -90q-24 -37 -34.5 -77.5t-10.5 -61.5v-594q0 -41 -30.5 -71.5t-71.5 -30.5q-43 0 -74 30.5t-31 71.5z M205 86q0 -15 13 -28t30 -13q15 0 27 13t12 28v594q7 95 55 172q76 119 223 119q104 0 154 -53q61 -63 61 -168v-664q0 -17 12 -29t29 -12t29 12t12 29v594q0 30 13 78.5t43 93.5q73 119 223 119q100 0 153 -53q26 -28 41 -71t17 -63t2 -34v-664q0 -17 12 -29t29 -12t29 12 t12 29v664q0 139 -82 223q-77 80 -213 80q-202 0 -305 -187q-27 87 -96 137t-175 50q-177 0 -278 -158v106q0 15 -12 27t-27 12q-17 0 -30 -12t-13 -27v-915z" />
<glyph unicode="n" horiz-adv-x="1103" d="M143 86v915q0 43 31 73t74 30q32 0 58.5 -19t37.5 -47q108 78 262 78q180 0 277 -106q98 -102 98 -262v-660q0 -43 -30.5 -73.5t-73.5 -30.5t-73 30.5t-30 73.5v666q0 9 -1.5 23t-12.5 43t-29 48q-41 41 -125 41q-130 0 -200 -98q-47 -63 -56 -133v-592 q0 -41 -30.5 -71.5t-71.5 -30.5q-43 0 -74 30.5t-31 71.5zM207 88q0 -16 12 -28.5t29 -12.5t29 12.5t12 28.5v590q0 38 20 88.5t45 83.5q88 123 252 123q113 0 172 -62q26 -28 40.5 -70t16 -59.5t1.5 -29.5v-664q0 -17 12 -29t29 -12t29 12t12 29v662q0 135 -80 219 q-83 86 -232 86q-209 0 -317 -174v123q0 15 -12 27.5t-29 12.5t-29 -12.5t-12 -27.5v-916z" />
<glyph unicode="o" horiz-adv-x="1189" d="M82 543q0 253 144 413t370 160t369 -160t143 -413q0 -252 -143 -412t-369 -160t-370 160t-144 412zM145 543q0 -226 126 -368t325 -142t325 142t126 368q0 150 -57 267q-58 116 -160 180q-101 63 -230 63h-4q-199 0 -325 -141t-126 -369zM227 543q0 193 100.5 310.5 t268.5 117.5t268.5 -117.5t100.5 -310.5q0 -192 -100.5 -310t-268.5 -118t-268.5 118t-100.5 310zM289 543q0 -166 84 -265.5t223 -99.5t222 99.5t83 265.5q0 167 -83 266.5t-222 99.5q-140 0 -223.5 -99.5t-83.5 -266.5z" />
<glyph unicode="p" horiz-adv-x="1167" d="M143 -209v1210q0 43 31 73t74 30q35 0 63 -22t37 -56q113 90 273 90q105 0 194 -42.5t152 -123.5q116 -153 116 -405q0 -253 -120 -406q-133 -168 -351 -168q-153 0 -262 80v-260q0 -41 -30.5 -71.5t-71.5 -30.5q-43 0 -74 30.5t-31 71.5zM205 -209q0 -16 12 -28.5 t29 -12.5t29 12.5t12 28.5v428q35 -63 80 -102q101 -84 245 -84q188 0 301 143q109 136 109 367q0 230 -107 368q-111 142 -294 142q-149 0 -254 -97q-43 -37 -80 -104v147q0 17 -12 29t-29 12t-29 -12t-12 -29v-1208zM289 523v20q0 76 18 145.5t32.5 98t20.5 34.5 q88 150 261 150q149 0 231 -111q88 -114 88 -317q0 -201 -92 -316q-86 -112 -236 -112q-87 0 -147 32t-109 105l-1 2q-62 102 -66 269zM350 543q0 -34 3 -65.5t8 -56t10 -44.5t12 -36t11.5 -25.5t10 -18.5t5.5 -10q38 -59 84.5 -84t117.5 -25q120 0 187 88q78 96 78 277 q0 180 -74 280q-68 86 -182 86q-138 0 -207 -118l-5 -9q-5 -9 -10 -19t-12.5 -26.5t-13.5 -36.5t-11.5 -43.5t-8.5 -53t-3 -60.5z" />
<glyph unicode="q" horiz-adv-x="1167" d="M84 545q0 252 119 405q63 81 152 123.5t194 42.5q157 0 270 -90q9 34 37.5 56t63.5 22q43 0 73.5 -30t30.5 -73v-1210q0 -41 -30.5 -71.5t-73.5 -30.5q-41 0 -72 30.5t-31 71.5v260q-109 -80 -260 -80q-220 0 -350 168q-123 157 -123 406zM145 543q0 -231 109 -367 q113 -143 301 -143q145 0 246 84q45 42 80 102v-428q0 -16 12 -28.5t29 -12.5t29 12.5t12 28.5v1208q0 17 -12 29t-29 12t-29 -12t-12 -29v-147q-31 60 -78 104q-108 97 -254 97q-186 0 -297 -142q-107 -138 -107 -368zM227 543q0 203 88 317q82 111 234 111q169 0 258 -150 q6 -6 21 -34.5t33 -98t18 -145.5q0 -169 -68 -291q-49 -73 -109 -105t-147 -32q-150 0 -236 112q-92 115 -92 316zM291 545q0 -178 78 -279q73 -88 188 -88q70 0 116.5 25t84.5 84q0 1 5.5 10.5t10 18.5t11 25.5t12 36t10.5 44.5t7.5 56.5t2.5 66.5q0 144 -61 246 q-71 118 -207 118q-117 0 -182 -86q-76 -98 -76 -278z" />
<glyph unicode="r" horiz-adv-x="729" d="M143 86v915q0 43 31 73t74 30q32 0 58 -18t38 -48q15 12 37 23q98 55 225 55q43 0 73 -30.5t30 -73.5q0 -42 -30.5 -72.5t-72.5 -30.5q-130 0 -203 -98q-27 -36 -40 -76t-13 -59v-590q0 -41 -30.5 -71.5t-71.5 -30.5q-43 0 -74 30.5t-31 71.5zM205 86q0 -16 12 -28.5 t29 -12.5t29 12.5t12 28.5v590q0 28 16 77t49 95q88 123 252 123q17 0 29 12t12 29t-12 29t-29 12q-170 0 -282 -125q-19 -22 -35 -49v122q0 16 -12 28.5t-29 12.5t-29 -12.5t-12 -28.5v-915z" />
<glyph unicode="s" horiz-adv-x="1054" d="M80 332q0 42 31 73t75 31q37 0 66 -25.5t35 -66.5q24 -166 258 -166q20 0 39.5 2t46.5 7t49.5 15.5t42.5 26t31.5 40.5t11.5 57q0 26 -2.5 37.5t-11.5 25.5t-34.5 23t-65 19.5t-109.5 25.5l-54 12h-1h-1l-1 1h-1q-159 37 -225 71q-142 73 -147 232v13q0 148 111 239 t292 91q87 0 157 -20.5t113.5 -51t75.5 -73t46.5 -77.5t23.5 -73q4 -16 4 -22q0 -42 -29.5 -73.5t-72.5 -31.5q-37 0 -66.5 22.5t-36.5 57.5q-15 63 -60 99t-155 36q-25 0 -51 -3.5t-63 -14.5t-60 -38t-23 -67q0 -30 11 -44.5t56.5 -31t150.5 -40.5l51 -11q159 -35 222 -64 q132 -61 157 -194q6 -35 6 -75q0 -158 -118 -256.5t-310 -98.5q-227 0 -365 135q-47 47 -73.5 117t-26.5 109zM143 328q15 -114 93 -187q109 -106 309 -106q160 0 262 77t102 214q0 59 -19 102t-38 67.5t-75.5 46.5t-83 29t-108.5 24q-4 1 -6.5 1.5t-5.5 1.5l-51 12 q-43 9 -63 14t-52.5 13.5t-47 14.5t-36 16.5t-30.5 21t-19.5 25t-14 32t-3.5 39.5q0 63 39.5 107t96.5 62t124 18q231 0 275 -185q5 -15 17.5 -24t27.5 -6q15 0 25.5 12t10.5 27q0 2 -1 6.5t-1 7.5q-29 114 -118.5 179t-235.5 65q-148 0 -245 -72t-97 -197q0 -65 21 -108.5 t78 -72.5t93 -40t127 -32q7 -2 11 -3l51 -12q61 -13 96 -21.5t70 -20t52 -23.5t31 -30.5t18.5 -41t4.5 -55.5q0 -54 -23.5 -95.5t-64 -65.5t-89.5 -36t-105 -12q-138 0 -220.5 56.5t-99.5 162.5q-3 17 -15.5 27t-27.5 10q-17 -2 -28.5 -15t-10.5 -30z" />
<glyph unicode="t" horiz-adv-x="681" d="M41 985q0 43 30.5 72.5t73.5 29.5h41v193q0 43 31 73.5t74 30.5t72.5 -30.5t29.5 -73.5v-193h125q43 0 73 -29.5t30 -72.5t-30 -73.5t-73 -30.5h-125v-666q0 -9 1 -16t2 -11l1 -4q19 -6 47 -6t45 6q12 3 24 3q29 -1 55 -17q36 -22 46 -64q3 -13 3 -25q0 -27 -15 -52 q-22 -36 -63 -47q-43 -11 -97 -11q-119 0 -184 62q-72 66 -72 182v666h-41q-43 0 -73.5 30.5t-30.5 73.5zM102 983q0 -17 12 -29t29 -12h107v-727q0 -89 49 -135q50 -47 143 -47q38 0 80 10q18 5 26.5 18.5t4.5 30.5t-18 25.5t-31 5.5q-23 -7 -53 -7q-10 0 -21 1 q-52 0 -75 23.5t-23 74.5v729h186q18 0 29.5 11.5t11.5 29.5q0 17 -12 29t-29 12h-186v254q0 17 -12 29t-29 12t-29 -12t-12 -29v-256h-107q-18 0 -29.5 -11.5t-11.5 -29.5z" />
<glyph unicode="u" horiz-adv-x="1093" d="M125 354v647q0 43 30.5 73t71.5 30q43 0 74 -30t31 -73v-657q0 -47 24 -92q41 -74 152 -74q122 0 186 101q23 38 35 80.5t12 62.5v579q0 43 31 73t74 30q42 0 72 -30t30 -73v-915q0 -41 -30.5 -71.5t-71.5 -30.5q-31 0 -56.5 16.5t-37.5 42.5q-109 -72 -248 -72 q-174 0 -276.5 110.5t-102.5 272.5zM186 352q0 -61 19.5 -117t57.5 -101.5t101 -73t142 -27.5q197 0 297 170v-117q0 -16 12 -28.5t29 -12.5t29 12.5t12 28.5v915q0 17 -12 29t-29 12t-29 -12t-12 -29v-579q0 -28 -13 -78.5t-42 -97.5q-82 -129 -240 -129q-149 0 -207 108 q-33 61 -33 119v655q0 18 -11.5 29.5t-29.5 11.5t-29.5 -11.5t-11.5 -29.5v-647z" />
<glyph unicode="v" horiz-adv-x="1064" d="M63 1001q0 41 30.5 73t74.5 32q33 0 59.5 -19t36.5 -51l264 -745l271 745q12 32 38.5 50t57.5 18q46 0 75 -31t29 -74q0 -17 -6 -32l-323 -897q-11 -31 -38 -50.5t-61 -19.5h-86q-32 0 -58.5 19.5t-37.5 50.5l-319 897q-7 21 -7 34zM127 1001q0 -2 1 -6.5t1 -7.5 l317 -897q5 -12 16 -20.5t23 -8.5h86q28 0 39 29l324 897q2 4 2 12q0 19 -12 30t-27 11q-30 0 -39 -26l-315 -873h-27l-309 873q-9 28 -39 28q-18 0 -29.5 -13t-11.5 -28z" />
<glyph unicode="w" horiz-adv-x="1527" d="M70 1001q0 41 29.5 72t72.5 31q34 0 62 -20.5t38 -53.5l203 -688l191 672q9 32 36.5 52.5t61.5 20.5q35 0 63 -20.5t37 -54.5l178 -666l218 686q10 33 37.5 53.5t60.5 20.5q44 0 74 -32t30 -73q0 -15 -6 -30l-282 -897q-11 -33 -38.5 -53.5t-60.5 -20.5h-74q-35 0 -63 22 t-37 56l-139 518l-146 -520q-11 -34 -38 -55t-62 -21h-78q-34 0 -61.5 21t-36.5 53l-266 899q-4 10 -4 28zM131 1001q0 -8 2 -12l266 -897q10 -29 39 -29h78q14 0 25 8t14 21l209 737l197 -737q3 -12 14 -20.5t26 -8.5h74q29 0 39 29l283 897q2 4 2 12q0 16 -11.5 28.5 t-29.5 12.5q-14 0 -25 -8t-14 -20l-272 -867h-17l-225 848q-9 27 -41 31q-14 0 -25 -9t-14 -22l-238 -852h-18l-258 869q-3 13 -14 21.5t-25 8.5q-16 0 -28.5 -11.5t-12.5 -29.5z" />
<glyph unicode="x" horiz-adv-x="1126" d="M88 88q0 30 21 62l319 428l-281 360q-22 28 -22 63q0 45 31 74t73 29q53 0 82 -39l246 -317l246 317q29 39 80 39q42 0 73 -29t31 -74q0 -35 -22 -63l-277 -358l332 -428q20 -26 20 -64q0 -45 -30 -74.5t-72 -29.5q-54 0 -82 41l-297 383l-285 -381q-30 -43 -81 -43 q-42 0 -73.5 29.5t-31.5 74.5zM150 86q0 -17 11.5 -29t28.5 -12q23 0 35 18l332 447l348 -449q13 -16 31 -16q16 0 29.5 11.5t13.5 29.5q0 14 -10 27l-361 467l307 395q9 12 9 24q0 20 -12 30.5t-29 10.5q-22 0 -33 -14l-295 -381l-295 381q-11 14 -33 14q-18 0 -29.5 -11.5 t-11.5 -29.5q0 -9 11 -24l309 -397l-348 -467q-8 -11 -8 -25z" />
<glyph unicode="y" horiz-adv-x="1091" d="M66 999q0 42 28.5 73.5t73.5 31.5q30 0 56 -16.5t38 -45.5l307 -682l254 676q12 32 38.5 50t58.5 18q46 0 75 -31t29 -72q0 -18 -6 -36l-383 -1018q-55 -145 -133 -203q-74 -55 -193 -55q-50 0 -86 8q-36 7 -59 36.5t-23 65.5q0 43 32 73t73 30q13 0 27.5 -3t35.5 -3 q49 0 70 14q27 22 63 110l23 66l-391 872q-8 16 -8 41zM127 1001q0 -8 4 -16l404 -897l-35 -90q-36 -102 -84 -137q-36 -29 -107 -29q-12 0 -22 1t-20 2.5t-17 2.5q-18 2 -31.5 -9.5t-13.5 -29.5q0 -34 33 -41q31 -8 71 -8q94 0 148 37q68 48 121 182l380 1018q3 6 3 14 q0 16 -11.5 28.5t-29.5 12.5q-26 0 -39 -26l-306 -819l-368 821q-14 24 -39 24q-14 0 -27.5 -11t-13.5 -30z" />
<glyph unicode="z" horiz-adv-x="1032" d="M86 104v52q0 35 23 65l532 660h-416q-41 0 -71.5 30.5t-30.5 73.5q0 42 30 72t72 30h602q43 0 74 -30t31 -72v-37q0 -33 -23 -63l-547 -678h482q43 0 73.5 -30t30.5 -73t-30.5 -73.5t-73.5 -30.5h-654q-43 0 -73.5 30.5t-30.5 73.5zM150 104q0 -19 10.5 -30t29.5 -11h654 q18 0 29.5 11.5t11.5 29.5q0 17 -12 29t-29 12h-604v9l620 770q8 8 8 24v37q0 17 -12 29t-29 12l-602 -2q-18 0 -29.5 -11.5t-11.5 -29.5q0 -17 12 -29t29 -12h545v-4l-612 -758q-8 -8 -8 -24v-52z" />
<glyph unicode="{" horiz-adv-x="780" d="M82 578q0 33 19 59.5t51 36.5q59 23 107 68t48 100q0 33 -22 82q-52 113 -52 202q0 113 70.5 201.5t179.5 130.5q15 6 33 6h39q43 0 72.5 -30.5t29.5 -73.5t-29.5 -73t-72.5 -30h-16q-99 -51 -99 -131q0 -45 31 -112q43 -82 43 -172q0 -64 -25 -123q-35 -86 -120 -156 q137 -137 137 -282q0 -74 -37 -144q-29 -63 -29 -104q0 -47 30.5 -82t68.5 -55h6q43 0 72.5 -30t29.5 -73t-29.5 -73.5t-72.5 -30.5h-29q-15 0 -47 13t-73 38t-81.5 72.5t-62.5 105.5q-21 65 -21 117q0 95 56 198q12 24 12 50q0 46 -51 106q-22 25 -50.5 49.5t-44 35.5 t-20.5 13q-51 28 -51 91zM145 578q0 -24 19 -37l8 -5q9 -6 22 -15.5t29 -22t35 -30.5t35 -36q69 -81 69 -153q-3 -41 -20 -76q-47 -84 -47 -172q0 -53 16 -92q23 -61 72.5 -107.5t85 -64t47.5 -17.5h29q17 0 29 12t12 29q0 18 -11.5 29.5t-29.5 11.5h-21q-66 32 -106.5 84 t-40.5 115q0 62 37 135q30 56 30 115q-1 85 -54 158.5t-128 129.5q131 77 170 172q19 46 19 99q0 74 -35 145q-39 76 -39 137q0 66 41 117.5t106 79.5h31q17 0 29 12t12 29t-12 29t-29 12h-39q-8 0 -14 -2q-86 -34 -145.5 -106.5t-59.5 -172.5q0 -80 43 -170q29 -59 29 -114 q0 -72 -58 -132t-139 -90q-27 -10 -27 -36z" />
<glyph unicode="|" horiz-adv-x="575" d="M184 -209v1761q0 43 31 73t74 30q41 0 71.5 -30.5t30.5 -72.5v-1761q0 -42 -30 -72t-72 -30q-43 0 -74 30t-31 72zM246 -209q0 -17 13 -29t30 -12q16 0 28.5 12t12.5 29v1761q0 17 -12.5 29t-28.5 12q-17 0 -30 -12t-13 -29v-1761z" />
<glyph unicode="}" horiz-adv-x="780" d="M123 1360q0 43 29.5 73.5t72.5 30.5h39q18 0 33 -6q109 -42 179.5 -130.5t70.5 -201.5q0 -91 -51 -202q-23 -51 -23 -82q0 -55 48.5 -100t107.5 -68q32 -10 50.5 -36.5t18.5 -59.5q0 -63 -51 -91q-5 -2 -20.5 -13t-44 -35.5t-50.5 -49.5q-51 -60 -51 -106q0 -24 13 -50 q55 -101 55 -198q0 -52 -21 -117q-22 -58 -62.5 -105.5t-81.5 -72.5t-73 -38t-47 -13h-28q-43 0 -73 30.5t-30 73.5t30 73t73 30h6q37 20 67.5 55t30.5 82q0 41 -29 104q-37 70 -37 144q0 144 138 282q-87 71 -121 156q-25 59 -25 123q0 90 43 172q31 67 31 112 q0 80 -98 131h-17q-43 0 -72.5 30t-29.5 73zM184 1360q0 -17 12 -29t29 -12h31q64 -28 104.5 -79.5t40.5 -117.5t-36 -137q-35 -71 -35 -145q0 -56 18 -99q38 -93 168 -172q-178 -136 -180 -288q0 -58 31 -115q36 -71 36 -135q0 -63 -40.5 -115t-106.5 -84h-20 q-18 0 -29.5 -11.5t-11.5 -29.5q0 -17 12 -29t29 -12h28q5 0 21 6.5t41.5 21.5t51.5 36t51.5 54t39.5 71q16 46 16 92q0 83 -47 172q-17 35 -20 76q0 75 69 153q24 29 56 56t51 40l20 13q21 12 21 37q0 26 -27 36q-81 30 -138.5 90t-57.5 132q0 55 26 114q45 95 45 170 q0 100 -60 172.5t-147 106.5q-4 2 -12 2h-39q-17 0 -29 -12t-12 -29z" />
<glyph unicode="~" horiz-adv-x="1454" d="M102 641q0 40 27 70q3 4 15.5 16.5t38 35.5t53.5 44q135 102 258 102q55 0 100.5 -8.5t84 -27t59.5 -31.5t55 -37q32 -23 49 -33.5t47.5 -19.5t68.5 -9q34 0 90 32t115 91q39 45 86 45q42 0 72.5 -30t30.5 -74q0 -45 -41 -86q-184 -184 -353 -184q-67 0 -126.5 17.5 t-88 34.5t-71.5 48q-34 24 -52 34.5t-51.5 20.5t-74.5 10q-47 0 -108.5 -43t-102.5 -86q-30 -34 -78 -34q-39 0 -71 30.5t-32 71.5zM166 641q0 -17 12.5 -29t26.5 -12q17 0 31 14q150 150 258 150q50 0 91.5 -12t64.5 -25t59 -39q38 -28 64 -43.5t76.5 -30t108.5 -14.5 q142 0 316 174q14 14 14 31t-12 29t-31 12q-17 0 -31 -17q-147 -147 -256 -147q-46 0 -84.5 11t-61 24.5t-56.5 38.5q-41 29 -67.5 44t-79.5 30.5t-115 15.5q-103 0 -222 -88q-38 -30 -96 -88q-10 -10 -10 -29z" />
<glyph unicode="&#xa1;" horiz-adv-x="460" d="M92 958v46q0 47 33.5 79.5t81.5 32.5h45q48 0 81.5 -32.5t33.5 -79.5v-46q0 -47 -33.5 -79.5t-81.5 -32.5h-45q-48 0 -81.5 32.5t-33.5 79.5zM123 -285v961q0 43 29.5 72.5t72.5 29.5t73 -29.5t30 -72.5v-961q0 -43 -30 -73.5t-73 -30.5t-72.5 30.5t-29.5 73.5zM154 958 q0 -22 15 -36.5t38 -14.5h45q22 0 37.5 14.5t15.5 36.5v46q0 22 -15 36.5t-38 14.5h-45q-23 0 -38 -14.5t-15 -36.5v-46zM184 -285q0 -17 12 -30t29 -13t29 13t12 30v961q0 16 -12 28.5t-29 12.5t-29 -12.5t-12 -28.5v-961z" />
<glyph unicode="&#xa2;" horiz-adv-x="1206" d="M123 735q0 220 104.5 369.5t282.5 191.5v84q0 43 30.5 73t73.5 30q42 0 72.5 -30.5t30.5 -72.5v-77q135 -20 229 -103t129 -213q4 -16 4 -24q0 -42 -31 -73.5t-73 -31.5q-34 0 -63 21.5t-38 56.5q-43 166 -243 166q-141 0 -221 -97.5t-80 -269.5q0 -170 79.5 -267 t219.5 -97q217 0 252 200q7 41 42 65.5t78 18.5q38 -7 61 -35.5t23 -68.5q0 -44 -28 -114t-72 -124q-100 -118 -268 -143v-84q0 -42 -30.5 -72t-72.5 -30q-43 0 -73.5 29.5t-30.5 72.5v90q-178 40 -282.5 189.5t-104.5 369.5zM184 735q0 -210 103 -348t284 -158v-149 q0 -15 13 -28t30 -13q15 0 27 13t12 28v147q177 8 279 121q41 48 63.5 105t26.5 100q0 18 -11 28.5t-24 12.5q-38 3 -45 -35q-23 -124 -104 -188t-209 -64q-171 0 -267 117.5t-96 310.5q0 191 97 309.5t266 118.5q122 0 200.5 -54t104.5 -157q3 -15 14 -23.5t25 -8.5 q17 0 29 12t14 29l-2 10q-34 129 -129 198.5t-232 75.5v121q0 17 -12 29t-27 12q-17 0 -30 -12t-13 -29v-123q-181 -20 -284 -160t-103 -348z" />
<glyph unicode="&#xa3;" horiz-adv-x="1116" d="M102 102q0 48 35 78q60 60 105 144q67 125 67 260q0 35 -2 51h-100q-43 0 -74 30t-31 72q0 43 31 74t74 31h67q-16 131 -16 211q0 209 92 321q94 117 279 117q161 0 256 -131q29 -40 47 -86.5t18 -71.5q0 -44 -31 -75t-73 -31q-34 0 -61.5 21t-36.5 54q-10 42 -33 72 q-35 41 -86 41q-85 0 -121 -41q-43 -51 -43 -192q0 -96 18 -209h185q43 0 73.5 -31t30.5 -74t-30.5 -72.5t-73.5 -29.5h-152v-51q0 -165 -74 -322q40 4 62 4q71 0 164 -39q62 -20 73 -20q35 0 86 69q30 41 82 41q41 0 73 -31t32 -73q0 -33 -23 -63q-120 -150 -250 -150 q-57 0 -147 35q-66 24 -90 24q-65 0 -140 -18t-120 -35q-18 -6 -37 -6q-48 0 -76.5 30t-28.5 72zM166 102q0 -16 10.5 -28.5t30.5 -12.5q10 0 14 2q155 58 283 58q35 0 112 -29q2 -1 23 -8.5t27.5 -9t22.5 -6t28.5 -6t25.5 -1.5q99 0 199 125q8 11 8 27t-12 28.5t-29 12.5 q-19 0 -32 -16q-68 -92 -136 -95q-23 0 -92 25q-94 35 -145 35q-71 0 -189 -29q104 148 129 309q19 108 -2 213h226q17 0 29 12t12 29t-12 29t-29 12h-238q-29 164 -29 289q6 152 60 217q54 64 168 64q85 0 139 -70q29 -40 39 -88q5 -15 17.5 -23.5t25.5 -5.5q15 0 26 12 t11 27q0 16 -14 54t-37 69q-75 107 -207 107q-153 0 -232 -95q-72 -87 -78 -268q0 -114 27 -289h-139q-17 0 -29 -12t-12 -29t12 -29t29 -12h153l5 -28q32 -189 -70 -379q-24 -43 -51.5 -80.5t-42.5 -53t-23 -22.5q-12 -12 -12 -31z" />
<glyph unicode="&#xa4;" horiz-adv-x="1179" d="M72 248q0 34 24 61l140 140q-76 113 -76 253q0 141 76 254l-140 140q-24 27 -24 61q0 33 26.5 59.5t59.5 26.5q39 0 63 -24l146 -148q96 55 219 55q122 0 225 -57l147 150q27 24 64 24q34 0 60 -26t26 -60q0 -35 -25 -63l-147 -146q72 -109 72 -246q0 -136 -72 -245 l145 -148q27 -24 27 -61q0 -35 -25.5 -61.5t-60.5 -26.5q-33 0 -64 24l-149 154q-97 -57 -223 -57q-118 0 -219 53l-148 -150q-27 -24 -61 -24q-35 0 -60.5 26.5t-25.5 61.5zM123 250q0 -12 9.5 -23.5t25.5 -11.5q11 0 24 10l176 176q98 -67 228 -67q136 0 229 72l182 -181 q10 -10 25 -10q12 0 23.5 9.5t11.5 25.5q0 12 -10 22l-181 183q88 97 88 250q0 152 -88 249l181 181q10 10 10 24q0 13 -10.5 23t-24.5 10q-15 0 -25 -10l-180 -181q-95 74 -231 74q-134 0 -228 -69l-176 176q-7 10 -24 10q-13 0 -24 -10t-11 -23q0 -14 10 -24l174 -174 q-94 -102 -94 -256q0 -159 94 -256l-174 -177q-10 -10 -10 -22zM283 705q0 134 82.5 217.5t220.5 83.5q134 0 216.5 -81t82.5 -220q0 -135 -80 -218.5t-219 -83.5q-137 0 -220 81.5t-83 220.5zM334 702q0 -116 67 -181.5t185 -65.5q117 0 182.5 67.5t65.5 179.5 q0 114 -67.5 182t-180.5 68q-117 0 -184.5 -66.5t-67.5 -183.5z" />
<glyph unicode="&#xa5;" horiz-adv-x="1275" d="M41 1380q0 44 32 73.5t72 29.5q50 0 82 -43l412 -570l410 570q32 43 84 43q40 0 71 -28.5t31 -72.5q0 -40 -18 -63l-474 -657h263q32 0 53.5 -22.5t21.5 -53.5q0 -33 -21.5 -55.5t-53.5 -22.5h-265v-107h265q32 0 53.5 -22t21.5 -53q0 -33 -21.5 -55.5t-53.5 -22.5h-265 v-162q0 -43 -30.5 -72.5t-73.5 -29.5q-42 0 -72 30t-30 72v162h-263q-32 0 -54.5 23t-22.5 55q0 31 22.5 53t54.5 22h263v107h-263q-32 0 -54.5 23t-22.5 55q0 31 22.5 53.5t54.5 22.5h260l-471 657q-20 26 -20 61zM102 1380q0 -15 9 -24l485 -674v-64h-326q-14 0 -24 -10 t-10 -24t10.5 -24.5t23.5 -10.5h326v-189h-326q-14 0 -24 -10t-10 -24t10.5 -24.5t23.5 -10.5h326v-205q0 -17 12 -28t29 -11t29 11t12 28v205h328q13 0 23.5 10.5t10.5 24.5t-10 24t-24 10h-328v189h328q13 0 23.5 10.5t10.5 24.5t-10 24t-24 10h-328v64l485 674q8 11 8 24 q0 17 -12 28t-29 11q-19 0 -32 -16l-461 -639l-461 639q-12 18 -33 18q-17 0 -29 -12t-12 -29z" />
<glyph unicode="&#xa6;" horiz-adv-x="575" d="M184 -209v619q0 42 31 72t74 30q42 0 72 -30t30 -72v-619q0 -42 -30 -72t-72 -30q-43 0 -74 30t-31 72zM184 934v618q0 43 31 73t74 30q41 0 71.5 -30.5t30.5 -72.5v-618q0 -42 -30.5 -72.5t-71.5 -30.5q-43 0 -74 30t-31 73zM246 -209q0 -17 13 -29t30 -12q16 0 28.5 12 t12.5 29v619q0 15 -13 28t-28 13q-17 0 -30 -13t-13 -28v-619zM246 934q0 -15 13 -27t30 -12q15 0 28 12t13 27v618q0 17 -12.5 29t-28.5 12q-17 0 -30 -12t-13 -29v-618z" />
<glyph unicode="&#xa7;" horiz-adv-x="1216" d="M184 588q0 108 40.5 192t101.5 127q-66 81 -66 215q0 164 101 266.5t264 102.5q159 0 264 -102q29 -32 29 -72q0 -43 -30 -74t-73 -31t-74 31q-41 41 -116 41t-116.5 -42t-41.5 -120q0 -67 27 -94q33 -24 143 -51q174 -38 284.5 -140.5t110.5 -244.5q0 -205 -139 -320 q63 -78 63 -215q0 -164 -100.5 -266t-263.5 -102q-159 0 -264 102q-29 32 -29 72q0 43 29.5 73.5t72.5 30.5q44 0 74 -30q44 -41 117 -41q75 0 116.5 41.5t41.5 119.5q0 68 -27 95q-33 24 -143 51q-172 38 -284 141t-112 244zM246 588q0 -68 32.5 -125t86.5 -96t110.5 -64.5 t118.5 -40.5q126 -30 166 -63q51 -37 51 -142q0 -104 -59 -164t-162 -59q-100 0 -160 60q-13 10 -29 10q-17 0 -29 -12t-12 -29t13 -27q81 -84 217 -84q137 -1 220 82.5t83 222.5q0 88 -30 141t-91 85q93 31 145 110.5t52 198.5q0 56 -22 104.5t-56 82.5t-82 61.5t-92 44.5 t-94 30q-127 30 -168 64q-52 45 -52 143q0 103 60.5 163.5t161.5 60.5q99 0 159 -60q12 -12 31 -12q13 0 26 12t13 29q0 18 -10 28q-84 84 -219 84q-137 0 -220 -83.5t-83 -221.5q0 -89 30 -141t92 -84q-90 -28 -144 -110t-54 -199zM328 588q0 117 62.5 185.5t182.5 68.5 q56 -11 109 -31.5t100.5 -50.5t76 -74t28.5 -94q0 -115 -61.5 -184.5t-174.5 -69.5q-18 0 -53.5 8.5t-82.5 28t-88 47t-70 71.5t-29 95zM391 588q0 -45 35 -83.5t82 -60t86.5 -33.5t56.5 -12q83 0 128.5 52t45.5 141q0 42 -29 78t-74 57.5t-84 34.5t-73 18q-86 0 -130 -50 t-44 -142z" />
<glyph unicode="&#xa8;" horiz-adv-x="948" d="M205 1507v92q0 43 30.5 73t73.5 30q42 0 72.5 -30.5t30.5 -72.5v-92q0 -41 -31 -71.5t-72 -30.5q-43 0 -73.5 30.5t-30.5 71.5zM266 1507q0 -15 13 -27t30 -12q15 0 28 12t13 27v92q0 15 -13 28t-28 13q-17 0 -30 -13t-13 -28v-92zM537 1507v92q0 43 30.5 73t73.5 30 q41 0 71.5 -30t30.5 -73v-92q0 -41 -30.5 -71.5t-71.5 -30.5q-43 0 -73.5 30.5t-30.5 71.5zM598 1507q0 -15 13 -27t30 -12q15 0 28 12t13 27v92q0 15 -13 28t-28 13q-17 0 -30 -13t-13 -28v-92z" />
<glyph unicode="&#xa9;" horiz-adv-x="1724" d="M102 731q0 155 60.5 295.5t162.5 242.5t242.5 162t294.5 60q155 0 295.5 -60t242.5 -162t162 -242.5t60 -295.5q0 -154 -60 -294.5t-162 -242.5t-242.5 -162.5t-295.5 -60.5q-154 0 -294.5 60.5t-242.5 162.5t-162.5 242.5t-60.5 294.5zM147 731q0 -145 57 -277t153 -228 t228 -153t277 -57t277.5 57t228.5 153t152.5 228t56.5 277q0 146 -56.5 278t-152.5 228t-228 152.5t-278 56.5q-145 0 -277 -56.5t-228 -152.5t-153 -228.5t-57 -277.5zM209 731q0 133 52 254t139.5 209t208 140t253.5 52q177 0 328 -88t239.5 -239t88.5 -328t-88.5 -327.5 t-239.5 -238t-328 -87.5q-133 0 -253.5 52t-208 139.5t-139.5 208t-52 253.5zM254 731q0 -165 81.5 -305t221.5 -221.5t305 -81.5t306 81.5t223 221.5t82 305t-82 305.5t-223 222.5t-306 82t-305 -82t-221.5 -222.5t-81.5 -305.5zM471 729q0 198 109 320t284 122 q131 0 222 -65t122 -182q4 -12 4 -19q0 -33 -24.5 -57.5t-57.5 -24.5q-26 0 -48 17t-29 45q-35 127 -189 127q-109 0 -171 -75.5t-62 -207.5t62 -207.5t169 -75.5q170 0 197 156q4 32 31 51.5t61 14.5q30 -6 48 -28.5t18 -53.5q0 -34 -21.5 -88.5t-56.5 -96.5 q-99 -114 -277 -114q-174 0 -282.5 121.5t-108.5 320.5zM520 729q0 -175 92 -285t250 -110q151 0 236 96q32 36 49.5 80.5t19.5 77.5q0 25 -26 30q-13 1 -23 -6.5t-12 -19.5q-19 -96 -82 -145.5t-162 -49.5q-133 0 -206.5 90.5t-73.5 241.5q0 148 75.5 240t206.5 92 q192 0 236 -166q1 -10 10 -16.5t20 -6.5q12 0 21.5 9t9.5 22v8q-29 104 -107.5 158.5t-189.5 54.5q-160 0 -252 -110.5t-92 -284.5z" />
<glyph unicode="&#xaa;" horiz-adv-x="835" d="M72 936q0 103 63 162q74 68 248 86q108 12 152 30q0 31 -2.5 43.5t-12.5 22.5q-31 31 -112 31q-101 0 -138 -47q-5 -7 -9 -16t-5 -14l-2 -5q-2 -31 -26 -52t-56 -20q-31 3 -52 27.5t-18 54.5q0 8 3 23.5t15 43.5t30 52q84 106 258 106q134 0 207 -63.5t73 -167.5v-363 q18 0 33 -6q12 -6 22 -16q21 -25 21 -53q0 -32 -23 -55t-55 -23q-47 0 -86 24q-18 13 -39 41q-94 -73 -227 -73q-118 0 -190 61t-72 166zM113 936q0 -85 60.5 -134.5t160.5 -49.5q81 0 146 33.5t104 78.5q0 -50 26 -76t76 -26q14 0 24.5 10t10.5 25q0 20 -23 28 q-19 0 -34 15q-5 4 -8.5 10.5t-5.5 11t-3.5 10.5t-1.5 7v356q0 85 -60.5 136.5t-176.5 51.5q-154 0 -226 -90q-33 -43 -39 -94q-1 -15 8 -26t23 -13q14 0 25.5 10t11.5 23q5 30 25 59q50 62 172 62q101 0 143 -45q17 -19 20.5 -38t3.5 -77q-48 -36 -188 -51 q-162 -18 -223 -76q-51 -46 -51 -131zM182 936q0 55 27 82q46 43 184 57q117 11 182 41v-145q-28 -59 -90.5 -104.5t-150.5 -45.5q-71 0 -111.5 29.5t-40.5 85.5zM225 936q0 -74 109 -74q71 0 123.5 35t77.5 82v76q-48 -13 -136 -23q-120 -14 -159 -47q-15 -12 -15 -49z" />
<glyph unicode="&#xab;" horiz-adv-x="1130" d="M123 582q0 50 37 77l239 205q28 25 66 25q45 0 74.5 -30.5t29.5 -72.5q0 -49 -37 -79l-147 -125l147 -125q37 -30 37 -80q0 -42 -29.5 -72.5t-74.5 -30.5q-38 0 -66 25l-239 203q-37 30 -37 80zM184 582q0 -21 17 -31l239 -205q10 -10 25 -10q18 0 30.5 12.5t12.5 30.5 t-16 31l-203 172l205 174q14 11 14 32q0 15 -11.5 28t-29.5 13q-14 0 -27 -10l-241 -207q-15 -15 -15 -30zM561 582q0 50 37 77l240 205q28 25 65 25q45 0 75 -30.5t30 -72.5q0 -49 -37 -79l-148 -125l148 -125q37 -30 37 -80q0 -42 -30 -72.5t-75 -30.5q-37 0 -65 25 l-240 203q-37 30 -37 80zM623 582q0 -21 16 -31l240 -205q10 -10 24 -10q18 0 30.5 12.5t12.5 30.5t-16 31l-203 172l205 174q14 11 14 32q0 15 -11.5 28t-29.5 13q-13 0 -26 -10l-242 -207q-14 -14 -14 -30z" />
<glyph unicode="&#xac;" horiz-adv-x="1308" d="M102 817q0 43 30 74t73 31h860q43 0 71.5 -31.5t28.5 -75.5v-397q0 -42 -30.5 -72.5t-71.5 -30.5q-43 0 -73 30t-29 73v297h-756q-43 0 -73 29.5t-30 72.5zM164 817q0 -17 12 -29t29 -12h817v-358q-2 -15 11 -28t30 -13q15 0 27 13t12 28v399q0 17 -11 29t-28 12l-858 2 q-17 0 -29 -13t-12 -30z" />
<glyph unicode="&#xad;" horiz-adv-x="901" d="M102 614q0 43 30 74t73 31h491q43 0 73 -31t30 -74t-30 -72.5t-73 -29.5h-491q-43 0 -73 29.5t-30 72.5zM164 614q0 -17 12 -28t29 -11h491q17 0 29 11t12 28t-12 30t-29 13h-491q-17 0 -29 -13t-12 -30z" />
<glyph unicode="&#xae;" horiz-adv-x="1228" d="M252 1112q0 158 113 270.5t270 112.5t269 -112.5t112 -270.5q0 -156 -112.5 -268.5t-268.5 -112.5q-157 0 -270 113t-113 268zM281 1112q0 -145 104 -248.5t250 -103.5t249 103.5t103 248.5q0 148 -103 251t-249 103q-147 0 -250.5 -103.5t-103.5 -250.5zM317 1112 q0 130 93.5 224t224.5 94q129 0 222 -94t93 -224q0 -129 -93 -222t-222 -93q-130 0 -224 93t-94 222zM346 1112q0 -120 84 -203.5t205 -83.5q120 0 203.5 83.5t83.5 203.5q0 121 -83.5 205t-203.5 84q-121 0 -205 -83.5t-84 -205.5zM473 956v328q0 19 16 35t35 16h144 q61 0 100 -37t39 -96q0 -52 -31 -86q19 -30 23 -86q3 -47 4 -49q6 -10 6 -25q0 -20 -16.5 -35.5t-34.5 -15.5q-10 0 -26.5 10.5t-20.5 22.5q-11 26 -15 82q0 38 -10 41q-15 7 -27 22.5t-12 34.5q0 15 13 34.5t28 23.5q13 4 15 7.5t2 18.5q0 31 -37 31h-93v-277 q0 -19 -16 -35t-35 -16t-35 16t-16 35zM502 956q0 -9 6.5 -15.5t15.5 -6.5t16 6.5t7 15.5v306h121q29 0 47 -17.5t18 -42.5q0 -12 -2 -21t-4 -14t-7 -8.5t-7 -4.5t-9 -3l-6 -2q-9 -3 -15.5 -13t-6.5 -18q0 -22 22 -31q6 -4 11 -8.5t8 -10t4.5 -9t2.5 -10t1 -9v-10v-8.5 q0 -49 10 -72q10 -16 23 -16q8 0 15 6.5t7 15.5t-4 15q-3 8 -6 57q-3 63 -33 90q41 30 41 84q0 46 -30 75.5t-80 29.5h-144q-9 0 -15.5 -7t-6.5 -16v-328z" />
<glyph unicode="&#xaf;" horiz-adv-x="1105" d="M205 1645q0 43 29.5 73.5t72.5 30.5h492q43 0 72.5 -30.5t29.5 -73.5t-29.5 -73t-72.5 -30h-492q-43 0 -72.5 30t-29.5 73zM266 1645q0 -18 11.5 -29.5t29.5 -11.5h492q17 0 28 12t11 29t-11 29t-28 12h-492q-18 0 -29.5 -11.5t-11.5 -29.5z" />
<glyph unicode="&#xb0;" horiz-adv-x="933" d="M102 1126q0 151 107 258t258 107t257.5 -107t106.5 -258t-106.5 -257.5t-257.5 -106.5t-258 106t-107 258zM145 1126q0 -133 95 -227t227 -94t226.5 94.5t94.5 226.5t-94.5 227t-226.5 95t-227 -95t-95 -227zM219 1128q0 103 73 175.5t177 72.5q103 0 175.5 -72.5 t72.5 -175.5q0 -104 -72.5 -176.5t-175.5 -72.5q-104 0 -177 72.5t-73 176.5zM262 1128q0 -86 60.5 -146t146.5 -60q85 0 145 60t60 146q0 85 -60 145t-145 60q-86 0 -146.5 -60t-60.5 -145z" />
<glyph unicode="&#xb1;" horiz-adv-x="1228" d="M84 104q0 43 29.5 73t72.5 30h711q43 0 72.5 -30t29.5 -73t-29.5 -73.5t-72.5 -30.5h-711q-43 0 -72.5 30.5t-29.5 73.5zM84 752q0 43 29.5 72.5t72.5 29.5h252v252q0 42 31 73t72 31q43 0 73.5 -30.5t30.5 -73.5v-252h252q43 0 72.5 -29.5t29.5 -72.5t-30 -74t-72 -31 h-252v-241q0 -43 -30.5 -73t-73.5 -30q-42 0 -72.5 30.5t-30.5 72.5v241h-252q-42 0 -72 31t-30 74zM145 104q0 -17 12 -30t29 -13h711q17 0 29 13t12 30t-12 29t-29 12h-711q-17 0 -29 -12t-12 -29zM145 750q0 -17 12 -29t29 -12h316v-303q0 -17 12 -29t29 -12t29 12t12 29 v303h313q17 0 29 12t12 29t-12 29t-29 12h-313v315q-2 17 -14 29t-29 12q-16 0 -28.5 -12t-12.5 -29v-315h-314q-17 0 -29 -12t-12 -29z" />
<glyph unicode="&#xb2;" horiz-adv-x="714" d="M92 788q0 66 29 127q68 134 231 195q60 23 88.5 51t28.5 64q0 78 -86 78q-51 0 -78 -27q-21 -18 -24 -70q-1 -33 -27 -57.5t-59 -24.5q-36 0 -62.5 25.5t-26.5 60.5q0 112 76 191q79 76 201 76q110 0 184 -68q76 -73 76 -180q0 -62 -25 -113q-55 -115 -204 -170 q-77 -29 -111 -69h244q35 0 61.5 -27t26.5 -62t-26.5 -60.5t-61.5 -25.5h-367q-35 0 -61.5 25.5t-26.5 60.5zM145 788q0 -13 10.5 -22.5t24.5 -9.5h367q15 0 25 10t10 25q0 14 -10 24t-25 10h-326q29 118 174 172q132 51 176 142q19 41 19 90q0 86 -58 141t-149 55 q-100 0 -164 -61q-56 -56 -59 -152q-1 -13 9 -23.5t24 -10.5t24 9.5t10 22.5q3 67 41 105q41 41 115 41q60 0 99.5 -34t39.5 -97q0 -12 -2.5 -25.5t-12.5 -32t-25.5 -35.5t-44 -35.5t-66.5 -33.5q-146 -56 -201 -168q-25 -51 -25 -107z" />
<glyph unicode="&#xb3;" horiz-adv-x="731" d="M72 938v10q0 34 25 59t59 25t60.5 -23.5t29.5 -56.5q3 -41 30 -65q39 -27 84 -27q105 0 105 80q0 29 -8.5 41.5t-34.5 19.5q-32 10 -53 38.5t-21 60.5q0 33 18.5 60.5t47.5 39.5q18 6 23 13.5t5 23.5q0 63 -82 63q-46 0 -68.5 -19t-25.5 -62q-3 -34 -29.5 -58t-60.5 -24 t-59 26t-25 60q0 109 84 186q72 66 184 66q113 0 183 -64q73 -70 73 -174q0 -76 -41 -127q64 -64 64 -170q0 -113 -80 -186q-81 -68 -199 -68q-112 0 -196 68q-83 70 -92 184zM125 942q6 -92 74 -147q62 -56 161 -56q102 0 162 54q64 58 64 147q0 118 -101 164q78 40 78 133 q0 84 -57 135q-55 49 -146 49q-92 0 -153 -55q-58 -55 -64 -141q0 -14 10 -24.5t23 -10.5q13 -1 24 8t13 23q4 64 42.5 97.5t104.5 33.5q64 0 100 -33t36 -82q0 -62 -62 -86q-15 -6 -24 -20.5t-9 -30.5q0 -36 35 -47q82 -26 82 -113q0 -66 -46 -99.5t-112 -33.5 q-60 0 -108 33q-53 38 -59 106q-1 15 -12 24t-25 9q-12 0 -21.5 -10t-9.5 -23v-4z" />
<glyph unicode="&#xb4;" horiz-adv-x="729" d="M207 1538q0 28 10 45l113 207q28 55 90 55q40 0 72 -30t32 -74q0 -25 -12 -49l-113 -207q-29 -53 -90 -53q-40 0 -71 30t-31 76zM268 1536q0 -18 13 -29.5t26 -11.5q27 0 37 21l115 206q4 12 4 19q0 20 -13 30.5t-28 10.5q-25 0 -37 -21l-113 -207q-4 -6 -4 -18z" />
<glyph unicode="&#xb6;" horiz-adv-x="1423" d="M102 977q0 204 123 336q145 151 404 151h508q43 0 72.5 -30.5t29.5 -73.5v-1567q0 -43 -29.5 -73.5t-72.5 -30.5t-74 30.5t-31 73.5v1464h-106v-1464q0 -43 -30 -73.5t-73 -30.5t-73.5 30.5t-30.5 73.5v686h-72q-256 0 -399 125q-146 131 -146 373zM164 977 q0 -213 125 -326q123 -108 358 -108h135v-750q0 -17 12 -30t29 -13t29 12t12 31v1528h232v-1528q0 -17 12 -30t29 -13t29 12t12 31v1567q0 19 -12 31t-29 12l-508 -2q-234 0 -359 -131q-106 -115 -106 -293z" />
<glyph unicode="&#xb7;" horiz-adv-x="495" d="M102 674v45q0 47 34 81t81 34h45q47 0 82 -34t35 -81v-45q0 -47 -34.5 -80t-82.5 -33h-45q-47 0 -81 33t-34 80zM166 674q0 -22 14 -35.5t37 -13.5h45q23 0 38 13.5t15 35.5v45q0 22 -15 36.5t-38 14.5h-45q-22 0 -36.5 -14.5t-14.5 -36.5v-45z" />
<glyph unicode="&#xb8;" horiz-adv-x="907" d="M207 -459q9 42 44.5 65.5t76.5 14.5q109 -19 155 17q15 12 15 28q0 25 -42.5 38t-99.5 13q-55 0 -86 45q-29 46 -10 97l107 262q15 39 54 55.5t79 1.5q40 -17 56 -56t1 -79l-55 -139q101 -29 150.5 -95t49.5 -143q0 -116 -90 -188q-86 -70 -217 -70q-50 0 -108 12 q-41 7 -65 43.5t-15 77.5zM268 -473q-3 -15 6.5 -29.5t24.5 -15.5q53 -12 96 -12q112 0 178 57q68 52 68 139q0 79 -61.5 128t-165.5 61l86 213q6 15 -1 31t-22 22t-31 -1t-22 -22l-107 -264q-6 -18 5 -37q12 -18 34 -18q88 0 145.5 -28t57.5 -85q0 -48 -37 -78 q-69 -53 -207 -28q-17 3 -30.5 -6.5t-16.5 -26.5z" />
<glyph unicode="&#xb9;" horiz-adv-x="516" d="M92 1270q0 32 23 57.5t57 28.5q39 3 53 10q7 5 13 37q4 30 29.5 51t56.5 21h14q34 0 60 -27t26 -62v-604q0 -35 -26 -61.5t-60 -26.5q-35 0 -61.5 26.5t-26.5 61.5v410q-42 -10 -72 -10q-35 0 -60.5 26.5t-25.5 61.5zM143 1268q2 -14 12.5 -24t24.5 -9q82 5 123 49v-502 q0 -13 10.5 -23.5t24.5 -10.5t24.5 10.5t10.5 23.5v604q0 15 -10.5 25t-24.5 10h-14q-12 0 -21.5 -7.5t-11.5 -18.5q-9 -53 -35 -70q-21 -16 -80 -22q-14 -2 -23.5 -12t-9.5 -23z" />
<glyph unicode="&#xba;" horiz-adv-x="823" d="M72 1087q0 166 95 271.5t245 105.5t245 -105.5t95 -271.5q0 -167 -94.5 -272.5t-245.5 -105.5t-245.5 105.5t-94.5 272.5zM115 1087q0 -149 83 -242t216 -93q136 0 216.5 95t80.5 240t-82 239.5t-215 94.5q-134 0 -216.5 -94.5t-82.5 -239.5zM184 1087q0 122 64 195 q63 72 166 72q101 0 164 -72t63 -195q0 -121 -63 -196q-66 -72 -164 -72q-100 0 -166 72q-64 76 -64 196zM225 1087q0 -107 54 -167q52 -58 133 -58t133 58q53 59 53 167q0 107 -53 166q-49 58 -133 58t-133 -58q-54 -60 -54 -166z" />
<glyph unicode="&#xbb;" horiz-adv-x="1130" d="M123 377q0 50 37 80l147 125l-147 125q-37 30 -37 79q0 42 29.5 72.5t74.5 30.5q38 0 66 -25l239 -205q37 -27 37 -77t-37 -80l-239 -203q-28 -25 -66 -25q-45 0 -74.5 30.5t-29.5 72.5zM184 379q0 -18 12.5 -30.5t30.5 -12.5q15 0 25 10l240 205q16 10 16 31 q0 16 -14 30l-242 207q-13 10 -27 10q-18 0 -29.5 -13t-11.5 -28q0 -20 15 -32l204 -174l-202 -172q-17 -14 -17 -31zM561 377q0 50 37 80l147 125l-147 125q-37 30 -37 79q0 42 30 72.5t75 30.5q37 0 65 -25l240 -205q37 -27 37 -77t-37 -80l-240 -203q-28 -25 -65 -25 q-45 0 -75 30.5t-30 72.5zM623 379q0 -18 12.5 -30.5t30.5 -12.5q14 0 24 10l240 205q16 10 16 31q0 16 -14 30l-242 207q-13 10 -26 10q-18 0 -29.5 -13t-11.5 -28q0 -21 14 -32l205 -174l-203 -172q-16 -13 -16 -31z" />
<glyph unicode="&#xbc;" horiz-adv-x="1531" d="M92 1270q0 32 23 57.5t57 28.5q39 3 53 10q7 5 13 37q4 30 29.5 51t56.5 21h14q34 0 60 -27t26 -62v-604q0 -35 -26 -61.5t-60 -26.5q-35 0 -61.5 26.5t-26.5 61.5v410q-42 -10 -72 -10q-35 0 -60.5 26.5t-25.5 61.5zM143 1268q2 -14 12.5 -24t24.5 -9q82 5 123 49v-502 q0 -13 10.5 -23.5t24.5 -10.5t24.5 10.5t10.5 23.5v604q0 15 -10.5 25t-24.5 10h-14q-12 0 -21.5 -7.5t-11.5 -18.5q-9 -53 -35 -70q-21 -16 -80 -22q-14 -2 -23.5 -12t-9.5 -23zM231 78q0 26 17 49l915 1343q26 37 72 37q33 0 59.5 -26t26.5 -62q0 -27 -14 -49l-918 -1343 q-26 -37 -72 -37q-33 0 -59.5 26t-26.5 62zM285 78q0 -15 9 -25t23 -10q21 0 29 14l918 1344q4 12 4 18q0 14 -11 24.5t-22 10.5q-21 0 -29 -14l-915 -1344q-6 -9 -6 -18zM856 227v33q0 25 16 49l291 406q27 39 72 39h22q35 0 62 -26t27 -60v-353h10q34 0 60 -26.5t26 -61.5 t-26 -60.5t-60 -25.5h-10v-80q0 -36 -26.5 -62t-62.5 -26q-34 0 -60 26t-26 62v80h-227q-35 0 -61.5 25.5t-26.5 60.5zM909 227q0 -13 10.5 -23.5t24.5 -10.5h281v-132q0 -15 9 -24.5t23 -9.5q15 0 25 9.5t10 24.5v132h64q13 0 23 10t10 24t-10 24.5t-23 10.5h-64v406 q0 14 -10 23t-25 9h-22q-18 0 -29 -14l-291 -405q-6 -9 -6 -21v-33zM991 262v4l234 326v-330h-234zM1081 311h95v127z" />
<glyph unicode="&#xbd;" horiz-adv-x="1617" d="M92 1270q0 32 23 57.5t57 28.5q39 3 53 10q7 5 13 37q4 30 29.5 51t56.5 21h14q34 0 60 -27t26 -62v-604q0 -35 -26 -61.5t-60 -26.5q-35 0 -61.5 26.5t-26.5 61.5v410q-42 -10 -72 -10q-35 0 -60.5 26.5t-25.5 61.5zM143 1268q2 -14 12.5 -24t24.5 -9q82 5 123 49v-502 q0 -13 10.5 -23.5t24.5 -10.5t24.5 10.5t10.5 23.5v604q0 15 -10.5 25t-24.5 10h-14q-12 0 -21.5 -7.5t-11.5 -18.5q-9 -53 -35 -70q-21 -16 -80 -22q-14 -2 -23.5 -12t-9.5 -23zM252 78q0 28 16 49l916 1343q26 37 71 37q33 0 59.5 -26t26.5 -62q0 -27 -14 -49l-917 -1343 q-26 -37 -72 -37q-33 0 -59.5 26t-26.5 62zM305 78q0 -15 9.5 -25t23.5 -10q21 0 29 14l917 1344q4 12 4 18q0 14 -11 24.5t-22 10.5q-20 0 -28 -14l-916 -1344q-6 -9 -6 -18zM975 76q0 66 29 127q68 133 231 194q60 23 88.5 51t28.5 64q0 78 -86 78q-51 0 -78 -27 q-22 -19 -25 -69q-1 -33 -27 -57.5t-59 -24.5q-35 0 -61.5 25.5t-26.5 60.5q0 111 76 190q79 76 201 76q110 0 184 -68q76 -73 76 -180q0 -62 -25 -113q-55 -115 -205 -170q-75 -29 -110 -69h244q35 0 61.5 -26.5t26.5 -61.5t-26.5 -60.5t-61.5 -25.5h-367q-35 0 -61.5 25.5 t-26.5 60.5zM1028 76q0 -13 10.5 -23t24.5 -10h367q15 0 24.5 10t9.5 25q0 14 -9.5 24.5t-24.5 10.5h-326q29 118 174 172q133 52 176 141q19 41 19 90q0 86 -58 141q-59 56 -149 56q-99 0 -164 -62q-57 -57 -60 -151q-1 -13 9 -24t24 -11t24.5 10t10.5 23q3 66 41 104 q41 41 115 41q60 0 99.5 -34t39.5 -97q0 -23 -9 -47t-45.5 -58t-97.5 -57q-145 -55 -200 -168q-25 -51 -25 -106z" />
<glyph unicode="&#xbe;" horiz-adv-x="1607" d="M72 938v10q0 34 25 59t59 25t60.5 -23.5t29.5 -56.5q3 -41 30 -65q34 -27 84 -27q105 0 105 80q0 29 -8.5 41.5t-36.5 19.5q-31 11 -51.5 39t-20.5 60q0 33 18.5 60.5t47.5 39.5q17 6 22.5 13.5t5.5 23.5q0 63 -82 63q-46 0 -68.5 -19t-25.5 -62q-3 -34 -29.5 -58 t-60.5 -24t-59 26t-25 60q0 107 82 186q72 66 186 66q111 0 181 -64q75 -69 75 -174q0 -70 -41 -127q64 -67 64 -170q0 -114 -82 -186q-81 -68 -197 -68q-115 0 -196 68q-83 70 -92 184zM125 942q6 -92 74 -147q62 -56 161 -56q102 0 162 54q64 58 64 147q0 118 -101 164 q78 40 78 133q0 84 -57 135q-55 49 -146 49q-92 0 -153 -55q-58 -55 -64 -141q0 -14 10 -24.5t23 -10.5q13 -1 24 8t13 23q4 64 42.5 97.5t104.5 33.5q64 0 100 -33t36 -82q0 -62 -62 -86q-15 -6 -24 -20.5t-9 -30.5q0 -36 35 -47q82 -26 82 -113q0 -66 -46 -99.5 t-112 -33.5q-60 0 -108 33q-53 38 -59 106q-1 15 -12 24t-25 9q-12 0 -21.5 -10t-9.5 -23v-4zM336 78q0 28 16 49l916 1343q26 37 71 37q33 0 59.5 -26t26.5 -62q0 -27 -14 -49l-917 -1343q-26 -37 -72 -37q-33 0 -59.5 26t-26.5 62zM389 78q0 -15 9.5 -25t23.5 -10 q21 0 29 14l917 1344q4 12 4 18q0 14 -11 24.5t-22 10.5q-20 0 -28 -14l-916 -1344q-6 -9 -6 -18zM952 225v33q0 28 15 51l290 406q26 37 74 37h23q35 0 61.5 -25.5t26.5 -60.5v-353h10q34 0 60 -26t26 -62q0 -34 -26 -60t-60 -26h-10v-80q0 -35 -26.5 -61.5t-61.5 -26.5 t-60.5 26.5t-25.5 61.5v80h-228q-36 0 -62 26t-26 60zM1006 227q0 -14 9.5 -24t24.5 -10h279v-134q0 -13 10.5 -22.5t24.5 -9.5t24.5 9.5t10.5 22.5v134h61q14 0 24.5 10.5t10.5 23.5t-10.5 24t-24.5 11h-61v404q0 15 -10.5 24.5t-24.5 9.5h-23q-20 0 -28 -14l-291 -405 q-6 -9 -6 -21v-33zM1085 262v4l234 326v-330h-234zM1178 311h92v127z" />
<glyph unicode="&#xbf;" horiz-adv-x="1179" d="M123 18q0 61 14 115t32 90t51 74.5t54.5 58t59.5 50.5l6 6q93 75 119.5 121.5t29.5 144.5q2 41 32 70.5t73 29.5q44 0 74 -32.5t28 -73.5q-2 -81 -17 -142t-47.5 -110.5t-66 -83.5t-92.5 -82l-6 -6q-41 -34 -59.5 -51.5t-40 -46t-29.5 -59.5t-8 -73q0 -94 63.5 -147 t173.5 -53q65 0 116 17.5t80.5 43.5t49.5 62t28 66.5t11 62.5q3 43 35.5 70t75.5 24q39 -4 65 -31.5t29 -66.5v-15q-6 -66 -26 -127.5t-59 -119t-94 -100t-135 -68t-176 -25.5q-196 0 -320 113.5t-124 293.5zM186 18q0 -157 108 -251.5t273 -94.5q189 0 298.5 104t129.5 269 v16q-2 15 -13 27t-26 12q-17 1 -29 -9.5t-14 -27.5q-13 -140 -100.5 -224.5t-245.5 -84.5q-133 0 -216 72t-83 192q0 42 9 77.5t20.5 59.5t37 52.5t42 43.5t51.5 44l6 6q57 47 88 78.5t59 75t40 95.5t14 124q0 16 -11.5 28.5t-29.5 12.5q-17 0 -28 -11t-13 -28 q-2 -80 -20 -131.5t-50 -87.5t-102 -95l-6 -4q-45 -38 -69.5 -62t-57 -67t-47.5 -95t-15 -116zM459 963v45q0 47 34 79.5t82 32.5h46q47 0 80.5 -32.5t33.5 -79.5v-45q0 -47 -33.5 -80t-80.5 -33h-46q-48 0 -82 33t-34 80zM522 963q0 -22 15 -37t38 -15h46q22 0 36.5 15 t14.5 37v45q0 22 -14.5 36.5t-36.5 14.5h-46q-23 0 -38 -14.5t-15 -36.5v-45z" />
<glyph unicode="&#xc0;" horiz-adv-x="1388" d="M61 84q0 16 7 37l481 1276q15 48 63 61q-10 10 -20 27l-113 207q-12 21 -12 47q0 45 32.5 74.5t71.5 29.5q64 0 91 -53l112 -207q12 -21 12 -47q0 -44 -30 -74q57 -7 80 -63l483 -1278q8 -19 8 -43q-1 -40 -34.5 -67t-71.5 -27q-31 0 -57 17t-38 46l-139 369h-588 l-139 -369q-11 -32 -37.5 -47.5t-58.5 -15.5q-43 0 -73 26.5t-30 73.5zM123 86q0 -17 12.5 -28t28.5 -11q30 0 39 25l153 409h674l156 -409q11 -25 37 -25q14 0 27.5 10.5t13.5 28.5q0 8 -2 16l-486 1274q-10 27 -37 27h-94q-12 0 -23 -7.5t-14 -19.5l-481 -1274 q-4 -12 -4 -16zM387 561l287 762h37l288 -762h-612zM477 621h432l-219 573zM528 1741q0 -7 4 -19l115 -206q11 -21 37 -21q13 0 26 11.5t13 29.5q0 12 -4 18l-113 207q-12 21 -37 21q-15 0 -28 -10.5t-13 -30.5z" />
<glyph unicode="&#xc1;" horiz-adv-x="1388" d="M61 84q0 16 7 37l481 1276q9 26 30 43t48 22q-31 31 -31 76q0 24 12 45l113 207q28 55 90 55q39 0 71.5 -30t32.5 -74q0 -25 -12 -49l-112 -207q-9 -15 -21 -27q47 -13 66 -59l483 -1278q8 -19 8 -43q-1 -40 -34.5 -67t-71.5 -27q-31 0 -57 17t-38 46l-139 369h-588 l-139 -369q-11 -32 -37.5 -47.5t-58.5 -15.5q-43 0 -73 26.5t-30 73.5zM123 86q0 -17 12.5 -28t28.5 -11q30 0 39 25l153 409h674l156 -409q11 -25 37 -25q14 0 27.5 10.5t13.5 28.5q0 8 -2 16l-486 1274q-10 27 -37 27h-94q-12 0 -23 -7.5t-14 -19.5l-481 -1274 q-4 -12 -4 -16zM387 561l287 762h37l288 -762h-612zM477 621h432l-219 573zM659 1536q0 -18 13 -29.5t26 -11.5q26 0 37 21l115 206q4 12 4 19q0 20 -13 30.5t-28 10.5q-25 0 -37 -21l-112 -207q-5 -8 -5 -18z" />
<glyph unicode="&#xc2;" horiz-adv-x="1388" d="M61 84q0 16 7 37l481 1276q10 30 36.5 48.5t59.5 18.5h94q31 0 58 -18t39 -47l483 -1278q8 -19 8 -43q-1 -40 -34.5 -67t-71.5 -27q-31 0 -57 17t-38 46l-139 369h-588l-139 -369q-11 -32 -37.5 -47.5t-58.5 -15.5q-43 0 -73 26.5t-30 73.5zM123 86q0 -17 12.5 -28 t28.5 -11q30 0 39 25l153 409h674l156 -409q11 -25 37 -25q14 0 27.5 10.5t13.5 28.5q0 8 -2 16l-486 1274q-10 27 -37 27h-94q-12 0 -23 -7.5t-14 -19.5l-481 -1274q-4 -12 -4 -16zM387 561l287 762h37l288 -762h-612zM422 1585q0 45 31 76l170 162q28 28 71 28 q42 0 70 -28l170 -162q31 -31 31 -76q0 -44 -31 -73t-72 -29q-43 0 -71 28l-99 95l-96 -95q-28 -28 -72 -28q-45 0 -73.5 31.5t-28.5 70.5zM477 621h432l-219 573zM483 1587q0 -18 12.5 -29.5t28.5 -11.5t29 13l139 135l139 -135q13 -13 31 -13q17 0 28 12t11 29 q0 19 -12 31l-168 162q-13 10 -29 10q-15 0 -28 -10l-168 -162q-13 -13 -13 -31z" />
<glyph unicode="&#xc3;" horiz-adv-x="1388" d="M61 84q0 16 7 37l481 1276q10 30 36.5 48.5t59.5 18.5h94q31 0 58 -18t39 -47l483 -1278q8 -19 8 -43q-1 -40 -34.5 -67t-71.5 -27q-31 0 -57 17t-38 46l-139 369h-588l-139 -369q-11 -32 -37.5 -47.5t-58.5 -15.5q-43 0 -73 26.5t-30 73.5zM123 86q0 -17 12.5 -28 t28.5 -11q30 0 39 25l153 409h674l156 -409q11 -25 37 -25q14 0 27.5 10.5t13.5 28.5q0 8 -2 16l-486 1274q-10 27 -37 27h-94q-12 0 -23 -7.5t-14 -19.5l-481 -1274q-4 -12 -4 -16zM342 1585q0 15 2 23q19 89 85 143.5t153 54.5q95 0 161 -63q2 -2 16.5 -19t26 -26.5 t19.5 -9.5q14 0 24 11t13 25q7 35 36 58.5t64 23.5q44 0 74.5 -31t30.5 -71q0 -11 -3 -23q-20 -88 -86.5 -143t-152.5 -55q-107 0 -180 82q-1 1 -5.5 7.5t-9 12.5t-12.5 11.5t-16 5.5q-14 0 -23.5 -11.5t-13.5 -25.5q-7 -36 -36.5 -59t-66.5 -23q-42 0 -71 30.5t-29 71.5z M387 561l287 762h37l288 -762h-612zM403 1585q0 -16 12 -28.5t29 -12.5q13 0 24.5 9.5t14.5 23.5q9 37 36.5 61.5t62.5 24.5q47 0 84 -47q55 -72 139 -72q63 0 113 41.5t65 106.5q2 4 2 12q-3 39 -41 39q-14 0 -26 -9t-15 -22q-8 -37 -35 -61.5t-63 -24.5q-47 0 -86 51 q-54 68 -137 68q-62 0 -110.5 -39.5t-65.5 -103.5q0 -1 -1.5 -8t-1.5 -9zM477 621h432l-219 573z" />
<glyph unicode="&#xc4;" horiz-adv-x="1388" d="M61 84q0 16 7 37l481 1276l6 12q-20 -4 -29 -4q-43 0 -73.5 30.5t-30.5 71.5v92q0 43 30.5 73t73.5 30q42 0 72.5 -30.5t30.5 -72.5v-92q0 -24 -13 -47q20 4 29 4h94q11 0 27 -4q-12 21 -12 47v92q0 43 30.5 73t73.5 30q42 0 72.5 -30.5t30.5 -72.5v-92q0 -41 -31 -71.5 t-72 -30.5q-11 0 -27 4l5 -10l483 -1278q8 -19 8 -43q-1 -40 -34.5 -67t-71.5 -27q-31 0 -57 17t-38 46l-139 369h-588l-139 -369q-11 -32 -37.5 -47.5t-58.5 -15.5q-43 0 -73 26.5t-30 73.5zM125 86q0 -17 11.5 -28t27.5 -11q30 0 39 25l153 409h674l156 -409 q11 -25 37 -25q14 0 27.5 10.5t13.5 28.5q0 8 -2 16l-486 1274q-10 27 -37 27h-94q-12 0 -23 -7.5t-14 -19.5l-481 -1274q-2 -6 -2 -16zM387 561l287 762h37l288 -762h-612zM477 621h432l-219 573zM483 1507q0 -15 13 -28t30 -13q15 0 27 13t12 28v92q0 15 -12 27t-27 12 q-17 0 -30 -12t-13 -27v-92zM815 1507q0 -15 13 -28t30 -13q15 0 27 13t12 28v92q0 15 -12 27t-27 12q-17 0 -30 -12t-13 -27v-92z" />
<glyph unicode="&#xc5;" horiz-adv-x="1388" d="M61 84q0 16 7 37l477 1265l8 19q-42 31 -66 79t-24 103q0 95 68 162.5t163 67.5q97 0 164.5 -67.5t67.5 -162.5q0 -114 -92 -186l6 -15l479 -1265q8 -19 8 -43q-1 -40 -34.5 -67t-71.5 -27q-31 0 -57 17t-38 46l-139 369h-588l-139 -369q-11 -32 -37.5 -47.5t-58.5 -15.5 q-43 0 -73 26.5t-30 73.5zM125 86q0 -17 11.5 -28t27.5 -11q30 0 39 25l153 409h674l156 -409q11 -25 37 -25q14 0 27.5 10.5t13.5 28.5q0 10 -2 16l-486 1274q-10 27 -37 27h-28q71 6 119.5 59t48.5 125q0 75 -54.5 130t-130.5 55t-130 -55t-54 -130q0 -72 48.5 -125 t119.5 -59h-33q-12 0 -23 -7.5t-14 -19.5l-481 -1274q-2 -6 -2 -16zM387 561l287 762h37l288 -762h-612zM477 621h432l-219 573zM567 1587q0 53 37.5 90t91.5 37q52 0 89.5 -37t37.5 -90t-37.5 -90t-89.5 -37q-54 0 -91.5 37t-37.5 90zM612 1587q0 -35 23.5 -58.5 t58.5 -23.5t58.5 23.5t23.5 58.5t-23.5 58.5t-58.5 23.5t-58.5 -23.5t-23.5 -58.5z" />
<glyph unicode="&#xc6;" horiz-adv-x="2097" d="M61 88q0 18 7 35l481 1276q10 29 37 47t59 18h1247q42 0 72.5 -30t30.5 -72q0 -43 -30 -74t-73 -31h-731v-378h666q43 0 73.5 -31t30.5 -74t-30.5 -72.5t-73.5 -29.5h-666v-465h752q42 0 72 -31t30 -74t-29.5 -72.5t-72.5 -29.5h-854q-43 0 -73 29.5t-30 72.5v316h-557 l-139 -367q-10 -30 -36.5 -48.5t-59.5 -18.5q-41 0 -72 28t-31 76zM123 86q0 -16 11 -28.5t30 -12.5q12 0 23 7.5t14 19.5l155 407h664v-375q0 -17 11 -29t28 -12h854q17 0 29 12t12 29t-12 29t-29 12h-813v588h727q17 0 30 12t13 29t-13 29t-30 12h-727v506h792q17 0 29 12 t12 29t-12 29t-29 12h-1247q-29 0 -39 -27l-481 -1276q-2 -4 -2 -14zM387 561l287 760h346v-760h-633zM477 625h479v635h-239z" />
<glyph unicode="&#xc7;" horiz-adv-x="1458" d="M102 729q0 219 79 390.5t233 271.5t360 100q214 0 365.5 -107.5t203.5 -304.5q5 -20 5 -26q0 -41 -30 -72t-73 -31q-36 0 -64.5 21.5t-37.5 56.5q-32 128 -128 192t-241 64q-148 0 -254 -71.5t-158.5 -195.5t-52.5 -288q0 -161 52 -284.5t157.5 -195t251.5 -71.5 q174 0 276 92.5t123 255.5q4 39 34 65.5t69 26.5q41 0 70.5 -29.5t31.5 -70.5v-16q-27 -219 -162 -360t-354 -167l-31 -79q102 -29 151.5 -95t49.5 -143q0 -116 -90 -188q-86 -70 -217 -70q-50 0 -109 12q-41 7 -65 43.5t-15 77.5q9 42 44.5 65.5t76.5 14.5q111 -19 156 16 q14 11 14 29q0 25 -42.5 38t-98.5 13q-55 0 -86 45q-28 46 -10 96l53 134q-114 21 -210.5 79t-170 150t-115 224.5t-41.5 291.5zM162 731q0 -299 154 -489t413 -205l-86 -213q-6 -17 4 -37q12 -18 35 -18q88 0 145.5 -28t57.5 -85q0 -48 -37 -78q-69 -57 -207 -29 q-18 3 -31 -5.5t-16 -26.5q-3 -15 6.5 -28.5t24.5 -18.5q48 -11 96 -11q110 0 178 56q68 55 68 141q0 80 -62 127.5t-166 60.5l78 193q211 15 340 143t154 330v8q0 14 -11 26.5t-30 12.5q-15 0 -27.5 -11t-13.5 -26q-22 -185 -142 -293t-319 -108q-165 0 -285 81.5 t-179.5 218.5t-59.5 312q0 180 60.5 319t182 219.5t287.5 80.5q163 0 276.5 -78t151.5 -225q10 -33 41 -33q18 0 29.5 12.5t11.5 28.5l-2 14q-50 176 -184.5 269.5t-323.5 93.5t-329 -91.5t-211.5 -249t-71.5 -360.5z" />
<glyph unicode="&#xc8;" horiz-adv-x="1325" d="M184 102v1260q0 42 30 72t73 30h358q-7 7 -14 21l-113 207q-12 21 -12 47q0 45 32 74.5t72 29.5q63 0 90 -53l113 -207q10 -18 10 -47q0 -44 -28 -72h325q42 0 72.5 -30t30.5 -72q0 -43 -30 -74t-73 -31h-731v-378h666q43 0 73.5 -31t30.5 -74t-30.5 -72.5t-73.5 -29.5 h-666v-465h752q42 0 72 -31t30 -74t-29.5 -72.5t-72.5 -29.5h-854q-43 0 -73 29.5t-30 72.5zM246 104q0 -17 12 -29t29 -12h852q17 0 29 12t12 29t-12 29t-29 12h-813v588h729q17 0 29 12t12 29t-12 29t-29 12h-729v506h792q17 0 29 12t12 29t-12 29t-29 12h-831 q-17 0 -29 -12t-12 -29v-1258zM567 1741q0 -7 4 -19l115 -206q10 -21 35 -21q14 0 27.5 11t13.5 30q0 12 -4 18l-113 207q-12 21 -37 21q-15 0 -28 -10.5t-13 -30.5z" />
<glyph unicode="&#xc9;" horiz-adv-x="1325" d="M184 102v1260q0 42 30 72t73 30h338q-29 29 -29 74q0 28 10 45l113 207q28 55 90 55q40 0 72 -30t32 -74q0 -25 -12 -49l-113 -207q-7 -14 -14 -21h346q42 0 72.5 -30t30.5 -72q0 -43 -30 -74t-73 -31h-731v-378h666q43 0 73.5 -31t30.5 -74t-30.5 -72.5t-73.5 -29.5 h-666v-465h752q42 0 72 -31t30 -74t-29.5 -72.5t-72.5 -29.5h-854q-43 0 -73 29.5t-30 72.5zM246 104q0 -17 12 -29t29 -12h852q17 0 29 12t12 29t-12 29t-29 12h-813v588h729q17 0 29 12t12 29t-12 30t-29 13h-729v504h792q17 0 29 12t12 29t-12 29t-29 12h-831 q-17 0 -29 -12t-12 -29v-1258zM657 1536q0 -18 13 -29.5t26 -11.5q26 0 37 21l115 206q4 12 4 19q0 20 -13 30.5t-28 10.5q-25 0 -37 -21l-112 -207q-5 -8 -5 -18z" />
<glyph unicode="&#xca;" horiz-adv-x="1325" d="M184 102v1260q0 42 30 72t73 30h833q42 0 72.5 -30t30.5 -72q0 -43 -30 -74t-73 -31h-731v-378h666q43 0 73.5 -31t30.5 -74t-30.5 -72.5t-73.5 -29.5h-666v-465h752q42 0 72 -31t30 -74t-29.5 -72.5t-72.5 -29.5h-854q-43 0 -73 29.5t-30 72.5zM246 104q0 -17 12 -29 t29 -12h852q17 0 29 12t12 29t-12 29t-29 12h-811v588h727q17 0 29 12t12 29t-12 29t-29 12h-727v506h790q17 0 29 12t12 29t-12 29t-29 12h-831q-17 0 -29 -12t-12 -29v-1258zM442 1647q0 44 31 75l170 162q29 29 72 29q40 0 69 -29l170 -162q31 -31 31 -75t-30.5 -73.5 t-71.5 -29.5q-43 0 -72 29l-98 94l-97 -94q-29 -29 -71 -29q-45 0 -74 32t-29 71zM504 1649q0 -18 12.5 -29.5t28.5 -11.5t28 12l140 135l139 -135q12 -12 31 -12q17 0 28 12t11 29t-13 30l-168 162q-13 10 -28 10q-16 0 -29 -10l-168 -162q-12 -12 -12 -30z" />
<glyph unicode="&#xcb;" horiz-adv-x="1325" d="M184 102v1260q0 42 30 72t73 30h162q-13 23 -13 49v93q0 42 31 72t74 30q42 0 72 -30t30 -72v-93q0 -28 -12 -49h149q-12 21 -12 49v93q0 43 30.5 72.5t73.5 29.5q42 0 72.5 -30t30.5 -72v-93q0 -28 -12 -49h157q42 0 72.5 -30t30.5 -72q0 -43 -30 -74t-73 -31h-731v-378 h666q43 0 73.5 -31t30.5 -74t-30.5 -72.5t-73.5 -29.5h-666v-465h752q42 0 72 -31t30 -74t-29.5 -72.5t-72.5 -29.5h-854q-43 0 -73 29.5t-30 72.5zM246 104q0 -17 12 -29t29 -12h852q17 0 29 12t12 29t-12 29t-29 12h-811v588h727q17 0 29 12t12 29t-12 29t-29 12h-727v506 h790q17 0 29 12t12 29t-12 29t-29 12h-831q-17 0 -29 -12t-12 -29v-1258zM500 1513q0 -15 12 -27.5t29 -12.5q15 0 28 12.5t13 27.5v91q0 17 -12.5 29t-28.5 12q-17 0 -29 -12t-12 -29v-91zM831 1513q0 -15 12 -27.5t29 -12.5q15 0 28 12.5t13 27.5v91q0 17 -12.5 29 t-28.5 12q-17 0 -29 -12t-12 -29v-91z" />
<glyph unicode="&#xcc;" horiz-adv-x="575" d="M61 1741q0 44 33 74t72 30q62 0 90 -55l113 -207q12 -21 12 -45q0 -43 -33 -76q43 -29 43 -84v-1292q0 -43 -30.5 -72.5t-73.5 -29.5q-42 0 -72.5 30t-30.5 72v1292q0 43 31 74q-13 8 -29 33l-112 207q-13 26 -13 49zM123 1741q0 -7 4 -19l115 -206q10 -21 37 -21 q13 0 25.5 11.5t12.5 29.5q0 12 -4 18l-112 207q-12 21 -37 21q-15 0 -28 -10.5t-13 -30.5zM246 86q0 -17 12.5 -29t28.5 -12q17 0 29 12t12 29v1292q0 17 -12 29t-29 12q-16 0 -28.5 -12t-12.5 -29v-1292z" />
<glyph unicode="&#xcd;" horiz-adv-x="575" d="M184 86v1292q0 51 39 82q-30 30 -30 78q0 28 10 45l112 207q13 26 38 40.5t53 14.5q40 0 72 -30t32 -74q0 -25 -12 -49l-113 -207q-8 -16 -27 -31q33 -30 33 -76v-1292q0 -43 -30.5 -72.5t-73.5 -29.5q-42 0 -72.5 30t-30.5 72zM248 86q0 -17 12 -29t27 -12q17 0 29 12 t12 29v1292q0 17 -12 30t-29 13q-15 0 -27 -13t-12 -30v-1292zM254 1536q0 -19 13.5 -30t27.5 -11q25 0 35 21l114 206q5 15 5 19q0 20 -13 30.5t-28 10.5q-25 0 -37 -21l-113 -207q-4 -6 -4 -18z" />
<glyph unicode="&#xce;" horiz-adv-x="575" d="M20 1585q0 45 31 76l170 162q28 28 72 28q41 0 69 -28l170 -162q31 -31 31 -76q0 -44 -30.5 -73t-71.5 -29q-44 0 -72 28l-98 95l-96 -95q-28 -28 -72 -28q-45 0 -74 31.5t-29 70.5zM82 1587q0 -18 12.5 -29.5t28.5 -11.5t29 13l139 135l139 -135q13 -13 31 -13 q17 0 28 12t11 29q0 18 -13 31l-168 162q-13 10 -28 10q-16 0 -29 -10l-168 -162q-12 -12 -12 -31zM184 86v1292q0 43 31 74t72 31q43 0 73.5 -31t30.5 -74v-1292q0 -43 -30.5 -72.5t-73.5 -29.5q-42 0 -72.5 30t-30.5 72zM248 86q0 -17 12 -29t27 -12q17 0 30 12t13 29 v1292q0 17 -13 30t-30 13q-15 0 -27 -13t-12 -30v-1292z" />
<glyph unicode="&#xcf;" horiz-adv-x="575" d="M18 1585v92q0 43 31 73t74 30q41 0 71.5 -30t30.5 -73v-92q0 -41 -30.5 -71.5t-71.5 -30.5q-43 0 -74 30.5t-31 71.5zM80 1585q0 -15 13 -27t30 -12q15 0 28 12t13 27v92q0 15 -13 28t-28 13q-17 0 -30 -13t-13 -28v-92zM184 86v1292q0 43 31 74t72 31q43 0 73.5 -31 t30.5 -74v-1292q0 -43 -30.5 -72.5t-73.5 -29.5q-42 0 -72.5 30t-30.5 72zM248 86q0 -17 12 -29t27 -12q17 0 30 12t13 29v1292q0 17 -13 30t-30 13q-15 0 -27 -13t-12 -30v-1292zM350 1585v92q0 43 31 73t74 30q41 0 71.5 -30t30.5 -73v-92q0 -41 -30.5 -71.5t-71.5 -30.5 q-43 0 -74 30.5t-31 71.5zM412 1585q0 -15 13 -27t30 -12q15 0 28 12t13 27v92q0 15 -13 28t-28 13q-17 0 -30 -13t-13 -28v-92z" />
<glyph unicode="&#xd0;" horiz-adv-x="1464" d="M61 817q0 43 30 74t73 31h20v440q0 42 30 72t73 30h438q303 0 470 -193t167 -544q0 -347 -170 -537t-481 -190h-424q-43 0 -73 29.5t-30 72.5v613h-20q-43 0 -73 29.5t-30 72.5zM123 817q0 -17 12 -29t29 -12h84v-674q0 -17 11 -28t28 -11h424q149 0 262.5 48.5t184 138 t105.5 209.5t35 268q0 206 -61.5 356t-192 235t-319.5 85h-438q-17 0 -28 -12.5t-11 -28.5v-504h-84q-17 0 -29 -12t-12 -29zM330 145v633h327q18 0 29.5 11.5t11.5 29.5q0 16 -12 28.5t-29 12.5h-327v461l395 -2q249 0 370.5 -157.5t121.5 -434.5q0 -275 -126 -428.5 t-380 -153.5h-381zM391 207h320q444 0 444 520q0 530 -430 530h-334v-335h264q43 0 73 -31t30 -74t-30 -72.5t-73 -29.5h-264v-508z" />
<glyph unicode="&#xd1;" horiz-adv-x="1507" d="M184 86v1276q0 42 30 72t73 30h84q56 0 88 -49l655 -1073h2v1036q0 43 30 74t73 31t73.5 -31t30.5 -74v-1276q0 -43 -30.5 -72.5t-73.5 -29.5h-76q-60 0 -88 49l-662 1081h-2v-1044q0 -43 -30.5 -72.5t-73.5 -29.5t-73 29.5t-30 72.5zM246 86q0 -16 12 -28.5t29 -12.5 t29 12.5t12 28.5v1204h39l741 -1208q11 -19 33 -19h78q19 -1 30 9.5t11 29.5v1276q0 17 -12 29t-29 12t-29 -12t-12 -29v-1202h-33l-739 1206q-11 19 -35 19h-84q-19 0 -30 -11t-11 -28v-1276zM401 1585q0 15 2 23q19 89 85 143.5t153 54.5q96 0 162 -63q3 -3 17 -19.5 t25 -26t19 -9.5q14 0 24 11t13 25q7 35 36 58.5t64 23.5q43 0 74 -31t31 -71q0 -15 -2 -23q-20 -88 -87 -143t-153 -55q-107 0 -180 82q-1 1 -5.5 7.5t-9 12.5t-12.5 11.5t-16 5.5q-14 0 -23.5 -11.5t-13.5 -25.5q-7 -36 -36 -59t-66 -23q-42 0 -71.5 30.5t-29.5 71.5z M463 1585q0 -16 12 -28.5t29 -12.5q13 0 24.5 9.5t14.5 23.5q9 37 36 61.5t62 24.5q47 0 84 -47q55 -72 139 -72q63 0 113 41.5t65 106.5q2 4 2 12q-3 39 -40 39q-14 0 -26 -9t-15 -22q-8 -37 -35.5 -61.5t-63.5 -24.5q-47 0 -86 51q-54 68 -137 68q-62 0 -110.5 -39.5 t-65.5 -103.5q0 -1 -1 -8t-1 -9z" />
<glyph unicode="&#xd2;" horiz-adv-x="1579" d="M102 731q0 200 75 364t209 265.5t306 124.5l-112 207q-13 26 -13 49q0 44 33 74t72 30q62 0 90 -55l112 -207q11 -19 11 -47q0 -26 -13 -49q176 -21 313.5 -123t214.5 -267t77 -366q0 -217 -89 -391t-247 -271.5t-355 -97.5q-146 0 -273 57.5t-217.5 157.5t-142 241 t-51.5 304zM164 731q0 -203 80.5 -362.5t222.5 -247.5t319 -88q134 0 250.5 51t199 141.5t130 221t47.5 284.5q0 153 -47.5 283.5t-130.5 221t-199 141t-250 50.5q-178 0 -319.5 -87.5t-222 -246.5t-80.5 -362zM246 731q0 270 150 442.5t390 172.5q161 0 285 -78t192 -218 t68 -319q0 -274 -150.5 -445t-394.5 -171q-240 0 -390 172.5t-150 443.5zM309 731q0 -249 131.5 -401t345.5 -152q217 0 350.5 152t133.5 401q0 248 -133.5 400.5t-350.5 152.5q-214 0 -345.5 -152.5t-131.5 -400.5zM629 1741q0 -7 4 -19l115 -206q10 -21 34 -21 q14 0 27.5 11t13.5 30q0 12 -4 18l-112 207q-12 21 -37 21q-15 0 -28 -10.5t-13 -30.5z" />
<glyph unicode="&#xd3;" horiz-adv-x="1579" d="M102 731q0 299 162 507t420 245q-14 22 -14 55q0 28 10 45l113 207q28 55 90 55q40 0 72 -30t32 -74q0 -25 -12 -49l-111 -205q178 -19 317 -120t217.5 -267t78.5 -369q0 -217 -89 -391t-247 -271.5t-355 -97.5q-146 0 -273 57.5t-217.5 157.5t-142 241t-51.5 304z M164 731q0 -203 80.5 -362t222 -246.5t319.5 -87.5q134 0 250 50.5t199 141t130.5 221t47.5 283.5q0 154 -47.5 284.5t-130 221.5t-199 142t-250.5 51q-177 0 -319 -88t-222.5 -248t-80.5 -363zM246 731q0 270 150 443.5t390 173.5q243 0 394 -172t151 -445 q0 -274 -150.5 -444t-394.5 -170q-159 0 -282 78t-190.5 218t-67.5 318zM309 731q0 -249 131.5 -401t345.5 -152q217 0 350.5 152t133.5 401q0 248 -133.5 400.5t-350.5 152.5q-214 0 -345.5 -152.5t-131.5 -400.5zM731 1536q0 -18 13 -29.5t26 -11.5q26 0 37 21l115 206 q4 12 4 19q0 20 -13 30.5t-28 10.5q-25 0 -37 -21l-113 -207q-4 -6 -4 -18z" />
<glyph unicode="&#xd4;" horiz-adv-x="1579" d="M102 731q0 163 51.5 304t142 241t217.5 157.5t273 57.5q197 0 355 -97.5t247 -271.5t89 -391t-89 -391t-247 -271.5t-355 -97.5q-146 0 -273 57.5t-217.5 157.5t-142 241t-51.5 304zM166 731q0 -307 175 -501.5t445 -194.5q134 0 250.5 50.5t200 141t131 221t47.5 283.5 t-47.5 284t-131 222t-200 142t-250.5 51q-177 0 -318.5 -88t-221.5 -248t-80 -363zM246 731q0 270 150 443.5t390 173.5q161 0 285.5 -78.5t193 -219t68.5 -319.5q0 -274 -151.5 -444t-395.5 -170q-159 0 -282 78t-190.5 218t-67.5 318zM309 731q0 -249 131.5 -401 t345.5 -152q217 0 350.5 152t133.5 401q0 248 -133.5 400.5t-350.5 152.5q-214 0 -345.5 -152.5t-131.5 -400.5zM510 1618q0 45 31 76l170 161q29 29 71 29q41 0 70 -29l170 -161q31 -31 31 -76q0 -44 -31 -73t-72 -29q-43 0 -71 28l-99 94l-96 -94q-28 -28 -72 -28 q-45 0 -73.5 31.5t-28.5 70.5zM571 1620q0 -18 12.5 -29.5t28.5 -11.5q17 0 29 12l139 135l140 -135q12 -12 30 -12q17 0 28 12t11 29q0 19 -12 31l-168 161q-15 11 -29 11q-13 0 -28 -11l-168 -161q-13 -13 -13 -31z" />
<glyph unicode="&#xd5;" horiz-adv-x="1579" d="M102 731q0 163 51.5 304t142 241t217.5 157.5t273 57.5q197 0 355 -97.5t247 -271.5t89 -391t-89 -391t-247 -271.5t-355 -97.5q-146 0 -273 57.5t-217.5 157.5t-142 241t-51.5 304zM164 731q0 -203 80.5 -362.5t222.5 -247.5t319 -88q134 0 250.5 51t199 141.5t130 221 t47.5 284.5q0 153 -47.5 283.5t-130.5 221t-199 141t-250 50.5q-178 0 -319.5 -87.5t-222 -246.5t-80.5 -362zM246 731q0 270 150 442.5t390 172.5q161 0 285 -78t192 -218t68 -319q0 -274 -150.5 -445t-394.5 -171q-240 0 -390 172.5t-150 443.5zM309 731 q0 -249 131.5 -401t345.5 -152q217 0 350.5 152t133.5 401q0 248 -133.5 400.5t-350.5 152.5q-214 0 -345.5 -152.5t-131.5 -400.5zM438 1651q0 14 2 22q19 89 85 144t153 55q95 0 162 -64q3 -3 17 -19.5t25 -26t19 -9.5q14 0 23.5 11.5t13.5 25.5q7 35 36 58.5t64 23.5 q43 0 74 -31t31 -72q0 -14 -2 -22q-20 -88 -87 -143.5t-153 -55.5q-107 0 -180 82q-1 1 -5.5 7.5t-9 12.5t-12.5 11.5t-16 5.5q-14 0 -23.5 -11.5t-13.5 -25.5q-7 -36 -36 -59t-66 -23q-42 0 -71.5 31t-29.5 72zM500 1651q0 -16 12 -28.5t29 -12.5q13 0 24.5 9t14.5 23 q9 38 36 62.5t62 24.5q46 0 84 -48q54 -71 139 -71q63 0 113 41.5t65 105.5q2 4 2 12q-3 39 -41 39q-14 0 -26 -8.5t-15 -21.5q-8 -37 -35 -61.5t-63 -24.5q-47 0 -86 51q-53 67 -137 67q-62 0 -110.5 -39.5t-65.5 -103.5q0 -1 -1 -7.5t-1 -8.5z" />
<glyph unicode="&#xd6;" horiz-adv-x="1579" d="M102 731q0 254 119.5 446t319.5 269q-21 32 -21 61v92q0 43 31 73t74 30q41 0 71.5 -30t30.5 -73v-92q0 -12 -2 -18q20 2 61 2q22 0 68 -4q-2 8 -2 20v92q0 43 30.5 73t73.5 30q42 0 72.5 -30.5t30.5 -72.5v-92q0 -35 -23 -61q202 -79 321.5 -270t119.5 -445 q0 -217 -89 -391t-247 -271.5t-355 -97.5q-146 0 -273 57.5t-217.5 157.5t-142 241t-51.5 304zM166 731q0 -203 80 -362.5t221.5 -247.5t318.5 -88q134 0 250.5 51t200 141.5t131 221.5t47.5 284q0 255 -124.5 435.5t-329.5 238.5h-5q-28 0 -49 12q-49 10 -121 10 q-63 0 -110 -8q-22 -14 -51 -14h-9q-203 -58 -326.5 -239t-123.5 -435zM246 731q0 270 150 442.5t390 172.5q161 0 285 -78t192 -218t68 -319q0 -274 -150.5 -445t-394.5 -171q-240 0 -390 172.5t-150 443.5zM309 731q0 -249 131.5 -401t345.5 -152q217 0 350.5 152 t133.5 401q0 248 -133.5 400.5t-350.5 152.5q-214 0 -345.5 -152.5t-131.5 -400.5zM582 1507q0 -12 9 -23t21 -16l39 11q13 10 13 28v92q0 15 -12 27t-27 12q-17 0 -30 -12t-13 -27v-92zM913 1507q0 -13 17 -30l35 -9q13 3 21.5 14t8.5 25v92q0 15 -12 27t-27 12 q-17 0 -30 -12t-13 -27v-92z" />
<glyph unicode="&#xd7;" horiz-adv-x="1048" d="M102 358q0 43 31 74l246 246l-246 244q-31 31 -31 73q0 44 31 73.5t74 29.5q44 0 72 -31l245 -244l246 244q31 31 72 31q45 0 74.5 -31.5t29.5 -71.5q0 -42 -31 -73l-245 -244l245 -246q31 -31 31 -74q0 -40 -31.5 -71t-72.5 -31q-44 0 -72 31l-246 243l-245 -243 q-31 -31 -72 -31q-40 0 -72.5 31.5t-32.5 70.5zM164 358q0 -15 11.5 -28t29.5 -13q15 0 28 13l291 291l289 -289q13 -13 31 -13q14 0 27.5 12t13.5 29q0 16 -13 29l-290 291l290 289q13 13 13 28q0 16 -12 28.5t-31 12.5q-17 0 -29 -12l-289 -289l-291 289q-12 12 -28 12 q-15 0 -28 -11t-13 -30q0 -16 12 -28l291 -289l-291 -291q-12 -12 -12 -31z" />
<glyph unicode="&#xd8;" horiz-adv-x="1579" d="M102 731q0 163 51.5 304t142 241t217.5 157.5t273 57.5q157 0 291 -64l39 66q13 24 38 38.5t52 14.5q40 0 71.5 -29.5t31.5 -74.5q0 -27 -15 -51l-47 -80q109 -105 169.5 -254t60.5 -326q0 -217 -89 -391t-247 -271.5t-355 -97.5q-144 0 -276 58l-43 -74q-28 -51 -90 -51 q-39 0 -72 29.5t-33 74.5q0 27 15 51l49 86q-111 103 -172.5 254.5t-61.5 331.5zM164 731q0 -184 67 -332t185 -241l-76 -131q-4 -6 -4 -21q0 -19 12 -30t27 -11q25 0 37 21l73 127q138 -80 301 -80q134 0 250.5 51t200 141.5t131 221.5t47.5 284q0 181 -65 327t-181 240 l72 123q6 12 6 21q0 20 -11.5 30.5t-29.5 10.5q-25 0 -37 -21l-67 -116q-138 81 -316 81t-319.5 -87.5t-222 -246.5t-80.5 -362zM246 731q0 270 150 442.5t390 172.5q156 0 275 -72l-604 -1045q-100 83 -155.5 213t-55.5 289zM309 731q0 -248 133 -403l533 919 q-84 37 -189 37q-214 0 -345.5 -152.5t-131.5 -400.5zM524 182l604 1045q98 -83 151.5 -210.5t53.5 -285.5q0 -274 -151.5 -445t-395.5 -171q-144 0 -262 67zM612 209q82 -31 174 -31q217 0 350.5 152t133.5 401q0 242 -129 393z" />
<glyph unicode="&#xd9;" horiz-adv-x="1404" d="M143 485v895q0 43 30 73t73 30t73.5 -30t30.5 -73v-899q0 -162 90 -232.5t256 -70.5q79 0 142 16t113 50t77 94t27 143v899q0 43 29.5 73t72.5 30t74 -30t31 -73v-895q0 -110 -31.5 -198t-85 -146t-127 -97t-153.5 -56t-169 -17q-264 0 -408.5 134.5t-144.5 379.5z M205 485q0 -225 129.5 -338.5t361.5 -113.5q107 0 195.5 26t157.5 78.5t108 141.5t39 206v895q0 17 -12 28t-29 11t-29 -11t-12 -28v-897q0 -96 -31 -168t-88.5 -115t-132 -64t-166.5 -21q-194 0 -301.5 89t-107.5 279v897q0 17 -12 28t-29 11t-29 -11t-12 -28v-895z M498 1741q0 44 32.5 74t71.5 30q62 0 90 -55l113 -207q12 -21 12 -45q0 -45 -31.5 -75.5t-70.5 -30.5q-28 0 -53.5 14.5t-38.5 38.5l-113 207q-12 24 -12 49zM559 1741q0 -7 4 -19l115 -206q10 -21 37 -21q13 0 26 11.5t13 29.5q0 12 -4 18l-113 207q-12 21 -37 21 q-15 0 -28 -10.5t-13 -30.5z" />
<glyph unicode="&#xda;" horiz-adv-x="1404" d="M143 485v895q0 43 30 73t73 30t73.5 -30t30.5 -73v-899q0 -303 346 -303q79 0 142 16t113 50t77 94t27 143v899q0 43 29.5 73t72.5 30t74 -30t31 -73v-895q0 -109 -31.5 -197t-85 -146.5t-127 -97.5t-154 -56t-168.5 -17q-264 0 -408.5 134.5t-144.5 379.5zM205 485 q0 -225 129.5 -337.5t361.5 -112.5q107 0 195.5 25.5t157.5 78t108 141t39 205.5v895q0 17 -12 28t-29 11t-29 -11t-12 -28v-897q0 -96 -31 -168t-88.5 -115t-132 -64t-166.5 -21q-194 0 -301.5 89t-107.5 279v897q0 17 -12 29t-29 12t-29 -12t-12 -29v-895zM541 1538 q0 28 10 45l113 207q28 55 90 55q40 0 72 -30t32 -74q0 -25 -12 -49l-113 -207q-29 -53 -90 -53q-40 0 -71 30t-31 76zM602 1536q0 -18 13 -29.5t26 -11.5q27 0 37 21l115 206q4 12 4 19q0 20 -13 30.5t-28 10.5q-25 0 -37 -21l-113 -207q-4 -6 -4 -18z" />
<glyph unicode="&#xdb;" horiz-adv-x="1404" d="M143 485v895q0 43 31 73t74 30t72.5 -30t29.5 -73v-899q0 -161 90.5 -232t257.5 -71q164 0 260.5 71.5t96.5 231.5v899q0 43 30.5 73t73.5 30t73 -30t30 -73v-895q0 -109 -31.5 -197t-84.5 -146.5t-126.5 -97.5t-153.5 -56t-168 -17q-264 0 -409.5 135t-145.5 379z M205 485q0 -225 129.5 -338.5t361.5 -113.5q107 0 195.5 26t157.5 78.5t108 141.5t39 206v895q0 17 -12 28t-29 11t-29 -11t-12 -28v-897q0 -96 -31 -168t-88.5 -115t-132 -64t-166.5 -21q-194 0 -301.5 89t-107.5 279v897q0 17 -12 28t-29 11t-29 -11t-12 -28v-895z M428 1585q0 45 31 76l170 162q28 28 71 28q42 0 70 -28l170 -162q31 -31 31 -76q0 -44 -31 -73t-72 -29q-43 0 -71 28l-99 95l-96 -95q-28 -28 -72 -28q-45 0 -73.5 31.5t-28.5 70.5zM489 1587q0 -18 12.5 -29.5t28.5 -11.5t29 13l139 135l140 -135q13 -13 30 -13t28 12 t11 29q0 19 -12 31l-168 162q-13 10 -29 10q-15 0 -28 -10l-168 -162q-13 -13 -13 -31z" />
<glyph unicode="&#xdc;" horiz-adv-x="1404" d="M143 485v895q0 43 31 73t74 30t72.5 -30t29.5 -73v-899q0 -161 90.5 -232t257.5 -71q164 0 260.5 71.5t96.5 231.5v899q0 43 30.5 73t73.5 30t73 -30t30 -73v-895q0 -109 -31.5 -197t-84.5 -146.5t-126.5 -97.5t-153.5 -56t-168 -17q-264 0 -409.5 135t-145.5 379z M205 485q0 -225 129.5 -338.5t361.5 -113.5q107 0 195.5 26t157.5 78.5t108 141.5t39 206v895q0 17 -12 28t-29 11t-29 -11t-12 -28v-897q0 -96 -31 -168t-88.5 -115t-132 -64t-166.5 -21q-194 0 -301.5 89t-107.5 279v897q0 17 -12 28t-29 11t-29 -11t-12 -28v-895z M430 1507v92q0 43 31 73t74 30q41 0 71.5 -30t30.5 -73v-92q0 -41 -30.5 -71.5t-71.5 -30.5q-43 0 -74 30.5t-31 71.5zM492 1507q0 -15 13 -27t30 -12q15 0 27.5 12t12.5 27v92q0 15 -12.5 28t-27.5 13q-17 0 -30 -13t-13 -28v-92zM762 1507v92q0 43 30.5 73t73.5 30 q42 0 72.5 -30.5t30.5 -72.5v-92q0 -41 -31 -71.5t-72 -30.5q-43 0 -73.5 30.5t-30.5 71.5zM823 1507q0 -15 13 -27t30 -12q15 0 28 12t13 27v92q0 15 -13 28t-28 13q-17 0 -30 -13t-13 -28v-92z" />
<glyph unicode="&#xdd;" horiz-adv-x="1275" d="M41 1380q0 44 32 73.5t72 29.5q50 0 82 -43l412 -570l410 570q32 43 84 43q40 0 71 -28.5t31 -72.5q0 -40 -18 -63l-476 -660v-573q0 -43 -30.5 -72.5t-73.5 -29.5q-42 0 -72 30t-30 72v573l-474 660q-20 26 -20 61zM102 1380q0 -15 9 -24l485 -674v-596q0 -17 12 -28 t29 -11t29 11t12 28v596l485 674q8 11 8 24q0 17 -12 29t-29 12q-18 0 -32 -18l-461 -639l-461 639q-12 18 -33 18q-17 0 -29 -12t-12 -29zM479 1536q0 30 10 47l113 207q27 53 90 53q41 0 73 -29.5t32 -74.5q0 -24 -13 -47l-112 -207q-27 -53 -90 -53q-40 0 -71.5 30 t-31.5 74zM541 1536q0 -18 13 -29.5t26 -11.5q26 0 36 21l115 206q4 12 4 19q0 20 -13 30.5t-28 10.5q-25 0 -37 -21l-112 -207q-4 -6 -4 -18z" />
<glyph unicode="&#xde;" horiz-adv-x="1308" d="M184 84v1294q0 43 31 74t72 31q43 0 73.5 -31t30.5 -74v-123h383q218 0 345.5 -119.5t127.5 -320.5q0 -214 -127.5 -330t-361.5 -116h-367v-285q0 -43 -30.5 -72.5t-73.5 -29.5t-73 29.5t-30 72.5zM248 84q0 -16 11 -28.5t28 -12.5t30 13t13 28v346h428q204 0 316 98 t112 287q0 177 -111.5 278t-300.5 101h-444v184q0 17 -13 29t-30 12q-15 0 -27 -12t-12 -29v-1294zM330 512v598l444 2q159 0 244.5 -77.5t85.5 -219.5q0 -303 -346 -303h-428zM391 573h367q72 0 125 14t83 36t47.5 56t23 65t5.5 71q0 234 -268 234h-383v-476z" />
<glyph unicode="&#xdf;" horiz-adv-x="1079" d="M143 102v965q0 195 107.5 309.5t277.5 114.5q192 0 301 -105.5t109 -275.5q0 -148 -80 -252q-17 -23 -33 -37q10 -5 39 -30q135 -129 135 -361q0 -196 -104 -315q-58 -68 -149 -106t-193 -38q-32 0 -78 11q-91 23 -88 112q1 42 37 70t76 22q10 -1 29.5 -4.5t23.5 -3.5 q69 1 118.5 22.5t74.5 58.5t36 78.5t11 90.5q0 194 -127 250q-56 24 -82.5 55.5t-26.5 77.5q0 34 9.5 60t27.5 41.5t29 22t28 13.5q80 35 80 162q0 176 -201 176q-88 0 -134 -57.5t-46 -157.5v-969q0 -42 -30 -72t-72 -30q-43 0 -74 30t-31 72zM205 92q0 -17 12 -29t29 -12 t29 12t12 29v1012q8 106 67.5 175t169.5 69q269 0 269 -244q0 -75 -33.5 -133.5t-85.5 -79.5q-17 -7 -26.5 -13t-20.5 -24.5t-11 -44.5q2 -43 72 -74q79 -37 122.5 -109t43.5 -200q0 -145 -81 -226t-214 -83q-29 0 -61 8q-15 3 -29.5 -6.5t-17.5 -24.5q-6 -39 28 -49 q30 -10 78 -10q100 0 181.5 40.5t131.5 112.5q66 97 66 230q0 267 -186 373q-33 18 -37 26q2 4 6 8.5t9 8.5t7 6q57 30 98 101t41 163q0 154 -92 240t-260 86q-65 0 -120 -22.5t-90 -58t-60 -79.5t-36 -86t-11 -80v-1012z" />
<glyph unicode="&#xe0;" horiz-adv-x="1155" d="M96 307q0 152 92 240q111 105 367 131q153 17 240 53l-2 41q0 69 -48 100q-45 35 -155 35q-156 0 -213 -78q-11 -14 -18.5 -29.5t-8.5 -24.5l-2 -9q-3 -41 -32.5 -68.5t-69.5 -27.5q-39 0 -73.5 29t-31.5 81q14 98 70 174q119 160 379 160q220 0 330 -119q79 -89 79 -225 v-545q0 -25 5 -35q45 1 76.5 -29t31.5 -73t-30.5 -73.5t-71.5 -30.5q-102 0 -160 67q-12 14 -27 37q-144 -117 -344 -117q-176 0 -279.5 92t-103.5 244zM162 307q0 -55 19 -103t56.5 -87t101 -61.5t144.5 -22.5q210 0 355 149q4 6 11 16t9 13q3 -18 6 -39q14 -58 35 -80 q41 -47 113 -47q17 0 29 12t12 29q0 18 -12.5 30t-30.5 11q-70 3 -70 92v553q0 110 -63 180q-91 101 -283 101q-226 0 -330 -135q-23 -30 -37 -65.5t-17 -52t-3 -24.5q-1 -19 11.5 -31t29.5 -14q15 0 27.5 11t13.5 28q4 49 41 98q79 103 264 103q146 0 217 -68 q47 -51 47 -131v-70q-43 -59 -293 -86q-235 -23 -332 -114q-71 -66 -71 -195zM244 307q0 47 9.5 79.5t39.5 59.5q74 67 289 91q179 19 276 65v-244q-34 -68 -82 -120q-123 -123 -293 -123q-127 0 -188 61q-51 49 -51 131zM303 307q0 -55 33 -86q46 -43 145 -43q146 0 244 98 q32 34 70 97v139q-96 -26 -217 -39q-187 -22 -246 -76q-29 -26 -29 -90zM399 1518q0 44 33 74t72 30q62 0 90 -55l113 -207q12 -21 12 -45q0 -45 -32 -76t-71 -31q-28 0 -53.5 14.5t-38.5 39.5l-112 206q-13 26 -13 50zM461 1518q0 -7 4 -19l115 -207q10 -20 36 -20 q13 0 26 11.5t13 29.5q0 12 -4 18l-112 207q-12 21 -37 21q-15 0 -28 -10.5t-13 -30.5z" />
<glyph unicode="&#xe1;" horiz-adv-x="1155" d="M96 309q0 152 92 240q107 101 367 131q157 15 238 51v43q0 64 -48 100q-49 35 -155 35q-153 0 -213 -78q-11 -15 -18.5 -30.5t-8.5 -24.5l-2 -8q-3 -41 -32.5 -69.5t-69.5 -28.5q-39 0 -73.5 29t-31.5 81q12 98 70 176q122 160 379 160q218 0 330 -121q79 -89 79 -225 v-543q0 -27 5 -34q45 1 76.5 -30t31.5 -75q0 -43 -30.5 -73.5t-71.5 -30.5q-102 0 -160 67q-12 14 -27 37q-144 -117 -344 -117q-176 0 -279.5 93t-103.5 245zM162 309q0 -117 81 -196.5t240 -79.5q212 0 355 151q4 4 7.5 8.5t7 10t5.5 8.5q3 -18 6 -39q14 -58 35 -80 q44 -47 113 -47q17 0 29 12t12 29q0 18 -12.5 30t-30.5 11q-70 3 -70 94v551q0 110 -63 180q-91 101 -283 101q-226 0 -330 -135q-23 -30 -37 -65.5t-17 -52t-3 -24.5q-1 -19 12 -31t29 -12q15 0 27.5 11t13.5 26q4 49 41 98q79 103 264 103q146 0 217 -68q47 -51 47 -129 v-72q-43 -59 -293 -86q-239 -24 -332 -114q-71 -66 -71 -193zM244 307q0 47 9.5 79.5t39.5 59.5q74 67 289 91q179 19 276 65v-244q-34 -68 -82 -120q-123 -123 -293 -123q-127 0 -188 61q-51 49 -51 131zM303 309q0 -55 33 -88q46 -43 145 -43q146 0 244 101q34 34 70 94 v139q-96 -26 -217 -39q-189 -19 -246 -76q-29 -23 -29 -88zM451 1315q0 27 10 45l112 207q13 26 38 40.5t53 14.5q40 0 72 -30t32 -74q0 -26 -12 -50l-113 -206q-14 -25 -38 -39.5t-52 -14.5q-40 0 -71 30.5t-31 76.5zM512 1313q0 -18 13 -29.5t26 -11.5q27 0 37 20l114 207 q5 15 5 19q0 20 -13 30.5t-28 10.5q-25 0 -37 -21l-113 -207q-4 -6 -4 -18z" />
<glyph unicode="&#xe2;" horiz-adv-x="1155" d="M96 309q0 152 92 240q107 101 367 131q152 15 240 51l-2 41q0 69 -48 100q-45 35 -155 35q-156 0 -213 -78q-11 -14 -18.5 -29.5t-8.5 -24.5l-2 -9q-3 -41 -32.5 -68.5t-69.5 -27.5q-39 0 -73.5 29t-31.5 81q14 98 70 174q119 160 379 160q220 0 330 -119q79 -89 79 -225 v-545q0 -25 5 -35q45 1 76.5 -29t31.5 -73t-30.5 -73.5t-71.5 -30.5q-102 0 -160 67q-12 14 -27 37q-144 -117 -344 -117q-176 0 -279.5 93t-103.5 245zM162 307q0 -55 19 -103t56.5 -87t101 -61.5t144.5 -22.5q210 0 355 149q4 6 11 16t9 13q3 -18 6 -39q14 -58 35 -80 q41 -47 113 -47q17 0 29 12t12 29q0 18 -12.5 30t-30.5 11q-70 3 -70 92v553q0 110 -63 180q-91 101 -283 101q-226 0 -330 -135q-23 -30 -37 -65.5t-17 -52t-3 -24.5q-1 -19 11.5 -31t29.5 -14q15 0 27.5 11t13.5 28q4 49 41 98q79 103 264 103q146 0 217 -68 q47 -51 47 -131v-70q-43 -59 -293 -86q-235 -23 -332 -114q-71 -66 -71 -195zM244 307q0 47 9.5 79.5t39.5 59.5q74 67 289 91q179 19 276 65v-244q-34 -68 -82 -120q-123 -123 -293 -123q-127 0 -188 61q-51 49 -51 131zM303 307q0 -55 33 -86q46 -43 145 -43q146 0 244 98 q32 34 70 97v139q-96 -26 -217 -39q-187 -22 -246 -76q-29 -26 -29 -90zM338 1323q0 45 31 76l170 162q28 28 71 28q42 0 70 -28l170 -162q31 -31 31 -76q0 -44 -31 -73t-72 -29q-43 0 -71 28l-99 94l-96 -94q-28 -28 -72 -28q-45 0 -73.5 31.5t-28.5 70.5zM399 1325 q0 -18 12.5 -29.5t28.5 -11.5q17 0 29 12l139 136l140 -136q12 -12 30 -12q17 0 28 12t11 29q0 19 -12 31l-168 162q-13 10 -29 10q-15 0 -28 -10l-168 -162q-13 -13 -13 -31z" />
<glyph unicode="&#xe3;" horiz-adv-x="1155" d="M96 307q0 152 92 240q111 105 367 131q158 17 238 53v41q0 69 -48 100q-45 35 -155 35q-156 0 -213 -78q-11 -14 -18.5 -29.5t-8.5 -24.5l-2 -9q-3 -41 -32.5 -68.5t-69.5 -27.5q-39 0 -73.5 29t-31.5 81q14 98 70 174q119 160 379 160q220 0 330 -119q79 -89 79 -225 v-545q0 -25 5 -35q45 1 76.5 -29t31.5 -73t-30.5 -73.5t-71.5 -30.5q-102 0 -160 67q-21 25 -27 37q-144 -117 -344 -117q-176 0 -279.5 92t-103.5 244zM162 309q0 -117 80.5 -196.5t240.5 -79.5q214 0 353 151q4 4 22 27q3 -18 6 -39q14 -58 35 -80q41 -47 113 -47 q17 0 29 12t12 29q0 18 -12.5 30t-30.5 11q-70 3 -70 92v553q0 106 -66 180q-88 101 -280 101q-226 0 -330 -135q-23 -30 -37 -65.5t-17 -52t-3 -24.5q-1 -19 11.5 -31t27.5 -14q17 0 29.5 11t13.5 28q4 49 41 98q79 103 264 103q147 0 215 -68q49 -51 49 -131v-70 q-43 -59 -293 -86q-239 -24 -332 -114q-71 -66 -71 -193zM244 307q0 47 9.5 79.5t39.5 59.5q74 67 289 91q179 19 276 65v-244q-34 -68 -82 -120q-123 -123 -293 -123q-127 0 -188 61q-51 49 -51 131zM256 1311q0 14 2 22q19 89 85 144t153 55q94 0 161 -64q2 -2 16.5 -19 t26 -26.5t19.5 -9.5q14 0 23.5 11.5t13.5 25.5q7 35 36 58.5t64 23.5q44 0 74.5 -31t30.5 -71q0 -11 -3 -23q-20 -88 -86.5 -143.5t-152.5 -55.5q-107 0 -180 82q-1 1 -5.5 7.5t-9 12.5t-12.5 11.5t-16 5.5q-14 0 -23.5 -11.5t-13.5 -25.5q-7 -36 -36.5 -59t-66.5 -23 q-42 0 -71 31t-29 72zM303 307q0 -55 33 -86q43 -43 143 -43q145 0 246 98q41 44 68 97v139q-91 -26 -215 -39q-190 -22 -248 -76q-27 -27 -27 -90zM317 1311q0 -16 12 -28.5t29 -12.5q13 0 24.5 9.5t14.5 23.5q9 37 36.5 61.5t62.5 24.5q46 0 84 -48q54 -71 139 -71 q63 0 113 41.5t65 105.5q2 4 2 13q-3 38 -41 38q-14 0 -26 -8.5t-15 -21.5q-8 -37 -35 -61.5t-63 -24.5q-47 0 -86 51q-53 67 -137 67q-62 0 -111 -39.5t-66 -103.5q0 -1 -1 -7.5t-1 -8.5z" />
<glyph unicode="&#xe4;" horiz-adv-x="1155" d="M96 309q0 152 92 240q107 101 367 131q152 15 240 51l-2 41q0 69 -48 100q-45 35 -155 35q-156 0 -213 -78q-11 -14 -18.5 -29.5t-8.5 -24.5l-2 -9q-3 -41 -32.5 -68.5t-69.5 -27.5q-39 0 -73.5 29t-31.5 81q14 98 70 174q119 160 379 160q220 0 330 -119q79 -89 79 -225 v-545q0 -25 5 -35q45 1 76.5 -29t31.5 -73t-30.5 -73.5t-71.5 -30.5q-102 0 -160 67q-12 14 -27 37q-144 -117 -344 -117q-176 0 -279.5 93t-103.5 245zM162 307q0 -55 19 -103t56.5 -87t101 -61.5t144.5 -22.5q210 0 355 149q4 6 11 16t9 13q3 -18 6 -39q14 -58 35 -80 q41 -47 113 -47q17 0 29 12t12 29q0 18 -12.5 30t-30.5 11q-70 3 -70 92v553q0 110 -63 180q-91 101 -283 101q-226 0 -330 -135q-23 -30 -37 -65.5t-17 -52t-3 -24.5q-1 -19 11.5 -31t29.5 -14q15 0 27.5 11t13.5 28q4 49 41 98q79 103 264 103q146 0 217 -68 q47 -51 47 -131v-70q-43 -59 -293 -86q-235 -23 -332 -114q-71 -66 -71 -195zM244 307q0 47 9.5 79.5t39.5 59.5q74 67 289 91q179 19 276 65v-244q-34 -68 -82 -120q-123 -123 -293 -123q-127 0 -188 61q-51 49 -51 131zM303 307q0 -55 33 -86q46 -43 145 -43q146 0 244 98 q32 34 70 97v139q-96 -26 -217 -39q-187 -22 -246 -76q-29 -26 -29 -90zM313 1296v93q0 42 31 72t74 30q42 0 72 -30t30 -72v-93q0 -41 -30.5 -71.5t-71.5 -30.5q-43 0 -74 30.5t-31 71.5zM375 1296q0 -15 13 -27t30 -12q15 0 28 12t13 27v93q0 15 -13 28t-28 13 q-17 0 -30 -13t-13 -28v-93zM645 1296v93q0 42 31 72t74 30q42 0 72 -30t30 -72v-93q0 -41 -30.5 -71.5t-71.5 -30.5q-43 0 -74 30.5t-31 71.5zM707 1296q0 -15 13 -27t30 -12q15 0 28 12t13 27v93q0 15 -13 28t-28 13q-17 0 -30 -13t-13 -28v-93z" />
<glyph unicode="&#xe5;" horiz-adv-x="1155" d="M96 309q0 152 92 240q107 101 367 131q152 15 240 51l-2 41q0 69 -48 100q-45 35 -155 35q-156 0 -213 -78q-11 -14 -18.5 -29.5t-8.5 -24.5l-2 -9q-3 -41 -32.5 -68.5t-69.5 -27.5q-39 0 -73.5 29t-31.5 81q14 98 70 174q119 160 379 160q220 0 330 -119q79 -89 79 -225 v-545q0 -25 5 -35q45 1 76.5 -29t31.5 -73t-30.5 -73.5t-71.5 -30.5q-102 0 -160 67q-12 14 -27 37q-144 -117 -344 -117q-176 0 -279.5 93t-103.5 245zM162 307q0 -55 19 -103t56.5 -87t101 -61.5t144.5 -22.5q210 0 355 149q4 6 11 16t9 13q3 -18 6 -39q14 -58 35 -80 q41 -47 113 -47q17 0 29 12t12 29q0 18 -12.5 30t-30.5 11q-70 3 -70 92v553q0 110 -63 180q-91 101 -283 101q-226 0 -330 -135q-23 -30 -37 -65.5t-17 -52t-3 -24.5q-1 -19 11.5 -31t29.5 -14q15 0 27.5 11t13.5 28q4 49 41 98q79 103 264 103q146 0 217 -68 q47 -51 47 -131v-70q-43 -59 -293 -86q-235 -23 -332 -114q-71 -66 -71 -195zM244 307q0 47 9.5 79.5t39.5 59.5q74 67 289 91q179 19 276 65v-244q-34 -68 -82 -120q-123 -123 -293 -123q-127 0 -188 61q-51 49 -51 131zM303 307q0 -55 33 -86q46 -43 145 -43q146 0 244 98 q32 34 70 97v139q-96 -26 -217 -39q-187 -22 -246 -76q-29 -26 -29 -90zM375 1411q0 94 69.5 164t163.5 70t164 -70t70 -164t-70 -163.5t-164 -69.5t-163.5 69.5t-69.5 163.5zM424 1411q0 -77 54 -130.5t130 -53.5q77 0 131 54t54 130q0 75 -54.5 129.5t-130.5 54.5 t-130 -54.5t-54 -129.5zM481 1411q0 53 37.5 90t89.5 37q54 0 91.5 -37t37.5 -90t-37.5 -90t-91.5 -37q-52 0 -89.5 37t-37.5 90zM528 1411q0 -32 24 -56t56 -24t56 24t24 56t-24 56t-56 24t-56 -24t-24 -56z" />
<glyph unicode="&#xe6;" horiz-adv-x="1859" d="M98 309q0 155 92 240q111 105 367 131q158 17 238 53q0 59 -4.5 82t-24.5 45q-46 49 -174 49q-146 0 -205 -65q-30 -33 -37 -72q-2 -42 -31 -71t-73 -29q-42 0 -72.5 29.5t-30.5 70.5q0 43 21.5 101.5t73.5 113.5q123 129 354 129q136 0 217 -39t135 -108 q138 147 352 147q204 0 326 -125q75 -73 114 -188t42 -242q0 -45 -29 -74q-32 -32 -76 -32h-672q48 -277 306 -277q192 0 247 174q12 40 50.5 60t78.5 8q41 -14 61 -52t7 -79q-46 -151 -166 -234.5t-278 -83.5q-126 0 -222 46t-184 147q-69 -78 -174.5 -135.5t-245.5 -57.5 q-180 0 -281.5 95.5t-101.5 242.5zM160 309q0 -54 18.5 -102t55.5 -88t100.5 -63t146.5 -23q147 0 257 73.5t167 176.5q123 -250 400 -250q138 0 241.5 71t145.5 203q4 17 -4 31.5t-23 19.5q-17 6 -32 -1.5t-19 -24.5q-34 -106 -113 -161.5t-196 -55.5q-174 0 -269.5 108 t-101.5 293h739q17 0 31 14q10 10 10 29q-3 122 -38 223t-99 166q-105 105 -281 105q-127 0 -221.5 -62t-150.5 -164q-12 105 -98 165.5t-236 60.5q-205 0 -307 -111q-74 -76 -78 -170q0 -17 12 -28t29 -11q18 0 29.5 11.5t11.5 29.5q0 17 13 49.5t42 63.5q78 84 248 84 q158 0 221 -72q9 -10 16.5 -21.5t12 -20t8 -23t5 -21.5t2.5 -25.5t1 -24.5v-29v-29q-43 -62 -293 -89q-237 -23 -332 -112q-71 -69 -71 -195zM242 309q0 45 9 76t36 57q71 71 284 95q188 18 285 69q-14 -113 12 -221q-41 -109 -143.5 -189.5t-243.5 -80.5 q-110 0 -174.5 49.5t-64.5 144.5zM305 309q0 -65 45.5 -98t130.5 -33q114 0 200 61t122 152q-12 78 -12 121q-84 -23 -211 -39q-191 -19 -248 -76q-27 -24 -27 -88zM936 598q7 70 30.5 133t65.5 118.5t110 88.5t154 33q154 0 237 -97.5t95 -275.5h-692zM1008 662h551 q-24 124 -85.5 185.5t-177.5 61.5q-108 0 -185 -66t-103 -181z" />
<glyph unicode="&#xe7;" horiz-adv-x="1126" d="M82 543q0 256 140.5 414.5t367.5 158.5q169 0 286.5 -85t157.5 -236q4 -16 4 -25q0 -42 -31 -73t-73 -31q-34 0 -62.5 21t-37.5 56q-43 166 -244 166q-141 0 -221 -97t-80 -269q0 -170 80 -267.5t219 -97.5q217 0 252 201q7 41 42.5 65.5t78.5 18.5q38 -7 60.5 -36 t22.5 -69q0 -43 -28 -113t-72 -124q-105 -124 -278 -146l-33 -79q102 -29 151.5 -95t49.5 -143q0 -116 -91 -188q-86 -70 -217 -70q-50 0 -108 12q-41 7 -65 43.5t-15 77.5q9 42 44.5 65.5t76.5 14.5q110 -19 155 16q15 12 15 29q0 25 -42.5 38t-99.5 13q-55 0 -86 45 q-28 46 -10 96l58 140q-169 45 -268 192.5t-99 360.5zM143 543q0 -210 104.5 -349t287.5 -157l-86 -211q-8 -23 4 -37q12 -18 34 -18q88 0 145.5 -28t57.5 -85q0 -48 -37 -78q-70 -53 -207 -29q-17 3 -30.5 -6t-16.5 -26q-4 -15 6 -29t25 -16q57 -13 96 -13q112 0 179 58 q67 51 67 139q0 79 -61.5 127.5t-165.5 60.5l76 189q174 11 270 121q41 48 63.5 104.5t26.5 99.5q0 18 -11 28.5t-24 12.5q-17 2 -29.5 -7.5t-15.5 -26.5q-23 -124 -104 -188t-209 -64q-171 0 -267 117.5t-96 310.5q0 191 97 309.5t266 118.5q122 0 200.5 -54t104.5 -157 q3 -15 14 -24t25 -9q17 0 29 12t14 29l-2 10q-36 135 -137.5 205t-247.5 70q-207 0 -326 -142.5t-119 -367.5z" />
<glyph unicode="&#xe8;" horiz-adv-x="1150" d="M82 551q0 122 43 235t123 193q64 64 151.5 100.5t188.5 36.5q200 0 325 -125q147 -150 156 -430q0 -44 -29 -76q-30 -30 -73 -30h-672q19 -132 97.5 -204.5t205.5 -72.5q37 0 70.5 7.5t69 25t64 53.5t44.5 86q10 33 38 52.5t62 19.5q42 0 72.5 -29t30.5 -71q0 -12 -7 -33 q-46 -149 -163.5 -233.5t-280.5 -84.5q-235 0 -375.5 154.5t-140.5 425.5zM143 549q0 -238 121.5 -377t333.5 -139q144 0 244.5 72.5t140.5 199.5q2 6 2 14q0 18 -11.5 29.5t-29.5 11.5q-30 0 -39 -28q-33 -107 -114 -162t-193 -55q-172 0 -268.5 109.5t-102.5 291.5h740 q16 0 28 12q11 11 11 31q-6 247 -127 377q-108 117 -291 117q-96 0 -172.5 -34.5t-124.5 -84.5q-75 -75 -111.5 -176t-36.5 -209zM229 598q12 169 112.5 271t244.5 102q156 0 239 -97t97 -276h-693zM301 662h551q-24 127 -86.5 187t-177.5 60q-108 0 -184.5 -66t-102.5 -181 zM416 1518q0 44 32.5 74t71.5 30q62 0 90 -55l113 -207q12 -21 12 -45q0 -45 -31.5 -76t-70.5 -31q-28 0 -53.5 14.5t-38.5 39.5l-113 206q-12 24 -12 50zM477 1518q0 -7 4 -19l115 -207q10 -20 37 -20q13 0 26 11.5t13 29.5q0 12 -4 18l-113 207q-12 21 -37 21 q-15 0 -28 -10.5t-13 -30.5z" />
<glyph unicode="&#xe9;" horiz-adv-x="1150" d="M82 551q0 122 43 235t123 193q64 64 151.5 100.5t188.5 36.5q200 0 325 -125q147 -150 156 -430q0 -44 -29 -76q-30 -30 -73 -30h-672q19 -132 97.5 -204.5t205.5 -72.5q37 0 70.5 7.5t69 25t64 53.5t44.5 86q10 33 38 52.5t62 19.5q42 0 72.5 -29t30.5 -71q0 -12 -7 -33 q-46 -149 -163.5 -233.5t-280.5 -84.5q-235 0 -375.5 154.5t-140.5 425.5zM143 549q0 -238 121 -376t334 -138q144 0 244.5 72t140.5 198q2 6 2 14q0 18 -11.5 29.5t-29.5 11.5q-30 0 -39 -28q-33 -107 -114 -162t-193 -55q-172 0 -268.5 109.5t-102.5 291.5h740q16 0 28 12 q11 11 11 31q-6 247 -127 377q-110 119 -291 119q-95 0 -172 -35.5t-125 -85.5q-75 -75 -111.5 -176t-36.5 -209zM229 598q12 169 112.5 271t244.5 102q156 0 239 -97t97 -276h-693zM301 662h551q-24 127 -86.5 187t-177.5 60q-108 0 -184.5 -66t-102.5 -181zM418 1315 q0 27 10 45l113 207q28 55 90 55q40 0 72 -30t32 -74q0 -26 -12 -50l-113 -206q-14 -25 -38 -39.5t-52 -14.5q-40 0 -71 30.5t-31 76.5zM479 1313q0 -18 13 -29.5t26 -11.5q27 0 37 20l115 207q4 12 4 19q0 20 -13 30.5t-28 10.5q-25 0 -37 -21l-113 -207q-4 -6 -4 -18z" />
<glyph unicode="&#xea;" horiz-adv-x="1150" d="M82 551q0 122 43 235t123 193q64 64 151.5 100.5t188.5 36.5q200 0 325 -125q147 -150 156 -430q0 -44 -29 -76q-30 -30 -73 -30h-672q19 -132 97.5 -204.5t205.5 -72.5q37 0 70.5 7.5t69 25t64 53.5t44.5 86q10 33 38 52.5t62 19.5q42 0 72.5 -29t30.5 -71q0 -12 -7 -33 q-46 -149 -163.5 -233.5t-280.5 -84.5q-235 0 -375.5 154.5t-140.5 425.5zM143 549q0 -238 121.5 -377t333.5 -139q144 0 244.5 72.5t140.5 199.5q2 6 2 14q0 18 -11.5 29.5t-29.5 11.5q-30 0 -39 -28q-33 -107 -114 -162t-193 -55q-172 0 -268.5 109.5t-102.5 291.5h740 q16 0 28 12q11 11 11 31q-6 247 -127 377q-108 117 -291 117q-96 0 -172.5 -34.5t-124.5 -84.5q-75 -75 -111.5 -176t-36.5 -209zM229 598q12 169 112.5 271t244.5 102q156 0 239 -97t97 -276h-693zM301 662h551q-24 127 -86.5 187t-177.5 60q-108 0 -184.5 -66t-102.5 -181 zM305 1323q0 45 31 76l170 162q28 28 72 28q41 0 69 -28l170 -162q31 -31 31 -76q0 -44 -31 -73t-72 -29q-43 0 -71 28l-99 94l-96 -94q-28 -28 -71 -28q-45 0 -74 31.5t-29 70.5zM367 1325q0 -18 12.5 -29.5t28.5 -11.5t28 12l139 136l140 -136q12 -12 30 -12q17 0 28 12 t11 29q0 19 -12 31l-168 162q-13 10 -29 10q-15 0 -28 -10l-168 -162q-12 -12 -12 -31z" />
<glyph unicode="&#xeb;" horiz-adv-x="1150" d="M82 551q0 122 43 235t123 193q64 64 151.5 100.5t188.5 36.5q200 0 325 -125q147 -150 156 -430q0 -44 -29 -76q-30 -30 -73 -30h-672q19 -132 97.5 -204.5t205.5 -72.5q37 0 70.5 7.5t69 25t64 53.5t44.5 86q10 33 38 52.5t62 19.5q42 0 72.5 -29t30.5 -71q0 -12 -7 -33 q-46 -149 -163.5 -233.5t-280.5 -84.5q-235 0 -375.5 154.5t-140.5 425.5zM143 549q0 -238 121.5 -377t333.5 -139q144 0 244.5 72.5t140.5 199.5q2 6 2 14q0 18 -11.5 29.5t-29.5 11.5q-30 0 -39 -28q-33 -107 -114 -162t-193 -55q-172 0 -268.5 109.5t-102.5 291.5h740 q16 0 28 12q11 11 11 31q-6 247 -127 377q-108 117 -291 117q-96 0 -172.5 -34.5t-124.5 -84.5q-75 -75 -111.5 -176t-36.5 -209zM229 598q12 169 112.5 271t244.5 102q156 0 239 -97t97 -276h-693zM301 662h551q-24 127 -86.5 187t-177.5 60q-108 0 -184.5 -66t-102.5 -181 zM307 1329v92q0 43 31 73t74 30q42 0 72 -30t30 -73v-92q0 -41 -30.5 -71.5t-71.5 -30.5q-43 0 -74 30.5t-31 71.5zM369 1329q0 -15 13 -27t30 -12q15 0 28 12t13 27v92q0 15 -13 28t-28 13q-17 0 -30 -13t-13 -28v-92zM639 1329v92q0 43 30.5 73t73.5 30q42 0 72.5 -30.5 t30.5 -72.5v-92q0 -41 -31 -71.5t-72 -30.5q-43 0 -73.5 30.5t-30.5 71.5zM700 1329q0 -15 13 -27t30 -12q15 0 28 12t13 27v92q0 15 -13 28t-28 13q-17 0 -30 -13t-13 -28v-92z" />
<glyph unicode="&#xec;" d="M43 1518q0 44 32.5 74t71.5 30q28 0 53 -14.5t38 -40.5l112 -207q12 -21 12 -45q0 -45 -31.5 -76t-70.5 -31q-28 0 -53.5 14.5t-38.5 39.5l-113 206q-12 24 -12 50zM104 1518q0 -4 5 -19l114 -207q10 -20 37 -20q13 0 26 11.5t13 29.5q0 12 -4 18l-113 207q-12 21 -37 21 q-15 0 -28 -10.5t-13 -30.5zM143 86v915q0 43 31 73t74 30q42 0 72 -30t30 -73v-915q0 -41 -30.5 -71.5t-71.5 -30.5q-43 0 -74 30.5t-31 71.5zM205 86q0 -15 13 -28t30 -13q15 0 27 13t12 28v915q0 15 -12 27t-27 12q-17 0 -30 -12t-13 -27v-915z" />
<glyph unicode="&#xed;" d="M139 1315q0 26 11 45l112 207q28 55 90 55q40 0 72.5 -30t32.5 -74q0 -24 -13 -50l-112 -206q-14 -25 -38 -39.5t-52 -14.5q-40 0 -71.5 30.5t-31.5 76.5zM143 86v915q0 43 31 73t74 30q42 0 72 -30t30 -73v-915q0 -41 -30.5 -71.5t-71.5 -30.5q-43 0 -74 30.5t-31 71.5z M201 1313q0 -18 13 -29.5t26 -11.5q26 0 36 20l115 207q4 12 4 19q0 20 -13 30.5t-28 10.5q-25 0 -37 -21l-112 -207q-4 -6 -4 -18zM205 86q0 -15 13 -28t30 -13q15 0 27 13t12 28v915q0 15 -12 28t-27 13q-17 0 -30 -13t-13 -28v-915z" />
<glyph unicode="&#xee;" d="M-20 1323q0 46 30 76l170 162q28 28 72 28q42 0 70 -28l170 -162q30 -30 30 -76q0 -44 -30.5 -73t-71.5 -29q-44 0 -72 28l-98 94l-96 -94q-28 -28 -72 -28q-45 0 -73.5 31.5t-28.5 70.5zM41 1325q0 -18 12.5 -29.5t28.5 -11.5q17 0 29 12l139 136l139 -136 q12 -12 31 -12q17 0 28 12t11 29q0 18 -13 31l-167 162q-13 10 -29 10t-29 -10l-168 -162q-12 -12 -12 -31zM143 86v915q0 43 31 73t74 30q42 0 72 -30t30 -73v-915q0 -41 -30.5 -71.5t-71.5 -30.5q-43 0 -74 30.5t-31 71.5zM205 86q0 -15 13 -28t30 -13q15 0 28 13t13 28 v915q0 15 -13 28t-28 13q-17 0 -30 -13t-13 -28v-915z" />
<glyph unicode="&#xef;" d="M-18 1331v92q0 43 30.5 73t73.5 30q42 0 72 -30t30 -73v-92q0 -41 -30.5 -71.5t-71.5 -30.5q-43 0 -73.5 30.5t-30.5 71.5zM43 1331q0 -15 13 -27t30 -12q15 0 28 12t13 27v92q0 15 -13 28t-28 13q-17 0 -30 -13t-13 -28v-92zM143 86v915q0 43 31 73t74 30q42 0 72 -30 t30 -73v-915q0 -41 -30.5 -71.5t-71.5 -30.5q-43 0 -74 30.5t-31 71.5zM205 86q0 -15 13 -28t30 -13q15 0 28 13t13 28v915q0 15 -13 28t-28 13q-17 0 -30 -13t-13 -28v-915zM313 1331v92q0 43 31 73t74 30q42 0 72 -30t30 -73v-92q0 -41 -30.5 -71.5t-71.5 -30.5 q-43 0 -74 30.5t-31 71.5zM375 1331q0 -15 13 -27t30 -12q15 0 28 12t13 27v92q0 15 -13 28t-28 13q-17 0 -30 -13t-13 -28v-92z" />
<glyph unicode="&#xf0;" horiz-adv-x="1173" d="M86 506q0 239 126.5 387.5t340.5 148.5q120 0 209 -45q-45 111 -92 164l-92 -63q-20 -13 -41 -13q-33 0 -52.5 20t-19.5 50q0 36 29 59l55 39q-65 31 -131 31q-43 0 -73 29.5t-30 72.5q0 42 29.5 72.5t71.5 32.5q180 -3 317 -109l105 74q17 14 43 14q31 0 51 -21.5 t20 -51.5q0 -37 -30 -58l-82 -57q101 -127 147.5 -312.5t46.5 -383.5q-3 -201 -37 -299q-52 -155 -165 -236.5t-271 -81.5q-97 0 -183 36t-151 102.5t-103 169.5t-38 229zM147 508q0 -213 113 -344t301 -131q227 0 340 192q74 116 70 346q0 81 -8 163t-28.5 183.5t-64.5 196 t-108 160.5l137 98q14 8 14 27q0 14 -9.5 23.5t-22.5 9.5q-11 0 -21 -7l-149 -104q-135 106 -293 109q-15 0 -28 -11t-13 -30q0 -18 11.5 -29.5t29.5 -11.5q118 -3 221 -76l-123 -88q-14 -10 -14 -27q0 -13 10 -23t25 -10q9 0 18 6l139 97q135 -132 174 -430 q-101 184 -315 184q-189 0 -297.5 -131.5t-108.5 -341.5zM229 508q0 176 84.5 283.5t239.5 107.5q173 0 264 -137l3 -4q3 -5 7 -12t9 -17.5t11 -23.5t11.5 -29t10.5 -35t9 -39.5t6.5 -44.5t2.5 -49q0 -28 -2 -54.5t-6 -48t-9 -41.5t-10.5 -36.5t-11 -29.5t-11 -23.5t-9 -17 t-6.5 -11.5l-3 -4q-49 -65 -110 -96t-148 -31q-157 0 -244.5 109t-87.5 284zM293 506q0 -150 69 -240t199 -90q72 0 120.5 23t86.5 77q57 86 57 230q-4 124 -61 219q-72 111 -211 111q-129 0 -194.5 -89t-65.5 -241z" />
<glyph unicode="&#xf1;" horiz-adv-x="1103" d="M143 86v915q0 43 31 73t74 30q32 0 58.5 -19t37.5 -47q101 75 260 78q177 0 277 -106q44 -46 68.5 -108.5t28 -97.5t1.5 -59v-659q0 -43 -29.5 -72.5t-72.5 -29.5t-74 30t-31 72v666q0 73 -41 116q-41 41 -127 41q-131 0 -201 -98q-27 -36 -40 -76t-13 -59v-590 q0 -41 -30.5 -71.5t-71.5 -30.5q-43 0 -74 30.5t-31 71.5zM207 88q0 -16 12 -28.5t29 -12.5t29 12.5t12 28.5v590q0 38 20 88.5t45 83.5q88 123 252 123q113 0 172 -62q26 -28 40.5 -70t16 -59.5t1.5 -29.5v-664q0 -17 12 -29t29 -12t29 12t12 29v662q0 135 -80 219 q-83 86 -232 86q-209 0 -317 -174v123q0 15 -12 27.5t-29 12.5t-29 -12.5t-12 -27.5v-916zM209 1321q0 14 2 22q19 89 85 144t153 55q95 0 161 -63q2 -2 16.5 -19t26 -27t19.5 -10q14 0 23.5 11.5t13.5 25.5q7 35 36 58.5t64 23.5q43 0 73.5 -30.5t30.5 -71.5q0 -15 -2 -23 q-20 -88 -86.5 -143t-152.5 -55q-108 0 -180 81q-1 1 -5.5 7.5t-9 12.5t-12.5 11.5t-16 5.5q-14 0 -23.5 -11.5t-13.5 -25.5q-7 -36 -36.5 -58.5t-66.5 -22.5q-42 0 -71 30.5t-29 71.5zM270 1321q0 -16 12 -28.5t29 -12.5q13 0 24.5 9.5t14.5 23.5q9 37 36.5 61.5t62.5 24.5 q46 0 83 -47q55 -72 140 -72q63 0 113 41.5t65 105.5q2 4 2 13q-3 39 -41 39q-14 0 -26 -9t-15 -22q-8 -37 -35 -61.5t-63 -24.5q-47 0 -86 51q-54 68 -137 68q-62 0 -111 -40t-66 -104q0 -1 -1 -7.5t-1 -8.5z" />
<glyph unicode="&#xf2;" horiz-adv-x="1189" d="M82 543q0 253 144 413t370 160t369 -160t143 -413q0 -252 -143 -412t-369 -160t-370 160t-144 412zM143 543q0 -226 127 -368t326 -142q198 0 323 141.5t125 368.5q0 228 -124.5 369t-323.5 141t-326 -141.5t-127 -368.5zM225 543q0 193 101.5 310.5t269.5 117.5 q167 0 267 -118t100 -310t-100 -310t-267 -118q-168 0 -269.5 118.5t-101.5 309.5zM289 543q0 -166 84 -265.5t223 -99.5t222 99.5t83 265.5q0 167 -83 266.5t-222 99.5q-140 0 -223.5 -99.5t-83.5 -266.5zM436 1497q0 44 33 74.5t72 30.5q61 0 90 -56l112 -207 q13 -23 13 -45q0 -45 -32 -75.5t-71 -30.5q-28 0 -53.5 14.5t-38.5 38.5l-112 207q-13 26 -13 49zM498 1497q0 -6 4 -18l114 -207q10 -21 37 -21q13 0 26 11.5t13 29.5q0 13 -4 19l-113 207q-11 20 -36 20q-15 0 -28 -10.5t-13 -30.5z" />
<glyph unicode="&#xf3;" horiz-adv-x="1189" d="M82 543q0 253 144 413t370 160t369 -160t143 -413q0 -252 -143 -412t-369 -160t-370 160t-144 412zM143 543q0 -226 127 -367t326 -141t323.5 140.5t124.5 367.5q0 228 -124.5 370t-323.5 142t-326 -142t-127 -370zM225 543q0 193 101.5 311.5t269.5 118.5t267.5 -118.5 t99.5 -311.5q0 -192 -99.5 -309t-267.5 -117t-269.5 117.5t-101.5 308.5zM289 543q0 -166 84 -265.5t223 -99.5t222 99.5t83 265.5q0 167 -83 266.5t-222 99.5q-140 0 -223.5 -99.5t-83.5 -266.5zM436 1315q0 27 10 45l113 207q28 55 90 55q40 0 72.5 -30t32.5 -74 q0 -24 -13 -50l-112 -206q-14 -25 -38 -39.5t-52 -14.5q-40 0 -71.5 30.5t-31.5 76.5zM498 1313q0 -18 13 -29.5t26 -11.5q26 0 36 20l115 207q4 12 4 19q0 20 -13 30.5t-28 10.5q-25 0 -37 -21l-112 -207q-4 -6 -4 -18z" />
<glyph unicode="&#xf4;" horiz-adv-x="1189" d="M82 543q0 253 144 413t370 160t369 -160t143 -413q0 -252 -143 -412t-369 -160t-370 160t-144 412zM145 543q0 -226 126 -368t325 -142t325 142t126 368q0 150 -57.5 267t-160 180.5t-233.5 62.5q-199 0 -325 -141t-126 -369zM227 543q0 193 100.5 310.5t268.5 117.5 t268.5 -117.5t100.5 -310.5q0 -192 -100.5 -310t-268.5 -118t-268.5 118t-100.5 310zM289 543q0 -166 84 -265.5t223 -99.5t222 99.5t83 265.5q0 167 -83 266.5t-222 99.5q-140 0 -223.5 -99.5t-83.5 -266.5zM324 1323q0 46 30 76l170 162q28 28 72 28q42 0 70 -28l170 -162 q30 -30 30 -76q0 -44 -30.5 -73t-71.5 -29q-44 0 -72 28l-98 94l-96 -94q-28 -28 -72 -28q-45 0 -73.5 31.5t-28.5 70.5zM385 1325q0 -18 12.5 -29.5t28.5 -11.5q17 0 29 12l139 136l139 -136q12 -12 31 -12q17 0 28 12t11 29q0 19 -12 31l-168 162q-13 10 -29 10t-29 -10 l-168 -162q-12 -12 -12 -31z" />
<glyph unicode="&#xf5;" horiz-adv-x="1189" d="M82 543q0 253 144 413t370 160t369 -160t143 -413q0 -252 -143 -412t-369 -160t-370 160t-144 412zM143 543q0 -226 127 -368t326 -142q198 0 323 141.5t125 368.5q0 228 -124.5 369t-323.5 141t-326 -141.5t-127 -368.5zM225 543q0 193 101.5 310.5t269.5 117.5 t267.5 -117.5t99.5 -310.5q0 -192 -100 -310t-267 -118q-168 0 -269.5 118.5t-101.5 309.5zM242 1321q0 14 2 22q19 89 84.5 144t152.5 55q96 0 162 -63q2 -2 16.5 -19t26 -27t19.5 -10q14 0 23 11.5t13 25.5q7 35 36.5 58.5t64.5 23.5q43 0 73.5 -30.5t30.5 -71.5 q0 -15 -2 -23q-20 -88 -86.5 -143t-152.5 -55q-109 0 -181 81q-1 1 -5.5 7.5t-9 12.5t-12.5 11.5t-16 5.5q-14 0 -23.5 -11.5t-13.5 -25.5q-7 -36 -36 -58.5t-66 -22.5q-42 0 -71 30.5t-29 71.5zM289 543q0 -166 84 -265.5t223 -99.5t222 99.5t83 265.5q0 167 -83 266.5 t-222 99.5q-140 0 -223.5 -99.5t-83.5 -266.5zM303 1321q0 -16 12 -28.5t29 -12.5q13 0 24.5 9.5t14.5 23.5q9 37 36 61.5t62 24.5q47 0 84 -47q55 -72 140 -72q63 0 113 41.5t65 105.5q2 4 2 13q-3 39 -41 39q-14 0 -26 -9t-15 -22q-8 -37 -35 -61.5t-63 -24.5 q-48 0 -87 51q-54 68 -137 68q-62 0 -110.5 -40t-65.5 -104q0 -1 -1 -7.5t-1 -8.5z" />
<glyph unicode="&#xf6;" horiz-adv-x="1189" d="M82 543q0 253 144 413t370 160t369 -160t143 -413q0 -252 -143 -412t-369 -160t-370 160t-144 412zM145 543q0 -226 126 -368t325 -142t325 142t126 368q0 150 -57.5 267t-160 180.5t-233.5 62.5q-199 0 -325 -141t-126 -369zM227 543q0 193 100.5 310.5t268.5 117.5 t268.5 -117.5t100.5 -310.5q0 -192 -100.5 -310t-268.5 -118t-268.5 118t-100.5 310zM289 543q0 -166 84 -265.5t223 -99.5t222 99.5t83 265.5q0 167 -83 266.5t-222 99.5q-140 0 -223.5 -99.5t-83.5 -266.5zM326 1296v93q0 43 30.5 72.5t73.5 29.5q42 0 72 -30t30 -72v-93 q0 -41 -30.5 -71.5t-71.5 -30.5q-43 0 -73.5 30.5t-30.5 71.5zM387 1296q0 -15 13 -27t30 -12q15 0 28 12t13 27v93q0 15 -13 28t-28 13q-17 0 -30 -13t-13 -28v-93zM657 1296v93q0 42 31 72t74 30q42 0 72 -30t30 -72v-93q0 -41 -30.5 -71.5t-71.5 -30.5q-43 0 -74 30.5 t-31 71.5zM719 1296q0 -15 13 -27t30 -12q15 0 28 12t13 27v93q0 15 -13 28t-28 13q-17 0 -30 -13t-13 -28v-93z" />
<glyph unicode="&#xf7;" horiz-adv-x="1269" d="M102 731q0 43 30 74t73 31h860q42 0 72 -31t30 -74t-29.5 -72.5t-72.5 -29.5h-860q-43 0 -73 29.5t-30 72.5zM164 731q0 -17 12 -28t29 -11h860q17 0 29 11t12 28t-12 30t-29 13h-860q-17 0 -29 -13t-12 -30zM487 305v45q0 47 34 80t81 33h45q47 0 81 -33t34 -80v-45 q0 -47 -33.5 -79.5t-81.5 -32.5h-45q-48 0 -81.5 32.5t-33.5 79.5zM487 1141v45q0 47 33.5 79.5t81.5 32.5h45q48 0 81.5 -32.5t33.5 -79.5v-45q0 -47 -34 -80t-81 -33h-45q-47 0 -81 33t-34 80zM549 305q0 -22 15 -36.5t38 -14.5h45q22 0 37.5 14.5t15.5 36.5v45 q0 20 -15.5 35.5t-37.5 15.5h-45q-23 0 -38 -14.5t-15 -36.5v-45zM549 1141q0 -22 15 -36.5t38 -14.5h45q22 0 37.5 14.5t15.5 36.5v45q0 20 -15.5 35.5t-37.5 15.5h-45q-23 0 -38 -14.5t-15 -36.5v-45z" />
<glyph unicode="&#xf8;" horiz-adv-x="1189" d="M82 543q0 253 144 413t370 160q103 0 190 -35l45 78q29 51 93 51q44 0 73 -29.5t29 -72.5q0 -28 -14 -53l-54 -92q71 -76 110.5 -184.5t39.5 -235.5q0 -252 -143 -412t-369 -160q-103 0 -190 35l-41 -69q-32 -52 -89 -52q-40 0 -72 29.5t-32 73.5q0 29 14 51l47 84 q-72 76 -111.5 184.5t-39.5 235.5zM143 543q0 -129 45 -235t125 -173l-73 -127q-4 -8 -4 -20q0 -17 11.5 -29t28.5 -12q22 0 35 20l70 121q92 -53 215 -53q199 0 323.5 140.5t124.5 367.5q0 130 -42.5 235t-120.5 174l75 133q7 11 7 23q0 18 -11.5 29.5t-29.5 11.5 q-21 0 -35 -21l-76 -129q-98 56 -215 56q-199 0 -326 -142t-127 -370zM225 543q0 193 101.5 311.5t269.5 118.5q95 0 176 -43l-418 -723q-62 56 -95.5 142.5t-33.5 193.5zM289 543q0 -137 57 -228l336 584q-45 10 -86 10q-140 0 -223.5 -99.5t-83.5 -266.5zM422 158l416 721 q125 -116 125 -336q0 -192 -99.5 -309t-267.5 -117q-100 0 -174 41zM510 188q45 -10 86 -10q139 0 222 99.5t83 265.5q0 139 -55 227z" />
<glyph unicode="&#xf9;" horiz-adv-x="1093" d="M125 352v647q0 43 30.5 74t71.5 31q43 0 74 -31t31 -74v-655q0 -47 24 -92q41 -74 152 -74q122 0 186 101q23 37 35 80t12 61v581q0 43 31 73t74 30q42 0 72 -30t30 -73v-915q0 -41 -30.5 -71.5t-71.5 -30.5q-31 0 -56.5 16.5t-37.5 42.5q-109 -72 -248 -72 q-174 0 -276.5 110.5t-102.5 270.5zM186 352q0 -61 19.5 -117t57.5 -101.5t101 -73t142 -27.5q197 0 297 170v-117q0 -16 12 -28.5t29 -12.5t29 12.5t12 28.5v915q0 17 -12 29t-29 12t-29 -12t-12 -29v-579q0 -28 -13 -78.5t-42 -97.5q-82 -129 -240 -129q-152 0 -207 108 q-33 61 -33 119v657q0 17 -12 29t-29 12t-29 -12t-12 -29v-649zM334 1466q0 44 32.5 74.5t71.5 30.5q62 0 90 -55l113 -207q12 -21 12 -45q0 -45 -31.5 -76t-70.5 -31q-28 0 -53.5 14.5t-38.5 38.5l-113 207q-12 24 -12 49zM395 1466q0 -6 4 -18l115 -207q10 -20 37 -20 q13 0 26 11.5t13 29.5q0 12 -4 18l-113 207q-11 20 -37 20q-15 0 -28 -10.5t-13 -30.5z" />
<glyph unicode="&#xfa;" horiz-adv-x="1093" d="M125 354v647q0 43 30.5 73t71.5 30q43 0 74 -30t31 -73v-657q0 -47 24 -92q41 -74 152 -74q122 0 186 101q23 38 35 80.5t12 62.5v579q0 43 31 73t74 30q42 0 72 -30t30 -73v-915q0 -41 -30.5 -71.5t-71.5 -30.5q-31 0 -56.5 16.5t-37.5 42.5q-109 -72 -248 -72 q-174 0 -276.5 110.5t-102.5 272.5zM186 352q0 -61 19.5 -116.5t57.5 -101t101 -72.5t142 -27q198 0 297 168v-117q0 -15 12 -27t29 -12t29 12t12 27v915q0 17 -12 29t-29 12t-29 -12t-12 -29v-579q0 -28 -13 -78.5t-42 -97.5q-82 -129 -240 -129q-152 0 -207 108 q-33 61 -33 119v657q0 17 -12 29t-29 12t-29 -12t-12 -29v-649zM379 1264q0 28 10 45l113 207q28 55 90 55q40 0 72 -30.5t32 -74.5q0 -25 -12 -49l-113 -207q-29 -53 -90 -53q-40 0 -71 30.5t-31 76.5zM440 1262q0 -18 13 -29.5t26 -11.5q27 0 37 20l115 207q4 12 4 18 q0 20 -13 30.5t-28 10.5q-26 0 -37 -20l-113 -207q-4 -6 -4 -18z" />
<glyph unicode="&#xfb;" horiz-adv-x="1093" d="M125 354v647q0 43 30.5 73t73.5 30t73 -30.5t30 -74.5v-655q0 -47 26 -92q41 -74 150 -74q125 0 186 101q24 37 35.5 79t11.5 62v581q0 43 31 73t74 30q42 0 72 -30t30 -73v-915q0 -41 -30.5 -71.5t-71.5 -30.5q-31 0 -56.5 16.5t-37.5 42.5q-109 -72 -248 -72 q-174 0 -276.5 110.5t-102.5 272.5zM186 352q0 -61 19.5 -116.5t57.5 -101t101 -72.5t142 -27q198 0 297 168v-117q0 -15 12 -27t29 -12t29 12t12 27v915q0 17 -12 29t-29 12t-29 -12t-12 -29v-579q0 -28 -13 -78.5t-42 -97.5q-82 -129 -240 -129q-149 0 -207 108 q-33 61 -33 119v657q0 17 -12 29t-29 12t-29 -12t-12 -29v-649zM266 1311q0 44 31 75l170 162q29 29 72 29q40 0 69 -29l170 -162q31 -31 31 -75t-30.5 -73.5t-71.5 -29.5q-43 0 -72 29l-98 94l-97 -94q-29 -29 -71 -29q-45 0 -74 32t-29 71zM328 1313q0 -18 12.5 -29.5 t28.5 -11.5t28 12l140 135l139 -135q12 -12 31 -12q17 0 27.5 11.5t10.5 29.5t-12 30l-168 162q-15 11 -28 11q-14 0 -29 -11l-168 -162q-12 -12 -12 -30z" />
<glyph unicode="&#xfc;" horiz-adv-x="1093" d="M125 354v647q0 43 30.5 73t71.5 30q43 0 74 -30t31 -73v-657q0 -47 24 -92q41 -74 152 -74q122 0 186 101q23 38 35 80.5t12 62.5v579q0 43 31 73t74 30q42 0 72 -30t30 -73v-915q0 -41 -30.5 -71.5t-71.5 -30.5q-31 0 -56.5 16.5t-37.5 42.5q-109 -72 -248 -72 q-174 0 -276.5 110.5t-102.5 272.5zM186 352q0 -61 19.5 -117t57.5 -101.5t101 -73t142 -27.5q197 0 297 170v-117q0 -16 12 -28.5t29 -12.5t29 12.5t12 28.5v915q0 17 -12 29t-29 12t-29 -12t-12 -29v-579q0 -28 -13 -78.5t-42 -97.5q-82 -129 -240 -129q-149 0 -207 108 q-33 61 -33 119v655q0 18 -11.5 29.5t-29.5 11.5t-29.5 -11.5t-11.5 -29.5v-647zM266 1296v93q0 42 31 72t74 30q42 0 72 -30t30 -72v-93q0 -41 -30.5 -71.5t-71.5 -30.5q-43 0 -74 30.5t-31 71.5zM328 1296q0 -15 13 -27t30 -12q15 0 28 12t13 27v93q0 15 -13 28t-28 13 q-17 0 -30 -13t-13 -28v-93zM598 1296v93q0 43 30.5 72.5t73.5 29.5q42 0 72.5 -30t30.5 -72v-93q0 -41 -31 -71.5t-72 -30.5q-43 0 -73.5 30.5t-30.5 71.5zM659 1296q0 -15 13 -27t30 -12q15 0 28 12t13 27v93q0 15 -13 28t-28 13q-17 0 -30 -13t-13 -28v-93z" />
<glyph unicode="&#xfd;" horiz-adv-x="1091" d="M63 999q0 42 29.5 73.5t75.5 31.5q30 0 55.5 -16.5t38.5 -45.5l307 -682l252 676q12 32 39 50t60 18q44 0 73 -31t29 -72q0 -18 -6 -36l-381 -1018q-55 -145 -133 -203q-74 -55 -195 -55q-50 0 -86 8q-35 7 -57.5 36.5t-22.5 65.5q0 43 31.5 73t73.5 30q12 0 26.5 -3 t34.5 -3q49 0 70 14q34 27 63 110l25 66l-391 872q-11 22 -11 41zM127 1001q0 -8 4 -16l404 -897l-35 -90q-36 -102 -84 -137q-36 -29 -107 -29q-12 0 -22 1t-20 2.5t-17 2.5q-18 2 -31.5 -9.5t-13.5 -29.5q0 -34 33 -41q31 -8 71 -8q94 0 148 37q68 48 121 182l380 1018 q3 6 3 14q0 16 -11.5 28.5t-29.5 12.5q-26 0 -39 -26l-306 -819l-368 821q-14 24 -39 24q-14 0 -27.5 -11t-13.5 -30zM403 1272q0 26 11 45l112 207q28 55 90 55q40 0 72.5 -30t32.5 -74q0 -26 -12 -50l-113 -206q-14 -25 -38 -39.5t-52 -14.5q-40 0 -71.5 30.5t-31.5 76.5z M465 1270q0 -18 13 -29.5t26 -11.5q27 0 37 20l114 207q4 12 4 19q0 20 -13 30.5t-28 10.5q-24 0 -36 -21l-113 -207q-4 -6 -4 -18z" />
<glyph unicode="&#xfe;" horiz-adv-x="1228" d="M143 -209v1587q0 43 31 74t72 31q43 0 73.5 -31t30.5 -74v-348q119 86 268 86q213 0 340 -156.5t127 -416.5q0 -257 -130.5 -414.5t-342.5 -157.5q-152 0 -262 78v-258q0 -43 -29.5 -72.5t-72.5 -29.5t-74 30t-31 72zM205 -209q0 -17 12 -29t29 -12t29 12t12 29v449 q90 -207 325 -207q127 0 221 68t141.5 182.5t47.5 259.5q0 147 -44 260.5t-137 181.5t-223 68q-226 0 -331 -219v544q0 17 -12 29t-29 12t-29 -12t-12 -29v-1587zM287 535q0 119 36 216.5t112.5 158.5t182.5 61q83 0 147 -36t101 -97.5t55.5 -135.5t18.5 -159 q0 -89 -20 -165t-59.5 -135.5t-104.5 -93.5t-150 -34q-83 0 -146.5 35t-100 95.5t-54.5 133.5t-18 156zM350 520q0 -63 15 -122.5t44 -109t76.5 -80t106.5 -30.5q78 0 135.5 29.5t89.5 82t47 115.5t15 138q0 33 -3 66t-12 77.5t-27.5 81.5t-45.5 70t-72 52t-101 19 q-53 0 -99.5 -21.5t-85 -66t-61 -122t-22.5 -179.5z" />
<glyph unicode="&#xff;" horiz-adv-x="1091" d="M66 999q0 42 28.5 73.5t73.5 31.5q30 0 56 -16.5t38 -45.5l307 -682l254 676q12 32 38.5 50t58.5 18q46 0 75 -31t29 -72q0 -18 -6 -36l-383 -1018q-55 -145 -133 -203q-74 -55 -193 -55q-50 0 -86 8q-36 7 -59 36.5t-23 65.5q0 43 32 73t73 30q13 0 27.5 -3t35.5 -3 q49 0 70 14q27 22 63 110l23 66l-391 872q-8 16 -8 41zM127 1001q0 -8 4 -16l404 -897l-35 -90q-36 -102 -84 -137q-36 -29 -107 -29q-12 0 -22 1t-20 2.5t-17 2.5q-18 2 -31.5 -9.5t-13.5 -29.5q0 -34 33 -41q31 -8 71 -8q94 0 148 37q68 48 121 182l380 1018q3 6 3 14 q0 16 -11.5 28.5t-29.5 12.5q-26 0 -39 -26l-306 -819l-368 821q-14 24 -39 24q-14 0 -27.5 -11t-13.5 -30zM260 1321v92q0 43 31 73t74 30q41 0 71.5 -30t30.5 -73v-92q0 -41 -30.5 -71.5t-71.5 -30.5q-43 0 -74 30.5t-31 71.5zM322 1321q0 -15 13 -27t30 -12q15 0 28 12 t13 27v92q0 15 -13 28t-28 13q-17 0 -30 -13t-13 -28v-92zM592 1321v92q0 43 30.5 73t73.5 30q42 0 72.5 -30.5t30.5 -72.5v-92q0 -41 -31 -71.5t-72 -30.5q-43 0 -73.5 30.5t-30.5 71.5zM653 1321q0 -15 13 -27t30 -12q15 0 28 12t13 27v92q0 15 -13 28t-28 13 q-17 0 -30 -13t-13 -28v-92z" />
<glyph unicode="&#x152;" horiz-adv-x="2199" d="M102 731q0 221 73 394t205.5 269.5t301.5 96.5q221 0 377 -162v33q0 42 30 72t72 30h834q42 0 72 -30t30 -72q0 -43 -30 -74t-72 -31h-731v-378h665q43 0 74 -31t31 -74q0 -42 -31 -72t-74 -30h-665v-13v-452h751q43 0 73 -31t30 -74t-30 -72.5t-73 -29.5h-854 q-43 0 -72.5 29.5t-29.5 72.5v29q-154 -160 -377 -160q-169 0 -301 96t-205.5 269t-73.5 395zM164 731q0 -312 144.5 -505t371.5 -193q145 0 259 80.5t181 226.5v-236q0 -17 12 -29t29 -12h852q17 0 29 12t12 29t-12 29t-29 12h-811v588h727q17 0 29 12t12 29t-12 29t-29 12 h-727v506h791q17 0 29 12t12 29t-12 29t-29 12h-832q-17 0 -29 -12t-12 -29v-242q-67 146 -181 226.5t-259 80.5q-227 0 -371.5 -193t-144.5 -503zM244 731q0 268 121.5 441.5t314.5 173.5q131 0 231.5 -80t154.5 -219.5t54 -315.5q0 -269 -121.5 -441.5t-318.5 -172.5 q-193 0 -314.5 173t-121.5 441zM307 731q0 -244 105 -398.5t270 -154.5q167 0 272 154t105 399t-105 399t-272 154q-165 0 -270 -154.5t-105 -398.5z" />
<glyph unicode="&#x153;" horiz-adv-x="1970" d="M82 543q0 253 144 413t370 160q129 0 235.5 -55.5t174.5 -155.5q26 39 61 74q64 64 151.5 100.5t188.5 36.5q201 0 326 -125q146 -149 155 -430q0 -45 -28 -76q-30 -30 -74 -30h-672q19 -132 97.5 -204.5t205.5 -72.5q37 0 70.5 7.5t69 25t64 53.5t44.5 86q10 33 38 52.5 t62 19.5q42 0 72.5 -29t30.5 -71q0 -15 -6 -33q-46 -149 -164 -233.5t-281 -84.5q-135 0 -241.5 53.5t-174.5 153.5q-68 -98 -173 -152.5t-232 -54.5q-226 0 -370 160t-144 412zM143 543q0 -226 127 -367t326 -141q141 0 248 74t160 204q48 -133 154 -205.5t259 -72.5 q144 0 244.5 72t140.5 198l2 14q0 18 -11.5 29.5t-29.5 11.5q-30 0 -39 -28q-33 -107 -113.5 -161t-193.5 -54q-172 0 -268 107t-102 292h739q17 0 29 12q10 10 10 31q-6 247 -127 377q-110 119 -291 119q-95 0 -172 -35.5t-125 -85.5q-63 -60 -106 -166q-50 133 -158.5 210 t-249.5 77q-199 0 -326 -142t-127 -370zM225 543q0 193 101.5 311.5t269.5 118.5q168 -1 267.5 -118.5t99.5 -313.5q0 -192 -100.5 -308.5t-266.5 -115.5q-168 0 -269.5 117.5t-101.5 308.5zM289 543q0 -166 84 -265.5t223 -99.5t222 99.5t83 265.5q0 167 -83 266.5 t-222 99.5q-140 0 -223.5 -99.5t-83.5 -266.5zM1049 598q12 169 112.5 272t243.5 103q155 0 238.5 -98t97.5 -277h-692zM1120 662h551q-24 127 -86.5 187t-177.5 60q-108 0 -184.5 -66t-102.5 -181z" />
<glyph unicode="&#x178;" horiz-adv-x="1275" d="M41 1380q0 44 32 73.5t72 29.5q50 0 82 -43l412 -570l410 570q32 43 84 43q40 0 71 -28.5t31 -72.5q0 -40 -18 -63l-476 -660v-573q0 -43 -30.5 -72.5t-73.5 -29.5q-42 0 -72 30t-30 72v573l-474 660q-20 26 -20 61zM102 1380q0 -15 9 -24l485 -674v-596q0 -17 12 -28 t29 -11t29 11t12 28v596l485 674q8 11 8 24q0 17 -12 29t-29 12q-18 0 -32 -18l-461 -639l-461 639q-11 16 -33 16q-17 0 -29 -11t-12 -28zM369 1507v92q0 43 30.5 73t73.5 30q41 0 71.5 -30t30.5 -73v-92q0 -41 -30.5 -71.5t-71.5 -30.5q-43 0 -73.5 30.5t-30.5 71.5z M430 1507q0 -15 13 -28t30 -13q15 0 28 13t13 28v92q0 15 -13 27t-28 12q-17 0 -30 -12t-13 -27v-92zM700 1507v92q0 43 31 73t74 30q41 0 71.5 -30t30.5 -73v-92q0 -41 -30.5 -71.5t-71.5 -30.5q-43 0 -74 30.5t-31 71.5zM762 1507q0 -15 13 -28t30 -13q15 0 28 13t13 28 v92q0 15 -13 27t-28 12q-17 0 -30 -12t-13 -27v-92z" />
<glyph unicode="&#x2c6;" horiz-adv-x="952" d="M205 1585q0 45 31 76l170 162q28 28 71 28q42 0 70 -28l170 -162q31 -31 31 -76q0 -44 -31 -73t-72 -29q-44 0 -72 28l-98 95l-96 -95q-28 -28 -72 -28q-45 0 -73.5 31.5t-28.5 70.5zM266 1587q0 -18 12.5 -29.5t28.5 -11.5t29 13l139 135l139 -135q13 -13 31 -13 q17 0 28 12t11 29q0 19 -12 31l-168 162q-13 10 -29 10t-29 -10l-167 -162q-13 -13 -13 -31z" />
<glyph unicode="&#x2dc;" horiz-adv-x="1228" d="M268 1585q0 15 2 23q19 89 85 143.5t153 54.5q96 0 162 -63q3 -3 17 -19.5t25 -26t19 -9.5q14 0 24 11t13 25q7 35 36 58.5t64 23.5q44 0 74.5 -31t30.5 -71q0 -15 -2 -23q-20 -88 -87 -143t-153 -55q-107 0 -180 82q-1 1 -5.5 7.5t-9 12.5t-12.5 11.5t-16 5.5 q-14 0 -23.5 -11.5t-13.5 -25.5q-7 -36 -36 -59t-66 -23q-42 0 -71.5 30.5t-29.5 71.5zM330 1585q0 -16 12 -28.5t29 -12.5q13 0 24.5 9.5t14.5 23.5q9 37 36 61.5t62 24.5q47 0 84 -47q55 -72 139 -72q63 0 113 41.5t65 106.5q2 4 2 12q-3 39 -41 39q-14 0 -26 -9t-15 -22 q-8 -37 -35 -61.5t-63 -24.5q-47 0 -86 51q-54 68 -137 68q-62 0 -110.5 -39.5t-65.5 -103.5q0 -1 -1 -8t-1 -9z" />
<glyph unicode="&#x2000;" horiz-adv-x="956" />
<glyph unicode="&#x2001;" horiz-adv-x="1913" />
<glyph unicode="&#x2002;" horiz-adv-x="956" />
<glyph unicode="&#x2003;" horiz-adv-x="1913" />
<glyph unicode="&#x2004;" horiz-adv-x="637" />
<glyph unicode="&#x2005;" horiz-adv-x="478" />
<glyph unicode="&#x2006;" horiz-adv-x="318" />
<glyph unicode="&#x2007;" horiz-adv-x="318" />
<glyph unicode="&#x2008;" horiz-adv-x="239" />
<glyph unicode="&#x2009;" horiz-adv-x="382" />
<glyph unicode="&#x200a;" horiz-adv-x="106" />
<glyph unicode="&#x2010;" horiz-adv-x="901" d="M102 614q0 43 30 74t73 31h491q43 0 73 -31t30 -74t-30 -72.5t-73 -29.5h-491q-43 0 -73 29.5t-30 72.5zM164 614q0 -17 12 -28t29 -11h491q17 0 29 11t12 28t-12 30t-29 13h-491q-17 0 -29 -13t-12 -30z" />
<glyph unicode="&#x2011;" horiz-adv-x="901" d="M102 614q0 43 30 74t73 31h491q43 0 73 -31t30 -74t-30 -72.5t-73 -29.5h-491q-43 0 -73 29.5t-30 72.5zM164 614q0 -17 12 -28t29 -11h491q17 0 29 11t12 28t-12 30t-29 13h-491q-17 0 -29 -13t-12 -30z" />
<glyph unicode="&#x2012;" horiz-adv-x="901" d="M102 614q0 43 30 74t73 31h491q43 0 73 -31t30 -74t-30 -72.5t-73 -29.5h-491q-43 0 -73 29.5t-30 72.5zM164 614q0 -17 12 -28t29 -11h491q17 0 29 11t12 28t-12 30t-29 13h-491q-17 0 -29 -13t-12 -30z" />
<glyph unicode="&#x2013;" horiz-adv-x="1269" d="M102 614q0 43 30 74t73 31h860q42 0 72 -31t30 -74t-29.5 -72.5t-72.5 -29.5h-860q-43 0 -73 29.5t-30 72.5zM164 614q0 -17 12 -28t29 -11h860q17 0 29 11t12 28t-12 30t-29 13h-860q-17 0 -29 -13t-12 -30z" />
<glyph unicode="&#x2014;" horiz-adv-x="1964" d="M102 614q0 43 30 74t73 31h1554q43 0 73 -31t30 -74t-30 -72.5t-73 -29.5h-1554q-43 0 -73 29.5t-30 72.5zM164 614q0 -17 11.5 -28t29.5 -13h1554q17 0 29 12t12 29t-12 29t-29 12h-1554q-17 1 -29 -11t-12 -30z" />
<glyph unicode="&#x2018;" horiz-adv-x="493" d="M111 1137q0 268 157 344q23 10 45 10q45 0 74 -31.5t29 -70.5q0 -30 -15.5 -56t-44.5 -39q-22 -13 -32 -73q-4 -22 -5.5 -46t-1 -37t2.5 -36.5t2 -26.5q2 -40 -29 -71t-76 -31q-33 0 -61 19.5t-37 51.5q-8 24 -8 93zM172 1135q0 -57 6 -72q3 -12 14.5 -20.5t24.5 -8.5 q18 0 29.5 11.5t11.5 27.5q0 4 -2 32.5t-1 60t7 65.5q8 50 27 80t39 39q26 13 26 39q0 18 -11.5 29.5t-29.5 11.5q-4 0 -18 -7q-123 -57 -123 -288z" />
<glyph unicode="&#x2019;" d="M57 1075q0 29 16 55t44 39q22 13 35 74q5 28 5.5 55.5t-1.5 55t-2 35.5q-2 41 27.5 71.5t74.5 30.5q34 0 62 -20t38 -52q9 -27 9 -92q0 -267 -160 -344q-23 -10 -43 -10q-47 0 -76 31t-29 71zM119 1073q0 -16 11.5 -28.5t29.5 -12.5q6 0 18 6q123 59 123 289q0 60 -6 72 q-3 13 -14 22t-25 9q-18 0 -29.5 -11.5t-11.5 -29.5q0 -4 2 -32.5t1 -60t-7 -65.5q-8 -49 -27 -79.5t-39 -39.5q-26 -10 -26 -39z" />
<glyph unicode="&#x201a;" d="M57 -96q0 29 16 55t44 39q22 13 35 76q5 28 5.5 55.5t-1.5 54t-2 33.5q-2 41 28 73t74 32q34 0 62 -20.5t38 -53.5q9 -27 9 -90q0 -269 -160 -346q-26 -11 -43 -11q-47 0 -76 31.5t-29 71.5zM119 -96q0 -18 11.5 -29.5t29.5 -11.5q6 0 18 6q123 57 123 289q0 56 -6 71 q-3 12 -14.5 20.5t-24.5 8.5q-18 0 -29.5 -11.5t-11.5 -27.5q0 -4 2 -32.5t1 -60t-7 -65.5q-8 -50 -27 -79.5t-39 -38.5q-26 -13 -26 -39z" />
<glyph unicode="&#x201c;" horiz-adv-x="755" d="M111 1137q0 268 157 344q23 10 45 10q45 0 74 -31.5t29 -70.5q0 -30 -15.5 -56t-44.5 -39q-22 -13 -32 -73q-4 -22 -5.5 -46t-1 -37t2.5 -36.5t2 -26.5q2 -40 -29 -71t-76 -31q-33 0 -61 19.5t-37 51.5q-8 24 -8 93zM172 1135q0 -57 6 -72q3 -12 14.5 -20.5t24.5 -8.5 q18 0 29.5 11.5t11.5 27.5q0 4 -2 32.5t-1 60t7 65.5q8 50 27 80t39 39q26 13 26 39q0 18 -11.5 29.5t-29.5 11.5q-4 0 -18 -7q-123 -57 -123 -288zM393 1137q0 268 158 344q23 10 45 10q45 0 73.5 -31.5t28.5 -70.5q0 -30 -15.5 -56t-43.5 -39q-23 -14 -33 -73 q-4 -22 -5.5 -46t-1 -37t2.5 -36.5t2 -26.5q2 -41 -28.5 -71.5t-75.5 -30.5q-33 0 -61.5 20t-37.5 51q-8 24 -8 93zM455 1135q0 -57 6 -72q3 -12 14.5 -20.5t24.5 -8.5q18 0 29.5 11.5t11.5 27.5q0 4 -2 32.5t-1 60t7 65.5q8 50 26.5 80t38.5 39q25 12 25 39 q0 18 -10.5 29.5t-30.5 11.5q-2 0 -16 -7q-123 -57 -123 -288z" />
<glyph unicode="&#x201d;" horiz-adv-x="755" d="M57 1075q0 29 16 55t44 39q22 13 35 74q5 28 5.5 55.5t-1.5 55t-2 35.5q-2 41 27.5 71.5t74.5 30.5q34 0 62 -20t38 -52q9 -27 9 -92q0 -267 -160 -344q-23 -10 -43 -10q-47 0 -76 31t-29 71zM121 1075q0 -18 10.5 -29.5t30.5 -11.5q8 0 16 4q123 59 123 289q0 60 -6 72 q-3 13 -14 22t-25 9q-18 0 -29.5 -11.5t-11.5 -27.5q0 -5 2 -34t1 -60.5t-7 -65.5q-8 -49 -27 -79.5t-39 -39.5q-24 -9 -24 -37zM340 1075q0 30 16 55.5t43 38.5q22 13 35 74q5 28 5.5 55.5t-1.5 55t-2 35.5q-2 41 28 71.5t75 30.5q34 0 62 -20t38 -52q8 -24 8 -92 q0 -267 -160 -344q-23 -10 -43 -10q-47 0 -75.5 31t-28.5 71zM401 1073q0 -16 11.5 -28.5t29.5 -12.5q7 0 19 6q123 59 123 289q0 60 -6 72q-3 13 -14 22t-25 9q-18 0 -29.5 -11.5t-11.5 -29.5q0 -4 2 -32.5t1 -60t-7 -65.5q-8 -49 -27 -79.5t-39 -39.5q-27 -10 -27 -39z " />
<glyph unicode="&#x201e;" horiz-adv-x="755" d="M57 -96q0 29 16 55t44 39q22 13 35 76q5 28 5.5 55.5t-1.5 54t-2 33.5q-2 41 28 73t74 32q34 0 62 -20.5t38 -53.5q9 -27 9 -90q0 -269 -160 -346q-26 -11 -43 -11q-47 0 -76 31.5t-29 71.5zM121 -96q0 -18 10.5 -29.5t30.5 -11.5q4 0 16 6q123 57 123 289q0 56 -6 71 q-3 12 -14.5 20.5t-24.5 8.5q-18 0 -29.5 -11.5t-11.5 -27.5q0 -4 2 -32.5t1 -60t-7 -65.5q-8 -50 -27 -79.5t-39 -38.5q-24 -12 -24 -39zM340 -96q0 30 16 55.5t43 38.5q22 13 35 76q5 28 5.5 55.5t-1.5 54t-2 33.5q-2 41 28 73t75 32q34 0 62 -20.5t38 -53.5q8 -24 8 -90 q0 -269 -160 -346q-26 -11 -43 -11q-47 0 -75.5 31.5t-28.5 71.5zM401 -96q0 -18 11.5 -29.5t29.5 -11.5q7 0 19 6q123 57 123 289q0 56 -6 71q-3 12 -14.5 20.5t-24.5 8.5q-18 0 -29.5 -11.5t-11.5 -27.5q0 -4 2 -32.5t1 -60t-7 -65.5q-8 -50 -27 -79.5t-39 -38.5 q-27 -13 -27 -39z" />
<glyph unicode="&#x2022;" horiz-adv-x="589" d="M74 666q0 91 65.5 156t157.5 65q91 0 155 -65t64 -156t-64 -155.5t-155 -64.5q-92 0 -157.5 64.5t-65.5 155.5zM137 666q0 -64 47 -110t113 -46q65 0 111.5 46t46.5 110q0 65 -47 112t-111 47q-66 0 -113 -47t-47 -112z" />
<glyph unicode="&#x2026;" horiz-adv-x="2168" d="M307 96v45q0 47 34 81t81 34h45q47 0 82 -34t35 -81v-45q0 -47 -34.5 -79.5t-82.5 -32.5h-45q-48 0 -81.5 32.5t-33.5 79.5zM371 96q0 -22 14 -35.5t37 -13.5h45q23 0 38 13.5t15 35.5v45q0 22 -15 37t-38 15h-45q-22 0 -36.5 -15t-14.5 -37v-45zM942 96v45q0 47 34 81 t81 34h45q47 0 82 -34t35 -81v-45q0 -47 -34.5 -79.5t-82.5 -32.5h-45q-48 0 -81.5 32.5t-33.5 79.5zM1006 96q0 -22 14 -35.5t37 -13.5h45q23 0 38 13.5t15 35.5v45q0 22 -15 37t-38 15h-45q-22 0 -36.5 -15t-14.5 -37v-45zM1587 96v45q0 47 34 81t81 34h45q47 0 81 -34 t34 -81v-45q0 -47 -33.5 -79.5t-81.5 -32.5h-45q-48 0 -81.5 32.5t-33.5 79.5zM1649 96q0 -22 15 -35.5t38 -13.5h45q22 0 37.5 14t15.5 35v45q0 22 -15.5 37t-37.5 15h-45q-23 0 -38 -15t-15 -37v-45z" />
<glyph unicode="&#x202f;" horiz-adv-x="382" />
<glyph unicode="&#x2039;" horiz-adv-x="692" d="M123 582q0 50 37 77l239 205q28 25 66 25q45 0 74.5 -30.5t29.5 -72.5q0 -49 -37 -79l-147 -125l147 -125q37 -30 37 -80q0 -42 -29.5 -72.5t-74.5 -30.5q-38 0 -66 25l-239 203q-37 30 -37 80zM184 582q0 -21 17 -31l239 -205q10 -10 25 -10q18 0 30.5 12.5t12.5 30.5 t-16 31l-203 172l205 174q14 11 14 32q0 15 -11.5 28t-29.5 13q-14 0 -27 -10l-241 -207q-15 -15 -15 -30z" />
<glyph unicode="&#x203a;" horiz-adv-x="692" d="M123 377q0 50 37 80l147 125l-147 125q-37 30 -37 79q0 42 29.5 72.5t74.5 30.5q38 0 66 -25l239 -205q37 -27 37 -77t-37 -80l-239 -203q-28 -25 -66 -25q-45 0 -74.5 30.5t-29.5 72.5zM184 379q0 -18 12.5 -30.5t30.5 -12.5q15 0 25 10l240 205q16 10 16 31 q0 16 -14 30l-242 207q-13 10 -27 10q-18 0 -29.5 -13t-11.5 -28q0 -20 15 -32l204 -174l-202 -172q-17 -14 -17 -31z" />
<glyph unicode="&#x205f;" horiz-adv-x="478" />
<glyph unicode="&#x20ac;" horiz-adv-x="1452" d="M102 578q0 31 23 53t55 22h137q-4 70 -4 146h-133q-32 0 -55 23t-23 55q0 31 23 53t55 22h148q30 204 127 346q75 108 183.5 165t238.5 57q150 0 267.5 -74t188.5 -205q13 -21 13 -49q0 -49 -32.5 -77t-70.5 -28q-61 0 -90 56q-93 170 -276 170q-76 0 -136.5 -29.5 t-100 -82t-64.5 -114t-39 -135.5h460q32 0 55 -22t23 -53q0 -32 -23 -55t-55 -23h-477q0 -76 4 -146h377q31 0 53.5 -22t22.5 -53q0 -32 -22.5 -55t-53.5 -23h-350q38 -145 120 -219t203 -74q191 0 281 170q28 55 90 55q40 0 72.5 -30t32.5 -74q0 -23 -13 -49 q-72 -134 -191.5 -206.5t-271.5 -72.5q-411 0 -536 500h-158q-32 0 -55 23t-23 55zM143 578q0 -15 10.5 -25t24.5 -10h215q19 -102 55 -185t92.5 -151t141 -106t190.5 -38q136 0 241 62.5t169 183.5q4 8 4 19q0 15 -10.5 26t-24.5 13q-12 3 -24.5 -3t-18.5 -18 q-109 -201 -336 -201q-163 0 -262 108t-133 290h422q14 0 24.5 10t10.5 25q0 13 -10.5 22.5t-24.5 9.5h-434q-12 115 -6 232h538q14 0 24.5 10t10.5 25q0 13 -10.5 22.5t-24.5 9.5h-532q12 96 41.5 177.5t77.5 148t122.5 104t167.5 37.5q221 0 332 -205q6 -11 18.5 -16 t24.5 -2q13 2 23 12.5t10 26.5q0 12 -4 20q-65 119 -168 181.5t-236 62.5q-233 0 -368 -192q-99 -145 -123 -355h-205q-14 0 -24.5 -9.5t-10.5 -22.5q0 -15 10.5 -25t24.5 -10h199q-6 -117 6 -232h-205q-14 0 -24.5 -9.5t-10.5 -22.5z" />
<glyph unicode="&#x2122;" horiz-adv-x="1650" d="M102 1411q0 27 22.5 49.5t49.5 22.5h471q28 0 50 -22t22 -50q0 -29 -22 -50.5t-50 -21.5h-164v-559q0 -29 -21.5 -50t-49.5 -21q-29 0 -49.5 21.5t-20.5 49.5v559h-166q-27 0 -49.5 21.5t-22.5 50.5zM139 1411q0 -14 11 -24.5t24 -10.5h203v-596q0 -14 10.5 -24.5 t24.5 -10.5q12 0 22 10t10 25v596h201q12 0 23.5 11t11.5 24t-11 24t-24 11h-471q-12 0 -23.5 -11t-11.5 -24zM819 780v631q0 28 21.5 50t50.5 22h55q20 0 39.5 -13.5t26.5 -33.5l170 -447l170 445q6 21 25.5 35t41.5 14h58q25 0 48 -22.5t23 -49.5v-631q0 -28 -22.5 -49.5 t-48.5 -21.5q-29 0 -50.5 21t-21.5 50v391l-156 -411q-8 -18 -26.5 -30.5t-38.5 -12.5q-22 0 -42 13t-26 32l-153 405v-387q0 -28 -23 -49.5t-49 -21.5q-29 0 -50.5 21t-21.5 50zM856 780q0 -14 10 -24.5t25 -10.5q13 0 24 10.5t11 24.5v576h6l219 -582q8 -20 33 -20 q22 0 30 20l220 584h8v-578q0 -14 10 -24.5t25 -10.5q13 0 23.5 10.5t10.5 24.5v631q0 12 -11.5 23.5t-22.5 11.5h-58q-23 0 -30 -21l-207 -540l-205 538q-3 9 -13 16t-18 7h-55q-12 0 -23.5 -11.5t-11.5 -23.5v-631z" />
<glyph unicode="&#xe000;" horiz-adv-x="1105" d="M0 0v1106h1106v-1106h-1106z" />
</font>
</defs>
</svg>
