<?xml version="1.0" standalone="no"?>
<!DOCTYPE svg PUBLIC "-//W3C//DTD SVG 1.1//EN" "http://www.w3.org/Graphics/SVG/1.1/DTD/svg11.dtd" >
<svg xmlns="http://www.w3.org/2000/svg">
<metadata></metadata>
<defs>
<font id="albrecht50" horiz-adv-x="1388" >
<font-face units-per-em="2048" ascent="1638" descent="-410" />
<missing-glyph horiz-adv-x="512" />
<glyph unicode="&#xfb01;" horiz-adv-x="1064" d="M72 983q0 22 14.5 36.5t36.5 14.5h90v172q0 115 61 170q63 54 181 54h32q22 -1 36 -16.5t14 -37.5q-2 -22 -17 -36t-37 -13q-45 0 -57 -4q-60 -1 -85.5 -29t-25.5 -88v-172h172q22 0 37 -14.5t15 -36.5t-15 -36.5t-37 -14.5h-172v-846q0 -22 -14.5 -36.5t-36.5 -14.5 t-36.5 14.5t-14.5 36.5v846h-90q-22 0 -36.5 14.5t-14.5 36.5zM788 86v915q0 20 15 35t37 15t36.5 -14.5t14.5 -35.5v-915q0 -21 -15 -36t-36 -15q-22 0 -37 15.5t-15 35.5zM788 1268v94q0 22 15 36.5t37 14.5q21 0 36 -15t15 -36v-94q0 -20 -15.5 -35.5t-35.5 -15.5 q-22 0 -37 15.5t-15 35.5z" />
<glyph unicode="&#xfb02;" horiz-adv-x="1085" d="M72 983q0 22 14.5 36.5t36.5 14.5h90v172q0 115 61 170q63 54 181 54h32q22 -1 36 -16.5t14 -37.5q-2 -22 -17 -36t-37 -13q-45 0 -57 -4q-60 -1 -85.5 -29t-25.5 -88v-172h172q22 0 37 -14.5t15 -36.5t-15 -36.5t-37 -14.5h-172v-846q0 -22 -14.5 -36.5t-36.5 -14.5 t-36.5 14.5t-14.5 36.5v846h-90q-22 0 -36.5 14.5t-14.5 36.5zM788 86v1292q0 22 15 37t35 15q22 0 37.5 -15t15.5 -37v-1292q0 -22 -15.5 -36.5t-37.5 -14.5q-20 0 -35 14.5t-15 36.5z" />
<glyph horiz-adv-x="2048" />
<glyph horiz-adv-x="2048" />
<glyph horiz-adv-x="682" />
<glyph unicode="&#xd;" horiz-adv-x="307" />
<glyph unicode=" "  horiz-adv-x="512" />
<glyph unicode="&#x09;" horiz-adv-x="512" />
<glyph unicode="&#xa0;" horiz-adv-x="512" />
<glyph unicode="!" horiz-adv-x="460" d="M145 96v45q0 26 19 44t45 18h45q26 0 44.5 -18t18.5 -44v-45q0 -26 -18 -42.5t-45 -16.5h-45q-27 0 -45.5 16.5t-18.5 42.5zM184 424v960q0 22 15 38t37 16q21 0 36 -16t15 -38v-960q0 -21 -15 -36t-36 -15q-22 0 -37 15.5t-15 35.5z" />
<glyph unicode="&#x22;" horiz-adv-x="716" d="M176 1147v233q0 22 14.5 37t36.5 15q21 0 36.5 -15.5t15.5 -36.5v-233q0 -20 -16 -35.5t-36 -15.5q-21 0 -36 15t-15 36zM440 1147v233q0 22 15 37t37 15q20 0 35.5 -15t15.5 -37v-233q0 -20 -15.5 -35.5t-35.5 -15.5q-22 0 -37 15t-15 36z" />
<glyph unicode="#" horiz-adv-x="1247" d="M156 553q0 23 14.5 37t36.5 14h151l43 316h-133q-22 0 -36.5 14.5t-14.5 36.5q0 23 14.5 37t36.5 14h148l49 367q3 19 17 31t34 12q25 0 39.5 -17.5t11.5 -42.5l-49 -348h266l50 365q3 19 17 31t34 12q25 0 39.5 -17.5t11.5 -42.5l-49 -350h164q22 0 36.5 -14t14.5 -37 q0 -22 -14.5 -36.5t-36.5 -14.5h-179l-43 -316h160q22 0 36.5 -14t14.5 -37q0 -21 -15 -36t-36 -15h-174l-57 -422q-3 -20 -17 -32.5t-34 -12.5q-21 0 -37.5 17.5t-12.5 43.5l56 406h-267l-57 -422q-3 -20 -17 -32.5t-34 -12.5q-21 0 -37 17.5t-12 43.5l55 406h-137 q-21 0 -36 15t-15 36zM461 604h266l43 316h-266z" />
<glyph unicode="$" horiz-adv-x="1343" d="M154 457q-3 23 12.5 40t38.5 17q19 0 33.5 -12.5t15.5 -32.5q20 -149 113.5 -234t248.5 -104v596q-115 23 -183 43t-118 55q-112 77 -112 246q0 162 116 259t297 108v178q0 21 16 36t38 15q20 0 34.5 -14.5t14.5 -36.5v-178q174 -14 284.5 -106.5t139.5 -254.5l2 -10 q-2 -21 -16 -35t-35 -14q-19 0 -34 11.5t-18 29.5q-44 250 -321 276v-524l27 -6q93 -17 145.5 -29.5t112.5 -40.5t96 -69q88 -79 88 -236q0 -186 -130.5 -293t-338.5 -112v-170q0 -21 -15.5 -36.5t-35.5 -15.5q-22 0 -37 15t-15 37v174q-199 20 -320.5 130.5t-143.5 297.5z M305 1071q0 -108 66 -160q25 -18 67 -33.5t76 -23.5t104 -23v504q-140 -10 -226.5 -76.5t-86.5 -187.5zM721 127q162 3 264 81.5t102 221.5q0 97 -45 152q-37 50 -107.5 74t-205.5 49l-8 2v-580z" />
<glyph unicode="%" horiz-adv-x="1751" d="M137 1104q0 156 72 246q73 98 203 98q127 0 202 -96q70 -92 70 -248q0 -154 -70 -246q-72 -96 -204 -96q-129 0 -201 96q-72 90 -72 246zM221 1104q0 -125 51 -195q48 -63 138 -63t139 61q51 66 51 197q0 126 -51 196q-52 64 -137 64q-51 0 -89.5 -22.5t-60 -61 t-31.5 -82.5t-10 -94zM391 78q0 11 8 22l916 1344q12 18 35 18q15 0 28 -12.5t13 -30.5q0 -8 -7 -22l-917 -1344q-12 -18 -35 -18q-17 0 -29 12t-12 31zM1069 360q0 155 70 246q75 96 202 96q131 0 203 -94q70 -95 70 -248q0 -156 -70 -247q-73 -95 -205 -95q-128 0 -200 97 q-70 88 -70 245zM1151 360q0 -128 51 -194q54 -66 137 -66q91 0 140 64q53 65 53 196q0 129 -53 197q-49 64 -138 64q-67 0 -111.5 -40.5t-61.5 -96.5t-17 -124z" />
<glyph unicode="&#x26;" horiz-adv-x="1368" d="M154 414q0 58 12 107.5t38 91.5t53.5 74t73.5 65.5t81 56t92 55.5q-72 86 -101.5 153.5t-29.5 145.5q0 121 75 199t189 78q113 0 184.5 -77.5t71.5 -201.5q0 -76 -32 -139.5t-78.5 -105.5t-118.5 -85l319 -407q53 104 53 242q0 22 15.5 38.5t38.5 16.5t40 -16t17 -39 q0 -187 -84 -347l139 -180q10 -12 10 -35q0 -25 -16 -40t-37 -15q-28 0 -45 23l-119 151q-148 -198 -407 -198q-83 0 -160 25.5t-138.5 73t-98.5 123t-37 167.5zM264 414q0 -64 23 -114t58 -80t80.5 -49.5t85 -26.5t77.5 -7q217 0 338 178l-357 457q-174 -96 -239.5 -171 t-65.5 -187zM485 1163q0 -58 25 -112.5t90 -128.5q105 62 142.5 117t37.5 122q0 22 -5 45.5t-18.5 53.5t-44.5 49.5t-75 19.5q-67 0 -109.5 -48.5t-42.5 -117.5z" />
<glyph unicode="'" horiz-adv-x="452" d="M176 1147v233q0 22 14.5 37t36.5 15q21 0 36.5 -15.5t15.5 -36.5v-233q0 -20 -16 -35.5t-36 -15.5q-21 0 -36 15t-15 36z" />
<glyph unicode="(" horiz-adv-x="716" d="M174 616q0 212 71.5 418t192.5 363q15 20 25.5 27.5t25.5 7.5q19 0 35.5 -14.5t16.5 -37.5q0 -20 -21 -45q-112 -149 -178 -334t-66 -385q0 -202 63 -397.5t173 -365.5q5 -10 11.5 -20.5t9 -15.5t4.5 -9.5t2 -8.5q3 -23 -12 -41t-38 -18q-14 0 -24 6t-14 11t-13 18 q-113 172 -188.5 388.5t-75.5 452.5z" />
<glyph unicode=")" horiz-adv-x="716" d="M176 1380q0 23 16 36.5t35 13.5q28 0 52 -33q121 -157 192.5 -363t71.5 -418q0 -236 -75.5 -452.5t-188.5 -388.5q-8 -12 -12.5 -17.5t-15 -11.5t-24.5 -6q-23 0 -37.5 18t-11.5 41q0 5 27 54q110 169 172.5 365t62.5 398q0 200 -65.5 385t-177.5 334q-21 25 -21 45z" />
<glyph unicode="*" horiz-adv-x="722" d="M125 1284q0 14 10.5 24.5t22.5 10.5q8 0 12 -2l147 -55v163q0 15 10.5 25t24.5 10t23.5 -10t9.5 -25v-163l168 55q4 2 10 2q16 0 25.5 -10.5t9.5 -22.5q0 -11 -7.5 -20.5t-17.5 -12.5l-167 -55l116 -160q6 -9 6 -20q0 -15 -10 -24t-24 -9q-18 0 -27 12l-115 158 l-114 -158q-9 -12 -27 -12q-15 0 -25 9.5t-10 23.5q0 8 6 20l115 158l-152 57q-20 7 -20 31z" />
<glyph unicode="+" horiz-adv-x="1085" d="M135 668q0 22 14.5 36.5t36.5 14.5h306v303q0 22 14.5 37.5t34.5 15.5q22 0 37.5 -15.5t15.5 -37.5v-303h303q22 0 36.5 -14.5t14.5 -36.5t-14.5 -37t-36.5 -15h-303v-305q0 -20 -15.5 -35.5t-35.5 -15.5q-21 0 -36 15t-15 36v305h-306q-22 0 -36.5 15t-14.5 37z" />
<glyph unicode="," horiz-adv-x="473" d="M109 -96q0 34 30 47q19 9 37.5 37.5t26.5 74.5q5 32 5.5 63t-1.5 59t-2 34q-2 20 13 34.5t38 14.5q39 0 49 -37q6 -15 6 -73q0 -238 -129 -299q-12 -6 -22 -6q-23 0 -37 15t-14 36z" />
<glyph unicode="-" horiz-adv-x="901" d="M154 614q0 22 15 38t36 16h491q22 0 37 -16t15 -38q0 -21 -15 -35t-37 -14h-491q-22 0 -36.5 13.5t-14.5 35.5z" />
<glyph unicode="." horiz-adv-x="481" d="M154 96v45q0 26 18.5 44t44.5 18h45q26 0 45 -18t19 -44v-45q0 -26 -18.5 -42.5t-45.5 -16.5h-45q-27 0 -45 16.5t-18 42.5z" />
<glyph unicode="/" horiz-adv-x="913" d="M135 0q0 12 2 18l543 1461q13 32 49 32q21 0 35 -14t14 -37q0 -10 -2 -16l-543 -1462q-13 -33 -47 -33q-21 0 -36 13.5t-15 37.5z" />
<glyph unicode="0" horiz-adv-x="1284" d="M156 731q0 325 133 517t354 192q224 0 355.5 -189t131.5 -520q0 -336 -130 -521t-359 -185q-224 0 -354.5 187.5t-130.5 518.5zM258 731q0 -43 3 -87t13 -106t26 -116t45.5 -109.5t68 -95.5t97.5 -65t130 -25q81 0 145.5 29.5t105 81t68.5 111.5t41.5 132.5t19 130.5 t5.5 119q0 43 -3 87t-13 106t-26 116.5t-45.5 110.5t-68 96t-97.5 65t-130 25q-84 0 -151 -36.5t-110 -95.5t-71.5 -139.5t-40.5 -163.5t-12 -171z" />
<glyph unicode="1" horiz-adv-x="792" d="M113 1122q0 21 13.5 37t33.5 17q127 9 184 51q63 47 82 162q3 19 17.5 31t33.5 12h29q20 0 35.5 -16t15.5 -36v-1294q0 -21 -15 -36t-36 -15q-22 0 -36.5 14.5t-14.5 36.5v1147q-38 -74 -101 -111q-70 -40 -186 -49q-22 -1 -37.5 13t-17.5 36z" />
<glyph unicode="2" horiz-adv-x="1218" d="M154 111q0 119 69 241q60 102 164.5 183.5t237.5 128.5q66 23 123.5 57t106.5 79t77.5 105.5t28.5 128.5q0 141 -88 223t-232 82q-156 0 -252 -86.5t-102 -246.5q-1 -22 -16 -36t-35 -14q-21 0 -36.5 15.5t-15.5 36.5q3 68 26 140.5t62 125.5q126 168 369 168 q130 0 228 -56t146 -145.5t48 -196.5q3 -146 -111 -272q-92 -132 -290 -203q-161 -61 -269.5 -164.5t-130.5 -250.5h733q21 0 36.5 -15.5t15.5 -36.5t-15.5 -36t-36.5 -15h-790q-22 0 -36.5 17.5t-14.5 42.5z" />
<glyph unicode="3" horiz-adv-x="1253" d="M154 438v4q0 20 15 35t36 15q20 0 34.5 -14t16.5 -34q12 -146 116 -232.5t267 -86.5q168 0 264 84q94 85 94 221q0 105 -45 168t-143 94q-10 2 -21 10q-38 23 -38 70v2v10q3 26 18 47.5t37 30.5q143 57 143 209q0 120 -82 193q-84 75 -227 75q-146 0 -236 -77 q-94 -78 -106 -226q0 -20 -14 -33.5t-39 -13.5q-16 0 -32 14t-15 39q15 185 133 291q119 107 309 107q182 0 295 -101q117 -105 117 -270q0 -204 -185 -291q234 -90 234 -348q0 -183 -129 -297q-125 -110 -332 -110q-201 0 -334.5 113t-150.5 302z" />
<glyph unicode="4" horiz-adv-x="1167" d="M72 444v70q0 16 10 29l623 866q15 21 43 21h49q22 0 36.5 -14t14.5 -36v-884l156 -2q22 0 36.5 -14t14.5 -36t-14.5 -36.5t-36.5 -14.5h-156v-307q0 -22 -14.5 -36.5t-36.5 -14.5q-21 0 -36.5 15t-15.5 36v307h-622q-22 0 -36.5 14.5t-14.5 36.5zM174 494h571v798 l-571 -794v-4z" />
<glyph unicode="5" horiz-adv-x="1218" d="M156 383q-3 22 11.5 38.5t37.5 16.5q20 2 35 -10.5t16 -32.5q15 -125 112.5 -197.5t239.5 -72.5q158 0 256.5 100t98.5 267q0 157 -91 257.5t-237 100.5q-196 0 -289 -152q-15 -24 -43 -24h-59q-19 0 -32.5 12.5t-16.5 30.5q-4 9 -2 16l106 637q3 19 16.5 31t32.5 12h598 q21 0 36 -15t15 -36q0 -22 -14.5 -36.5t-36.5 -14.5h-555l-84 -502q54 67 139.5 104t188.5 37q184 0 306 -127t122 -331q0 -209 -125.5 -339t-329.5 -130q-182 0 -307 98t-145 262z" />
<glyph unicode="6" horiz-adv-x="1251" d="M154 739q0 255 94 418q58 136 166.5 209.5t251.5 73.5q152 0 256 -82.5t133 -229.5q2 -6 2 -14q0 -19 -14 -34.5t-35 -16.5q-19 0 -34 11.5t-18 31.5q-23 111 -98 171t-192 60q-188 0 -293 -145q-135 -189 -105 -569q16 44 36.5 84t55 83t75.5 74.5t100 51.5t127 20 q189 0 312.5 -127t123.5 -322q0 -197 -125.5 -330.5t-315.5 -133.5q-188 0 -319 116q-95 86 -139.5 230.5t-44.5 369.5zM309 426q0 -102 72 -174q99 -127 276 -127q149 0 244.5 103t93.5 259q0 153 -93 250t-240 97q-117 0 -197 -66t-121 -176q-35 -88 -35 -166z" />
<glyph unicode="7" horiz-adv-x="1044" d="M72 1362q0 20 14.5 35.5t34.5 15.5h799q21 0 36 -15t15 -36v-57q0 -18 -15 -37q-206 -206 -354 -541q-160 -361 -160 -641q0 -22 -13.5 -36.5t-35.5 -14.5t-36.5 14.5t-14.5 36.5q0 307 164 682q141 311 348 543h-733q-20 0 -34.5 14.5t-14.5 36.5z" />
<glyph unicode="8" horiz-adv-x="1275" d="M156 438q0 74 23 135.5t63 103.5t83.5 70t94.5 46q-201 90 -201 290q0 156 120.5 256.5t297.5 100.5q176 0 298 -98t122 -259q0 -198 -203 -288q112 -40 189 -130.5t77 -226.5q0 -193 -135.5 -303t-343.5 -110q-210 0 -347.5 112.5t-137.5 300.5zM256 438 q0 -139 105 -226t280 -87q78 0 145 19t120 56.5t83.5 98.5t30.5 139q0 139 -107.5 218t-275.5 79q-74 0 -140.5 -18t-121 -52.5t-87 -93t-32.5 -133.5zM319 1083q0 -150 146 -209q7 -4 30 -11.5t65 -16t77 -8.5t76.5 9.5t65 18t28.5 11.5q147 60 147 206q0 118 -90 186 t-227 68q-132 0 -225 -69t-93 -185z" />
<glyph unicode="9" horiz-adv-x="1253" d="M154 975q0 198 125.5 331.5t316.5 133.5q188 0 317 -117q95 -85 140 -229.5t45 -368.5q0 -323 -131 -508q-137 -194 -379 -194q-151 0 -255 81.5t-134 227.5l-2 16q0 21 13 35.5t34 15.5q19 0 34.5 -11.5t18.5 -29.5q22 -112 97 -172.5t194 -60.5q92 0 164.5 37.5 t119 104.5t73.5 153t34 190q12 123 6 230q-39 -103 -88 -162q-110 -150 -305 -150q-191 0 -314.5 126t-123.5 321zM256 975q0 -151 93.5 -248.5t242.5 -97.5q183 0 282 164q26 40 47 106.5t21 132.5q0 54 -10 98q-45 96 -130 151.5t-206 55.5q-150 0 -245 -101.5t-95 -260.5 z" />
<glyph unicode=":" horiz-adv-x="481" d="M154 96v45q0 26 18.5 44t44.5 18h45q26 0 45 -18t19 -44v-45q0 -26 -18.5 -42.5t-45.5 -16.5h-45q-27 0 -45 16.5t-18 42.5zM154 930v45q0 25 18.5 43t44.5 18h45q26 0 45 -18t19 -43v-45q0 -26 -19 -44t-45 -18h-45q-26 0 -44.5 18t-18.5 44z" />
<glyph unicode=";" horiz-adv-x="473" d="M127 -96q0 35 31 47q45 23 61 112q9 55 2 156q0 21 14 35t37 14q42 0 52 -37q4 -10 4 -73q0 -238 -127 -299q-15 -6 -23 -6q-23 0 -37 15t-14 36zM162 930v45q0 25 18.5 43t44.5 18h45q26 0 45 -18t19 -43v-45q0 -26 -19 -44t-45 -18h-45q-26 0 -44.5 18t-18.5 44z" />
<glyph unicode="&#x3c;" horiz-adv-x="1335" d="M111 559q0 31 28 45l936 438q20 5 23 5q21 0 36 -14t15 -38q0 -31 -29 -47l-839 -391l847 -407q29 -13 29 -46q0 -20 -13.5 -35.5t-37.5 -15.5q-9 0 -21 4l-946 455q-28 14 -28 47z" />
<glyph unicode="=" horiz-adv-x="1269" d="M154 438q0 22 15 38t36 16h860q21 0 36 -16t15 -38t-14.5 -35.5t-36.5 -13.5h-860q-22 0 -36.5 13.5t-14.5 35.5zM154 870q0 22 15 38t36 16h860q21 0 36 -16t15 -38t-14.5 -35.5t-36.5 -13.5h-860q-22 0 -36.5 13.5t-14.5 35.5z" />
<glyph unicode="&#x3e;" horiz-adv-x="1335" d="M178 104q0 33 29 46l848 407l-840 391q-29 16 -29 47q0 24 15.5 38t36.5 14q2 0 22 -5l936 -438q12 -6 20.5 -19t8.5 -26q0 -33 -29 -47l-946 -455q-12 -4 -21 -4q-24 0 -37.5 15.5t-13.5 35.5z" />
<glyph unicode="?" horiz-adv-x="1179" d="M174 1040v17q19 167 130.5 275t307.5 108q170 0 281 -98.5t111 -258.5q0 -66 -15.5 -119.5t-48.5 -97t-58 -67.5t-71 -62l-6 -6q-69 -58 -100 -93t-48.5 -84.5t-19.5 -127.5q-2 -22 -15.5 -35.5t-35.5 -13.5q-23 0 -37 15t-14 36q2 73 14.5 126.5t41 98t60 77t88.5 79.5 l6 6q36 30 51.5 44t40.5 41.5t35.5 50t19.5 57.5t9 75q0 116 -79.5 184t-209.5 68q-157 0 -240 -82.5t-96 -216.5q-1 -20 -16.5 -33.5t-36.5 -13.5q-20 3 -34 17t-15 34zM496 92v45q0 26 18.5 44t44.5 18h45q26 0 45 -18t19 -44v-45q0 -26 -18.5 -42.5t-45.5 -16.5h-45 q-28 0 -45.5 16.5t-17.5 42.5z" />
<glyph unicode="@" horiz-adv-x="1777" d="M195 705q0 200 91.5 368t256.5 262q173 105 375 105q129 0 246.5 -42.5t210 -121t147.5 -201t55 -270.5q0 -88 -18 -166.5t-55 -144.5t-101 -105t-148 -39q-77 0 -125 39q-22 16 -47 60q-4 4 -12 8q-9 -5 -10 -6q-41 -54 -103 -85.5t-133 -31.5q-134 0 -216.5 90.5 t-82.5 249.5q0 119 40 219t123.5 163.5t195.5 63.5q89 0 153 -45q6 15 20.5 23.5t31.5 5.5q22 -1 35 -18t10 -37l-54 -439q-3 -19 -16 -32h20q28 -4 47.5 -21.5t24.5 -40.5q6 -31 33 -47t65 -16q58 0 101.5 29t68.5 79.5t37.5 110.5t12.5 129q0 105 -31.5 193.5t-85 151 t-125 106t-151.5 64.5t-164 21q-117 0 -227 -42.5t-198.5 -120t-142 -199.5t-53.5 -270q0 -265 159.5 -421.5t428.5 -156.5q154 0 291 55q21 8 40.5 0t26.5 -28t-1.5 -40t-27.5 -28q-158 -61 -329 -61q-161 0 -292.5 52t-218 143.5t-133 215.5t-46.5 269zM629 674 q0 -109 49 -173.5t147 -64.5q54 0 102.5 28t73.5 73q7 15 25 28q-22 2 -35 18.5t-10 39.5l39 323q-41 72 -135 72q-115 0 -185.5 -97t-70.5 -247z" />
<glyph unicode="A" d="M115 86q0 12 2 18l481 1276q5 14 18.5 23.5t28.5 9.5h94q32 0 47 -33l486 -1276q2 -6 2 -20q0 -22 -16 -34.5t-35 -12.5q-33 0 -47 31l-152 401h-659l-152 -401q-12 -31 -49 -31q-21 0 -35 13t-14 36zM401 571h584l-283 742h-20z" />
<glyph unicode="B" d="M238 104v1258q0 21 15 36t36 15l514 -2q192 0 295 -100q100 -89 100 -250q0 -210 -180 -289q112 -39 174.5 -124.5t62.5 -205.5q0 -167 -102 -272q-114 -117 -324 -117h-540q-22 0 -36.5 14.5t-14.5 36.5zM338 154h489q166 0 254 88q72 75 72 200q0 93 -51.5 156 t-145.5 88q-23 6 -38 25q-23 23 -23 57q0 29 16 53.5t43 34.5q75 26 108.5 75t33.5 132q0 109 -68 174q-75 72 -225 72h-465v-1155z" />
<glyph unicode="C" horiz-adv-x="1458" d="M154 731q0 205 72.5 364.5t215 252t334.5 92.5t330 -95t188 -274q0 -3 1 -8t1 -8q0 -21 -14 -36t-37 -15q-39 0 -51 38q-36 143 -147 219t-271 76q-163 0 -282 -78.5t-178.5 -214.5t-59.5 -313q0 -173 58 -308t176 -215.5t280 -80.5q195 0 312.5 106.5t138.5 288.5 q3 19 17.5 32t33.5 13q22 0 35.5 -15t15.5 -34v-8q-27 -220 -171.5 -352.5t-381.5 -132.5q-276 0 -446 193t-170 513z" />
<glyph unicode="D" horiz-adv-x="1464" d="M238 102v1260q0 21 14 36t35 15l438 -2q286 0 435 -182.5t149 -501.5q0 -152 -36.5 -275t-109 -213t-187.5 -139t-265 -49h-424q-22 0 -35.5 14.5t-13.5 36.5zM338 154h373q249 0 372 150t123 423q0 276 -118.5 429t-362.5 153h-387v-1155z" />
<glyph unicode="E" horiz-adv-x="1327" d="M238 104v1258q0 21 14 36t35 15h833q21 0 36 -15t15 -36q0 -22 -14.5 -36.5t-36.5 -14.5h-782v-486h717q22 0 37.5 -14.5t15.5 -36.5t-15.5 -36.5t-37.5 -14.5h-717v-567h803q21 0 36 -15.5t15 -36.5q0 -22 -14.5 -36.5t-36.5 -14.5h-854q-22 0 -35.5 14.5t-13.5 36.5z " />
<glyph unicode="F" horiz-adv-x="1249" d="M236 86v1274q0 21 15 36t36 15h796q22 0 37 -14.5t15 -36.5q0 -20 -15.5 -35.5t-36.5 -15.5h-743v-478h635q21 0 36 -15t15 -36t-15 -36t-36 -15h-635v-643q0 -22 -15.5 -36.5t-37.5 -14.5q-21 0 -36 15t-15 36z" />
<glyph unicode="G" horiz-adv-x="1558" d="M154 731q0 318 176 512q87 96 208 146.5t263 50.5q199 0 344 -99q139 -103 186 -282q6 -20 -5 -39t-32 -25q-21 -5 -39 6.5t-22 32.5q-37 144 -148 223q-112 80 -284 80q-247 0 -395 -163t-148 -443q0 -278 143 -444q142 -160 381 -160q245 0 371 197q25 39 71 39 q12 0 25 -3l11 -4v308h-431q-22 0 -36.5 14.5t-14.5 36.5t14.5 36.5t36.5 14.5h482q22 0 36.5 -14.5t14.5 -36.5v-611q0 -22 -14.5 -36.5t-36.5 -14.5h-23q-32 0 -41 25q-14 57 -24 133q0 5 -9 14q-15 0 -18 -8q-151 -192 -416 -192q-283 0 -456 194q-170 195 -170 512z" />
<glyph unicode="H" horiz-adv-x="1507" d="M238 86v1292q0 22 15 38t36 16t36 -16t15 -38v-538h829v538q0 22 15 38t37 16q20 0 35.5 -16t15.5 -38v-1292q0 -21 -15 -36t-36 -15q-22 0 -37 14.5t-15 36.5v651h-829v-651q0 -22 -14.5 -36.5t-36.5 -14.5t-36.5 14.5t-14.5 36.5z" />
<glyph unicode="I" horiz-adv-x="575" d="M238 86v1292q0 22 14.5 38t34.5 16q22 0 37.5 -16t15.5 -38v-1292q0 -22 -15.5 -36.5t-37.5 -14.5q-20 0 -34.5 14.5t-14.5 36.5z" />
<glyph unicode="J" horiz-adv-x="1114" d="M115 436v15q0 22 14 37.5t35 15.5q22 0 37.5 -15.5t15.5 -37.5v-15q0 -160 68.5 -233.5t218.5 -73.5q133 0 202.5 64.5t69.5 189.5v995q0 21 15 36.5t36 15.5t36.5 -15.5t15.5 -36.5v-995q0 -169 -98.5 -262.5t-276.5 -93.5q-191 0 -290 103.5t-99 305.5z" />
<glyph unicode="K" horiz-adv-x="1417" d="M236 88v1292q0 20 15.5 36t35.5 16q21 0 37 -16t16 -36v-759l813 794q17 17 37 17q22 0 36.5 -15t14.5 -37q0 -21 -16 -37l-502 -489l551 -735q10 -17 10 -31q0 -23 -15.5 -37t-37.5 -14q-25 0 -39 20l-541 725l-311 -305v-389q0 -22 -15.5 -36.5t-37.5 -14.5 q-21 0 -36 15t-15 36z" />
<glyph unicode="L" horiz-adv-x="1193" d="M236 1378q0 22 15.5 38t35.5 16q22 0 37.5 -16t15.5 -38v-1222h711q20 0 35.5 -16t15.5 -38q0 -21 -15 -35t-36 -14h-764q-22 0 -35.5 13.5t-13.5 35.5z" />
<glyph unicode="M" horiz-adv-x="1759" d="M238 88v1274q0 21 15 36t36 15h110q32 0 47 -33l433 -1132l428 1132q15 33 49 33h114q22 0 37 -15.5t15 -35.5v-1274q0 -22 -15 -36.5t-37 -14.5q-21 0 -36 15t-15 36v1223h-30l-461 -1225q-15 -33 -47 -33q-35 0 -50 33l-466 1225h-25v-1223q0 -21 -15 -36t-36 -15 q-22 0 -36.5 14.5t-14.5 36.5z" />
<glyph unicode="N" horiz-adv-x="1507" d="M238 86v1276q0 22 13.5 36.5t35.5 14.5h84q27 0 45 -27l723 -1183h30l-2 1175q0 22 15 37t37 15t36.5 -15t14.5 -37v-1276q0 -22 -14 -36t-37 -13h-76q-29 0 -43 23l-729 1188h-31v-1178q0 -20 -15.5 -34.5t-37.5 -14.5q-21 0 -35 14t-14 35z" />
<glyph unicode="O" horiz-adv-x="1579" d="M156 731q0 205 81 367t224.5 252t324.5 90q183 0 328.5 -89t228 -251t82.5 -369q0 -155 -48 -287t-132.5 -224t-203 -143.5t-255.5 -51.5q-181 0 -324.5 89t-224.5 250.5t-81 366.5zM258 731q0 -267 146.5 -435.5t381.5 -168.5q239 0 388 167t149 437q0 176 -67.5 314 t-190 215t-279.5 77q-235 0 -381.5 -169.5t-146.5 -436.5z" />
<glyph unicode="P" horiz-adv-x="1308" d="M238 86v1274q0 21 14 36t35 15h487q194 0 308 -103.5t114 -285.5q0 -193 -114.5 -294t-323.5 -101h-418v-541q0 -22 -15.5 -36.5t-37.5 -14.5t-35.5 14.5t-13.5 36.5zM338 729h420q336 0 336 293q0 137 -82.5 212t-237.5 75h-436v-580z" />
<glyph unicode="Q" horiz-adv-x="1579" d="M154 731q0 205 81.5 367t225.5 252t325 90q278 0 457.5 -198t179.5 -511q0 -330 -196 -526l135 -111q18 -13 18 -39q0 -22 -15.5 -36.5t-33.5 -14.5q-21 0 -33 12l-149 121q-151 -112 -363 -112q-181 0 -325 89t-225.5 250.5t-81.5 366.5zM256 731q0 -267 147.5 -436.5 t382.5 -169.5q157 0 279 80l-145 119q-21 15 -21 38q0 21 14.5 36.5t36.5 15.5q20 0 33 -13l166 -133q84 80 129 199t45 264q0 268 -148.5 437t-388.5 169q-235 0 -382.5 -169.5t-147.5 -436.5z" />
<glyph unicode="R" horiz-adv-x="1441" d="M238 86v1274q0 22 14.5 36.5t36.5 14.5h555q185 0 289 -98t104 -267v-10q0 -121 -49 -200q-49 -78 -152 -121q90 -42 127 -126t43 -229q10 -194 37 -256q3 -10 3 -19q0 -16 -10 -29q-16 -21 -40 -21q-36 0 -49 33q-33 98 -43 288q-4 130 -34 191.5t-99 83.5 q-38 12 -51 49q-7 18 -7 33q0 33 19 55q16 23 41 31q86 27 125 84q39 56 39 155q-3 131 -74 199q-75 72 -217 72h-506v-1223q0 -21 -15 -36t-36 -15q-22 0 -36.5 14.5t-14.5 36.5z" />
<glyph unicode="S" horiz-adv-x="1343" d="M154 457v7q0 18 12 33q16 17 39 17q19 0 33.5 -12.5t15.5 -32.5q21 -170 139.5 -256t311.5 -86q168 0 275 78.5t107 224.5q0 97 -45 152q-26 35 -78.5 60t-96.5 35.5t-138 29.5l-94 16q-86 18 -129 27.5t-98.5 29.5t-92.5 45q-112 77 -112 246q0 173 130 271t331 98 q198 0 323 -93.5t156 -269.5l2 -10q-2 -21 -16 -35t-35 -14q-19 0 -34 11.5t-18 29.5q-25 142 -123.5 210t-254.5 68q-157 0 -258 -68t-101 -198q0 -108 66 -160q10 -7 20.5 -13.5t25 -12t25 -10t31 -10t30.5 -8.5t35.5 -9t34.5 -8t40 -8.5t40 -8.5l95 -18 q93 -17 145.5 -29.5t112.5 -40.5t96 -69q88 -79 88 -236q0 -189 -135 -297t-350 -108q-234 0 -380.5 112.5t-170.5 319.5z" />
<glyph unicode="T" horiz-adv-x="1241" d="M92 1362q0 20 15.5 35.5t35.5 15.5h955q20 0 35.5 -15.5t15.5 -35.5q0 -21 -15 -36t-36 -15h-426v-1225q0 -22 -14.5 -36.5t-36.5 -14.5t-37 14.5t-15 36.5v1225h-426q-21 0 -36 15t-15 36z" />
<glyph unicode="U" horiz-adv-x="1404" d="M195 485v895q0 22 14.5 37t36.5 15t36.5 -15t14.5 -37v-897q0 -356 399 -356q90 0 163 20t129 61t87 111t31 164v897q0 22 14.5 36t36.5 14q21 0 36 -14.5t15 -35.5v-895q0 -97 -26.5 -174.5t-73 -130.5t-112 -89t-140 -52t-160.5 -16q-237 0 -369 117.5t-132 344.5z" />
<glyph unicode="V" horiz-adv-x="1335" d="M113 1378q0 26 17.5 39t33.5 13q37 0 49 -35l434 -1211h37l438 1213q13 33 47 33q21 0 36.5 -15.5t15.5 -38.5q0 -8 -4 -16l-461 -1274q-4 -15 -18 -24t-29 -9h-88q-16 0 -30 9t-18 24l-456 1274q-4 12 -4 18z" />
<glyph unicode="W" horiz-adv-x="1837" d="M115 1380q0 21 15 35.5t34 14.5q18 0 32.5 -10t18.5 -27l313 -1184h31l309 1165q10 37 50 37q39 0 49 -37l309 -1161h27l319 1180q10 37 49 37q19 0 35 -14t16 -38q0 -2 -4 -18l-344 -1270q-10 -37 -49 -37h-74q-39 0 -49 37l-284 1073l-287 -1073q-3 -17 -16.5 -27 t-32.5 -10h-78q-18 0 -32 10t-17 27l-336 1266q-4 16 -4 24z" />
<glyph unicode="X" horiz-adv-x="1314" d="M133 86q0 15 8 31l457 626l-432 607q-10 17 -10 30q0 20 15.5 35t35.5 15q28 0 43 -21l412 -578l407 578q15 21 41 21q23 0 37 -16t14 -36q0 -15 -8 -28l-428 -607l446 -626q9 -15 9 -29q0 -23 -16.5 -38t-35.5 -15q-24 0 -41 22l-425 598l-437 -598q-14 -20 -41 -20 q-23 0 -37 14t-14 35z" />
<glyph unicode="Y" horiz-adv-x="1275" d="M92 1380q0 21 15 35.5t36 14.5q26 0 41 -21l453 -627l453 627q15 21 40 21q21 0 36.5 -14t15.5 -36q0 -17 -8 -30l-486 -672v-592q0 -22 -14.5 -36.5t-36.5 -14.5t-36.5 14.5t-14.5 36.5v592l-484 672q-10 13 -10 30z" />
<glyph unicode="Z" horiz-adv-x="1333" d="M156 102v76q0 19 12 31l872 1100h-782q-21 0 -36 15t-15 36q0 22 14.5 37.5t36.5 15.5h842q20 0 35.5 -15.5t15.5 -37.5v-60q0 -18 -12 -30l-879 -1106v-10h868q22 0 37 -15t15 -37q0 -21 -15 -35t-37 -14h-921q-22 0 -36.5 13.5t-14.5 35.5z" />
<glyph unicode="[" horiz-adv-x="700" d="M236 -209v1569q0 22 15.5 36.5t37.5 14.5h184q22 0 37.5 -14.5t15.5 -36.5t-15.5 -36.5t-37.5 -14.5h-133v-1465h133q22 0 37.5 -15t15.5 -38q0 -20 -15.5 -34.5t-37.5 -14.5h-184q-22 0 -37.5 14.5t-15.5 34.5z" />
<glyph unicode="\" horiz-adv-x="886" d="M106 1460q0 22 15.5 36.5t36.5 14.5q36 0 49 -32l543 -1461q2 -6 2 -18q0 -24 -15.5 -37.5t-36.5 -13.5q-34 0 -47 33l-542 1462q-5 15 -5 16z" />
<glyph unicode="]" horiz-adv-x="700" d="M174 -209q0 23 15.5 38t37.5 15h135v1465h-135q-22 0 -37.5 14.5t-15.5 36.5t15.5 36.5t37.5 14.5h185q22 0 37.5 -14.5t15.5 -36.5v-1569q0 -20 -15.5 -34.5t-37.5 -14.5h-185q-22 0 -37.5 14.5t-15.5 34.5z" />
<glyph unicode="^" horiz-adv-x="1042" d="M135 707q0 6 4 22l346 684q13 27 45 27t48 -29l325 -674q4 -6 4 -22q0 -22 -14.5 -36.5t-34.5 -14.5q-35 0 -47 28l-281 582l-299 -590q-13 -29 -45 -29q-19 0 -35 14.5t-16 37.5z" />
<glyph unicode="_" horiz-adv-x="860" d="M-51 -209q0 22 14.5 36.5t36.5 14.5h860q22 0 36.5 -14.5t14.5 -36.5t-14.5 -36.5t-36.5 -14.5h-860q-22 0 -36.5 14.5t-14.5 36.5z" />
<glyph unicode="`" horiz-adv-x="729" d="M256 1741q0 23 16 37t35 14q33 0 45 -27l113 -204q6 -12 6 -25q0 -23 -16 -37t-35 -14q-29 0 -45 26l-113 205q-6 12 -6 25z" />
<glyph unicode="a" horiz-adv-x="1155" d="M150 309q0 130 77 201q93 90 336 117q240 26 285 78v69q0 76 -49 123q-64 64 -207 64q-178 0 -256 -99q-15 -20 -24.5 -43t-11.5 -36l-3 -13q0 -20 -15 -33.5t-36 -13.5q-19 0 -34.5 14.5t-14.5 38.5q0 9 3 26.5t17.5 54t38.5 67.5q103 139 336 139q200 0 291 -102 q67 -75 67 -189v-551q0 -78 60 -84q22 1 37.5 -14t15.5 -37q0 -20 -15.5 -35.5t-35.5 -15.5q-76 0 -121 49q-37 40 -41 98l-6 -6q-146 -153 -363 -153q-161 0 -246 81.5t-85 204.5zM252 309q0 -76 49 -125q62 -59 180 -59q168 0 287 119q55 60 80 116v226q-107 -44 -266 -60 q-212 -24 -283 -88q-47 -42 -47 -129z" />
<glyph unicode="b" horiz-adv-x="1167" d="M197 86v1292q0 22 15 38t36 16q20 0 35.5 -16t15.5 -38v-481q115 168 322 168q192 0 305 -147q106 -136 106 -373q0 -236 -110 -373q-114 -147 -310 -147q-201 0 -313 153v-92q0 -21 -15 -36t-36 -15q-22 0 -36.5 14.5t-14.5 36.5zM299 545q0 -34 3 -66t7 -57t10.5 -48.5 t12 -39.5t12 -31t11 -23t8.5 -15l4 -7q47 -70 104 -100.5t141 -30.5q144 0 230 109q88 114 88 309q0 199 -86 311q-81 107 -223 107q-167 0 -252 -144q0 -1 -4.5 -8.5t-10.5 -19.5t-13.5 -29.5t-14.5 -41t-13.5 -49.5t-10 -59t-3.5 -67z" />
<glyph unicode="c" horiz-adv-x="1126" d="M133 543q0 230 123 375t334 145q149 0 253 -72t140 -209q2 -6 2 -14q0 -21 -15 -36t-36 -15q-18 0 -32 11t-17 28q-26 101 -101.5 153t-193.5 52q-165 0 -259.5 -115t-94.5 -303q0 -190 93 -304t259 -114q125 0 203.5 62t99.5 182q4 20 20.5 32.5t36.5 10.5 q19 -3 31 -16.5t12 -35.5q-2 -42 -25 -101t-65 -109q-111 -127 -313 -127q-209 0 -332 144.5t-123 375.5z" />
<glyph unicode="d" horiz-adv-x="1167" d="M135 545q0 235 107 373q113 147 305 147q206 0 321 -168v481q0 22 15 37t37 15q20 0 35.5 -15t15.5 -37v-1292q0 -21 -15 -36t-36 -15q-22 0 -37 14.5t-15 36.5v92q-115 -153 -313 -153q-195 0 -309 147q-111 138 -111 373zM238 545q0 -199 88 -309q83 -109 229 -109 q84 0 141.5 30.5t104.5 100.5l7 14q8 14 17.5 37t19.5 55.5t16.5 80t6.5 100.5q0 34 -3.5 67t-9.5 59t-13.5 49.5t-14.5 41t-13 29.5l-10 20l-5 8q-89 144 -252 144q-141 0 -225 -107q-84 -113 -84 -311z" />
<glyph unicode="e" horiz-adv-x="1150" d="M135 549q0 111 37.5 214.5t112.5 178.5q51 51 129 86t174 35q189 0 297 -117q124 -133 133 -387q0 -19 -14 -37q-16 -16 -37 -16h-727q8 -174 100.5 -277.5t257.5 -103.5q107 0 186 52t113 157q10 37 49 37q21 0 36 -14.5t15 -37.5q0 -4 -4 -16q-40 -131 -143.5 -205.5 t-251.5 -74.5q-215 0 -339 141.5t-124 384.5zM242 608h669q-32 353 -323 353q-138 0 -234.5 -96t-111.5 -257z" />
<glyph unicode="f" horiz-adv-x="591" d="M72 983q0 22 14.5 36.5t36.5 14.5h90v172q0 115 61 170q63 54 181 54h32q22 -1 36 -16.5t14 -37.5q-2 -22 -17 -36t-37 -13q-45 0 -57 -4q-60 -1 -85.5 -29t-25.5 -88v-172h172q22 0 37 -14.5t15 -36.5t-15 -36.5t-37 -14.5h-172v-846q0 -22 -14.5 -36.5t-36.5 -14.5 t-36.5 14.5t-14.5 36.5v846h-90q-22 0 -36.5 14.5t-14.5 36.5z" />
<glyph unicode="g" horiz-adv-x="1163" d="M135 561q0 234 122.5 368t303.5 134q105 0 178.5 -44t126.5 -136q0 45 4 139q11 29 43 29q22 0 38 -15t16 -37l-2 -895q0 -174 -101 -278q-113 -113 -325 -113q-152 0 -255 58t-137 161q-2 6 -2 15q0 21 15.5 36t36.5 15q39 0 49 -37q22 -69 99.5 -107t193.5 -38 q152 0 233.5 66t87.5 194q2 57 2 170q-100 -178 -301 -178q-131 0 -228.5 65t-147.5 176t-50 252zM236 563q0 -177 86.5 -285t238.5 -108q80 0 134.5 31t97.5 94q29 42 49 115.5t20 156.5q0 139 -63 258q-80 136 -238 136q-140 0 -232.5 -106t-92.5 -292z" />
<glyph unicode="h" horiz-adv-x="1103" d="M197 86v1292q0 22 15 38t36 16q20 0 35.5 -16t15.5 -38v-471q110 158 307 158q154 0 238 -90q84 -86 84 -225v-662q0 -22 -14.5 -36.5t-36.5 -14.5t-37 14.5t-15 36.5v664q0 94 -55 153q-55 58 -164 58q-160 0 -244 -119q-25 -35 -44 -83.5t-19 -82.5v-592q0 -21 -15 -36 t-36 -15q-22 0 -36.5 14.5t-14.5 36.5z" />
<glyph unicode="i" horiz-adv-x="475" d="M197 86v915q0 21 15 36.5t36 15.5t36 -15.5t15 -36.5v-915q0 -21 -15 -36t-36 -15t-36 15t-15 36zM197 1268v94q0 22 14.5 36.5t36.5 14.5q21 0 36 -15t15 -36v-94q0 -20 -15.5 -35.5t-35.5 -15.5q-21 0 -36 15t-15 36z" />
<glyph unicode="j" horiz-adv-x="493" d="M31 -211q0 22 14.5 37.5t36.5 15.5q88 0 111 23q22 22 22 92v1042q0 22 14.5 37t36.5 15t36.5 -15t14.5 -37v-1042q0 -112 -53.5 -164.5t-167.5 -52.5h-14q-20 0 -34.5 14.5t-16.5 34.5zM215 1268v94q0 22 14.5 36.5t36.5 14.5q21 0 36 -15t15 -36v-94q0 -20 -15.5 -35.5 t-35.5 -15.5q-21 0 -36 15t-15 36z" />
<glyph unicode="k" horiz-adv-x="1097" d="M197 88v1290q0 22 14.5 37t36.5 15q20 0 35.5 -15t15.5 -37v-846l559 519q18 14 35 14q23 0 37 -16t14 -35q0 -23 -16 -39l-320 -295l387 -565q9 -12 9 -27q0 -26 -16 -39.5t-36 -13.5q-27 0 -43 22l-377 551l-233 -217v-303q0 -23 -15 -38t-36 -15q-22 0 -36.5 15 t-14.5 38z" />
<glyph unicode="l" horiz-adv-x="493" d="M197 86v1292q0 22 14.5 38t34.5 16q22 0 37.5 -16t15.5 -38v-1292q0 -22 -15.5 -36.5t-37.5 -14.5q-20 0 -34.5 14.5t-14.5 36.5z" />
<glyph unicode="m" horiz-adv-x="1622" d="M197 86v915q0 21 15 36.5t36 15.5q20 0 35.5 -16t15.5 -36v-77q104 141 266 141q104 0 173 -48t100 -130q106 178 303 178q135 0 219 -84q86 -88 86 -231v-664q0 -21 -15 -36t-36 -15q-20 0 -36 15.5t-16 35.5v664q0 102 -57 159q-49 52 -145 52q-143 0 -215 -115 q-28 -44 -41 -91t-13 -75v-592q0 -22 -14.5 -36.5t-36.5 -14.5t-36.5 14.5t-14.5 36.5v662q0 14 -2 34t-16 59.5t-39 65.5q-52 52 -148 52q-144 0 -213 -115q-48 -70 -53 -156v-604q0 -20 -15.5 -35.5t-35.5 -15.5q-21 0 -36 15t-15 36z" />
<glyph unicode="n" horiz-adv-x="1103" d="M197 88v916q0 20 14.5 34.5t36.5 14.5t36.5 -14.5t14.5 -34.5v-97q45 67 121 112.5t186 45.5q154 0 238 -90q84 -86 84 -225v-662q0 -22 -14.5 -36.5t-36.5 -14.5t-37 14.5t-15 36.5v664q0 94 -55 153q-55 58 -164 58q-160 0 -244 -119q-23 -31 -41.5 -75.5t-21.5 -78.5 v-602q0 -21 -15 -36t-36 -15t-36 15t-15 36z" />
<glyph unicode="o" horiz-adv-x="1189" d="M135 543q0 231 129 377q127 144 327 143h5q203 0 332 -144.5t129 -375.5q0 -230 -129 -375t-332 -145t-332 145t-129 375zM238 543q0 -187 97.5 -302.5t260.5 -115.5t260.5 115.5t97.5 302.5q0 189 -97.5 303.5t-260.5 114.5t-260.5 -114.5t-97.5 -303.5z" />
<glyph unicode="p" horiz-adv-x="1167" d="M197 -209v1208q0 22 14.5 37t36.5 15q20 0 35.5 -15.5t15.5 -36.5v-104q115 168 322 168q191 0 305 -145q106 -139 106 -375t-110 -373q-116 -147 -310 -147q-200 0 -313 155v-387q0 -20 -15.5 -35.5t-35.5 -15.5q-21 0 -36 15t-15 36zM299 543q0 -38 3.5 -74t9.5 -63 t13 -51t14.5 -41t13 -29t9.5 -19l5 -8q47 -72 104 -102.5t141 -30.5q148 0 230 108q88 110 88 310q0 201 -84 311q-84 107 -225 107q-163 0 -252 -144q0 -1 -4.5 -8.5t-10.5 -19.5t-13.5 -29.5t-14.5 -41t-13.5 -49.5t-10 -59t-3.5 -67z" />
<glyph unicode="q" horiz-adv-x="1167" d="M133 543q0 232 109 375q114 145 305 145q206 0 321 -168v104q0 22 15 37t37 15t36.5 -15t14.5 -37v-1208q0 -21 -15 -36t-36 -15q-22 0 -37 15t-15 36v387q-113 -155 -315 -155q-191 0 -307 147q-113 140 -113 373zM238 543q0 -200 88 -310q82 -108 229 -108 q84 0 141.5 31t104.5 102l4 8q4 7 10 19t13 29t14 41t13 51t9.5 63t3.5 74q0 34 -3.5 67t-9.5 59t-13.5 49.5t-14.5 41t-13 29.5l-10 20l-5 8q-89 144 -252 144q-141 0 -225 -107q-84 -113 -84 -311z" />
<glyph unicode="r" horiz-adv-x="729" d="M197 86v915q0 21 15 36.5t36 15.5q20 0 35.5 -16t15.5 -36v-94q30 40 33 43q113 113 274 113q21 0 36 -15t15 -36t-15 -36t-36 -15q-159 0 -244 -119q-29 -39 -45 -82.5t-18 -73.5v-600q0 -20 -15.5 -35.5t-35.5 -15.5q-21 0 -36 15t-15 36z" />
<glyph unicode="s" horiz-adv-x="1056" d="M133 330q0 20 14.5 36t36.5 17q19 0 34 -12.5t18 -32.5q17 -103 96.5 -157t212.5 -54q72 0 131 18t101 64.5t42 116.5q0 36 -7.5 59.5t-21.5 41t-48.5 31t-73.5 24t-113 26.5l-53 12q-154 35 -212 64q-116 59 -123 182q-1 10 -1 20q0 129 98.5 204t253.5 75 q153 0 244.5 -70t118.5 -182q4 -12 4 -16q-2 -21 -15 -35t-34 -14q-19 -2 -34.5 8.5t-19.5 29.5q-42 177 -264 177q-45 0 -87 -9.5t-80 -29.5t-60.5 -55.5t-22.5 -82.5q0 -26 5.5 -46t22 -35.5t32 -26t52 -22t63.5 -18.5t83 -20l52 -10q153 -33 207 -57q107 -48 130 -151 q7 -33 7 -74q0 -141 -105 -221t-272 -80q-205 0 -318 110q-39 37 -63 91t-31 104z" />
<glyph unicode="t" horiz-adv-x="681" d="M92 985q0 22 14.5 36.5t36.5 14.5h97l-2 244q0 21 15 36t36 15q22 0 36.5 -14.5t14.5 -36.5v-246h176q22 0 36.5 -14t14.5 -37q0 -21 -15 -36t-36 -15h-176v-717q0 -45 20.5 -65.5t65.5 -20.5q16 -3 31 -3q24 0 45 7q21 5 39 -6.5t22 -32.5q5 -20 -6 -38.5t-31 -22.5 q-45 -10 -84 -10q-97 0 -149 49q-53 47 -53 143v719h-97q-22 0 -36.5 14.5t-14.5 36.5z" />
<glyph unicode="u" horiz-adv-x="1093" d="M176 352v649q0 20 15.5 36t35.5 16q21 0 36.5 -15.5t15.5 -36.5v-657q0 -58 30 -115q57 -102 199 -102q152 0 229 123q29 47 42.5 96.5t13.5 75.5v-19v598q0 22 15.5 37t37.5 15q20 0 34.5 -15t14.5 -37v-915q0 -20 -14.5 -34.5t-34.5 -14.5q-22 0 -37.5 14.5t-15.5 34.5 v90q-99 -151 -287 -151q-107 0 -183.5 48t-111.5 120.5t-35 158.5z" />
<glyph unicode="v" horiz-adv-x="1064" d="M117 1001q0 20 14.5 36t36.5 16q35 0 49 -35l307 -868h11l313 868q6 15 20 24t29 9q19 0 34 -14.5t15 -37.5q0 -10 -2 -16l-323 -897q-14 -35 -50 -35h-86q-15 0 -29 10t-18 25l-317 897q-4 12 -4 18z" />
<glyph unicode="w" horiz-adv-x="1523" d="M117 1001q0 21 16 36.5t35 15.5q39 0 49 -37l256 -862l238 845q15 37 49 37q39 -3 51 -39l223 -837l271 856q6 17 20 27t29 10q22 0 36.5 -16t14.5 -36q0 -10 -2 -16l-283 -897q-5 -15 -18.5 -25t-30.5 -10h-74q-39 0 -49 37l-188 703l-199 -703q-5 -17 -18.5 -28 t-30.5 -11h-76q-36 0 -51 37l-266 899q0 2 -1 7t-1 7z" />
<glyph unicode="x" horiz-adv-x="1116" d="M133 86q0 14 10 31l342 461l-303 391q-12 15 -12 30q0 23 14.5 37.5t36.5 14.5q25 0 41 -19l289 -370l285 370q16 19 41 19q21 0 36 -14t15 -38q0 -13 -10 -30l-304 -391l357 -459q12 -15 12 -33q0 -22 -16 -36.5t-37 -14.5q-25 0 -39 20l-340 439l-324 -437 q-16 -22 -43 -22q-22 0 -36.5 14.5t-14.5 36.5z" />
<glyph unicode="y" horiz-adv-x="1091" d="M117 1001q0 22 15.5 37t35.5 15q33 0 47 -31l358 -799l299 797q13 33 48 33q22 0 36.5 -15.5t14.5 -36.5q0 -12 -2 -18l-381 -1018q-53 -136 -125 -184q-55 -41 -154 -41q-43 0 -76 8q-38 10 -38 51q0 23 16.5 37t38.5 12q7 -1 17 -2.5t19.5 -2.5t22.5 -1q67 0 101 27 q40 28 82 133l30 86l-399 893q-6 9 -6 20z" />
<glyph unicode="z" horiz-adv-x="1032" d="M139 104v52q0 19 11 30l600 748h-525q-21 0 -36 15t-15 36q0 20 15.5 35.5t35.5 15.5h602q21 0 36.5 -15t15.5 -36v-37q0 -15 -11 -30l-612 -762h588q21 0 36 -15.5t15 -36.5q0 -22 -14.5 -36.5t-36.5 -14.5h-654q-22 0 -36.5 14.5t-14.5 36.5z" />
<glyph unicode="{" horiz-adv-x="780" d="M135 578q0 35 35 47q76 30 132 86.5t56 124.5q0 54 -26 110q-45 95 -45 176q0 102 61 176t152 109q12 4 16 4h39q22 0 36.5 -14.5t14.5 -36.5t-14.5 -36.5t-36.5 -14.5h-29q-59 -25 -98 -74t-39 -111q0 -66 35 -135q37 -73 37 -149q0 -56 -21 -103q-37 -92 -159 -168 q172 -139 174 -288q0 -53 -33 -121q-35 -68 -35 -129q0 -60 39 -109.5t100 -79.5h19q22 0 36.5 -14t14.5 -37q0 -22 -14.5 -36.5t-36.5 -14.5h-29q-8 0 -33.5 11.5t-59.5 33t-69 61.5t-53 88q-16 50 -16 97q0 86 47 178q17 33 20 70q0 68 -65 145q-16 18 -34.5 36 t-34.5 30.5t-29 21.5t-21 14l-8 6q-25 12 -25 46z" />
<glyph unicode="|" horiz-adv-x="575" d="M238 -209v1761q0 22 14.5 37t36.5 15q21 0 36 -15t15 -37v-1761q0 -21 -15 -36t-36 -15q-22 0 -36.5 14.5t-14.5 36.5z" />
<glyph unicode="}" horiz-adv-x="780" d="M174 1360q0 22 14.5 36.5t36.5 14.5h39q5 0 17 -4q91 -35 152 -109t61 -176q0 -81 -45 -176q-29 -57 -29 -110q0 -68 56.5 -125t133.5 -86q35 -14 35 -47q0 -34 -24 -46l-9 -6q-8 -5 -21 -14t-29 -21.5t-34.5 -30.5t-33.5 -36q-66 -78 -66 -145q0 -35 18 -70 q50 -92 50 -178q0 -44 -17 -97q-18 -48 -53 -88t-69 -61.5t-59.5 -33t-33.5 -11.5h-28q-22 0 -37 14.5t-15 36.5q0 23 15 37t37 14h16q62 29 100.5 79t38.5 110q3 61 -35 129q-30 62 -30 121q2 149 174 288q-126 78 -162 168q-21 54 -21 103q0 72 39 149q35 75 35 135 q0 63 -39.5 111.5t-99.5 73.5h-27q-22 0 -36.5 14.5t-14.5 36.5z" />
<glyph unicode="~" horiz-adv-x="1454" d="M154 641q0 17 14 35q1 3 13 15t35.5 33.5t49.5 41.5q125 90 228 90q63 0 118 -16t80.5 -31t69.5 -45q34 -25 54.5 -37.5t58.5 -23.5t83 -11q43 0 100.5 31.5t89 58.5t58.5 54q14 20 41 20q22 0 36.5 -14.5t14.5 -36.5q0 -23 -18 -41q-179 -174 -322 -174q-60 0 -112 15.5 t-77 30.5t-67 44q-38 26 -58.5 38t-61 24t-88.5 12q-104 0 -250 -146q-15 -18 -39 -18q-19 0 -35 15t-16 36z" />
<glyph unicode="&#xa1;" horiz-adv-x="460" d="M147 958v46q0 26 18 43.5t46 17.5h45q26 0 43.5 -17.5t17.5 -43.5v-46q0 -26 -17.5 -43.5t-43.5 -17.5h-45q-28 0 -46 17.5t-18 43.5zM178 -285v961q0 20 14.5 34.5t36.5 14.5q20 0 35 -14.5t15 -34.5v-961q0 -22 -15 -37.5t-35 -15.5q-22 0 -36.5 15.5t-14.5 37.5z" />
<glyph unicode="&#xa2;" horiz-adv-x="1206" d="M174 735q0 210 103.5 351.5t283.5 164.5v117q0 22 15.5 36.5t37.5 14.5q20 0 35 -14.5t15 -36.5v-113q137 -8 231 -79.5t129 -200.5q2 -6 2 -14q0 -21 -15 -36.5t-36 -15.5q-18 0 -32 11t-17 28q-26 101 -101.5 153t-193.5 52q-165 0 -260 -115t-95 -303 q0 -189 93.5 -303.5t259.5 -114.5q125 0 203.5 62t99.5 182q4 20 20.5 32.5t36.5 10.5q45 -8 45 -51q-4 -44 -27 -103t-65 -108q-102 -114 -278 -125v-135q0 -22 -15 -36.5t-35 -14.5q-22 0 -37.5 14.5t-15.5 36.5v139q-180 23 -283.5 163t-103.5 351z" />
<glyph unicode="&#xa3;" horiz-adv-x="1116" d="M156 102q0 23 16 39q65 65 115 154q94 170 67 358l-2 33h-145q-22 0 -36.5 14.5t-14.5 36.5t14.5 36.5t36.5 14.5h129q-27 167 -27 277q3 185 82 276q77 99 238 99q136 0 215 -111q24 -33 38.5 -72.5t14.5 -56.5q0 -20 -13.5 -35t-33.5 -16q-17 -1 -31.5 9.5t-19.5 27.5 q-20 59 -41 86q-47 65 -129 65q-112 0 -160 -61q-54 -63 -57 -213q0 -125 26 -275h230q22 0 36.5 -14.5t14.5 -36.5t-14.5 -36.5t-36.5 -14.5h-213q17 -99 0 -186q-20 -159 -119 -312q94 25 168 25q53 0 147 -35q70 -24 90 -24q63 3 127 90q17 20 41 20q20 0 36 -15.5 t16 -35.5q0 -15 -11 -33q-104 -129 -207 -129q-46 0 -131 33q-5 2 -20 7.5t-22.5 7.5t-20 5.5t-23.5 5t-22 1.5q-29 0 -62 -4t-60 -9t-56.5 -12.5t-46.5 -13t-35 -11.5t-19 -6q-12 -4 -18 -4q-25 0 -38 15t-13 36z" />
<glyph unicode="&#xa4;" horiz-adv-x="1179" d="M117 250q0 17 12 29l168 170q-90 101 -90 256t90 256l-168 167q-12 12 -12 31q0 15 13 28t28 13q19 0 28 -12l172 -172q95 65 228 65q135 0 229 -69l178 176q12 12 29 12t29 -12.5t12 -28.5q0 -19 -12 -31l-177 -174q87 -101 87 -249q0 -154 -87 -250l177 -176 q12 -12 12 -29q0 -19 -13 -31t-28 -12q-20 0 -29 12l-178 178q-94 -69 -229 -69q-134 0 -226 65l-174 -174q-12 -12 -28 -12q-19 0 -30 13t-11 30zM289 705q0 -136 81.5 -215.5t215.5 -79.5q136 0 214.5 82t78.5 213q0 135 -81 214.5t-212 79.5q-135 0 -216 -81t-81 -213z " />
<glyph unicode="&#xa5;" horiz-adv-x="1275" d="M92 1380q0 22 15 37t36 15q25 0 41 -23l453 -627l453 627q15 21 40 21q21 0 36.5 -14t15.5 -36q0 -17 -8 -30l-486 -672v-53h318q17 0 29 -12t12 -29t-12 -29t-29 -12h-318v-176h318q17 0 29 -12t12 -29t-12 -29t-29 -12h-318v-199q0 -21 -15 -36t-36 -15 q-22 0 -36.5 14.5t-14.5 36.5v199h-316q-17 0 -29 12t-12 29t12 29t29 12h316v176h-316q-17 0 -29 12t-12 29t12 29t29 12h316v53l-484 672q-10 13 -10 30z" />
<glyph unicode="&#xa6;" horiz-adv-x="575" d="M238 -209v619q0 21 15 36t36 15q20 0 35.5 -15.5t15.5 -35.5v-619q0 -21 -15 -36t-36 -15q-22 0 -36.5 14.5t-14.5 36.5zM238 934v618q0 22 14.5 37t36.5 15q21 0 36 -15t15 -37v-618q0 -20 -15.5 -35.5t-35.5 -15.5q-21 0 -36 15t-15 36z" />
<glyph unicode="&#xa7;" horiz-adv-x="1216" d="M236 588q0 116 51.5 197.5t136.5 113.5q-56 34 -83.5 86t-27.5 137q0 141 85.5 228.5t226.5 87.5q136 0 225 -86q14 -14 14 -37q0 -22 -14.5 -36.5t-34.5 -14.5q-21 0 -37 16q-55 55 -153 55q-97 0 -154 -57t-57 -156q0 -93 47 -135q40 -31 164 -61q66 -17 124.5 -43 t112.5 -65.5t85.5 -97.5t31.5 -128q0 -118 -49.5 -197t-136.5 -114q56 -33 83 -86t27 -138q0 -143 -85.5 -229.5t-227.5 -85.5q-136 0 -225 86q-15 19 -15 35q0 22 14.5 36.5t36.5 14.5q23 0 37 -14q56 -56 152 -56q98 -1 154.5 56t56.5 157q0 94 -47 136q-38 31 -162 61 q-64 15 -123.5 42t-113.5 67t-86.5 98.5t-32.5 126.5zM338 588q0 -49 28 -91t68 -69t85.5 -46t80 -27.5t51.5 -8.5q107 0 166.5 68t59.5 178q0 49 -28.5 91t-76 71t-98 48t-103.5 29q-114 0 -173.5 -65t-59.5 -178z" />
<glyph unicode="&#xa8;" horiz-adv-x="948" d="M258 1507v92q0 21 15 36.5t36 15.5q20 0 35.5 -16t15.5 -36v-92q0 -20 -15.5 -34.5t-35.5 -14.5q-22 0 -36.5 14.5t-14.5 34.5zM590 1507v92q0 21 15 36.5t36 15.5q20 0 35.5 -16t15.5 -36v-92q0 -20 -15.5 -34.5t-35.5 -14.5q-22 0 -36.5 14.5t-14.5 34.5z" />
<glyph unicode="&#xa9;" horiz-adv-x="1724" d="M139 731q0 196 97.5 362.5t264 263.5t361.5 97q196 0 362.5 -97t263.5 -263.5t97 -362.5q0 -195 -97 -361.5t-263.5 -264t-362.5 -97.5q-146 0 -280 57.5t-231 154.5t-154.5 231t-57.5 280zM217 731q0 -175 86.5 -323.5t235 -235t323.5 -86.5t324 86.5t236 235t87 323.5 t-87 324t-236 236t-324 87t-323.5 -87t-235 -236t-86.5 -324zM512 729q0 177 95 290.5t257 113.5q115 0 195.5 -57t109.5 -163l2 -10q-2 -17 -13 -28t-28 -11q-13 0 -24 8.5t-14 20.5q-20 78 -78.5 119t-149.5 41q-128 0 -200 -89t-72 -235q0 -148 71 -235.5t199 -87.5 q97 0 158 47.5t78 140.5q3 15 15.5 24.5t29.5 8.5q13 -2 23 -12.5t10 -26.5q-2 -33 -20.5 -79.5t-51.5 -84.5q-82 -96 -242 -96q-161 0 -255.5 111t-94.5 290z" />
<glyph unicode="&#xaa;" horiz-adv-x="835" d="M106 936q0 89 52 137q67 61 229 76q129 15 182 47q0 55 -3 72.5t-21 36.5q-40 43 -137 43q-116 0 -166 -62q-9 -12 -15 -25t-8 -21l-2 -7q0 -17 -12.5 -28t-30.5 -11q-17 2 -28 14t-11 31q16 62 43 98q71 93 230 93q119 0 181 -53.5t62 -141.5v-358q1 -1 7.5 -13.5 t13.5 -19.5q14 -11 35 -17q20 -7 20 -30q0 -19 -12 -31t-29 -12q-49 0 -78 26q-25 28 -28 72q-40 -44 -103.5 -75.5t-142.5 -31.5q-103 0 -165.5 51.5t-62.5 139.5zM188 936q0 -53 39 -81t107 -28q86 0 147 44t88 102v133q-53 -25 -174 -37q-136 -16 -180 -57 q-27 -21 -27 -76z" />
<glyph unicode="&#xab;" horiz-adv-x="1130" d="M174 582q0 23 19 39l241 204q16 13 33 13q22 0 36.5 -15t14.5 -35q0 -25 -18 -40l-195 -166l195 -166q18 -12 18 -37q0 -22 -15 -36.5t-38 -14.5q-18 0 -33 12l-239 203q-19 13 -19 39zM612 582q0 23 19 39l241 204q16 13 33 13q22 0 36.5 -15t14.5 -35q0 -25 -18 -40 l-195 -166l195 -166q18 -12 18 -37q0 -22 -15 -36.5t-38 -14.5q-18 0 -33 12l-239 203q-19 13 -19 39z" />
<glyph unicode="&#xac;" horiz-adv-x="1308" d="M156 817q0 22 13.5 36.5t35.5 14.5h858q22 0 36.5 -14.5t14.5 -36.5v-399q0 -20 -15.5 -35.5t-35.5 -15.5q-22 0 -37.5 15.5t-13.5 35.5v348h-807q-22 0 -35.5 14.5t-13.5 36.5z" />
<glyph unicode="&#xad;" horiz-adv-x="901" d="M154 614q0 22 15 38t36 16h491q22 0 37 -16t15 -38q0 -21 -15 -35t-37 -14h-491q-22 0 -36.5 13.5t-14.5 35.5z" />
<glyph unicode="&#xae;" horiz-adv-x="1228" d="M270 1112q0 150 107.5 257.5t257.5 107.5q149 0 255.5 -107t106.5 -258q0 -148 -106.5 -255t-255.5 -107t-257 107t-108 255zM328 1112q0 -126 90 -215.5t217 -89.5q126 0 215.5 89.5t89.5 215.5q0 127 -89.5 217t-215.5 90q-127 0 -217 -89.5t-90 -217.5zM492 956v328 q0 12 10 22.5t22 10.5h144q54 0 87 -32t33 -83q0 -53 -34 -84q23 -28 26 -90q3 -46 6 -53q5 -10 5 -19q0 -13 -11 -22.5t-22 -9.5q-7 0 -17 6t-14 16q-12 24 -12 76v10v9.5t-0.5 8t-2 8t-3.5 6.5t-6 7t-9 6q-28 14 -28 41q0 10 9.5 23t20.5 16q1 1 6 3t6.5 3t5 4t5 7t3 11.5 t1.5 16.5q0 22 -14.5 35.5t-40.5 13.5h-111v-295q0 -12 -10.5 -22t-22.5 -10t-22 10t-10 22z" />
<glyph unicode="&#xaf;" horiz-adv-x="1105" d="M256 1645q0 22 14.5 36.5t36.5 14.5h492q20 0 34.5 -14.5t14.5 -36.5t-14.5 -37t-34.5 -15h-492q-22 0 -36.5 15t-14.5 37z" />
<glyph unicode="&#xb0;" horiz-adv-x="933" d="M139 1126q0 135 96.5 231.5t231.5 96.5t231.5 -96.5t96.5 -231.5t-96.5 -231t-231.5 -96t-231.5 95.5t-96.5 231.5zM225 1128q0 -101 71.5 -172t172.5 -71q100 0 171 71t71 172q0 100 -71 171t-171 71q-101 0 -172.5 -71t-71.5 -171z" />
<glyph unicode="&#xb1;" horiz-adv-x="1228" d="M135 104q0 22 14.5 37t36.5 15h711q22 0 36.5 -15t14.5 -37t-14.5 -36.5t-36.5 -14.5h-711q-22 0 -36.5 14.5t-14.5 36.5zM135 750q0 22 14.5 36.5t36.5 14.5h306l-3 305q0 21 15.5 36t36.5 15q22 0 37.5 -14.5t15.5 -36.5v-305h303q22 0 36.5 -14.5t14.5 -36.5 q0 -21 -15 -36.5t-36 -15.5h-303v-292q0 -22 -15 -37t-36 -15q-22 0 -36.5 15t-14.5 37v292h-306q-21 0 -36 15.5t-15 36.5z" />
<glyph unicode="&#xb2;" horiz-adv-x="714" d="M137 788q0 54 27 109q54 115 205 172q145 55 145 156q0 61 -38 93t-93 32q-69 0 -111 -39q-33 -36 -36 -101q-2 -18 -14 -29t-29 -10q-17 0 -29 12t-12 29q3 99 63 156q64 64 168 64q95 0 154 -56q61 -58 61 -147q0 -49 -20 -92q-46 -95 -181 -146q-134 -51 -166 -160 h316q19 0 31 -11.5t12 -28.5q0 -19 -12 -30t-31 -11h-367q-17 0 -29.5 10.5t-13.5 27.5z" />
<glyph unicode="&#xb3;" horiz-adv-x="731" d="M117 942v4q0 17 11.5 28t27.5 13q18 0 31 -11t14 -28q3 -65 53 -102q45 -31 106 -31q62 0 106 31t44 94q0 43 -18 67.5t-58 36.5q-17 6 -28 21.5t-11 34.5q0 41 37 57q55 20 55 80q0 45 -32.5 77t-94.5 32q-129 0 -141 -125q-1 -17 -13.5 -28t-29.5 -11q-17 1 -28 13.5 t-11 29.5q3 87 66 147q58 55 157 55q96 0 150 -51q61 -52 61 -139q0 -92 -73 -133q96 -47 96 -164q0 -92 -66 -152q-66 -57 -168 -57q-98 0 -167 57q-66 57 -76 154z" />
<glyph unicode="&#xb4;" horiz-adv-x="729" d="M258 1536q0 13 6 25l113 204q12 27 45 27q19 0 35 -14t16 -37q0 -13 -6 -25l-113 -205q-16 -26 -45 -26q-19 0 -35 14t-16 37z" />
<glyph unicode="&#xb6;" horiz-adv-x="1423" d="M156 977q0 184 106 299q131 137 367 137l508 -2q22 0 36.5 -14.5t14.5 -36.5v-1567q0 -23 -14.5 -38t-36.5 -15t-37 15.5t-15 37.5v1516h-211v-1516q0 -23 -14.5 -38t-36.5 -15t-36.5 15.5t-14.5 37.5v737h-125q-232 0 -364 113q-127 112 -127 334z" />
<glyph unicode="&#xb7;" horiz-adv-x="495" d="M154 674v45q0 26 18.5 43.5t44.5 17.5h45q27 0 45.5 -17.5t18.5 -43.5v-45q0 -26 -18.5 -43t-45.5 -17h-45q-27 0 -45 17t-18 43z" />
<glyph unicode="&#xb8;" horiz-adv-x="907" d="M258 -479q5 22 21.5 33.5t37.5 7.5q135 -25 199 26q33 26 33 70q0 51 -55 76.5t-138 25.5q-27 0 -43 23q-13 23 -4 47l105 264q7 20 27 28.5t40 0.5q19 -7 27 -27.5t0 -40.5l-80 -200q103 -15 163 -67t60 -130q0 -94 -71 -147q-69 -60 -185 -60q-45 0 -98 12 q-20 3 -32 20.5t-7 37.5z" />
<glyph unicode="&#xb9;" horiz-adv-x="516" d="M137 1268q0 17 11 29.5t28 13.5q55 3 76 18q25 19 31 66q3 15 14.5 25t26.5 10h14q17 0 29 -12.5t12 -31.5v-604q0 -17 -12 -29t-29 -12t-29 12t-12 29v490q-42 -39 -117 -45q-19 0 -31 12t-12 29z" />
<glyph unicode="&#xba;" horiz-adv-x="823" d="M109 1087q0 148 84.5 245.5t220.5 97.5t219.5 -97t83.5 -246q0 -150 -82.5 -247t-220.5 -97q-136 0 -220.5 95.5t-84.5 248.5zM190 1087q0 -119 64 -192q62 -68 160 -68q94 0 159 68q62 75 62 192q0 116 -62 191q-62 68 -159 68q-101 0 -160 -68q-64 -73 -64 -191z" />
<glyph unicode="&#xbb;" horiz-adv-x="1130" d="M174 788q0 20 14.5 35t36.5 15q17 0 33 -13l242 -204q18 -15 18 -39q0 -27 -18 -39l-240 -203q-18 -14 -33 -14q-23 0 -37 15.5t-14 37.5q0 26 17 37l194 166l-194 166q-19 16 -19 40zM612 788q0 20 15 35t37 15q16 0 32 -13l242 -204q18 -15 18 -39q0 -27 -18 -39 l-240 -205q-20 -12 -32 -12q-23 0 -37.5 15.5t-14.5 37.5q0 26 17 37l194 166l-194 166q-19 16 -19 40z" />
<glyph unicode="&#xbc;" horiz-adv-x="1531" d="M137 1268q0 17 11 29.5t28 13.5q55 3 76 18q25 19 31 66q3 15 14.5 25t26.5 10h14q17 0 29 -12.5t12 -31.5v-604q0 -17 -12 -29t-29 -12t-29 12t-12 29v490q-42 -39 -117 -45q-19 0 -31 12t-12 29zM276 78q0 10 9 22l915 1344q12 18 35 18q15 0 28 -12.5t13 -30.5 q0 -10 -6 -22l-918 -1344q-12 -18 -35 -18q-17 0 -29 12t-12 31zM903 227v33q0 13 6 25l291 405q14 17 35 17l22 2q18 0 30.5 -12.5t12.5 -28.5v-400h56q17 0 29 -12t12 -29t-12 -29t-29 -12h-56v-125q0 -19 -12 -31t-31 -12q-17 0 -28.5 12t-11.5 31v125h-273q-17 0 -29 12 t-12 29zM1004 268h213v303l-213 -297v-6z" />
<glyph unicode="&#xbd;" horiz-adv-x="1617" d="M137 1268q0 17 11 29.5t28 13.5q55 3 76 18q25 19 31 66q3 15 14.5 25t26.5 10h14q17 0 29 -12.5t12 -31.5v-604q0 -17 -12 -29t-29 -12t-29 12t-12 29v490q-42 -39 -117 -45q-19 0 -31 12t-12 29zM297 78q0 11 8 22l916 1344q12 18 34 18q15 0 28 -12.5t13 -30.5 q0 -10 -6 -22l-917 -1344q-12 -18 -35 -18q-17 0 -29 12t-12 31zM1020 76q0 53 27 108q55 116 204 172q44 17 75 38.5t45.5 43.5t20 39.5t5.5 34.5q0 61 -38 93t-93 32q-69 0 -111 -39q-34 -37 -37 -100q-2 -18 -14 -29t-29 -10q-17 0 -29 12t-12 29q3 94 64 155 q64 64 168 64q92 0 153 -55q62 -59 62 -148q0 -47 -21 -92q-46 -95 -180 -145q-134 -51 -166 -160h316q19 0 31 -12t12 -29q0 -19 -12 -30t-31 -11h-367q-17 0 -29.5 11t-13.5 28z" />
<glyph unicode="&#xbe;" horiz-adv-x="1607" d="M117 942v4q0 17 11.5 28t27.5 13q18 0 31 -11t14 -28q3 -65 53 -102q45 -31 106 -31q62 0 106 31t44 94q0 43 -18 67.5t-58 36.5q-17 6 -28 21.5t-11 34.5q0 41 37 57q55 20 55 80q0 45 -32.5 77t-94.5 32q-129 0 -141 -125q-1 -17 -13.5 -28t-29.5 -11q-17 1 -28 13.5 t-11 29.5q3 87 66 147q58 55 157 55q96 0 150 -51q61 -52 61 -139q0 -92 -73 -133q96 -47 96 -164q0 -92 -66 -152q-66 -57 -168 -57q-98 0 -167 57q-66 57 -76 154zM381 78q0 11 8 22l916 1344q12 18 34 18q15 0 28 -12.5t13 -30.5q0 -10 -6 -22l-917 -1344 q-12 -18 -35 -18q-17 0 -29 12t-12 31zM997 227v33q0 7 9 25l290 405q14 17 33 17l25 2q17 0 29 -12.5t12 -28.5v-400h55q17 0 29 -12t12 -29t-12 -29t-29 -12h-55v-125q0 -19 -12 -31t-29 -12t-29 12t-12 31v125h-275q-17 0 -29 12t-12 29zM1100 268h213v303l-213 -297v-6z " />
<glyph unicode="&#xbf;" horiz-adv-x="1179" d="M174 18q0 54 12.5 101.5t28 78.5t47 66.5t49.5 52t56 48.5l6 6q70 57 101 92.5t48 85t19 127.5q1 22 16 35.5t35 13.5q23 0 38 -15t13 -36q-1 -73 -13.5 -126.5t-41 -98t-61 -77t-89.5 -79.5l-6 -6q-43 -37 -63 -55.5t-46 -52.5t-36.5 -72.5t-10.5 -88.5 q0 -116 79.5 -185t209.5 -69q157 0 241 84t97 218q2 20 16.5 33t36.5 12q20 -1 33 -15.5t15 -34.5v-16q-19 -167 -131 -275t-308 -108q-170 0 -280.5 98t-110.5 258zM512 965v45q0 25 18 42t45 17h46q26 0 43.5 -16.5t17.5 -42.5v-45q0 -26 -17.5 -44t-43.5 -18h-46 q-27 0 -45 17.5t-18 44.5z" />
<glyph unicode="&#xc0;" d="M113 86q0 6 4 18l481 1274q4 15 18 25t29 10h94q32 0 47 -33l486 -1276q2 -6 2 -20q0 -22 -16 -34.5t-35 -12.5q-33 0 -47 31l-152 401h-659l-152 -401q-12 -31 -49 -31q-21 0 -36 13.5t-15 35.5zM401 571h584l-283 742h-20zM518 1741q0 23 16 37t35 14q33 0 45 -27 l113 -204q6 -12 6 -25q0 -23 -16 -37t-35 -14q-29 0 -45 26l-113 205q-6 12 -6 25z" />
<glyph unicode="&#xc1;" d="M113 86q0 6 4 18l481 1274q4 15 18 25t29 10h94q32 0 47 -33l486 -1276q2 -6 2 -20q0 -22 -16 -34.5t-35 -12.5q-33 0 -47 31l-152 401h-659l-152 -401q-12 -31 -49 -31q-21 0 -36 13.5t-15 35.5zM401 571h584l-283 742h-20zM649 1536q0 13 6 25l113 204q12 27 45 27 q19 0 35 -14t16 -37q0 -13 -6 -25l-113 -205q-16 -26 -45 -26q-19 0 -35 14t-16 37z" />
<glyph unicode="&#xc2;" d="M113 86q0 6 4 18l481 1276q5 14 18.5 23.5t28.5 9.5h94q32 0 47 -33l486 -1276q2 -6 2 -20q0 -22 -16 -34.5t-35 -12.5q-33 0 -47 31l-152 401h-659l-152 -401q-12 -31 -49 -31q-21 0 -36 13.5t-15 35.5zM401 571h584l-283 742h-20zM473 1587q0 21 16 37l168 162 q14 14 35 14q24 0 35 -14l170 -162q14 -14 14 -37q0 -22 -14.5 -36.5t-34.5 -14.5q-23 0 -37 14l-133 129l-133 -129q-14 -14 -35 -14q-22 0 -36.5 14.5t-14.5 36.5z" />
<glyph unicode="&#xc3;" d="M115 86q0 12 2 18l481 1274q4 15 18 25t29 10h94q32 0 47 -33l486 -1276q2 -6 2 -20q0 -22 -16 -34.5t-35 -12.5q-33 0 -47 31l-152 401h-659l-152 -401q-12 -31 -49 -31q-21 0 -35 13t-14 36zM393 1585q0 3 1 10l1 7q17 69 69 111t118 42q85 0 141 -67q41 -52 82 -52 q32 0 57 22t31 56q4 17 19 28t32 11q21 0 35 -14t16 -35q0 -8 -2 -14q-17 -69 -69 -112.5t-119 -43.5q-86 0 -148 74q-32 45 -75 45q-32 0 -56 -22t-32 -56q-5 -17 -19 -29t-31 -12q-21 0 -36 16t-15 35zM401 571h584l-283 742h-20z" />
<glyph unicode="&#xc4;" d="M115 86q0 12 2 18l481 1276q5 14 18.5 23.5t28.5 9.5h94q32 0 47 -33l486 -1276q2 -6 2 -20q0 -22 -16 -34.5t-35 -12.5q-33 0 -47 31l-152 401h-659l-152 -401q-12 -31 -49 -31q-21 0 -35 13t-14 36zM401 571h584l-283 742h-20zM475 1507v92q0 21 15 36.5t36 15.5 q20 0 36 -16t16 -36v-92q0 -20 -15.5 -34.5t-36.5 -14.5q-22 0 -36.5 14.5t-14.5 34.5zM807 1507v92q0 21 15 36.5t36 15.5q20 0 35.5 -16t15.5 -36v-92q0 -20 -15.5 -34.5t-35.5 -14.5q-22 0 -36.5 14.5t-14.5 34.5z" />
<glyph unicode="&#xc5;" d="M113 86q0 6 4 18l479 1268q-92 59 -92 164q0 77 56 132.5t134 55.5t134.5 -55.5t56.5 -132.5q0 -51 -26 -95t-68 -69l481 -1268q2 -6 2 -20q0 -22 -16 -34.5t-35 -12.5q-33 0 -47 31l-152 401h-659l-152 -401q-12 -31 -49 -31q-21 0 -36 13.5t-15 35.5zM401 571h584 l-283 742h-20zM571 1536q0 -47 32.5 -82.5t78.5 -40.5h25q47 4 78.5 39.5t31.5 83.5q0 50 -36 86.5t-87 36.5t-87 -36.5t-36 -86.5z" />
<glyph unicode="&#xc6;" horiz-adv-x="2099" d="M113 86q0 6 4 18l481 1276q5 14 18.5 23.5t28.5 9.5h1249q20 0 35 -15.5t15 -35.5q0 -22 -15 -36.5t-35 -14.5h-782v-484h717q22 0 36.5 -15.5t14.5 -37.5t-14.5 -35.5t-36.5 -13.5h-717v-569h803q20 0 34.5 -15.5t14.5 -36.5q0 -22 -14.5 -36.5t-34.5 -14.5h-854 q-22 0 -36.5 14.5t-14.5 36.5v365h-645l-152 -399q-14 -35 -49 -35q-21 0 -36 15t-15 36zM401 571h609v740h-328z" />
<glyph unicode="&#xc7;" horiz-adv-x="1458" d="M156 731q0 205 72 364.5t214 252t334 92.5t330 -95t188 -274q0 -3 1 -8t1 -8q0 -21 -14 -36t-37 -15q-39 0 -51 38q-36 143 -147 219t-271 76q-163 0 -281.5 -78.5t-177.5 -214.5t-59 -313q0 -173 57.5 -308t175 -215.5t279.5 -80.5q195 0 312.5 106.5t138.5 288.5 q3 19 18 32t35 13t33.5 -15t15.5 -34v-8q-25 -206 -155 -336t-345 -147l-69 -174q103 -15 163 -67t60 -130q0 -93 -72 -150q-66 -57 -184 -57q-54 0 -98 10q-20 5 -31.5 22.5t-7.5 37.5q4 22 20.5 33t38.5 8q136 -28 199 26q32 25 32 70q0 51 -54.5 76.5t-137.5 25.5 q-27 0 -43 23q-13 23 -4 47l80 201q-254 20 -406.5 209.5t-152.5 492.5z" />
<glyph unicode="&#xc8;" horiz-adv-x="1327" d="M236 104v1258q0 21 15 36t36 15h833q21 0 36 -15t15 -36q0 -22 -14.5 -36.5t-36.5 -14.5h-782v-486h717q22 0 36.5 -14.5t14.5 -36.5t-14.5 -36.5t-36.5 -14.5h-717v-567h803q21 0 36 -15.5t15 -36.5q0 -22 -14.5 -36.5t-36.5 -14.5h-854q-22 0 -36.5 14.5t-14.5 36.5z M557 1741q0 23 16 37t35 14q33 0 45 -27l113 -204q6 -12 6 -25q0 -23 -16 -37t-35 -14q-29 0 -45 26l-113 205q-6 12 -6 25z" />
<glyph unicode="&#xc9;" horiz-adv-x="1327" d="M238 104v1258q0 21 14 36t35 15h833q21 0 36 -15t15 -36q0 -22 -14.5 -36.5t-36.5 -14.5h-782v-484h717q22 0 37.5 -15.5t15.5 -37.5q0 -21 -15.5 -35t-37.5 -14h-717v-569h803q21 0 36 -15.5t15 -36.5q0 -22 -14.5 -36.5t-36.5 -14.5h-854q-22 0 -35.5 14.5t-13.5 36.5z M647 1536q0 13 6 25l113 204q12 27 45 27q19 0 35 -14t16 -37q0 -13 -6 -25l-113 -205q-16 -26 -45 -26q-19 0 -35 14t-16 37z" />
<glyph unicode="&#xca;" horiz-adv-x="1327" d="M238 104v1258q0 21 14 36t35 15h833q21 0 36 -15t15 -36q0 -22 -14.5 -36.5t-36.5 -14.5h-782v-486h717q22 0 37.5 -14.5t15.5 -36.5t-15.5 -36.5t-37.5 -14.5h-717v-567h803q21 0 36 -15.5t15 -36.5q0 -22 -14.5 -36.5t-36.5 -14.5h-854q-22 0 -35.5 14.5t-13.5 36.5z M494 1649q0 21 16 37l168 161q15 15 35 15q23 0 35 -15l170 -161q14 -14 14 -37q0 -22 -14.5 -37t-34.5 -15q-22 0 -37 15l-133 129l-133 -129q-15 -15 -35 -15q-22 0 -36.5 15t-14.5 37z" />
<glyph unicode="&#xcb;" horiz-adv-x="1327" d="M238 104v1258q0 21 14 36t35 15h833q21 0 36 -15t15 -36q0 -22 -14.5 -36.5t-36.5 -14.5h-782v-486h717q22 0 37.5 -14.5t15.5 -36.5t-15.5 -36.5t-37.5 -14.5h-717v-567h803q21 0 36 -15.5t15 -36.5q0 -22 -14.5 -36.5t-36.5 -14.5h-854q-22 0 -35.5 14.5t-13.5 36.5z M489 1507v92q0 21 15.5 36.5t36.5 15.5q20 0 35.5 -16t15.5 -36v-92q0 -20 -15.5 -34.5t-35.5 -14.5q-22 0 -37 14.5t-15 34.5zM821 1507v92q0 21 15 36.5t36 15.5q20 0 36 -16t16 -36v-92q0 -20 -15.5 -34.5t-36.5 -14.5q-22 0 -36.5 14.5t-14.5 34.5z" />
<glyph unicode="&#xcc;" horiz-adv-x="575" d="M113 1741q0 23 16 37t35 14q33 0 45 -27l113 -204q6 -12 6 -25q0 -23 -16 -37t-33 -14q-32 0 -48 26l-112 205q-6 12 -6 25zM236 86v1292q0 22 15 37t36 15q22 0 37.5 -15t15.5 -37v-1292q0 -22 -15.5 -36.5t-37.5 -14.5q-21 0 -36 15t-15 36z" />
<glyph unicode="&#xcd;" horiz-adv-x="575" d="M236 86v1292q0 22 15.5 38t35.5 16q22 0 37.5 -16t15.5 -38v-1292q0 -22 -15.5 -36.5t-37.5 -14.5q-21 0 -36 15t-15 36zM244 1536q0 13 6 25l112 204q12 27 46 27q19 0 35 -14t16 -37q0 -13 -6 -25l-113 -205q-16 -26 -45 -26q-19 0 -35 14t-16 37z" />
<glyph unicode="&#xce;" horiz-adv-x="575" d="M72 1587q0 21 16 37l168 162q14 14 35 14q24 0 35 -14l170 -162q14 -14 14 -37q0 -22 -14.5 -36.5t-34.5 -14.5q-23 0 -37 14l-133 129l-133 -129q-14 -14 -35 -14q-22 0 -36.5 14.5t-14.5 36.5zM236 86v1292q0 22 15.5 38t35.5 16q22 0 37.5 -16t15.5 -38v-1292 q0 -22 -15.5 -36.5t-37.5 -14.5q-21 0 -36 15t-15 36z" />
<glyph unicode="&#xcf;" horiz-adv-x="575" d="M72 1585v92q0 21 15 36.5t36 15.5q20 0 35.5 -16t15.5 -36v-92q0 -20 -15.5 -34.5t-35.5 -14.5q-22 0 -36.5 14.5t-14.5 34.5zM238 86v1292q0 22 14.5 38t34.5 16q22 0 37.5 -16t15.5 -38v-1292q0 -22 -15.5 -36.5t-37.5 -14.5q-20 0 -34.5 14.5t-14.5 36.5zM403 1585v92 q0 21 15.5 36.5t36.5 15.5q20 0 35.5 -16t15.5 -36v-92q0 -20 -15.5 -34.5t-35.5 -14.5q-22 0 -37 14.5t-15 34.5z" />
<glyph unicode="&#xd0;" horiz-adv-x="1464" d="M154 817q0 22 14.5 36.5t36.5 14.5h33v494q0 21 14 36t35 15l438 -2q286 0 435 -182.5t149 -501.5q0 -152 -36.5 -275t-109 -213t-187.5 -139t-265 -49h-424q-22 0 -35.5 14.5t-13.5 36.5v664h-33q-22 0 -36.5 14.5t-14.5 36.5zM338 154h373q249 0 372 150t123 423 q0 276 -118.5 429t-362.5 153h-387v-441h358q22 0 37 -14.5t15 -36.5t-15 -36.5t-37 -14.5h-358v-612z" />
<glyph unicode="&#xd1;" horiz-adv-x="1507" d="M238 86v1276q0 22 13.5 35.5t35.5 13.5h84q28 0 45 -25l723 -1183h30v1175q0 22 14 37t36 15t37.5 -15t15.5 -37v-1276q0 -22 -15 -36.5t-38 -14.5h-76q-29 3 -43 25l-729 1188h-31v-1178q0 -20 -15.5 -35.5t-37.5 -15.5q-21 0 -35 15t-14 36zM453 1585q0 3 1 10l1 7 q17 69 68.5 111t117.5 42q85 0 141 -67q41 -52 82 -52q32 0 57 22t31 56q4 17 19 28t33 11q22 0 36.5 -14.5t14.5 -34.5q0 -8 -2 -14q-17 -69 -69.5 -112.5t-119.5 -43.5q-85 0 -147 74q-32 45 -76 45q-32 0 -56 -22t-32 -56q-5 -18 -18.5 -29.5t-30.5 -11.5q-21 0 -36 16 t-15 35z" />
<glyph unicode="&#xd2;" horiz-adv-x="1579" d="M154 731q0 205 81.5 366.5t225.5 251t325 89.5q278 0 457.5 -197t179.5 -510t-179.5 -510.5t-457.5 -197.5q-135 0 -252.5 52.5t-201 145t-131 224.5t-47.5 286zM258 731q0 -267 146.5 -436.5t381.5 -169.5q239 0 387 168t148 438q0 176 -67 313.5t-189 214t-279 76.5 q-235 0 -381.5 -168.5t-146.5 -435.5zM618 1741q0 23 16.5 37t35.5 14q33 0 45 -27l112 -204q7 -14 7 -25q0 -23 -16.5 -37t-35.5 -14q-29 0 -45 26l-112 205q-7 14 -7 25z" />
<glyph unicode="&#xd3;" horiz-adv-x="1579" d="M154 731q0 205 81.5 367t225.5 252t325 90q278 0 457.5 -198t179.5 -511q0 -155 -48 -287t-132 -224t-202 -143.5t-255 -51.5q-181 0 -325 89t-225.5 250.5t-81.5 366.5zM258 731q0 -267 146.5 -435.5t381.5 -168.5q239 0 387 167t148 437q0 268 -148.5 437t-386.5 169 q-235 0 -381.5 -169.5t-146.5 -436.5zM721 1536q0 13 6 25l113 204q12 27 45 27q19 0 35 -14t16 -37q0 -13 -6 -25l-113 -205q-16 -26 -45 -26q-19 0 -35 14t-16 37z" />
<glyph unicode="&#xd4;" horiz-adv-x="1579" d="M154 731q0 205 81.5 367t225.5 252t325 90q278 0 457.5 -198t179.5 -511q0 -155 -48 -287t-132 -224t-202 -143.5t-255 -51.5q-181 0 -325 89t-225.5 250.5t-81.5 366.5zM258 731q0 -267 146.5 -435.5t381.5 -168.5q239 0 387 167t148 437q0 268 -148.5 437t-386.5 169 q-235 0 -381.5 -169.5t-146.5 -436.5zM561 1620q0 20 17 37l167 162q14 14 35 14q24 0 35 -14l170 -162q14 -14 14 -37q0 -22 -14.5 -36.5t-34.5 -14.5q-23 0 -37 14l-133 129l-133 -129q-14 -14 -35 -14q-22 0 -36.5 14.5t-14.5 36.5z" />
<glyph unicode="&#xd5;" horiz-adv-x="1579" d="M156 731q0 205 81 366.5t224.5 251t324.5 89.5q183 0 328.5 -88.5t228 -250t82.5 -368.5q0 -155 -48 -287.5t-132.5 -224.5t-203 -144t-255.5 -52q-135 0 -252 52.5t-200 145t-130.5 224.5t-47.5 286zM258 731q0 -267 146.5 -436.5t381.5 -169.5q239 0 388 168t149 438 q0 267 -149 435.5t-388 168.5q-235 0 -381.5 -168.5t-146.5 -435.5zM489 1651q0 3 1.5 9t1.5 7q17 69 68.5 111.5t117.5 42.5q85 0 141 -68q40 -51 82 -51q32 0 57 22t31 56q4 17 19 28t32 11q22 0 37 -15t15 -35q0 -8 -2 -14q-17 -69 -69.5 -112.5t-119.5 -43.5 q-85 0 -147 74q-32 45 -76 45q-32 0 -56 -22t-32 -56q-5 -18 -18.5 -29.5t-30.5 -11.5q-21 0 -36.5 16.5t-15.5 35.5z" />
<glyph unicode="&#xd6;" horiz-adv-x="1579" d="M156 731q0 205 81 367t224.5 252t324.5 90q183 0 328.5 -89t228 -251t82.5 -369q0 -155 -48 -287t-132.5 -224t-203 -143.5t-255.5 -51.5q-181 0 -324.5 89t-224.5 250.5t-81 366.5zM258 731q0 -267 146.5 -435.5t381.5 -168.5q239 0 388 167t149 437q0 176 -67.5 314 t-190 215t-279.5 77q-235 0 -381.5 -169.5t-146.5 -436.5zM573 1507v92q0 21 15.5 36.5t36.5 15.5q20 0 35.5 -16t15.5 -36v-92q0 -20 -15.5 -34.5t-35.5 -14.5q-22 0 -37 14.5t-15 34.5zM905 1507v92q0 21 15 36.5t36 15.5q20 0 36 -16t16 -36v-92q0 -20 -15.5 -34.5 t-36.5 -14.5q-22 0 -36.5 14.5t-14.5 34.5z" />
<glyph unicode="&#xd7;" horiz-adv-x="1048" d="M154 358q0 23 14 37l285 285l-285 281q-14 14 -14 36t15.5 37t35.5 15q23 0 35 -15l284 -282l283 282q15 15 35 15q24 0 38.5 -16t14.5 -36q0 -21 -16 -34l-283 -283l283 -285q16 -16 16 -35q0 -22 -16 -36.5t-35 -14.5q-22 0 -37 15l-283 282l-282 -282q-17 -17 -37 -17 q-21 0 -36 16t-15 35z" />
<glyph unicode="&#xd8;" horiz-adv-x="1579" d="M154 731q0 205 81.5 366.5t225.5 251t325 89.5q176 0 312 -80l63 110q17 27 45 27q21 0 35 -14.5t14 -38.5q0 -17 -6 -27l-67 -115q116 -95 179.5 -241.5t63.5 -327.5q0 -155 -48 -287.5t-132.5 -224.5t-203 -144t-255.5 -52q-164 0 -299 75l-67 -116q-15 -27 -45 -27 q-19 0 -34 14t-15 37q0 15 6 27l71 123q-118 96 -183.5 244t-65.5 331zM258 731q0 -156 51.5 -281.5t145.5 -205.5l592 1026q-112 65 -261 65q-235 0 -381.5 -168.5t-146.5 -435.5zM539 186q113 -61 247 -61q239 0 388 168t149 438q0 152 -50.5 275t-142.5 204z" />
<glyph unicode="&#xd9;" horiz-adv-x="1404" d="M195 485v895q0 22 14.5 36t36.5 14t36.5 -14t14.5 -36v-897q0 -358 399 -358q121 0 210.5 34.5t144.5 116.5t55 207v897q0 22 14.5 36t36.5 14q21 0 36 -14.5t15 -35.5v-895q0 -97 -26.5 -174.5t-73 -130.5t-112 -89t-140 -52t-160.5 -16q-237 0 -369 117.5t-132 344.5z M549 1741q0 23 16 37t35 14q33 0 45 -27l113 -204q6 -12 6 -25q0 -23 -16 -37t-33 -14q-31 0 -47 26l-113 205q-6 12 -6 25z" />
<glyph unicode="&#xda;" horiz-adv-x="1404" d="M195 485v895q0 22 14.5 37t36.5 15t36.5 -15t14.5 -37v-897q0 -356 399 -356q90 0 163 20t129 61t87 111t31 164v897q0 22 14.5 37t36.5 15q21 0 36 -15t15 -37v-895q0 -97 -26.5 -174.5t-73 -130t-112 -88t-140 -51.5t-160.5 -16q-237 0 -369 116.5t-132 343.5z M592 1536q0 13 6 25l113 204q12 27 45 27q19 0 35 -14t16 -37q0 -13 -6 -25l-113 -205q-16 -26 -45 -26q-19 0 -35 14t-16 37z" />
<glyph unicode="&#xdb;" horiz-adv-x="1404" d="M195 485v895q0 22 14.5 37t36.5 15t36.5 -15t14.5 -37v-897q0 -356 399 -356q90 0 163 20t129 61t87 111t31 164v897q0 22 14.5 36t36.5 14q21 0 36 -14.5t15 -35.5v-895q0 -97 -26.5 -174.5t-73 -130.5t-112 -89t-140 -52t-160.5 -16q-237 0 -369 117.5t-132 344.5z M479 1587q0 20 17 37l168 162q14 14 34 14q24 0 35 -14l170 -162q15 -15 15 -37q0 -21 -15 -36t-35 -15q-23 0 -37 14l-133 129l-133 -129q-14 -14 -35 -14q-22 0 -36.5 14.5t-14.5 36.5z" />
<glyph unicode="&#xdc;" horiz-adv-x="1404" d="M195 485v895q0 22 14.5 37t36.5 15t36.5 -15t14.5 -37v-897q0 -356 399 -356q90 0 163 20t129 61t87 111t31 164v897q0 22 14.5 36t36.5 14q21 0 36 -14.5t15 -35.5v-895q0 -97 -26.5 -174.5t-73 -130.5t-112 -89t-140 -52t-160.5 -16q-237 0 -369 117.5t-132 344.5z M483 1507v92q0 21 15.5 36.5t36.5 15.5q20 0 35.5 -16t15.5 -36v-92q0 -20 -15.5 -34.5t-35.5 -14.5q-22 0 -37 14.5t-15 34.5zM815 1507v92q0 21 15 36.5t36 15.5q20 0 36 -16t16 -36v-92q0 -20 -15.5 -34.5t-36.5 -14.5q-22 0 -36.5 14.5t-14.5 34.5z" />
<glyph unicode="&#xdd;" horiz-adv-x="1275" d="M92 1380q0 22 15 37t36 15q25 0 41 -23l453 -627l453 627q16 23 40 23q21 0 36.5 -14.5t15.5 -37.5q0 -17 -8 -30l-486 -672v-592q0 -22 -14.5 -35.5t-36.5 -13.5t-36.5 13.5t-14.5 35.5v592l-484 672q-10 13 -10 30zM530 1536q0 11 7 25l112 204q12 27 45 27 q19 0 35 -14t16 -37q0 -13 -6 -25l-112 -205q-16 -26 -45 -26q-19 0 -35.5 14t-16.5 37z" />
<glyph unicode="&#xde;" horiz-adv-x="1308" d="M236 1378q0 22 15.5 38t35.5 16q21 0 36 -16t15 -38v-176h436q194 0 308 -103t114 -284q0 -193 -114.5 -294t-323.5 -101h-418v-336q0 -20 -15.5 -35.5t-37.5 -15.5q-21 0 -35 15t-14 36zM338 522h420q336 0 336 293q0 137 -82.5 211t-237.5 74h-436v-578z" />
<glyph unicode="&#xdf;" horiz-adv-x="1081" d="M197 94v1004q0 56 20 113.5t58 110t103 85.5t146 33q172 0 267.5 -89t95.5 -245q0 -90 -37.5 -160.5t-91.5 -103.5q-23 -17 -25 -23q1 -4 5.5 -7.5t8 -6t12 -7.5t11.5 -7q178 -111 178 -371q0 -144 -74 -244q-50 -70 -133 -110.5t-184 -40.5q-46 0 -76 10q-44 12 -41 59 q3 20 21.5 32.5t38.5 8.5q32 -8 59 -8q134 2 210.5 81.5t76.5 217.5q0 225 -162 299q-37 19 -56 38t-20 46q0 22 6 38.5t17 27t19 15t20 9.5q51 21 82.5 76.5t31.5 130.5q0 231 -258 231q-106 0 -163.5 -67t-63.5 -170v-1006q0 -21 -15 -36t-36 -15q-22 0 -36.5 14.5 t-14.5 36.5z" />
<glyph unicode="&#xe0;" horiz-adv-x="1155" d="M150 309q0 130 77 201q93 90 336 117q240 26 285 78v67q0 78 -49 125q-64 64 -207 64q-178 0 -256 -99q-15 -21 -24.5 -44t-11.5 -36l-3 -12q0 -20 -15.5 -34.5t-35.5 -14.5q-20 2 -35 16.5t-14 38.5q0 9 3 26.5t17.5 54t38.5 67.5q103 139 336 139q200 0 291 -102 q67 -75 67 -189v-551q0 -78 60 -84q22 1 37.5 -14t15.5 -37q0 -20 -15.5 -35.5t-35.5 -15.5q-76 0 -121 49q-37 40 -41 98l-6 -6q-146 -153 -363 -153q-161 0 -246 81.5t-85 204.5zM252 309q0 -76 49 -125q62 -59 180 -59q168 0 287 119q55 60 80 116v226q-107 -44 -266 -60 q-212 -24 -283 -88q-47 -42 -47 -129zM451 1518q0 23 16 37t35 14q33 0 45 -27l112 -205q7 -14 7 -24q0 -23 -16.5 -37t-33.5 -14q-31 0 -47 26l-112 205q-6 12 -6 25z" />
<glyph unicode="&#xe1;" horiz-adv-x="1155" d="M150 309q0 130 77 201q93 90 336 117q240 26 285 78v67q0 78 -49 125q-64 64 -207 64q-178 0 -256 -99q-15 -21 -24.5 -44t-11.5 -36l-3 -12q0 -20 -15.5 -34.5t-35.5 -14.5q-20 2 -35 16.5t-14 38.5q0 9 3 26.5t17.5 54t38.5 67.5q103 139 336 139q200 0 291 -102 q67 -75 67 -189v-551q0 -78 60 -84q22 1 37.5 -14t15.5 -37q0 -20 -15.5 -35.5t-35.5 -15.5q-76 0 -121 49q-37 40 -41 98l-6 -6q-146 -153 -363 -153q-161 0 -246 81.5t-85 204.5zM252 309q0 -76 49 -125q62 -59 180 -59q168 0 287 119q55 60 80 116v226q-107 -44 -266 -60 q-212 -24 -283 -88q-47 -42 -47 -129zM502 1313q0 12 6 24l113 205q12 27 45 27q19 0 35 -14t16 -37q0 -13 -6 -25l-113 -205q-16 -26 -47 -26q-17 0 -33 14t-16 37z" />
<glyph unicode="&#xe2;" horiz-adv-x="1155" d="M150 309q0 130 77 201q93 90 336 117q240 26 285 78v69q0 76 -49 123q-64 64 -207 64q-178 0 -256 -99q-15 -20 -24.5 -43t-11.5 -36l-3 -13q0 -20 -15 -33.5t-36 -13.5q-19 0 -34.5 14.5t-14.5 38.5q0 9 3 26.5t17.5 54t38.5 67.5q103 139 336 139q200 0 291 -102 q67 -75 67 -189v-551q0 -78 60 -84q22 1 37.5 -14t15.5 -37q0 -20 -15.5 -35.5t-35.5 -15.5q-76 0 -121 49q-37 40 -41 98l-6 -6q-146 -153 -363 -153q-161 0 -246 81.5t-85 204.5zM252 309q0 -76 49 -125q62 -59 180 -59q168 0 287 119q55 60 80 116v226q-107 -44 -266 -60 q-212 -24 -283 -88q-47 -42 -47 -129zM389 1325q0 20 17 37l167 162q14 14 35 14q24 0 35 -14l170 -162q14 -14 14 -37q0 -22 -14.5 -36.5t-34.5 -14.5q-23 0 -37 14l-133 129l-133 -129q-14 -14 -35 -14q-22 0 -36.5 14.5t-14.5 36.5z" />
<glyph unicode="&#xe3;" horiz-adv-x="1155" d="M150 309q0 130 77 201q93 90 336 117q240 26 285 78v67q0 78 -49 125q-64 64 -207 64q-178 0 -256 -99q-15 -21 -24.5 -44t-11.5 -36l-3 -12q0 -20 -15.5 -34.5t-35.5 -14.5q-20 2 -35 16.5t-14 38.5q0 9 3 26.5t17.5 54t38.5 67.5q103 139 336 139q200 0 291 -102 q67 -75 67 -189v-551q0 -78 60 -84q22 1 37.5 -14t15.5 -37q0 -20 -15.5 -35.5t-35.5 -15.5q-76 0 -121 49q-37 40 -41 98l-6 -6q-146 -153 -363 -153q-161 0 -246 81.5t-85 204.5zM252 307q0 -74 49 -123q62 -59 180 -59q168 0 287 119q55 60 80 116v226q-107 -44 -266 -60 q-212 -24 -283 -88q-47 -42 -47 -131zM307 1311q0 3 1 9t1 7q17 69 69 111.5t118 42.5q85 0 141 -68q40 -51 82 -51q32 0 57 22t31 56q4 17 19 28t32 11q21 0 35 -14t16 -35q0 -9 -2 -15q-17 -69 -69 -112t-119 -43q-86 0 -148 73q-32 45 -75 45q-32 0 -56 -22t-32 -56 q-5 -17 -19 -28.5t-31 -11.5q-21 0 -36 16t-15 35z" />
<glyph unicode="&#xe4;" horiz-adv-x="1155" d="M150 309q0 130 77 201q93 90 336 117q240 26 285 78v69q0 76 -49 123q-64 64 -207 64q-178 0 -256 -99q-15 -20 -24.5 -43t-11.5 -36l-3 -13q0 -20 -15 -33.5t-36 -13.5q-19 0 -34.5 14.5t-14.5 38.5q0 9 3 26.5t17.5 54t38.5 67.5q103 139 336 139q200 0 291 -102 q67 -75 67 -189v-551q0 -78 60 -84q22 1 37.5 -14t15.5 -37q0 -20 -15.5 -35.5t-35.5 -15.5q-76 0 -121 49q-37 40 -41 98l-6 -6q-146 -153 -363 -153q-161 0 -246 81.5t-85 204.5zM252 309q0 -76 49 -125q62 -59 180 -59q168 0 287 119q55 60 80 116v226q-107 -44 -266 -60 q-212 -24 -283 -88q-47 -42 -47 -129zM365 1296v93q0 20 15.5 35.5t37.5 15.5q20 0 35.5 -15.5t15.5 -35.5v-93q0 -20 -15.5 -34.5t-35.5 -14.5q-22 0 -37.5 14.5t-15.5 34.5zM696 1296v93q0 20 16 35.5t38 15.5q20 0 35.5 -15.5t15.5 -35.5v-93q0 -20 -15.5 -34.5 t-35.5 -14.5q-22 0 -38 14.5t-16 34.5z" />
<glyph unicode="&#xe5;" horiz-adv-x="1155" d="M150 309q0 130 77 201q93 90 336 117q240 26 285 78v69q0 76 -49 123q-64 64 -207 64q-178 0 -256 -99q-15 -20 -24.5 -43t-11.5 -36l-3 -13q0 -20 -15 -33.5t-36 -13.5q-19 0 -34.5 14.5t-14.5 38.5q0 9 3 26.5t17.5 54t38.5 67.5q103 139 336 139q200 0 291 -102 q67 -75 67 -189v-551q0 -78 60 -84q22 1 37.5 -14t15.5 -37q0 -20 -15.5 -35.5t-35.5 -15.5q-76 0 -121 49q-37 40 -41 98l-6 -6q-146 -153 -363 -153q-161 0 -246 81.5t-85 204.5zM252 309q0 -76 49 -125q62 -59 180 -59q168 0 287 119q55 60 80 116v226q-107 -44 -266 -60 q-212 -24 -283 -88q-47 -42 -47 -129zM418 1411q0 78 56 134.5t134 56.5t134.5 -56.5t56.5 -134.5t-56.5 -134t-134.5 -56t-134 56t-56 134zM485 1411q0 -51 36 -87t87 -36t87 36t36 87t-36 87t-87 36t-87 -36t-36 -87z" />
<glyph unicode="&#xe6;" horiz-adv-x="1859" d="M150 309q0 129 75 201q101 93 338 119q237 24 285 80q0 93 -8 121q-9 35 -35 63q-62 68 -213 68q-165 0 -242 -80q-45 -49 -53 -107q0 -22 -14 -36.5t-37 -14.5q-20 0 -34.5 14.5t-16.5 34.5q4 95 81 178q104 113 316 113q148 0 232.5 -56.5t103.5 -156.5 q59 98 152 156.5t216 58.5q178 0 289 -111q65 -66 100.5 -169.5t38.5 -225.5q3 -19 -12 -37q-14 -14 -39 -14h-727q9 -177 101.5 -279t259.5 -102q113 0 189 53t110 156q6 20 24.5 29.5t38.5 3.5t29.5 -25t3.5 -39q-43 -136 -148 -208t-247 -72q-272 0 -402 239 q-57 -99 -167 -169t-257 -70q-163 0 -247 82t-84 202zM252 309q0 -89 62 -135.5t167 -46.5q93 0 173 39.5t129 96.5t75 124q-23 96 -12 205q-91 -48 -273 -66q-210 -24 -278 -92q-43 -41 -43 -125zM950 610h668q-14 168 -94 260.5t-228 92.5q-80 0 -145 -31t-105.5 -82.5 t-64.5 -112t-31 -127.5z" />
<glyph unicode="&#xe7;" horiz-adv-x="1126" d="M133 543q0 230 123 375t334 145q149 0 253 -72t140 -209q2 -6 2 -14q0 -21 -15 -36t-36 -15q-18 0 -32 11t-17 28q-26 101 -101.5 153t-193.5 52q-165 0 -259.5 -115t-94.5 -303q0 -190 93 -304t259 -114q125 0 203.5 62t99.5 182q4 20 20.5 32.5t36.5 10.5 q19 -3 31 -16.5t12 -35.5q-2 -42 -25 -101t-65 -109q-101 -112 -270 -125l-72 -179q103 -15 163 -66.5t60 -129.5q0 -95 -71 -148q-68 -59 -185 -59q-46 0 -98 12q-20 3 -32 20.5t-7 37.5q5 22 21.5 33.5t38.5 7.5q135 -24 198 26q33 26 33 70q0 51 -55 76.5t-138 25.5 q-27 0 -43 23q-13 23 -4 47l82 205q-182 25 -285.5 164t-103.5 352z" />
<glyph unicode="&#xe8;" horiz-adv-x="1150" d="M133 549q0 110 38.5 214t113.5 179q51 51 129 86t174 35q189 0 297 -117q124 -133 133 -387q0 -19 -14 -37q-16 -16 -37 -16h-727q8 -174 100.5 -277.5t257.5 -103.5q107 0 186 52t113 157q10 37 49 37q21 0 36 -14.5t15 -37.5q0 -4 -4 -16q-40 -131 -143.5 -205.5 t-251.5 -74.5q-215 0 -340 141.5t-125 384.5zM242 608h669q-32 353 -323 353q-138 0 -234.5 -96t-111.5 -257zM467 1518q0 23 16 37t35 14q33 0 45 -27l113 -205q6 -12 6 -24q0 -23 -16 -37t-35 -14q-29 0 -45 26l-113 205q-6 12 -6 25z" />
<glyph unicode="&#xe9;" horiz-adv-x="1150" d="M135 549q0 111 37.5 214.5t112.5 178.5q52 52 129.5 87.5t173.5 35.5q187 0 297 -119q124 -133 133 -387q0 -19 -14 -37q-16 -16 -37 -16h-727q8 -173 100.5 -276t257.5 -103q108 0 186.5 51t112.5 156q10 37 49 37q21 0 36 -14.5t15 -37.5q0 -4 -4 -16 q-40 -130 -143.5 -204t-251.5 -74q-215 0 -339 140.5t-124 383.5zM242 608h669q-15 171 -95 263t-228 92q-138 0 -234.5 -97t-111.5 -258zM469 1313q0 12 6 24l113 205q12 27 45 27q19 0 35 -14t16 -37q0 -13 -6 -25l-113 -205q-16 -26 -45 -26q-19 0 -35 14t-16 37z" />
<glyph unicode="&#xea;" horiz-adv-x="1150" d="M135 549q0 111 37.5 214.5t112.5 178.5q51 51 129 86t174 35q189 0 297 -117q124 -133 133 -387q0 -19 -14 -37q-16 -16 -37 -16h-727q8 -174 100.5 -277.5t257.5 -103.5q107 0 186 52t113 157q10 37 49 37q21 0 36 -14.5t15 -37.5q0 -4 -4 -16q-40 -131 -143.5 -205.5 t-251.5 -74.5q-215 0 -339 141.5t-124 384.5zM242 608h669q-32 353 -323 353q-138 0 -234.5 -96t-111.5 -257zM356 1325q0 20 17 37l168 162q14 14 34 14q24 0 35 -14l170 -162q15 -15 15 -37q0 -21 -14.5 -36t-35.5 -15q-22 0 -36 14l-134 129l-133 -129q-14 -14 -34 -14 q-22 0 -37 14.5t-15 36.5z" />
<glyph unicode="&#xeb;" horiz-adv-x="1150" d="M135 549q0 111 37.5 214.5t112.5 178.5q51 51 129 86t174 35q189 0 297 -117q124 -133 133 -387q0 -19 -14 -37q-16 -16 -37 -16h-727q8 -174 100.5 -277.5t257.5 -103.5q107 0 186 52t113 157q10 37 49 37q21 0 36 -14.5t15 -37.5q0 -4 -4 -16q-40 -131 -143.5 -205.5 t-251.5 -74.5q-215 0 -339 141.5t-124 384.5zM242 608h669q-32 353 -323 353q-138 0 -234.5 -96t-111.5 -257zM358 1329v92q0 20 16 36t38 16q20 0 34.5 -15.5t14.5 -36.5v-92q0 -20 -14.5 -34.5t-34.5 -14.5q-22 0 -38 14.5t-16 34.5zM690 1329v92q0 21 16 36.5t37 15.5 q20 0 35 -16t15 -36v-92q0 -20 -15 -34.5t-35 -14.5q-22 0 -37.5 14.5t-15.5 34.5z" />
<glyph unicode="&#xec;" horiz-adv-x="475" d="M94 1518q0 23 16 37t35 14q33 0 45 -27l113 -205q6 -12 6 -24q0 -23 -16 -37t-35 -14q-29 0 -45 26l-113 205q-6 12 -6 25zM197 86v915q0 21 14.5 35.5t36.5 14.5q20 0 35.5 -15t15.5 -35v-915q0 -20 -15.5 -35.5t-35.5 -15.5q-21 0 -36 15t-15 36z" />
<glyph unicode="&#xed;" horiz-adv-x="475" d="M190 1313q0 10 7 24l112 205q12 27 45 27q19 0 35.5 -14t16.5 -37q0 -11 -7 -25l-112 -205q-16 -26 -45 -26q-19 0 -35.5 14t-16.5 37zM197 86v915q0 21 15 36.5t36 15.5q20 0 35.5 -16t15.5 -36v-915q0 -20 -15.5 -35.5t-35.5 -15.5q-21 0 -36 15t-15 36z" />
<glyph unicode="&#xee;" horiz-adv-x="475" d="M31 1325q0 21 16 37l168 162q14 14 35 14q24 0 35 -14l170 -162q14 -14 14 -37q0 -22 -14.5 -36.5t-34.5 -14.5q-23 0 -37 14l-133 129l-133 -129q-14 -14 -35 -14q-22 0 -36.5 14.5t-14.5 36.5zM197 86v915q0 21 15 36.5t36 15.5q20 0 35.5 -16t15.5 -36v-915 q0 -20 -15.5 -35.5t-35.5 -15.5q-21 0 -36 15t-15 36z" />
<glyph unicode="&#xef;" horiz-adv-x="475" d="M35 1331v92q0 21 15 36.5t36 15.5q20 0 35.5 -16t15.5 -36v-92q0 -20 -15.5 -34.5t-35.5 -14.5q-22 0 -36.5 14.5t-14.5 34.5zM197 86v915q0 21 15 36.5t36 15.5q20 0 35.5 -16t15.5 -36v-915q0 -20 -15.5 -35.5t-35.5 -15.5q-21 0 -36 15t-15 36zM367 1331v92 q0 21 15 36.5t36 15.5q20 0 35.5 -16t15.5 -36v-92q0 -20 -15.5 -34.5t-35.5 -14.5q-22 0 -36.5 14.5t-14.5 34.5z" />
<glyph unicode="&#xf0;" horiz-adv-x="1175" d="M135 508q0 215 110.5 349t303.5 134q200 0 299 -162q-42 270 -162 388l-131 -93q-9 -6 -23 -6q-18 0 -28 11.5t-10 27.5q0 21 16 31l111 80q-92 66 -205 69q-22 0 -36.5 14.5t-14.5 37.5q0 22 14.5 35.5t34.5 15.5q160 -3 299 -109l141 99q8 8 23 8q17 0 27.5 -11.5 t10.5 -27.5q0 -22 -16 -33l-127 -90q62 -67 105.5 -160t64 -192.5t29 -183.5t8.5 -167q0 -227 -66 -337q-113 -213 -356 -213q-190 0 -306 133t-116 352zM238 508q0 -172 83.5 -277.5t235.5 -105.5q86 0 145.5 30t104.5 93q6 6 19 30.5t29.5 89.5t16.5 140q0 24 -2 47.5 t-6 43.5t-9 39t-10.5 34t-11 28t-10.5 23.5t-8.5 17t-6.5 11.5l-3 4q-86 133 -256 133q-151 0 -231 -104.5t-80 -276.5z" />
<glyph unicode="&#xf1;" horiz-adv-x="1103" d="M197 88v916q0 20 14.5 34.5t36.5 14.5t36.5 -14.5t14.5 -34.5v-97q45 67 121 112.5t186 45.5q154 0 238 -90q84 -86 84 -225v-662q0 -22 -14.5 -36.5t-36.5 -14.5t-37 14.5t-15 36.5v664q0 94 -55 153q-55 58 -164 58q-160 0 -244 -119q-23 -31 -41.5 -75.5t-21.5 -78.5 v-602q0 -21 -15 -36t-36 -15t-36 15t-15 36zM260 1321q0 3 1 9t1 7q17 69 69 111.5t118 42.5q85 0 141 -68q40 -51 82 -51q32 0 57 22t31 56q4 17 19 28t32 11q21 0 35 -14t16 -35q0 -9 -2 -15q-17 -69 -69 -112t-119 -43q-86 0 -148 73q-33 46 -75 46q-32 0 -56.5 -22 t-32.5 -56q-5 -18 -18.5 -29.5t-30.5 -11.5q-21 0 -36 16t-15 35z" />
<glyph unicode="&#xf2;" horiz-adv-x="1189" d="M133 543q0 231 130 375.5t333 144.5t331 -144.5t128 -375.5q0 -230 -128 -375t-331 -145t-333 145t-130 375zM236 543q0 -187 98.5 -302.5t261.5 -115.5t259.5 115t96.5 303q0 189 -96.5 303.5t-259.5 114.5q-164 0 -262 -115t-98 -303zM487 1497q0 23 16.5 37t35.5 14 q33 0 45 -26l112 -205q6 -12 6 -25q0 -23 -16 -37t-35 -14q-28 0 -45 27l-112 205q-7 14 -7 24z" />
<glyph unicode="&#xf3;" horiz-adv-x="1189" d="M133 543q0 231 130 376.5t333 145.5t331 -145.5t128 -376.5q0 -230 -128 -374t-331 -144t-333 144.5t-130 373.5zM236 543q0 -187 98.5 -301.5t261.5 -114.5t259.5 114.5t96.5 301.5q0 189 -96.5 304.5t-259.5 115.5t-261.5 -116t-98.5 -304zM487 1313q0 10 7 24l112 205 q12 27 45 27q19 0 35 -14t16 -37q0 -13 -6 -25l-112 -205q-16 -26 -45 -26q-19 0 -35.5 14t-16.5 37z" />
<glyph unicode="&#xf4;" horiz-adv-x="1189" d="M133 543q0 231 130 376.5t333 143.5q203 0 331 -144.5t128 -375.5q0 -230 -128 -375t-331 -145t-333 145t-130 375zM236 543q0 -187 98.5 -302.5t261.5 -115.5t259.5 115t96.5 303q0 189 -96.5 303.5t-259.5 114.5q-164 0 -262 -115t-98 -303zM375 1325q0 21 16 37 l168 162q14 14 35 14q24 0 35 -14l170 -162q14 -14 14 -37q0 -22 -14.5 -36.5t-34.5 -14.5q-23 0 -37 14l-133 129l-133 -129q-14 -14 -35 -14q-22 0 -36.5 14.5t-14.5 36.5z" />
<glyph unicode="&#xf5;" horiz-adv-x="1189" d="M135 543q0 231 129 375.5t332 144.5t332 -144.5t129 -375.5q0 -230 -129 -375t-332 -145t-332 145t-129 375zM238 543q0 -187 97.5 -302.5t260.5 -115.5t260.5 115.5t97.5 302.5q0 189 -97.5 303.5t-260.5 114.5t-260.5 -114.5t-97.5 -303.5zM293 1321q0 3 1 9t1 7 q17 69 68.5 111.5t117.5 42.5q86 0 142 -68q40 -51 82 -51q32 0 57 22t31 56q4 17 19 28t32 11q22 0 36.5 -14.5t14.5 -34.5q0 -9 -2 -15q-17 -69 -69 -112t-119 -43q-86 0 -148 73q-33 46 -76 46q-32 0 -56 -22t-32 -56q-5 -18 -18.5 -29.5t-30.5 -11.5q-21 0 -36 16 t-15 35z" />
<glyph unicode="&#xf6;" horiz-adv-x="1189" d="M135 543q0 231 129 376.5t332 143.5q203 0 332 -144.5t129 -375.5q0 -230 -129 -375t-332 -145t-332 145t-129 375zM238 543q0 -187 97.5 -302.5t260.5 -115.5t260.5 115.5t97.5 302.5q0 189 -97.5 303.5t-260.5 114.5t-260.5 -114.5t-97.5 -303.5zM379 1296v93 q0 21 15 36t36 15q20 0 35.5 -15.5t15.5 -35.5v-93q0 -20 -15.5 -34.5t-35.5 -14.5q-22 0 -36.5 14.5t-14.5 34.5zM711 1296v93q0 21 15 36t36 15q20 0 35.5 -15.5t15.5 -35.5v-93q0 -20 -15.5 -34.5t-35.5 -14.5q-22 0 -36.5 14.5t-14.5 34.5z" />
<glyph unicode="&#xf7;" horiz-adv-x="1269" d="M154 731q0 22 14.5 37.5t36.5 15.5h860q22 0 36.5 -15.5t14.5 -37.5t-14.5 -35.5t-36.5 -13.5h-860q-22 0 -36.5 13.5t-14.5 35.5zM539 305v45q0 25 17.5 43.5t43.5 18.5h45q27 0 45.5 -18.5t18.5 -43.5v-45q0 -26 -18 -43.5t-46 -17.5h-45q-26 0 -43.5 17.5t-17.5 43.5z M539 1141v45q0 25 18 43t45 18h43q27 0 45.5 -18t18.5 -43v-45q0 -26 -18 -44t-46 -18h-45q-26 0 -43.5 18t-17.5 44z" />
<glyph unicode="&#xf8;" horiz-adv-x="1189" d="M133 543q0 231 130 375.5t333 144.5q119 0 213 -49l68 119q15 24 45 24q23 0 37 -13.5t14 -35.5q0 -14 -6 -29l-74 -125q78 -70 120 -175.5t42 -235.5q0 -230 -128 -375t-331 -145q-117 0 -211 51l-66 -111q-16 -26 -43 -26q-21 0 -36 15t-15 36q0 12 6 24l68 119 q-78 71 -122 177t-44 235zM236 543q0 -206 116 -322l406 705q-72 35 -162 35q-164 0 -262 -115t-98 -303zM436 162q72 -37 160 -37q163 0 259.5 115t96.5 303q0 205 -110 321z" />
<glyph unicode="&#xf9;" horiz-adv-x="1093" d="M176 352v647q0 21 15 36.5t36 15.5q22 0 37 -15t15 -37v-655q0 -58 30 -115q58 -104 199 -104q151 0 229 125q29 47 42.5 96.5t13.5 73.5v-17v598q0 22 15.5 37t37.5 15q20 0 34.5 -15t14.5 -37v-915q0 -20 -14.5 -35.5t-34.5 -15.5q-22 0 -37.5 15.5t-15.5 35.5v90 q-100 -153 -287 -153q-107 0 -183.5 48.5t-111.5 121.5t-35 159zM385 1466q0 23 16 37.5t35 14.5q33 0 45 -27l113 -205q6 -12 6 -24q0 -23 -16 -37.5t-33 -14.5q-30 0 -47 27l-113 205q-6 12 -6 24z" />
<glyph unicode="&#xfa;" horiz-adv-x="1093" d="M176 352v647q0 21 15 36.5t36 15.5q22 0 37 -15t15 -37v-655q0 -58 30 -115q57 -102 199 -102q152 0 229 123q29 47 42.5 96.5t13.5 73.5v-17v598q0 22 15.5 37t37.5 15q20 0 34.5 -15t14.5 -37v-915q0 -20 -14.5 -35.5t-34.5 -15.5q-22 0 -37.5 15.5t-15.5 35.5v90 q-100 -153 -287 -153q-107 0 -183.5 48.5t-111.5 121.5t-35 159zM430 1262q0 12 6 24l113 205q12 27 45 27q19 0 35 -14.5t16 -37.5q0 -12 -6 -24l-113 -205q-17 -27 -47 -27q-17 0 -33 14.5t-16 37.5z" />
<glyph unicode="&#xfb;" horiz-adv-x="1093" d="M176 352v649q0 20 15.5 36t35.5 16q21 0 36.5 -15.5t15.5 -36.5v-657q0 -58 30 -115q57 -102 199 -102q152 0 229 123q29 47 42.5 96.5t13.5 75.5v-19v598q0 22 15.5 37t37.5 15q20 0 34.5 -15t14.5 -37v-915q0 -20 -14.5 -34.5t-34.5 -14.5q-22 0 -37.5 14.5t-15.5 34.5 v90q-99 -151 -287 -151q-107 0 -183.5 48t-111.5 120.5t-35 158.5zM317 1313q0 20 17 37l168 161q15 15 35 15q22 0 34 -15l170 -161q15 -15 15 -37t-14.5 -36.5t-34.5 -14.5q-23 0 -37 14l-133 129l-134 -129q-14 -14 -34 -14q-22 0 -37 14.5t-15 36.5z" />
<glyph unicode="&#xfc;" horiz-adv-x="1093" d="M176 352v649q0 20 15.5 36t35.5 16q21 0 36.5 -15.5t15.5 -36.5v-657q0 -58 30 -115q57 -102 199 -102q152 0 229 123q29 47 42.5 96.5t13.5 73.5v-17v598q0 22 15.5 37t37.5 15q20 0 34.5 -15t14.5 -37v-915q0 -20 -14.5 -34.5t-34.5 -14.5q-22 0 -37.5 14.5t-15.5 34.5 v90q-99 -151 -287 -151q-107 0 -183.5 48t-111.5 120.5t-35 158.5zM317 1296v93q0 20 16 35.5t38 15.5q20 0 35.5 -15.5t15.5 -35.5v-93q0 -20 -15.5 -34.5t-35.5 -14.5q-22 0 -38 14.5t-16 34.5zM649 1296v93q0 20 15.5 35.5t37.5 15.5q20 0 36 -15.5t16 -35.5v-93 q0 -20 -15.5 -34.5t-36.5 -14.5q-22 0 -37.5 14.5t-15.5 34.5z" />
<glyph unicode="&#xfd;" horiz-adv-x="1091" d="M117 1001q0 22 15.5 37t35.5 15q33 0 47 -31l358 -799l299 797q13 33 48 33q22 0 36.5 -15.5t14.5 -36.5q0 -12 -2 -18l-381 -1018q-53 -136 -125 -184q-55 -41 -154 -41q-43 0 -76 8q-38 10 -38 51q0 23 16.5 37t38.5 12q7 -1 17 -2.5t19.5 -2.5t22.5 -1q67 0 101 27 q40 28 82 133l30 86l-399 893q-6 9 -6 20zM455 1270q0 12 6 24l112 205q12 27 45 27q19 0 35.5 -14t16.5 -37q0 -13 -6 -25l-113 -205q-16 -26 -45 -26q-19 0 -35 14t-16 37z" />
<glyph unicode="&#xfe;" horiz-adv-x="1228" d="M195 -209v1587q0 22 15.5 38t35.5 16q21 0 36 -16t15 -38v-514q111 199 321 199q131 0 226 -68.5t141.5 -185t46.5 -266.5q0 -228 -113 -374t-307 -146q-225 0 -315 184v-416q0 -22 -14.5 -36.5t-36.5 -14.5q-21 0 -36 15t-15 36zM297 532q0 -80 17.5 -150.5t53 -129 t96.5 -93t140 -34.5q84 0 148 33.5t102 92.5t57 132.5t19 159.5q0 79 -17 150t-52 133t-97.5 98.5t-145.5 36.5q-150 0 -235.5 -121t-85.5 -308z" />
<glyph unicode="&#xff;" horiz-adv-x="1091" d="M117 1001q0 22 15.5 37t35.5 15q33 0 47 -31l358 -799l299 797q13 33 48 33q22 0 36.5 -15.5t14.5 -36.5q0 -12 -2 -18l-381 -1018q-53 -136 -125 -184q-55 -41 -154 -41q-43 0 -76 8q-38 10 -38 51q0 23 16.5 37t38.5 12q7 -1 17 -2.5t19.5 -2.5t22.5 -1q67 0 101 27 q40 28 82 133l30 86l-399 893q-6 9 -6 20zM313 1321v92q0 21 15.5 36t36.5 15q20 0 35.5 -15.5t15.5 -35.5v-92q0 -20 -15.5 -34.5t-35.5 -14.5q-22 0 -37 14.5t-15 34.5zM645 1321v92q0 21 15 36t36 15q20 0 36 -15.5t16 -35.5v-92q0 -20 -15.5 -34.5t-36.5 -14.5 q-22 0 -36.5 14.5t-14.5 34.5z" />
<glyph unicode="&#x152;" horiz-adv-x="2201" d="M154 731q0 315 147.5 511t380.5 196q136 0 247.5 -70.5t182.5 -198.5v193q0 21 15 36t36 15h834q20 0 34.5 -15.5t14.5 -35.5q0 -22 -14.5 -36.5t-34.5 -14.5h-783v-484h717q22 0 36.5 -15.5t14.5 -37.5t-14.5 -35.5t-36.5 -13.5h-717v-569h803q20 0 34.5 -15.5 t14.5 -36.5q0 -22 -14.5 -36.5t-34.5 -14.5h-854q-22 0 -36.5 14.5t-14.5 36.5v189q-71 -129 -182 -199.5t-248 -70.5q-233 0 -380.5 196t-147.5 512zM256 731q0 -174 53 -311.5t150.5 -216t222.5 -78.5q127 0 225.5 78.5t151.5 216t53 311.5t-53 311t-151.5 215t-225.5 78 q-189 0 -307.5 -170t-118.5 -434z" />
<glyph unicode="&#x153;" horiz-adv-x="1970" d="M133 543q0 231 130 375.5t333 144.5q139 0 246.5 -70t163.5 -194q37 82 98 143q51 51 129 86t174 35q189 0 297 -117q124 -133 133 -387q0 -19 -14 -37q-16 -16 -37 -16h-727q8 -173 100.5 -276t257.5 -103q108 0 186.5 51t112.5 156q10 37 49 37q21 0 36.5 -14.5 t15.5 -37.5q0 -1 -5 -16q-40 -130 -143.5 -204t-251.5 -74t-253 67t-160 193q-58 -123 -164.5 -192.5t-243.5 -69.5q-203 0 -333 145t-130 375zM236 543q0 -187 98.5 -301.5t261.5 -114.5t259.5 114.5t96.5 301.5q0 189 -96.5 304.5t-259.5 115.5t-261.5 -116t-98.5 -304z M1061 608h670q-15 171 -95.5 263t-228.5 92q-138 0 -234.5 -97t-111.5 -258z" />
<glyph unicode="&#x178;" horiz-adv-x="1275" d="M92 1380q0 21 15 35.5t36 14.5q26 0 41 -21l453 -627l453 627q15 21 40 21q21 0 36.5 -14t15.5 -36q0 -17 -8 -30l-486 -672v-592q0 -22 -14.5 -36.5t-36.5 -14.5t-36.5 14.5t-14.5 36.5v592l-484 672q-10 13 -10 30zM422 1507v92q0 21 15 36.5t36 15.5q20 0 35.5 -16 t15.5 -36v-92q0 -20 -15.5 -34.5t-35.5 -14.5q-22 0 -36.5 14.5t-14.5 34.5zM754 1507v92q0 21 15 36.5t36 15.5q20 0 35.5 -16t15.5 -36v-92q0 -20 -15.5 -34.5t-35.5 -14.5q-22 0 -36.5 14.5t-14.5 34.5z" />
<glyph unicode="&#x2c6;" horiz-adv-x="952" d="M256 1587q0 21 16 37l168 162q14 14 35 14q24 0 35 -14l170 -162q14 -14 14 -37q0 -22 -14.5 -36.5t-34.5 -14.5q-23 0 -37 14l-133 129l-133 -129q-14 -14 -35 -14q-22 0 -36.5 14.5t-14.5 36.5z" />
<glyph unicode="&#x2dc;" horiz-adv-x="1228" d="M319 1585q0 3 1 10l2 7q17 69 68.5 111t117.5 42q85 0 141 -67q41 -52 82 -52q32 0 57 22t31 56q4 17 19 28t32 11q22 0 37 -14.5t15 -34.5q0 -8 -2 -14q-17 -69 -69.5 -112.5t-119.5 -43.5q-85 0 -147 74q-32 45 -76 45q-32 0 -56 -22t-32 -56q-5 -18 -18.5 -29.5 t-30.5 -11.5q-21 0 -36.5 16t-15.5 35z" />
<glyph unicode="&#x2000;" horiz-adv-x="931" />
<glyph unicode="&#x2001;" horiz-adv-x="1862" />
<glyph unicode="&#x2002;" horiz-adv-x="931" />
<glyph unicode="&#x2003;" horiz-adv-x="1862" />
<glyph unicode="&#x2004;" horiz-adv-x="620" />
<glyph unicode="&#x2005;" horiz-adv-x="465" />
<glyph unicode="&#x2006;" horiz-adv-x="310" />
<glyph unicode="&#x2007;" horiz-adv-x="310" />
<glyph unicode="&#x2008;" horiz-adv-x="232" />
<glyph unicode="&#x2009;" horiz-adv-x="372" />
<glyph unicode="&#x200a;" horiz-adv-x="103" />
<glyph unicode="&#x2010;" horiz-adv-x="901" d="M154 614q0 22 15 38t36 16h491q22 0 37 -16t15 -38q0 -21 -15 -35t-37 -14h-491q-22 0 -36.5 13.5t-14.5 35.5z" />
<glyph unicode="&#x2011;" horiz-adv-x="901" d="M154 614q0 22 15 38t36 16h491q22 0 37 -16t15 -38q0 -21 -15 -35t-37 -14h-491q-22 0 -36.5 13.5t-14.5 35.5z" />
<glyph unicode="&#x2012;" horiz-adv-x="901" d="M154 614q0 22 15 38t36 16h491q22 0 37 -16t15 -38q0 -21 -15 -35t-37 -14h-491q-22 0 -36.5 13.5t-14.5 35.5z" />
<glyph unicode="&#x2013;" horiz-adv-x="1269" d="M154 614q0 22 15 38t36 16h860q21 0 36 -16t15 -38t-14.5 -35.5t-36.5 -13.5h-860q-22 0 -36.5 13.5t-14.5 35.5z" />
<glyph unicode="&#x2014;" horiz-adv-x="1964" d="M154 614q0 22 15 38t36 16h1554q22 -1 35.5 -16.5t13.5 -37.5t-14 -36t-35 -13h-1554q-22 0 -36.5 13.5t-14.5 35.5z" />
<glyph unicode="&#x2018;" horiz-adv-x="493" d="M162 1137q0 236 129 297q12 6 22 6q23 0 37.5 -15t14.5 -36q0 -34 -31 -48q-19 -9 -37.5 -37.5t-26.5 -74.5q-5 -32 -5.5 -63t1.5 -59t2 -34q0 -21 -14 -35t-37 -14q-39 0 -49 37q-6 15 -6 76z" />
<glyph unicode="&#x2019;" horiz-adv-x="473" d="M109 1073q0 32 30 49q18 7 37 36.5t27 74.5q5 33 5.5 64t-1.5 59t-2 33q-2 21 13 35.5t38 13.5q40 0 49 -35q6 -18 6 -76q0 -236 -129 -297q-8 -6 -22 -6q-22 0 -36.5 14.5t-14.5 34.5z" />
<glyph unicode="&#x201a;" horiz-adv-x="473" d="M109 -96q0 34 30 47q19 9 37.5 37.5t26.5 74.5q5 32 5.5 63t-1.5 59t-2 34q-2 20 13 34.5t38 14.5q39 0 49 -37q6 -15 6 -73q0 -238 -129 -299q-12 -6 -22 -6q-23 0 -37 15t-14 36z" />
<glyph unicode="&#x201c;" horiz-adv-x="755" d="M162 1137q0 236 129 297q12 6 22 6q23 0 37.5 -15t14.5 -36q0 -34 -31 -48q-19 -9 -37.5 -37.5t-26.5 -74.5q-5 -32 -5.5 -63t1.5 -59t2 -34q0 -21 -14 -35t-37 -14q-39 0 -49 37q-6 15 -6 76zM444 1137q0 236 129 297q15 6 23 6q23 0 37 -15t14 -36q0 -34 -31 -48 q-47 -24 -63 -112q-5 -32 -5.5 -63t1.5 -59t2 -34q2 -20 -13 -34.5t-38 -14.5q-39 0 -49 37q-7 18 -7 76z" />
<glyph unicode="&#x201d;" horiz-adv-x="755" d="M109 1073q0 32 30 49q18 7 37 36.5t27 74.5q5 33 5.5 64t-1.5 59t-2 33q-2 20 13 34.5t38 14.5q40 0 49 -35q6 -18 6 -76q0 -236 -129 -297q-8 -6 -22 -6q-22 0 -36.5 14.5t-14.5 34.5zM391 1073q0 32 31 49q18 7 36.5 36.5t26.5 74.5q5 33 5.5 64t-1.5 59t-2 33 q-2 21 13.5 35.5t38.5 13.5q40 0 49 -35q6 -18 6 -76q0 -236 -129 -297q-10 -6 -23 -6q-22 0 -36.5 14.5t-14.5 34.5z" />
<glyph unicode="&#x201e;" horiz-adv-x="755" d="M109 -96q0 34 30 47q19 9 37.5 37.5t26.5 74.5q5 32 5.5 63t-1.5 59t-2 34q-2 20 13 34.5t38 14.5q39 0 49 -37q6 -15 6 -73q0 -238 -129 -299q-12 -6 -22 -6q-23 0 -37 15t-14 36zM391 -96q0 33 31 47q47 24 63 112q5 33 5.5 64t-1.5 58.5t-2 33.5q-2 20 13.5 34.5 t38.5 14.5q39 0 49 -37q6 -15 6 -73q0 -238 -129 -299q-15 -6 -23 -6q-23 0 -37 15t-14 36z" />
<glyph unicode="&#x2022;" horiz-adv-x="589" d="M127 666q0 69 50 119.5t120 50.5q69 0 118.5 -50.5t49.5 -119.5t-49.5 -117.5t-118.5 -48.5q-71 0 -120.5 48.5t-49.5 117.5z" />
<glyph unicode="&#x2026;" horiz-adv-x="2168" d="M358 96v45q0 26 19 44t45 18h45q26 0 44.5 -18t18.5 -44v-45q0 -26 -18 -42.5t-45 -16.5h-45q-27 0 -45.5 16.5t-18.5 42.5zM993 96v45q0 26 19 44t45 18h45q26 0 44.5 -18t18.5 -44v-45q0 -26 -18 -42.5t-45 -16.5h-45q-27 0 -45.5 16.5t-18.5 42.5zM1638 96v45 q0 26 18 44t44 18h45q27 0 45 -17.5t18 -44.5v-45q0 -26 -17.5 -42.5t-45.5 -16.5h-45q-27 0 -44.5 16.5t-17.5 42.5z" />
<glyph unicode="&#x202f;" horiz-adv-x="372" />
<glyph unicode="&#x2039;" horiz-adv-x="692" d="M174 582q0 23 19 39l241 204q16 13 33 13q22 0 36.5 -15t14.5 -35q0 -25 -18 -40l-195 -166l195 -166q18 -12 18 -37q0 -22 -15 -37.5t-38 -15.5q-15 0 -33 14l-239 203q-19 13 -19 39z" />
<glyph unicode="&#x203a;" horiz-adv-x="692" d="M174 788q0 20 14.5 35t36.5 15q17 0 33 -13l242 -204q18 -15 18 -39q0 -27 -18 -39l-240 -203q-18 -14 -33 -14q-23 0 -37 15.5t-14 37.5q0 26 17 37l194 166l-194 166q-19 16 -19 40z" />
<glyph unicode="&#x205f;" horiz-adv-x="465" />
<glyph unicode="&#x20ac;" horiz-adv-x="1452" d="M137 578q0 17 12 28.5t29 11.5h195q-12 103 -6 216h-189q-17 0 -29 12t-12 31q0 17 12 29t29 12h197q25 215 123 352q137 196 376 196q136 0 241.5 -64t170.5 -185q6 -8 6 -25q0 -22 -13 -35.5t-30 -15.5q-35 -3 -51 26q-110 197 -324 197q-73 0 -134 -24t-105 -65.5 t-77 -99t-52 -121.5t-29 -136h520q17 0 29 -12t12 -29q0 -19 -12 -31t-29 -12h-528q-6 -113 6 -216h424q17 0 29 -11.5t12 -28.5q0 -19 -12 -31t-29 -12h-412q37 -176 133 -278.5t252 -102.5q222 0 328 198q17 30 51 27q19 -3 32 -16.5t13 -34.5q0 -13 -6 -25 q-66 -122 -173.5 -187t-244.5 -65q-108 0 -193.5 38t-143 106.5t-94.5 152.5t-58 187h-205q-17 0 -29 12t-12 31z" />
<glyph unicode="&#x2122;" horiz-adv-x="1650" d="M133 1411q0 16 13.5 28.5t27.5 12.5h471q16 0 28.5 -12t12.5 -29t-12.5 -29t-28.5 -12h-194v-590q0 -17 -12.5 -29t-26.5 -12q-17 0 -29 12t-12 29v590h-197q-16 0 -28.5 12t-12.5 29zM850 780v631q0 15 13 28t28 13h55q10 0 21 -8t16 -19l199 -522l200 524 q3 10 14.5 17.5t22.5 7.5h58q14 0 27.5 -13t13.5 -28v-631q0 -15 -13 -28t-28 -13q-17 0 -29 12.5t-12 28.5v561l-215 -569q-12 -24 -37 -24q-13 0 -24.5 7.5t-14.5 16.5l-213 563v-555q0 -15 -13 -28t-28 -13q-17 0 -29 12.5t-12 28.5z" />
<glyph unicode="&#xe000;" horiz-adv-x="1054" d="M0 0v1055h1055v-1055h-1055z" />
</font>
</defs>
</svg>
