<?xml version="1.0" standalone="no"?>
<!DOCTYPE svg PUBLIC "-//W3C//DTD SVG 1.1//EN" "http://www.w3.org/Graphics/SVG/1.1/DTD/svg11.dtd" >
<svg xmlns="http://www.w3.org/2000/svg">
<metadata></metadata>
<defs>
<font id="albrecht-inline30" horiz-adv-x="473" >
<font-face units-per-em="2048" ascent="1638" descent="-410" />
<missing-glyph horiz-adv-x="512" />
<glyph unicode="&#xfb01;" horiz-adv-x="1064" d="M20 985q0 42 31 72t74 30h37v119q0 137 78 209q77 68 217 68h32q43 -2 72.5 -33t28.5 -74q-2 -43 -33 -72t-74 -28q-85 5 -104 -14q-10 -7 -10 -56v-119h120q42 0 72.5 -30t30.5 -72q0 -43 -31 -73.5t-72 -30.5h-120v-793q0 -43 -31 -73.5t-74 -30.5t-72.5 30.5 t-29.5 73.5v793h-37q-43 0 -74 30.5t-31 73.5zM92 983q0 -13 9.5 -22t21.5 -9h110v-866q0 -12 9 -21.5t22 -9.5q12 0 21.5 9.5t9.5 21.5v866h192q12 0 21.5 9t9.5 22q0 12 -9.5 21.5t-21.5 9.5h-192v192q0 74 34 107t115 33q12 2 39 2q13 -1 22 7t11 21q0 13 -8.5 22 t-22.5 11h-30q-114 0 -166 -49q-56 -47 -56 -154v-192h-110q-12 0 -21.5 -9.5t-9.5 -21.5zM735 86v915q0 43 31 73t74 30q42 0 72 -30t30 -73v-915q0 -41 -30.5 -71.5t-71.5 -30.5q-43 0 -74 30.5t-31 71.5zM735 1270v92q0 42 31 72t74 30q42 0 72 -30t30 -72v-92 q0 -41 -30.5 -72t-71.5 -31q-43 0 -74 31t-31 72zM807 86q0 -12 10 -21.5t23 -9.5q12 0 20 9.5t8 21.5v915q0 11 -8 20t-20 9q-13 0 -23 -9t-10 -20v-915zM807 1266q0 -11 10 -21t23 -10q11 0 19.5 10t8.5 21v96q0 12 -8 21.5t-20 9.5q-13 0 -23 -9.5t-10 -21.5v-96z" />
<glyph unicode="&#xfb02;" horiz-adv-x="1085" d="M20 985q0 42 31 72t74 30h37v119q0 137 78 209q77 68 217 68h32q43 -2 72.5 -33t28.5 -74q-2 -43 -33 -72t-74 -28q-85 5 -104 -14q-10 -7 -10 -56v-119h120q42 0 72.5 -30t30.5 -72q0 -43 -31 -73.5t-72 -30.5h-120v-793q0 -43 -31 -73.5t-74 -30.5t-72.5 30.5 t-29.5 73.5v793h-37q-43 0 -74 30.5t-31 73.5zM92 983q0 -13 9.5 -22t21.5 -9h110v-866q0 -12 9 -21.5t22 -9.5q12 0 21.5 9.5t9.5 21.5v866h192q12 0 21.5 9t9.5 22q0 12 -9.5 21.5t-21.5 9.5h-192v192q0 74 34 107t115 33q12 2 39 2q13 -1 22 7t11 21q0 13 -8.5 22 t-22.5 11h-30q-114 0 -166 -49q-56 -47 -56 -154v-192h-110q-12 0 -21.5 -9.5t-9.5 -21.5zM735 86v1292q0 43 31 74t72 31q43 0 73.5 -31t30.5 -74v-1292q0 -43 -30.5 -72.5t-73.5 -29.5q-42 0 -72.5 30t-30.5 72zM807 86q0 -12 9.5 -21.5t21.5 -9.5q13 0 22.5 9.5t9.5 21.5 v1292q0 12 -9.5 22.5t-22.5 10.5q-12 0 -21.5 -10.5t-9.5 -22.5v-1292z" />
<glyph horiz-adv-x="2048" />
<glyph horiz-adv-x="2048" />
<glyph horiz-adv-x="682" />
<glyph unicode="&#xd;" horiz-adv-x="307" />
<glyph unicode=" "  horiz-adv-x="512" />
<glyph unicode="&#x09;" horiz-adv-x="512" />
<glyph unicode="&#xa0;" horiz-adv-x="512" />
<glyph unicode="!" horiz-adv-x="460" d="M94 96v45q0 47 34 81t81 34h45q47 0 82 -34t35 -81v-45q0 -47 -34.5 -79.5t-82.5 -32.5h-45q-48 0 -81.5 32.5t-33.5 79.5zM133 424v960q0 43 30 74t73 31q42 0 72 -31t30 -74v-960q0 -43 -29.5 -72.5t-72.5 -29.5t-73 29.5t-30 72.5zM168 96q0 -17 11 -28t30 -11h45 q19 0 31 11t12 28v45q0 17 -12 29t-31 12h-45q-18 0 -29.5 -11.5t-11.5 -29.5v-45zM205 424q0 -11 9.5 -21t21.5 -10t21 10t9 21v960q0 12 -9 22.5t-21 10.5t-21.5 -10.5t-9.5 -22.5v-960z" />
<glyph unicode="&#x22;" horiz-adv-x="716" d="M123 1147v233q0 43 30.5 73t73.5 30q42 0 72.5 -30.5t30.5 -72.5v-233q0 -42 -30.5 -72.5t-72.5 -30.5q-43 0 -73.5 30t-30.5 73zM197 1147q0 -11 8.5 -21t21.5 -10q12 0 21.5 10t9.5 21v233q0 12 -9.5 21.5t-21.5 9.5q-13 0 -21.5 -9.5t-8.5 -21.5v-233zM387 1147v233 q0 43 31 73t74 30q42 0 72 -30.5t30 -72.5v-233q0 -43 -30 -73t-72 -30q-43 0 -74 30t-31 73zM461 1147q0 -11 9 -21t22 -10q12 0 21 10t9 21v233q0 12 -9 21.5t-21 9.5q-13 0 -22 -9.5t-9 -21.5v-233z" />
<glyph unicode="#" horiz-adv-x="1247" d="M104 555q0 42 31 72t74 30h104l29 211h-72q-43 0 -73.5 31t-30.5 74t30.5 72.5t73.5 29.5h101l43 320q4 39 33.5 64.5t68.5 25.5q49 0 78.5 -36t23.5 -83l-38 -291h159l43 320q4 39 34 64.5t69 25.5q49 0 78.5 -36t23.5 -83l-39 -291h103q43 0 73.5 -29.5t30.5 -72.5 t-30.5 -74t-73.5 -31h-131l-29 -211h98q43 0 74 -30t31 -72q0 -43 -31 -73.5t-74 -30.5h-127l-51 -377q-6 -40 -35 -65t-67 -25q-42 0 -76.5 33.5t-26.5 84.5l47 349h-159l-52 -377q-6 -40 -35 -65t-67 -25q-42 0 -76 33.5t-26 84.5l47 349h-76q-43 0 -74 30.5t-31 73.5z M176 553q0 -12 9.5 -21.5t21.5 -9.5h160l-58 -430q-3 -14 6.5 -25.5t22.5 -11.5q12 0 20.5 8.5t10.5 20.5l61 438h305l-57 -430q-3 -14 6.5 -25.5t22.5 -11.5q12 0 20 8.5t10 20.5l62 438h190q13 0 22 9.5t9 21.5q0 13 -9 22t-22 9h-182l49 356h195q13 0 21.5 9.5t8.5 21.5 q0 13 -8.5 21.5t-21.5 8.5h-187l51 375q2 15 -6.5 25t-23.5 10q-27 0 -31 -25l-51 -385h-307l51 375q2 15 -7 25t-24 10q-27 0 -31 -25l-51 -385h-166q-12 0 -21 -8.5t-9 -21.5q0 -12 9 -21.5t21 -9.5h156l-47 -356h-170q-12 0 -21.5 -9t-9.5 -22zM438 584l49 356h306 l-48 -356h-307zM522 657h160l29 211h-160z" />
<glyph unicode="$" horiz-adv-x="1343" d="M102 449q-5 46 26.5 81t78.5 35q39 0 68.5 -26.5t33.5 -65.5q26 -228 256 -280v491q-184 39 -262 88q-151 93 -151 297q0 170 114 280.5t299 135.5v131q0 42 31 72t74 30q42 0 72 -30t30 -72v-133q172 -24 283 -125.5t141 -272.5q2 -6 2 -18q0 -42 -29.5 -73t-72.5 -31 q-37 0 -67 25t-36 61q-36 187 -221 225v-420q82 -16 117.5 -24t93.5 -27.5t98 -44.5q164 -103 164 -330q0 -194 -131 -315t-342 -140v-118q0 -43 -30 -73t-72 -30q-43 0 -74 30t-31 73v127q-193 33 -316 153t-147 314zM172 459q23 -183 145 -290t322 -122v-192 q0 -12 9 -21.5t22 -9.5q12 0 21 9.5t9 21.5v190q209 -2 339 101t130 284q0 130 -59 201q-25 35 -61.5 60t-90.5 42.5t-96.5 27.5t-118.5 25l-43 9v561q147 -6 242 -79t121 -214q1 -10 9.5 -17.5t19.5 -7.5q13 0 21.5 8.5t8.5 20.5v6q-29 159 -138 247.5t-284 96.5v199 q0 12 -9 21.5t-21 9.5q-13 0 -22 -9.5t-9 -21.5v-197q-185 -6 -301.5 -97t-116.5 -251q0 -150 101 -225q50 -36 121 -57t196 -46v-634q-173 14 -279.5 105t-126.5 253q-1 12 -9 19.5t-19 7.5q-14 0 -24 -11t-9 -24zM283 1071q0 134 98.5 207.5t257.5 79.5v-551 q-80 16 -119.5 25t-87.5 27t-76 40q-73 54 -73 172zM358 1069q0 -55 14 -80.5t40 -42.5q52 -29 153 -51v381q-94 -19 -150.5 -70t-56.5 -137zM700 106v625l31 -6q48 -9 68 -13t59.5 -13t57.5 -15t47 -17.5t45 -22.5t33.5 -27t29.5 -35q37 -60 37 -152q0 -155 -114 -240.5 t-294 -83.5zM772 182q122 12 193 74.5t71 171.5q0 67 -17 100t-48 54q-49 32 -199 61v-461z" />
<glyph unicode="%" horiz-adv-x="1751" d="M92 1104q0 169 80 272q43 56 105.5 86.5t134.5 30.5q150 0 239 -115q78 -104 78 -274q0 -175 -78 -275q-86 -112 -241 -112q-152 0 -238 112q-80 103 -80 275zM152 1104q0 -153 67 -238q69 -90 191 -90q126 0 192 90q68 86 68 238q0 153 -68 239q-69 91 -190 91 q-122 0 -193 -93q-67 -85 -67 -237zM207 1104q0 119 51.5 196.5t153.5 77.5q93 0 147 -69q55 -74 55 -205q0 -135 -55 -205q-53 -68 -149 -68t-148 70q-55 70 -55 203zM266 1104q0 -109 43 -168q36 -45 101 -45q70 0 102 43q43 55 43 170q0 113 -43 168q-36 47 -100 47 q-46 0 -77.5 -23t-45 -60.5t-18.5 -68t-5 -63.5zM346 78q0 28 16 49l916 1343q26 37 72 37q33 0 59.5 -26t26.5 -62q0 -25 -15 -49l-917 -1343q-26 -37 -72 -37q-33 0 -59.5 26t-26.5 62zM406 78q0 -12 7.5 -20.5t18.5 -8.5q17 0 23 12l917 1344q4 8 4 14q0 11 -9 20t-17 9 q-17 0 -23 -12l-917 -1344q-4 -8 -4 -14zM1022 360q0 170 80 273q43 56 105 86.5t134 30.5q151 0 240 -115q78 -104 78 -275q0 -174 -78 -274q-87 -113 -242 -113q-150 0 -237 113q-80 103 -80 274zM1083 360q0 -150 66 -237q69 -90 190 -90q126 0 195 88q65 89 65 239 q0 151 -65 240q-69 88 -193 88q-121 0 -190 -90q-68 -89 -68 -238zM1137 360q0 119 51.5 197t152.5 78q96 0 148 -70q57 -72 57 -205t-55 -204q-58 -70 -152 -70q-90 0 -147 72q-55 71 -55 202zM1196 360q0 -108 43 -167q37 -46 100 -46q71 0 103 43q43 55 43 170 q0 113 -43 168q-36 47 -101 47q-46 0 -77.5 -23t-44.5 -60.5t-18 -68t-5 -63.5z" />
<glyph unicode="&#x26;" horiz-adv-x="1368" d="M102 414q0 88 25 160t74.5 128t100 95t122.5 82q-55 72 -78.5 139t-23.5 145q0 142 90 235t225 93q134 0 221.5 -92.5t87.5 -237.5q0 -204 -205 -344l226 -289q16 62 16 138q0 44 31.5 75t75.5 31t76 -31t32 -75q0 -184 -74 -340l119 -154q23 -29 23 -68q0 -50 -32 -78 t-75 -28q-53 0 -86 41l-78 100q-157 -168 -407 -168q-92 0 -178 29t-155.5 83t-111 140t-41.5 191zM174 414q0 -87 35 -158.5t93 -117.5t132 -70.5t154 -24.5q264 0 407 215l135 -174q11 -14 29 -14q13 0 23 9t10 25q0 17 -6 23l-148 190q88 160 88 349q0 13 -10.5 22.5 t-25.5 9.5t-25 -10t-10 -22q0 -165 -66 -283l-354 453q56 34 94 63t73 68.5t52.5 87.5t17.5 106q0 115 -65.5 185.5t-169.5 70.5q-105 0 -174.5 -71t-69.5 -183q0 -79 31.5 -146t110.5 -159q-52 -29 -82.5 -47.5t-73.5 -48t-68.5 -53t-55 -57.5t-45 -68t-26 -77.5 t-10.5 -92.5zM244 414q0 122 70.5 202.5t258.5 182.5l379 -484q-135 -198 -364 -198q-39 0 -81 7.5t-90.5 28t-85.5 52t-62 86t-25 123.5zM317 414q0 -51 19 -91.5t47.5 -65t66 -41t71.5 -22.5t67 -6q97 0 165.5 36.5t106.5 88.5l-305 392q-138 -80 -188 -141t-50 -150z M465 1163q0 78 47.5 132.5t124.5 54.5q41 0 72.5 -16t48 -38t27 -50.5t13.5 -48t3 -36.5q0 -75 -43 -137t-162 -129q-73 81 -102 143t-29 125zM539 1163q0 -45 14.5 -82t56.5 -92q69 47 94 86t25 86q0 26 -5 48.5t-27 44.5t-60 22q-43 0 -70.5 -32.5t-27.5 -80.5z" />
<glyph unicode="'" horiz-adv-x="452" d="M123 1147v233q0 43 30.5 73t73.5 30q42 0 72.5 -30.5t30.5 -72.5v-233q0 -42 -30.5 -72.5t-72.5 -30.5q-43 0 -73.5 30t-30.5 73zM197 1147q0 -11 8.5 -21t21.5 -10q12 0 21.5 10t9.5 21v233q0 12 -9.5 21.5t-21.5 9.5q-13 0 -21.5 -9.5t-8.5 -21.5v-233z" />
<glyph unicode="(" horiz-adv-x="716" d="M123 616q0 209 69 420t189 369q35 49 55 63.5t53 14.5q40 0 72.5 -28t32.5 -75q0 -40 -47 -98q-101 -138 -159 -310t-58 -356q0 -380 225 -735q28 -44 33.5 -55.5t5.5 -32.5q0 -45 -32 -74.5t-73 -29.5q-13 0 -23.5 2t-19.5 7t-15.5 9t-14 13.5t-11 13.5t-11.5 16.5 t-11 16.5q-29 45 -57.5 95t-67 137t-67 175.5t-48.5 206.5t-20 235zM195 616q0 -225 72 -439t194 -398q11 -19 28 -19q16 0 24 13t5 28q-1 1 -24 39q-110 172 -174 371.5t-64 404.5q0 207 69 398t185 342q10 13 10 24q0 14 -10.5 22.5t-20.5 6.5q-15 0 -28 -16 q-121 -156 -193.5 -360t-72.5 -417z" />
<glyph unicode=")" horiz-adv-x="716" d="M123 1380q0 46 32.5 74.5t71.5 28.5q33 0 54 -14.5t57 -63.5q119 -159 187.5 -369.5t68.5 -419.5q0 -144 -28 -285.5t-73.5 -252t-83 -182.5t-75.5 -129q-2 -2 -11 -16t-11.5 -17t-11 -13.5t-14.5 -13.5t-15.5 -8.5t-20 -7.5t-23.5 -2q-39 0 -70.5 29.5t-31.5 74.5 q0 21 5 32t32 56q225 355 225 735q0 185 -57 357t-158 309q-16 20 -24.5 31.5t-16.5 30.5t-8 36zM197 1380q0 -11 10 -24q116 -151 185 -342t69 -398q0 -205 -64 -404.5t-174 -371.5q-23 -38 -24 -39q-3 -15 4.5 -28t23.5 -13q18 0 29 19q122 184 194 398t72 439 q0 213 -72.5 417t-193.5 360q-15 18 -29 18q-10 0 -20 -8.5t-10 -22.5z" />
<glyph unicode="*" horiz-adv-x="722" d="M92 1284q0 29 20.5 48.5t45.5 19.5q12 0 24 -4l105 -39v116q0 28 19.5 48t45.5 20q27 0 47.5 -20.5t20.5 -47.5v-118l123 41q16 4 22 4q26 0 46 -20t20 -48q0 -21 -12.5 -38t-32.5 -23l-127 -43l90 -123q12 -18 12 -39q0 -27 -20.5 -47.5t-44.5 -20.5q-33 0 -56 29 l-88 121l-88 -123q-23 -27 -53 -27q-26 0 -47 20t-21 46q0 22 13 41l92 125l-113 41q-20 7 -31.5 24.5t-11.5 36.5zM133 1284q0 -15 17 -22l161 -62l-123 -168q-4 -8 -4 -14q0 -11 7.5 -18t19.5 -7q11 0 18 11l123 167l121 -167q11 -11 21 -11t17 7t7 18q0 10 -4 14 l-123 170l180 60q17 7 17 24q0 8 -6.5 16.5t-18.5 8.5q-4 0 -8 -2l-178 -60v176q0 11 -7.5 19t-17.5 8t-18 -8t-8 -19v-176l-160 60q-2 2 -8 2q-9 0 -17 -8.5t-8 -18.5z" />
<glyph unicode="+" horiz-adv-x="1085" d="M84 668q0 43 29.5 72.5t72.5 29.5h252v252q0 42 31 73t72 31q43 0 73.5 -30.5t30.5 -73.5v-252h252q43 0 72.5 -29.5t29.5 -72.5t-30 -74t-72 -31h-252v-252q0 -43 -30.5 -72.5t-73.5 -29.5q-42 0 -72.5 30t-30.5 72v252h-252q-42 0 -72 31t-30 74zM156 668q0 -13 9 -22 t21 -9h326v-326q0 -11 9.5 -19.5t21.5 -8.5t21 8.5t9 19.5v326h324q12 0 21.5 9t9.5 22q0 12 -9.5 21t-21.5 9h-324v324q0 12 -9.5 22.5t-22.5 10.5q-12 0 -20.5 -10.5t-8.5 -22.5v-324h-326q-12 0 -21 -9t-9 -21z" />
<glyph unicode="," d="M57 -96q0 29 16 55t44 39q22 13 35 76q5 28 5.5 55.5t-1.5 54t-2 33.5q-2 41 28 73t74 32q34 0 62 -20.5t38 -53.5q9 -27 9 -90q0 -269 -160 -346q-26 -11 -43 -11q-47 0 -76 31.5t-29 71.5zM129 -96q0 -12 9.5 -21.5t21.5 -9.5q6 0 14 4q117 57 117 279q0 53 -4 69 q-7 23 -31 23q-13 0 -22 -8.5t-9 -20.5q0 -4 2 -33t1 -61t-7 -66q-8 -51 -29 -85t-42 -42q-21 -7 -21 -28z" />
<glyph unicode="-" horiz-adv-x="901" d="M102 614q0 43 30 74t73 31h491q43 0 73 -31t30 -74t-30 -72.5t-73 -29.5h-491q-43 0 -73 29.5t-30 72.5zM174 614q0 -12 9.5 -20t21.5 -8h491q12 0 21.5 8t9.5 20q0 13 -9.5 23t-21.5 10h-491q-12 0 -21.5 -10t-9.5 -23z" />
<glyph unicode="." horiz-adv-x="481" d="M102 96v45q0 47 34 81t81 34h45q47 0 82 -34t35 -81v-45q0 -47 -34.5 -79.5t-82.5 -32.5h-45q-48 0 -81.5 32.5t-33.5 79.5zM176 96q0 -17 11 -28t30 -11h45q19 0 31 11t12 28v45q0 17 -12 29t-31 12h-45q-18 0 -29.5 -11.5t-11.5 -29.5v-45z" />
<glyph unicode="/" horiz-adv-x="913" d="M82 2q0 17 6 35l543 1460q12 32 38.5 50t59.5 18q44 0 73 -32t29 -73q0 -17 -6 -35l-542 -1462q-10 -30 -37.5 -48.5t-59.5 -18.5q-41 0 -72.5 29t-31.5 77zM154 0q0 -14 9.5 -22.5t20.5 -8.5q22 0 31 19l543 1462v10q0 14 -9.5 23.5t-19.5 9.5q-21 0 -31 -20l-542 -1463 q0 -1 -1 -4.5t-1 -5.5z" />
<glyph unicode="0" horiz-adv-x="1284" d="M102 731q0 346 147.5 553t393.5 207q249 0 394 -204t145 -556q0 -356 -143.5 -558t-397.5 -202q-249 0 -394 204t-145 556zM176 731q0 -323 125.5 -504.5t339.5 -181.5q219 0 344 179.5t125 506.5q0 322 -126.5 505t-340.5 183q-211 0 -339 -185.5t-128 -502.5zM236 731 q0 90 12.5 175.5t42.5 169t75.5 145t116.5 99.5t160 38q76 0 138 -26.5t103 -68t72 -100t48 -115t27 -120.5t13 -109t3 -88q0 -60 -6 -120t-20.5 -135t-44 -137.5t-72.5 -116.5t-110.5 -85t-152.5 -31q-76 0 -138 26.5t-103 67.5t-72 99.5t-48 114.5t-27.5 120t-13.5 109 t-3 88zM309 731q0 -42 2.5 -83.5t11 -98.5t22.5 -106t40 -99t59.5 -85.5t84 -58t112.5 -22.5q60 0 110 20t84 53t59.5 80t40.5 95t24.5 105t12.5 104t3 96q0 42 -2.5 83.5t-11 98.5t-22.5 106t-40 99t-59.5 85.5t-84 58t-112.5 22.5q-88 0 -155 -48t-105 -129t-56 -175.5 t-18 -200.5z" />
<glyph unicode="1" horiz-adv-x="792" d="M61 1124q0 40 27.5 70t67.5 33q114 9 157 41q46 32 62 129q6 37 35 61.5t67 24.5h29q41 0 71.5 -31t30.5 -72v-1294q0 -42 -30 -72t-72 -30q-43 0 -73 29.5t-30 72.5v995q-49 -27 -102 -39q-57 -13 -129 -20q-45 -3 -78 27t-33 75zM135 1122q0 -12 9.5 -20.5t21.5 -7.5 q141 12 211 59q69 51 98 139v-1206q0 -12 9.5 -21.5t21.5 -9.5t21.5 9.5t9.5 21.5v1294q0 12 -9.5 21.5t-21.5 9.5h-29q-11 0 -20.5 -7.5t-10.5 -19.5q-20 -122 -90 -174q-65 -47 -194 -55q-12 -2 -20 -11.5t-7 -21.5z" />
<glyph unicode="2" horiz-adv-x="1216" d="M102 109q0 155 97 303q137 198 407 301q303 109 303 325q0 116 -73 183t-197 67q-134 0 -214.5 -74.5t-86.5 -212.5q-3 -41 -31.5 -68.5t-68.5 -27.5q-44 0 -75.5 32t-29.5 75q12 197 119 319q137 162 387 162q97 0 178 -27.5t134.5 -72t90.5 -101.5t54 -115t18 -114 q5 -123 -43 -223q-102 -212 -393 -320q-286 -107 -354 -315h671q42 0 72.5 -30.5t30.5 -72.5t-30.5 -72t-72.5 -30h-790q-43 0 -73 31.5t-30 77.5zM174 113q0 -18 9 -29t22 -10h790q12 0 21.5 8t9.5 20q0 13 -9.5 22t-21.5 9h-757q18 164 132 278t283 177q167 62 254 157 q137 128 137 293q0 169 -111 276t-292 107q-241 0 -360 -170q-36 -50 -55 -119t-19 -124q-1 -12 8 -21.5t21 -9.5t21 8.5t9 20.5q7 171 109 262.5t266 91.5q154 0 247 -87.5t93 -238.5q0 -71 -30 -135t-81 -112t-110.5 -83.5t-126.5 -58.5q-132 -46 -237 -128t-163 -187 q-59 -108 -59 -217z" />
<glyph unicode="3" horiz-adv-x="1253" d="M104 432v8q0 42 29.5 72.5t71.5 30.5q40 0 69.5 -27t32.5 -67q10 -126 99.5 -199.5t232.5 -73.5q150 0 231 72q76 64 76 182q0 87 -35 136t-116 75q-48 15 -72 53q-25 31 -25 82q0 47 27.5 86t69.5 49q54 23 78 60.5t24 97.5q0 96 -63 156q-70 61 -195 61 q-134 0 -207 -67t-82 -187q-3 -41 -32.5 -67.5t-75.5 -26.5q-33 0 -66.5 29t-30.5 80q15 201 152 325q131 119 342 119q202 0 330 -113q133 -121 133 -309q0 -180 -129 -287q178 -113 178 -352q0 -209 -145 -336q-141 -123 -367 -123q-222 0 -370 127.5t-165 333.5zM174 438 q13 -180 141.5 -287.5t321.5 -107.5q197 0 319 107q121 103 121 280q0 252 -229 334q-27 9 0 29q182 80 182 276q0 160 -110 256q-108 94 -281 94q-185 0 -297 -100q-113 -101 -125 -277q-1 -15 8.5 -23.5t18.5 -8.5q16 0 24 8.5t8 17.5q12 161 115 244q93 78 246 78 t242 -80q90 -78 90 -209q0 -163 -158 -227q-19 -6 -31 -25.5t-12 -42.5q3 -47 47 -63q104 -32 152.5 -101t48.5 -180q0 -148 -101 -235q-105 -91 -278 -91q-170 0 -280.5 92.5t-123.5 247.5q0 11 -9 19t-21 8t-20.5 -8t-8.5 -19v-6z" />
<glyph unicode="4" horiz-adv-x="1167" d="M20 444v70q0 34 19 59l625 867q29 43 84 43h49q43 0 72.5 -30t29.5 -73v-833h105q43 0 72.5 -30t29.5 -73t-29.5 -72.5t-72.5 -29.5h-105v-256q0 -43 -29.5 -72.5t-72.5 -29.5q-42 0 -72.5 30t-30.5 72v256h-571q-43 0 -73 29.5t-30 72.5zM92 444q0 -13 9.5 -21.5 t21.5 -8.5h643v-328q0 -13 9.5 -22t21.5 -9q13 0 21.5 8.5t8.5 22.5v328h177q14 0 22 8t8 22q0 12 -8.5 21.5t-21.5 9.5h-177v905q0 12 -8.5 21.5t-21.5 9.5h-49q-16 0 -27 -14l-623 -867q-6 -6 -6 -16v-70zM154 475v29l600 833h12v-862h-612zM272 547h422v586z" />
<glyph unicode="5" horiz-adv-x="1216" d="M102 377q-5 45 26.5 80t78.5 35q37 0 65.5 -26.5t34.5 -64.5q12 -103 93 -164t206 -61q137 0 220 85t83 231q0 136 -74.5 221.5t-201.5 85.5q-87 0 -149 -35t-95 -92q-30 -49 -88 -49h-59q-42 0 -72.5 30.5t-30.5 69.5q0 12 2 18l107 637q6 37 34.5 61.5t65.5 24.5h596 q42 0 72.5 -30t30.5 -72q0 -43 -30 -72.5t-73 -29.5h-510l-53 -320q106 64 252 64q98 0 185.5 -36t153 -100.5t104 -162t38.5 -213.5q0 -230 -142 -375.5t-366 -145.5q-197 0 -339 109t-165 297zM174 385q19 -154 138.5 -248t293.5 -94q196 0 316 124.5t120 324.5 q0 194 -115.5 317t-293.5 123q-112 0 -199 -45t-139 -121h-16l94 565h571q12 0 21.5 9t9.5 22q0 12 -9.5 21.5t-21.5 9.5h-596q-12 0 -20.5 -8t-10.5 -19l-106 -637q-2 -7 4 -16q8 -19 27 -19h59q17 0 25 15q104 161 307 161q153 0 250.5 -106t97.5 -272 q0 -175 -104.5 -281.5t-270.5 -106.5q-149 0 -252.5 77t-120.5 212q0 12 -9 19.5t-21 7.5q-13 -1 -22 -12t-7 -23z" />
<glyph unicode="6" horiz-adv-x="1251" d="M102 739q0 162 35 299q54 214 193.5 333.5t333.5 119.5q172 0 289.5 -94t152.5 -262q2 -6 2 -21q0 -41 -29.5 -71.5t-72.5 -30.5q-38 0 -66.5 23t-34.5 61q-38 190 -241 190q-156 0 -246 -117q-92 -123 -107 -331q143 149 348 149q210 0 350 -141.5t140 -358.5 q0 -144 -63.5 -262t-177 -186t-253.5 -68q-208 0 -352 129q-104 94 -152.5 247.5t-48.5 391.5zM174 739q0 -221 43 -361.5t135 -223.5q126 -111 303 -111q183 0 302.5 127.5t117.5 316.5q0 187 -117 307.5t-299 120.5q-77 0 -142.5 -25.5t-109 -64t-77 -91t-52 -99.5 t-28.5 -96q-10 79 -12 161.5t6.5 173t35.5 177t72 149.5q115 158 312 158q126 0 207 -64.5t104 -183.5q3 -12 12.5 -19.5t20.5 -5.5q11 0 18.5 9t7.5 20v10q-28 139 -126.5 217t-243.5 78q-121 0 -217 -55t-158 -160q-115 -176 -115 -465zM289 424q0 70 24 154 q18 56 47.5 104t71.5 87.5t100 62t127 22.5q158 0 257.5 -103.5t99.5 -263.5q2 -164 -101 -273.5t-260 -109.5q-163 0 -272 109q-52 49 -73 98t-21 113zM360 428q0 -38 9 -78q36 -76 108.5 -125t177.5 -49q129 0 209 87.5t80 223.5q0 130 -79.5 212.5t-205.5 82.5 q-75 0 -135 -33t-108 -116q-6 -10 -16.5 -31.5t-25 -72.5t-14.5 -101z" />
<glyph unicode="7" horiz-adv-x="1044" d="M20 1362q0 42 30 72t73 30h799q41 0 71.5 -30.5t30.5 -71.5v-57q0 -40 -31 -74q-206 -206 -350 -539q-147 -339 -147 -606q0 -43 -30 -72.5t-73 -29.5q-42 0 -72 30t-30 72q0 303 164 688q112 254 288 486h-620q-43 0 -73 29.5t-30 72.5zM90 1362q0 -13 9.5 -22t21.5 -9 h764v-20q-216 -227 -357 -547q-166 -373 -166 -678q0 -14 9 -22.5t22 -8.5q12 0 20.5 9t8.5 22q0 289 164 655q151 339 356 541q8 12 8 23v57q0 12 -9 20.5t-21 8.5h-799q-12 0 -21.5 -8.5t-9.5 -20.5z" />
<glyph unicode="8" horiz-adv-x="1273" d="M102 438q0 234 195 359q-131 106 -131 286q0 119 65.5 213.5t172.5 144.5t233 50q196 0 333.5 -112t137.5 -296q0 -178 -131 -284q194 -135 194 -361q0 -144 -71.5 -251.5t-190.5 -161.5t-268 -54q-246 0 -392.5 132.5t-146.5 334.5zM174 438q0 -124 65.5 -215 t170 -135.5t231.5 -44.5q200 0 329.5 105t129.5 290q0 75 -26 138.5t-69.5 106t-93.5 70t-104 40.5q229 78 229 290q0 152 -115.5 244t-283.5 92q-171 0 -284 -94.5t-113 -241.5q0 -214 229 -292q-42 -11 -81 -29t-79 -47.5t-69 -67.5t-47.5 -92t-18.5 -117zM236 438 q0 82 35.5 145t94.5 100t127.5 55.5t143.5 19.5q174 0 287.5 -85t113.5 -235q0 -110 -56 -187.5t-143.5 -112t-197.5 -34.5q-186 0 -295.5 94.5t-109.5 239.5zM301 1083q0 125 98 201t238 74q145 0 241.5 -74t96.5 -201q0 -163 -160 -225q-2 -2 -26.5 -11.5t-69 -19.5 t-82.5 -10q-37 0 -82.5 10t-68.5 18t-29 11q-156 63 -156 227zM307 438q0 -125 93.5 -193.5t240.5 -68.5q142 0 234 67.5t92 194.5q0 110 -90.5 178t-239.5 68q-146 0 -238 -66t-92 -180zM371 1083q0 -115 112 -161q76 -33 154 -33q38 0 82.5 11.5t66.5 21.5q25 11 41 21 t36 28.5t30 46.5t10 65q0 95 -75.5 149t-190.5 54q-107 0 -186.5 -55t-79.5 -148z" />
<glyph unicode="9" horiz-adv-x="1251" d="M102 973q0 145 63 263.5t176 186.5t253 68q207 0 354 -129q103 -94 152 -248t49 -391q0 -334 -141 -537q-75 -105 -183 -160t-239 -55q-169 0 -289 94t-152 263q-2 6 -2 20q0 41 29.5 72t71.5 31q37 0 66.5 -24t35.5 -60q19 -94 80.5 -142.5t159.5 -48.5q225 0 311 242 q33 89 43 207q-55 -58 -115 -93q-102 -57 -235 -57q-102 0 -192.5 37t-155.5 102.5t-102.5 158.5t-37.5 200zM174 975q0 -185 117 -306.5t299 -121.5q217 0 336 188q50 78 73 189q14 -120 11 -238q-2 -123 -28.5 -226t-77 -184t-132 -126.5t-186.5 -45.5q-124 0 -205.5 65.5 t-106.5 184.5q-1 12 -11 19.5t-21 5.5q-12 -1 -19.5 -10t-7.5 -21l2 -14q31 -138 128.5 -214.5t240.5 -76.5q230 0 362 186q127 180 127 496q0 220 -42.5 361t-133.5 223q-122 110 -305 110q-182 0 -301 -127t-119 -317zM233 975q0 167 101 275t260 108q127 0 218 -60 t136 -161q15 -55 15 -105q0 -66 -22 -136t-54 -118q-102 -170 -297 -170q-157 0 -257 104t-100 263zM307 975q0 -130 79 -212.5t204 -82.5q84 0 142.5 36t103.5 113q4 4 16 29t25.5 75.5t13.5 100.5q0 42 -8 78q-94 174 -289 174q-125 0 -206 -87t-81 -224z" />
<glyph unicode=":" horiz-adv-x="481" d="M102 96v45q0 47 34 81t81 34h45q47 0 82 -34t35 -81v-45q0 -47 -34.5 -79.5t-82.5 -32.5h-45q-48 0 -81.5 32.5t-33.5 79.5zM102 930v45q0 47 33.5 79.5t81.5 32.5h45q48 0 82.5 -32.5t34.5 -79.5v-45q0 -47 -34.5 -80t-82.5 -33h-45q-47 0 -81 33t-34 80zM176 96 q0 -17 11 -28t30 -11h45q19 0 31 11t12 28v45q0 17 -12 29t-31 12h-45q-18 0 -29.5 -11.5t-11.5 -29.5v-45zM176 930q0 -19 11 -30t30 -11h45q19 0 31 12t12 29v45q0 17 -12 29t-31 12h-45q-18 0 -29.5 -11.5t-11.5 -29.5v-45z" />
<glyph unicode=";" d="M76 -96q0 67 59 94q22 13 33 76q4 22 5.5 46t1 36t-2.5 35.5t-2 25.5q-2 41 28.5 73t75.5 32q33 0 61.5 -20.5t37.5 -53.5q8 -24 8 -90q0 -270 -158 -346q-26 -11 -45 -11q-45 0 -73.5 32t-28.5 71zM111 930v45q0 47 33.5 79.5t80.5 32.5h45q48 0 82.5 -32.5t34.5 -79.5 v-45q0 -47 -34.5 -80t-82.5 -33h-45q-47 0 -80.5 33t-33.5 80zM147 -96q0 -12 9 -21.5t22 -9.5q7 0 15 4q114 56 114 279q0 61 -4 69q-7 23 -31 23q-13 0 -21.5 -8.5t-8.5 -20.5q7 -100 -2 -160q-10 -51 -31.5 -85t-42.5 -42q-19 -6 -19 -28zM184 930q0 -19 11 -30t30 -11 h45q19 0 31 12t12 29v45q0 17 -12 29t-31 12h-45q-18 0 -29.5 -11.5t-11.5 -29.5v-45z" />
<glyph unicode="&#x3c;" horiz-adv-x="1335" d="M61 559q0 30 16.5 55t43.5 37l936 439q19 8 45 8q41 0 71.5 -28.5t30.5 -74.5q0 -30 -16 -55.5t-43 -38.5l-739 -344l749 -360q57 -28 57 -95q0 -39 -29 -70.5t-73 -31.5q-22 0 -45 10l-944 455q-28 12 -44 37.5t-16 56.5zM131 559q0 -19 16 -29l947 -454q2 -2 12 -2 q15 0 23 10t8 20q0 21 -19 27l-887 426l879 410q18 11 18 28q0 14 -9.5 22.5t-22.5 8.5q-2 0 -6.5 -1t-6.5 -1l-936 -438q-16 -6 -16 -27z" />
<glyph unicode="=" horiz-adv-x="1269" d="M102 438q0 43 30 74t73 31h860q42 0 72 -31t30 -74t-29.5 -72.5t-72.5 -29.5h-860q-43 0 -73 29.5t-30 72.5zM102 870q0 43 30 74t73 31h860q42 0 72 -31t30 -74t-29.5 -72.5t-72.5 -29.5h-860q-43 0 -73 29.5t-30 72.5zM174 438q0 -12 9.5 -20t21.5 -8h860q12 0 21.5 8 t9.5 20q0 13 -9.5 23t-21.5 10h-860q-12 0 -21.5 -10t-9.5 -23zM174 870q0 -12 9.5 -20t21.5 -8h860q12 0 21.5 8t9.5 20q0 13 -9.5 23t-21.5 10h-860q-12 0 -21.5 -10t-9.5 -23z" />
<glyph unicode="&#x3e;" horiz-adv-x="1335" d="M123 102q0 67 57 95l750 360l-740 344q-27 13 -43 38.5t-16 55.5q0 46 30.5 74.5t71.5 28.5q27 0 46 -8l935 -439q27 -12 43.5 -37t16.5 -55q0 -31 -16 -56.5t-44 -37.5l-944 -455q-23 -10 -45 -10q-44 0 -73 31.5t-29 70.5zM199 104q0 -10 7.5 -20t22.5 -10q11 0 13 2 l946 454q16 10 16 29q0 21 -16 27l-936 438q-2 0 -6 1t-6 1q-13 0 -23 -8.5t-10 -22.5q0 -17 18 -28l879 -410l-887 -426q-18 -6 -18 -27z" />
<glyph unicode="?" horiz-adv-x="1179" d="M123 1036v15q6 66 25.5 127.5t59 119t94 100t134.5 68t176 25.5q196 0 320.5 -114t124.5 -294q0 -61 -14 -114.5t-32 -89.5t-51.5 -74.5t-54.5 -57.5t-59 -51l-6 -6q-93 -75 -120 -121.5t-30 -144.5q-2 -42 -32 -71t-72 -29q-44 0 -74.5 32.5t-28.5 73.5q2 81 17 142 t48 110.5t66.5 83.5t92.5 82l6 6q41 35 59 51.5t40 45t30 59.5t8 73q0 94 -64 147.5t-174 53.5q-65 0 -115.5 -17.5t-80.5 -43.5t-50 -62t-27.5 -66.5t-10.5 -62.5q-3 -43 -35.5 -70t-75.5 -24q-39 4 -65 31.5t-29 66.5zM195 1040q0 -12 9 -20t21 -10q12 0 20.5 8t10.5 20 q14 148 105.5 233t250.5 85q138 0 224 -74t86 -199q0 -43 -9.5 -79.5t-21 -61t-38 -54t-43 -44t-52.5 -45.5l-6 -6q-56 -47 -87 -78.5t-58 -74t-38.5 -92.5t-13.5 -120q0 -12 9 -21.5t22 -9.5q12 0 21 8.5t9 20.5q4 118 39 178t136 144l8 4q36 31 54.5 47.5t48 50t44 63.5 t26 74.5t11.5 95.5q0 153 -105 243.5t-266 90.5q-184 0 -290.5 -99t-126.5 -261v-17zM444 92v45q0 47 34 81t81 34h45q47 0 81 -34t34 -81v-45q0 -47 -33.5 -79.5t-81.5 -32.5h-45q-48 0 -81.5 32.5t-33.5 79.5zM516 92q0 -17 12 -28t31 -11h45q19 0 31 11t12 28v45 q0 17 -12 29t-31 12h-45q-19 0 -31 -12t-12 -29v-45z" />
<glyph unicode="@" horiz-adv-x="1779" d="M143 705q0 202 88 372.5t240 276.5q201 139 449 139q159 0 293.5 -55t225 -148t141 -217.5t50.5 -263.5q0 -79 -13 -151t-41.5 -138.5t-71 -115.5t-106 -78t-141.5 -29q-63 0 -118 25q-40 18 -62 40l-10 11l-12 -11q-111 -79 -230 -79q-69 0 -131 24t-111.5 70.5 t-78.5 123t-29 173.5q0 79 17 152.5t52 136.5t83.5 110t114.5 74t143 27q78 0 145 -31q30 20 68 14q42 -4 68.5 -38.5t21.5 -76.5l-12 -94v-6l-41 -326q60 -25 73 -88q4 -24 49 -24q58 0 96.5 44t54 108.5t15.5 144.5q0 220 -142 352.5t-361 132.5q-111 0 -213.5 -40 t-182 -112.5t-127 -184t-47.5 -244.5q0 -245 143.5 -385t391.5 -140q147 0 272 51q40 15 80 -2t55 -57t-2 -79t-57 -54q-163 -66 -348 -66q-183 0 -327.5 61t-233.5 164.5t-135 232.5t-46 274zM215 705q0 -296 181 -478t489 -182q169 0 321 61q12 4 17 15.5t0 23.5 q-4 12 -15.5 17t-23.5 0q-142 -56 -299 -56q-277 0 -443 163t-166 436q0 123 36.5 230t99 183.5t145 131.5t174.5 81.5t187 26.5q84 0 165 -20.5t156 -65t131.5 -108.5t90.5 -157.5t34 -205.5q0 -99 -22.5 -179.5t-78.5 -136t-139 -55.5q-46 0 -77.5 22t-40.5 60 q-4 20 -20.5 31.5t-37.5 13.5q-42 3 -59 -31q-28 -49 -82 -79.5t-113 -30.5q-106 0 -161.5 69.5t-55.5 188.5q0 160 77 262t200 102q107 0 155 -88l-39 -327q-2 -14 6 -23.5t23 -9.5q12 -2 21 5.5t10 20.5l53 435q1 12 -7 22t-20 12q-22 0 -28 -18l-6 -33q-63 66 -168 66 q-106 0 -184.5 -61t-116 -156.5t-37.5 -210.5q0 -147 74.5 -232.5t203.5 -85.5q71 0 136 36t102 95q4 4 12 4q7 0 10 -6q16 -42 41 -67q45 -45 129 -45q79 0 139 36.5t94 99.5t51 137.5t17 158.5q0 123 -37.5 226.5t-100.5 174t-145.5 120t-172.5 72.5t-182 23 q-185 0 -349 -92q-170 -90 -262 -257t-92 -365zM682 674q0 -185 143 -185q37 0 71 17.5t54 46.5q-26 37 -20 78l37 303q-26 33 -82 33q-97 0 -150 -84t-53 -209z" />
<glyph unicode="A" horiz-adv-x="1388" d="M61 84q0 16 7 37l481 1276q10 30 36.5 48.5t59.5 18.5h94q31 0 58 -18t39 -47l483 -1278q8 -19 8 -43q-1 -40 -34.5 -67t-71.5 -27q-31 0 -57 17t-38 46l-139 369h-588l-139 -369q-11 -32 -37.5 -47.5t-58.5 -15.5q-43 0 -73 26.5t-30 73.5zM135 86q0 -12 8.5 -20.5 t20.5 -8.5q22 0 31 19l155 416h688l156 -416q11 -19 29 -19q11 0 20.5 7.5t9.5 21.5v12l-485 1274q-10 21 -29 21h-94q-22 0 -29 -21l-481 -1274v-12zM373 553l295 778h49l297 -778h-641zM477 621h432l-219 573z" />
<glyph unicode="B" horiz-adv-x="1388" d="M184 104v1258q0 42 31 72t74 30h516q210 0 330 -114q116 -107 116 -287q0 -183 -121 -285q84 -54 131.5 -141t47.5 -195q0 -187 -117 -307q-63 -65 -157 -100t-206 -35h-540q-43 0 -74 30.5t-31 73.5zM258 104q0 -13 8.5 -21.5t22.5 -8.5h540q203 0 310 110 q96 101 96 258q0 118 -63 200t-177 118q-12 5 -11.5 13t9.5 11q185 70 185 277q0 146 -95 235q-102 97 -278 97h-516q-13 0 -22 -9.5t-9 -21.5v-1258zM319 135v1196h486q151 0 237 -80q73 -70 76 -188q0 -89 -37.5 -143.5t-119.5 -83.5q-21 -7 -33.5 -27t-12.5 -41 q0 -24 14 -40t34 -21q100 -28 155.5 -97t55.5 -168q0 -134 -78 -215q-92 -92 -267 -92h-510zM391 207h438q146 0 215 72q58 61 58 163q0 73 -39.5 122t-112.5 71q-43 8 -74.5 44t-31.5 89q0 46 25.5 84t66.5 53q59 20 83.5 56.5t24.5 101.5q0 83 -51 137q-60 57 -188 57 h-414v-1050z" />
<glyph unicode="C" horiz-adv-x="1458" d="M102 729q0 219 79.5 390.5t234 271.5t360.5 100q212 0 364.5 -107.5t205.5 -304.5q2 -8 2 -26q0 -41 -29.5 -72t-73.5 -31q-34 0 -62.5 21.5t-37.5 56.5q-33 128 -129 192t-240 64q-223 0 -345 -152.5t-122 -402.5q0 -161 52 -284.5t157.5 -195t251.5 -71.5 q175 0 276.5 92t122.5 256q4 39 34.5 65.5t70.5 26.5q41 0 70 -29t32 -71q0 -10 -2 -16q-30 -241 -188.5 -386t-415.5 -145q-108 0 -207 30.5t-183 93.5t-146 152t-97 212.5t-35 269.5zM172 731q0 -200 71 -354t207 -242t318 -88q228 0 366.5 127t165.5 338v6q-6 29 -30 29 q-11 0 -20.5 -8.5t-10.5 -18.5q-22 -189 -145.5 -300t-325.5 -111q-168 0 -291 83t-183.5 222.5t-60.5 316.5q0 184 62 325t186 222.5t293 81.5q166 0 282.5 -80.5t155.5 -230.5q7 -23 31 -23q13 0 22 9t9 20q0 2 -1 6t-1 6q-50 173 -181.5 263.5t-316.5 90.5 q-141 0 -255.5 -52t-190 -144t-116 -218.5t-40.5 -275.5z" />
<glyph unicode="D" horiz-adv-x="1464" d="M184 102v1260q0 42 30 72t73 30h438q303 0 470 -193t167 -544q0 -347 -170 -537t-481 -190h-424q-43 0 -73 29.5t-30 72.5zM256 102q0 -12 9.5 -20t21.5 -8h424q119 0 214.5 32t162.5 89.5t112.5 139t66.5 179.5t21 213q0 202 -59.5 349t-187.5 232t-316 85l-438 -2 q-12 0 -21.5 -8.5t-9.5 -20.5v-1260zM317 133v1196h408q130 0 227.5 -44t157 -125t88.5 -189t29 -244q0 -278 -128.5 -436t-387.5 -158h-394zM391 207h320q444 0 444 520q0 530 -430 530h-334v-1050z" />
<glyph unicode="E" horiz-adv-x="1325" d="M184 102v1260q0 42 30 72t73 30h833q42 0 72.5 -30t30.5 -72q0 -43 -30 -74t-73 -31h-731v-378h666q43 0 73.5 -31t30.5 -74t-30.5 -72.5t-73.5 -29.5h-666v-465h752q42 0 72 -31t30 -74t-29.5 -72.5t-72.5 -29.5h-854q-43 0 -73 29.5t-30 72.5zM256 104q0 -12 9 -21 t22 -9h852q12 0 21 9t9 21t-9 21.5t-21 9.5h-824v608h740q12 0 21 9.5t9 21.5q0 13 -9 22t-21 9h-738v526h801q12 0 21.5 9.5t9.5 21.5t-9.5 21.5t-21.5 9.5h-831q-13 0 -22 -9.5t-9 -21.5v-1258z" />
<glyph unicode="F" horiz-adv-x="1249" d="M184 86v1276q0 41 31 71.5t72 30.5h796q43 0 74 -30.5t31 -71.5q0 -43 -31 -74t-74 -31h-692v-374h584q41 0 71.5 -30.5t30.5 -72.5t-30 -72t-72 -30h-584v-592q0 -43 -30.5 -72.5t-73.5 -29.5q-42 0 -72.5 30t-30.5 72zM256 86q0 -12 9.5 -21.5t21.5 -9.5q13 0 22.5 9.5 t9.5 21.5v664h656q12 0 20.5 8.5t8.5 21.5q0 12 -8.5 21.5t-20.5 9.5h-656v518h764q12 0 21.5 9.5t9.5 21.5t-9.5 21.5t-21.5 9.5h-796q-12 0 -21.5 -9.5t-9.5 -21.5v-1274z" />
<glyph unicode="G" horiz-adv-x="1554" d="M98 729q0 338 189 549q195 213 510 213q223 0 374 -109q157 -114 207 -311q4 -14 4 -28q0 -27 -14 -51q-22 -38 -63 -48q-13 -3 -25 -3q-28 0 -54 15q-37 23 -48 64q-30 125 -125 192q-101 72 -256 72q-224 0 -357 -145q-135 -150 -135 -410q0 -257 131 -407 q129 -144 342 -144q220 0 328 174q35 53 98 62v196h-379q-42 0 -72 31t-30 74t29.5 72.5t72.5 29.5h482q43 0 73.5 -29.5t30.5 -72.5v-611q0 -43 -30.5 -73.5t-73.5 -30.5h-23q-49 0 -78 37q-21 25 -24 53l-2 27q-3 -3 -10.5 -8.5t-10.5 -8.5q-157 -129 -381 -129 q-308 0 -495 213q-185 206 -185 545zM172 731q0 -308 164 -498q164 -188 442 -188t426 219q8 8 19 4q12 -4 12 -10q7 -66 22 -164q7 -20 27 -20h23q13 0 21.5 9t8.5 21v611q0 12 -8.5 21t-21.5 9h-482q-12 0 -21 -9t-9 -21t9 -21.5t21 -9.5h451v-397l-6 24q-11 26 -43 29 q-6 1 -12 1q-31 0 -48 -28q-133 -207 -389 -207q-250 0 -395 168q-150 170 -150 457q0 286 154 457q153 170 410 170q178 0 297 -84q114 -80 155 -236q3 -12 14 -18.5t23 -3.5t19 14.5t4 22.5q-42 170 -181 272q-136 94 -331 94q-286 0 -455 -190q-170 -185 -170 -498z" />
<glyph unicode="H" horiz-adv-x="1507" d="M184 86v1292q0 43 31 74t74 31q42 0 72 -31t30 -74v-487h725v487q0 43 31 74t74 31q41 0 71.5 -31t30.5 -74v-1292q0 -42 -30 -72t-72 -30q-43 0 -74 30t-31 72v598h-725v-598q0 -43 -29.5 -72.5t-72.5 -29.5t-74 30t-31 72zM258 86q0 -12 9 -21.5t22 -9.5q12 0 21 9.5 t9 21.5v672h871v-672q0 -12 9 -21.5t22 -9.5q12 0 21 9.5t9 21.5v1292q0 12 -9 22.5t-21 10.5q-13 0 -22 -10t-9 -23v-561h-871v561q0 12 -9 22.5t-21 10.5q-13 0 -22 -10t-9 -23v-1292z" />
<glyph unicode="I" horiz-adv-x="575" d="M184 86v1292q0 43 31 74t72 31q43 0 73.5 -31t30.5 -74v-1292q0 -43 -30.5 -72.5t-73.5 -29.5q-42 0 -72.5 30t-30.5 72zM256 86q0 -12 9.5 -21.5t21.5 -9.5q13 0 22.5 9.5t9.5 21.5v1292q0 12 -9.5 22.5t-22.5 10.5q-12 0 -21.5 -10.5t-9.5 -22.5v-1292z" />
<glyph unicode="J" horiz-adv-x="1114" d="M61 436v15q0 43 30 73.5t73 30.5t73.5 -30.5t30.5 -73.5v-15q0 -138 54.5 -197t181.5 -59q219 0 219 203v993q0 43 30.5 74t73.5 31t73 -31t30 -74v-993q0 -189 -114 -299.5t-312 -110.5q-214 0 -328.5 119.5t-114.5 343.5zM135 436q0 -389 369 -389q170 0 262 88t92 248 l-2 995q0 12 -8.5 21.5t-20.5 9.5q-13 0 -21.5 -9.5t-8.5 -21.5v-995q0 -134 -76 -204t-217 -70q-159 0 -233 79.5t-74 247.5v15q0 12 -10 22t-23 10q-12 0 -20.5 -10t-8.5 -22v-15z" />
<glyph unicode="K" horiz-adv-x="1417" d="M184 86v1292q0 43 31 74t72 31q43 0 73.5 -31t30.5 -74v-637l727 711q31 31 72 31q44 0 73 -30t29 -73q0 -45 -30 -75l-469 -457l522 -701q20 -26 20 -59q0 -45 -30.5 -74.5t-73.5 -29.5q-52 0 -80 41l-506 677l-254 -247v-369q0 -43 -30.5 -72.5t-73.5 -29.5 q-42 0 -72.5 30t-30.5 72zM256 88q0 -12 9.5 -21.5t21.5 -9.5q13 0 21.5 9.5t8.5 21.5v397l334 328l557 -743q10 -13 23 -13q12 0 21.5 9t9.5 22q0 10 -5 18l-561 750l514 502q9 9 9 22t-8.5 22t-20.5 9q-13 0 -23 -10l-850 -830v809q0 12 -8.5 21.5t-21.5 9.5 q-12 0 -21.5 -9.5t-9.5 -21.5v-1292z" />
<glyph unicode="L" horiz-adv-x="1193" d="M184 102v1276q0 43 31 74t72 31q43 0 73.5 -31t30.5 -74v-1171h660q42 0 72 -31t30 -74t-29.5 -72.5t-72.5 -29.5h-764q-42 0 -72.5 30t-30.5 72zM256 102q0 -28 31 -28h764q11 0 20.5 8t9.5 20q0 13 -9.5 23t-20.5 10h-732l-2 1243q0 13 -8.5 23t-21.5 10 q-12 0 -21.5 -10.5t-9.5 -22.5v-1276z" />
<glyph unicode="M" horiz-adv-x="1759" d="M184 86v1276q0 41 31 71.5t74 30.5h110q32 0 58.5 -18t38.5 -47l383 -1006l381 1004q10 30 36.5 48.5t59.5 18.5h117q41 0 71.5 -30.5t30.5 -71.5v-1276q0 -42 -30 -72t-72 -30q-43 0 -74 30t-31 72v1024l-391 -1044q-14 -34 -42 -51t-57.5 -16t-56 18.5t-37.5 48.5 l-393 1034v-1014q0 -42 -30 -72t-72 -30q-43 0 -74 30t-31 72zM256 88q0 -12 10 -21.5t23 -9.5q12 0 20 9.5t8 21.5v1243h62l471 -1237q10 -20 31 -20q19 0 26 20l467 1237h66v-1243q0 -12 9 -21.5t21 -9.5t21.5 9.5t9.5 21.5v1274q0 12 -9.5 21.5t-21.5 9.5h-114 q-20 0 -31 -21l-446 -1182l-451 1184q-11 19 -29 19h-110q-13 0 -23 -9.5t-10 -21.5v-1274z" />
<glyph unicode="N" horiz-adv-x="1507" d="M184 86v1276q0 42 30 72t73 30h84q56 0 88 -49l655 -1073h2v1036q0 43 30 74t73 31t73.5 -31t30.5 -74v-1276q0 -43 -30.5 -72.5t-73.5 -29.5h-76q-60 0 -88 49l-662 1081h-2v-1044q0 -43 -30.5 -72.5t-73.5 -29.5t-73 29.5t-30 72.5zM256 86q0 -11 9.5 -21t21.5 -10 q13 0 21.5 10t8.5 21v1231h45l754 -1229q6 -13 25 -16h78q32 0 32 30l-2 1276q0 12 -8.5 21.5t-21.5 9.5q-12 0 -21.5 -9.5t-9.5 -21.5v-1228h-39l-752 1226q-10 15 -26 15h-84q-14 0 -22.5 -8t-8.5 -21v-1276z" />
<glyph unicode="O" horiz-adv-x="1579" d="M102 731q0 163 51.5 304t142 241t217.5 157.5t273 57.5q197 0 355 -97.5t247 -271.5t89 -391t-89 -391t-247 -271.5t-355 -97.5q-146 0 -273 57.5t-217.5 157.5t-142 241t-51.5 304zM174 731q0 -150 46.5 -278.5t127.5 -218t194 -139.5t244 -50q177 0 317.5 85t221 242 t80.5 359t-80.5 359.5t-221 243t-317.5 85.5q-131 0 -244 -50.5t-194 -140t-127.5 -218t-46.5 -279.5zM238 731q0 276 152 451.5t396 175.5q248 0 402.5 -175.5t154.5 -451.5q0 -279 -154 -452t-403 -173q-162 0 -287 80t-193 222t-68 323zM309 731q0 -249 131.5 -401 t345.5 -152q217 0 350.5 152t133.5 401q0 248 -133.5 400.5t-350.5 152.5q-214 0 -345.5 -152.5t-131.5 -400.5z" />
<glyph unicode="P" horiz-adv-x="1308" d="M184 84v1276q0 42 30 72t73 30h487q218 0 345.5 -119.5t127.5 -320.5q0 -214 -128 -330.5t-361 -116.5h-367v-491q0 -43 -30.5 -72.5t-73.5 -29.5t-73 29.5t-30 72.5zM256 86q0 -12 9.5 -21.5t21.5 -9.5q13 0 21.5 9.5t8.5 21.5v561h441q200 0 309 95t109 280 q0 173 -108.5 271t-293.5 98h-487q-12 0 -21.5 -9.5t-9.5 -21.5v-1274zM317 709v620h457q163 0 251.5 -80.5t88.5 -226.5q0 -313 -356 -313h-441zM391 780h367q72 0 125 14t83 36t47.5 56t23 65t5.5 71q0 233 -268 233h-383v-475z" />
<glyph unicode="Q" horiz-adv-x="1579" d="M102 731q0 163 51.5 304t142 241t218 157.5t274.5 57.5q197 0 354.5 -97.5t246 -271.5t88.5 -391q0 -312 -174 -520l92 -76q39 -29 39 -80q0 -43 -31.5 -72.5t-71.5 -29.5t-65 22l-121 97q-164 -101 -357 -101q-147 0 -274.5 57.5t-218 157.5t-142 241t-51.5 304z M176 731q0 -151 46 -279t126.5 -217.5t193.5 -139.5t244 -50q211 0 365 117l160 -129q8 -8 20 -8q9 0 19 8t10 22q0 17 -10 25l-152 123q98 92 152.5 227.5t54.5 300.5q0 202 -80.5 359.5t-221 243t-317.5 85.5q-131 0 -244 -50.5t-193.5 -140t-126.5 -218t-46 -279.5z M238 731q0 181 68 323t193 222t287 80q249 0 403 -174t154 -451q0 -155 -50 -280t-142 -209l-180 145q-9 6 -21 6q-13 0 -20.5 -9t-7.5 -22q0 -14 10 -22l170 -137q-135 -99 -316 -99q-244 0 -396 175.5t-152 451.5zM309 731q0 -249 132 -401t347 -152q101 0 185 35l-86 70 q-39 29 -39 79q0 42 29.5 73.5t72.5 31.5q38 0 66 -25l129 -102q127 152 127 391q0 248 -133.5 400.5t-350.5 152.5q-215 0 -347 -152.5t-132 -400.5z" />
<glyph unicode="R" horiz-adv-x="1441" d="M184 86v1274q0 43 31 73.5t74 30.5h557q205 0 323 -112q121 -115 121 -316q0 -123 -45 -209q-37 -67 -104 -116q60 -55 86 -140t33 -209q8 -178 32 -239q8 -21 8 -40q0 -31 -20 -57q-32 -42 -84 -42q-33 0 -59.5 17.5t-38.5 49.5q-36 98 -45 303q-3 71 -11 115.5 t-24 66.5t-27.5 29.5t-36.5 16.5q-34 12 -63 45t-29 86q0 43 24 82t72 55q74 22 99 65q26 40 26 121q0 113 -57 164q-57 57 -180 57h-455v-1171q0 -42 -30 -72t-72 -30q-43 0 -74 30t-31 72zM258 86q0 -12 9.5 -21.5t21.5 -9.5t21 9.5t9 21.5v1243h527q150 0 231 -78 q80 -74 80 -215q0 -105 -43 -166q-42 -63 -135 -92q-19 -6 -32 -24.5t-13 -40.5q0 -21 12 -39t33 -25q79 -24 109.5 -92t35.5 -201q9 -193 43 -280q7 -21 29 -21q14 0 24 12q7 8 6 19q0 5 -1 10q-30 75 -39 262q-5 145 -41.5 225.5t-130.5 116.5q-11 6 -11.5 14t11.5 13 q105 39 153 111q52 80 52 198q0 167 -101 260q-95 95 -272 95h-557q-12 0 -21.5 -9.5t-9.5 -21.5v-1274z" />
<glyph unicode="S" horiz-adv-x="1343" d="M102 451q-1 6 -1 12q-1 37 27 67q32 34 79 35q38 0 68 -26t34 -64q37 -297 398 -297q149 0 240 64.5t91 187.5q0 114 -67 152q-60 38 -250 71l-94 19q-121 24 -195 45t-129 55q-151 93 -151 299q0 192 146 306t368 114q215 0 355 -104t175 -302q2 -6 2 -18q0 -42 -29 -72 t-73 -30q-37 0 -67 24t-36 62q-44 233 -327 233q-133 0 -220.5 -53t-87.5 -160q0 -55 14.5 -81.5t39.5 -41.5q24 -16 67.5 -29.5t78 -21.5t108.5 -23l94 -18q86 -17 122 -24.5t97 -27.5t102 -46q164 -103 164 -328q0 -211 -150.5 -335t-387.5 -124q-250 0 -413 125t-192 355 zM337 154q140 -108 368 -109q206 0 335 102t129 283q0 130 -59 201q-25 35 -61.5 60t-90.5 42.5t-96.5 27.5t-118.5 25l-94 17q-13 3 -52.5 11.5t-52.5 12t-44 11t-45 12.5t-35.5 13t-36 17t-27.5 19q-73 54 -73 172q0 140 107 213.5t274 73.5q163 0 267.5 -73t131.5 -222 q1 -10 9.5 -17.5t19.5 -7.5q13 0 21.5 8.5t8.5 20.5v6q-29 167 -148 256.5t-310 89.5q-192 0 -317.5 -92t-125.5 -256q0 -150 101 -225q36 -25 91 -45t97.5 -30t126.5 -28l94 -16q170 -35 226 -58q79 -32 114 -87q37 -60 37 -152q0 -155 -114.5 -239.5t-288.5 -84.5 q-200 0 -324.5 91t-147.5 270q-1 12 -9 19.5t-19 7.5q-14 0 -24 -11q-9 -10 -9 -22q0 -179 165 -307z" />
<glyph unicode="T" horiz-adv-x="1241" d="M41 1362q0 41 30.5 71.5t71.5 30.5h953q43 0 73.5 -30.5t30.5 -71.5q0 -43 -30.5 -74t-73.5 -31h-373v-1171q0 -43 -29.5 -72.5t-72.5 -29.5t-73 29.5t-30 72.5v1171h-375q-41 0 -71.5 31t-30.5 74zM113 1362q0 -12 9 -21.5t21 -9.5h447v-1245q0 -12 9.5 -21.5t21.5 -9.5 t21 9.5t9 21.5v1245h447q12 0 21 9.5t9 21.5t-9 21.5t-21 9.5h-955q-12 0 -21 -9.5t-9 -21.5z" />
<glyph unicode="U" horiz-adv-x="1404" d="M143 485v895q0 43 31 73t74 30t72.5 -30t29.5 -73v-899q0 -161 90.5 -232t257.5 -71q164 0 260.5 71.5t96.5 231.5v899q0 43 30.5 73t73.5 30t73 -30t30 -73v-895q0 -109 -31.5 -197t-84.5 -146.5t-126.5 -97.5t-153.5 -56t-168 -17q-264 0 -409.5 135t-145.5 379z M215 485q0 -221 127 -330.5t354 -109.5q106 0 193.5 25.5t154.5 77t104.5 137.5t37.5 200v895q0 12 -9.5 21.5t-21.5 9.5t-21.5 -9.5t-9.5 -21.5v-897q0 -193 -116 -285t-312 -92q-200 0 -310 91.5t-110 285.5v897q0 12 -9 21.5t-21 9.5q-13 0 -22 -9.5t-9 -21.5v-895z" />
<glyph unicode="V" horiz-adv-x="1335" d="M61 1380q0 48 33.5 75.5t65.5 27.5q35 0 62.5 -18.5t37.5 -51.5l406 -1126h2l405 1128q12 31 39 49.5t59 18.5q41 0 72 -30t31 -77q0 -18 -6 -33l-463 -1275q-10 -31 -37 -49.5t-59 -18.5h-88q-33 0 -60 18.5t-37 49.5l-456 1275q-7 21 -7 37zM133 1378q0 -4 4 -12 l455 -1272q3 -9 11.5 -15.5t17.5 -6.5h88q21 0 28 22l461 1272q0 1 1 4.5t1 5.5q0 13 -9.5 23t-21.5 10q-21 0 -28 -20l-451 -1246h-51l-444 1246q-10 20 -31 20q-10 0 -20.5 -7.5t-10.5 -23.5z" />
<glyph unicode="W" horiz-adv-x="1837" d="M61 1382q0 43 31.5 72t69.5 29q36 0 64.5 -21.5t37.5 -56.5l279 -1051h2l274 1035q9 33 37 54t64 21q34 0 61.5 -21t36.5 -54l272 -1024h2l281 1042q9 33 37.5 54.5t62.5 21.5q38 0 70.5 -28t32.5 -75q0 -8 -4 -28l-347 -1276q-9 -34 -36 -55t-62 -21h-74q-35 0 -63 21 t-37 55l-235 885l-236 -885q-9 -34 -37 -55t-63 -21h-78q-35 0 -63.5 21t-37.5 55l-337 1278q-5 25 -5 28zM135 1378q0 -8 4 -20l336 -1262q1 -10 10 -16t19 -6h80q25 0 28 22l306 1145l305 -1145q6 -22 30 -22h74q23 0 29 22l344 1268q2 8 2 14q0 15 -9.5 23t-19.5 8 q-24 0 -31 -23l-333 -1232h-37l-324 1214q-7 23 -28 23q-24 0 -31 -23l-324 -1214h-43l-325 1232q-7 23 -31 23q-12 0 -21.5 -9t-9.5 -22z" />
<glyph unicode="X" horiz-adv-x="1314" d="M82 86q0 34 18 61l435 596l-410 576q-21 31 -21 63q0 42 32 71.5t71 29.5q55 0 86 -45l369 -516l364 516q31 45 84 45q43 0 73.5 -31.5t30.5 -73.5q0 -32 -18 -59l-408 -576l426 -598q19 -28 19 -57q0 -48 -32 -76t-71 -28q-53 0 -83 43l-385 538l-394 -540 q-30 -41 -84 -41q-42 0 -72 28t-30 74zM154 86q0 -11 7 -20t23 -9q15 0 25 13l453 620l442 -620q12 -15 24 -15q10 0 20.5 10t10.5 23q0 7 -6 16l-455 639l437 619q6 9 6 16q0 11 -7.5 21t-23.5 10t-25 -12l-423 -600l-429 600q-8 14 -26 14q-13 0 -22 -10t-9 -21 q0 -9 6 -18l441 -619l-465 -639q-4 -8 -4 -18z" />
<glyph unicode="Y" horiz-adv-x="1275" d="M41 1380q0 44 32 73.5t72 29.5q50 0 82 -43l412 -570l410 570q32 43 84 43q40 0 71 -28.5t31 -72.5q0 -40 -18 -63l-476 -660v-573q0 -43 -30.5 -72.5t-73.5 -29.5q-42 0 -72 30t-30 72v573l-474 660q-20 26 -20 61zM113 1380q0 -12 6 -18l487 -678v-598q0 -12 9 -21.5 t22 -9.5q12 0 21.5 9.5t9.5 21.5v598l487 678q6 9 6 18q0 12 -9.5 20.5t-21.5 8.5q-15 0 -24 -12l-469 -649l-469 649q-7 12 -25 12q-13 0 -21.5 -8.5t-8.5 -20.5z" />
<glyph unicode="Z" horiz-adv-x="1333" d="M102 102v74q0 36 23 66l807 1015h-676q-42 0 -72 30.5t-30 72.5q0 43 29.5 73.5t72.5 30.5h842q43 0 73.5 -30.5t30.5 -73.5v-60q0 -35 -22 -63l-820 -1032h768q43 0 73 -30t30 -73t-30 -72.5t-73 -29.5h-921q-43 0 -74 30t-31 72zM176 102q0 -12 9.5 -20t21.5 -8h921 q13 0 22 8t9 20q0 14 -8.5 22.5t-22.5 8.5h-888v35l884 1114q6 9 6 18v60q0 13 -9 23t-21 10h-842q-12 0 -21.5 -10t-9.5 -23q0 -12 9.5 -20.5t21.5 -8.5h809v-22l-883 -1112q-8 -8 -8 -19v-76z" />
<glyph unicode="[" horiz-adv-x="700" d="M184 -207v1567q0 43 31 73.5t74 30.5h184q43 0 74 -30.5t31 -73.5q0 -41 -31 -72t-74 -31h-82v-1359h82q43 0 74 -31t31 -74q0 -42 -31 -72t-74 -30h-184q-43 0 -74 30t-31 72zM258 -209q0 -12 9 -21.5t22 -9.5h184q13 0 22 9.5t9 21.5q0 13 -9 22t-22 9h-154v1507h154 q13 0 22 8.5t9 22.5q0 12 -9 21.5t-22 9.5h-184q-13 0 -22 -9.5t-9 -21.5v-1569z" />
<glyph unicode="\" horiz-adv-x="886" d="M55 1460q0 42 29.5 73.5t75.5 31.5q31 0 57.5 -18t38.5 -50l543 -1460q6 -18 6 -35q0 -48 -31 -77t-72 -29q-32 0 -59 18t-39 49l-543 1462q-6 18 -6 35zM127 1460q0 -2 1 -5t1 -5l543 -1462q10 -19 28 -19q13 0 22 8.5t9 22.5v10l-543 1463q-9 18 -30 18 q-10 0 -20.5 -8.5t-10.5 -22.5z" />
<glyph unicode="]" horiz-adv-x="700" d="M123 -207q0 43 30.5 74t73.5 31h82v1359h-82q-43 0 -73.5 30.5t-30.5 72.5q0 43 30.5 73.5t73.5 30.5h185q43 0 73.5 -30.5t30.5 -73.5v-1567q0 -43 -30.5 -72.5t-73.5 -29.5h-185q-43 0 -73.5 29.5t-30.5 72.5zM197 -209q0 -12 8.5 -21.5t21.5 -9.5h185q13 0 22.5 9.5 t9.5 21.5v1569q0 12 -9.5 21.5t-22.5 9.5h-185q-13 0 -21.5 -9.5t-8.5 -21.5q0 -14 8.5 -22.5t21.5 -8.5h156v-1507h-156q-13 0 -21.5 -8.5t-8.5 -22.5z" />
<glyph unicode="^" horiz-adv-x="1042" d="M82 705q0 26 12 47l344 684q28 55 92 55q31 0 56 -15.5t39 -41.5l325 -674q11 -19 11 -45q0 -42 -28.5 -73.5t-72.5 -31.5q-30 0 -56.5 16.5t-39.5 43.5l-236 485l-249 -496q-13 -27 -38.5 -42t-54.5 -15q-39 0 -71.5 29.5t-32.5 73.5zM156 707q0 -14 10 -22.5t20 -8.5 q21 0 27 16l317 629l299 -619q6 -18 27 -18q11 0 22 9t11 22q0 6 -4 14l-326 674q-10 16 -29 16q-20 0 -26 -16l-346 -682q-2 -6 -2 -14z" />
<glyph unicode="_" horiz-adv-x="860" d="M-102 -209q0 43 30 74t72 31h860q43 0 73 -31t30 -74t-30 -72.5t-73 -29.5h-860q-43 0 -72.5 29.5t-29.5 72.5zM-31 -209q0 -12 9 -21.5t22 -9.5h860q12 0 21.5 9.5t9.5 21.5q0 13 -9.5 22t-21.5 9h-860q-14 0 -22.5 -9t-8.5 -22z" />
<glyph unicode="`" horiz-adv-x="729" d="M205 1741q0 44 32.5 74t71.5 30q62 0 90 -55l113 -207q12 -21 12 -45q0 -45 -31.5 -75.5t-70.5 -30.5q-28 0 -53.5 14.5t-38.5 38.5l-113 207q-12 24 -12 49zM276 1741q0 -8 5 -15l112 -204q10 -17 27 -17q10 0 20.5 8t10.5 23q0 9 -5 14l-112 205q-6 17 -27 17 q-11 0 -21 -7.5t-10 -23.5z" />
<glyph unicode="a" horiz-adv-x="1155" d="M96 307q0 152 92 240q111 105 367 131q153 17 240 53l-2 41q0 69 -48 100q-45 35 -155 35q-156 0 -213 -78q-11 -14 -18.5 -29.5t-8.5 -24.5l-2 -9q-3 -41 -32.5 -68.5t-69.5 -27.5t-74 29q-32 27 -31 73v8q14 98 70 174q119 160 379 160q220 0 330 -119q79 -89 79 -225 v-545q0 -25 5 -35h3q43 0 73 -29q32 -30 32 -73t-30.5 -73.5t-71.5 -30.5q-102 0 -160 67q-12 14 -27 37q-144 -117 -344 -117q-176 0 -279.5 92t-103.5 244zM172 307q0 -51 17.5 -96.5t53 -84t97.5 -61t143 -22.5q207 0 346 147q22 25 39 52l4 -43q0 -64 35 -101 q37 -43 105 -43q12 0 21 9.5t9 21.5t-9.5 21.5t-22.5 9.5q-80 0 -80 102v553q0 104 -62 174q-90 96 -274 96q-219 0 -322 -131q-22 -29 -35.5 -63t-16.5 -50t-3 -22q-1 -14 8 -23.5t21 -11.5q13 0 23 9t10 22q4 51 43 102q80 107 272 107q157 0 225 -74q49 -51 49 -135v-74 q-39 -64 -303 -92q-234 -24 -323 -110q-70 -65 -70 -189zM233 309q0 97 54 146q74 68 297 92q195 20 284 74v-265q-27 -64 -84 -125q-124 -127 -301 -127q-127 0 -196 66q-54 54 -54 139zM303 309q0 -55 33 -88q43 -43 143 -43q145 0 246 101q42 42 68 94v139 q-91 -26 -215 -39q-192 -20 -248 -76q-27 -24 -27 -88z" />
<glyph unicode="b" horiz-adv-x="1165" d="M143 86v1292q0 43 31 74t72 31q43 0 73.5 -31t30.5 -74v-350q114 88 268 88q105 0 195 -42.5t152 -123.5q118 -151 118 -405q0 -250 -122 -406q-130 -168 -351 -168q-158 0 -264 84q-11 -32 -38 -51.5t-62 -19.5q-42 0 -72.5 30t-30.5 72zM215 86q0 -12 9.5 -21.5 t21.5 -9.5q13 0 21.5 9.5t8.5 21.5v174q37 -78 95 -129q95 -86 241 -86q182 0 293 139q107 135 107 361q0 231 -105 360q-106 139 -289 139q-148 0 -251 -100q-57 -57 -91 -129v563q0 13 -8.5 23t-21.5 10q-12 0 -21.5 -10.5t-9.5 -22.5v-1292zM279 545q0 152 71 284 q92 154 268 154q156 0 242 -115q90 -116 90 -323q0 -202 -94 -322q-88 -117 -244 -117q-88 0 -150.5 33.5t-113.5 108.5l-7 13q-7 13 -17 37.5t-20.5 58t-17.5 83.5t-7 105zM350 545q0 -35 3 -66.5t8 -56.5t10 -44.5t12 -36t11.5 -26t10 -18.5t5.5 -10q38 -59 84 -84 t116 -25q116 0 189 88q78 101 78 279q0 180 -76 278q-65 86 -183 86q-135 0 -206 -118q-62 -103 -62 -246z" />
<glyph unicode="c" horiz-adv-x="1126" d="M82 543q0 256 140.5 414.5t367.5 158.5q169 0 286.5 -85t157.5 -236q4 -16 4 -25q0 -42 -31 -73t-73 -31q-34 0 -62.5 21t-37.5 56q-43 166 -244 166q-141 0 -221 -97t-80 -269q0 -170 80 -267.5t219 -97.5q217 0 252 201q6 41 42 65q29 20 62 20q8 0 17 -1 q38 -7 60.5 -36t22.5 -69q0 -43 -28 -113t-72 -124q-130 -150 -356 -150t-366 158t-140 414zM154 543q0 -222 115.5 -360t318.5 -138q194 0 295 117q40 48 62 103t26 95q0 24 -27 31q-12 0 -22 -7t-11 -19q-24 -129 -108 -195t-215 -66q-177 0 -275 121t-98 318 q0 195 99 316.5t274 121.5q125 0 206 -56t109 -163q1 -10 9.5 -16.5t19.5 -6.5q12 0 22 8.5t11 20.5l-2 8q-34 133 -133 199.5t-242 66.5h-3q-202 0 -316 -138q-115 -140 -115 -361z" />
<glyph unicode="d" horiz-adv-x="1165" d="M82 543q0 251 117 405q63 82 152 125t194 43q156 0 270 -88v350q0 43 31 74t74 31q41 0 71.5 -31t30.5 -74v-1292q0 -42 -30 -72t-72 -30q-35 0 -63 19.5t-38 51.5q-106 -84 -266 -84q-218 0 -350 166q-121 154 -121 406zM154 545q0 -228 106 -361q109 -139 293 -139 q146 0 242 84q59 55 92 131v-174q0 -12 10 -21.5t23 -9.5q12 0 20 9.5t8 21.5v1292q0 12 -8 21.5t-20 9.5q-13 0 -23 -9.5t-10 -21.5v-563q-29 66 -88 129q-103 100 -254 100q-181 0 -287 -139q-104 -128 -104 -360zM215 545q0 207 90 323q86 115 240 115q178 0 270 -154 l1 -2q67 -112 71 -265v-17q0 -55 -7 -105t-17.5 -83.5t-21 -58t-17.5 -37.5l-7 -13q-51 -75 -113.5 -108.5t-150.5 -33.5q-155 0 -244 117q-94 120 -94 322zM289 543q0 -181 78 -277q67 -88 186 -88q71 0 118 25t85 84q0 1 5.5 10t10 18.5t11 25.5t12 36t10.5 44.5t7.5 56 t2.5 65.5q0 31 -3 60.5t-8.5 53.5t-11.5 43.5t-13 36t-12 26.5t-10 19l-5 9q-69 118 -207 118q-115 0 -183 -86q-73 -98 -73 -280z" />
<glyph unicode="e" horiz-adv-x="1150" d="M82 551q0 122 43 235t123 193q64 64 151.5 100.5t188.5 36.5q200 0 325 -125q147 -150 156 -430q0 -44 -29 -76q-30 -30 -73 -30h-672q19 -132 97.5 -204.5t205.5 -72.5q37 0 70.5 7.5t69 25t64 53.5t44.5 86q10 33 38 52.5t62 19.5q42 0 72.5 -29t30.5 -71q0 -12 -7 -33 q-46 -149 -163.5 -233.5t-280.5 -84.5q-235 0 -375.5 154.5t-140.5 425.5zM154 549q0 -233 117.5 -369.5t326.5 -136.5q140 0 238 71t137 193q2 6 2 12q0 13 -8.5 22t-22.5 9q-23 0 -29 -22q-35 -109 -117.5 -166.5t-199.5 -57.5q-181 0 -279.5 115.5t-103.5 306.5h752 q13 0 20 11q8 8 8 22q-6 240 -123 369q-105 114 -284 114q-95 0 -170 -34t-121 -80q-143 -146 -143 -379zM217 588q10 178 114.5 286.5t254.5 108.5q162 0 248.5 -104t97.5 -291h-715zM301 662h551q-24 127 -86.5 187t-177.5 60q-108 0 -184.5 -66t-102.5 -181z" />
<glyph unicode="f" horiz-adv-x="591" d="M20 985q0 42 31 72t74 30h37v119q0 137 78 209q77 68 217 68h32q43 -2 73 -33q28 -30 28 -71q0 -44 -33 -75q-30 -28 -71 -28h-3q-18 1 -33 1q-56 0 -71 -15q-10 -7 -10 -56v-119h120q42 0 72.5 -30t30.5 -72q0 -43 -31 -73.5t-72 -30.5h-120v-793q0 -43 -31 -73.5 t-74 -30.5t-72.5 30.5t-29.5 73.5v793h-37q-43 0 -74 30.5t-31 73.5zM92 983q0 -13 9.5 -22t21.5 -9h110v-866q0 -12 9 -21.5t22 -9.5q12 0 21.5 9.5t9.5 21.5v866h192q12 0 21.5 9t9.5 22q0 12 -9.5 21.5t-21.5 9.5h-192v192q0 74 34 107t115 33q12 2 39 2q13 -1 22 7 t11 21q0 13 -8.5 22t-22.5 11h-30q-114 0 -166 -49q-56 -47 -56 -154v-192h-110q-12 0 -21.5 -9.5t-9.5 -21.5z" />
<glyph unicode="g" horiz-adv-x="1161" d="M82 563q0 137 42 245.5t111.5 174t153 99.5t172.5 34q147 0 256 -80q12 25 14 27q29 41 82 41q43 0 74 -30t31 -73v-897q0 -186 -107 -305q-134 -137 -372 -137q-170 0 -285.5 67t-155.5 187q-4 14 -4 33q0 40 29.5 71t73.5 31q33 0 61 -20.5t37 -53.5q15 -51 80.5 -79.5 t163.5 -28.5q119 0 183 40t81 122q6 27 6 59q-103 -74 -248 -74q-215 0 -347 151t-132 396zM154 561q0 -205 109 -339t298 -134q226 0 322 219v-213q-1 -146 -90 -222.5t-254 -76.5q-123 0 -206 42.5t-106 117.5q-6 20 -30 20q-11 0 -21 -8t-10 -22q0 -4 2 -6 q29 -97 127.5 -151t243.5 -54q202 0 307 102q100 95 100 268l-2 895q0 12 -9 21.5t-22 9.5q-21 0 -28 -22v-187q-52 112 -130.5 166.5t-193.5 54.5q-178 0 -292.5 -130t-114.5 -351zM215 563q0 190 96 304t250 114q166 0 250 -137q72 -119 72 -277q0 -88 -22 -163t-50 -117 q-45 -70 -105 -103.5t-145 -33.5q-162 0 -254 114.5t-92 298.5zM289 563q0 -160 72 -250t200 -90q68 0 109.5 23.5t74.5 72.5q31 44 48.5 112.5t17.5 133.5q0 113 -43 207q-32 68 -81.5 102.5t-125.5 34.5q-50 0 -96 -19t-86.5 -57.5t-65 -108t-24.5 -161.5z" />
<glyph unicode="h" horiz-adv-x="1101" d="M143 86v1292q0 43 31 74t72 31q43 0 73.5 -31t30.5 -74v-336q108 74 256 74q180 0 277 -106q98 -102 98 -262v-660q0 -43 -30.5 -73.5t-73.5 -30.5t-73 30.5t-30 73.5v666q0 9 -1.5 23t-12.5 43t-29 48q-41 41 -125 41q-130 0 -200 -98q-47 -63 -56 -133v-592 q0 -43 -30.5 -72.5t-73.5 -29.5q-42 0 -72.5 30t-30.5 72zM217 86q0 -12 9.5 -21.5t21.5 -9.5t21.5 9.5t9.5 21.5v594q0 40 21 91.5t46 84.5q91 127 260 127q118 0 178 -63q62 -64 62 -168v-664q0 -12 9.5 -21.5t21.5 -9.5q13 0 21.5 9.5t8.5 21.5v662q0 131 -78 213 q-78 81 -223 81q-219 0 -327 -190v524q0 12 -9.5 21.5t-21.5 9.5t-21.5 -9.5t-9.5 -21.5v-1292z" />
<glyph unicode="i" d="M143 86v915q0 43 31 73t74 30q42 0 72 -30t30 -73v-915q0 -41 -30.5 -71.5t-71.5 -30.5q-43 0 -74 30.5t-31 71.5zM143 1270v92q0 42 31 72t74 30q42 0 72 -30t30 -72v-92q0 -41 -30.5 -72t-71.5 -31q-43 0 -74 31t-31 72zM217 86q0 -12 9 -21.5t22 -9.5q12 0 21.5 9.5 t9.5 21.5v915q0 11 -9.5 21t-21.5 10q-13 0 -22 -10t-9 -21v-915zM217 1266q0 -11 9 -21t22 -10q12 0 21.5 10t9.5 21v96q0 12 -9.5 21.5t-21.5 9.5q-13 0 -22 -9.5t-9 -21.5v-96z" />
<glyph unicode="j" horiz-adv-x="491" d="M-20 -211q0 43 29 74.5t71 32.5q29 0 48 2t24 4l4 2q6 10 6 53v1044q0 43 30.5 73t73.5 30q42 0 72.5 -30.5t30.5 -72.5v-1044q0 -268 -273 -268h-14q-41 0 -71.5 29.5t-30.5 70.5zM51 -211q0 -12 9.5 -20.5t21.5 -8.5h14q106 0 153.5 46.5t47.5 150.5v1042q0 12 -9 21.5 t-22 9.5q-12 0 -21 -9.5t-9 -21.5v-1042q0 -81 -29 -107q-15 -16 -41.5 -22t-81.5 -6q-14 0 -23.5 -10t-9.5 -23zM162 1270v92q0 43 30.5 72.5t73.5 29.5q42 0 72.5 -30t30.5 -72v-92q0 -41 -31 -72t-72 -31q-42 0 -73 30.5t-31 72.5zM236 1266q0 -11 8.5 -21t21.5 -10 q12 0 21.5 10t9.5 21v96q0 12 -9.5 21.5t-21.5 9.5q-13 0 -21.5 -9.5t-8.5 -21.5v-96z" />
<glyph unicode="k" horiz-adv-x="1097" d="M143 86v1292q0 43 31 74t74 31q41 0 71.5 -31t30.5 -74v-727l471 436q32 29 72 29q44 0 73 -30.5t29 -73.5q0 -48 -32 -76l-287 -264l362 -527q19 -28 19 -59q0 -48 -33 -76t-72 -28q-56 0 -86 47l-342 499l-174 -159v-283q0 -43 -30.5 -73.5t-71.5 -30.5q-43 0 -74 30.5 t-31 73.5zM215 88q0 -13 9.5 -22t21.5 -9t21 9t9 22v313l259 238l391 -569q10 -13 26 -13q11 0 21 7t10 24q0 7 -6 16l-397 578l331 309q11 5 11 23q0 10 -7 20t-24 10q-9 0 -21 -8l-594 -551v893q0 13 -9 22t-21 9t-21.5 -9t-9.5 -22v-1290z" />
<glyph unicode="l" horiz-adv-x="493" d="M143 86v1292q0 43 31 74t72 31q43 0 73.5 -31t30.5 -74v-1292q0 -43 -30.5 -72.5t-73.5 -29.5q-42 0 -72.5 30t-30.5 72zM215 86q0 -12 9.5 -21.5t21.5 -9.5q13 0 23 9.5t10 21.5v1292q0 12 -10 22.5t-23 10.5q-12 0 -21.5 -10.5t-9.5 -22.5v-1292z" />
<glyph unicode="m" horiz-adv-x="1624" d="M143 86v915q0 43 31 73t74 30q59 0 90 -53q106 65 229 65q176 0 277 -123q117 123 297 123q160 0 258 -98q34 -36 56.5 -80.5t30.5 -86t10.5 -63.5t2.5 -40v-660q0 -43 -30.5 -73.5t-73.5 -30.5q-41 0 -72 31t-31 73v664q0 26 -10 62t-33 60q-35 35 -108 35 q-115 0 -170 -90q-24 -37 -34.5 -77.5t-10.5 -61.5v-592q0 -43 -31 -73.5t-74 -30.5t-72.5 30.5t-29.5 73.5v664q0 26 -10.5 62t-34.5 60q-32 35 -107 35q-114 0 -172 -90q-24 -37 -34.5 -77.5t-10.5 -61.5v-594q0 -41 -30.5 -71.5t-71.5 -30.5q-43 0 -74 30.5t-31 71.5z M215 86q0 -12 10 -21.5t23 -9.5q12 0 20 9.5t8 21.5v594q6 93 58 178q80 123 231 123q105 0 162 -57q28 -29 44 -74.5t18 -66t2 -33.5v-664q0 -12 9 -21.5t21 -9.5t21.5 9.5t9.5 21.5v594q0 31 13.5 81t43.5 97q77 123 232 123q105 0 159 -57q64 -64 64 -174v-664 q0 -12 9.5 -21.5t21.5 -9.5q13 0 21.5 9.5t8.5 21.5v664q1 5 1 14q0 11 -2 28q-2 31 -21.5 84t-56.5 91q-72 75 -205 75q-212 0 -305 -196q-26 91 -95 144.5t-176 53.5q-191 0 -289 -176v133q0 11 -8.5 21t-19.5 10q-13 0 -23 -10t-10 -21v-915z" />
<glyph unicode="n" horiz-adv-x="1103" d="M143 86v915q0 43 31 73t74 30q32 0 58.5 -19t37.5 -47q108 78 262 78q180 0 277 -106q98 -102 98 -262v-660q0 -43 -30.5 -73.5t-73.5 -30.5t-73 30.5t-30 73.5v666q0 9 -1.5 23t-12.5 43t-29 48q-41 41 -125 41q-130 0 -200 -98q-47 -63 -56 -133v-592 q0 -41 -30.5 -71.5t-71.5 -30.5q-43 0 -74 30.5t-31 71.5zM217 88q0 -11 9.5 -21t21.5 -10t21.5 10t9.5 21v590q0 41 21 93t46 85q91 127 260 127q118 0 178 -63q62 -64 62 -168v-664q0 -12 9.5 -21.5t21.5 -9.5q13 0 21.5 9.5t8.5 21.5v662q0 131 -78 213q-78 81 -223 81 q-123 0 -203 -54.5t-124 -135.5v150q0 12 -9.5 21t-21.5 9t-21.5 -9t-9.5 -21v-916z" />
<glyph unicode="o" horiz-adv-x="1189" d="M82 543q0 253 144 413t370 160t369 -160t143 -413q0 -252 -143 -412t-369 -160t-370 160t-144 412zM156 543q0 -222 123 -360t317 -138t317 138t123 360q0 223 -123 362t-317 139t-317 -139t-123 -362zM217 543q0 196 103.5 318t275.5 122t275.5 -122t103.5 -318 q0 -195 -103.5 -316t-275.5 -121t-275.5 121t-103.5 316zM289 543q0 -166 84 -265.5t223 -99.5t222 99.5t83 265.5q0 167 -83 266.5t-222 99.5q-140 0 -223.5 -99.5t-83.5 -266.5z" />
<glyph unicode="p" horiz-adv-x="1167" d="M143 -209v1210q0 43 31 73t74 30q35 0 63 -22t37 -56q113 90 273 90q105 0 194 -42.5t152 -123.5q116 -153 116 -405q0 -253 -120 -406q-133 -168 -351 -168q-153 0 -262 80v-260q0 -41 -30.5 -71.5t-71.5 -30.5q-43 0 -74 30.5t-31 71.5zM215 -209q0 -12 9.5 -21.5 t21.5 -9.5t21 9.5t9 21.5v469q34 -74 86 -123q98 -94 250 -94q182 0 293 139q107 135 107 361q0 230 -105 362q-107 137 -286 137q-163 0 -265 -108q-45 -48 -80 -123v188q0 12 -9 21.5t-21 9.5t-21.5 -9.5t-9.5 -21.5v-1208zM279 543q0 152 71 284q92 154 268 154 q156 0 242 -115q90 -116 90 -323q0 -202 -94 -322q-88 -117 -244 -117q-88 0 -150.5 33.5t-113.5 108.5l-7 13q-7 13 -17 37.5t-20.5 58t-17.5 83.5t-7 105zM350 545q0 -35 3 -66.5t8 -56.5t10 -44.5t12 -36t11.5 -26t10 -18.5t5.5 -10q38 -59 84 -84t116 -25q116 0 189 88 q78 101 78 279q0 180 -76 278q-65 86 -183 86q-135 0 -206 -118q-62 -103 -62 -246z" />
<glyph unicode="q" horiz-adv-x="1167" d="M84 545q0 252 119 405q63 81 152 123.5t194 42.5q157 0 270 -90q9 34 37.5 56t63.5 22q43 0 73.5 -30t30.5 -73v-1210q0 -41 -30.5 -71.5t-73.5 -30.5q-41 0 -72 30.5t-31 71.5v260q-109 -80 -260 -80q-220 0 -350 168q-123 157 -123 406zM156 543q0 -228 106 -361 q111 -139 293 -139q156 0 250 94q52 49 86 123v-469q0 -12 9.5 -21.5t21.5 -9.5t21 9.5t9 21.5v1208q0 12 -9 21.5t-21 9.5t-21.5 -9.5t-9.5 -21.5v-188q-30 69 -80 123q-102 108 -262 108q-182 0 -289 -137q-104 -131 -104 -362zM217 543q0 207 90 323q86 115 240 115 q178 0 270 -154l1 -2q67 -112 71 -265v-17q0 -55 -7 -105t-17.5 -83.5t-21 -58t-17.5 -37.5l-7 -13q-51 -75 -113.5 -108.5t-150.5 -33.5q-155 0 -244 117q-94 120 -94 322zM291 543q0 -181 78 -277q67 -88 186 -88q71 0 118 25t85 84q0 1 5.5 10t10 18.5t11 25.5t12 36 t10.5 44.5t7.5 56t2.5 65.5q0 31 -3 60.5t-8.5 53.5t-11.5 43.5t-13 36t-12 26.5t-10 19l-5 9q-69 118 -207 118q-114 0 -182 -86q-74 -100 -74 -280z" />
<glyph unicode="r" horiz-adv-x="729" d="M143 86v915q0 43 31 73t74 30q32 0 58 -18t38 -48q15 12 37 23q98 55 225 55q43 0 73 -30.5t30 -73.5q0 -42 -30.5 -72.5t-72.5 -30.5q-130 0 -203 -98q-27 -36 -40 -76t-13 -59v-590q0 -41 -30.5 -71.5t-71.5 -30.5q-43 0 -74 30.5t-31 71.5zM215 86q0 -12 9.5 -21.5 t21.5 -9.5t21 9.5t9 21.5v590q0 29 17.5 80t50.5 98q90 127 260 127q12 0 21.5 9.5t9.5 21.5t-9.5 21t-21.5 9q-182 0 -293 -137q-19 -22 -35 -53v149q0 11 -9 21t-21 10t-21.5 -10t-9.5 -21v-915z" />
<glyph unicode="s" horiz-adv-x="1054" d="M80 332q0 42 31 73t75 31q37 0 66 -25.5t35 -66.5q24 -166 258 -166q20 0 39.5 2t46.5 7t49.5 15.5t42.5 26t31.5 40.5t11.5 57q0 26 -2.5 37.5t-11.5 25.5t-34.5 23t-65 19.5t-109.5 25.5l-54 12h-1h-1l-1 1h-1q-159 37 -225 71q-142 73 -147 232v13q0 148 111 239 t292 91q87 0 157 -20.5t113.5 -51t75.5 -73t46.5 -77.5t23.5 -73q4 -16 4 -22q0 -42 -29.5 -73.5t-72.5 -31.5q-37 0 -66.5 22.5t-36.5 57.5q-15 63 -60 99t-155 36q-25 0 -51 -3.5t-63 -14.5t-60 -38t-23 -67q0 -30 11 -44.5t56.5 -31t150.5 -40.5l51 -11q159 -35 222 -64 q132 -61 157 -194q6 -35 6 -75q0 -158 -118 -256.5t-310 -98.5q-227 0 -365 135q-47 47 -73.5 117t-26.5 109zM244 145q108 -102 301 -102q155 0 254.5 74.5t99.5 208.5q0 56 -16 97t-41 65.5t-67.5 43t-84.5 29.5t-103 24q-11 2 -16 3l-51 12q-146 33 -190 54 q-75 36 -83 111q-1 10 -1 21q0 65 39.5 111t98.5 66t132 20q240 0 285 -192q3 -12 13.5 -19t21.5 -4q11 0 18.5 8.5t7.5 20.5q0 6 -2 12q-29 115 -117.5 174t-226.5 59q-143 0 -236.5 -67.5t-93.5 -188.5q0 -26 3.5 -48.5t13.5 -41t18.5 -33.5t27 -28t30.5 -22.5t38.5 -19.5 t41 -15t47.5 -13.5t48 -12t52 -11.5l51 -13q76 -16 114.5 -26.5t77.5 -26t55 -34t26 -46.5t10 -69q0 -108 -84 -165t-211 -57q-143 0 -228 60t-102 172q-1 12 -11 19t-22 7q-14 -2 -22 -12q-7 -8 -6 -17q0 -101 90 -188z" />
<glyph unicode="t" horiz-adv-x="681" d="M41 985q0 43 30.5 72.5t73.5 29.5h41v193q0 43 31 73.5t74 30.5t72.5 -30.5t29.5 -73.5v-193h125q43 0 73 -29.5t30 -72.5t-30 -73.5t-73 -30.5h-125v-666q0 -9 1 -16t2 -11l1 -4q19 -6 47 -6t45 6q12 3 24 3q29 -1 55 -17q36 -22 46 -64q3 -13 3 -25q0 -27 -15 -52 q-22 -36 -63 -47q-43 -11 -97 -11q-119 0 -184 62q-72 66 -72 182v666h-41q-43 0 -73.5 30.5t-30.5 73.5zM113 983q0 -12 9 -21.5t21 -9.5h115v-737q0 -86 49 -129q46 -43 133 -43q38 0 80 10q12 3 19 14t4 23t-14 19t-23 4q-37 -7 -60 -7h-10q-61 0 -87.5 26t-26.5 83v739 h196q12 0 21.5 9t9.5 22q0 12 -9.5 21.5t-21.5 9.5h-199v264q0 12 -8.5 21.5t-21.5 9.5q-12 0 -21.5 -9.5t-9.5 -21.5v-266h-115q-12 0 -21 -9t-9 -22z" />
<glyph unicode="u" horiz-adv-x="1093" d="M125 354v647q0 43 30.5 73t71.5 30q43 0 74 -30t31 -73v-657q0 -47 24 -92q41 -74 152 -74q122 0 186 101q23 38 35 80.5t12 62.5v579q0 43 31 73t74 30q42 0 72 -30t30 -73v-915q0 -41 -30.5 -71.5t-71.5 -30.5q-31 0 -56.5 16.5t-37.5 42.5q-109 -72 -248 -72 q-174 0 -276.5 110.5t-102.5 272.5zM197 352q0 -59 18.5 -113t55 -98.5t97 -71t138.5 -26.5q207 0 307 188v-145q0 -11 9.5 -21t21.5 -10t21 10t9 21v915q0 12 -9 21.5t-21 9.5t-21.5 -9.5t-9.5 -21.5v-581q0 -28 -13 -79t-44 -101q-88 -136 -248 -136q-156 0 -217 117 q-33 63 -33 123v655q0 13 -9.5 22t-21.5 9t-21 -9t-9 -22v-647z" />
<glyph unicode="v" horiz-adv-x="1064" d="M63 1001q0 41 30.5 73t74.5 32q33 0 59.5 -19t36.5 -51l264 -745l271 745q12 32 38.5 50t57.5 18q46 0 75 -31t29 -74q0 -17 -6 -32l-323 -897q-11 -31 -38 -50.5t-61 -19.5h-86q-32 0 -58.5 19.5t-37.5 50.5l-319 897q-7 21 -7 34zM137 1001q0 -2 1 -5.5t1 -6.5 l318 -897q7 -20 28 -20h86q21 0 31 20l324 897v10q0 15 -9.5 23t-19.5 8q-23 0 -29 -18l-317 -881h-43l-309 879q-9 22 -31 22q-13 0 -22 -10.5t-9 -20.5z" />
<glyph unicode="w" horiz-adv-x="1527" d="M70 1001q0 41 29.5 72t72.5 31q34 0 62 -20.5t38 -53.5l203 -688l191 672q9 32 36.5 52.5t61.5 20.5q35 0 63 -20.5t37 -54.5l178 -666l218 686q10 33 37.5 53.5t60.5 20.5q44 0 74 -32t30 -73q0 -15 -6 -30l-282 -897q-11 -33 -38.5 -53.5t-60.5 -20.5h-74q-35 0 -63 22 t-37 56l-139 518l-146 -520q-11 -34 -38 -55t-62 -21h-78q-34 0 -61.5 21t-36.5 53l-266 899q-4 10 -4 28zM141 1001q0 -6 2 -8l267 -899q7 -20 28 -20h78q26 0 29 22l219 772l207 -772q6 -22 30 -22h74q22 0 29 20l282 897l3 10q0 11 -9 21t-22 10q-26 0 -29 -22l-276 -875 h-29l-229 858q-8 23 -31 23q-22 0 -29 -23l-241 -860h-33l-260 877q-3 22 -29 22q-10 0 -20.5 -8.5t-10.5 -22.5z" />
<glyph unicode="x" horiz-adv-x="1126" d="M88 88q0 30 21 62l319 428l-281 360q-22 28 -22 63q0 45 31 74t73 29q53 0 82 -39l246 -317l246 317q29 39 80 39q42 0 73 -29t31 -74q0 -35 -22 -63l-277 -358l332 -428q20 -26 20 -64q0 -45 -30 -74.5t-72 -29.5q-54 0 -82 41l-297 383l-285 -381q-30 -43 -81 -43 q-42 0 -73.5 29.5t-31.5 74.5zM160 86q0 -12 8.5 -21.5t21.5 -9.5q18 0 27 15l340 456l356 -458q10 -13 23 -13q11 0 21 9t10 22q0 11 -6 20l-367 474l313 401q6 9 6 18q0 16 -9 23.5t-21 7.5q-15 0 -25 -10l-303 -391l-303 391q-10 10 -25 10q-13 0 -21.5 -8.5t-8.5 -22.5 q0 -10 8 -18l313 -403l-352 -474q-6 -9 -6 -18z" />
<glyph unicode="y" horiz-adv-x="1091" d="M66 999q0 42 28.5 73.5t73.5 31.5q30 0 56 -16.5t38 -45.5l307 -682l254 676q12 32 38.5 50t58.5 18q46 0 75 -31t29 -72q0 -18 -6 -36l-383 -1018q-55 -145 -133 -203q-74 -55 -193 -55q-50 0 -86 8q-36 7 -59 36.5t-23 65.5q0 43 32 73t73 30q13 0 27.5 -3t35.5 -3 q49 0 70 14q27 22 63 110l23 66l-391 872q-8 16 -8 41zM137 1001q0 -4 4 -12l404 -901l-35 -92q-40 -110 -88 -143q-42 -31 -113 -31q-32 0 -59 6q-12 2 -23.5 -7t-11.5 -22q0 -23 25 -30q34 -9 69 -9q91 0 140 35q66 41 120 178l381 1018v10q0 12 -8.5 21.5t-21.5 9.5 q-19 0 -29 -20l-316 -842l-378 844q-7 18 -29 18q-10 0 -20.5 -8t-10.5 -23z" />
<glyph unicode="z" horiz-adv-x="1032" d="M86 104v52q0 35 23 65l532 660h-416q-41 0 -71.5 30.5t-30.5 73.5q0 42 30 72t72 30h602q43 0 74 -30t31 -72v-37q0 -33 -23 -63l-547 -678h482q43 0 73.5 -30t30.5 -73t-30.5 -73.5t-73.5 -30.5h-654q-43 0 -73.5 30.5t-30.5 73.5zM160 102q0 -12 8.5 -21t21.5 -9h654 q13 0 21.5 9t8.5 21q0 14 -8.5 22.5t-21.5 8.5h-619v19l627 778q6 6 6 18v37q0 12 -9 20.5t-22 8.5h-602q-12 0 -21 -9t-9 -22q0 -12 9 -21.5t21 -9.5h563v-6l-622 -772q-6 -6 -6 -18v-54z" />
<glyph unicode="{" horiz-adv-x="780" d="M82 578q0 33 19 59.5t51 36.5q59 23 107 68t48 100q0 33 -22 82q-52 113 -52 202q0 113 70.5 201.5t179.5 130.5q15 6 33 6h39q43 0 72.5 -30.5t29.5 -73.5t-29.5 -73t-72.5 -30h-16q-99 -51 -99 -131q0 -45 31 -112q43 -82 43 -172q0 -64 -25 -123q-35 -86 -120 -156 q137 -137 137 -282q0 -74 -37 -144q-29 -63 -29 -104q0 -47 30.5 -82t68.5 -55h6q43 0 72.5 -30t29.5 -73t-29.5 -73.5t-72.5 -30.5h-29q-15 0 -47 13t-73 38t-81.5 72.5t-62.5 105.5q-21 65 -21 117q0 95 56 198q12 24 12 50q0 46 -51 106q-22 25 -50.5 49.5t-44 35.5 t-20.5 13q-51 28 -51 91zM154 578q0 -19 16 -29q2 0 21 -12.5t51.5 -40.5t58.5 -58q70 -82 70 -159q0 -39 -21 -80q-47 -89 -47 -168q0 -44 16 -90q14 -36 38.5 -67.5t49.5 -51.5t49.5 -34.5t40 -21t19.5 -6.5h29q12 0 21 9t9 22t-9 22t-21 9h-23q-71 33 -113 88t-42 121 q0 68 36 139q31 57 31 111q-1 84 -56 158.5t-132 131.5q133 68 176 174q18 43 18 95q0 74 -34 141q-37 75 -37 141q0 69 42 124t111 83h33q12 0 20.5 9t8.5 22q0 12 -8.5 21.5t-20.5 9.5h-39q-1 0 -4.5 -1t-5.5 -1q-84 -33 -142.5 -102t-58.5 -167q3 -81 45 -166 q29 -62 29 -120q0 -73 -59.5 -134.5t-143.5 -95.5q-19 -6 -22 -26z" />
<glyph unicode="|" horiz-adv-x="575" d="M184 -209v1761q0 43 31 73t74 30q41 0 71.5 -30.5t30.5 -72.5v-1761q0 -42 -30 -72t-72 -30q-43 0 -74 30t-31 72zM258 -209q0 -12 9 -21.5t22 -9.5q12 0 21 9.5t9 21.5v1761q0 12 -9 21.5t-21 9.5q-13 0 -22 -9.5t-9 -21.5v-1761z" />
<glyph unicode="}" horiz-adv-x="780" d="M123 1360q0 43 29.5 73.5t72.5 30.5h39q18 0 33 -6q109 -42 179.5 -130.5t70.5 -201.5q0 -91 -51 -202q-23 -51 -23 -82q0 -55 48.5 -100t107.5 -68q32 -10 50.5 -36.5t18.5 -59.5q0 -63 -51 -91q-5 -2 -20.5 -13t-44 -35.5t-50.5 -49.5q-51 -60 -51 -106q0 -24 13 -50 q55 -101 55 -198q0 -52 -21 -117q-22 -58 -62.5 -105.5t-81.5 -72.5t-73 -38t-47 -13h-28q-43 0 -73 30.5t-30 73.5t30 73t73 30h6q37 20 67.5 55t30.5 82q0 41 -29 104q-37 70 -37 144q0 144 138 282q-87 71 -121 156q-25 59 -25 123q0 90 43 172q31 67 31 112 q0 80 -98 131h-17q-43 0 -72.5 30t-29.5 73zM195 1360q0 -13 9 -22t21 -9h33q69 -29 111.5 -84t42.5 -123q0 -66 -37 -141q-35 -69 -35 -141q0 -58 18 -95q44 -106 177 -174q-78 -57 -133 -131.5t-56 -158.5q0 -51 29 -111q39 -71 39 -139q0 -66 -42.5 -121t-113.5 -88h-22 q-12 0 -21.5 -9t-9.5 -22t9.5 -22t21.5 -9h28q4 0 19.5 6.5t39.5 21t49 34.5t49 51.5t38 67.5q16 46 16 90q0 76 -45 168q-19 37 -22 80q0 76 71 159q25 30 57.5 58t52 40.5t21.5 12.5q15 9 15 29q0 19 -21 26q-84 34 -143.5 95.5t-59.5 134.5q0 58 29 120q43 94 43 166 q0 98 -58 167t-141 102q-4 2 -10 2h-39q-12 0 -21 -9.5t-9 -21.5z" />
<glyph unicode="~" horiz-adv-x="1454" d="M102 641q0 40 27 70q3 4 15.5 16.5t38 35.5t53.5 44q135 102 258 102q55 0 100.5 -8.5t84 -27t59.5 -31.5t55 -37q32 -23 49 -33.5t47.5 -19.5t68.5 -9q34 0 90 32t115 91q39 45 86 45q42 0 72.5 -30t30.5 -74q0 -45 -41 -86q-184 -184 -353 -184q-67 0 -126.5 17.5 t-88 34.5t-71.5 48q-34 24 -52 34.5t-51.5 20.5t-74.5 10q-47 0 -108.5 -43t-102.5 -86q-30 -34 -78 -34q-39 0 -71 30.5t-32 71.5zM174 641q0 -13 10 -22t21 -9q14 0 24 13q151 151 265 151q52 0 95.5 -12.5t64.5 -25t61 -40.5q41 -28 64.5 -42t73 -29t105.5 -15 q138 0 310 172q10 15 10 23q0 12 -10 21.5t-23 9.5q-12 0 -22 -13q-151 -151 -265 -151q-48 0 -88 11.5t-63 25t-57 39.5q-40 28 -66.5 43.5t-78 30t-111.5 14.5q-99 0 -215 -88q-25 -19 -48.5 -39.5t-35.5 -32t-13 -14.5q-8 -12 -8 -21z" />
<glyph unicode="&#xa1;" horiz-adv-x="460" d="M92 958v46q0 47 33.5 79.5t81.5 32.5h45q48 0 81.5 -32.5t33.5 -79.5v-46q0 -47 -33.5 -79.5t-81.5 -32.5h-45q-48 0 -81.5 32.5t-33.5 79.5zM123 -285v961q0 43 29.5 72.5t72.5 29.5t73 -29.5t30 -72.5v-961q0 -43 -30 -73.5t-73 -30.5t-72.5 30.5t-29.5 73.5zM164 958 q0 -17 12 -28.5t31 -11.5h45q19 0 31 11.5t12 28.5v46q0 17 -12 28.5t-31 11.5h-45q-19 0 -31 -11.5t-12 -28.5v-46zM195 -285q0 -12 9 -22t21 -10t21.5 10t9.5 22v961q0 11 -9.5 21t-21.5 10t-21 -10t-9 -21v-961z" />
<glyph unicode="&#xa2;" horiz-adv-x="1206" d="M123 735q0 220 104.5 369.5t282.5 191.5v84q0 43 30.5 73t73.5 30q42 0 72.5 -30.5t30.5 -72.5v-77q135 -20 229 -103t129 -213q4 -16 4 -24q0 -42 -31 -73.5t-73 -31.5q-34 0 -63 21.5t-38 56.5q-43 166 -243 166q-141 0 -221 -97.5t-80 -269.5q0 -170 79.5 -267 t219.5 -97q217 0 252 200q7 41 42 65.5t78 18.5q38 -7 61 -35.5t23 -68.5q0 -44 -28 -114t-72 -124q-100 -118 -268 -143v-84q0 -42 -30.5 -72t-72.5 -30q-43 0 -73.5 29.5t-30.5 72.5v90q-178 40 -282.5 189.5t-104.5 369.5zM195 735q0 -208 103 -344t284 -151v-160 q0 -12 9.5 -21.5t22.5 -9.5q12 0 20.5 9.5t8.5 21.5v158q182 3 281 116q40 48 62 103t26 96q0 24 -27 31q-12 0 -22 -7.5t-11 -19.5q-24 -128 -108 -193t-215 -65q-177 0 -275 119.5t-98 316.5q0 196 99.5 318.5t273.5 122.5q124 0 205.5 -57.5t109.5 -164.5q3 -22 29 -22 q12 0 22 8.5t11 20.5l-2 8q-34 129 -128.5 196t-230.5 70v129q0 12 -9.5 21.5t-21.5 9.5q-13 0 -21.5 -9.5t-8.5 -21.5v-131q-184 -17 -286.5 -154t-102.5 -344z" />
<glyph unicode="&#xa3;" horiz-adv-x="1116" d="M102 102q0 48 35 78q60 60 105 144q67 125 67 260q0 35 -2 51h-100q-43 0 -74 30t-31 72q0 43 31 74t74 31h67q-16 131 -16 211q0 209 92 321q94 117 279 117q161 0 256 -131q29 -40 47 -86.5t18 -71.5q0 -44 -31 -75t-73 -31q-34 0 -61.5 21t-36.5 54q-10 42 -33 72 q-35 41 -86 41q-85 0 -121 -41q-43 -51 -43 -192q0 -96 18 -209h185q43 0 73.5 -31t30.5 -74t-30.5 -72.5t-73.5 -29.5h-152v-51q0 -165 -74 -322q40 4 62 4q71 0 164 -39q62 -20 73 -20q35 0 86 69q30 41 82 41q41 0 73 -31t32 -73q0 -33 -23 -63q-120 -150 -250 -150 q-57 0 -147 35q-66 24 -90 24q-65 0 -140 -18t-120 -35q-18 -6 -37 -6q-48 0 -76.5 30t-28.5 72zM176 102q0 -11 7.5 -20.5t23.5 -9.5q8 0 10 2q1 0 17 5.5t34.5 11t48 13t58 13.5t63.5 10t66 4q40 0 117 -29q73 -30 122 -30q97 0 191 121q6 9 6 20t-9.5 21t-21.5 10 q-11 0 -24 -13q-70 -95 -144 -98q-23 0 -96 25q-94 35 -141 35q-84 0 -209 -33q109 148 137 307q23 110 0 240h236q14 0 22 8.5t8 21.5q0 12 -8.5 21.5t-21.5 9.5h-246q-31 163 -31 301q6 154 62 221q59 68 176 68q91 0 147 -74q31 -42 41 -92q3 -11 14 -17.5t21 -3.5 q10 1 17.5 9.5t7.5 19.5q0 14 -14.5 50.5t-37.5 66.5q-67 102 -196 102q-148 0 -223 -90q-70 -85 -76 -260q0 -129 28 -301h-151q-12 0 -21.5 -9.5t-9.5 -21.5q0 -13 9.5 -21.5t21.5 -8.5h162l4 -27q39 -202 -70 -395q-51 -94 -117 -160q-10 -10 -10 -23z" />
<glyph unicode="&#xa4;" horiz-adv-x="1179" d="M72 248q0 34 24 61l140 140q-76 113 -76 253q0 141 76 254l-140 140q-24 27 -24 61q0 33 26.5 59.5t59.5 26.5q39 0 63 -24l146 -148q96 55 219 55q122 0 225 -57l147 150q27 24 64 24q34 0 60 -26t26 -60q0 -35 -25 -63l-147 -146q72 -109 72 -246q0 -136 -72 -245 l145 -148q27 -24 27 -61q0 -35 -25.5 -61.5t-60.5 -26.5q-33 0 -64 24l-149 154q-97 -57 -223 -57q-118 0 -219 53l-148 -150q-27 -24 -61 -24q-35 0 -60.5 26.5t-25.5 61.5zM131 250q0 -9 7.5 -19t19.5 -10q10 0 18 8l182 183q95 -70 228 -70q139 0 231 74l187 -187 q8 -8 18 -8q9 0 18 8.5t9 20.5t-9 18l-184 187q90 96 90 250q0 150 -90 251l184 183q9 9 9 20q0 10 -8 18.5t-19 8.5q-13 0 -18 -8l-187 -185q-95 76 -231 76q-133 0 -230 -72l-180 181q-5 8 -18 8q-10 0 -18.5 -8t-8.5 -19q0 -12 8 -20l176 -176q-94 -102 -94 -258 q0 -159 94 -256l-176 -181q-8 -5 -8 -18zM274 705q0 136 85.5 222.5t226.5 86.5q137 0 222 -83t85 -226q0 -137 -82.5 -222.5t-224.5 -85.5q-139 0 -225.5 83t-86.5 225zM334 702q0 -116 67 -181.5t185 -65.5q117 0 182.5 67.5t65.5 179.5q0 114 -67.5 182t-180.5 68 q-117 0 -184.5 -66.5t-67.5 -183.5z" />
<glyph unicode="&#xa5;" horiz-adv-x="1275" d="M41 1380q0 44 32 73.5t72 29.5q50 0 82 -43l412 -570l410 570q32 43 84 43q40 0 71 -28.5t31 -72.5q0 -40 -18 -63l-474 -657h263q32 0 53.5 -22.5t21.5 -53.5q0 -33 -21.5 -55.5t-53.5 -22.5h-265v-107h265q32 0 53.5 -22t21.5 -53q0 -33 -21.5 -55.5t-53.5 -22.5h-265 v-162q0 -43 -30.5 -72.5t-73.5 -29.5q-42 0 -72 30t-30 72v162h-263q-32 0 -54.5 23t-22.5 55q0 31 22.5 53t54.5 22h263v107h-263q-32 0 -54.5 23t-22.5 55q0 31 22.5 53.5t54.5 22.5h260l-471 657q-20 26 -20 61zM113 1380q0 -12 6 -18l487 -678v-74h-336q-12 0 -20 -7.5 t-8 -18.5t8 -19t20 -8h336v-205h-336q-12 0 -20 -7.5t-8 -18.5t8 -19t20 -8h336v-213q0 -12 9 -21.5t22 -9.5q12 0 21.5 9.5t9.5 21.5v213h338q10 0 18 8t8 19q0 10 -8 18t-18 8h-338v205h338q10 0 18 8t8 19q0 10 -8 18t-18 8h-338v74l487 678q6 9 6 18q0 12 -9.5 20.5 t-21.5 8.5q-15 0 -24 -12l-469 -649l-469 649q-8 14 -25 14q-13 0 -21.5 -9.5t-8.5 -21.5z" />
<glyph unicode="&#xa6;" horiz-adv-x="575" d="M184 -209v619q0 42 31 72t74 30q42 0 72 -30t30 -72v-619q0 -42 -30 -72t-72 -30q-43 0 -74 30t-31 72zM184 934v618q0 43 31 73t74 30q41 0 71.5 -30.5t30.5 -72.5v-618q0 -42 -30.5 -72.5t-71.5 -30.5q-43 0 -74 30t-31 73zM258 -209q0 -12 9 -21.5t22 -9.5 q12 0 21 9.5t9 21.5v619q0 11 -9 20.5t-21 9.5q-13 0 -22 -9.5t-9 -20.5v-619zM258 934q0 -11 9 -21t22 -10q12 0 21 10t9 21v618q0 12 -9 21.5t-21 9.5q-13 0 -22 -9.5t-9 -21.5v-618z" />
<glyph unicode="&#xa7;" horiz-adv-x="1216" d="M184 588q0 108 40.5 192t101.5 127q-66 81 -66 215q0 164 101 266.5t264 102.5q159 0 264 -102q29 -32 29 -72q0 -43 -30 -74t-73 -31t-74 31q-41 41 -116 41t-116.5 -42t-41.5 -120q0 -67 27 -94q33 -24 143 -51q174 -38 284.5 -140.5t110.5 -244.5q0 -205 -139 -320 q63 -78 63 -215q0 -164 -100.5 -266t-263.5 -102q-159 0 -264 102q-29 32 -29 72q0 43 29.5 73.5t72.5 30.5q44 0 74 -30q44 -41 117 -41q75 0 116.5 41.5t41.5 119.5q0 68 -27 95q-33 24 -143 51q-172 38 -284 141t-112 244zM256 588q0 -67 33 -124t87 -94t108 -60.5 t112 -37.5q131 -30 170 -65q55 -41 55 -150q0 -108 -62 -171t-169 -62q-105 0 -166 61q-9 9 -23 9q-13 0 -21.5 -9.5t-8.5 -21.5q0 -9 8 -21q83 -80 211 -80q133 -1 213 79.5t80 215.5q0 92 -32.5 144.5t-98.5 81.5q97 30 151.5 109.5t54.5 199.5q0 222 -337 313 q-130 33 -172 66q-16 15 -26.5 29t-20 46t-9.5 76q0 107 63 170.5t169 63.5t168 -62q10 -10 22 -10q9 0 19 8.5t10 22.5t-8 22q-83 80 -211 80q-132 0 -211.5 -80.5t-79.5 -214.5q0 -92 31.5 -144t97.5 -83q-95 -27 -151 -107.5t-56 -199.5zM317 588q0 122 66 193t192 71 q82 -16 152 -48t120 -88t50 -124q0 -119 -64 -192.5t-182 -73.5q-25 0 -75.5 15.5t-110.5 44.5t-104 83t-44 119zM391 588q0 -45 35 -83.5t82.5 -60t86.5 -33.5t56 -12q83 0 128.5 52t45.5 141q0 42 -29 77t-74.5 57t-83.5 34.5t-73 19.5q-86 0 -130 -50t-44 -142z" />
<glyph unicode="&#xa8;" horiz-adv-x="948" d="M205 1507v92q0 43 30.5 73t73.5 30q42 0 72.5 -30.5t30.5 -72.5v-92q0 -41 -31 -71.5t-72 -30.5q-43 0 -73.5 30.5t-30.5 71.5zM279 1507q0 -11 8.5 -19.5t21.5 -8.5q12 0 21.5 8.5t9.5 19.5v92q0 11 -9.5 21t-21.5 10q-13 0 -21.5 -10t-8.5 -21v-92zM537 1507v92 q0 43 30.5 73t73.5 30q41 0 71.5 -30t30.5 -73v-92q0 -41 -30.5 -71.5t-71.5 -30.5q-43 0 -73.5 30.5t-30.5 71.5zM610 1507q0 -11 9 -19.5t22 -8.5q12 0 21.5 8.5t9.5 19.5v92q0 11 -9.5 21t-21.5 10q-13 0 -22 -10t-9 -21v-92z" />
<glyph unicode="&#xa9;" horiz-adv-x="1724" d="M102 731q0 155 60.5 295.5t162.5 242.5t242.5 162t294.5 60q155 0 295.5 -60t242.5 -162t162 -242.5t60 -295.5q0 -154 -60 -294.5t-162 -242.5t-242.5 -162.5t-295.5 -60.5q-154 0 -294.5 60.5t-242.5 162.5t-162.5 242.5t-60.5 294.5zM156 731q0 -143 56 -274 t150.5 -225.5t225.5 -150.5t274 -56q115 0 223.5 35.5t195.5 101t152.5 152.5t101.5 194.5t36 222.5t-36 223.5t-101.5 195.5t-152.5 152.5t-195.5 101.5t-223.5 36t-222.5 -36t-194.5 -101.5t-152.5 -152.5t-101 -195.5t-35.5 -223.5zM203 731q0 180 88 332.5t240 242 t331 89.5q134 0 257 -53t212 -142t142 -212t53 -257q0 -179 -89.5 -331t-242 -240t-332.5 -88q-134 0 -256.5 52t-210.5 140t-140 210.5t-52 256.5zM254 731q0 -165 81.5 -305t221.5 -221.5t305 -81.5t306 81.5t223 221.5t82 305t-82 305.5t-223 222.5t-306 82t-305 -82 t-221.5 -222.5t-81.5 -305.5zM471 729q0 198 109 320t284 122q131 0 222 -65t122 -182q4 -12 4 -19q0 -33 -24.5 -57.5t-57.5 -24.5q-26 0 -48 17t-29 45q-35 127 -189 127q-109 0 -171 -75.5t-62 -207.5t62 -207.5t169 -75.5q170 0 197 156q4 32 31 51.5t61 14.5 q30 -6 48 -28.5t18 -53.5q0 -34 -21.5 -88.5t-56.5 -96.5q-99 -114 -277 -114q-174 0 -282.5 121.5t-108.5 320.5zM526 729q0 -172 89.5 -279.5t246.5 -107.5q149 0 230 92q57 64 67 154q0 11 -7 16.5t-13 5.5q-9 2 -17.5 -3.5t-9.5 -14.5q-18 -100 -83.5 -151.5 t-166.5 -51.5q-136 0 -211.5 93.5t-75.5 246.5q0 151 76.5 245.5t210.5 94.5q97 0 159.5 -44.5t84.5 -127.5q6 -16 22 -16q25 0 25 22v6q-27 102 -104 154.5t-187 52.5q-157 0 -246.5 -108.5t-89.5 -278.5z" />
<glyph unicode="&#xaa;" horiz-adv-x="835" d="M72 936q0 103 63 162q74 68 248 86q108 12 152 30q0 31 -2.5 43.5t-12.5 22.5q-31 31 -112 31q-101 0 -138 -47q-5 -7 -9 -16t-5 -14l-2 -5q-2 -31 -26 -52t-56 -20q-31 3 -52 27.5t-18 54.5q0 8 3 23.5t15 43.5t30 52q84 106 258 106q134 0 207 -63.5t73 -167.5v-363 q18 0 33 -6q12 -6 22 -16q21 -25 21 -53q0 -32 -23 -55t-55 -23q-47 0 -86 24q-18 13 -39 41q-94 -73 -227 -73q-118 0 -190 61t-72 166zM119 936q0 -82 59 -129t156 -47q85 0 151.5 37t100.5 82q0 -53 26 -82t74 -29q11 0 19 8.5t8 20.5q0 9 -6 15.5t-15 8.5q-24 0 -39 15 q-6 6 -9.5 15.5t-5 19t-1.5 10.5v354q0 82 -58 132t-171 50q-153 0 -220 -88q-23 -31 -38 -90q0 -12 7 -21t17 -10q12 0 20.5 7.5t8.5 19.5q3 30 28 61q54 66 177 66q103 0 147 -47q20 -22 23.5 -41.5t3.5 -83.5q-4 -6 -16 -13.5t-59.5 -20t-119.5 -19.5q-160 -18 -219 -74 q-49 -44 -49 -127zM174 936q0 57 31 86q46 43 188 61q126 11 191 43v-155q-29 -62 -94 -109t-156 -47q-74 0 -117 31t-43 90zM225 936q0 -74 109 -74q71 0 123.5 35t77.5 82v76q-48 -13 -136 -23q-120 -14 -159 -47q-15 -12 -15 -49z" />
<glyph unicode="&#xab;" horiz-adv-x="1130" d="M123 582q0 50 37 77l239 205q28 25 66 25q45 0 74.5 -30.5t29.5 -72.5q0 -49 -37 -79l-147 -125l147 -125q37 -30 37 -80q0 -42 -29.5 -72.5t-74.5 -30.5q-38 0 -66 25l-239 203q-37 30 -37 80zM195 582q0 -17 12 -23l239 -205q12 -8 19 -8q13 0 22 9.5t9 23.5t-11 22 l-213 181l215 182q11 11 11 24q0 12 -8.5 21.5t-22.5 9.5q-6 0 -18 -8l-244 -207q-10 -10 -10 -22zM561 582q0 50 37 77l240 205q28 25 65 25q45 0 75 -30.5t30 -72.5q0 -49 -37 -79l-148 -125l148 -125q37 -30 37 -80q0 -42 -30 -72.5t-75 -30.5q-37 0 -65 25l-240 203 q-37 30 -37 80zM633 582q0 -17 12 -23l240 -205q12 -8 18 -8q13 0 23 10t10 23t-12 22l-213 181l215 182q10 10 10 24q0 12 -8.5 21.5t-22.5 9.5q-6 0 -18 -8l-244 -207q-10 -10 -10 -22z" />
<glyph unicode="&#xac;" horiz-adv-x="1308" d="M102 817q0 43 30 74t73 31h860q43 0 71.5 -31.5t28.5 -75.5v-397q0 -42 -30.5 -72.5t-71.5 -30.5q-43 0 -73 30t-29 73v297h-756q-43 0 -73 29.5t-30 72.5zM174 817q0 -12 9.5 -20.5t21.5 -8.5h827v-370q-2 -11 8 -20t23 -9q12 0 20.5 9t8.5 20v399q0 13 -8.5 22t-20.5 9 h-858q-12 2 -21.5 -8t-9.5 -23z" />
<glyph unicode="&#xad;" horiz-adv-x="901" d="M102 614q0 43 30 74t73 31h491q43 0 73 -31t30 -74t-30 -72.5t-73 -29.5h-491q-43 0 -73 29.5t-30 72.5zM174 614q0 -12 9.5 -20t21.5 -8h491q12 0 21.5 8t9.5 20q0 13 -9.5 23t-21.5 10h-491q-12 0 -21.5 -10t-9.5 -23z" />
<glyph unicode="&#xae;" horiz-adv-x="1228" d="M254 1112q0 156 112.5 268.5t268.5 112.5q155 0 267 -112t112 -269q0 -154 -112 -266.5t-267 -112.5t-268 112.5t-113 266.5zM285 1112q0 -143 103 -245.5t247 -102.5q143 0 245.5 103t102.5 245q0 146 -101.5 248t-246.5 102t-247.5 -102.5t-102.5 -247.5zM313 1112 q0 132 95 227t227 95q131 0 225 -95t94 -227q0 -130 -94 -224.5t-225 -94.5q-132 0 -227 94t-95 225zM344 1112q0 -122 84 -205.5t207 -83.5q121 0 205 83.5t84 205.5q0 123 -83.5 207t-205.5 84q-123 0 -207 -84t-84 -207zM475 956v328q0 17 16 33t33 16h144q60 0 98.5 -37 t38.5 -94q0 -52 -31 -86q19 -30 23 -86q4 -50 4 -51q6 -8 6 -23q0 -18 -16.5 -33.5t-32.5 -15.5q-11 0 -26 9.5t-19 23.5q-12 26 -15 82q0 6 -0.5 13.5t-0.5 11t-1 7t-2.5 5.5t-5.5 4q-16 6 -27.5 21.5t-11.5 33.5q0 15 12.5 33.5t28.5 22.5q13 5 15 8t2 20q0 18 -9 25.5 t-30 7.5h-95v-279q0 -17 -16 -33t-33 -16t-33 16t-16 33zM506 956q0 -8 5 -13t13 -5t13.5 5.5t5.5 12.5v310h125q30 0 49.5 -18.5t19.5 -45.5q0 -13 -2 -22.5t-4.5 -15t-8 -9.5t-7.5 -5t-9 -3l-6 -2q-8 -3 -14 -11.5t-6 -15.5q0 -19 20 -28q6 -4 10.5 -8.5l8 -8t5.5 -9t3 -9 t1.5 -10t0.5 -9v-9v-7.5q0 -48 10 -68q8 -14 19 -14q6 0 12 5.5t6 12.5t-4 13q-2 7 -6 59q-3 66 -35 90q43 29 43 84q0 45 -28.5 73t-77.5 28h-144q-7 0 -12.5 -5.5t-5.5 -13.5v-328z" />
<glyph unicode="&#xaf;" horiz-adv-x="1105" d="M205 1645q0 43 29.5 73.5t72.5 30.5h492q43 0 72.5 -30.5t29.5 -73.5t-29.5 -73t-72.5 -30h-492q-43 0 -72.5 30t-29.5 73zM276 1645q0 -12 9 -21.5t22 -9.5h492q12 0 20 9.5t8 21.5t-8 21t-20 9h-492q-13 0 -22 -9t-9 -21z" />
<glyph unicode="&#xb0;" horiz-adv-x="933" d="M102 1126q0 151 107 258t258 107t257.5 -107t106.5 -258t-106.5 -257.5t-257.5 -106.5t-258 106t-107 258zM154 1126q0 -130 92 -221.5t221 -91.5t221 92t92 221t-92 221.5t-221 92.5t-221 -92.5t-92 -221.5zM211 1128q0 106 75.5 181t182.5 75q106 0 181 -75t75 -181 q0 -107 -75 -182.5t-181 -75.5q-107 0 -182.5 75.5t-75.5 182.5zM262 1128q0 -86 60.5 -146t146.5 -60q85 0 145 60t60 146q0 85 -60 145t-145 60q-86 0 -146.5 -60t-60.5 -145z" />
<glyph unicode="&#xb1;" horiz-adv-x="1228" d="M84 104q0 43 29.5 73t72.5 30h711q43 0 72.5 -30t29.5 -73t-29.5 -73.5t-72.5 -30.5h-711q-43 0 -72.5 30.5t-29.5 73.5zM84 752q0 43 29.5 72.5t72.5 29.5h252v252q0 42 31 73t72 31q43 0 73.5 -30.5t30.5 -73.5v-252h252q43 0 72.5 -29.5t29.5 -72.5t-30 -74t-72 -31 h-252v-241q0 -43 -30.5 -73t-73.5 -30q-42 0 -72.5 30.5t-30.5 72.5v241h-252q-42 0 -72 31t-30 74zM156 104q0 -13 9 -21.5t21 -8.5h711q12 0 21.5 8.5t9.5 21.5q0 12 -9.5 21.5t-21.5 9.5h-711q-12 0 -21 -9.5t-9 -21.5zM156 750q0 -12 9 -21.5t21 -9.5h326v-313 q0 -12 9.5 -21.5t21.5 -9.5t21 9.5t9 21.5v313h324q12 0 21.5 9.5t9.5 21.5t-9.5 21t-21.5 9h-324v326q0 12 -9.5 21.5t-22.5 9.5q-12 0 -20.5 -9.5t-8.5 -21.5v-326h-326q-12 0 -21 -9t-9 -21z" />
<glyph unicode="&#xb2;" horiz-adv-x="714" d="M92 788q0 66 29 127q68 134 231 195q60 23 88.5 51t28.5 64q0 78 -86 78q-51 0 -78 -27q-21 -18 -24 -70q-1 -33 -27 -57.5t-59 -24.5q-36 0 -62.5 25.5t-26.5 60.5q0 112 76 191q79 76 201 76q110 0 184 -68q76 -73 76 -180q0 -62 -25 -113q-55 -115 -204 -170 q-77 -29 -111 -69h244q35 0 61.5 -27t26.5 -62t-26.5 -60.5t-61.5 -25.5h-367q-35 0 -61.5 25.5t-26.5 60.5zM152 788q1 -10 9 -17t19 -7h367q12 0 20 7.5t8 19.5q0 11 -8 18.5t-20 7.5h-336q4 20 12.5 40t27 48t55.5 54t87 45q130 53 170 139q21 37 21 86q0 82 -58 137 q-57 51 -143 51q-102 0 -158 -59q-56 -53 -59 -146q0 -10 8 -18t19 -8q10 -1 18 6t10 18q3 70 41 111q46 43 121 43q63 0 104 -37.5t41 -101.5q0 -17 -4.5 -34t-18.5 -41.5t-48 -49t-84 -43.5q-143 -55 -197 -166q-24 -47 -24 -103z" />
<glyph unicode="&#xb3;" horiz-adv-x="731" d="M72 938v10q0 34 25 59t59 25t60.5 -23.5t29.5 -56.5q3 -41 30 -65q39 -27 84 -27q105 0 105 80q0 29 -8.5 41.5t-34.5 19.5q-32 10 -53 38.5t-21 60.5q0 33 18.5 60.5t47.5 39.5q18 6 23 13.5t5 23.5q0 63 -82 63q-46 0 -68.5 -19t-25.5 -62q-3 -34 -29.5 -58t-60.5 -24 t-59 26t-25 60q0 109 84 186q72 66 184 66q113 0 183 -64q73 -70 73 -174q0 -76 -41 -127q64 -64 64 -170q0 -113 -80 -186q-81 -68 -199 -68q-112 0 -196 68q-83 70 -92 184zM131 942q9 -90 72 -143q63 -54 157 -54q98 0 158 54q62 56 62 141q0 121 -107 162q84 43 84 135 q0 80 -55 129q-50 47 -142 47q-93 0 -149 -53t-59 -135q0 -11 7 -19.5t17 -9.5q12 0 20.5 7.5t8.5 19.5q6 66 46.5 101.5t108.5 35.5q66 0 104 -35t38 -88q0 -69 -66 -92q-26 -13 -26 -45q0 -30 28 -41q86 -29 86 -119q0 -68 -47 -103.5t-117 -35.5q-61 0 -112 33 q-56 40 -62 112q-2 12 -10 19.5t-20 7.5q-10 -2 -17.5 -9.5t-7.5 -17.5v-4z" />
<glyph unicode="&#xb4;" horiz-adv-x="729" d="M207 1538q0 28 10 45l113 207q28 55 90 55q40 0 72 -30t32 -74q0 -25 -12 -49l-113 -207q-29 -53 -90 -53q-40 0 -71 30t-31 76zM279 1536q0 -15 10 -23t20 -8q17 0 27 17l113 204q4 6 4 15q0 16 -10 23.5t-21 7.5q-21 0 -27 -17l-112 -205q-4 -4 -4 -14z" />
<glyph unicode="&#xb6;" horiz-adv-x="1423" d="M102 977q0 204 123 336q145 151 404 151h508q43 0 72.5 -30.5t29.5 -73.5v-1567q0 -43 -29.5 -73.5t-72.5 -30.5t-74 30.5t-31 73.5v1464h-106v-1464q0 -43 -30 -73.5t-73 -30.5t-73.5 30.5t-30.5 73.5v686h-72q-256 0 -399 125q-146 131 -146 373zM176 977 q0 -211 121 -320q119 -104 350 -104h144v-760q0 -14 9.5 -23.5t22.5 -9.5t22 9t9 24v1538h252v-1538q0 -14 9 -23.5t22 -9.5q12 0 21 9t9 24v1567q0 13 -9 23t-21 10l-508 -2q-227 0 -350 -129q-103 -109 -103 -285z" />
<glyph unicode="&#xb7;" horiz-adv-x="495" d="M102 674v45q0 47 34 81t81 34h45q47 0 82 -34t35 -81v-45q0 -47 -34.5 -80t-82.5 -33h-45q-47 0 -81 33t-34 80zM176 674q0 -17 11 -28t30 -11h45q19 0 31 11t12 28v45q0 17 -12 29t-31 12h-45q-18 0 -29.5 -11.5t-11.5 -29.5v-45z" />
<glyph unicode="&#xb8;" horiz-adv-x="907" d="M207 -459q9 42 44.5 65.5t76.5 14.5q109 -19 155 17q15 12 15 28q0 25 -42.5 38t-99.5 13q-55 0 -86 45q-29 46 -10 97l107 262q15 39 54 55.5t79 1.5q40 -17 56 -56t1 -79l-55 -139q101 -29 150.5 -95t49.5 -143q0 -116 -90 -188q-86 -70 -217 -70q-50 0 -108 12 q-41 7 -65 43.5t-15 77.5zM279 -475q-3 -12 3.5 -22t18.5 -13q41 -10 94 -10q107 0 172 53q64 52 64 133t-63.5 125.5t-168.5 54.5l90 226q4 10 -0.5 22t-15.5 17q-12 4 -24 -1t-17 -16l-104 -264q-6 -15 2 -29q9 -12 26 -12q93 0 153 -31t60 -92q0 -51 -41 -86 q-72 -59 -215 -31q-12 3 -22.5 -4t-11.5 -20z" />
<glyph unicode="&#xb9;" horiz-adv-x="516" d="M92 1270q0 32 23 57.5t57 28.5q39 3 53 10q7 5 13 37q4 30 29.5 51t56.5 21h14q34 0 60 -27t26 -62v-604q0 -35 -26 -61.5t-60 -26.5q-35 0 -61.5 26.5t-26.5 61.5v410q-42 -10 -72 -10q-35 0 -60.5 26.5t-25.5 61.5zM152 1268q0 -12 8 -19.5t20 -7.5q50 4 79.5 17 t51.5 40v-516q0 -10 8 -18t19 -8t19 8t8 18v604q0 12 -8 20.5t-19 8.5h-14q-9 0 -17.5 -6.5t-9.5 -15.5q-8 -52 -37 -74q-27 -20 -84 -23q-10 -1 -17 -9t-7 -19z" />
<glyph unicode="&#xba;" horiz-adv-x="823" d="M72 1087q0 166 95 271.5t245 105.5t245 -105.5t95 -271.5q0 -167 -94.5 -272.5t-245.5 -105.5t-245.5 105.5t-94.5 272.5zM123 1087q0 -147 80.5 -238t210.5 -91q134 0 211 93t77 236q0 141 -78.5 234.5t-209.5 93.5t-211 -93.5t-80 -234.5zM176 1087q0 122 68 199 q62 74 170 74q105 0 170 -74q65 -78 65 -199q0 -122 -65 -200q-68 -74 -170 -74q-105 0 -170 74q-68 77 -68 200zM225 1087q0 -107 54 -167q52 -58 133 -58t133 58q53 59 53 167q0 107 -53 166q-49 58 -133 58t-133 -58q-54 -60 -54 -166z" />
<glyph unicode="&#xbb;" horiz-adv-x="1130" d="M123 377q0 50 37 80l147 125l-147 125q-37 30 -37 79q0 42 29.5 72.5t74.5 30.5q38 0 66 -25l239 -205q37 -27 37 -77t-37 -80l-239 -203q-28 -25 -66 -25q-45 0 -74.5 30.5t-29.5 72.5zM195 379q0 -14 9.5 -23.5t22.5 -9.5q7 0 19 8l239 205q13 7 13 23q0 11 -11 22 l-243 207q-12 8 -19 8q-14 0 -22 -9.5t-8 -21.5q0 -14 10 -24l215 -182l-213 -181q-12 -9 -12 -22zM561 377q0 50 37 80l147 125l-147 125q-37 30 -37 79q0 42 30 72.5t75 30.5q37 0 65 -25l240 -205q37 -27 37 -77t-37 -80l-240 -203q-28 -25 -65 -25q-45 0 -75 30.5 t-30 72.5zM633 379q0 -13 9.5 -23t23.5 -10q6 0 18 8l240 205q12 6 12 23q0 12 -10 22l-244 207q-12 8 -18 8q-14 0 -22.5 -9.5t-8.5 -21.5q0 -14 10 -24l215 -182l-213 -181q-12 -9 -12 -22z" />
<glyph unicode="&#xbc;" horiz-adv-x="1531" d="M92 1270q0 32 23 57.5t57 28.5q39 3 53 10q7 5 13 37q4 30 29.5 51t56.5 21h14q34 0 60 -27t26 -62v-604q0 -35 -26 -61.5t-60 -26.5q-35 0 -61.5 26.5t-26.5 61.5v410q-42 -10 -72 -10q-35 0 -60.5 26.5t-25.5 61.5zM152 1268q0 -12 8 -19.5t20 -7.5q50 4 79.5 17 t51.5 40v-516q0 -10 8 -18t19 -8t19 8t8 18v604q0 12 -8 20.5t-19 8.5h-14q-9 0 -17.5 -6.5t-9.5 -15.5q-8 -52 -37 -74q-31 -20 -84 -23q-10 -1 -17 -9t-7 -19zM231 78q0 26 17 49l915 1343q26 37 72 37q33 0 59.5 -26t26.5 -62q0 -27 -14 -49l-918 -1343q-26 -37 -72 -37 q-33 0 -59.5 26t-26.5 62zM291 78q0 -12 7.5 -20.5t18.5 -8.5q17 0 23 12l917 1344q5 10 5 14q0 11 -9.5 20t-17.5 9q-17 0 -23 -12l-917 -1344q-4 -8 -4 -14zM856 225v33q0 27 16 51l291 406q26 37 72 37h22q36 0 62.5 -25.5t26.5 -60.5v-353h10q34 0 60 -26t26 -62 q0 -34 -26 -60t-60 -26h-10v-80q0 -35 -27 -61.5t-62 -26.5q-34 0 -60 26.5t-26 61.5v80h-227q-35 0 -61.5 26t-26.5 60zM918 227q0 -11 8 -18.5t18 -7.5h287v-142q0 -11 7.5 -18.5t18.5 -7.5q12 0 20.5 7.5t8.5 18.5v142h70q10 0 18 7.5t8 18.5t-8 19t-18 8h-70v412 q0 12 -8.5 20t-20.5 8h-22q-14 0 -23 -12l-290 -406q-4 -6 -4 -16v-33zM977 254v6l254 354v-360h-254zM1075 307h103v142z" />
<glyph unicode="&#xbd;" horiz-adv-x="1617" d="M92 1270q0 32 23 57.5t57 28.5q39 3 53 10q7 5 13 37q4 30 29.5 51t56.5 21h14q34 0 60 -27t26 -62v-604q0 -35 -26 -61.5t-60 -26.5q-35 0 -61.5 26.5t-26.5 61.5v410q-42 -10 -72 -10q-35 0 -60.5 26.5t-25.5 61.5zM152 1268q0 -12 8 -19.5t20 -7.5q50 4 79.5 17 t51.5 40v-516q0 -10 8 -18t19 -8t19 8t8 18v604q0 12 -8 20.5t-19 8.5h-14q-9 0 -17.5 -6.5t-9.5 -15.5q-8 -52 -37 -74q-31 -20 -84 -23q-10 -1 -17 -9t-7 -19zM252 78q0 28 16 49l916 1343q26 37 71 37q33 0 59.5 -26t26.5 -62q0 -27 -14 -49l-917 -1343q-26 -37 -72 -37 q-33 0 -59.5 26t-26.5 62zM311 78q0 -12 8 -20.5t19 -8.5q16 0 22 12l918 1344q4 8 4 14q0 11 -9.5 20t-17.5 9q-16 0 -22 -12l-918 -1344q-4 -8 -4 -14zM975 76q0 66 29 127q68 133 231 194q60 23 88.5 51t28.5 64q0 78 -86 78q-51 0 -78 -27q-22 -19 -25 -69 q-1 -33 -27 -57.5t-59 -24.5q-35 0 -61.5 25.5t-26.5 60.5q0 111 76 190q79 76 201 76q110 0 184 -68q76 -73 76 -180q0 -62 -27 -113q-52 -115 -203 -170q-75 -29 -110 -69h244q35 0 61.5 -26.5t26.5 -61.5t-26.5 -60.5t-61.5 -25.5h-367q-35 0 -61.5 25.5t-26.5 60.5z M1034 76q1 -10 9.5 -17.5t19.5 -7.5h367q12 0 20 7.5t8 19.5q0 11 -8 18.5t-20 7.5h-336q4 20 12.5 40t27 48t55.5 54t87 45q130 53 170 139q20 36 20 86q0 83 -57 137q-58 52 -143 52q-101 0 -158 -60q-56 -53 -59 -145q0 -11 8 -19t18 -8q10 -1 18.5 6.5t10.5 18.5 q3 69 41 110q46 43 121 43q63 0 104 -37.5t41 -101.5q0 -16 -5 -33.5t-19 -42t-48 -49t-84 -43.5q-142 -55 -196 -166q-25 -49 -25 -102z" />
<glyph unicode="&#xbe;" horiz-adv-x="1607" d="M72 938v10q0 34 25 59t59 25t60.5 -23.5t29.5 -56.5q3 -41 30 -65q34 -27 84 -27q105 0 105 80q0 29 -8.5 41.5t-36.5 19.5q-31 11 -51.5 39t-20.5 60q0 33 18.5 60.5t47.5 39.5q17 6 22.5 13.5t5.5 23.5q0 63 -82 63q-46 0 -68.5 -19t-25.5 -62q-3 -34 -29.5 -58 t-60.5 -24t-59 26t-25 60q0 107 82 186q72 66 186 66q111 0 181 -64q75 -69 75 -174q0 -70 -41 -127q64 -67 64 -170q0 -114 -82 -186q-81 -68 -197 -68q-115 0 -196 68q-83 70 -92 184zM131 942q9 -90 72 -143q63 -54 157 -54q98 0 158 54q62 56 62 141q0 121 -107 162 q84 43 84 135q0 80 -55 129q-50 47 -142 47q-93 0 -149 -53t-59 -135q0 -11 7 -19.5t17 -9.5q12 0 20.5 7.5t8.5 19.5q6 66 46.5 101.5t108.5 35.5q66 0 104 -35t38 -88q0 -69 -66 -92q-26 -13 -26 -45q0 -30 28 -41q86 -29 86 -119q0 -68 -47 -103.5t-117 -35.5 q-61 0 -112 33q-56 40 -62 112q-2 12 -10 19.5t-20 7.5q-10 -2 -17.5 -9.5t-7.5 -17.5v-4zM336 78q0 28 16 49l916 1343q26 37 71 37q33 0 59.5 -26t26.5 -62q0 -27 -14 -49l-917 -1343q-26 -37 -72 -37q-33 0 -59.5 26t-26.5 62zM395 78q0 -12 8 -20.5t19 -8.5q16 0 22 12 l918 1344q4 8 4 14q0 11 -9.5 20t-17.5 9q-16 0 -22 -12l-918 -1344q-4 -8 -4 -14zM950 227v33q0 24 17 49l290 406q27 39 72 39h23q36 0 62 -26t26 -60v-353h10q35 0 60.5 -26.5t25.5 -61.5t-25.5 -60.5t-60.5 -25.5h-10v-80q0 -37 -25.5 -62.5t-62.5 -25.5q-34 0 -60 26 t-26 62v80h-228q-35 0 -61.5 25.5t-26.5 60.5zM1012 227q0 -11 8 -18.5t18 -7.5h289v-140q0 -12 8 -20t19 -8t18.5 8t7.5 20v140h70q11 0 19 8t8 18q0 11 -8.5 19t-18.5 8h-70v414q0 10 -8 18t-18 8h-25q-14 0 -20 -12l-291 -406q-6 -9 -6 -16v-33zM1073 254v6l254 354v-360 h-254zM1169 307h105v142z" />
<glyph unicode="&#xbf;" horiz-adv-x="1179" d="M123 18q0 61 14 115t32 90t51 74.5t54.5 58t59.5 50.5l6 6q93 75 119.5 121.5t29.5 144.5q2 41 32 70.5t73 29.5q44 0 74 -32.5t28 -73.5q-2 -81 -17 -142t-47.5 -110.5t-66 -83.5t-92.5 -82l-6 -6q-41 -34 -59.5 -51.5t-40 -46t-29.5 -59.5t-8 -73q0 -94 63.5 -147 t173.5 -53q65 0 116 17.5t80.5 43.5t49.5 62t28 66.5t11 62.5q3 43 35.5 70t75.5 24q39 -4 65 -31.5t29 -66.5v-15q-6 -66 -26 -127.5t-59 -119t-94 -100t-135 -68t-176 -25.5q-196 0 -320 113.5t-124 293.5zM197 18q0 -153 104.5 -244t265.5 -91q183 0 290.5 99.5 t125.5 260.5l2 18q0 12 -9.5 20.5t-21.5 8.5q-12 1 -20 -7t-10 -20q-14 -148 -106 -233.5t-251 -85.5q-138 0 -223.5 74.5t-85.5 199.5q0 43 9.5 79.5t21.5 61.5t37.5 54t42.5 44.5t53 45.5l6 6q56 47 87 78.5t58 74t38.5 92.5t13.5 120q0 12 -9 21.5t-22 9.5 q-12 0 -20.5 -8.5t-10.5 -20.5q-2 -81 -20.5 -134.5t-51 -91.5t-102.5 -96l-8 -4q-36 -30 -55 -47.5t-48 -51t-43.5 -63.5t-26 -74.5t-11.5 -95.5zM461 965v45q0 47 33.5 79.5t80.5 32.5h46q47 0 80.5 -32.5t33.5 -79.5v-45q0 -47 -33.5 -80t-80.5 -33h-46q-47 0 -80.5 33 t-33.5 80zM532 965q0 -17 12 -29t31 -12h46q19 0 31 12t12 29v45q0 17 -12 29t-31 12h-46q-19 0 -31 -12t-12 -29v-45z" />
<glyph unicode="&#xc0;" horiz-adv-x="1388" d="M61 84q0 16 7 37l481 1276q15 48 63 61q-10 10 -20 27l-113 207q-12 21 -12 47q0 45 32.5 74.5t71.5 29.5q64 0 91 -53l112 -207q12 -21 12 -47q0 -44 -30 -74q57 -7 80 -63l483 -1278q8 -19 8 -43q-1 -40 -34.5 -67t-71.5 -27q-31 0 -57 17t-38 46l-139 369h-588 l-139 -369q-11 -32 -37.5 -47.5t-58.5 -15.5q-43 0 -73 26.5t-30 73.5zM135 86q0 -12 8.5 -20.5t20.5 -8.5q22 0 31 19l155 416h688l156 -416q11 -19 29 -19q11 0 21 7.5t11 21.5q0 2 -1 5.5t-1 6.5l-485 1274q-10 21 -29 21h-94q-22 0 -29 -21l-481 -1274v-12zM373 553 l295 778h49l297 -778h-641zM477 621h432l-219 573zM539 1741q0 -9 4 -15l112 -204q10 -17 27 -17q10 0 20.5 8t10.5 23q0 10 -4 14l-113 205q-7 17 -27 17q-11 0 -20.5 -7.5t-9.5 -23.5z" />
<glyph unicode="&#xc1;" horiz-adv-x="1388" d="M61 84q0 16 7 37l481 1276q9 26 30 43t48 22q-31 31 -31 76q0 24 12 45l113 207q28 55 90 55q39 0 71.5 -30t32.5 -74q0 -25 -12 -49l-112 -207q-9 -15 -21 -27q47 -13 66 -59l483 -1278q8 -19 8 -43q-1 -40 -34.5 -67t-71.5 -27q-31 0 -57 17t-38 46l-139 369h-588 l-139 -369q-11 -32 -37.5 -47.5t-58.5 -15.5q-43 0 -73 26.5t-30 73.5zM133 86q0 -12 9.5 -20.5t21.5 -8.5q22 0 31 19l155 416h688l156 -416q11 -19 29 -19q11 0 20.5 7.5t9.5 21.5v12l-485 1274q-10 21 -29 21h-94q-22 0 -29 -21l-481 -1274q0 -2 -1 -6t-1 -6zM373 553 l295 778h49l297 -778h-641zM477 621h432l-219 573zM670 1536q0 -15 9.5 -23t18.5 -8q19 0 29 17l113 204q4 6 4 15q0 16 -10 23.5t-21 7.5q-21 0 -27 -17l-112 -205q-4 -4 -4 -14z" />
<glyph unicode="&#xc2;" horiz-adv-x="1388" d="M61 84q0 16 7 37l481 1276q10 30 36.5 48.5t59.5 18.5h94q31 0 58 -18t39 -47l483 -1278q8 -19 8 -43q-1 -40 -34.5 -67t-71.5 -27q-31 0 -57 17t-38 46l-139 369h-588l-139 -369q-11 -32 -37.5 -47.5t-58.5 -15.5q-43 0 -73 26.5t-30 73.5zM135 86q0 -12 8.5 -20.5 t20.5 -8.5q22 0 31 19l155 416h688l156 -416q11 -19 29 -19q11 0 20.5 7.5t9.5 21.5v12l-485 1274q-10 21 -29 21h-94q-22 0 -29 -21l-481 -1274v-12zM373 553l295 778h49l297 -778h-641zM422 1585q0 45 31 76l170 162q28 28 71 28q42 0 70 -28l170 -162q31 -31 31 -76 q0 -44 -31 -73t-72 -29q-43 0 -71 28l-99 95l-96 -95q-28 -28 -72 -28q-45 0 -73.5 31.5t-28.5 70.5zM477 621h432l-219 573zM494 1587q0 -14 9.5 -22.5t20.5 -8.5q12 0 21 9l147 143l148 -143q9 -9 22 -9q12 0 20.5 9.5t8.5 21.5q0 15 -8 23l-170 162q-5 8 -21 8 q-12 0 -20 -8l-168 -162q-10 -10 -10 -23z" />
<glyph unicode="&#xc3;" horiz-adv-x="1388" d="M61 84q0 16 7 37l481 1276q10 30 36.5 48.5t59.5 18.5h94q31 0 58 -18t39 -47l483 -1278q8 -19 8 -43q-1 -40 -34.5 -67t-71.5 -27q-31 0 -57 17t-38 46l-139 369h-588l-139 -369q-11 -32 -37.5 -47.5t-58.5 -15.5q-43 0 -73 26.5t-30 73.5zM135 86q0 -12 8.5 -20.5 t20.5 -8.5q22 0 31 19l155 416h688l156 -416q11 -19 29 -19q11 0 21 7.5t11 21.5q0 2 -1 5.5t-1 6.5l-485 1274q-10 21 -29 21h-94q-19 0 -29 -21l-481 -1274v-12zM342 1585q0 15 2 23q19 89 85 143.5t153 54.5q95 0 161 -63q2 -2 16.5 -19t26 -26.5t19.5 -9.5q14 0 24 11 t13 25q7 35 36 58.5t64 23.5q44 0 74.5 -31t30.5 -71q0 -11 -3 -23q-20 -88 -86.5 -143t-152.5 -55q-107 0 -180 82q-1 1 -5.5 7.5t-9 12.5t-12.5 11.5t-16 5.5q-14 0 -23.5 -11.5t-13.5 -25.5q-7 -36 -36.5 -59t-66.5 -23q-42 0 -71 30.5t-29 71.5zM373 553l295 778h49 l297 -778h-641zM414 1585q0 -11 9 -21t21 -10q21 0 29 25q9 41 40 67.5t69 26.5q53 0 90 -49q54 -70 133 -70q60 0 106.5 39t61.5 99l2 12q0 12 -9 20.5t-22 8.5q-10 0 -19 -6.5t-10 -16.5q-9 -41 -39.5 -67.5t-70.5 -26.5q-51 0 -90 51q-51 68 -133 68q-58 0 -104.5 -38 t-61.5 -98q-2 -10 -2 -14zM477 621h432l-219 573z" />
<glyph unicode="&#xc4;" horiz-adv-x="1388" d="M61 84q0 16 7 37l481 1276l6 12q-20 -4 -29 -4q-43 0 -73.5 30.5t-30.5 71.5v92q0 43 30.5 73t73.5 30q42 0 72.5 -30.5t30.5 -72.5v-92q0 -24 -13 -47q20 4 29 4h94q11 0 27 -4q-12 21 -12 47v92q0 43 30.5 73t73.5 30q42 0 72.5 -30.5t30.5 -72.5v-92q0 -41 -31 -71.5 t-72 -30.5q-11 0 -27 4l5 -10l483 -1278q8 -19 8 -43q-1 -40 -34.5 -67t-71.5 -27q-31 0 -57 17t-38 46l-139 369h-588l-139 -369q-11 -32 -37.5 -47.5t-58.5 -15.5q-43 0 -73 26.5t-30 73.5zM135 86q0 -12 8.5 -20.5t20.5 -8.5q22 0 31 19l155 416h688l156 -416 q11 -19 29 -19q11 0 21 7.5t11 21.5q0 2 -1 5.5t-1 6.5l-485 1274q-10 21 -29 21h-94q-22 0 -29 -21l-481 -1274v-12zM373 553l295 778h49l297 -778h-641zM477 621h432l-219 573zM494 1507q0 -11 9.5 -20.5t22.5 -9.5q12 0 21.5 9.5t9.5 20.5v92q0 11 -9.5 20t-21.5 9 q-13 0 -22.5 -9t-9.5 -20v-92zM825 1507q0 -11 10 -20.5t23 -9.5q12 0 21.5 9.5t9.5 20.5v92q0 11 -9.5 20t-21.5 9q-13 0 -23 -9t-10 -20v-92z" />
<glyph unicode="&#xc5;" horiz-adv-x="1388" d="M61 84q0 16 7 37l473 1255l8 17q-86 70 -86 180q0 95 68 162t163 67q97 0 164.5 -67t67.5 -162q0 -111 -88 -182l6 -17l475 -1253q8 -19 8 -43q-1 -40 -34.5 -67t-71.5 -27q-31 0 -57 17t-38 46l-139 369h-588l-139 -369q-11 -32 -37.5 -47.5t-58.5 -15.5q-43 0 -73 26.5 t-30 73.5zM135 86q0 -12 8.5 -20.5t20.5 -8.5q22 0 31 19l155 416h688l156 -416q11 -19 29 -19q11 0 21 7.5t11 21.5l-2 12l-485 1274q-10 21 -29 21h-26q68 6 114.5 58t46.5 122q0 74 -52.5 127t-127.5 53t-127.5 -53t-52.5 -127q0 -70 47 -122t115 -58h-31q-22 0 -29 -21 l-481 -1274v-12zM373 553l295 778h49l297 -778h-641zM477 621h432l-219 573zM563 1571q0 55 38.5 94t94.5 39q54 0 92.5 -39t38.5 -94q0 -54 -38.5 -92.5t-92.5 -38.5q-55 0 -94 38.5t-39 92.5zM610 1571q0 -35 24.5 -58.5t59.5 -23.5t59.5 23.5t24.5 58.5q0 36 -24 60 t-60 24t-60 -24t-24 -60z" />
<glyph unicode="&#xc6;" horiz-adv-x="2097" d="M61 88q0 18 7 35l481 1276q10 29 37 47t59 18h1247q42 0 72.5 -30t30.5 -72q0 -43 -30 -74t-73 -31h-731v-378h666q43 0 73.5 -31t30.5 -74t-30.5 -72.5t-73.5 -29.5h-666v-465h752q42 0 72 -31t30 -74t-29.5 -72.5t-72.5 -29.5h-854q-43 0 -73 29.5t-30 72.5v316h-557 l-139 -367q-10 -30 -36.5 -48.5t-59.5 -18.5q-41 0 -72 28t-31 76zM133 86q0 -11 7.5 -21t23.5 -10q22 0 29 21l155 413h680v-385q0 -12 9.5 -21t21.5 -9h854q12 0 21.5 9t9.5 21t-9.5 21.5t-21.5 9.5h-823v610h737q13 0 22 8.5t9 20.5q0 14 -9 23.5t-22 9.5h-737v524h802 q12 0 21.5 9.5t9.5 21.5t-9.5 21.5t-21.5 9.5h-1247q-22 0 -29 -21l-483 -1276v-10zM371 551l295 780h362v-780h-657zM477 625h479v635h-239z" />
<glyph unicode="&#xc7;" horiz-adv-x="1458" d="M102 729q0 219 79 390.5t233 271.5t360 100q214 0 365.5 -107.5t203.5 -304.5q5 -20 5 -26q0 -41 -30 -72t-73 -31q-36 0 -64.5 21.5t-37.5 56.5q-32 128 -128 192t-241 64q-148 0 -254 -71.5t-158.5 -195.5t-52.5 -288q0 -161 52 -284.5t157.5 -195t251.5 -71.5 q174 0 276 92.5t123 255.5q4 39 34 65.5t69 26.5q41 0 70.5 -29.5t31.5 -70.5v-16q-27 -219 -162 -360t-354 -167l-31 -79q102 -29 151.5 -95t49.5 -143q0 -116 -90 -188q-86 -70 -217 -70q-50 0 -109 12q-41 7 -65 43.5t-15 77.5q9 42 44.5 65.5t76.5 14.5q111 -19 156 16 q14 11 14 29q0 25 -42.5 38t-98.5 13q-55 0 -86 45q-28 46 -10 96l53 134q-114 21 -210.5 79t-170 150t-115 224.5t-41.5 291.5zM172 731q0 -296 154 -485.5t417 -198.5l-90 -225q-7 -17 2 -29t27 -12q93 0 153 -31t60 -92q0 -51 -41 -86q-72 -59 -215 -31q-12 2 -23 -5 t-12 -19q-3 -12 4 -23t19 -12q41 -10 94 -10q110 0 172 53q63 51 63 133q0 80 -63.5 125t-167.5 55l84 209q211 13 338.5 138.5t152.5 326.5v6q0 9 -8 19t-22 10q-11 0 -20.5 -8.5t-10.5 -18.5q-22 -189 -145.5 -300t-325.5 -111q-168 0 -291 83t-183.5 222.5t-60.5 316.5 q0 184 62 325t186 222.5t293 81.5q166 0 282.5 -80.5t155.5 -230.5q7 -23 31 -23q13 0 22 9t9 20l-2 12q-50 173 -181.5 263.5t-316.5 90.5q-141 0 -255.5 -52t-190 -144t-116 -218.5t-40.5 -275.5z" />
<glyph unicode="&#xc8;" horiz-adv-x="1325" d="M184 102v1260q0 42 30 72t73 30h358q-7 7 -14 21l-113 207q-12 21 -12 47q0 45 32 74.5t72 29.5q63 0 90 -53l113 -207q10 -18 10 -47q0 -44 -28 -72h325q42 0 72.5 -30t30.5 -72q0 -43 -30 -74t-73 -31h-731v-378h666q43 0 73.5 -31t30.5 -74t-30.5 -72.5t-73.5 -29.5 h-666v-465h752q42 0 72 -31t30 -74t-29.5 -72.5t-72.5 -29.5h-854q-43 0 -73 29.5t-30 72.5zM256 104q0 -12 9 -21t22 -9h852q12 0 21 9t9 21t-9 21.5t-21 9.5h-824v610h740q12 0 21 8.5t9 20.5q0 13 -9 23t-21 10h-740v524h803q12 0 21.5 9.5t9.5 21.5t-9.5 21.5t-21.5 9.5 h-831q-13 0 -22 -9.5t-9 -21.5v-1258zM578 1741q0 -9 4 -15l112 -204q10 -17 27 -17q10 0 20.5 8t10.5 23q0 10 -4 14l-113 205q-6 17 -27 17q-11 0 -20.5 -7.5t-9.5 -23.5z" />
<glyph unicode="&#xc9;" horiz-adv-x="1325" d="M184 102v1260q0 42 30 72t73 30h338q-29 29 -29 74q0 28 10 45l113 207q28 55 90 55q40 0 72 -30t32 -74q0 -25 -12 -49l-113 -207q-7 -14 -14 -21h346q42 0 72.5 -30t30.5 -72q0 -43 -30 -74t-73 -31h-731v-378h666q43 0 73.5 -31t30.5 -74t-30.5 -72.5t-73.5 -29.5 h-666v-465h752q42 0 72 -31t30 -74t-29.5 -72.5t-72.5 -29.5h-854q-43 0 -73 29.5t-30 72.5zM256 104q0 -12 9 -21t22 -9h852q12 0 21 9t9 21t-9 21.5t-21 9.5h-824v608h740q12 0 21 9.5t9 21.5q0 13 -9 22t-21 9h-740v526h803q12 0 21.5 9.5t9.5 21.5t-9.5 21.5t-21.5 9.5 h-831q-13 0 -22 -9.5t-9 -21.5v-1258zM668 1536q0 -15 9.5 -23t18.5 -8q19 0 29 17l113 204q4 6 4 15q0 16 -10 23.5t-21 7.5q-21 0 -27 -17l-112 -205q-4 -4 -4 -14z" />
<glyph unicode="&#xca;" horiz-adv-x="1325" d="M184 102v1260q0 42 30 72t73 30h833q42 0 72.5 -30t30.5 -72q0 -43 -30 -74t-73 -31h-731v-378h666q43 0 73.5 -31t30.5 -74t-30.5 -72.5t-73.5 -29.5h-666v-465h752q42 0 72 -31t30 -74t-29.5 -72.5t-72.5 -29.5h-854q-43 0 -73 29.5t-30 72.5zM256 104q0 -12 9 -21 t22 -9h852q12 0 21 9t9 21t-9 21.5t-21 9.5h-824v608h740q12 0 21 9.5t9 21.5q0 13 -9 22t-21 9h-740v526h803q12 0 21.5 9.5t9.5 21.5t-9.5 21.5t-21.5 9.5h-831q-13 0 -22 -9.5t-9 -21.5v-1258zM442 1647q0 44 31 75l170 162q29 29 72 29q40 0 69 -29l170 -162 q31 -31 31 -75t-30.5 -73.5t-71.5 -29.5q-43 0 -72 29l-98 94l-97 -94q-29 -29 -71 -29q-45 0 -74 32t-29 71zM514 1649q0 -14 9.5 -22.5t21.5 -8.5t20 8l148 143l147 -143q8 -8 23 -8q12 0 20 9.5t8 21.5q0 14 -8 22l-170 162q-5 8 -20 8q-13 0 -21 -8l-168 -162 q-10 -10 -10 -22z" />
<glyph unicode="&#xcb;" horiz-adv-x="1325" d="M184 102v1260q0 42 30 72t73 30h162q-13 23 -13 45v93q0 42 31 72t74 30q42 0 72 -30t30 -72v-93q0 -24 -12 -45h149q-12 21 -12 45v93q0 43 30.5 72.5t73.5 29.5q42 0 72.5 -30t30.5 -72v-93q0 -22 -10 -45h155q42 0 72.5 -30t30.5 -72q0 -43 -30 -74t-73 -31h-731v-378 h666q43 0 73.5 -31t30.5 -74t-30.5 -72.5t-73.5 -29.5h-666v-465h752q42 0 72 -31t30 -74t-29.5 -72.5t-72.5 -29.5h-854q-43 0 -73 29.5t-30 72.5zM256 104q0 -12 9 -21t22 -9h852q12 0 21 9t9 21t-9 21.5t-21 9.5h-824v610h740q12 0 21 8.5t9 20.5q0 13 -9 22t-21 9h-740 v526h803q12 0 21.5 9.5t9.5 21.5t-9.5 21.5t-21.5 9.5h-831q-13 0 -22 -9.5t-9 -21.5v-1258zM508 1511q0 -12 10 -21t23 -9q12 0 20 9t8 21v91q0 12 -8 21t-20 9q-13 0 -23 -9t-10 -21v-91zM840 1511q0 -12 9.5 -21t22.5 -9q12 0 20.5 9t8.5 21v91q0 12 -8.5 21t-20.5 9 q-13 0 -22.5 -9t-9.5 -21v-91z" />
<glyph unicode="&#xcc;" horiz-adv-x="575" d="M61 1741q0 44 33 74t72 30q62 0 90 -55l113 -207q12 -21 12 -45q0 -43 -33 -76q43 -29 43 -84v-1292q0 -43 -30.5 -72.5t-73.5 -29.5q-42 0 -72.5 30t-30.5 72v1292q0 43 31 74q-13 8 -29 33l-112 207q-13 26 -13 49zM133 1741q0 -9 4 -15l113 -204q10 -17 26 -17 q10 0 20.5 8t10.5 23q0 10 -4 14l-113 205q-6 17 -26 17q-11 0 -21 -7.5t-10 -23.5zM256 86q0 -12 9.5 -21.5t21.5 -9.5q13 0 21.5 9.5t8.5 21.5v1292q0 13 -8.5 23t-21.5 10q-12 0 -21.5 -10.5t-9.5 -22.5v-1292z" />
<glyph unicode="&#xcd;" horiz-adv-x="575" d="M184 86v1292q0 51 39 82q-30 30 -30 78q0 28 10 45l112 207q13 26 38 40.5t53 14.5q40 0 72 -30t32 -74q0 -25 -12 -49l-113 -207q-8 -16 -27 -31q33 -30 33 -76v-1292q0 -43 -30.5 -72.5t-73.5 -29.5q-42 0 -72.5 30t-30.5 72zM258 86q0 -12 8.5 -21.5t20.5 -9.5 q13 0 22.5 9.5t9.5 21.5v1292q0 12 -9.5 21.5t-22.5 9.5q-12 0 -20.5 -9.5t-8.5 -21.5v-1292zM264 1536q0 -15 10.5 -23t20.5 -8q17 0 27 17l112 204q4 6 4 15q0 16 -9.5 23.5t-20.5 7.5q-21 0 -27 -17l-113 -205q-4 -4 -4 -14z" />
<glyph unicode="&#xce;" horiz-adv-x="575" d="M20 1585q0 45 31 76l170 162q28 28 72 28q41 0 69 -28l170 -162q31 -31 31 -76q0 -44 -30.5 -73t-71.5 -29q-44 0 -72 28l-98 95l-96 -95q-28 -28 -72 -28q-45 0 -74 31.5t-29 70.5zM92 1587q0 -14 9.5 -22.5t21.5 -8.5q11 0 20 9l148 143l147 -143q9 -9 23 -9 q12 0 20 9.5t8 21.5q0 15 -8 23l-170 162q-5 8 -20 8q-13 0 -21 -8l-168 -162q-10 -10 -10 -23zM184 86v1292q0 43 31 74t72 31q43 0 73.5 -31t30.5 -74v-1292q0 -43 -30.5 -72.5t-73.5 -29.5q-42 0 -72.5 30t-30.5 72zM256 86q0 -12 9.5 -21.5t21.5 -9.5q13 0 21.5 9.5 t8.5 21.5v1292q0 13 -8.5 23t-21.5 10q-12 0 -21.5 -10.5t-9.5 -22.5v-1292z" />
<glyph unicode="&#xcf;" horiz-adv-x="575" d="M18 1585v92q0 43 31 73t74 30q41 0 71.5 -30t30.5 -73v-92q0 -41 -30.5 -71.5t-71.5 -30.5q-43 0 -74 30.5t-31 71.5zM92 1585q0 -11 9 -20t22 -9q12 0 21.5 9t9.5 20v92q0 11 -9.5 21t-21.5 10q-13 0 -22 -10t-9 -21v-92zM184 86v1292q0 43 31 74t72 31q43 0 73.5 -31 t30.5 -74v-1292q0 -43 -30.5 -72.5t-73.5 -29.5q-42 0 -72.5 30t-30.5 72zM256 86q0 -12 9.5 -21.5t21.5 -9.5q13 0 22.5 9.5t9.5 21.5v1292q0 12 -9.5 22.5t-22.5 10.5q-12 0 -21.5 -10.5t-9.5 -22.5v-1292zM350 1585v92q0 43 31 73t74 30q41 0 71.5 -30t30.5 -73v-92 q0 -41 -30.5 -71.5t-71.5 -30.5q-43 0 -74 30.5t-31 71.5zM424 1585q0 -11 9 -20t22 -9q12 0 21 9t9 20v92q0 11 -9 21t-21 10q-13 0 -22 -10t-9 -21v-92z" />
<glyph unicode="&#xd0;" horiz-adv-x="1464" d="M61 817q0 43 30 74t73 31h20v440q0 42 30 72t73 30h438q303 0 470 -193t167 -544q0 -347 -170 -537t-481 -190h-424q-43 0 -73 29.5t-30 72.5v613h-20q-43 0 -73 29.5t-30 72.5zM133 819q0 -13 9.5 -22t21.5 -9h92v-686q0 -12 9.5 -20t21.5 -8h424q119 0 214.5 32 t162.5 89.5t112.5 139t66.5 179.5t21 213q0 202 -59.5 349t-187.5 232t-316 85l-438 -2q-12 0 -21.5 -8.5t-9.5 -20.5v-512h-92q-12 0 -21.5 -9.5t-9.5 -21.5zM317 133v653h340q13 0 22 9.5t9 21.5q0 13 -9 22t-22 9h-340v481h408q130 0 227.5 -44t157 -125t88.5 -189 t29 -244q0 -278 -128.5 -436t-387.5 -158h-394zM391 207h320q444 0 444 520q0 530 -430 530h-334v-335h264q43 0 73 -31t30 -74t-30 -72.5t-73 -29.5h-264v-508z" />
<glyph unicode="&#xd1;" horiz-adv-x="1507" d="M184 86v1276q0 42 30 72t73 30h84q56 0 88 -49l655 -1073h2v1036q0 43 30 74t73 31t73.5 -31t30.5 -74v-1276q0 -43 -30.5 -72.5t-73.5 -29.5h-76q-60 0 -88 49l-662 1081h-2v-1044q0 -43 -30.5 -72.5t-73.5 -29.5t-73 29.5t-30 72.5zM258 86q0 -11 8.5 -21t20.5 -10 q13 0 22.5 10t9.5 21v1231h43l754 -1229q7 -14 25 -14h78q15 -1 23.5 6.5t8.5 21.5v1276q0 12 -9.5 21.5t-22.5 9.5q-12 0 -20.5 -9.5t-8.5 -21.5v-1228h-41l-752 1226q-10 15 -26 15h-84q-29 0 -29 -29v-1276zM401 1585q0 15 2 23q19 89 85 143.5t153 54.5q96 0 162 -63 q3 -3 17 -19.5t25 -26t19 -9.5q14 0 24 11t13 25q7 35 36 58.5t64 23.5q43 0 74 -31t31 -71q0 -15 -2 -23q-20 -88 -87 -143t-153 -55q-107 0 -180 82q-1 1 -5.5 7.5t-9 12.5t-12.5 11.5t-16 5.5q-14 0 -23.5 -11.5t-13.5 -25.5q-7 -36 -36 -59t-66 -23q-42 0 -71.5 30.5 t-29.5 71.5zM473 1585q0 -11 9.5 -21t21.5 -10q20 0 28 25q9 41 40 67.5t69 26.5q53 0 90 -49q54 -70 133 -70q60 0 106.5 39t61.5 99l2 12q0 12 -8.5 20.5t-21.5 8.5q-10 0 -19 -6.5t-10 -16.5q-9 -41 -40 -67.5t-71 -26.5q-51 0 -90 51q-51 68 -133 68q-58 0 -104.5 -38 t-61.5 -98q-2 -10 -2 -14z" />
<glyph unicode="&#xd2;" horiz-adv-x="1579" d="M102 731q0 200 75 364t209 265.5t306 124.5l-112 207q-13 26 -13 49q0 44 33 74t72 30q62 0 90 -55l112 -207q11 -19 11 -47q0 -26 -13 -49q176 -21 313.5 -123t214.5 -267t77 -366q0 -217 -89 -391t-247 -271.5t-355 -97.5q-146 0 -273 57.5t-217.5 157.5t-142 241 t-51.5 304zM174 731q0 -150 46.5 -278.5t127.5 -218t194 -139.5t244 -50q177 0 317 85t220 242t80 359q0 306 -174 497t-443 191q-131 0 -244 -50.5t-194 -140t-127.5 -218t-46.5 -279.5zM236 731q0 181 68.5 323.5t194 223t287.5 80.5q164 0 290.5 -80t195.5 -222.5 t69 -324.5q0 -279 -153 -452t-402 -173q-162 0 -287.5 80t-194 222t-68.5 323zM309 731q0 -249 131.5 -401t345.5 -152q217 0 350.5 152t133.5 401q0 248 -133.5 400.5t-350.5 152.5q-214 0 -345.5 -152.5t-131.5 -400.5zM639 1741q0 -9 4 -15l113 -204q10 -17 26 -17 q10 0 20.5 8t10.5 23q0 10 -4 14l-113 205q-6 17 -26 17q-11 0 -21 -7.5t-10 -23.5z" />
<glyph unicode="&#xd3;" horiz-adv-x="1579" d="M102 731q0 299 162 507t420 245q-14 22 -14 55q0 28 10 45l113 207q28 55 90 55q40 0 72 -30t32 -74q0 -25 -12 -49l-111 -205q178 -19 317 -120t217.5 -267t78.5 -369q0 -217 -89 -391t-247 -271.5t-355 -97.5q-146 0 -273 57.5t-217.5 157.5t-142 241t-51.5 304z M176 731q0 -151 46 -279t126.5 -217.5t193.5 -139.5t244 -50q177 0 317.5 85t221 242t80.5 359t-80.5 359.5t-221 243t-317.5 85.5q-131 0 -244 -50.5t-193.5 -140t-126.5 -218t-46 -279.5zM238 731q0 276 152 451.5t396 175.5q248 0 402.5 -175.5t154.5 -451.5 q0 -279 -154 -452t-403 -173q-162 0 -287 80t-193 222t-68 323zM309 731q0 -249 131.5 -401t345.5 -152q217 0 350.5 152t133.5 401q0 248 -133.5 400.5t-350.5 152.5q-214 0 -345.5 -152.5t-131.5 -400.5zM741 1536q0 -15 10 -23t19 -8q19 0 29 17l112 204q4 6 4 15 q0 16 -9.5 23.5t-20.5 7.5q-21 0 -27 -17l-113 -205q-4 -4 -4 -14z" />
<glyph unicode="&#xd4;" horiz-adv-x="1579" d="M102 731q0 163 51.5 304t142 241t217.5 157.5t273 57.5q197 0 355 -97.5t247 -271.5t89 -391t-89 -391t-247 -271.5t-355 -97.5q-146 0 -273 57.5t-217.5 157.5t-142 241t-51.5 304zM174 731q0 -150 46.5 -278.5t127.5 -218t194 -139.5t244 -50q177 0 317.5 85t221 242 t80.5 359t-80.5 359.5t-221 243t-317.5 85.5q-131 0 -244 -50.5t-194 -140t-127.5 -218t-46.5 -279.5zM238 731q0 276 152 451.5t396 175.5q164 0 290.5 -80t195.5 -222.5t69 -324.5q0 -279 -153 -452t-402 -173q-162 0 -287 80t-193 222t-68 323zM309 731 q0 -249 131.5 -401t345.5 -152q217 0 350.5 152t133.5 401q0 248 -133.5 400.5t-350.5 152.5q-214 0 -345.5 -152.5t-131.5 -400.5zM510 1618q0 45 31 76l170 161q29 29 71 29q41 0 70 -29l170 -161q31 -31 31 -76q0 -44 -31 -73t-72 -29q-43 0 -71 28l-99 94l-96 -94 q-28 -28 -72 -28q-45 0 -73.5 31.5t-28.5 70.5zM582 1620q0 -14 9.5 -22.5t20.5 -8.5q13 0 21 8l147 144l148 -144q8 -8 22 -8q12 0 20.5 9.5t8.5 21.5q0 14 -8 22l-170 162q-5 8 -21 8q-12 0 -20 -8l-168 -162q-10 -10 -10 -22z" />
<glyph unicode="&#xd5;" horiz-adv-x="1579" d="M102 731q0 163 51.5 304t142 241t217.5 157.5t273 57.5q197 0 355 -97.5t247 -271.5t89 -391t-89 -391t-247 -271.5t-355 -97.5q-146 0 -273 57.5t-217.5 157.5t-142 241t-51.5 304zM176 731q0 -151 46 -279.5t126.5 -218t193.5 -140t244 -50.5q177 0 317.5 85.5t221 243 t80.5 359.5t-80.5 359t-221 242t-317.5 85q-131 0 -244 -50t-193.5 -139.5t-126.5 -217.5t-46 -279zM238 731q0 181 68 323t193 222t287 80q248 0 402.5 -174.5t154.5 -450.5q0 -184 -69.5 -326.5t-196.5 -221.5t-291 -79q-244 0 -396 175.5t-152 451.5zM309 731 q0 -249 131.5 -401t345.5 -152q217 0 350.5 152t133.5 401q0 248 -133.5 400.5t-350.5 152.5q-214 0 -345.5 -152.5t-131.5 -400.5zM438 1651q0 14 2 22q19 89 85 144t153 55q95 0 162 -64q3 -3 17 -19.5t25 -26t19 -9.5q14 0 23.5 11.5t13.5 25.5q7 35 36 58.5t64 23.5 q43 0 74 -31t31 -72q0 -14 -2 -22q-20 -88 -87 -143.5t-153 -55.5q-107 0 -180 82q-1 1 -5.5 7.5t-9 12.5t-12.5 11.5t-16 5.5q-14 0 -23.5 -11.5t-13.5 -25.5q-7 -36 -36 -59t-66 -23q-42 0 -71.5 31t-29.5 72zM510 1651q0 -11 9.5 -21t21.5 -10q20 0 28 25q9 41 40 67.5 t69 26.5q53 0 90 -49q54 -70 133 -70q60 0 106.5 38.5t61.5 98.5l2 12q0 12 -9 20.5t-22 8.5q-10 0 -18.5 -6t-9.5 -16q-9 -41 -40 -68t-71 -27q-50 0 -90 52q-50 67 -133 67q-59 0 -105 -37.5t-61 -97.5q-2 -10 -2 -14z" />
<glyph unicode="&#xd6;" horiz-adv-x="1579" d="M102 731q0 254 119.5 446t319.5 269q-21 32 -21 61v92q0 43 31 73t74 30q41 0 71.5 -30t30.5 -73v-92q0 -12 -2 -18q20 2 61 2q22 0 68 -4q-2 8 -2 20v92q0 43 30.5 73t73.5 30q42 0 72.5 -30.5t30.5 -72.5v-92q0 -35 -23 -61q202 -79 321.5 -270t119.5 -445 q0 -217 -89 -391t-247 -271.5t-355 -97.5q-146 0 -273 57.5t-217.5 157.5t-142 241t-51.5 304zM174 731q0 -151 46.5 -279.5t127.5 -218t194 -140t244 -50.5q177 0 317.5 85.5t221 243t80.5 359.5t-80.5 359t-221 242t-317.5 85q-131 0 -244 -50t-194 -139.5t-127.5 -218 t-46.5 -278.5zM238 731q0 181 68 323t193 222t287 80q248 0 401.5 -174.5t153.5 -450.5q0 -279 -153.5 -453t-401.5 -174q-244 0 -396 175.5t-152 451.5zM309 731q0 -249 131.5 -401t345.5 -152q217 0 350.5 152t133.5 401q0 248 -133.5 400.5t-350.5 152.5 q-214 0 -345.5 -152.5t-131.5 -400.5zM592 1507q0 -11 10 -20.5t23 -9.5q12 0 20 9.5t8 20.5v92q0 11 -8 20t-20 9q-13 0 -23 -9t-10 -20v-92zM924 1507q0 -11 9.5 -20.5t22.5 -9.5q12 0 20.5 9.5t8.5 20.5v92q0 11 -8.5 20t-20.5 9q-13 0 -22.5 -9t-9.5 -20v-92z" />
<glyph unicode="&#xd7;" horiz-adv-x="1048" d="M102 358q0 43 31 74l246 246l-246 244q-31 31 -31 73q0 44 31 73.5t74 29.5q44 0 72 -31l245 -244l246 244q31 31 72 31q45 0 74.5 -31.5t29.5 -71.5q0 -42 -31 -73l-245 -244l245 -246q31 -31 31 -74q0 -40 -31.5 -71t-72.5 -31q-44 0 -72 31l-246 243l-245 -243 q-31 -31 -72 -31q-40 0 -72.5 31.5t-32.5 70.5zM174 358q0 -10 8.5 -19t22.5 -9t22 8l297 297l297 -297q8 -8 23 -8q9 0 19.5 8t10.5 22q0 11 -10 21l-297 299l297 297q8 8 8 20q0 13 -8 23t-22 10q-11 0 -21 -10l-297 -297l-299 297q-8 8 -20 8q-10 0 -20.5 -8.5 t-10.5 -22.5q0 -12 8 -20l299 -297l-299 -299q-8 -8 -8 -23z" />
<glyph unicode="&#xd8;" horiz-adv-x="1579" d="M102 731q0 163 51.5 304t142 241t217.5 157.5t273 57.5q157 0 291 -64l39 66q13 24 38 38.5t52 14.5q40 0 71.5 -29.5t31.5 -74.5q0 -27 -15 -51l-47 -80q109 -105 169.5 -254t60.5 -326q0 -217 -89 -391t-247 -271.5t-355 -97.5q-144 0 -276 58l-43 -74q-28 -51 -90 -51 q-39 0 -72 29.5t-33 74.5q0 27 15 51l49 86q-111 103 -172.5 254.5t-61.5 331.5zM174 731q0 -185 67.5 -332.5t188.5 -238.5l-80 -137q-6 -9 -6 -17q0 -14 10.5 -22.5t20.5 -8.5q17 0 26 17l80 135q136 -82 305 -82q177 0 317.5 85t221 242t80.5 359q0 182 -65.5 328 t-182.5 237l74 129q6 9 6 17q0 14 -9.5 23.5t-21.5 9.5q-16 0 -26 -17l-74 -127q-147 88 -320 88q-131 0 -244 -50.5t-194 -140t-127.5 -218t-46.5 -279.5zM236 731q0 181 68.5 323.5t194 223t287.5 80.5q160 0 289 -80l-614 -1065q-107 84 -166 218t-59 300zM309 731 q0 -248 133 -403l533 919q-84 37 -189 37q-214 0 -345.5 -152.5t-131.5 -400.5zM510 178l616 1065q103 -84 159 -216t56 -296q0 -279 -153 -452t-402 -173q-153 0 -276 72zM612 209q82 -31 174 -31q217 0 350.5 152t133.5 401q0 241 -129 395z" />
<glyph unicode="&#xd9;" horiz-adv-x="1404" d="M143 485v895q0 43 30 73t73 30t73.5 -30t30.5 -73v-899q0 -303 346 -303q79 0 142 16t113 50t77 94t27 143v899q0 43 29.5 73t72.5 30t74 -30t31 -73v-895q0 -109 -31.5 -197t-85 -146.5t-127 -97.5t-154 -56t-168.5 -17q-264 0 -408.5 134.5t-144.5 379.5zM215 485 q0 -221 127 -330.5t354 -109.5q106 0 193.5 25.5t154.5 77t104.5 137.5t37.5 200v895q0 12 -9.5 21.5t-21.5 9.5t-21.5 -9.5t-9.5 -21.5v-897q0 -193 -116 -285t-312 -92q-200 0 -310 91.5t-110 285.5v897q0 12 -9 21.5t-21 9.5q-13 0 -22 -9.5t-9 -21.5v-895zM498 1741 q0 44 32.5 74t71.5 30q62 0 90 -55l113 -207q12 -21 12 -45q0 -45 -31.5 -75.5t-70.5 -30.5q-28 0 -53.5 14.5t-38.5 38.5l-113 207q-12 24 -12 49zM569 1741q0 -9 4 -15l113 -204q10 -17 27 -17q10 0 20 8t10 23q0 10 -4 14l-112 205q-6 17 -27 17q-11 0 -21 -7.5 t-10 -23.5z" />
<glyph unicode="&#xda;" horiz-adv-x="1404" d="M143 485v895q0 43 30 73t73 30t73.5 -30t30.5 -73v-899q0 -162 90 -232.5t256 -70.5q79 0 142 16t113 50t77 94t27 143v899q0 43 29.5 73t72.5 30t74 -30t31 -73v-895q0 -110 -31.5 -198t-85 -146t-127 -97t-153.5 -56t-169 -17q-264 0 -408.5 134.5t-144.5 379.5z M215 485q0 -221 127 -331.5t354 -110.5q106 0 193.5 25.5t154.5 77.5t104.5 138.5t37.5 200.5v895q0 12 -9.5 20.5t-21.5 8.5t-21.5 -8.5t-9.5 -20.5v-897q0 -193 -116 -286t-312 -93q-200 0 -310 92.5t-110 286.5v897q0 12 -9 20.5t-21 8.5q-13 0 -22 -8.5t-9 -20.5v-895z M541 1538q0 28 10 45l113 207q28 55 90 55q40 0 72 -30t32 -74q0 -25 -12 -49l-113 -207q-29 -53 -90 -53q-40 0 -71 30t-31 76zM612 1536q0 -15 10.5 -23t20.5 -8q17 0 27 17l112 204q4 6 4 15q0 16 -9.5 23.5t-20.5 7.5q-21 0 -27 -17l-113 -205q-4 -4 -4 -14z" />
<glyph unicode="&#xdb;" horiz-adv-x="1404" d="M143 485v895q0 43 30 73t73 30t73.5 -30t30.5 -73v-899q0 -303 346 -303q79 0 142 16t113 50t77 94t27 143v899q0 43 29.5 73t72.5 30t74 -30t31 -73v-895q0 -109 -31.5 -197t-85 -146.5t-127 -97.5t-154 -56t-168.5 -17q-264 0 -408.5 134.5t-144.5 379.5zM215 485 q0 -221 127 -330.5t354 -109.5q106 0 193.5 25.5t154.5 77t104.5 137.5t37.5 200v895q0 12 -9.5 21.5t-21.5 9.5t-21.5 -9.5t-9.5 -21.5v-897q0 -193 -116 -285t-312 -92q-200 0 -310 91.5t-110 285.5v897q0 12 -9 21.5t-21 9.5q-13 0 -22 -9.5t-9 -21.5v-895zM428 1585 q0 45 31 76l170 162q28 28 71 28q42 0 70 -28l170 -162q31 -31 31 -76q0 -44 -31 -73t-72 -29q-43 0 -71 28l-99 95l-96 -95q-28 -28 -72 -28q-45 0 -73.5 31.5t-28.5 70.5zM500 1587q0 -14 9.5 -22.5t20.5 -8.5q12 0 21 9l147 143l148 -143q9 -9 22 -9q12 0 20.5 9.5 t8.5 21.5q0 15 -8 23l-170 162q-5 8 -21 8q-12 0 -20 -8l-168 -162q-10 -10 -10 -23z" />
<glyph unicode="&#xdc;" horiz-adv-x="1404" d="M143 485v895q0 43 31 73t74 30t72.5 -30t29.5 -73v-899q0 -161 90.5 -232t257.5 -71q164 0 260.5 71.5t96.5 231.5v899q0 43 30.5 73t73.5 30t73 -30t30 -73v-895q0 -109 -31.5 -197t-84.5 -146.5t-126.5 -97.5t-153.5 -56t-168 -17q-264 0 -409.5 135t-145.5 379z M215 485q0 -221 127 -330.5t354 -109.5q106 0 193.5 25.5t154.5 77t104.5 137.5t37.5 200v895q0 12 -9.5 21.5t-21.5 9.5t-21.5 -9.5t-9.5 -21.5v-897q0 -193 -116 -285t-312 -92q-200 0 -310 91.5t-110 285.5v897q0 12 -9 21.5t-21 9.5q-13 0 -22 -9.5t-9 -21.5v-895z M430 1507v92q0 43 31 73t74 30q41 0 71.5 -30t30.5 -73v-92q0 -41 -30.5 -71.5t-71.5 -30.5q-43 0 -74 30.5t-31 71.5zM504 1507q0 -11 9 -19.5t22 -8.5q12 0 21 8.5t9 19.5v92q0 11 -9 21t-21 10q-13 0 -22 -10t-9 -21v-92zM762 1507v92q0 43 30.5 73t73.5 30 q42 0 72.5 -30.5t30.5 -72.5v-92q0 -41 -31 -71.5t-72 -30.5q-43 0 -73.5 30.5t-30.5 71.5zM836 1507q0 -11 8.5 -19.5t21.5 -8.5q12 0 21.5 8.5t9.5 19.5v92q0 11 -9.5 21t-21.5 10q-13 0 -21.5 -10t-8.5 -21v-92z" />
<glyph unicode="&#xdd;" horiz-adv-x="1275" d="M41 1380q0 44 32 73.5t72 29.5q50 0 82 -43l412 -570l410 570q32 43 84 43q40 0 71 -28.5t31 -72.5q0 -40 -18 -63l-476 -660v-573q0 -43 -30.5 -72.5t-73.5 -29.5q-42 0 -72 30t-30 72v573l-474 660q-20 26 -20 61zM113 1380q0 -12 6 -18l487 -678v-598q0 -12 9 -21.5 t22 -9.5q12 0 21.5 9.5t9.5 21.5v598l487 678q6 9 6 18q0 12 -9.5 20.5t-21.5 8.5q-15 0 -24 -12l-469 -652l-469 652q-7 12 -25 12q-13 0 -21.5 -8.5t-8.5 -20.5zM479 1538q0 28 10 45l113 207q28 55 90 55q40 0 72.5 -30t32.5 -74q0 -23 -13 -49l-112 -207 q-29 -53 -90 -53q-40 0 -71.5 30t-31.5 76zM551 1536q0 -15 10.5 -23t20.5 -8q16 0 26 17l113 204q4 6 4 15q0 16 -10 23.5t-21 7.5q-20 0 -26 -17l-113 -205q-4 -4 -4 -14z" />
<glyph unicode="&#xde;" horiz-adv-x="1308" d="M184 84v1294q0 43 31 74t72 31q43 0 73.5 -31t30.5 -74v-123h383q218 0 345.5 -119.5t127.5 -320.5q0 -214 -127.5 -330t-361.5 -116h-367v-285q0 -43 -30.5 -72.5t-73.5 -29.5t-73 29.5t-30 72.5zM256 84q0 -11 9.5 -21t21.5 -10q13 0 21.5 10t8.5 21v356h441 q200 0 309 94.5t109 280.5q0 173 -108.5 271t-293.5 98h-457v194q0 12 -8.5 21.5t-21.5 9.5q-12 0 -21.5 -9.5t-9.5 -21.5v-1294zM317 502v618l457 2q163 0 251.5 -80.5t88.5 -226.5q0 -313 -356 -313h-441zM391 573h367q72 0 125 14t83 36t47.5 56t23 65t5.5 71 q0 234 -268 234h-383v-476z" />
<glyph unicode="&#xdf;" horiz-adv-x="1079" d="M143 102v965q0 195 107.5 309.5t277.5 114.5q192 0 301 -105.5t109 -275.5q0 -148 -80 -252q-17 -23 -33 -37q10 -5 39 -30q135 -129 135 -361q0 -196 -104 -315q-58 -68 -149 -106t-193 -38q-32 0 -78 11q-91 23 -88 112q1 42 37 70t76 22q10 -1 29.5 -4.5t23.5 -3.5 q69 1 118.5 22.5t74.5 58.5t36 78.5t11 90.5q0 194 -127 250q-56 24 -82.5 55.5t-26.5 77.5q0 34 9.5 60t27.5 41.5t29 22t28 13.5q80 35 80 162q0 176 -201 176q-88 0 -134 -57.5t-46 -157.5v-969q0 -42 -30 -72t-72 -30q-43 0 -74 30t-31 72zM215 90q0 -12 9.5 -21.5 t21.5 -9.5t21 9.5t9 21.5v1020q10 106 71.5 177t174.5 71q281 0 281 -254q0 -77 -35.5 -139t-91.5 -84q-51 -20 -49 -72q1 -21 16.5 -35.5t46.5 -30.5q82 -38 128 -111t46 -206q0 -151 -85.5 -234.5t-219.5 -85.5q-29 0 -61 9q-12 3 -23 -3.5t-14 -17.5q-6 -29 20 -39 q27 -10 76 -10q100 0 180 42t129 114q60 94 60 215q0 155 -53 242t-142 133q-4 2 -10.5 5.5t-10 5.5t-7.5 4.5t-6 5t-3 5.5q1 6 21 19q60 27 104.5 99.5t44.5 168.5q0 151 -89.5 233t-252.5 82q-65 0 -119.5 -23t-88 -58.5t-57 -78.5t-33 -80.5t-9.5 -68.5v-1020z" />
<glyph unicode="&#xe0;" horiz-adv-x="1155" d="M96 309q0 152 92 240q107 101 367 131q157 15 238 51v43q0 64 -48 100q-49 35 -155 35q-153 0 -213 -78q-11 -15 -18.5 -30.5t-8.5 -24.5l-2 -8q-3 -41 -32.5 -69.5t-69.5 -28.5q-39 0 -73.5 29t-31.5 81q12 98 70 176q122 160 379 160q218 0 330 -121q79 -89 79 -225 v-543q0 -27 5 -34q45 1 76.5 -30t31.5 -75q0 -43 -30.5 -73.5t-71.5 -30.5q-102 0 -160 67q-12 14 -27 37q-144 -117 -344 -117q-176 0 -279.5 93t-103.5 245zM172 307q0 -51 17.5 -96.5t53 -84t97.5 -61t143 -22.5q207 0 346 147q22 25 39 52l4 -43q0 -64 35 -101 q37 -43 105 -43q12 0 21 9.5t9 21.5t-9.5 21.5t-22.5 9.5q-80 3 -80 102v553q0 104 -62 174q-86 96 -274 96q-219 0 -322 -131q-22 -29 -35.5 -63t-16.5 -50t-3 -22q-1 -13 8.5 -23t20.5 -10q12 0 22.5 8.5t10.5 20.5q4 51 43 102q80 107 272 107q157 0 225 -74 q49 -51 49 -133v-76q-39 -64 -303 -92q-234 -24 -323 -110q-70 -65 -70 -189zM233 309q0 97 54 146q74 68 297 92q195 20 284 74v-265q-27 -64 -84 -125q-124 -127 -301 -127q-127 0 -196 66q-54 54 -54 139zM303 309q0 -55 33 -88q43 -43 143 -43q145 0 246 101 q42 42 68 94v141q-87 -27 -215 -41q-192 -20 -248 -76q-27 -24 -27 -88zM399 1518q0 44 33 74t72 30q62 0 90 -55l113 -207q12 -21 12 -45q0 -45 -32 -76t-71 -31q-28 0 -53.5 14.5t-38.5 39.5l-112 206q-13 26 -13 50zM471 1518q0 -9 4 -15l113 -205q10 -16 26 -16 q10 0 20.5 8t10.5 23q0 10 -4 14l-113 205q-5 16 -26 16q-11 0 -21 -7.5t-10 -22.5z" />
<glyph unicode="&#xe1;" horiz-adv-x="1155" d="M96 307q0 152 92 240q111 105 367 131q158 17 238 53l2 41q0 68 -47 100q-48 35 -156 35q-155 0 -215 -78q-10 -14 -17.5 -29.5t-9.5 -24.5l-2 -9q-1 -41 -31.5 -68.5t-70.5 -27.5q-39 0 -73 29t-30 81q0 12 4 33.5t21.5 63t44.5 77.5q119 160 379 160q221 0 328 -119 q81 -89 81 -225v-545q0 -23 3 -35q47 1 78.5 -29t31.5 -73t-30.5 -73.5t-73.5 -30.5q-97 0 -160 67q-12 14 -27 37q-144 -117 -342 -117q-176 0 -280.5 92t-104.5 244zM172 307q0 -51 17.5 -96.5t53 -84t97.5 -61t143 -22.5q207 0 346 147q22 25 39 52l4 -43q0 -64 35 -101 q37 -43 105 -43q12 0 21 9.5t9 21.5t-9 21.5t-21 9.5q-82 0 -82 102v553q0 104 -62 174q-90 96 -274 96q-219 0 -322 -131q-22 -29 -35.5 -63t-16.5 -50t-3 -22q-1 -14 8 -23.5t21 -11.5q13 0 23 9t10 22q4 51 43 102q80 107 272 107q157 0 225 -74q49 -51 49 -135v-74 q-39 -64 -303 -92q-234 -24 -323 -110q-70 -65 -70 -189zM233 309q0 97 54 146q74 68 297 92q195 20 284 74v-265q-27 -64 -84 -125q-124 -127 -301 -127q-127 0 -196 66q-54 54 -54 139zM303 309q0 -55 33 -88q43 -43 143 -43q145 0 246 101q42 42 68 94v139 q-91 -26 -215 -39q-192 -20 -248 -76q-27 -24 -27 -88zM451 1315q0 27 10 45l112 207q13 26 38 40.5t53 14.5q40 0 72 -30t32 -74q0 -26 -12 -50l-113 -206q-14 -25 -38 -39.5t-52 -14.5q-40 0 -71 30.5t-31 76.5zM522 1313q0 -15 10.5 -23t20.5 -8q17 0 27 16l112 205 q4 6 4 15q0 16 -9.5 23t-20.5 7q-22 0 -27 -16l-113 -205q-4 -4 -4 -14z" />
<glyph unicode="&#xe2;" horiz-adv-x="1155" d="M96 307q0 152 92 240q111 105 367 131q158 17 238 53v41q0 69 -48 100q-45 35 -155 35q-156 0 -213 -78q-11 -14 -18.5 -29.5t-8.5 -24.5l-2 -9q-3 -41 -32.5 -68.5t-69.5 -27.5q-39 0 -73.5 29t-31.5 81q14 98 70 174q119 160 379 160q220 0 330 -119q79 -89 79 -225 v-545q0 -25 5 -35q45 1 76.5 -29t31.5 -73t-30.5 -73.5t-71.5 -30.5q-102 0 -160 67q-12 14 -27 37q-144 -117 -344 -117q-176 0 -279.5 92t-103.5 244zM172 307q0 -51 17.5 -96.5t53 -84t97.5 -61t143 -22.5q207 0 346 147q22 25 39 52l4 -43q0 -64 35 -101q37 -43 105 -43 q12 0 21 9.5t9 21.5t-9.5 21.5t-22.5 9.5q-80 0 -80 102v553q0 104 -62 174q-90 96 -274 96q-219 0 -322 -131q-22 -29 -35.5 -63t-16.5 -50t-3 -22q-1 -14 8 -23.5t21 -11.5q13 0 23 9t10 22q4 51 43 102q80 107 272 107q157 0 225 -74q49 -51 49 -135v-74 q-39 -64 -303 -92q-234 -24 -323 -110q-70 -65 -70 -189zM233 309q0 97 54 146q74 68 297 92q195 20 284 74v-265q-27 -64 -84 -125q-124 -127 -301 -127q-127 0 -196 66q-54 54 -54 139zM303 309q0 -55 33 -88q43 -43 143 -43q145 0 246 101q42 42 68 94v139 q-91 -26 -215 -39q-192 -20 -248 -76q-27 -24 -27 -88zM338 1323q0 45 31 76l170 162q28 28 71 28q42 0 70 -28l170 -162q31 -31 31 -76q0 -44 -31 -73t-72 -29q-43 0 -71 28l-99 94l-96 -94q-28 -28 -72 -28q-45 0 -73.5 31.5t-28.5 70.5zM410 1325q0 -14 9.5 -22.5 t20.5 -8.5q12 0 21 9l147 143l148 -143q9 -9 22 -9q12 0 20.5 9.5t8.5 21.5q0 15 -8 23l-170 161q-6 9 -21 9q-11 0 -20 -9l-168 -161q-10 -10 -10 -23z" />
<glyph unicode="&#xe3;" horiz-adv-x="1155" d="M96 307q0 152 92 240q111 105 367 131q153 17 240 53v41q0 68 -47 100q-48 35 -156 35q-155 0 -215 -78q-10 -14 -17.5 -29.5t-9.5 -24.5l-2 -9q-1 -41 -31.5 -68.5t-70.5 -27.5q-39 0 -73 29t-30 81q0 12 4 33.5t21.5 63t44.5 77.5q119 160 379 160q221 0 328 -119 q81 -89 81 -225v-545q0 -23 3 -35q47 1 78.5 -29t31.5 -73t-30.5 -73.5t-73.5 -30.5q-97 0 -160 67q-12 14 -27 37q-144 -117 -342 -117q-176 0 -280.5 92t-104.5 244zM172 307q0 -51 18 -97t53.5 -84t97.5 -60.5t142 -22.5q207 0 346 147q22 25 39 52l4 -43q0 -1 1 -12 t2.5 -20t5 -22t10.5 -25t16 -22q37 -43 105 -43q12 0 21 9.5t9 21.5t-9 21.5t-21 9.5q-82 0 -82 102v553q0 104 -62 174q-90 96 -274 96q-219 0 -322 -131q-22 -29 -35.5 -63t-16.5 -50t-3 -22q-1 -14 8 -23.5t21 -11.5q13 0 23 9t10 22q4 51 43 102q80 107 272 107 q157 0 225 -74q49 -51 49 -135v-74q-39 -65 -303 -92q-234 -24 -323 -110q-70 -65 -70 -189zM233 309q0 97 54 146q74 68 297 92q195 20 284 74v-265q-27 -64 -84 -125q-124 -127 -301 -127q-127 0 -196 66q-54 54 -54 139zM256 1311q0 14 2 22q19 89 85 144t153 55 q94 0 161 -64q2 -2 16.5 -19t26 -26.5t19.5 -9.5q14 0 23.5 11.5t13.5 25.5q7 35 36 58.5t64 23.5q44 0 74.5 -31t30.5 -71q0 -11 -3 -23q-20 -88 -86.5 -143.5t-152.5 -55.5q-107 0 -180 82q-1 1 -5.5 7.5t-9 12.5t-12.5 11.5t-16 5.5q-14 0 -23.5 -11.5t-13.5 -25.5 q-7 -36 -36.5 -59t-66.5 -23q-42 0 -71 31t-29 72zM303 309q0 -55 33 -88q43 -43 143 -43q145 0 246 101q42 42 68 94v141q-87 -27 -215 -41q-192 -20 -248 -76q-27 -24 -27 -88zM328 1311q0 -11 9 -21t21 -10q21 0 29 25q9 41 40 67.5t69 26.5q53 0 90 -49q54 -70 133 -70 q60 0 106.5 38.5t61.5 98.5l2 13q0 12 -9 20t-22 8q-10 0 -19 -6t-10 -16q-9 -41 -39.5 -68t-70.5 -27q-50 0 -90 52q-50 67 -133 67q-59 0 -105 -37.5t-61 -97.5q-2 -10 -2 -14z" />
<glyph unicode="&#xe4;" horiz-adv-x="1155" d="M96 307q0 152 92 240q111 105 367 131q153 17 240 53l-2 41q0 69 -48 100q-45 35 -155 35q-156 0 -213 -78q-11 -14 -18.5 -29.5t-8.5 -24.5l-2 -9q-3 -41 -32.5 -68.5t-69.5 -27.5q-39 0 -73.5 29t-31.5 81q14 98 70 174q119 160 379 160q220 0 330 -119q79 -89 79 -225 v-545q0 -25 5 -35q45 1 76.5 -29t31.5 -73t-30.5 -73.5t-71.5 -30.5q-102 0 -160 67q-12 14 -27 37q-144 -117 -344 -117q-176 0 -279.5 92t-103.5 244zM172 307q0 -51 17.5 -96.5t53 -84t97.5 -61t143 -22.5q207 0 346 147q22 25 39 52l4 -43q0 -64 35 -101q37 -43 105 -43 q12 0 21 9.5t9 21.5t-9.5 21.5t-22.5 9.5q-80 0 -80 102v553q0 104 -62 174q-90 96 -274 96q-219 0 -322 -131q-22 -29 -35.5 -63t-16.5 -50t-3 -22q-1 -14 8 -23.5t21 -11.5q13 0 23 9t10 22q4 51 43 102q80 107 272 107q157 0 225 -74q49 -51 49 -135v-74 q-39 -64 -303 -92q-234 -24 -323 -110q-70 -65 -70 -189zM233 309q0 97 54 146q74 68 297 92q195 20 284 74v-265q-27 -64 -84 -125q-124 -127 -301 -127q-127 0 -196 66q-54 54 -54 139zM303 309q0 -55 33 -88q43 -43 143 -43q145 0 246 101q42 42 68 94v139 q-91 -26 -215 -39q-192 -20 -248 -76q-27 -24 -27 -88zM313 1296v93q0 42 31 72t74 30q42 0 72 -30t30 -72v-93q0 -41 -30.5 -71.5t-71.5 -30.5q-43 0 -74 30.5t-31 71.5zM387 1296q0 -11 9 -19.5t22 -8.5q12 0 21.5 8.5t9.5 19.5v93q0 11 -9.5 20.5t-21.5 9.5 q-13 0 -22 -9.5t-9 -20.5v-93zM645 1296v93q0 42 31 72t74 30q42 0 72 -30t30 -72v-93q0 -41 -30.5 -71.5t-71.5 -30.5q-43 0 -74 30.5t-31 71.5zM719 1296q0 -11 9 -19.5t22 -8.5q12 0 21 8.5t9 19.5v93q0 11 -9 20.5t-21 9.5q-13 0 -22 -9.5t-9 -20.5v-93z" />
<glyph unicode="&#xe5;" horiz-adv-x="1155" d="M96 307q0 152 92 240q111 105 367 131q153 17 240 53l-2 41q0 69 -48 100q-45 35 -155 35q-156 0 -213 -78q-11 -14 -18.5 -29.5t-8.5 -24.5l-2 -9q-3 -41 -32.5 -68.5t-69.5 -27.5q-39 0 -73.5 29t-31.5 81q14 98 70 174q119 160 379 160q220 0 330 -119q79 -89 79 -225 v-545q0 -25 5 -35q45 1 76.5 -29t31.5 -73t-30.5 -73.5t-71.5 -30.5q-102 0 -160 67q-12 14 -27 37q-144 -117 -344 -117q-176 0 -279.5 92t-103.5 244zM172 307q0 -51 17.5 -96.5t53 -84t97.5 -61t143 -22.5q207 0 346 147q22 25 39 52l4 -43q0 -64 35 -101q37 -43 105 -43 q12 0 21 9.5t9 21.5t-9.5 21.5t-22.5 9.5q-80 0 -80 102v553q0 104 -62 174q-90 96 -274 96q-219 0 -322 -131q-22 -29 -35.5 -63t-16.5 -50t-3 -22q-1 -14 8 -23.5t21 -11.5q13 0 23 9t10 22q4 51 43 102q80 107 272 107q157 0 225 -74q49 -51 49 -135v-74 q-39 -64 -303 -92q-234 -24 -323 -110q-70 -65 -70 -189zM233 309q0 97 54 146q74 68 297 92q195 20 284 74v-265q-27 -64 -84 -125q-124 -127 -301 -127q-127 0 -196 66q-54 54 -54 139zM303 309q0 -55 33 -88q43 -43 143 -43q145 0 246 101q42 42 68 94v139 q-91 -26 -215 -39q-192 -20 -248 -76q-27 -24 -27 -88zM375 1411q0 94 69.5 164t163.5 70t164 -70t70 -164t-70 -163.5t-164 -69.5t-163.5 69.5t-69.5 163.5zM428 1411q0 -75 52.5 -127.5t127.5 -52.5t127.5 52.5t52.5 127.5q0 74 -52.5 127t-127.5 53t-127.5 -53 t-52.5 -127zM477 1411q0 54 38.5 92.5t92.5 38.5q55 0 94 -38.5t39 -92.5t-39 -92.5t-94 -38.5q-54 0 -92.5 38.5t-38.5 92.5zM528 1411q0 -32 24 -56t56 -24t56 24t24 56t-24 56t-56 24t-56 -24t-24 -56z" />
<glyph unicode="&#xe6;" horiz-adv-x="1859" d="M98 309q0 155 92 240q111 105 367 131q158 17 238 53q0 59 -4.5 82t-24.5 45q-46 49 -174 49q-146 0 -205 -65q-30 -33 -37 -72q-2 -42 -31 -71t-73 -29q-42 0 -72.5 29.5t-30.5 70.5q0 43 21.5 101.5t73.5 113.5q123 129 354 129q136 0 217 -39t135 -108 q138 147 352 147q204 0 326 -125q75 -73 114 -188t42 -242q0 -45 -29 -74q-32 -32 -76 -32h-672q48 -277 306 -277q192 0 247 174q12 40 50.5 60t78.5 8q41 -14 61 -52t7 -79q-46 -151 -166 -234.5t-278 -83.5q-126 0 -222 46t-184 147q-69 -78 -174.5 -135.5t-245.5 -57.5 q-180 0 -281.5 95.5t-101.5 242.5zM170 309q0 -51 17.5 -96.5t53 -84t97.5 -61t143 -22.5q148 0 259 75.5t167 182.5q52 -120 151.5 -189t246.5 -69q135 0 234.5 68t141.5 198q4 12 -2 23t-18 14q-12 5 -23 -0.5t-14 -17.5q-35 -109 -117 -166.5t-202 -57.5 q-181 0 -279.5 113.5t-101.5 308.5h749q14 0 23 9q8 8 8 22q-3 120 -37.5 219t-95.5 162q-104 104 -275 104q-132 0 -226 -66.5t-148 -174.5q-8 114 -93 177.5t-237 63.5q-198 0 -303 -108q-70 -75 -74 -164q2 -12 10.5 -20.5t20.5 -8.5q13 0 21.5 9.5t8.5 21.5 q0 19 13.5 53.5t44.5 67.5q85 88 258 88q157 0 227 -76q12 -12 20 -24.5t13 -28.5t8.5 -26t4.5 -31t1.5 -29.5t0 -34.5t-0.5 -35q-41 -62 -303 -90q-235 -27 -323 -112q-70 -65 -70 -187zM231 309q0 94 50 142q76 73 290 96q198 21 297 76q-19 -108 11 -238 q-19 -52 -54 -100t-84 -89t-116.5 -65.5t-143.5 -24.5q-114 0 -182 51.5t-68 151.5zM303 309q0 -64 47 -97.5t131 -33.5q112 0 198.5 61.5t123.5 153.5q-12 55 -15 119q-92 -26 -210 -37q-192 -22 -246 -76q-29 -26 -29 -90zM926 590q4 56 19 109.5t44.5 105.5t70.5 91 t102 63t134 24q160 0 246 -103.5t98 -289.5h-714zM1010 662h551q-24 124 -86.5 185.5t-178.5 61.5q-108 0 -184 -65.5t-102 -181.5z" />
<glyph unicode="&#xe7;" horiz-adv-x="1126" d="M82 543q0 256 140.5 414.5t367.5 158.5q169 0 286.5 -85t157.5 -236q4 -16 4 -25q0 -42 -31 -73t-73 -31q-34 0 -62.5 21t-37.5 56q-43 166 -244 166q-141 0 -221 -97t-80 -269q0 -170 80 -267.5t219 -97.5q217 0 252 201q7 41 42.5 65.5t78.5 18.5q38 -7 60.5 -36 t22.5 -69q0 -43 -28 -113t-72 -124q-105 -124 -278 -146l-33 -79q102 -29 151.5 -95t49.5 -143q0 -116 -91 -188q-86 -70 -217 -70q-50 0 -108 12q-41 7 -65 43.5t-15 77.5q9 42 44.5 65.5t76.5 14.5q110 -19 155 16q15 12 15 29q0 25 -42.5 38t-99.5 13q-55 0 -86 45 q-28 46 -10 96l58 140q-169 45 -268 192.5t-99 360.5zM154 543q0 -210 105 -347.5t290 -150.5l-90 -223q-6 -15 2 -29q9 -12 26 -12q93 0 153 -31t60 -92q0 -51 -41 -86q-72 -59 -215 -31q-12 3 -22.5 -4t-11.5 -20q-3 -12 3.5 -22t18.5 -13q41 -10 94 -10q107 0 172 53 q64 52 64 133t-63.5 125.5t-168.5 54.5l84 207q171 8 269 117q40 48 62 103t26 95q0 24 -27 31q-12 0 -22 -7t-11 -19q-24 -129 -108 -195t-215 -66q-177 0 -275 121t-98 318q0 195 99 316.5t274 121.5q125 0 206 -56t109 -163q1 -10 9.5 -17.5t19.5 -7.5q12 0 21.5 9.5 t11.5 21.5l-2 8q-34 133 -133.5 200.5t-241.5 67.5q-136 0 -235.5 -66t-149 -178.5t-49.5 -256.5z" />
<glyph unicode="&#xe8;" horiz-adv-x="1150" d="M82 551q0 122 43 235t123 193q64 64 151.5 100.5t188.5 36.5q200 0 325 -125q147 -150 156 -430q0 -44 -29 -76q-30 -30 -73 -30h-672q19 -132 97.5 -204.5t205.5 -72.5q37 0 70.5 7.5t69 25t64 53.5t44.5 86q10 33 38 52.5t62 19.5q42 0 72.5 -29t30.5 -71q0 -12 -7 -33 q-46 -149 -163.5 -233.5t-280.5 -84.5q-235 0 -375.5 154.5t-140.5 425.5zM154 549q0 -232 117.5 -368t326.5 -136q140 0 238 70t137 192q1 2 2 5l1.5 4.5t0.5 2.5q0 13 -9.5 22t-23.5 9q-23 0 -29 -22q-35 -109 -117.5 -165.5t-199.5 -56.5q-181 0 -279.5 114.5 t-103.5 305.5h752q13 0 20 11q10 10 10 22q-9 241 -125 369q-107 116 -284 116q-94 0 -169 -34.5t-122 -81.5q-143 -146 -143 -379zM217 588q10 178 114.5 286.5t254.5 108.5q162 0 248.5 -104t97.5 -291h-715zM301 662h551q-24 127 -86.5 187t-177.5 60q-108 0 -184.5 -66 t-102.5 -181zM416 1518q0 44 32.5 74t71.5 30q62 0 90 -55l113 -207q12 -21 12 -45q0 -45 -31.5 -76t-70.5 -31q-28 0 -53.5 14.5t-38.5 39.5l-113 206q-12 24 -12 50zM487 1518q0 -8 5 -15l112 -205q10 -16 27 -16q10 0 20.5 8t10.5 23q0 9 -5 14l-112 205q-5 16 -27 16 q-11 0 -21 -7.5t-10 -22.5z" />
<glyph unicode="&#xe9;" horiz-adv-x="1150" d="M82 551q0 122 43 235t123 193q64 64 151.5 100.5t188.5 36.5q200 0 325 -125q147 -150 156 -430q0 -44 -29 -76q-30 -30 -73 -30h-672q19 -132 97.5 -204.5t205.5 -72.5q37 0 70.5 7.5t69 25t64 53.5t44.5 86q10 33 38 52.5t62 19.5q42 0 72.5 -29t30.5 -71q0 -12 -7 -33 q-46 -149 -163.5 -233.5t-280.5 -84.5q-235 0 -375.5 154.5t-140.5 425.5zM154 549q0 -233 117.5 -369.5t326.5 -136.5q140 0 238 71t137 193q1 2 2 5l1.5 4.5t0.5 2.5q0 13 -9.5 22t-23.5 9q-23 0 -29 -22q-35 -109 -117.5 -166.5t-199.5 -57.5q-181 0 -279.5 115.5 t-103.5 306.5h752q13 0 20 11q10 10 10 22q-9 241 -125 369q-105 114 -284 114q-95 0 -170 -34t-121 -80q-143 -146 -143 -379zM217 588q10 178 114.5 286.5t254.5 108.5q162 0 248.5 -104t97.5 -291h-715zM301 662h551q-24 127 -86.5 187t-177.5 60q-108 0 -184.5 -66 t-102.5 -181zM418 1315q0 27 10 45l113 207q28 55 90 55q40 0 72 -30t32 -74q0 -26 -12 -50l-113 -206q-14 -25 -38 -39.5t-52 -14.5q-40 0 -71 30.5t-31 76.5zM489 1313q0 -15 10.5 -23t20.5 -8q17 0 27 16l112 205q5 7 5 15q0 15 -10 22.5t-21 7.5q-22 0 -27 -16 l-112 -205q-5 -5 -5 -14z" />
<glyph unicode="&#xea;" horiz-adv-x="1150" d="M82 551q0 122 43 235t123 193q64 64 151.5 100.5t188.5 36.5q200 0 325 -125q147 -150 156 -430q0 -44 -29 -76q-30 -30 -73 -30h-672q19 -132 97.5 -204.5t205.5 -72.5q37 0 70.5 7.5t69 25t64 53.5t44.5 86q10 33 38 52.5t62 19.5q42 0 72.5 -29t30.5 -71q0 -12 -7 -33 q-46 -149 -163.5 -233.5t-280.5 -84.5q-235 0 -375.5 154.5t-140.5 425.5zM154 549q0 -233 117.5 -369.5t326.5 -136.5q140 0 238 71t137 193q2 6 2 12q0 13 -8.5 22t-22.5 9q-23 0 -29 -22q-35 -109 -117.5 -166.5t-199.5 -57.5q-181 0 -279.5 115.5t-103.5 306.5h752 q13 0 20 11q8 8 8 22q-6 240 -123 369q-105 114 -284 114q-95 0 -170 -34t-121 -80q-143 -146 -143 -379zM217 588q10 178 114.5 286.5t254.5 108.5q162 0 248.5 -104t97.5 -291h-715zM301 662h551q-24 127 -86.5 187t-177.5 60q-108 0 -184.5 -66t-102.5 -181zM305 1323 q0 45 31 76l170 162q28 28 72 28q41 0 69 -28l170 -162q31 -31 31 -76q0 -44 -31 -73t-72 -29q-43 0 -71 28l-99 94l-96 -94q-28 -28 -71 -28q-45 0 -74 31.5t-29 70.5zM377 1325q0 -14 9.5 -22.5t21.5 -8.5q11 0 20 9l147 143l148 -143q9 -9 22 -9q12 0 20.5 9.5t8.5 21.5 q0 15 -8 23l-170 161q-6 9 -21 9q-11 0 -20 -9l-168 -161q-10 -10 -10 -23z" />
<glyph unicode="&#xeb;" horiz-adv-x="1150" d="M82 551q0 122 43 235t123 193q64 64 151.5 100.5t188.5 36.5q200 0 325 -125q147 -150 156 -430q0 -44 -29 -76q-30 -30 -73 -30h-672q19 -132 97.5 -204.5t205.5 -72.5q37 0 70.5 7.5t69 25t64 53.5t44.5 86q10 33 38 52.5t62 19.5q42 0 72.5 -29t30.5 -71q0 -12 -7 -33 q-46 -149 -163.5 -233.5t-280.5 -84.5q-235 0 -375.5 154.5t-140.5 425.5zM154 549q0 -233 117.5 -369.5t326.5 -136.5q140 0 238 71t137 193q2 6 2 12q0 13 -8.5 22t-22.5 9q-23 0 -29 -22q-35 -109 -117.5 -166.5t-199.5 -57.5q-181 0 -279.5 115.5t-103.5 306.5h752 q13 0 20 11q8 8 8 22q-6 240 -123 369q-105 114 -284 114q-95 0 -170 -34t-121 -80q-143 -146 -143 -379zM217 588q10 178 114.5 286.5t254.5 108.5q162 0 248.5 -104t97.5 -291h-715zM301 662h551q-24 127 -86.5 187t-177.5 60q-108 0 -184.5 -66t-102.5 -181zM307 1329v92 q0 43 31 73t74 30q42 0 72 -30t30 -73v-92q0 -41 -30.5 -71.5t-71.5 -30.5q-43 0 -74 30.5t-31 71.5zM381 1329q0 -11 9 -20t22 -9q12 0 21 9t9 20v92q0 11 -9 21t-21 10q-13 0 -22 -10t-9 -21v-92zM639 1329v92q0 43 30.5 73t73.5 30q42 0 72.5 -30.5t30.5 -72.5v-92 q0 -41 -31 -71.5t-72 -30.5q-43 0 -73.5 30.5t-30.5 71.5zM713 1329q0 -11 8.5 -20t21.5 -9q12 0 21.5 9t9.5 20v92q0 11 -9.5 21t-21.5 10q-13 0 -21.5 -10t-8.5 -21v-92z" />
<glyph unicode="&#xec;" d="M43 1518q0 44 32.5 74t71.5 30q28 0 53 -14.5t38 -40.5l112 -207q12 -21 12 -45q0 -45 -31.5 -76t-70.5 -31q-28 0 -53.5 14.5t-38.5 39.5l-113 206q-12 24 -12 50zM115 1518q0 -9 4 -15l112 -205q10 -16 27 -16q10 0 20.5 8t10.5 23q0 10 -4 14l-113 205q-5 16 -27 16 q-11 0 -20.5 -7t-9.5 -23zM143 86v915q0 43 31 73t74 30q42 0 72 -30t30 -73v-915q0 -41 -30.5 -71.5t-71.5 -30.5q-43 0 -74 30.5t-31 71.5zM215 86q0 -12 10 -21.5t23 -9.5q12 0 20 9.5t8 21.5v915q0 11 -8.5 21t-19.5 10q-13 0 -23 -10t-10 -21v-915z" />
<glyph unicode="&#xed;" d="M139 1315q0 26 11 45l112 207q28 55 90 55q40 0 72.5 -30t32.5 -74q0 -24 -13 -50l-112 -206q-14 -25 -38 -39.5t-52 -14.5q-40 0 -71.5 30.5t-31.5 76.5zM143 86v915q0 43 31 73t74 30q42 0 72 -30t30 -73v-915q0 -41 -30.5 -71.5t-71.5 -30.5q-43 0 -74 30.5t-31 71.5z M211 1313q0 -15 10.5 -23t20.5 -8q16 0 26 16l113 205q4 6 4 15q0 15 -10 22.5t-21 7.5q-21 0 -26 -16l-113 -205q-4 -4 -4 -14zM215 86q0 -12 10 -21.5t23 -9.5q12 0 20 9.5t8 21.5v915q0 11 -8 20t-20 9q-13 0 -23 -9t-10 -20v-915z" />
<glyph unicode="&#xee;" d="M-20 1323q0 46 30 76l170 162q28 28 72 28q42 0 70 -28l170 -162q30 -30 30 -76q0 -44 -30.5 -73t-71.5 -29q-44 0 -72 28l-98 94l-96 -94q-28 -28 -72 -28q-45 0 -73.5 31.5t-28.5 70.5zM51 1325q0 -14 9.5 -22.5t21.5 -8.5q11 0 20 9l148 143l147 -143q9 -9 23 -9 q12 0 20.5 9.5t8.5 21.5q0 14 -9 23l-170 161q-6 9 -20 9q-12 0 -21 -9l-168 -161q-10 -10 -10 -23zM143 86v915q0 43 31 73t74 30q42 0 72 -30t30 -73v-915q0 -41 -30.5 -71.5t-71.5 -30.5q-43 0 -74 30.5t-31 71.5zM217 86q0 -12 9 -21.5t22 -9.5q12 0 20 9.5t8 21.5v915 q0 11 -8.5 21t-19.5 10q-13 0 -22 -10t-9 -21v-915z" />
<glyph unicode="&#xef;" d="M-18 1331v92q0 43 30.5 73t73.5 30q42 0 72 -30t30 -73v-92q0 -41 -30.5 -71.5t-71.5 -30.5q-43 0 -73.5 30.5t-30.5 71.5zM55 1331q0 -11 9 -19.5t22 -8.5q12 0 21.5 8.5t9.5 19.5v92q0 11 -9.5 21t-21.5 10q-13 0 -22 -10t-9 -21v-92zM143 86v915q0 43 31 73t74 30 q42 0 72 -30t30 -73v-915q0 -41 -30.5 -71.5t-71.5 -30.5q-43 0 -74 30.5t-31 71.5zM217 86q0 -12 9 -21.5t22 -9.5q12 0 21.5 9.5t9.5 21.5v915q0 11 -9.5 21t-21.5 10q-13 0 -22 -10t-9 -21v-915zM313 1331v92q0 43 31 73t74 30q42 0 72 -30t30 -73v-92q0 -41 -30.5 -71.5 t-71.5 -30.5q-43 0 -74 30.5t-31 71.5zM387 1331q0 -11 9 -19.5t22 -8.5q12 0 21.5 8.5t9.5 19.5v92q0 11 -9.5 21t-21.5 10q-13 0 -22 -10t-9 -21v-92z" />
<glyph unicode="&#xf0;" horiz-adv-x="1173" d="M86 506q0 239 126.5 387.5t340.5 148.5q120 0 209 -45q-45 111 -92 164l-92 -63q-20 -13 -41 -13q-33 0 -52.5 20t-19.5 50q0 36 29 59l55 39q-65 31 -131 31q-43 0 -73 29.5t-30 72.5q0 42 29.5 72.5t71.5 32.5q180 -3 317 -109l105 74q17 14 43 14q31 0 51 -21.5 t20 -51.5q0 -37 -30 -58l-82 -57q101 -127 147.5 -312.5t46.5 -383.5q-3 -201 -37 -299q-52 -155 -165 -236.5t-271 -81.5q-97 0 -183 36t-151 102.5t-103 169.5t-38 229zM158 508q0 -206 108.5 -335.5t294.5 -129.5q209 0 324 172q80 117 76 354q0 80 -7.5 160t-27.5 183.5 t-65 199t-111 162.5l145 102q12 9 12 23q0 11 -7.5 18.5t-18.5 7.5q-8 0 -17 -6l-155 -108q-131 103 -291 108q-11 0 -21 -7.5t-10 -22.5q0 -13 9.5 -22t21.5 -9q129 -3 237 -84l-135 -96q-12 -6 -12 -21q0 -9 8.5 -18t18.5 -9q6 0 16 5l147 104q156 -153 187 -475 q-51 104 -137 155.5t-195 51.5q-186 0 -290.5 -128.5t-104.5 -334.5zM219 508q0 180 87 290.5t247 110.5q181 0 272 -141l3 -4q3 -5 7 -12t9.5 -18t11.5 -24.5t12 -29.5t11 -35.5t9 -40.5t6.5 -46t2.5 -50q0 -79 -18.5 -148t-32 -93.5t-19.5 -30.5q-97 -132 -268 -132 q-160 0 -250 112t-90 292zM291 506q0 -150 69 -240t199 -90q74 0 121.5 23t85.5 77q57 86 57 230q-4 127 -59 219q-72 111 -213 111q-128 0 -194 -89t-66 -241z" />
<glyph unicode="&#xf1;" horiz-adv-x="1103" d="M143 86v915q0 43 31 73t74 30q32 0 58.5 -19t37.5 -47q105 75 262 78q177 0 277 -106q33 -35 55 -78.5t30 -84t10.5 -62t2.5 -40.5v-659q0 -43 -30.5 -72.5t-73.5 -29.5t-73 29.5t-30 72.5v666q0 9 -1.5 23.5t-12.5 44t-29 48.5q-41 41 -125 41q-130 0 -200 -98 q-47 -63 -56 -135v-590q0 -41 -30.5 -71.5t-71.5 -30.5q-43 0 -74 30.5t-31 71.5zM209 1321q0 14 2 22q19 89 85 144t153 55q95 0 161 -63q2 -2 16.5 -19t26 -27t19.5 -10q14 0 23.5 11.5t13.5 25.5q7 35 36 58.5t64 23.5q43 0 73.5 -30.5t30.5 -71.5q0 -15 -2 -23 q-20 -88 -86.5 -143t-152.5 -55q-108 0 -180 81q-1 1 -5.5 7.5t-9 12.5t-12.5 11.5t-16 5.5q-14 0 -23.5 -11.5t-13.5 -25.5q-7 -36 -36.5 -58.5t-66.5 -22.5q-42 0 -71 30.5t-29 71.5zM217 88q0 -11 9.5 -21t21.5 -10t21.5 10t9.5 21v590q0 41 21 93t46 85q91 127 260 127 q118 0 178 -63q62 -64 62 -168v-664q0 -12 9.5 -21.5t21.5 -9.5q13 0 21.5 9.5t8.5 21.5v662q2 12 -0.5 41.5t-22 81.5t-55.5 90q-78 81 -223 81q-123 0 -203 -54.5t-124 -135.5v150q0 12 -9.5 21t-21.5 9t-21.5 -9t-9.5 -21v-916zM281 1321q0 -11 9 -21t21 -10q21 0 29 25 q9 41 40 67.5t69 26.5q53 0 90 -49q54 -70 133 -70q60 0 106.5 38.5t61.5 98.5l2 13q0 12 -9 20t-22 8q-10 0 -19 -6t-10 -16q-9 -41 -39.5 -67.5t-70.5 -26.5q-51 0 -90 51q-50 67 -133 67q-59 0 -105 -37.5t-61 -97.5q-2 -10 -2 -14z" />
<glyph unicode="&#xf2;" horiz-adv-x="1189" d="M82 543q0 253 144 413t370 160t369 -160t143 -413q0 -252 -143 -412t-369 -160t-370 160t-144 412zM154 543q0 -222 124 -360t318 -138t316 138t122 360q0 224 -122 362.5t-316 138.5q-195 0 -318.5 -139t-123.5 -362zM215 543q0 196 104.5 318t276.5 122t274.5 -121.5 t102.5 -318.5q0 -195 -102.5 -316t-274.5 -121t-276.5 121t-104.5 316zM289 543q0 -166 84 -265.5t223 -99.5t222 99.5t83 265.5q0 167 -83 266.5t-222 99.5q-140 0 -223.5 -99.5t-83.5 -266.5zM436 1497q0 44 33 74.5t72 30.5q61 0 90 -56l112 -207q13 -23 13 -45 q0 -45 -32 -75.5t-71 -30.5q-28 0 -53.5 14.5t-38.5 38.5l-112 207q-13 26 -13 49zM508 1497q0 -8 4 -14l113 -205q10 -16 26 -16q10 0 20.5 7.5t10.5 22.5q0 11 -4 15l-113 204q-6 17 -26 17q-11 0 -21 -7.5t-10 -23.5z" />
<glyph unicode="&#xf3;" horiz-adv-x="1189" d="M82 543q0 253 144 413t370 160t369 -160t143 -413q0 -252 -143 -412t-369 -160t-370 160t-144 412zM154 543q0 -222 124 -361t318 -139t316 139t122 361q0 223 -122 361t-316 138q-195 0 -318.5 -138t-123.5 -361zM215 543q0 196 104.5 317t276.5 121t274.5 -120.5 t102.5 -317.5q0 -195 -102.5 -317t-274.5 -122t-276.5 122t-104.5 317zM289 543q0 -166 84 -265.5t223 -99.5t222 99.5t83 265.5q0 167 -83 266.5t-222 99.5q-140 0 -223.5 -99.5t-83.5 -266.5zM436 1315q0 27 10 45l113 207q28 55 90 55q40 0 72.5 -30t32.5 -74 q0 -24 -13 -50l-112 -206q-14 -25 -38 -39.5t-52 -14.5q-40 0 -71.5 30.5t-31.5 76.5zM508 1313q0 -15 10.5 -23t20.5 -8q16 0 26 16l113 205q4 6 4 15q0 15 -10 22.5t-21 7.5q-21 0 -26 -16l-113 -205q-4 -4 -4 -14z" />
<glyph unicode="&#xf4;" horiz-adv-x="1189" d="M82 543q0 253 144 413t370 160t369 -160t143 -413q0 -252 -143 -412t-369 -160t-370 160t-144 412zM154 543q0 -222 124 -360t318 -138t316 138t122 360q0 224 -122 362.5t-316 138.5q-195 0 -318.5 -139t-123.5 -362zM215 543q0 196 104.5 318t276.5 122t274.5 -121.5 t102.5 -318.5q0 -195 -102.5 -316t-274.5 -121t-276.5 121t-104.5 316zM289 543q0 -166 84 -265.5t223 -99.5t222 99.5t83 265.5q0 167 -83 266.5t-222 99.5q-140 0 -223.5 -99.5t-83.5 -266.5zM324 1323q0 46 30 76l170 162q28 28 72 28q42 0 70 -28l170 -162 q30 -30 30 -76q0 -44 -30.5 -73t-71.5 -29q-44 0 -72 28l-98 94l-96 -94q-28 -28 -72 -28q-45 0 -73.5 31.5t-28.5 70.5zM395 1325q0 -14 9.5 -22.5t21.5 -8.5q11 0 20 9l148 143l147 -143q9 -9 23 -9q12 0 20.5 9.5t8.5 21.5q0 14 -9 23l-170 161q-6 9 -20 9q-12 0 -21 -9 l-167 -161q-11 -11 -11 -23z" />
<glyph unicode="&#xf5;" horiz-adv-x="1189" d="M82 543q0 253 144 413t370 160t369 -160t143 -413q0 -252 -143 -412t-369 -160t-370 160t-144 412zM156 543q0 -222 123 -360t317 -138t317 138t123 360q0 223 -122.5 361t-317.5 140q-194 0 -317 -139t-123 -362zM217 543q0 196 103.5 318t275.5 122t275.5 -122 t103.5 -318q0 -195 -103.5 -316t-275.5 -121t-275.5 121t-103.5 316zM242 1321q0 14 2 22q19 89 84.5 144t152.5 55q96 0 162 -63q2 -2 16.5 -19t26 -27t19.5 -10q14 0 23 11.5t13 25.5q7 35 36.5 58.5t64.5 23.5q43 0 73.5 -30.5t30.5 -71.5q0 -15 -2 -23 q-20 -88 -86.5 -143t-152.5 -55q-109 0 -181 81q-1 1 -5.5 7.5t-9 12.5t-12.5 11.5t-16 5.5q-14 0 -23.5 -11.5t-13.5 -25.5q-7 -36 -36 -58.5t-66 -22.5q-42 0 -71 30.5t-29 71.5zM289 543q0 -166 84 -265.5t223 -99.5t222 99.5t83 265.5q0 167 -83 266.5t-222 99.5 q-140 0 -223.5 -99.5t-83.5 -266.5zM313 1321q0 -11 9.5 -21t21.5 -10q21 0 29 25q9 41 39.5 67.5t68.5 26.5q53 0 90 -49q54 -70 134 -70q60 0 106 38.5t61 98.5l2 13q0 12 -8.5 20t-21.5 8q-10 0 -19 -6t-10 -16q-9 -41 -39.5 -67.5t-70.5 -26.5q-52 0 -91 51 q-50 67 -133 67q-59 0 -105 -37.5t-61 -97.5q-2 -10 -2 -14z" />
<glyph unicode="&#xf6;" horiz-adv-x="1189" d="M82 543q0 253 144 413t370 160t369 -160t143 -413q0 -252 -143 -412t-369 -160t-370 160t-144 412zM156 543q0 -222 123 -360t317 -138t317 138t123 360q0 223 -123 362t-317 139t-317 -139t-123 -362zM217 543q0 196 103.5 318t275.5 122t275.5 -122t103.5 -318 q0 -195 -103.5 -316t-275.5 -121t-275.5 121t-103.5 316zM289 543q0 -166 84 -265.5t223 -99.5t222 99.5t83 265.5q0 167 -83 266.5t-222 99.5q-140 0 -223.5 -99.5t-83.5 -266.5zM326 1296v93q0 43 30.5 72.5t73.5 29.5q42 0 72 -30t30 -72v-93q0 -41 -30.5 -71.5 t-71.5 -30.5q-43 0 -73.5 30.5t-30.5 71.5zM399 1296q0 -11 9 -19.5t22 -8.5q12 0 21.5 8.5t9.5 19.5v93q0 11 -9.5 20.5t-21.5 9.5q-13 0 -22 -9.5t-9 -20.5v-93zM657 1296v93q0 42 31 72t74 30q42 0 72 -30t30 -72v-93q0 -41 -30.5 -71.5t-71.5 -30.5q-43 0 -74 30.5 t-31 71.5zM731 1296q0 -11 9 -19.5t22 -8.5q12 0 21.5 8.5t9.5 19.5v93q0 11 -9.5 20.5t-21.5 9.5q-13 0 -22 -9.5t-9 -20.5v-93z" />
<glyph unicode="&#xf7;" horiz-adv-x="1269" d="M102 731q0 43 30 74t73 31h860q42 0 72 -31t30 -74t-29.5 -72.5t-72.5 -29.5h-860q-43 0 -73 29.5t-30 72.5zM174 731q0 -12 9.5 -20.5t21.5 -8.5h860q12 0 21.5 8.5t9.5 20.5q0 13 -9.5 23t-21.5 10h-860q-12 0 -21.5 -10t-9.5 -23zM487 305v45q0 47 34 80t81 33h45 q47 0 81 -33t34 -80v-45q0 -47 -33.5 -79.5t-81.5 -32.5h-45q-48 0 -81.5 32.5t-33.5 79.5zM487 1141v45q0 47 33.5 79.5t81.5 32.5h45q48 0 81.5 -32.5t33.5 -79.5v-45q0 -47 -34 -80t-81 -33h-45q-47 0 -81 33t-34 80zM559 305q0 -19 12 -30t31 -11h45q19 0 31 12t12 29 v45q0 17 -13 29t-30 12h-45q-19 0 -31 -12t-12 -29v-45zM559 1141q0 -19 12 -30t31 -11h45q19 0 31 12t12 29v45q0 17 -13 29t-30 12h-45q-19 0 -31 -12t-12 -29v-45z" />
<glyph unicode="&#xf8;" horiz-adv-x="1189" d="M82 543q0 253 144 413t370 160q103 0 190 -35l45 78q29 51 93 51q44 0 73 -29.5t29 -72.5q0 -28 -14 -53l-54 -92q71 -76 110.5 -184.5t39.5 -235.5q0 -252 -143 -412t-369 -160q-103 0 -190 35l-41 -69q-32 -52 -89 -52q-40 0 -72 29.5t-32 73.5q0 29 14 51l47 84 q-72 76 -111.5 184.5t-39.5 235.5zM156 543q0 -130 44.5 -235.5t125.5 -170.5l-76 -135q-4 -4 -4 -14q0 -12 9 -21.5t21 -9.5q17 0 27 16l74 129q95 -59 219 -59q194 0 317 139t123 361q0 130 -44.5 235t-125.5 170l82 142q4 12 4 18q0 12 -8.5 20.5t-21.5 8.5 q-18 0 -27 -15l-80 -137q-97 57 -219 57q-195 0 -317.5 -138t-122.5 -361zM217 543q0 196 103.5 317t275.5 121q109 0 188 -49l-428 -742q-67 57 -103 148.5t-36 204.5zM289 543q0 -137 57 -228l336 584q-45 10 -86 10q-140 0 -223.5 -99.5t-83.5 -266.5zM408 154l428 741 q67 -57 103 -148t36 -204q0 -195 -103.5 -317t-275.5 -122q-103 0 -188 50zM510 188q45 -10 86 -10q139 0 222 99.5t83 265.5q0 139 -55 227z" />
<glyph unicode="&#xf9;" horiz-adv-x="1093" d="M125 354v647q0 43 30.5 73t71.5 30q43 0 74 -30t31 -73v-657q0 -47 24 -92q41 -74 152 -74q122 0 186 101q23 38 35 80.5t12 62.5v579q0 43 31 73t74 30q42 0 72 -30t30 -73v-915q0 -41 -30.5 -71.5t-71.5 -30.5q-31 0 -56.5 16.5t-37.5 42.5q-109 -72 -248 -72 q-174 0 -276.5 110.5t-102.5 272.5zM197 352q0 -59 18.5 -113t55 -98.5t97 -71t138.5 -26.5q207 0 307 188v-145q0 -11 9.5 -20t21.5 -9t21 9t9 20v915q0 12 -9 21.5t-21 9.5t-21.5 -9.5t-9.5 -21.5v-581q0 -28 -13 -79t-44 -101q-88 -136 -248 -136q-156 0 -217 117 q-33 63 -33 123v655q0 13 -9.5 22t-21.5 9t-21 -9t-9 -22v-647zM334 1466q0 44 32.5 74.5t71.5 30.5q62 0 90 -55l113 -207q12 -21 12 -45q0 -45 -31.5 -76t-70.5 -31q-28 0 -53.5 14.5t-38.5 38.5l-113 207q-12 24 -12 49zM406 1466q0 -8 4 -14l112 -205q10 -16 27 -16 q10 0 20.5 8t10.5 23q0 9 -5 14l-112 205q-5 16 -27 16q-11 0 -20.5 -7.5t-9.5 -23.5z" />
<glyph unicode="&#xfa;" horiz-adv-x="1093" d="M125 352v647q0 43 30.5 74t71.5 31q43 0 74 -31t31 -74v-655q0 -47 24 -92q41 -74 152 -74q122 0 186 101q23 37 35 80t12 61v581q0 43 31 73t74 30q42 0 72 -30t30 -73v-915q0 -41 -30.5 -71.5t-71.5 -30.5q-31 0 -56.5 16.5t-37.5 42.5q-109 -72 -248 -72 q-174 0 -276.5 110.5t-102.5 270.5zM197 352q0 -59 18.5 -113t55 -98.5t97 -71t138.5 -26.5q207 0 307 188v-145q0 -11 9.5 -21t21.5 -10t21 10t9 21v915q0 12 -9 21.5t-21 9.5t-21.5 -9.5t-9.5 -21.5v-581q0 -28 -13 -79t-44 -101q-88 -136 -248 -136q-156 0 -217 117 q-33 63 -33 123v655q0 13 -9.5 22t-21.5 9t-21 -9t-9 -22v-647zM379 1264q0 28 10 45l113 207q28 55 90 55q40 0 72 -30.5t32 -74.5q0 -25 -12 -49l-113 -207q-29 -53 -90 -53q-40 0 -71 30.5t-31 76.5zM451 1262q0 -15 10 -23t20 -8q17 0 27 16l113 205q4 6 4 14 q0 16 -10 23.5t-21 7.5q-22 0 -27 -16l-112 -205q-4 -4 -4 -14z" />
<glyph unicode="&#xfb;" horiz-adv-x="1093" d="M125 352v647q0 43 30.5 74t71.5 31q43 0 74 -31t31 -74v-655q0 -47 24 -92q41 -74 152 -74q122 0 186 101q23 37 35 80t12 61v581q0 43 31 73t74 30q42 0 72 -30t30 -73v-915q0 -41 -30.5 -71.5t-71.5 -30.5q-31 0 -56.5 16.5t-37.5 42.5q-109 -72 -248 -72 q-174 0 -276.5 110.5t-102.5 270.5zM197 352q0 -59 18.5 -113t55 -98.5t97 -71t138.5 -26.5q207 0 307 188v-145q0 -11 9.5 -21t21.5 -10t21 10t9 21v915q0 12 -9 21.5t-21 9.5t-21.5 -9.5t-9.5 -21.5v-581q0 -28 -13 -79t-44 -101q-88 -136 -248 -136q-156 0 -217 117 q-33 63 -33 123v655q0 13 -9.5 22t-21.5 9t-21 -9t-9 -22v-647zM266 1311q0 44 31 75l170 162q29 29 72 29q40 0 69 -29l170 -162q31 -31 31 -75t-30.5 -73.5t-71.5 -29.5q-43 0 -72 29l-98 94l-97 -94q-29 -29 -71 -29q-45 0 -74 32t-29 71zM338 1313q0 -14 9.5 -22.5 t21.5 -8.5t20 8l148 144l147 -144q8 -8 23 -8q12 0 20 9.5t8 21.5q0 14 -8 22l-170 162q-5 8 -20 8q-13 0 -21 -8l-168 -162q-10 -10 -10 -22z" />
<glyph unicode="&#xfc;" horiz-adv-x="1093" d="M125 354v647q0 43 30.5 73t71.5 30q43 0 74 -30.5t31 -74.5v-655q0 -47 24 -92q41 -74 152 -74q122 0 186 101q23 37 35 80t12 61v581q0 43 31 73t74 30q42 0 72 -30t30 -73v-915q0 -41 -30.5 -71.5t-71.5 -30.5q-31 0 -56.5 16.5t-37.5 42.5q-109 -72 -248 -72 q-174 0 -276.5 110.5t-102.5 272.5zM197 352q0 -59 18.5 -113t55 -98.5t97 -71t138.5 -26.5q207 0 307 188v-145q0 -11 9.5 -21t21.5 -10t21 10t9 21v915q0 12 -9 21.5t-21 9.5t-21.5 -9.5t-9.5 -21.5v-581q0 -28 -13 -79t-44 -101q-88 -136 -248 -136q-156 0 -217 117 q-33 63 -33 123v655q0 13 -9.5 22t-21.5 9t-21 -9t-9 -22v-647zM266 1296v93q0 42 31 72t74 30q42 0 72 -30t30 -72v-93q0 -41 -30.5 -71.5t-71.5 -30.5q-43 0 -74 30.5t-31 71.5zM340 1296q0 -11 9 -19.5t22 -8.5q12 0 21 8.5t9 19.5v93q0 11 -9 20.5t-21 9.5 q-13 0 -22 -9.5t-9 -20.5v-93zM598 1296v93q0 43 30.5 72.5t73.5 29.5q42 0 72.5 -30t30.5 -72v-93q0 -41 -31 -71.5t-72 -30.5q-43 0 -73.5 30.5t-30.5 71.5zM672 1296q0 -11 8.5 -19.5t21.5 -8.5q12 0 21.5 8.5t9.5 19.5v93q0 11 -9.5 20.5t-21.5 9.5q-13 0 -21.5 -9.5 t-8.5 -20.5v-93z" />
<glyph unicode="&#xfd;" horiz-adv-x="1091" d="M63 999q0 42 29.5 73.5t75.5 31.5q30 0 55.5 -16.5t38.5 -45.5l307 -682l252 676q12 31 39.5 49.5t59.5 18.5q44 0 73 -32t29 -73q0 -19 -6 -34l-381 -1018q-55 -145 -133 -203q-74 -55 -195 -55q-50 0 -86 8q-35 7 -57.5 36.5t-22.5 65.5q0 43 31.5 73t73.5 30 q12 0 26.5 -3t34.5 -3q49 0 70 14q34 27 63 110l25 66l-391 870q-11 26 -11 43zM137 1001q0 -4 4 -12l404 -901l-35 -92q-40 -110 -88 -143q-42 -31 -113 -31q-32 0 -59 6q-12 2 -23.5 -7t-11.5 -22q0 -23 25 -30q34 -9 69 -9q91 0 140 35q66 41 120 178l381 1018v10 q0 12 -8.5 21.5t-21.5 9.5q-19 0 -29 -20l-316 -842l-378 844q-7 18 -29 18q-10 0 -20.5 -8t-10.5 -23zM403 1272q0 26 11 45l112 207q28 55 90 55q40 0 72.5 -30t32.5 -74q0 -26 -12 -50l-113 -206q-14 -25 -38 -39.5t-52 -14.5q-40 0 -71.5 30.5t-31.5 76.5zM475 1270 q0 -15 10.5 -23t20.5 -8q16 0 26 16l113 205q4 6 4 15q0 15 -10 22.5t-21 7.5q-21 0 -26 -16l-113 -205q-4 -4 -4 -14z" />
<glyph unicode="&#xfe;" horiz-adv-x="1228" d="M143 -209v1587q0 43 31 74t72 31q43 0 73.5 -31t30.5 -74v-348q119 86 268 86q213 0 340 -156.5t127 -416.5q0 -257 -130.5 -414.5t-342.5 -157.5q-152 0 -262 78v-258q0 -43 -29.5 -72.5t-72.5 -29.5t-74 30t-31 72zM215 -209q0 -13 9.5 -22t21.5 -9t21 9t9 22v479 q87 -227 336 -227q124 0 216.5 67t139 179.5t46.5 253.5q0 142 -43 253t-134 178.5t-219 67.5q-240 0 -342 -241v577q0 13 -9 22t-21 9t-21.5 -9t-9.5 -22v-1587zM276 537q0 86 21.5 164.5t62.5 141.5t107.5 100.5t150.5 37.5q83 0 148.5 -35.5t105 -96.5t60 -139t20.5 -167 q0 -123 -35.5 -220t-114.5 -158t-194 -61q-87 0 -153 36t-104 98t-56.5 137.5t-18.5 161.5zM350 520q0 -63 15 -122.5t44 -109t76.5 -80t106.5 -30.5q78 0 135.5 29.5t89.5 82t47 115.5t15 138q0 33 -3 66t-12 77.5t-27.5 81.5t-45.5 70t-72 52t-101 19q-53 0 -99.5 -21.5 t-85 -66t-61 -122t-22.5 -179.5z" />
<glyph unicode="&#xff;" horiz-adv-x="1091" d="M66 999q0 42 28.5 73.5t73.5 31.5q30 0 56 -16.5t38 -45.5l307 -682l254 676q12 32 38.5 50t58.5 18q46 0 75 -31t29 -72q0 -18 -6 -36l-383 -1018q-55 -145 -133 -203q-74 -55 -193 -55q-50 0 -86 8q-36 7 -59 36.5t-23 65.5q0 43 32 73t73 30q13 0 27.5 -3t35.5 -3 q49 0 70 14q27 22 63 110l23 66l-391 872q-8 16 -8 41zM137 1001q0 -4 4 -12l404 -901l-35 -92q-40 -110 -88 -143q-42 -31 -113 -31q-32 0 -59 6q-12 2 -23.5 -7t-11.5 -22q0 -23 25 -30q34 -9 69 -9q91 0 140 35q66 41 120 178l381 1018v10q0 12 -8.5 21.5t-21.5 9.5 q-19 0 -29 -20l-316 -842l-378 844q-7 18 -29 18q-10 0 -20.5 -8t-10.5 -23zM260 1321v92q0 43 31 73t74 30q41 0 71.5 -30t30.5 -73v-92q0 -41 -30.5 -71.5t-71.5 -30.5q-43 0 -74 30.5t-31 71.5zM334 1321q0 -11 9 -20t22 -9q12 0 21 9t9 20v92q0 11 -9 21t-21 10 q-13 0 -22 -10t-9 -21v-92zM592 1321v92q0 43 30.5 73t73.5 30q42 0 72.5 -30.5t30.5 -72.5v-92q0 -41 -31 -71.5t-72 -30.5q-43 0 -73.5 30.5t-30.5 71.5zM666 1321q0 -11 8.5 -20t21.5 -9q12 0 21.5 9t9.5 20v92q0 11 -9.5 21t-21.5 10q-13 0 -21.5 -10t-8.5 -21v-92z" />
<glyph unicode="&#x152;" horiz-adv-x="2199" d="M102 731q0 221 73 394t205.5 269.5t301.5 96.5q221 0 377 -162v33q0 42 30 72t72 30h834q42 0 72 -30t30 -72q0 -43 -30 -74t-72 -31h-731v-378h665q43 0 74 -31t31 -74q0 -42 -31 -72t-74 -30h-665v-13v-452h751q43 0 73 -31t30 -74t-30 -72.5t-73 -29.5h-854 q-43 0 -72.5 29.5t-29.5 72.5v29q-154 -160 -377 -160q-169 0 -301 96t-205.5 269t-73.5 395zM174 731q0 -308 141.5 -498t364.5 -190q153 0 270.5 92t179.5 256v-287q0 -12 9 -21t22 -9h852q12 0 21.5 9t9.5 21t-9.5 21.5t-21.5 9.5h-821v608h737q12 0 21.5 9.5t9.5 21.5 q0 13 -9.5 22t-21.5 9h-739v526h803q12 0 21 9.5t9 21.5t-9 21.5t-21 9.5h-832q-13 0 -22 -9.5t-9 -21.5v-291q-62 163 -180 254.5t-270 91.5q-223 0 -364.5 -189.5t-141.5 -496.5zM233 731q0 178 55.5 320t157.5 223.5t234 81.5q133 0 236.5 -81.5t158.5 -223.5t55 -320 t-55 -320.5t-158.5 -224.5t-236.5 -82q-132 0 -234 82t-157.5 224.5t-55.5 320.5zM307 731q0 -244 105 -398.5t270 -154.5q167 0 272 154t105 399t-105 399t-272 154q-165 0 -270 -154.5t-105 -398.5z" />
<glyph unicode="&#x153;" horiz-adv-x="1970" d="M82 543q0 253 144 413t370 160q129 0 235.5 -55.5t174.5 -155.5q26 39 61 74q64 64 151.5 100.5t188.5 36.5q201 0 326 -125q146 -149 155 -430q0 -45 -28 -76q-30 -30 -74 -30h-672q19 -132 97.5 -204.5t205.5 -72.5q37 0 70.5 7.5t69 25t64 53.5t44.5 86q10 33 38 52.5 t62 19.5q42 0 72.5 -29t30.5 -71q0 -15 -6 -33q-46 -149 -164 -233.5t-281 -84.5q-135 0 -241.5 53.5t-174.5 153.5q-68 -98 -173 -152.5t-232 -54.5q-226 0 -370 160t-144 412zM154 543q0 -222 124 -361t318 -139q145 0 253.5 81t154.5 220q43 -141 150 -220t263 -79 q140 0 238 70t137 192l2 12q0 13 -9 22t-22 9q-22 0 -28 -22q-35 -109 -118 -165.5t-200 -56.5q-179 0 -278.5 112.5t-102.5 307.5h750q13 0 20 11q9 9 9 22q-6 240 -123 369q-105 114 -285 114q-95 0 -170 -34t-121 -80q-74 -77 -112 -189q-45 140 -153 221.5t-255 81.5 q-195 0 -318.5 -138t-123.5 -361zM215 543q0 196 104.5 318t276.5 122q172 -1 274.5 -121.5t102.5 -318.5q0 -197 -102.5 -317.5t-274.5 -119.5q-172 0 -276.5 121t-104.5 316zM289 543q0 -166 84 -265.5t223 -99.5t222 99.5t83 265.5q0 167 -83 266.5t-222 99.5 q-140 0 -223.5 -99.5t-83.5 -266.5zM1036 588q10 178 114.5 286.5t254.5 108.5q162 0 248.5 -104t97.5 -291h-715zM1120 662h551q-24 127 -86.5 187t-177.5 60q-108 0 -184.5 -66t-102.5 -181z" />
<glyph unicode="&#x178;" horiz-adv-x="1275" d="M41 1380q0 44 32 73.5t72 29.5q50 0 82 -43l412 -570l410 570q32 43 84 43q40 0 71 -28.5t31 -72.5q0 -40 -18 -63l-476 -660v-573q0 -43 -30.5 -72.5t-73.5 -29.5q-42 0 -72 30t-30 72v573l-474 660q-20 26 -20 61zM113 1380q0 -12 6 -18l487 -678v-598q0 -12 9 -21.5 t22 -9.5q12 0 21.5 9.5t9.5 21.5v598l487 678q6 9 6 18q0 12 -9.5 20.5t-21.5 8.5q-15 0 -24 -12l-469 -649l-469 649q-7 12 -25 12q-13 0 -21.5 -8.5t-8.5 -20.5zM369 1507v92q0 43 30.5 73t73.5 30q41 0 71.5 -30t30.5 -73v-92q0 -41 -30.5 -71.5t-71.5 -30.5 q-43 0 -73.5 30.5t-30.5 71.5zM442 1507q0 -11 9 -19.5t22 -8.5q12 0 21.5 8.5t9.5 19.5v92q0 11 -9.5 21t-21.5 10q-13 0 -22 -10t-9 -21v-92zM700 1507v92q0 43 31 73t74 30q41 0 71.5 -30t30.5 -73v-92q0 -41 -30.5 -71.5t-71.5 -30.5q-43 0 -74 30.5t-31 71.5zM774 1507 q0 -11 9 -19.5t22 -8.5q12 0 21.5 8.5t9.5 19.5v92q0 11 -9.5 21t-21.5 10q-13 0 -22 -10t-9 -21v-92z" />
<glyph unicode="&#x2c6;" horiz-adv-x="952" d="M205 1585q0 45 31 76l170 162q28 28 71 28q42 0 70 -28l170 -162q31 -31 31 -76q0 -44 -31 -73t-72 -29q-44 0 -72 28l-98 95l-96 -95q-28 -28 -72 -28q-45 0 -73.5 31.5t-28.5 70.5zM276 1587q0 -14 9.5 -22.5t21.5 -8.5t21 9l147 143l148 -143q9 -9 22 -9 q12 0 20.5 9.5t8.5 21.5q0 15 -8 23l-170 162q-5 8 -21 8q-12 0 -20 -8l-168 -162q-11 -11 -11 -23z" />
<glyph unicode="&#x2dc;" horiz-adv-x="1228" d="M268 1585q0 15 2 23q19 89 85 143.5t153 54.5q96 0 162 -63q3 -3 17 -19.5t25 -26t19 -9.5q14 0 24 11t13 25q7 35 36 58.5t64 23.5q44 0 74.5 -31t30.5 -71q0 -15 -2 -23q-20 -88 -87 -143t-153 -55q-107 0 -180 82q-1 1 -5.5 7.5t-9 12.5t-12.5 11.5t-16 5.5 q-14 0 -23.5 -11.5t-13.5 -25.5q-7 -36 -36 -59t-66 -23q-42 0 -71.5 30.5t-29.5 71.5zM340 1585q0 -11 9.5 -21t21.5 -10q20 0 28 25q9 41 40 67.5t69 26.5q53 0 90 -49q54 -70 133 -70q60 0 106.5 39t61.5 99l2 12q0 12 -9 20.5t-22 8.5q-10 0 -18.5 -6.5t-9.5 -16.5 q-9 -41 -40 -67.5t-71 -26.5q-51 0 -90 51q-51 68 -133 68q-58 0 -104.5 -38t-61.5 -98q-2 -10 -2 -14z" />
<glyph unicode="&#x2000;" horiz-adv-x="956" />
<glyph unicode="&#x2001;" horiz-adv-x="1913" />
<glyph unicode="&#x2002;" horiz-adv-x="956" />
<glyph unicode="&#x2003;" horiz-adv-x="1913" />
<glyph unicode="&#x2004;" horiz-adv-x="637" />
<glyph unicode="&#x2005;" horiz-adv-x="478" />
<glyph unicode="&#x2006;" horiz-adv-x="318" />
<glyph unicode="&#x2007;" horiz-adv-x="318" />
<glyph unicode="&#x2008;" horiz-adv-x="239" />
<glyph unicode="&#x2009;" horiz-adv-x="382" />
<glyph unicode="&#x200a;" horiz-adv-x="106" />
<glyph unicode="&#x2010;" horiz-adv-x="901" d="M102 614q0 43 30 74t73 31h491q43 0 73 -31t30 -74t-30 -72.5t-73 -29.5h-491q-43 0 -73 29.5t-30 72.5zM174 614q0 -12 9.5 -20t21.5 -8h491q12 0 21.5 8t9.5 20q0 13 -9.5 23t-21.5 10h-491q-12 0 -21.5 -10t-9.5 -23z" />
<glyph unicode="&#x2011;" horiz-adv-x="901" d="M102 614q0 43 30 74t73 31h491q43 0 73 -31t30 -74t-30 -72.5t-73 -29.5h-491q-43 0 -73 29.5t-30 72.5zM174 614q0 -12 9.5 -20t21.5 -8h491q12 0 21.5 8t9.5 20q0 13 -9.5 23t-21.5 10h-491q-12 0 -21.5 -10t-9.5 -23z" />
<glyph unicode="&#x2012;" horiz-adv-x="901" d="M102 614q0 43 30 74t73 31h491q43 0 73 -31t30 -74t-30 -72.5t-73 -29.5h-491q-43 0 -73 29.5t-30 72.5zM174 614q0 -12 9.5 -20t21.5 -8h491q12 0 21.5 8t9.5 20q0 13 -9.5 23t-21.5 10h-491q-12 0 -21.5 -10t-9.5 -23z" />
<glyph unicode="&#x2013;" horiz-adv-x="1269" d="M102 614q0 43 30 74t73 31h860q42 0 72 -31t30 -74t-29.5 -72.5t-72.5 -29.5h-860q-43 0 -73 29.5t-30 72.5zM174 614q0 -12 9.5 -20t21.5 -8h860q12 0 21.5 8t9.5 20q0 13 -9.5 23t-21.5 10h-860q-12 0 -21.5 -10t-9.5 -23z" />
<glyph unicode="&#x2014;" horiz-adv-x="1964" d="M102 614q0 43 30 74t73 31h1554q43 0 73 -31t30 -74t-30 -72.5t-73 -29.5h-1554q-43 0 -73 29.5t-30 72.5zM174 614q0 -12 9 -20t22 -10h1554q12 0 20.5 9t8.5 21t-8.5 21.5t-20.5 9.5h-1554q-12 1 -21.5 -8t-9.5 -23z" />
<glyph unicode="&#x2018;" horiz-adv-x="493" d="M111 1137q0 268 157 344q23 10 45 10q45 0 74 -31.5t29 -70.5q0 -30 -15.5 -56t-44.5 -39q-22 -13 -32 -73q-4 -22 -5.5 -46t-1 -37t2.5 -36.5t2 -26.5q2 -40 -29 -71t-76 -31q-33 0 -61 19.5t-37 51.5q-8 24 -8 93zM182 1137q0 -54 4 -70q7 -23 31 -23q13 0 22 8.5 t9 20.5q0 4 -2 33t-1 60.5t7 66.5q8 51 29.5 84.5t42.5 42.5q20 7 20 29q0 12 -9.5 21t-21.5 9q-6 0 -14 -4q-117 -57 -117 -278z" />
<glyph unicode="&#x2019;" d="M57 1075q0 29 16 55t44 39q22 13 35 74q5 28 5.5 55.5t-1.5 55t-2 35.5q-2 41 27.5 71.5t74.5 30.5q34 0 62 -20t38 -52q9 -27 9 -92q0 -267 -160 -344q-23 -10 -43 -10q-47 0 -76 31t-29 71zM129 1073q0 -12 9.5 -21.5t21.5 -9.5l14 7q117 55 117 278q0 54 -4 70 q-7 20 -31 20q-13 0 -22 -7.5t-9 -18.5q0 -4 2 -33.5t1 -61.5t-7 -67q-8 -51 -29 -83.5t-42 -41.5q-21 -10 -21 -31z" />
<glyph unicode="&#x201a;" d="M57 -96q0 29 16 55t44 39q22 13 35 76q5 28 5.5 55.5t-1.5 54t-2 33.5q-2 41 28 73t74 32q34 0 62 -20.5t38 -53.5q9 -27 9 -90q0 -269 -160 -346q-26 -11 -43 -11q-47 0 -76 31.5t-29 71.5zM129 -96q0 -12 9.5 -21.5t21.5 -9.5q6 0 14 4q117 57 117 279q0 53 -4 69 q-7 23 -31 23q-13 0 -22 -8.5t-9 -20.5q0 -4 2 -33t1 -61t-7 -66q-8 -51 -29 -85t-42 -42q-21 -7 -21 -28z" />
<glyph unicode="&#x201c;" horiz-adv-x="755" d="M111 1137q0 268 157 344q23 10 45 10q45 0 74 -31.5t29 -70.5q0 -30 -15.5 -56t-44.5 -39q-22 -13 -32 -73q-4 -22 -5.5 -46t-1 -37t2.5 -36.5t2 -26.5q2 -40 -29 -71t-76 -31q-33 0 -61 19.5t-37 51.5q-8 24 -8 93zM182 1137q0 -54 4 -70q7 -23 31 -23q13 0 22 8.5 t9 20.5q0 4 -2 33t-1 60.5t7 66.5q8 51 29.5 84.5t42.5 42.5q20 7 20 29q0 12 -9.5 21t-21.5 9q-6 0 -14 -4q-117 -57 -117 -278zM393 1137q0 268 158 344q23 10 45 10q45 0 73.5 -31.5t28.5 -70.5q0 -30 -15.5 -56t-43.5 -39q-23 -14 -33 -73q-4 -22 -5.5 -46t-1 -37 t2.5 -36.5t2 -26.5q2 -41 -28.5 -71.5t-75.5 -30.5q-33 0 -61.5 20t-37.5 51q-8 24 -8 93zM465 1137q0 -54 4 -70q7 -23 31 -23q13 0 21.5 8.5t8.5 20.5q0 3 -2 33t-0.5 61.5t7.5 65.5q8 51 29 85t42 42q21 7 21 29q0 12 -9.5 21t-21.5 9q-6 0 -14 -4q-117 -57 -117 -278z " />
<glyph unicode="&#x201d;" horiz-adv-x="755" d="M57 1075q0 29 16 55t44 39q22 13 35 74q5 28 5.5 55.5t-1.5 55t-2 35.5q-2 41 27.5 71.5t74.5 30.5q34 0 62 -20t38 -52q9 -27 9 -92q0 -267 -160 -344q-23 -10 -43 -10q-47 0 -76 31t-29 71zM129 1073q0 -12 9.5 -21.5t21.5 -9.5l14 7q117 55 117 278q0 54 -4 70 q-7 20 -31 20q-13 0 -22 -7.5t-9 -18.5q0 -4 2 -33.5t1 -61.5t-7 -67q-8 -51 -29 -83.5t-42 -41.5q-21 -10 -21 -31zM340 1075q0 30 16 55.5t43 38.5q22 13 35 74q5 28 5.5 55.5t-1.5 55t-2 35.5q-2 41 28 71.5t75 30.5q34 0 62 -20t38 -52q8 -24 8 -92q0 -267 -160 -344 q-23 -10 -43 -10q-47 0 -75.5 31t-28.5 71zM412 1073q0 -12 9 -21.5t21 -9.5q1 0 15 7q116 55 116 278q0 54 -4 70q-7 20 -30 20q-13 0 -22 -7.5t-9 -18.5q0 -4 2 -33.5t1 -61.5t-7 -67q-8 -51 -29 -83.5t-43 -41.5q-20 -10 -20 -31z" />
<glyph unicode="&#x201e;" horiz-adv-x="755" d="M57 -96q0 29 16 55t44 39q22 13 35 76q5 28 5.5 55.5t-1.5 54t-2 33.5q-2 41 28 73t74 32q34 0 62 -20.5t38 -53.5q9 -27 9 -90q0 -269 -160 -346q-26 -11 -43 -11q-47 0 -76 31.5t-29 71.5zM129 -96q0 -12 9.5 -21.5t21.5 -9.5q6 0 14 4q117 57 117 279q0 53 -4 69 q-7 23 -31 23q-13 0 -22 -8.5t-9 -20.5q0 -4 2 -33t1 -61t-7 -66q-8 -51 -29 -85t-42 -42q-21 -7 -21 -28zM340 -96q0 30 16 55.5t43 38.5q22 13 35 76q5 28 5.5 55.5t-1.5 54t-2 33.5q-2 41 28 73t75 32q34 0 62 -20.5t38 -53.5q8 -24 8 -90q0 -269 -160 -346 q-26 -11 -43 -11q-47 0 -75.5 31.5t-28.5 71.5zM412 -96q0 -12 9 -21.5t21 -9.5q7 0 15 4q116 57 116 279q0 53 -4 69q-7 23 -30 23q-13 0 -22 -8.5t-9 -20.5q0 -4 2 -33t1 -61t-7 -66q-8 -51 -29.5 -84.5t-42.5 -42.5q-20 -7 -20 -28z" />
<glyph unicode="&#x2022;" horiz-adv-x="589" d="M74 666q0 91 65.5 156t157.5 65q91 0 155 -65t64 -156t-64 -155.5t-155 -64.5q-92 0 -157.5 64.5t-65.5 155.5zM147 666q0 -60 44 -103t106 -43q60 0 103.5 43t43.5 103t-43.5 104.5t-103.5 44.5q-61 0 -105.5 -44.5t-44.5 -104.5z" />
<glyph unicode="&#x2026;" horiz-adv-x="2168" d="M307 96v45q0 47 34 81t81 34h45q47 0 82 -34t35 -81v-45q0 -47 -34.5 -79.5t-82.5 -32.5h-45q-48 0 -81.5 32.5t-33.5 79.5zM381 96q0 -17 11 -28t30 -11h45q19 0 31 11t12 28v45q0 17 -12 29t-31 12h-45q-18 0 -29.5 -11.5t-11.5 -29.5v-45zM942 96v45q0 47 34 81t81 34 h45q47 0 82 -34t35 -81v-45q0 -47 -34.5 -79.5t-82.5 -32.5h-45q-48 0 -81.5 32.5t-33.5 79.5zM1016 96q0 -17 11 -28t30 -11h45q19 0 31 11t12 28v45q0 17 -12 29t-31 12h-45q-18 0 -29.5 -11.5t-11.5 -29.5v-45zM1587 96v45q0 47 34 81t81 34h45q47 0 81 -34t34 -81v-45 q0 -47 -33.5 -79.5t-81.5 -32.5h-45q-48 0 -81.5 32.5t-33.5 79.5zM1659 96q0 -17 12 -28t31 -11h45q19 0 31 11t12 28v45q0 17 -13 29t-30 12h-45q-19 0 -31 -12t-12 -29v-45z" />
<glyph unicode="&#x202f;" horiz-adv-x="382" />
<glyph unicode="&#x2039;" horiz-adv-x="692" d="M123 582q0 50 37 77l239 205q28 25 66 25q45 0 74.5 -30.5t29.5 -72.5q0 -49 -37 -79l-147 -125l147 -125q37 -30 37 -80q0 -42 -29.5 -72.5t-74.5 -30.5q-38 0 -66 25l-239 203q-37 30 -37 80zM195 582q0 -17 12 -23l239 -205q12 -8 19 -8q13 0 23 10t10 23q0 12 -13 22 l-213 181l215 182q11 11 11 24q0 12 -8.5 21.5t-22.5 9.5q-6 0 -18 -8l-244 -207q-10 -10 -10 -22z" />
<glyph unicode="&#x203a;" horiz-adv-x="692" d="M123 377q0 50 37 80l147 125l-147 125q-37 30 -37 79q0 42 29.5 72.5t74.5 30.5q38 0 66 -25l239 -205q37 -27 37 -77t-37 -80l-239 -203q-28 -25 -66 -25q-45 0 -74.5 30.5t-29.5 72.5zM195 379q0 -14 9.5 -23.5t22.5 -9.5q7 0 19 8l239 205q13 7 13 23q0 11 -11 22 l-243 207q-12 8 -19 8q-14 0 -22 -9.5t-8 -21.5q0 -14 10 -24l215 -182l-213 -181q-12 -9 -12 -22z" />
<glyph unicode="&#x205f;" horiz-adv-x="478" />
<glyph unicode="&#x20ac;" horiz-adv-x="1452" d="M102 578q0 31 23 53t55 22h137q-4 70 -4 146h-133q-32 0 -55 23t-23 55q0 31 23 53t55 22h148q30 204 127 346q75 108 183.5 165t238.5 57q150 0 267.5 -74t188.5 -205q13 -21 13 -49q0 -49 -32.5 -77t-70.5 -28q-61 0 -90 56q-93 170 -276 170q-76 0 -136.5 -29.5 t-100 -82t-64.5 -114t-39 -135.5h460q32 0 55 -22t23 -53q0 -32 -23 -55t-55 -23h-477q0 -76 4 -146h377q31 0 53.5 -22t22.5 -53q0 -32 -22.5 -55t-53.5 -23h-350q38 -145 120 -219t203 -74q191 0 281 170q28 55 90 55q40 0 72.5 -30t32.5 -74q0 -23 -13 -49 q-72 -134 -191.5 -206.5t-271.5 -72.5q-411 0 -536 500h-158q-32 0 -55 23t-23 55zM152 578q0 -12 7.5 -20.5t18.5 -8.5h223q18 -100 53 -182.5t90.5 -150.5t139 -106t188.5 -38q132 0 234.5 61.5t165.5 179.5q4 8 4 15q0 21 -25 28q-20 7 -34 -14q-108 -209 -345 -209 q-171 0 -271.5 113t-135.5 303h434q11 0 19 8.5t8 20.5q0 10 -8 18t-19 8h-444q-13 107 -6 244h548q11 0 19 8.5t8 20.5q0 10 -8 18t-19 8h-542q11 99 41 183t79 152t126 107t173 39q227 0 340 -206q15 -22 35 -15q23 4 23 29q0 10 -4 16q-63 116 -163.5 177t-230.5 61 q-228 0 -360 -189q-100 -147 -121 -354h-215q-10 0 -18 -7.5t-8 -18.5q0 -12 7.5 -20.5t18.5 -8.5h209q-7 -137 6 -244h-215q-10 0 -18 -8t-8 -18z" />
<glyph unicode="&#x2122;" horiz-adv-x="1650" d="M102 1411q0 27 22.5 49.5t49.5 22.5h471q28 0 50 -22t22 -50q0 -29 -22 -50.5t-50 -21.5h-164v-559q0 -29 -21.5 -50t-49.5 -21q-29 0 -49.5 21.5t-20.5 49.5v559h-166q-27 0 -49.5 21.5t-22.5 50.5zM145 1411q0 -12 9 -20.5t20 -8.5h209v-602q0 -12 9 -20t20 -8 q10 0 18 8t8 20v602h207q10 0 19.5 9t9.5 20q0 12 -9 20.5t-20 8.5h-471q-11 0 -20 -8.5t-9 -20.5zM819 780v631q0 28 21.5 50t50.5 22h55q20 0 39.5 -13.5t26.5 -33.5l170 -447l170 445q6 21 25.5 35t41.5 14h58q25 0 48 -22.5t23 -49.5v-631q0 -28 -22.5 -49.5 t-48.5 -21.5q-29 0 -50.5 21t-21.5 50v391l-156 -411q-8 -18 -26.5 -30.5t-38.5 -12.5q-22 0 -42 13t-26 32l-153 405v-387q0 -28 -23 -49.5t-49 -21.5q-29 0 -50.5 21t-21.5 50zM862 780q0 -11 8.5 -19.5t20.5 -8.5t20.5 8.5t8.5 19.5v594h12l225 -598q2 -5 9.5 -10.5 t17.5 -5.5q15 0 26 16l226 600h12v-596q0 -11 8.5 -19.5t20.5 -8.5t20 8.5t8 19.5v631q0 9 -9.5 19t-18.5 10h-58q-17 0 -24 -17l-213 -555l-211 553q-3 7 -11 13t-14 6h-55q-10 0 -19.5 -10t-9.5 -19v-631z" />
<glyph unicode="&#xe000;" horiz-adv-x="1105" d="M0 0v1106h1106v-1106h-1106z" />
</font>
</defs>
</svg>
